<svg width="29" height="29" viewBox="0 0 29 29" fill="none" xmlns="http://www.w3.org/2000/svg">
<g id="basil:arrow-down-outline">
<path id="Vector" d="M15.4067 19.5632L18.6934 16.2766C18.7764 16.1875 18.8764 16.1161 18.9876 16.0666C19.0987 16.0171 19.2187 15.9904 19.3404 15.9883C19.4621 15.9861 19.583 16.0085 19.6958 16.0541C19.8087 16.0997 19.9112 16.1675 19.9972 16.2536C20.0833 16.3396 20.1511 16.4421 20.1967 16.555C20.2423 16.6678 20.2647 16.7887 20.2625 16.9104C20.2604 17.0321 20.2337 17.1521 20.1842 17.2632C20.1347 17.3744 20.0633 17.4744 19.9742 17.5574L15.1409 22.3907C14.971 22.5605 14.7406 22.6558 14.5005 22.6558C14.2603 22.6558 14.03 22.5605 13.8601 22.3907L9.02672 17.5574C8.93768 17.4744 8.86627 17.3744 8.81673 17.2632C8.7672 17.1521 8.74057 17.0321 8.73842 16.9104C8.73628 16.7887 8.75866 16.6678 8.80424 16.555C8.84982 16.4421 8.91766 16.3396 9.00372 16.2536C9.08977 16.1675 9.19228 16.0997 9.30512 16.0541C9.41797 16.0085 9.53884 15.9861 9.66052 15.9883C9.7822 15.9904 9.9022 16.0171 10.0134 16.0666C10.1245 16.1161 10.2246 16.1875 10.3076 16.2766L13.5942 19.5632V7.85449C13.5942 7.61414 13.6897 7.38363 13.8597 7.21368C14.0296 7.04372 14.2601 6.94824 14.5005 6.94824C14.7408 6.94824 14.9713 7.04372 15.1413 7.21368C15.3112 7.38363 15.4067 7.61414 15.4067 7.85449V19.5632Z" fill="white"/>
</g>
</svg>
