<svg width="29" height="29" viewBox="0 0 29 29" fill="none" xmlns="http://www.w3.org/2000/svg">
<g id="basil:arrow-down-outline">
<path id="Vector" d="M13.5933 9.43676L10.3066 12.7234C10.2236 12.8125 10.1236 12.8839 10.0124 12.9334C9.90126 12.9829 9.78126 13.0096 9.65958 13.0117C9.5379 13.0139 9.41703 12.9915 9.30418 12.9459C9.19134 12.9003 9.08883 12.8325 9.00278 12.7464C8.91672 12.6604 8.84888 12.5579 8.8033 12.445C8.75772 12.3322 8.73534 12.2113 8.73748 12.0896C8.73963 11.9679 8.76626 11.8479 8.81579 11.7368C8.86533 11.6256 8.93674 11.5256 9.02578 11.4426L13.8591 6.60926C14.029 6.43955 14.2594 6.34422 14.4995 6.34422C14.7397 6.34422 14.97 6.43955 15.1399 6.60926L19.9733 11.4426C20.0623 11.5256 20.1337 11.6256 20.1833 11.7368C20.2328 11.8479 20.2594 11.9679 20.2616 12.0896C20.2637 12.2113 20.2413 12.3322 20.1958 12.445C20.1502 12.5579 20.0823 12.6604 19.9963 12.7464C19.9102 12.8325 19.8077 12.9003 19.6949 12.9459C19.582 12.9915 19.4612 13.0139 19.3395 13.0117C19.2178 13.0096 19.0978 12.9829 18.9866 12.9334C18.8755 12.8839 18.7754 12.8125 18.6924 12.7234L15.4058 9.43676L15.4058 21.1455C15.4058 21.3859 15.3103 21.6164 15.1403 21.7863C14.9704 21.9563 14.7399 22.0518 14.4995 22.0518C14.2592 22.0518 14.0287 21.9563 13.8587 21.7863C13.6888 21.6164 13.5933 21.3859 13.5933 21.1455L13.5933 9.43676Z" fill="#AEAEAE"/>
</g>
</svg>
