<svg width="224" height="225" viewBox="0 0 224 225" fill="none" xmlns="http://www.w3.org/2000/svg">
<g clip-path="url(#clip0_12571_87)">
<path d="M109.867 193.356C153.652 193.356 189.147 157.872 189.147 114.099C189.147 70.3272 153.652 34.8428 109.867 34.8428C66.0814 34.8428 30.5864 70.3272 30.5864 114.099C30.5864 157.872 66.0814 193.356 109.867 193.356Z" fill="white"/>
<g filter="url(#filter0_d_12571_87)">
<path d="M109.867 11.7297C53.3119 11.7297 7.4668 57.5613 7.4668 114.099C7.4668 170.638 53.3119 216.469 109.867 216.469C166.422 216.469 212.267 170.638 212.267 114.099C212.267 57.5613 166.422 11.7297 109.867 11.7297ZM109.867 181.213C72.7914 181.213 42.7337 151.164 42.7337 114.099C42.7337 77.035 72.7914 46.9862 109.867 46.9862C146.942 46.9862 177 77.035 177 114.099C177 151.164 146.942 181.213 109.867 181.213Z" fill="#D10C2B"/>
<path d="M109.867 9.72974C52.2079 9.72974 5.4668 56.4562 5.4668 114.099C5.4668 171.743 52.2079 218.469 109.867 218.469C167.526 218.469 214.267 171.743 214.267 114.099C214.267 56.4562 167.526 9.72974 109.867 9.72974ZM109.867 179.213C73.8954 179.213 44.7337 150.059 44.7337 114.099C44.7337 78.1401 73.8954 48.9862 109.867 48.9862C145.838 48.9862 175 78.1401 175 114.099C175 150.059 145.838 179.213 109.867 179.213Z" stroke="white" stroke-width="4"/>
</g>
<path d="M37.1018 81.4776C37.2286 82.4496 37.2239 83.4122 37.0877 84.3655C36.9514 85.3235 36.7119 86.2579 36.3784 87.1783C36.0167 88.1598 35.5329 89.005 34.9222 89.7188C34.3116 90.4326 33.6117 90.9867 32.8132 91.3764C32.0193 91.7709 31.1503 91.9822 30.2156 92.0198C29.2761 92.0573 28.3038 91.893 27.3033 91.522C26.2981 91.1557 25.4526 90.6533 24.7574 90.0146C24.0669 89.3807 23.5455 88.6528 23.1932 87.8404C22.8409 87.0281 22.6624 86.1499 22.6577 85.2108C22.6577 84.2716 22.8315 83.3136 23.1932 82.3322C23.5643 81.3273 24.0199 80.4492 24.5742 79.6931C25.1285 78.9371 25.8143 78.3501 26.641 77.9275L28.0502 80.6558C27.5194 80.8906 27.0684 81.2052 26.6973 81.6043C26.3263 82.0035 26.0069 82.5576 25.7485 83.2667C25.5324 83.8584 25.4338 84.4266 25.462 84.9807C25.4855 85.5348 25.617 86.0466 25.8518 86.5209C26.0867 86.9952 26.4202 87.4178 26.8477 87.7841C27.2751 88.1504 27.7824 88.4368 28.3602 88.6481C28.952 88.8641 29.5251 88.9721 30.0841 88.9674C30.643 88.9674 31.1644 88.8594 31.6482 88.6481C32.1368 88.4368 32.5642 88.1316 32.9447 87.723C33.3205 87.3192 33.6164 86.8214 33.8372 86.2298C34.0579 85.6287 34.1801 85.084 34.2035 84.5956C34.227 84.1072 34.2176 83.7081 34.1707 83.3982L32.1321 82.6515L31.3053 84.9008L28.7547 83.9664L30.5538 79.0592L37.1111 81.4635L37.1018 81.4776Z" fill="white"/>
<path d="M30.6147 67.6246L31.8877 65.5491L46.3176 67.573L44.5844 70.4046L41.5687 69.9068L38.8584 74.3303L40.6903 76.7581L38.9946 79.5286L30.6194 67.6246H30.6147ZM34.5229 68.6906L37.2144 72.2454L38.9195 69.4607L34.5229 68.6906Z" fill="white"/>
<path d="M38.1494 56.6175L41.6113 52.7763C42.0669 52.2692 42.546 51.8371 43.0533 51.4709C43.5606 51.1093 44.082 50.8557 44.6175 50.7242C45.153 50.588 45.7073 50.5974 46.2757 50.743C46.844 50.8933 47.4171 51.2267 47.9995 51.7479C48.6994 52.3772 49.1316 53.1003 49.296 53.9033C49.4604 54.711 49.2913 55.5234 48.7887 56.3405L55.2568 57.5943L52.8941 60.2145L47.0554 58.7166L46.0831 59.7966L50.0522 63.3702L48.0794 65.5584L38.1494 56.6175ZM44.2323 58.1296L45.3926 56.8382C45.5711 56.641 45.7496 56.4297 45.9328 56.1949C46.1159 55.9601 46.2522 55.7253 46.3414 55.4858C46.4307 55.2463 46.4541 54.9974 46.4119 54.7486C46.3696 54.495 46.2099 54.2508 45.9375 54.0066C45.6838 53.7812 45.4395 53.6497 45.1953 53.6169C44.9557 53.584 44.7209 53.6169 44.5001 53.7014C44.2746 53.7906 44.0585 53.9221 43.8472 54.1005C43.6358 54.2837 43.4385 54.4715 43.26 54.664L41.973 56.0963L44.2323 58.1296Z" fill="white"/>
<path d="M52.7437 42.3986L54.6789 40.9194L67.4179 48.0008L64.778 50.02L62.1428 48.4704L58.0187 51.6213L58.8548 54.5468L56.276 56.5191L52.7437 42.3986ZM56.0035 44.7982L57.2389 49.0808L59.8318 47.0992L56.0035 44.7982Z" fill="white"/>
<path d="M63.8618 34.6691L67.4693 32.9364L76.6148 38.8391L76.6477 38.825L72.6222 30.457L75.2761 29.1797L81.0725 41.2199L77.6013 42.8916L68.2209 36.848L68.188 36.8621L72.3122 45.432L69.6582 46.7093L63.8618 34.6691Z" fill="white"/>
<path d="M84.605 28.945L80.927 29.9452L80.2412 27.433L90.4389 24.6577L91.1247 27.17L87.4468 28.1702L90.2745 38.5481L87.4327 39.3229L84.605 28.945Z" fill="white"/>
<path d="M95.9348 20.0838L99.7442 19.5344L96.8977 22.69L94.4316 23.0422L95.9301 20.0838H95.9348ZM94.9859 23.9579L97.8982 23.54L99.8006 36.7635L96.8883 37.1815L94.9859 23.9579Z" fill="white"/>
<path d="M108.321 22.812H110.754L116.546 36.1858H113.225L112.079 33.3495L106.889 33.3401L105.771 36.1717H102.525L108.321 22.8167V22.812ZM109.449 26.7002L107.819 30.8513H111.083L109.449 26.7002Z" fill="white"/>
<path d="M130.074 24.9956L134.306 26.2635C135.33 26.5687 136.27 26.9773 137.125 27.4797C137.979 27.9869 138.67 28.5973 139.205 29.3158C139.736 30.0343 140.084 30.8654 140.244 31.8046C140.403 32.7438 140.305 33.8003 139.957 34.9696C139.647 36.0074 139.177 36.862 138.548 37.5335C137.918 38.205 137.195 38.7122 136.368 39.0456C135.546 39.3837 134.658 39.5622 133.705 39.5762C132.756 39.595 131.803 39.4588 130.849 39.1724L126.236 37.7918L130.074 24.9956ZM129.839 36.0356L131.305 36.477C131.958 36.6742 132.582 36.7869 133.179 36.8245C133.78 36.8573 134.33 36.7869 134.832 36.5991C135.335 36.4159 135.776 36.106 136.162 35.6787C136.547 35.2514 136.847 34.6738 137.063 33.9506C137.251 33.3261 137.298 32.7438 137.2 32.2084C137.106 31.6731 136.904 31.1941 136.598 30.7762C136.288 30.3583 135.889 29.992 135.401 29.6774C134.907 29.3674 134.367 29.1233 133.775 28.9448L132.113 28.4471L129.834 36.0403L129.839 36.0356Z" fill="white"/>
<path d="M151.188 32.9082L153.339 34.0493L152.221 48.5783L149.286 47.0239L149.596 43.9857L145.011 41.558L142.7 43.5396L139.83 42.0229L151.188 32.9176V32.9082ZM150.371 36.8715L146.993 39.7829L149.882 41.3091L150.375 36.8715H150.371Z" fill="white"/>
<path d="M162.617 39.7783L164.947 41.5768L158.441 50.0012L162.758 53.3353L161.095 55.486L154.448 50.3534L162.617 39.7783Z" fill="white"/>
<path d="M171.528 50.6632L168.836 47.963L170.682 46.127L178.137 53.6168L176.291 55.4529L173.599 52.7528L165.971 60.3413L163.895 58.2563L171.518 50.6678L171.528 50.6632Z" fill="white"/>
<path d="M175.675 60.797C176.558 60.1959 177.464 59.8015 178.38 59.6136C179.301 59.4211 180.194 59.4211 181.058 59.6136C181.922 59.8015 182.739 60.1677 183.505 60.7125C184.271 61.2572 184.947 61.9616 185.534 62.8256C186.121 63.6896 186.525 64.5772 186.751 65.4928C186.976 66.4038 187.014 67.2961 186.868 68.1695C186.723 69.0429 186.394 69.8694 185.873 70.6536C185.356 71.4378 184.651 72.1281 183.768 72.7292C182.885 73.3302 181.979 73.7247 181.058 73.9172C180.137 74.1097 179.245 74.1097 178.38 73.9172C177.516 73.7294 176.699 73.3631 175.933 72.8184C175.167 72.2737 174.491 71.5693 173.904 70.7052C173.317 69.8412 172.913 68.9537 172.687 68.0427C172.462 67.1317 172.424 66.2348 172.57 65.3661C172.716 64.4926 173.049 63.6615 173.566 62.882C174.082 62.0977 174.782 61.4075 175.67 60.8064L175.675 60.797ZM177.389 63.3281C176.868 63.6802 176.445 64.0841 176.126 64.5396C175.802 64.9951 175.586 65.4788 175.473 65.9953C175.36 66.5118 175.355 67.0425 175.468 67.5825C175.576 68.1225 175.806 68.6532 176.159 69.1744C176.511 69.6956 176.92 70.1042 177.385 70.4094C177.85 70.7099 178.343 70.9072 178.864 70.9917C179.386 71.0762 179.916 71.0574 180.461 70.926C181.001 70.7945 181.532 70.5503 182.054 70.1981C182.566 69.8506 182.984 69.4515 183.313 68.9913C183.641 68.5311 183.862 68.0474 183.975 67.5262C184.088 67.0096 184.088 66.479 183.98 65.939C183.871 65.3989 183.641 64.8636 183.284 64.3471C182.932 63.8258 182.523 63.4173 182.058 63.112C181.593 62.8115 181.1 62.619 180.579 62.5298C180.057 62.4452 179.522 62.4687 178.977 62.6049C178.427 62.7411 177.901 62.9806 177.389 63.3281Z" fill="white"/>
<path d="M192.078 74.4102L193.567 78.1246L187.062 86.8495L187.076 86.8823L195.695 83.4309L196.79 86.1639L184.384 91.1321L182.952 87.5586L189.612 78.6083L189.598 78.5754L180.767 82.1114L179.673 79.3784L192.078 74.4102Z" fill="white"/>
<path d="M34.0721 150.262L34.4761 151.065C34.5935 151.295 34.7203 151.507 34.8659 151.709C35.0069 151.91 35.1713 152.075 35.3545 152.211C35.5376 152.347 35.7396 152.422 35.9651 152.446C36.1906 152.469 36.4395 152.413 36.712 152.272C37.0596 152.094 37.2803 151.812 37.3696 151.417C37.4588 151.023 37.3978 150.624 37.1958 150.225C37.0032 149.844 36.7401 149.581 36.4066 149.436C36.0731 149.29 35.7349 149.257 35.392 149.332L34.5841 146.355C35.1525 146.233 35.6786 146.214 36.1624 146.294C36.6462 146.379 37.0924 146.543 37.4917 146.792C37.891 147.041 38.2574 147.36 38.5815 147.75C38.9056 148.14 39.1968 148.576 39.4411 149.07C39.6994 149.581 39.8873 150.107 40 150.643C40.1128 151.178 40.1269 151.694 40.0423 152.188C39.9578 152.681 39.7652 153.136 39.4739 153.554C39.178 153.972 38.7506 154.319 38.1963 154.601C37.5528 154.925 36.9186 155.038 36.2892 154.93C35.6598 154.822 35.1196 154.484 34.664 153.906L34.617 153.93C34.7485 154.301 34.8002 154.658 34.772 155.01C34.7438 155.357 34.6546 155.686 34.5089 155.996C34.3633 156.301 34.1614 156.583 33.9077 156.832C33.6541 157.085 33.3534 157.297 33.0199 157.466C32.4422 157.757 31.8785 157.902 31.3289 157.898C30.7793 157.898 30.2673 157.78 29.7882 157.55C29.3091 157.32 28.8723 156.987 28.473 156.555C28.0737 156.118 27.7308 155.62 27.4443 155.052C26.9229 154.019 26.7115 153.005 26.8102 152.019C26.9135 151.028 27.4208 150.154 28.3321 149.389L30.2438 151.666C29.8728 151.962 29.6379 152.305 29.5299 152.695C29.4265 153.084 29.5064 153.54 29.7694 154.061C30.0372 154.592 30.3801 154.921 30.784 155.033C31.1927 155.146 31.6107 155.094 32.0476 154.874C32.3764 154.709 32.5925 154.512 32.7052 154.287C32.8179 154.061 32.8602 153.817 32.8367 153.554C32.8132 153.291 32.7428 153.019 32.6207 152.742C32.4985 152.46 32.3717 152.183 32.2308 151.91L31.9396 151.338L34.0627 150.262H34.0721Z" fill="white"/>
<path d="M47.8963 162.683L49.3948 164.505L42.9642 177.094L40.9162 174.606L42.3301 171.999L39.1313 168.111L36.3223 169.022L34.3213 166.59L47.8963 162.683ZM45.6792 165.928L41.5691 167.271L43.5843 169.717L45.6839 165.928H45.6792Z" fill="white"/>
<path d="M53.6833 169.492L56.6378 172.009L54.9844 182.438L55.0126 182.462L60.8607 175.606L63.0355 177.461L54.6227 187.322L51.7809 184.899L53.4625 174.207L53.4343 174.183L47.4453 181.203L45.2705 179.348L53.6833 169.487V169.492ZM56.3231 170.347C56.558 170.145 56.821 169.966 57.1123 169.816C57.4035 169.661 57.6994 169.558 57.9954 169.501C58.296 169.44 58.5919 169.445 58.8925 169.506C59.1932 169.567 59.4703 169.708 59.7333 169.933C59.9635 170.131 60.1514 170.337 60.2876 170.553C60.4238 170.769 60.56 171.004 60.6963 171.262C60.7855 171.417 60.8748 171.577 60.9593 171.727C61.0439 171.877 61.1566 172.018 61.2975 172.136C61.4572 172.272 61.6216 172.328 61.8001 172.309C61.9786 172.291 62.1571 172.239 62.3403 172.154L63.4254 173.08C63.1482 173.31 62.8711 173.507 62.5893 173.666C62.3074 173.826 62.0209 173.934 61.7297 173.981C61.4384 174.028 61.1472 174.019 60.8513 173.939C60.5554 173.864 60.2641 173.704 59.9776 173.455C59.7756 173.281 59.6065 173.084 59.475 172.873C59.3435 172.657 59.2307 172.446 59.1368 172.239C59.0428 172.028 58.9489 171.835 58.8549 171.652C58.761 171.469 58.6483 171.319 58.5074 171.201C58.3476 171.065 58.1692 171.023 57.9625 171.074C57.7605 171.126 57.5773 171.196 57.4223 171.286L56.3231 170.347Z" fill="white"/>
<path d="M61.0531 184.058C61.5698 183.161 62.1899 182.429 62.9085 181.875C63.6319 181.316 64.407 180.936 65.2431 180.734C66.0792 180.532 66.9435 180.504 67.8453 180.654C68.7472 180.804 69.635 181.133 70.5134 181.635C71.3918 182.142 72.1245 182.744 72.707 183.443C73.2895 184.143 73.7028 184.908 73.9518 185.73C74.196 186.552 74.2618 187.416 74.1397 188.322C74.0222 189.224 73.7028 190.125 73.1908 191.027C72.6741 191.929 72.0541 192.656 71.3307 193.211C70.6073 193.769 69.8323 194.15 68.9962 194.352C68.1601 194.554 67.2958 194.582 66.3939 194.431C65.492 194.281 64.6042 193.953 63.7259 193.45C62.8475 192.948 62.1147 192.342 61.5322 191.642C60.9498 190.942 60.5364 190.182 60.2922 189.355C60.0479 188.534 59.9822 187.669 60.0996 186.763C60.217 185.862 60.5364 184.96 61.0531 184.058ZM63.6272 185.538C63.3219 186.068 63.1293 186.599 63.0401 187.129C62.9508 187.66 62.9696 188.177 63.087 188.679C63.2092 189.177 63.4346 189.642 63.7587 190.064C64.0828 190.492 64.5103 190.858 65.0411 191.158C65.5719 191.464 66.1027 191.647 66.6335 191.713C67.1642 191.778 67.6762 191.741 68.1695 191.59C68.6627 191.445 69.1136 191.196 69.5317 190.853C69.9497 190.51 70.3067 190.069 70.612 189.543C70.9079 189.027 71.1052 188.496 71.1945 187.956C71.2837 187.416 71.2696 186.899 71.1475 186.402C71.0254 185.904 70.7999 185.439 70.4758 185.012C70.1517 184.584 69.7242 184.218 69.1935 183.917C68.6627 183.617 68.1319 183.429 67.6011 183.363C67.0703 183.298 66.5583 183.335 66.0651 183.481C65.5719 183.626 65.1162 183.875 64.6982 184.227C64.2801 184.58 63.9184 185.012 63.6225 185.533L63.6272 185.538Z" fill="white"/>
<path d="M82.8575 191.107C82.7448 190.75 82.5287 190.44 82.2046 190.168C81.8805 189.895 81.5563 189.698 81.2228 189.571C81.0256 189.496 80.8189 189.445 80.5981 189.412C80.3773 189.379 80.1519 189.379 79.9358 189.407C79.715 189.435 79.5177 189.506 79.3439 189.623C79.1701 189.74 79.0386 189.914 78.9541 190.14C78.8179 190.506 78.846 190.835 79.048 191.135C79.25 191.431 79.5318 191.727 79.8982 192.023C80.2646 192.319 80.6592 192.624 81.0866 192.943C81.5141 193.262 81.8898 193.624 82.2093 194.033C82.5334 194.441 82.7494 194.911 82.8622 195.437C82.9749 195.963 82.8998 196.578 82.632 197.287C82.3784 197.963 82.0308 198.498 81.5892 198.907C81.1477 199.315 80.6498 199.602 80.0955 199.771C79.5412 199.94 78.9541 199.996 78.3246 199.945C77.6999 199.893 77.0705 199.747 76.4457 199.508C75.6566 199.212 74.9708 198.813 74.3883 198.32C73.8059 197.827 73.3221 197.202 72.9463 196.446L75.6378 195.075C75.774 195.545 76.0136 195.958 76.3518 196.315C76.6947 196.672 77.0846 196.935 77.5308 197.104C77.7469 197.183 77.977 197.244 78.2213 197.277C78.4609 197.31 78.691 197.31 78.9071 197.277C79.1232 197.24 79.3158 197.165 79.4849 197.043C79.654 196.925 79.7808 196.756 79.8606 196.54C79.9969 196.174 79.9687 195.831 79.7667 195.516C79.5647 195.197 79.2829 194.887 78.9165 194.577C78.5501 194.267 78.1508 193.948 77.714 193.615C77.2772 193.281 76.8967 192.91 76.5679 192.497C76.2391 192.084 76.0136 191.624 75.8915 191.107C75.7646 190.59 75.8304 189.994 76.0887 189.323C76.333 188.67 76.6806 188.149 77.1221 187.754C77.5637 187.36 78.0616 187.078 78.6159 186.909C79.1701 186.74 79.7573 186.679 80.3773 186.726C80.9974 186.773 81.608 186.909 82.1999 187.13C82.8857 187.388 83.5104 187.735 84.0788 188.172C84.6424 188.609 85.0981 189.154 85.441 189.802L82.8481 191.112L82.8575 191.107Z" fill="white"/>
<path d="M91.0875 197.108C91.2237 196.08 91.5243 195.173 91.9799 194.384C92.4356 193.595 93.0133 192.952 93.7085 192.445C94.4037 191.943 95.1975 191.59 96.0853 191.388C96.9778 191.186 97.922 191.154 98.9272 191.29C99.9324 191.426 100.834 191.708 101.642 192.135C102.445 192.562 103.117 193.112 103.657 193.783C104.193 194.45 104.583 195.23 104.813 196.108C105.043 196.991 105.09 197.944 104.954 198.972C104.818 200.001 104.517 200.907 104.061 201.696C103.606 202.485 103.028 203.128 102.333 203.635C101.637 204.138 100.844 204.49 99.9559 204.692C99.0681 204.894 98.1192 204.927 97.114 204.79C96.1088 204.654 95.2069 204.372 94.399 203.945C93.5958 203.518 92.9241 202.968 92.3839 202.297C91.8437 201.63 91.4585 200.851 91.2284 199.972C90.9935 199.094 90.9512 198.136 91.0875 197.108ZM94.0279 197.502C93.9481 198.108 93.9669 198.672 94.0843 199.202C94.2017 199.728 94.4131 200.203 94.7137 200.616C95.0144 201.034 95.3948 201.376 95.8599 201.649C96.3202 201.921 96.8557 202.095 97.4616 202.179C98.0676 202.259 98.6265 202.231 99.1479 202.09C99.6646 201.949 100.125 201.719 100.524 201.395C100.923 201.071 101.252 200.672 101.506 200.198C101.76 199.719 101.929 199.179 102.009 198.578C102.088 197.986 102.07 197.423 101.947 196.887C101.83 196.352 101.619 195.878 101.318 195.464C101.017 195.046 100.632 194.704 100.172 194.431C99.7116 194.159 99.1761 193.985 98.5702 193.901C97.9642 193.821 97.4052 193.849 96.8886 193.99C96.3719 194.131 95.9115 194.361 95.5123 194.68C95.113 195.004 94.7842 195.403 94.5258 195.887C94.2675 196.371 94.1031 196.906 94.0232 197.502H94.0279Z" fill="white"/>
<path d="M117.086 196.596C117.227 196.545 117.373 196.502 117.518 196.465C117.659 196.427 117.814 196.399 117.969 196.385C118.58 196.329 119.139 196.385 119.66 196.554C120.182 196.728 120.633 196.986 121.023 197.324C121.412 197.667 121.727 198.09 121.971 198.587C122.216 199.085 122.366 199.625 122.418 200.207C122.479 200.874 122.418 201.494 122.216 202.058C122.018 202.621 121.723 203.119 121.328 203.551C120.933 203.983 120.45 204.33 119.881 204.598C119.313 204.866 118.693 205.03 118.026 205.096C117.345 205.162 116.701 205.115 116.1 204.955C115.499 204.795 114.958 204.546 114.493 204.194C114.024 203.847 113.639 203.415 113.343 202.898C113.042 202.382 112.859 201.79 112.798 201.118C112.755 200.658 112.755 200.231 112.802 199.841C112.849 199.451 112.929 199.076 113.037 198.724C113.145 198.371 113.277 198.029 113.437 197.7C113.596 197.371 113.765 197.033 113.939 196.686L116.349 192.008L119.684 191.694L117.091 196.592L117.086 196.596ZM119.67 200.362C119.613 199.78 119.379 199.315 118.961 198.968C118.542 198.62 118.021 198.479 117.401 198.536C116.781 198.597 116.297 198.832 115.95 199.254C115.602 199.672 115.456 200.175 115.513 200.757C115.569 201.339 115.804 201.804 116.222 202.152C116.64 202.499 117.161 202.645 117.782 202.584C118.402 202.527 118.885 202.288 119.233 201.865C119.581 201.442 119.726 200.945 119.67 200.362Z" fill="white"/>
<path d="M124.025 197.672C123.851 196.925 123.743 196.145 123.7 195.343C123.658 194.54 123.738 193.779 123.945 193.07C124.147 192.356 124.508 191.731 125.025 191.196C125.537 190.656 126.265 190.28 127.205 190.06C128.144 189.839 128.961 189.862 129.661 190.121C130.361 190.379 130.958 190.783 131.456 191.328C131.953 191.877 132.357 192.52 132.677 193.262C132.992 194.004 133.236 194.751 133.41 195.497C133.583 196.249 133.691 197.024 133.734 197.827C133.776 198.63 133.696 199.39 133.489 200.099C133.287 200.808 132.926 201.438 132.409 201.973C131.897 202.513 131.169 202.893 130.23 203.109C129.29 203.33 128.473 203.307 127.773 203.053C127.073 202.795 126.476 202.391 125.979 201.842C125.481 201.292 125.077 200.649 124.757 199.907C124.443 199.165 124.194 198.418 124.025 197.672ZM126.702 197.052C126.777 197.385 126.885 197.78 127.026 198.235C127.162 198.691 127.345 199.118 127.576 199.517C127.806 199.916 128.088 200.231 128.426 200.466C128.764 200.7 129.173 200.762 129.661 200.649C130.136 200.541 130.479 200.301 130.681 199.944C130.882 199.583 131.005 199.174 131.033 198.714C131.066 198.254 131.042 197.789 130.962 197.319C130.882 196.85 130.807 196.446 130.727 196.113C130.652 195.779 130.544 195.385 130.403 194.929C130.267 194.474 130.084 194.046 129.854 193.647C129.624 193.248 129.337 192.934 128.994 192.699C128.651 192.464 128.243 192.403 127.768 192.516C127.28 192.628 126.937 192.863 126.74 193.225C126.542 193.586 126.425 193.995 126.397 194.45C126.364 194.91 126.387 195.371 126.467 195.845C126.547 196.315 126.622 196.718 126.702 197.052Z" fill="white"/>
<path d="M137.092 197.897L139.586 197.047L139.689 202.466L137.472 203.222L137.092 197.897Z" fill="white"/>
<path d="M140.516 193.074C140.197 192.374 139.934 191.637 139.732 190.853C139.53 190.074 139.459 189.313 139.516 188.576C139.572 187.838 139.802 187.153 140.197 186.523C140.591 185.894 141.23 185.378 142.109 184.974C142.987 184.575 143.795 184.429 144.528 184.542C145.265 184.655 145.932 184.932 146.529 185.368C147.125 185.805 147.651 186.359 148.112 187.021C148.572 187.683 148.957 188.364 149.277 189.064C149.596 189.764 149.859 190.506 150.061 191.285C150.263 192.065 150.334 192.825 150.277 193.563C150.216 194.3 149.991 194.985 149.596 195.615C149.202 196.244 148.563 196.76 147.689 197.164C146.811 197.563 146.003 197.709 145.27 197.596C144.537 197.484 143.865 197.207 143.269 196.77C142.672 196.333 142.146 195.779 141.686 195.117C141.226 194.455 140.84 193.774 140.521 193.074H140.516ZM143.015 191.933C143.156 192.243 143.344 192.609 143.57 193.032C143.795 193.455 144.063 193.835 144.363 194.178C144.669 194.521 145.012 194.774 145.387 194.938C145.763 195.103 146.181 195.079 146.637 194.873C147.083 194.671 147.37 194.37 147.496 193.976C147.623 193.581 147.656 193.159 147.595 192.703C147.534 192.248 147.421 191.797 147.247 191.351C147.078 190.905 146.923 190.529 146.778 190.214C146.637 189.904 146.454 189.538 146.228 189.12C146.003 188.702 145.735 188.317 145.434 187.974C145.129 187.632 144.786 187.378 144.406 187.218C144.025 187.059 143.612 187.078 143.166 187.279C142.71 187.491 142.423 187.787 142.301 188.181C142.179 188.576 142.146 188.998 142.207 189.454C142.268 189.909 142.381 190.36 142.555 190.806C142.724 191.252 142.879 191.628 143.025 191.938L143.015 191.933Z" fill="white"/>
<path d="M150.851 188.219C150.442 187.566 150.08 186.871 149.775 186.125C149.47 185.378 149.296 184.636 149.254 183.899C149.211 183.161 149.348 182.452 149.653 181.771C149.963 181.095 150.522 180.499 151.339 179.982C152.152 179.466 152.936 179.217 153.678 179.231C154.425 179.245 155.12 179.428 155.769 179.78C156.422 180.133 157.013 180.612 157.558 181.203C158.103 181.8 158.578 182.42 158.986 183.072C159.4 183.725 159.757 184.42 160.062 185.167C160.367 185.913 160.541 186.655 160.583 187.392C160.626 188.13 160.494 188.839 160.184 189.52C159.874 190.196 159.315 190.792 158.498 191.309C157.68 191.825 156.901 192.074 156.159 192.06C155.412 192.046 154.717 191.863 154.068 191.511C153.415 191.159 152.824 190.68 152.279 190.088C151.734 189.491 151.259 188.872 150.851 188.219ZM153.171 186.749C153.354 187.04 153.584 187.378 153.866 187.763C154.148 188.148 154.458 188.491 154.81 188.792C155.158 189.092 155.529 189.299 155.924 189.407C156.318 189.52 156.727 189.44 157.15 189.172C157.563 188.909 157.807 188.576 157.882 188.167C157.958 187.759 157.934 187.336 157.812 186.89C157.69 186.449 157.516 186.017 157.286 185.599C157.056 185.181 156.854 184.828 156.671 184.537C156.487 184.251 156.257 183.913 155.975 183.528C155.694 183.143 155.379 182.8 155.031 182.499C154.684 182.199 154.308 181.997 153.909 181.889C153.509 181.781 153.101 181.856 152.687 182.119C152.265 182.387 152.02 182.72 151.95 183.129C151.879 183.532 151.908 183.96 152.03 184.401C152.152 184.843 152.326 185.275 152.556 185.693C152.786 186.11 152.988 186.463 153.171 186.754V186.749Z" fill="white"/>
<path d="M160.456 182.006C159.963 181.419 159.512 180.776 159.108 180.076C158.704 179.377 158.432 178.667 158.291 177.94C158.15 177.212 158.187 176.493 158.399 175.78C158.615 175.066 159.089 174.399 159.827 173.779C160.564 173.159 161.306 172.807 162.044 172.718C162.786 172.633 163.5 172.718 164.191 172.981C164.881 173.244 165.539 173.638 166.154 174.15C166.774 174.667 167.328 175.221 167.821 175.808C168.319 176.395 168.766 177.038 169.17 177.738C169.574 178.437 169.846 179.146 169.987 179.874C170.128 180.602 170.09 181.321 169.879 182.034C169.667 182.748 169.188 183.415 168.451 184.035C167.713 184.655 166.971 185.012 166.234 185.096C165.496 185.185 164.778 185.096 164.087 184.833C163.397 184.57 162.739 184.18 162.124 183.664C161.504 183.147 160.949 182.593 160.456 182.006ZM162.561 180.241C162.781 180.504 163.054 180.804 163.387 181.152C163.716 181.494 164.073 181.795 164.463 182.044C164.848 182.293 165.243 182.448 165.651 182.504C166.06 182.56 166.455 182.429 166.835 182.105C167.206 181.79 167.403 181.429 167.422 181.011C167.441 180.597 167.361 180.18 167.183 179.757C167.004 179.334 166.769 178.93 166.487 178.545C166.206 178.16 165.952 177.841 165.731 177.578C165.51 177.315 165.238 177.015 164.909 176.667C164.58 176.324 164.223 176.024 163.834 175.775C163.448 175.526 163.049 175.376 162.64 175.319C162.232 175.268 161.837 175.399 161.461 175.714C161.081 176.038 160.879 176.399 160.865 176.813C160.851 177.221 160.935 177.639 161.114 178.062C161.292 178.484 161.527 178.888 161.809 179.273C162.091 179.658 162.344 179.982 162.565 180.241H162.561Z" fill="white"/>
<path d="M168.545 165.796L170.287 163.533L174.552 166.82L173.364 159.546L175.642 156.588L176.892 164.834L186.211 164.11L183.773 167.271L175.68 167.693L180.551 171.445L178.808 173.709L168.535 165.796H168.545Z" fill="white"/>
<path d="M176.314 155.681L178.269 151.826L187.165 152.986L187.184 152.953L180.993 146.454L182.938 142.617L194.507 148.473L193.215 151.023L184.342 146.534L184.328 146.567L191.66 154.094L190.679 156.038L180.326 154.47L180.307 154.503L189.18 158.992L187.888 161.542L176.319 155.686L176.314 155.681Z" fill="white"/>
<path d="M138.215 125.595H109.435C107.128 125.595 105.146 127.135 104.723 129.253C104.695 129.403 104.672 129.549 104.658 129.695C104.423 132.014 106.147 134.08 108.439 134.512L124.804 139.617C120.459 142.256 115.344 143.773 109.867 143.773C108.782 143.773 107.715 143.712 106.663 143.599C97.7949 142.622 91.1765 134.944 91.1765 126.022V117.593L92.2803 118.8L92.7407 119.223L101.816 128.295C102.657 124.999 105.667 122.543 109.209 122.543H112.812L96.6065 106.342C94.8028 104.539 92.4354 103.637 90.0679 103.637C87.7005 103.637 85.3284 104.539 83.5247 106.342C83.5153 106.351 81.3311 108.695 81.3311 113.076V128.375C81.3311 144.022 93.7365 157.109 109.383 157.372C125.368 157.64 138.412 144.764 138.412 128.845V125.595H138.219H138.215Z" fill="#D10C2B"/>
<path d="M117.74 70.8271C115.025 70.8271 112.817 73.0342 112.817 75.7484V118.227L117.195 122.58H122.662V75.7484C122.662 73.0342 120.455 70.8271 117.74 70.8271Z" fill="#D10C2B"/>
<path d="M133.48 70.8271C130.765 70.8271 128.558 73.0342 128.558 75.7484V122.58H138.408V75.7484C138.408 73.0342 136.2 70.8271 133.485 70.8271H133.48Z" fill="#D10C2B"/>
<path d="M101.994 70.8272C99.2795 70.8272 97.0718 73.0343 97.0718 75.7485V102.562L106.922 112.357V75.7438C106.922 73.0296 104.714 70.8225 101.999 70.8225L101.994 70.8272Z" fill="#D10C2B"/>
<path d="M18.585 124.383C18.9654 123.275 19.3365 122.195 19.7076 121.12C20.5766 118.593 21.4409 116.062 22.324 113.536C22.4085 113.296 22.3709 113.151 22.1878 112.982C21.8355 112.663 21.502 112.32 21.1262 111.953C21.7932 111.723 22.4273 111.648 23.0661 111.611C27.3641 111.343 31.3427 114.325 32.2774 118.523C32.7049 120.439 32.5311 122.308 31.742 124.111C31.6762 124.266 31.6245 124.393 31.3991 124.393C30.1684 124.379 28.9377 124.388 27.6882 124.388C29.8302 121.688 30.1637 118.87 28.2096 115.973C26.9508 114.109 24.5646 113.034 22.4508 113.348C22.54 113.4 22.6434 113.437 22.7138 113.508C23.813 114.597 24.9122 115.696 26.0113 116.79C26.622 117.396 26.7535 118.049 26.4153 118.838C26.3354 119.021 26.2321 119.199 26.124 119.368C25.0813 120.96 24.0338 122.552 22.9863 124.144C22.9111 124.257 22.8642 124.397 22.6763 124.397C21.3282 124.393 19.98 124.397 18.5944 124.397L18.585 124.383Z" fill="white"/>
<path d="M187.235 124.383C187.616 123.275 187.987 122.195 188.358 121.12C189.227 118.593 190.091 116.062 190.974 113.536C191.059 113.296 191.021 113.151 190.838 112.982C190.486 112.663 190.152 112.32 189.777 111.953C190.444 111.723 191.078 111.648 191.717 111.611C196.015 111.343 199.993 114.325 200.928 118.523C201.355 120.439 201.181 122.308 200.392 124.111C200.327 124.266 200.275 124.393 200.049 124.393C198.819 124.379 197.588 124.388 196.339 124.388C198.481 121.688 198.814 118.87 196.86 115.973C195.601 114.109 193.215 113.034 191.101 113.348C191.19 113.4 191.294 113.437 191.364 113.508C192.463 114.597 193.563 115.696 194.662 116.79C195.272 117.396 195.404 118.049 195.066 118.838C194.986 119.021 194.882 119.199 194.774 119.368C193.732 120.96 192.684 122.552 191.637 124.144C191.562 124.257 191.515 124.397 191.327 124.397C189.979 124.393 188.63 124.397 187.245 124.397L187.235 124.383Z" fill="white"/>
</g>
<defs>
<filter id="filter0_d_12571_87" x="-0.533203" y="7.72974" width="220.8" height="220.74" filterUnits="userSpaceOnUse" color-interpolation-filters="sRGB">
<feFlood flood-opacity="0" result="BackgroundImageFix"/>
<feColorMatrix in="SourceAlpha" type="matrix" values="0 0 0 0 0 0 0 0 0 0 0 0 0 0 0 0 0 0 127 0" result="hardAlpha"/>
<feOffset dy="4"/>
<feGaussianBlur stdDeviation="2"/>
<feComposite in2="hardAlpha" operator="out"/>
<feColorMatrix type="matrix" values="0 0 0 0 0 0 0 0 0 0 0 0 0 0 0 0 0 0 0.25 0"/>
<feBlend mode="normal" in2="BackgroundImageFix" result="effect1_dropShadow_12571_87"/>
<feBlend mode="normal" in="SourceGraphic" in2="effect1_dropShadow_12571_87" result="shape"/>
</filter>
<clipPath id="clip0_12571_87">
<rect width="224" height="225" fill="white"/>
</clipPath>
</defs>
</svg>
