<svg width="24" height="16" viewBox="0 0 24 16" fill="none" xmlns="http://www.w3.org/2000/svg">
<rect width="24" height="16" fill="#E5E5E5"/>
<g id="&#240;&#159;&#154;&#167; Precio de mercado thumbnail">
<path d="M-3336 -830C-3336 -831.105 -3335.1 -832 -3334 -832H1643C1644.1 -832 1645 -831.105 1645 -830V3486C1645 3487.1 1644.1 3488 1643 3488H-3334C-3335.1 3488 -3336 3487.1 -3336 3486V-830Z" fill="#484848"/>
<path d="M-3334 -831H1643V-833H-3334V-831ZM1644 -830V3486H1646V-830H1644ZM1643 3487H-3334V3489H1643V3487ZM-3335 3486V-830H-3337V3486H-3335ZM-3334 3487C-3334.55 3487 -3335 3486.55 -3335 3486H-3337C-3337 3487.66 -3335.66 3489 -3334 3489V3487ZM1644 3486C1644 3486.55 1643.55 3487 1643 3487V3489C1644.66 3489 1646 3487.66 1646 3486H1644ZM1643 -831C1643.55 -831 1644 -830.552 1644 -830H1646C1646 -831.657 1644.66 -833 1643 -833V-831ZM-3334 -833C-3335.66 -833 -3337 -831.657 -3337 -830H-3335C-3335 -830.552 -3334.55 -831 -3334 -831V-833Z" fill="black" fill-opacity="0.1"/>
<g id="Detalle + cupon" clip-path="url(#clip0_9371_14395)">
<rect width="1440" height="1892" transform="translate(-902 -698)" fill="white"/>
<g id="Side bar checkout - promo">
<rect id="BG" x="-45" y="-425" width="534" height="1014" rx="9" fill="white" stroke="#E1E1E1" stroke-width="1.5"/>
<g id="Group 1261154395">
<g id="Group 1261154394">
<g id="Group 1261154115">
<rect id="Rectangle 34624404" x="-22" y="-30" width="487" height="65" rx="12" fill="#F9C442"/>
</g>
<g id="Frame 1261154309">
<path id="Vector" d="M14.673 15.4632C14.4928 15.3022 14.3916 15.0838 14.3916 14.8561C14.3916 14.6284 14.4928 14.41 14.673 14.249C14.8532 14.088 15.0976 13.9975 15.3524 13.9975H21.0118L14.3205 6.68929L9.30678 11.1711C9.20852 11.2588 9.09016 11.3264 8.95984 11.3693C8.82952 11.4122 8.69033 11.4294 8.55188 11.4196C8.41343 11.4098 8.27901 11.3733 8.15786 11.3126C8.03671 11.2519 7.93173 11.1685 7.85014 11.0681L0.163392 1.62366C0.0247007 1.43928 -0.0286061 1.21403 0.0146733 0.99526C0.0579528 0.776488 0.194449 0.581224 0.395478 0.4505C0.596506 0.319777 0.846415 0.263773 1.09269 0.294257C1.33896 0.324741 1.56242 0.43934 1.71612 0.613971L8.7418 9.24615L13.7132 4.80385C13.8081 4.71919 13.9218 4.65322 14.047 4.61019C14.1722 4.56715 14.306 4.54802 14.44 4.554C14.5739 4.55998 14.705 4.59096 14.8247 4.64493C14.9445 4.69891 15.0503 4.77468 15.1353 4.86738L22.0783 12.4521V7.98747C22.0783 7.75976 22.1795 7.54138 22.3597 7.38036C22.5399 7.21935 22.7843 7.12889 23.0392 7.12889C23.294 7.12889 23.5384 7.21935 23.7186 7.38036C23.8988 7.54138 24 7.75976 24 7.98747V14.8561C24 15.0838 23.8988 15.3022 23.7186 15.4632C23.5384 15.6242 23.294 15.7147 23.0392 15.7147H15.3524C15.0976 15.7147 14.8532 15.6242 14.673 15.4632Z" fill="black"/>
</g>
</g>
</g>
</g>
</g>
</g>
<defs>
<clipPath id="clip0_9371_14395">
<rect width="1440" height="1892" fill="white" transform="translate(-902 -698)"/>
</clipPath>
</defs>
</svg>
