<svg width="20" height="20" viewBox="0 0 20 20" fill="none" xmlns="http://www.w3.org/2000/svg">
<path d="M11.5592 13.8533C11.4541 13.7594 11.3951 13.632 11.3951 13.4992C11.3951 13.3663 11.4541 13.2389 11.5592 13.145C11.6644 13.0511 11.8069 12.9983 11.9556 12.9983H15.2569L11.3536 8.73518L8.42895 11.3496C8.37164 11.4007 8.30259 11.4402 8.22657 11.4652C8.15055 11.4902 8.06936 11.5002 7.9886 11.4945C7.90784 11.4888 7.82942 11.4675 7.75875 11.4321C7.68808 11.3967 7.62684 11.348 7.57925 11.2895L3.09531 5.78023C3.01441 5.67267 2.98331 5.54127 3.00856 5.41366C3.03381 5.28604 3.11343 5.17214 3.2307 5.09588C3.34796 5.01963 3.49374 4.98696 3.6374 5.00474C3.78106 5.02252 3.91141 5.08937 4.00107 5.19124L8.09939 10.2267L10.9994 7.63533C11.0547 7.58595 11.1211 7.54747 11.1941 7.52236C11.2671 7.49726 11.3452 7.4861 11.4233 7.48959C11.5015 7.49308 11.5779 7.51115 11.6478 7.54263C11.7176 7.57412 11.7793 7.61832 11.8289 7.6724L15.879 12.0968V9.49245C15.879 9.35962 15.9381 9.23222 16.0432 9.1383C16.1483 9.04437 16.2909 8.99161 16.4395 8.99161C16.5882 8.99161 16.7307 9.04437 16.8358 9.1383C16.9409 9.23222 17 9.35962 17 9.49245V13.4992C17 13.632 16.9409 13.7594 16.8358 13.8533C16.7307 13.9472 16.5882 14 16.4395 14H11.9556C11.8069 14 11.6644 13.9472 11.5592 13.8533Z" fill="#D35400"/>
<rect x="0.5" y="0.5" width="19" height="19" rx="4.5" stroke="#D35400"/>
</svg>
