<svg width="13" height="14" viewBox="0 0 13 14" fill="none" xmlns="http://www.w3.org/2000/svg">
<path id="calendar-alt" d="M4.04688 7.875C4.21094 7.875 4.375 7.73828 4.375 7.54688V6.45312C4.375 6.28906 4.21094 6.125 4.04688 6.125H2.95312C2.76172 6.125 2.625 6.28906 2.625 6.45312V7.54688C2.625 7.73828 2.76172 7.875 2.95312 7.875H4.04688ZM7 7.54688V6.45312C7 6.28906 6.83594 6.125 6.67188 6.125H5.57812C5.38672 6.125 5.25 6.28906 5.25 6.45312V7.54688C5.25 7.73828 5.38672 7.875 5.57812 7.875H6.67188C6.83594 7.875 7 7.73828 7 7.54688ZM9.625 7.54688V6.45312C9.625 6.28906 9.46094 6.125 9.29688 6.125H8.20312C8.01172 6.125 7.875 6.28906 7.875 6.45312V7.54688C7.875 7.73828 8.01172 7.875 8.20312 7.875H9.29688C9.46094 7.875 9.625 7.73828 9.625 7.54688ZM7 10.1719V9.07812C7 8.91406 6.83594 8.75 6.67188 8.75H5.57812C5.38672 8.75 5.25 8.91406 5.25 9.07812V10.1719C5.25 10.3633 5.38672 10.5 5.57812 10.5H6.67188C6.83594 10.5 7 10.3633 7 10.1719ZM4.375 10.1719V9.07812C4.375 8.91406 4.21094 8.75 4.04688 8.75H2.95312C2.76172 8.75 2.625 8.91406 2.625 9.07812V10.1719C2.625 10.3633 2.76172 10.5 2.95312 10.5H4.04688C4.21094 10.5 4.375 10.3633 4.375 10.1719ZM9.625 10.1719V9.07812C9.625 8.91406 9.46094 8.75 9.29688 8.75H8.20312C8.01172 8.75 7.875 8.91406 7.875 9.07812V10.1719C7.875 10.3633 8.01172 10.5 8.20312 10.5H9.29688C9.46094 10.5 9.625 10.3633 9.625 10.1719ZM12.25 3.0625C12.25 2.35156 11.6484 1.75 10.9375 1.75H9.625V0.328125C9.625 0.164062 9.46094 0 9.29688 0H8.20312C8.01172 0 7.875 0.164062 7.875 0.328125V1.75H4.375V0.328125C4.375 0.164062 4.21094 0 4.04688 0H2.95312C2.76172 0 2.625 0.164062 2.625 0.328125V1.75H1.3125C0.574219 1.75 0 2.35156 0 3.0625V12.6875C0 13.4258 0.574219 14 1.3125 14H10.9375C11.6484 14 12.25 13.4258 12.25 12.6875V3.0625ZM10.9375 12.5234C10.9375 12.6328 10.8555 12.6875 10.7734 12.6875H1.47656C1.36719 12.6875 1.3125 12.6328 1.3125 12.5234V4.375H10.9375V12.5234Z" fill="#333333"/>
</svg>
