<svg width="8" height="14" viewBox="0 0 8 14" fill="none" xmlns="http://www.w3.org/2000/svg">
<path id="dollar-sign" d="M5.77388 6.64453L2.602 5.71484C2.1645 5.60547 1.83638 5.25 1.75435 4.8125C1.64497 4.10156 2.19185 3.5 2.87544 3.5H4.87153C5.30903 3.5 5.74653 3.63672 6.102 3.91016C6.26607 4.01953 6.51216 3.99219 6.64888 3.85547L7.27778 3.22656C7.46919 3.03516 7.44185 2.73438 7.25044 2.57031C6.56685 2.05078 5.74653 1.75 4.87153 1.75H4.81685V0.4375C4.81685 0.21875 4.5981 0 4.37935 0H3.50435C3.25825 0 3.06685 0.21875 3.06685 0.4375V1.75H2.98482C1.64497 1.75 0.387159 2.625 0.0863781 3.9375C-0.296434 5.46875 0.633253 6.97266 2.08247 7.38281L5.25435 8.3125C5.69185 8.42188 6.04732 8.77734 6.102 9.21484C6.21138 9.89844 5.6645 10.5 5.00825 10.5H2.98482C2.54732 10.5 2.10982 10.3633 1.75435 10.1172C1.59028 10.0078 1.34419 10.0352 1.20747 10.1719L0.578566 10.8008C0.387159 10.9922 0.414503 11.293 0.605909 11.457C1.2895 11.9766 2.10982 12.25 2.98482 12.25H3.06685V13.5625C3.06685 13.8086 3.25825 14 3.50435 14H4.37935C4.5981 14 4.81685 13.8086 4.81685 13.5625V12.25H4.87153C6.21138 12.25 7.46919 11.4023 7.76997 10.0898C8.15278 8.55859 7.2231 7.05469 5.77388 6.64453Z" fill="#3C3C3C"/>
</svg>
