<svg width="11" height="15" viewBox="0 0 11 15" fill="none" xmlns="http://www.w3.org/2000/svg">
<path id="map-marker-alt" d="M5.25237 0.730957C2.32527 0.730957 0 3.11094 0 5.98333C0 7.95297 0.62919 8.5548 4.13077 14.1354C4.65054 14.9561 5.82685 14.9561 6.34661 14.1354C9.8482 8.5548 10.5047 7.95297 10.5047 5.98333C10.5047 3.08358 8.12476 0.730957 5.25237 0.730957ZM5.25237 13.4242C1.75079 7.84354 1.31309 7.48791 1.31309 5.98333C1.31309 3.8222 3.06388 2.04405 5.25237 2.04405C7.4135 2.04405 9.19165 3.8222 9.19165 5.98333C9.19165 7.48791 8.75395 7.78883 5.25237 13.4242ZM3.06388 5.98333C3.06388 7.21435 4.02135 8.17182 5.25237 8.17182C6.45604 8.17182 7.44086 7.21435 7.44086 5.98333C7.44086 4.77966 6.45604 3.79484 5.25237 3.79484C4.02135 3.79484 3.06388 4.77966 3.06388 5.98333Z" fill="#3C3C3C"/>
</svg>
