<svg width="14" height="15" viewBox="0 0 14 15" fill="none" xmlns="http://www.w3.org/2000/svg">
<path id="redo" d="M13.3913 0.75H12.6292C12.4387 0.75 12.3026 0.913306 12.3026 1.10383L12.357 3.77117C11.1595 1.94758 9.06369 0.75 6.72296 0.777218C2.99413 0.777218 -0.0270353 3.8256 0.00018247 7.52722C0.00018247 11.256 3.02135 14.25 6.75018 14.25C8.4649 14.25 10.0707 13.5968 11.2683 12.5353C11.4044 12.3992 11.4044 12.1815 11.2683 12.0454L10.724 11.501C10.6151 11.3921 10.4246 11.3921 10.2885 11.501C9.33587 12.3448 8.11107 12.8347 6.75018 12.8347C3.78345 12.8347 1.4155 10.4667 1.4155 7.5C1.4155 4.56048 3.78345 2.16532 6.75018 2.16532C8.90038 2.16532 10.7512 3.47177 11.5949 5.32258L8.1655 5.24093C7.97498 5.24093 7.83889 5.37702 7.83889 5.56754V6.30242C7.83889 6.49294 7.97498 6.62903 8.1655 6.62903H13.3913C13.5546 6.62903 13.7179 6.49294 13.7179 6.30242V1.07661C13.7179 0.913306 13.5546 0.75 13.3913 0.75Z" fill="black"/>
</svg>
