<svg width="18" height="14" viewBox="0 0 18 14" fill="none" xmlns="http://www.w3.org/2000/svg">
<path id="tachometer-alt-fast" d="M13 9.00977C13 9.57227 13.4375 10.0098 14 10.0098C14.5312 10.0098 15 9.57227 15 9.00977C15 8.47852 14.5312 8.00977 14 8.00977C13.4375 8.00977 13 8.47852 13 9.00977ZM7 10.0098C7 10.3848 7.09375 10.7285 7.25 11.0098H10.7188C10.875 10.7285 11 10.3848 11 10.0098C11 9.66602 10.875 9.32227 10.7188 9.04102L13.0625 5.97852C13.3438 5.66602 13.2812 5.19727 12.9375 4.94727C12.625 4.66602 12.1562 4.72852 11.9062 5.07227L9.53125 8.10352C9.34375 8.07227 9.1875 8.00977 9 8.00977C7.875 8.00977 7 8.91602 7 10.0098ZM10 4.00977C10 3.47852 9.53125 3.00977 9 3.00977C8.4375 3.00977 8 3.47852 8 4.00977C8 4.57227 8.4375 5.00977 9 5.00977C9.53125 5.00977 10 4.57227 10 4.00977ZM4 8.00977C3.4375 8.00977 3 8.47852 3 9.00977C3 9.57227 3.4375 10.0098 4 10.0098C4.53125 10.0098 5 9.57227 5 9.00977C5 8.47852 4.53125 8.00977 4 8.00977ZM5.5 6.50977C6.03125 6.50977 6.5 6.07227 6.5 5.50977C6.5 4.97852 6.03125 4.50977 5.5 4.50977C4.9375 4.50977 4.5 4.97852 4.5 5.50977C4.5 6.07227 4.9375 6.50977 5.5 6.50977ZM0 9.00977C0 10.666 0.4375 12.2285 1.21875 13.541C1.375 13.8535 1.71875 14.0098 2.0625 14.0098H15.9062C16.25 14.0098 16.5938 13.8535 16.75 13.541C17.5312 12.2285 18 10.666 18 9.00977C18 4.04102 13.9688 0.00976562 9 0.00976562C4 0.00976562 0 4.04102 0 9.00977ZM1.5 9.00977C1.5 4.88477 4.84375 1.50977 9 1.50977C13.125 1.50977 16.5 4.88477 16.5 9.00977C16.5 10.2598 16.1875 11.4473 15.625 12.5098H2.34375C1.78125 11.4473 1.5 10.2598 1.5 9.00977Z" fill="#333333"/>
</svg>
