<svg width="77" height="56" viewBox="0 0 77 56" fill="none" xmlns="http://www.w3.org/2000/svg">
<g clip-path="url(#clip0)">
<path d="M41.74 54.48C39.6 52.21 36.09 50.79 33.17 49.83C33.39 47.55 32.44 44.72 29.62 42.67C28.71 42.01 27.87 41.57 27.35 41.27C27.49 42.9 27.88 44.29 28.56 45.37C29.32 46.58 31.69 48.77 32.74 49.69C30.97 49.12 29.31 48.66 27.41 48.1C27.43 47.48 27.26 46.62 27.04 45.82C26.8 44.93 26.51 44.11 26.3 43.74C25.7 42.67 24.89 41.84 24.16 41.2C23.43 40.55 22.76 40.09 22.34 39.78C22.17 42.29 22.68 44.69 26.93 47.96C25.16 47.43 23.44 46.89 21.7 46.22C21.74 45.58 21.57 42.1 19.46 39.29C18.94 38.61 18.47 38.09 18.17 37.76C17.1 41.01 18.74 43.92 21.22 46.02C19.49 45.33 17.88 44.56 16.32 43.6C16.7 41.77 16.54 38.27 14.88 34.97C12.78 38.03 14.37 41.6 15.88 43.33C14.36 42.35 13.01 41.25 11.75 39.89C11.73 39.87 11.71 39.85 11.7 39.83C12.25 38.62 13.49 34.54 12.35 31.12C10.21 33.21 10.03 36.24 11.08 38.85C11.16 39.07 11.26 39.27 11.36 39.45C10.15 38.07 9.13 36.53 8.32 34.91C10.31 32.3 10.99 29.32 10.55 26.48C7.89 28.22 7.44 31.96 8.11 34.49C7.3 32.8 6.64 31.06 6.17 29.33C8.62 26.91 9.7 24.07 9.69 21.55C7.63 22.4 6.51 24.46 6.15 26.62C6.02 27.38 5.97 28.2 6.06 28.94C5.59 27.14 5.28 25.37 5.15 23.44C5.53 23.15 6.17 22.52 6.8 21.89C7.28 21.4 9.37 19.62 9.82 16.42C7.71 16.88 6.32 18.72 5.6 20.73C5.33 21.48 5.15 22.35 5.14 23.23C5.09 22.4 5.07 21.6 5.08 20.82C5.16 16.73 6.04 12.66 7.54 8.89C7.64 8.73 7.7 8.59 7.74 8.48C7.97 8.23 8.34 7.75 8.73 7.21C9.26 6.5 9.84 5.7 10.16 5.18C11.52 2.96 11.96 1.25 12.35 0C10.87 1.08 9.66 2.18 8.71 4.19C8.43 4.78 8.1 5.75 7.87 6.65C7.69 7.35 7.58 8.01 7.56 8.39C7.51 8.51 7.44 8.66 7.37 8.85C7 9.75 6.57 10.96 6.22 12.14C6.27 11.79 6.39 10.76 6.55 9.59C6.64 8.95 6.74 8.27 6.81 7.64C6.88 7.01 6.94 6.44 6.93 6.01C6.9 4.81 6.62 3.46 6.21 1.93C5.27 3.71 4.53 5.65 4.78 7.81C4.91 9.01 5.37 11.35 6.2 12.21C5.61 14.21 5.25 16.02 5.03 17.86C4.61 12.03 5.04 11.82 3.12 7.85C1.31 13.35 3.97 17.41 5 18.15C4.8 19.96 4.75 21.92 4.89 23.78C3.29 18.4 3.81 18.05 0.98 14.3C0.23 19.86 3.12 23.43 4.92 24.22C5.08 26.03 5.4 27.84 5.9 29.64C3.17 24.76 3.64 24.28 0 21.16C0.38 27.45 4.73 29.92 6.06 30.19C6.56 31.88 7.22 33.58 8.04 35.23C7.67 34.81 7.16 34.22 6.61 33.56C6.49 33.42 6.37 33.28 6.26 33.14C4.42 30.89 4 30.05 0.38 28.18C2.06 33.77 6.2 35.84 8.35 35.81C9.18 37.37 10.21 38.85 11.42 40.17C11.38 40.14 11.33 40.12 11.28 40.09C11.05 39.95 10.79 39.78 10.5 39.59C10.22 39.4 9.91 39.2 9.61 38.98C6.71 36.96 6.6 36.13 2.15 35.02C4.18 38.71 7.24 41.27 11.38 40.85C11.49 40.84 11.59 40.82 11.69 40.8C11.78 40.78 11.87 40.76 11.95 40.73C13.23 42.03 14.6 43.1 16.06 44.01C15.76 43.93 14.85 43.68 14 43.4C10.39 42.22 10.19 41.64 5.46 41.61C10.1 46.67 15.22 45.5 16.79 44.44C18.29 45.32 19.83 46.03 21.45 46.67C15.45 46.32 15.24 45.74 10.66 47.28C16.76 50.82 21.59 47.7 22.31 47C23.9 47.59 25.5 48.1 27.12 48.59C25.91 48.64 21.98 48.83 20.81 49.18C19.55 49.56 18.26 50.29 16.88 51.27C17.6 51.48 18.71 51.78 19.95 51.88C23.63 52.18 27.37 49.68 28.06 48.88C29.5 49.31 31.24 49.82 32.8 50.34C26.57 50.55 25.14 51.8 23.12 53.92C23.81 54.01 24.87 54.15 26.03 54.1C29.14 53.98 33.07 51.45 33.79 50.67C38.6 52.38 40.49 53.99 41.91 55.68C41.87 55.21 41.83 54.96 41.74 54.48Z" fill="#FF2946"/>
<path d="M5.35999 17.47C9.21999 15.24 10.43 13.06 10.92 11.27C8.00999 11.46 5.84999 14.57 5.35999 17.47Z" fill="#FF2946"/>
<path d="M9.15001 7.69002C8.74001 8.05002 8.32001 8.48002 7.89001 9.09002C7.46001 9.70002 7.03001 10.5 6.64001 11.6C6.90001 11.48 9.98001 9.89002 10.63 9.31002C11.54 8.49002 12.52 7.02002 12.83 6.22002C11.43 6.12002 10.22 6.74002 9.15001 7.69002Z" fill="#FF2946"/>
<path d="M34.66 54.48C36.8 52.21 40.31 50.79 43.23 49.83C43.01 47.55 43.96 44.72 46.78 42.67C47.69 42.01 48.53 41.57 49.05 41.27C48.91 42.9 48.52 44.29 47.84 45.37C47.08 46.58 44.71 48.77 43.66 49.69C45.43 49.12 47.09 48.66 48.99 48.1C48.97 47.48 49.14 46.62 49.36 45.82C49.6 44.93 49.89 44.11 50.1 43.74C50.7 42.67 51.51 41.84 52.24 41.2C52.97 40.55 53.64 40.09 54.06 39.78C54.23 42.29 53.72 44.69 49.47 47.96C51.24 47.43 52.96 46.89 54.7 46.22C54.66 45.58 54.83 42.1 56.94 39.29C57.46 38.61 57.93 38.09 58.23 37.76C59.3 41.01 57.66 43.92 55.18 46.02C56.91 45.33 58.52 44.56 60.08 43.6C59.7 41.77 59.86 38.27 61.52 34.97C63.62 38.03 62.03 41.6 60.52 43.33C62.04 42.35 63.39 41.25 64.65 39.89C64.67 39.87 64.69 39.85 64.7 39.83C64.15 38.62 62.91 34.54 64.05 31.12C66.19 33.21 66.37 36.24 65.32 38.85C65.24 39.07 65.14 39.27 65.04 39.45C66.25 38.07 67.27 36.53 68.08 34.91C66.09 32.3 65.41 29.32 65.85 26.48C68.51 28.22 68.96 31.96 68.29 34.49C69.1 32.8 69.76 31.06 70.23 29.33C67.78 26.91 66.7 24.07 66.71 21.55C68.77 22.4 69.89 24.46 70.25 26.62C70.38 27.38 70.43 28.2 70.34 28.94C70.81 27.14 71.12 25.37 71.25 23.44C70.87 23.15 70.23 22.52 69.6 21.89C69.12 21.4 67.03 19.62 66.58 16.42C68.69 16.88 70.08 18.72 70.8 20.73C71.07 21.48 71.25 22.35 71.26 23.23C71.31 22.4 71.33 21.6 71.32 20.82C71.24 16.73 70.36 12.66 68.86 8.88998C68.79 8.70998 68.73 8.56998 68.69 8.45998C68.46 8.20998 68.09 7.72998 67.7 7.18998C67.17 6.47998 66.59 5.67998 66.27 5.15998C64.91 2.93998 64.47 1.22998 64.08 -0.0200195C65.56 1.05998 66.77 2.15998 67.72 4.16998C68 4.75998 68.34 5.73998 68.56 6.62998C68.74 7.33998 68.85 7.98998 68.87 8.36998C68.92 8.48998 68.98 8.63998 69.06 8.82998C69.43 9.72998 69.86 10.94 70.21 12.12C70.16 11.77 70.04 10.74 69.88 9.56998C69.79 8.92998 69.69 8.24998 69.62 7.61998C69.55 6.98998 69.49 6.41998 69.5 5.98998C69.54 4.78998 69.81 3.43998 70.22 1.91998C71.16 3.69998 71.89 5.62998 71.65 7.79998C71.52 8.99998 71.06 11.34 70.23 12.2C70.82 14.2 71.18 16.01 71.4 17.85C71.82 12.02 71.39 11.81 73.31 7.83998C75.11 13.33 72.45 17.4 71.43 18.13C71.63 19.94 71.68 21.9 71.54 23.76C73.14 18.38 72.62 18.03 75.45 14.28C76.2 19.84 73.31 23.41 71.51 24.2C71.35 26.01 71.03 27.82 70.53 29.62C73.26 24.74 72.79 24.26 76.43 21.14C76.05 27.43 71.7 29.9 70.37 30.17C69.87 31.86 69.21 33.56 68.39 35.21C68.76 34.79 69.27 34.2 69.82 33.54C69.94 33.4 70.06 33.26 70.17 33.12C72.01 30.89 72.43 30.05 76.06 28.17C74.38 33.76 70.24 35.83 68.09 35.8C67.26 37.36 66.23 38.84 65.02 40.16C65.06 40.13 65.11 40.11 65.16 40.08C65.39 39.94 65.65 39.77 65.94 39.58C66.22 39.39 66.53 39.19 66.83 38.97C69.73 36.95 69.84 36.12 74.29 35.01C72.26 38.7 69.2 41.26 65.06 40.84C64.95 40.83 64.85 40.81 64.75 40.79C64.66 40.77 64.57 40.75 64.49 40.72C63.21 42.02 61.84 43.09 60.38 44C60.68 43.92 61.59 43.67 62.44 43.39C66.05 42.21 66.25 41.63 70.98 41.6C66.34 46.66 61.22 45.49 59.65 44.43C58.15 45.31 56.61 46.02 54.99 46.66C60.99 46.31 61.2 45.73 65.78 47.27C59.68 50.81 54.85 47.69 54.13 46.99C52.54 47.58 50.94 48.09 49.32 48.58C50.53 48.63 54.46 48.82 55.63 49.17C56.89 49.55 58.18 50.28 59.56 51.26C58.84 51.47 57.73 51.77 56.49 51.87C52.81 52.17 49.07 49.67 48.38 48.87C46.94 49.3 45.2 49.81 43.64 50.33C49.87 50.54 51.3 51.79 53.32 53.91C52.63 54 51.57 54.14 50.41 54.09C47.3 53.97 43.37 51.44 42.65 50.66C37.84 52.37 35.95 53.98 34.53 55.67C34.53 55.21 34.56 54.96 34.66 54.48Z" fill="#FF2946"/>
<path d="M71.04 17.47C67.18 15.24 65.97 13.06 65.48 11.27C68.38 11.46 70.55 14.57 71.04 17.47Z" fill="#FF2946"/>
<path d="M67.25 7.69002C67.66 8.05002 68.08 8.48002 68.51 9.10002C68.94 9.71002 69.37 10.51 69.76 11.61C69.5 11.49 66.42 9.90001 65.77 9.32001C64.86 8.50001 63.88 7.03002 63.57 6.23002C64.97 6.12002 66.18 6.74002 67.25 7.69002Z" fill="#FF2946"/>
</g>
<path d="M27.9418 38V30.1797H30.1494C30.8297 30.1797 31.4313 30.3301 31.954 30.6309C32.4768 30.9316 32.8797 31.3595 33.1625 31.9146C33.449 32.4696 33.594 33.1069 33.5976 33.8267V34.3262C33.5976 35.0638 33.4544 35.7101 33.1679 36.2651C32.885 36.8201 32.4786 37.2463 31.9487 37.5435C31.4223 37.8407 30.8082 37.9928 30.1064 38H27.9418ZM28.9731 31.0283V37.1567H30.058C30.853 37.1567 31.4706 36.9097 31.9111 36.4155C32.3551 35.9214 32.5771 35.2178 32.5771 34.3047V33.8481C32.5771 32.9601 32.3676 32.2708 31.9487 31.7803C31.5333 31.2861 30.9425 31.0355 30.1762 31.0283H28.9731Z" fill="black"/>
<path d="M35.8644 38H34.8654V32.1885H35.8644V38ZM35.8752 29.7554H37.0783L35.6388 31.3345H34.8385L35.8752 29.7554Z" fill="black"/>
<path d="M40.8705 38C40.8132 37.8854 40.7666 37.6813 40.7308 37.3877C40.2689 37.8675 39.7175 38.1074 39.0765 38.1074C38.5036 38.1074 38.0328 37.9463 37.6639 37.624C37.2987 37.2982 37.1161 36.8864 37.1161 36.3887C37.1161 35.7835 37.3453 35.3145 37.8036 34.9814C38.2655 34.6449 38.9136 34.4766 39.7479 34.4766H40.7147V34.02C40.7147 33.6727 40.6109 33.397 40.4032 33.1929C40.1955 32.9852 39.8894 32.8813 39.4847 32.8813C39.1303 32.8813 38.8331 32.9709 38.5931 33.1499C38.3532 33.3289 38.2333 33.5456 38.2333 33.7998H37.2343C37.2343 33.5098 37.3363 33.2305 37.5404 32.9619C37.7481 32.6898 38.0274 32.4749 38.3783 32.3174C38.7328 32.1598 39.1213 32.0811 39.5438 32.0811C40.2134 32.0811 40.738 32.2493 41.1176 32.5859C41.4971 32.9189 41.6941 33.3791 41.7084 33.9663V36.6411C41.7084 37.1746 41.7764 37.599 41.9125 37.9141V38H40.8705ZM39.2216 37.2427C39.5331 37.2427 39.8285 37.1621 40.1078 37.001C40.3871 36.8398 40.5894 36.6304 40.7147 36.3726V35.1802H39.9359C38.7185 35.1802 38.1097 35.5365 38.1097 36.249C38.1097 36.5605 38.2136 36.804 38.4213 36.9795C38.6289 37.1549 38.8957 37.2427 39.2216 37.2427Z" fill="black"/>
<path d="M46.4298 36.4585C46.4298 36.1899 46.3277 35.9823 46.1236 35.8354C45.9231 35.6851 45.5704 35.5562 45.0655 35.4487C44.5642 35.3413 44.165 35.2124 43.8678 35.062C43.5742 34.9116 43.3557 34.7326 43.2125 34.5249C43.0728 34.3172 43.003 34.0701 43.003 33.7837C43.003 33.3075 43.2035 32.9046 43.6046 32.5752C44.0092 32.2458 44.5248 32.0811 45.1515 32.0811C45.8103 32.0811 46.3438 32.2511 46.752 32.5913C47.1638 32.9315 47.3697 33.3665 47.3697 33.8965H46.3707C46.3707 33.6243 46.2543 33.3898 46.0216 33.1929C45.7924 32.9959 45.5024 32.8975 45.1515 32.8975C44.7898 32.8975 44.5069 32.9762 44.3028 33.1338C44.0987 33.2913 43.9967 33.4972 43.9967 33.7515C43.9967 33.9914 44.0916 34.1722 44.2813 34.2939C44.4711 34.4157 44.8131 34.5321 45.3072 34.6431C45.8049 34.7541 46.2078 34.8866 46.5157 35.0405C46.8237 35.1945 47.051 35.3807 47.1978 35.5991C47.3482 35.814 47.4234 36.0771 47.4234 36.3887C47.4234 36.9079 47.2158 37.325 46.8004 37.6401C46.385 37.9517 45.8461 38.1074 45.1837 38.1074C44.7182 38.1074 44.3064 38.0251 43.9483 37.8604C43.5903 37.6956 43.3092 37.4665 43.1051 37.1729C42.9046 36.8757 42.8043 36.5552 42.8043 36.2114H43.7979C43.8159 36.5444 43.9483 36.8094 44.1954 37.0063C44.4461 37.1997 44.7755 37.2964 45.1837 37.2964C45.5597 37.2964 45.8604 37.2212 46.086 37.0708C46.3152 36.9168 46.4298 36.7127 46.4298 36.4585Z" fill="black"/>
<path d="M32.9644 17.1274C32.0773 17.925 31.0845 18.3237 29.9858 18.3237C28.3745 18.3237 27.0968 17.7785 26.1528 16.688C25.2088 15.5975 24.7368 14.1408 24.7368 12.3179C24.7368 11.1785 25.0013 10.1206 25.5303 9.14404C26.0592 8.16748 26.7998 7.39437 27.752 6.82471C28.7122 6.25505 29.7702 5.97021 30.9258 5.97021C32.0977 5.97021 33.1556 6.26725 34.0996 6.86133C35.0518 7.44727 35.7923 8.28141 36.3213 9.36377C36.8503 10.438 37.1229 11.679 37.1392 13.0869V14.6616C37.1392 16.6229 36.7526 18.3237 35.9795 19.7642C35.2145 21.2046 34.12 22.3114 32.6958 23.0845C31.2716 23.8576 29.6115 24.2441 27.7153 24.2441H27.459V20.9482L28.2402 20.936C31.0723 20.7977 32.647 19.5282 32.9644 17.1274ZM31.0967 15.3574C31.9919 15.3574 32.6348 14.9709 33.0254 14.1978V12.4888C33.0254 11.3494 32.8341 10.5072 32.4517 9.96191C32.0692 9.41667 31.5524 9.14404 30.9014 9.14404C30.3236 9.14404 29.8394 9.45329 29.4487 10.0718C29.0581 10.6903 28.8628 11.439 28.8628 12.3179C28.8628 13.2456 29.0622 13.9862 29.4609 14.5396C29.8597 15.0848 30.4049 15.3574 31.0967 15.3574Z" fill="black"/>
<path d="M51.1777 16.7368C51.1777 19.1375 50.6366 20.9889 49.5542 22.291C48.48 23.5931 46.9622 24.2441 45.001 24.2441C43.0234 24.2441 41.4935 23.589 40.4111 22.2788C39.3288 20.9686 38.7876 19.1213 38.7876 16.7368V13.4897C38.7876 11.089 39.3247 9.23763 40.3989 7.93555C41.4813 6.63346 43.0072 5.98242 44.9766 5.98242C46.946 5.98242 48.4718 6.63753 49.5542 7.94775C50.6366 9.25798 51.1777 11.1094 51.1777 13.502V16.7368ZM47.064 12.9648C47.064 11.6872 46.8971 10.735 46.5635 10.1084C46.2298 9.47363 45.7008 9.15625 44.9766 9.15625C44.2686 9.15625 43.7518 9.44922 43.4263 10.0352C43.1089 10.6211 42.938 11.5081 42.9136 12.6963V17.2373C42.9136 18.5638 43.0804 19.5363 43.4141 20.1548C43.7477 20.7651 44.2767 21.0703 45.001 21.0703C45.7008 21.0703 46.2176 20.7733 46.5513 20.1792C46.8849 19.577 47.0558 18.637 47.064 17.3594V12.9648Z" fill="black"/>
<defs>
<clipPath id="clip0">
<rect width="76.4" height="55.71" fill="white"/>
</clipPath>
</defs>
</svg>
