<svg width="43" height="44" viewBox="0 0 43 44" fill="none" xmlns="http://www.w3.org/2000/svg">
<path d="M41.7005 20.9018H37.3604L39.2345 19.1016C39.5798 18.7564 39.5798 18.2632 39.2345 17.918C38.8893 17.5727 38.3714 17.5727 38.0508 17.918L34.8943 20.9018H27.7676C27.7922 21.1731 27.9402 21.4197 27.9402 21.7156C27.9402 22.0362 27.7922 22.3075 27.7676 22.6034H34.8943L38.1248 25.6612C38.4701 26.0065 38.9633 26.0065 39.3085 25.6612C39.6537 25.316 39.6537 24.8228 39.3085 24.4775L37.3604 22.6034H41.7005C42.2184 22.6034 42.5636 22.2581 42.5636 21.7649C42.5636 21.2471 42.2184 20.9265 41.7005 20.9265V20.9018Z" fill="#8D959C"/>
<path d="M20.443 8.12788V15.2547C20.7389 15.2053 21.0102 15.082 21.3308 15.082C21.6267 15.082 21.8733 15.2053 22.1445 15.2547V8.12788L25.2024 4.89741C25.5476 4.55217 25.5476 4.0343 25.2024 3.71372C24.8572 3.36848 24.364 3.36848 24.0187 3.71372L22.1445 5.66187V1.29703C22.1445 0.779169 21.7993 0.458588 21.3061 0.458588C20.8129 0.458588 20.443 0.803829 20.443 1.29703V5.63721L18.6428 3.76304C18.2976 3.4178 17.8044 3.4178 17.4591 3.76304C17.1139 4.10828 17.1139 4.60149 17.4591 4.94673L20.443 8.10322V8.12788Z" fill="#8D959C"/>
<path d="M14.87 22.6034C14.8207 22.3074 14.6974 22.0362 14.6974 21.7156C14.6974 21.4197 14.8207 21.1731 14.87 20.9018H7.66929L4.43882 17.844C4.09358 17.4987 3.57572 17.4987 3.25513 17.844C2.93455 18.1892 2.90989 18.7071 3.25513 19.0276L5.20328 20.9018H0.838444C0.320581 20.9018 0 21.247 0 21.7649C0 22.2828 0.345242 22.6034 0.838444 22.6034H5.17862L3.30445 24.4035C2.95921 24.7488 2.95921 25.242 3.30445 25.5872C3.6497 25.9325 4.1429 25.9325 4.48814 25.5872L7.64463 22.6034H14.87Z" fill="#8D959C"/>
<path d="M26.4854 17.7207L31.4914 12.7147L35.9303 12.5421C36.4481 12.5421 36.7934 12.1228 36.7934 11.7036C36.7934 11.2844 36.3741 10.8405 35.9303 10.8405L33.2916 10.9145L36.3495 7.85663C36.6947 7.51139 36.6947 6.99353 36.3495 6.67295C36.0042 6.35236 35.511 6.3277 35.1658 6.67295L32.1079 9.7308L32.1819 7.09217C32.1819 6.5743 31.8367 6.25372 31.3435 6.25372C30.8503 6.25372 30.4804 6.59897 30.4804 7.09217L30.3078 11.5063L25.3018 16.5123C25.7456 16.8576 26.1402 17.2521 26.4854 17.696V17.7207Z" fill="#8D959C"/>
<path d="M5.79541 11.7036C5.79541 12.2214 6.14065 12.5667 6.63385 12.5667L11.0727 12.7393L16.128 17.7946C16.4732 17.3261 16.8678 16.9315 17.3117 16.5863L12.2564 11.5556L12.0837 7.14145C12.0837 6.62359 11.6645 6.27835 11.2453 6.27835C10.7274 6.27835 10.3822 6.69757 10.3822 7.14145L10.4562 9.78009L7.39832 6.72223C7.05308 6.37699 6.55987 6.37699 6.21463 6.72223C5.86939 7.06747 5.86939 7.56068 6.21463 7.90592L9.27249 10.9638L6.63385 10.8898C6.21463 10.8898 5.79541 11.235 5.79541 11.7282V11.7036Z" fill="#8D959C"/>
<path d="M16.1529 25.6612L11.0483 30.7658L6.60944 30.9385C6.09158 30.9385 5.771 31.3577 5.771 31.7769C5.771 32.2948 6.19022 32.6153 6.60944 32.6153L9.24807 32.5414L6.19022 35.5992C5.84498 35.9445 5.84498 36.4377 6.19022 36.7829C6.53546 37.1281 7.05332 37.1281 7.3739 36.7829L10.4318 33.725L10.3578 36.3637C10.3578 36.8815 10.703 37.2021 11.1962 37.2021C11.6154 37.2021 12.0347 36.8569 12.0347 36.3637L12.2073 31.9249L17.2873 26.8449C16.8434 26.4996 16.4488 26.1051 16.1036 25.6612H16.1529Z" fill="#8D959C"/>
<path d="M36.7685 31.7029C36.7685 31.1851 36.4232 30.8645 35.9054 30.8645L31.4665 30.7658L26.4359 25.7352C26.0906 26.1791 25.6961 26.5736 25.2275 26.9189L30.2829 31.9742L30.4555 36.413C30.4555 37.5227 32.157 37.5227 32.157 36.339L32.0831 33.7004L35.1409 36.7582C35.4861 37.1035 36.004 37.1035 36.3246 36.7582C36.6698 36.413 36.6698 35.8951 36.3246 35.5746L33.2667 32.5167L35.9054 32.5907C36.4232 32.6647 36.7685 32.2454 36.7685 31.7522V31.7029Z" fill="#8D959C"/>
<path d="M22.1448 35.3526V28.1519C21.8735 28.1765 21.6269 28.3245 21.331 28.3245C21.0104 28.3245 20.7392 28.1765 20.4432 28.1519V35.3773L17.3854 38.6077C17.0402 38.953 17.0402 39.4708 17.3854 39.7914C17.558 39.964 17.7306 40.038 17.9772 40.038C18.2238 40.038 18.3965 39.964 18.5691 39.7914L20.3446 37.9173V42.1835C20.3446 42.7013 20.6899 43.0219 21.1831 43.0219C21.6763 43.0219 22.0215 42.6767 22.0215 42.1835V37.8433L23.8217 39.7174C24.1669 40.0627 24.6848 40.0627 25.0054 39.7174C25.326 39.3722 25.3506 38.879 25.0054 38.5338L22.1201 35.3773L22.1448 35.3526Z" fill="#8D959C"/>
<path d="M22.982 29.1877C18.8391 29.1877 15.4854 25.8339 15.4854 21.691C15.4854 17.5481 18.8391 14.1943 22.982 14.1943C27.1249 14.1943 30.4787 17.5481 30.4787 21.691C30.4787 25.8339 27.1249 29.1877 22.982 29.1877ZM22.982 15.9452C19.8009 15.9452 17.2116 18.5345 17.2116 21.7157C17.2116 24.8968 19.8009 27.4861 22.982 27.4861C26.1632 27.4861 28.7525 24.8968 28.7525 21.7157C28.7525 18.5345 26.1632 15.9452 22.982 15.9452Z" fill="#8D959C"/>
</svg>
