<svg width="43" height="23" viewBox="0 0 43 23" fill="none" xmlns="http://www.w3.org/2000/svg">
<g clip-path="url(#clip0_12642_1573)">
<path d="M41.9322 22.8042C42.4149 22.8042 42.7826 22.4135 42.7826 21.9538C42.7826 14.3467 38.7147 7.31408 32.1418 3.52199C25.5688 -0.270105 17.456 -0.270105 10.8601 3.52199C4.28712 7.31408 0.219238 14.3467 0.219238 21.9538C0.219238 22.4365 0.609939 22.8042 1.06959 22.8042H4.99957C5.4822 22.8042 5.84992 22.4135 5.84992 21.9538C5.84992 21.4942 5.45922 21.1035 4.99957 21.1035H1.9659C2.17274 16.507 3.98835 12.1404 7.09097 8.73898L9.25131 10.8993C9.59605 11.2211 10.1246 11.2211 10.4694 10.8993C10.8141 10.5546 10.8141 10.026 10.4694 9.68126L8.30903 7.52092C11.6874 4.4183 16.0771 2.60269 20.6735 2.39585V5.4525C20.6735 5.93513 21.0642 6.30285 21.5239 6.30285C21.9835 6.30285 22.3742 5.91215 22.3742 5.4525V2.41883C26.9707 2.62567 31.3374 4.44128 34.7388 7.5439L32.6014 9.70424C32.4405 9.86512 32.3486 10.072 32.3486 10.3018C32.3486 10.5316 32.4405 10.7384 32.6014 10.8993C32.9461 11.2211 33.4747 11.2211 33.8195 10.8993L35.9568 8.73898C39.0594 12.1174 40.8751 16.507 41.0819 21.1035H38.0252C37.5426 21.1035 37.1749 21.4942 37.1749 21.9538C37.1749 22.4135 37.5656 22.8042 38.0252 22.8042H41.9552H41.9322Z" fill="#8D959C"/>
<path d="M18.0538 21.9541C18.0538 22.4367 18.4445 22.8044 18.9042 22.8044H24.0982C24.5808 22.8044 24.9486 22.4137 24.9486 21.9541C24.9486 20.9429 24.5119 19.9776 23.7535 19.3341C22.9951 18.6676 21.9838 18.3918 20.9726 18.5527L18.0309 9.31379C17.893 8.85415 17.4103 8.62432 16.9507 8.76222C16.491 8.90011 16.2612 9.38274 16.3991 9.84239L19.3868 19.2422C18.5365 19.8857 18.0538 20.8969 18.0538 21.9771V21.9541ZM21.5012 20.2074C22.1217 20.2074 22.6963 20.5522 23.018 21.0808H20.0073C20.3061 20.5292 20.8807 20.2074 21.5242 20.2074H21.5012Z" fill="#8D959C"/>
</g>
<defs>
<clipPath id="clip0_12642_1573">
<rect width="42.5634" height="22.132" fill="white" transform="translate(0.21875 0.672363)"/>
</clipPath>
</defs>
</svg>
