<svg width="24" height="44" viewBox="0 0 24 44" fill="none" xmlns="http://www.w3.org/2000/svg">
<path d="M7.48202 42.8456C13.4223 44.0035 18.5571 39.4728 18.5571 33.7087C18.5571 30.6883 17.0468 27.9447 14.7563 26.2583V5.94567C14.7563 2.92521 12.3651 0.458496 9.26913 0.458496C6.17315 0.458496 3.75678 2.95038 3.75678 5.94567V26.2583C1.0132 28.2971 -0.597716 31.7454 0.207741 35.6469C0.912515 39.1959 3.8323 42.1157 7.48202 42.8205V42.8456ZM4.91463 27.9447L5.72009 27.3154V6.04635C5.72009 4.10822 7.30583 2.59799 9.16845 2.59799C11.0311 2.59799 12.7175 4.18373 12.7175 6.04635V27.3154L13.5229 27.9447C15.3856 29.2787 16.4427 31.4937 16.4427 33.7843C16.4427 35.7224 15.6373 37.585 14.3032 38.919C12.8937 40.2531 11.1066 41.0585 9.16845 41.0585C5.54389 41.0585 2.69962 38.4911 2.07036 35.2945C1.61729 32.3747 2.69962 29.5304 4.91463 27.9447Z" fill="#8D959C"/>
<path d="M22.1057 6.49945H17.0464V8.53826H22.1057C22.6342 8.53826 23.0873 8.08519 23.0873 7.55661C23.188 6.92735 22.7349 6.49945 22.1057 6.49945Z" fill="#8D959C"/>
<path d="M21.1242 12.8676C21.1242 12.3391 20.6711 11.886 20.1425 11.886H17.1221V13.9248H20.1425C20.6711 13.8241 21.1242 13.3962 21.1242 12.8676Z" fill="#8D959C"/>
<path d="M23.163 18.1786C23.163 17.65 22.7099 17.197 22.1813 17.197H17.1221V19.2358H22.1813C22.7099 19.2358 23.163 18.7072 23.163 18.1786Z" fill="#8D959C"/>
<path d="M12.0273 37.7611C9.81228 37.7611 8 35.9489 8 33.7339C8 31.5188 9.81228 29.6814 12.0273 29.6814C14.2423 29.6814 16.0797 31.4937 16.0797 33.7339C16.0797 35.974 14.2675 37.7611 12.0273 37.7611ZM12.0273 31.4433C10.7688 31.4433 9.76194 32.4753 9.76194 33.7339C9.76194 34.9924 10.7939 36.0244 12.0273 36.0244C13.2606 36.0244 14.3178 34.9924 14.3178 33.7339C14.3178 32.4753 13.2858 31.4433 12.0273 31.4433Z" fill="#8D959C"/>
<path d="M13.064 13.9248H11V30.5625H13.064V13.9248Z" fill="#8D959C"/>
</svg>
