<svg width="43" height="43" viewBox="0 0 43 43" fill="none" xmlns="http://www.w3.org/2000/svg">
<g clip-path="url(#clip0_12642_1569)">
<path d="M21.2694 18.8326C19.8051 18.8326 18.6387 19.9991 18.6387 21.4634C18.6387 22.9277 19.8051 24.0941 21.2694 24.0941C22.7337 24.0941 23.9001 22.9277 23.9001 21.4634C23.9001 19.9991 22.7337 18.8326 21.2694 18.8326ZM21.2694 22.7787C20.5497 22.7787 19.954 22.1831 19.954 21.4634C19.954 20.7436 20.5497 20.148 21.2694 20.148C21.9891 20.148 22.5848 20.7436 22.5848 21.4634C22.5848 22.1831 21.9891 22.7787 21.2694 22.7787Z" fill="#8D959C"/>
<path d="M21.2693 0.194092C9.55504 0.194092 0 9.74913 0 21.4634C0 33.1776 9.55504 42.7326 21.2693 42.7326C32.9835 42.7326 42.5385 33.1776 42.5385 21.4634C42.5385 9.74913 33.0083 0.194092 21.2693 0.194092ZM7.64403 13.4967C7.64403 13.4967 7.69367 13.5215 7.71849 13.5215L16.4545 16.4997C15.2881 17.6413 14.5187 19.1801 14.3946 20.9174L6.70094 15.3829C6.97394 14.7376 7.29657 14.0923 7.64403 13.4967ZM26.1833 16.599L34.969 13.596C35.3412 14.2412 35.6639 14.8865 35.9369 15.5814L28.1688 21.1655C28.0943 19.4034 27.3497 17.7903 26.1833 16.599ZM26.8782 21.4634C26.8782 24.5408 24.3716 27.0475 21.2941 27.0475C18.2166 27.0475 15.71 24.5408 15.71 21.4634C15.71 18.3859 18.2166 15.8792 21.2941 15.8792C24.3716 15.8792 26.8782 18.3859 26.8782 21.4634ZM24.9672 15.6311C23.9 14.961 22.6343 14.5639 21.2941 14.5639C19.9539 14.5639 18.7626 14.9362 17.7203 15.5566L8.38858 12.3799C11.2427 8.33449 15.9582 5.67893 21.2941 5.67893C26.63 5.67893 31.3951 8.35931 34.2492 12.4543L24.9672 15.6311ZM14.4691 22.605C14.7669 24.3671 15.71 25.9058 17.075 26.9482L18.6882 37.0741C11.2179 35.8331 5.48484 29.3059 5.48484 21.4882C5.48484 19.8254 5.75784 18.2122 6.22939 16.6982L14.4691 22.6298V22.605ZM18.5393 27.8168C19.3831 28.1891 20.3014 28.3877 21.2693 28.3877C22.2372 28.3877 23.1803 28.1891 23.9993 27.8168L22.4854 37.223C22.0883 37.2478 21.6664 37.2726 21.2445 37.2726C20.8225 37.2726 20.4254 37.2726 20.0035 37.223L18.4896 27.8168H18.5393ZM25.4884 26.9482C26.7789 25.9555 27.6972 24.516 28.0447 22.878L36.3836 16.872C36.8303 18.3363 37.0785 19.875 37.0785 21.4634C37.0785 29.2811 31.3455 35.8083 23.8752 37.0492L25.4884 26.9234V26.9482ZM21.2693 4.36356C12.4836 4.36356 5.23666 10.99 4.26874 19.5027H1.93583C2.95338 9.72431 11.2427 2.05546 21.2693 2.05546C31.2959 2.05546 39.61 9.72431 40.6027 19.5027H38.2698C38.1209 18.1873 37.8231 16.9216 37.3763 15.7055C37.3763 15.6311 37.3267 15.5566 37.3019 15.4822C34.8697 8.97976 28.6155 4.36356 21.2693 4.36356ZM1.86137 21.4634C1.86137 21.24 1.88619 21.0166 1.88619 20.7933H4.16947C4.16947 21.0166 4.16947 21.24 4.16947 21.4634C4.16947 21.6867 4.16947 21.9101 4.16947 22.1335H1.88619C1.88619 21.9101 1.86137 21.6867 1.86137 21.4882V21.4634ZM4.29356 23.4488C5.26148 31.9615 12.5084 38.588 21.2941 38.588C30.0798 38.588 37.3019 31.9615 38.2946 23.4488H40.6275C39.6348 33.2272 31.3455 40.8961 21.2941 40.8961C11.2427 40.8961 2.95338 33.2272 1.96064 23.4488H4.29356ZM38.3939 22.1335C38.3939 21.9101 38.3939 21.6867 38.3939 21.4634C38.3939 21.24 38.3939 21.0166 38.3939 20.7933H40.6772C40.6772 21.0166 40.702 21.24 40.702 21.4634C40.702 21.6867 40.6772 21.9101 40.6772 22.1086H38.3939V22.1335Z" fill="#8D959C"/>
</g>
<defs>
<clipPath id="clip0_12642_1569">
<rect width="42.5634" height="42.5634" fill="white" transform="translate(0 0.194092)"/>
</clipPath>
</defs>
</svg>
