<svg width="32" height="43" viewBox="0 0 32 43" fill="none" xmlns="http://www.w3.org/2000/svg">
<g clip-path="url(#clip0_12642_1567)">
<path d="M5.57338 12.9249H2.00446C0.904452 12.9249 0 12.0055 0 10.8874V2.43933C0 1.3212 0.904452 0.401855 2.00446 0.401855H5.57338C6.67339 0.401855 7.57784 1.3212 7.57784 2.43933V10.9122C7.57784 12.0304 6.67339 12.9497 5.57338 12.9497V12.9249ZM2.00446 2.04177C1.78446 2.04177 1.61335 2.21571 1.61335 2.41448V10.8874C1.61335 11.111 1.78446 11.2601 2.00446 11.2601H5.57338C5.79338 11.2601 5.94005 11.0862 5.94005 10.8874V2.43933C5.94005 2.21571 5.76893 2.06662 5.57338 2.06662H2.00446V2.04177Z" fill="#8D959C"/>
<path d="M5.57338 42.9653H2.00446C0.904452 42.9653 0 42.0459 0 40.9278V32.4549C0 31.3368 0.904452 30.4174 2.00446 30.4174H5.57338C6.67339 30.4174 7.57784 31.3368 7.57784 32.4549V40.9278C7.57784 42.0459 6.67339 42.9653 5.57338 42.9653ZM2.00446 32.0822C1.78446 32.0822 1.61335 32.2561 1.61335 32.4549V40.9278C1.61335 41.1514 1.78446 41.3254 2.00446 41.3254H5.57338C5.79338 41.3254 5.94005 41.1514 5.94005 40.9278V32.4549C5.94005 32.2313 5.76893 32.0822 5.57338 32.0822H2.00446Z" fill="#8D959C"/>
<path d="M29.358 12.9249H25.7891C24.6891 12.9249 23.7847 12.0056 23.7847 10.8875V2.43939C23.7847 1.32127 24.6891 0.401917 25.7891 0.401917H29.358C30.4581 0.401917 31.3625 1.32127 31.3625 2.43939V10.9123C31.3625 12.0304 30.4581 12.9498 29.358 12.9498V12.9249ZM25.7891 2.04184C25.5691 2.04184 25.4225 2.21577 25.4225 2.41454V10.8875C25.4225 11.1111 25.5936 11.2602 25.7891 11.2602H29.358C29.578 11.2602 29.7247 11.0862 29.7247 10.8875V2.43939C29.7247 2.21577 29.5536 2.06668 29.358 2.06668H25.7891V2.04184Z" fill="#8D959C"/>
<path d="M29.358 42.9653H25.7891C24.6891 42.9653 23.7847 42.0459 23.7847 40.9278V32.4549C23.7847 31.3368 24.6891 30.4174 25.7891 30.4174H29.358C30.4581 30.4174 31.3625 31.3368 31.3625 32.4549V40.9278C31.3625 42.0459 30.4581 42.9653 29.358 42.9653ZM25.7891 32.0822C25.5691 32.0822 25.4225 32.2561 25.4225 32.4549V40.9278C25.4225 41.1514 25.5936 41.3254 25.7891 41.3254H29.358C29.578 41.3254 29.7247 41.1514 29.7247 40.9278V32.4549C29.7247 32.2313 29.5536 32.0822 29.358 32.0822H25.7891Z" fill="#8D959C"/>
<path d="M23.785 5.52045H6.74707V7.38399H23.785V5.52045Z" fill="#8D959C"/>
<path d="M23.785 35.4117H6.74707V37.2752H23.785V35.4117Z" fill="#8D959C"/>
<path d="M16.598 6.66339H14.7646V36.331H16.598V6.66339Z" fill="#8D959C"/>
<path d="M15.6691 40.0084C17.6671 40.0084 19.2869 38.362 19.2869 36.331C19.2869 34.3001 17.6671 32.6536 15.6691 32.6536C13.671 32.6536 12.0513 34.3001 12.0513 36.331C12.0513 38.362 13.671 40.0084 15.6691 40.0084Z" fill="#8D959C"/>
<path d="M15.6691 34.5172C16.6469 34.5172 17.4535 35.3371 17.4535 36.331C17.4535 37.3249 16.6469 38.1449 15.6691 38.1449C14.6913 38.1449 13.8846 37.3249 13.8846 36.331C13.8846 35.3371 14.6913 34.5172 15.6691 34.5172ZM15.6691 32.6536C13.6646 32.6536 12.0513 34.2935 12.0513 36.331C12.0513 38.3685 13.6646 40.0084 15.6691 40.0084C17.6735 40.0084 19.2869 38.3685 19.2869 36.331C19.2869 34.2935 17.6735 32.6536 15.6691 32.6536Z" fill="#8D959C"/>
</g>
<defs>
<clipPath id="clip0_12642_1567">
<rect width="31.3625" height="42.5634" fill="white" transform="translate(0 0.401855)"/>
</clipPath>
</defs>
</svg>
