<svg width="43" height="43" viewBox="0 0 43 43" fill="none" xmlns="http://www.w3.org/2000/svg">
<path d="M21.513 0.286133C33.2537 0.286133 42.8072 9.83963 42.8072 21.5804C42.8072 33.3211 33.2537 42.8746 21.513 42.8746C9.77225 42.8746 0.21875 33.296 0.21875 21.5804C0.21875 9.86477 9.77225 0.286133 21.513 0.286133ZM21.513 40.9639C32.223 40.9639 40.9217 32.2652 40.9217 21.5552C40.9217 10.8453 32.1978 2.17169 21.513 2.17169C10.8282 2.17169 2.10431 10.8704 2.10431 21.5804C2.10431 32.2904 10.803 40.9891 21.513 40.9891V40.9639Z" fill="#8D959C"/>
<path d="M25.1585 9.38696L26.8429 10.468L19.4767 21.8317L28.7788 21.8065L18.2448 36.2122L16.6358 35.0306L24.7311 23.9686H15.7056L25.1585 9.38696Z" fill="#8D959C"/>
<path d="M27.5975 14.1888L21.4883 10.2417L27.9495 6.9231L27.5975 14.1888Z" fill="#8D959C"/>
</svg>
