<svg width="44" height="43" viewBox="0 0 44 43" fill="none" xmlns="http://www.w3.org/2000/svg">
<path fill-rule="evenodd" clip-rule="evenodd" d="M2.6312 22.5869C3.08148 11.4957 12.0397 2.53754 23.1308 2.08725V8.60447C19.4812 8.81776 16.0922 10.3345 13.4853 12.9414C10.8784 15.5483 9.36171 18.9372 9.14842 22.5869H2.6312ZM10.9021 23.4874C10.9021 19.98 12.2767 16.6858 14.7414 14.2211C17.2061 11.7564 20.5002 10.3819 24.0077 10.3819H24.9082V0.286133H24.0077C11.2339 0.286133 0.830078 10.69 0.830078 23.4637V24.3643H10.9021V23.4637V23.4874Z" fill="#8D959C"/>
<path fill-rule="evenodd" clip-rule="evenodd" d="M30.0011 17.373C33.4848 20.8567 33.4848 26.4971 30.0011 29.9808C26.5173 33.4646 20.877 33.4646 17.3932 29.9808C13.9095 26.4971 13.9095 20.8567 17.3932 17.373C20.877 13.8892 26.5173 13.8892 30.0011 17.373ZM16.1372 31.2369C20.3082 35.4079 27.0861 35.4079 31.2808 31.2369C35.4518 27.0658 35.4518 20.2879 31.2808 16.0932C27.1098 11.8985 20.3319 11.9222 16.1372 16.0932C11.9424 20.2642 11.9661 27.0421 16.1372 31.2369Z" fill="#8D959C"/>
<path fill-rule="evenodd" clip-rule="evenodd" d="M25.4772 22.4209C26.1645 23.1082 26.1645 24.2458 25.4772 24.933C24.79 25.6203 23.6524 25.6203 22.9651 24.933C22.2779 24.2458 22.2779 23.1082 22.9651 22.4209C23.6524 21.7337 24.79 21.7337 25.4772 22.4209ZM21.6854 26.2128C23.0836 27.611 25.335 27.611 26.7333 26.2128C28.1315 24.8145 28.1315 22.5631 26.7333 21.1649C25.335 19.7667 23.0836 19.7667 21.6854 21.1649C20.2872 22.5631 20.2872 24.8145 21.6854 26.2128Z" fill="#8D959C"/>
<path fill-rule="evenodd" clip-rule="evenodd" d="M27.6807 20.217C28.0361 20.5725 28.6049 20.5725 28.9367 20.217C29.2685 19.8615 29.2922 19.2927 28.9367 18.9609C28.5812 18.6291 28.0124 18.6054 27.6807 18.9609C27.3489 19.3164 27.3252 19.8852 27.6807 20.217Z" fill="#8D959C"/>
<path fill-rule="evenodd" clip-rule="evenodd" d="M20.7609 27.1372C20.4054 26.7817 19.8367 26.7817 19.5049 27.1372C19.1731 27.4927 19.1494 28.0615 19.5049 28.3933C19.8604 28.725 20.4291 28.7487 20.7609 28.3933C21.0927 28.0378 21.1164 27.469 20.7609 27.1372Z" fill="#8D959C"/>
<path fill-rule="evenodd" clip-rule="evenodd" d="M27.6807 28.4167C28.0361 28.7722 28.6049 28.7722 28.9367 28.4167C29.2685 28.0612 29.2922 27.4924 28.9367 27.1606C28.5812 26.8288 28.0124 26.8052 27.6807 27.1606C27.3489 27.5161 27.3252 28.0849 27.6807 28.4167Z" fill="#8D959C"/>
<path fill-rule="evenodd" clip-rule="evenodd" d="M19.4814 20.217C19.8369 20.5725 20.4057 20.5725 20.7375 20.217C21.0693 19.8615 21.093 19.2927 20.7375 18.9609C20.382 18.6291 19.8132 18.6054 19.4814 18.9609C19.1497 19.3164 19.126 19.8852 19.4814 20.217Z" fill="#8D959C"/>
<path fill-rule="evenodd" clip-rule="evenodd" d="M37.5861 10.1209C34.4104 6.94528 30.3816 5.12046 26.258 4.64648V6.44761C29.955 6.92159 33.5099 8.55681 36.33 11.377C43.1079 18.1549 43.1079 29.1986 36.33 35.9765C29.5521 42.7544 18.5084 42.7544 11.7305 35.9765C8.93403 33.18 7.2988 29.6489 6.80112 25.9993H5C5.49768 30.0992 7.3225 34.0806 10.4745 37.2326C17.9633 44.7214 30.0972 44.7214 37.5861 37.2326C45.075 29.7437 45.075 17.6098 37.5861 10.1209Z" fill="#8D959C"/>
</svg>
