<svg width="192" height="192" viewBox="0 0 192 192" fill="none" xmlns="http://www.w3.org/2000/svg">
<g clip-path="url(#clip0_11667_5780)">
<path d="M96 170.325C137.049 170.325 170.325 137.049 170.325 96C170.325 54.9514 137.049 21.6749 96 21.6749C54.9514 21.6749 21.6749 54.9514 21.6749 96C21.6749 137.049 54.9514 170.325 96 170.325Z" fill="white"/>
<path d="M96 0C42.9798 0 0 42.9798 0 96C0 149.02 42.9798 192 96 192C149.02 192 192 149.02 192 96C192 42.9798 149.02 0 96 0ZM96 158.937C61.2418 158.937 33.0628 130.758 33.0628 96C33.0628 61.2418 61.2418 33.0628 96 33.0628C130.758 33.0628 158.937 61.2418 158.937 96C158.937 130.758 130.758 158.937 96 158.937Z" fill="#D10C2B"/>
<path d="M27.7828 65.4077C27.9017 66.3193 27.8973 67.222 27.7695 68.116C27.6418 69.0143 27.4172 69.8907 27.1046 70.7538C26.7655 71.6741 26.3119 72.4668 25.7395 73.1362C25.167 73.8055 24.5108 74.3252 23.7622 74.6907C23.018 75.0606 22.2033 75.2587 21.327 75.294C20.4462 75.3292 19.5347 75.1751 18.5967 74.8272C17.6543 74.4837 16.8617 74.0125 16.2099 73.4136C15.5626 72.8191 15.0738 72.1365 14.7435 71.3747C14.4132 70.6129 14.2459 69.7894 14.2415 68.9086C14.2415 68.0279 14.4044 67.1296 14.7435 66.2092C15.0914 65.2668 15.5185 64.4433 16.0382 63.7343C16.5578 63.0253 17.2007 62.4749 17.9758 62.0786L19.2969 64.6371C18.7993 64.8573 18.3765 65.1523 18.0286 65.5266C17.6807 65.9009 17.3813 66.4206 17.1391 67.0855C16.9365 67.6404 16.844 68.1732 16.8705 68.6929C16.8925 69.2125 17.0158 69.6925 17.236 70.1373C17.4561 70.582 17.7688 70.9784 18.1695 71.3219C18.5703 71.6653 19.0459 71.934 19.5875 72.1321C20.1424 72.3347 20.6796 72.436 21.2037 72.4316C21.7277 72.4316 22.2165 72.3303 22.6701 72.1321C23.1281 71.934 23.5288 71.6477 23.8855 71.2646C24.2378 70.8859 24.5152 70.4191 24.7222 69.8642C24.9292 69.3006 25.0437 68.7897 25.0657 68.3318C25.0877 67.8738 25.0789 67.4995 25.0349 67.2088L23.1237 66.5086L22.3486 68.618L19.9574 67.7417L21.644 63.1398L27.7916 65.3945L27.7828 65.4077Z" fill="white"/>
<path d="M21.7013 52.4169L22.8947 50.4705L36.4227 52.3684L34.7978 55.0239L31.9706 54.5571L29.4297 58.7053L31.1472 60.982L29.5574 63.5802L21.7057 52.4169H21.7013ZM25.3651 53.4165L27.8884 56.7501L29.487 54.1387L25.3651 53.4165Z" fill="white"/>
<path d="M28.7648 42.0947L32.0103 38.4925C32.4374 38.0169 32.8866 37.6117 33.3622 37.2682C33.8378 36.9292 34.3266 36.6914 34.8286 36.5681C35.3306 36.4404 35.8503 36.4492 36.3831 36.5857C36.916 36.7266 37.4532 37.0393 37.9993 37.5281C38.6554 38.1182 39.0606 38.7963 39.2147 39.5493C39.3688 40.3068 39.2103 41.0686 38.7391 41.8348L44.8029 43.0106L42.5879 45.4679L37.1141 44.0631L36.2026 45.076L39.9237 48.4271L38.0741 50.4793L28.7648 42.0947ZM34.4675 43.5126L35.5552 42.3016C35.7226 42.1167 35.8899 41.9185 36.0617 41.6983C36.2334 41.4782 36.3611 41.258 36.4448 41.0334C36.5284 40.8088 36.5505 40.5754 36.5108 40.342C36.4712 40.1042 36.3215 39.8752 36.0661 39.6462C35.8283 39.4348 35.5993 39.3115 35.3703 39.2807C35.1457 39.2499 34.9255 39.2807 34.7185 39.36C34.5072 39.4437 34.3046 39.567 34.1064 39.7343C33.9083 39.906 33.7233 40.0822 33.556 40.2627L32.3494 41.6059L34.4675 43.5126Z" fill="white"/>
<path d="M42.447 28.7604L44.2613 27.3732L56.204 34.014L53.7292 35.9075L51.2587 34.4543L47.3923 37.4092L48.1762 40.1527L45.7585 42.0022L42.447 28.7604ZM45.5031 31.0107L46.6613 35.0268L49.0921 33.1685L45.5031 31.0107Z" fill="white"/>
<path d="M52.8705 21.512L56.2525 19.887L64.8264 25.4224L64.8572 25.4092L61.0833 17.5619L63.5714 16.3641L69.0055 27.6551L65.7512 29.2228L56.9571 23.5553L56.9262 23.5685L60.7927 31.6052L58.3046 32.803L52.8705 21.512Z" fill="white"/>
<path d="M72.3171 16.1438L68.869 17.0818L68.2261 14.7259L77.7864 12.1233L78.4294 14.4793L74.9813 15.4172L77.6323 25.1493L74.9681 25.876L72.3171 16.1438Z" fill="white"/>
<path d="M82.9387 7.83414L86.5101 7.31891L83.8415 10.2782L81.5295 10.6084L82.9343 7.83414H82.9387ZM82.0492 11.4672L84.7795 11.0752L86.5629 23.476L83.8327 23.8679L82.0492 11.4672Z" fill="white"/>
<path d="M94.5512 10.3927H96.8323L102.262 22.9344H99.1486L98.0741 20.2745L93.2081 20.2657L92.16 22.9211H89.1171L94.5512 10.3971V10.3927ZM95.6081 14.0389L94.08 17.9318H97.1406L95.6081 14.0389Z" fill="white"/>
<path d="M114.945 12.4404L118.912 13.6294C119.872 13.9156 120.753 14.2987 121.555 14.7699C122.356 15.2455 123.003 15.818 123.505 16.4917C124.003 17.1655 124.329 17.945 124.479 18.8257C124.628 19.7064 124.536 20.6972 124.21 21.7938C123.919 22.767 123.479 23.5684 122.889 24.1982C122.299 24.8279 121.621 25.3035 120.846 25.6161C120.075 25.9332 119.243 26.1006 118.349 26.1138C117.459 26.1314 116.565 26.0037 115.671 25.735L111.347 24.4404L114.945 12.4404ZM114.724 22.7934L116.098 23.2073C116.71 23.3923 117.296 23.498 117.855 23.5332C118.419 23.564 118.934 23.498 119.406 23.3218C119.877 23.1501 120.291 22.8595 120.652 22.4587C121.013 22.058 121.295 21.5163 121.497 20.8382C121.673 20.2525 121.717 19.7064 121.625 19.2044C121.537 18.7024 121.348 18.2532 121.061 17.8613C120.771 17.4694 120.396 17.1259 119.938 16.8308C119.476 16.5402 118.97 16.3112 118.415 16.1439L116.856 15.6771L114.72 22.7978L114.724 22.7934Z" fill="white"/>
<path d="M134.739 19.8605L136.756 20.9306L135.708 34.5556L132.956 33.098L133.246 30.2488L128.948 27.9721L126.782 29.8304L124.091 28.4081L134.739 19.8693V19.8605ZM133.973 23.5772L130.807 26.3075L133.515 27.7387L133.977 23.5772H133.973Z" fill="white"/>
<path d="M145.453 26.3031L147.637 27.9897L141.538 35.8899L145.585 39.0165L144.026 41.0334L137.795 36.2202L145.453 26.3031Z" fill="white"/>
<path d="M153.807 36.5108L151.284 33.9787L153.014 32.2569L160.003 39.2807L158.272 41.0026L155.749 38.4705L148.597 45.5868L146.651 43.6316L153.798 36.5152L153.807 36.5108Z" fill="white"/>
<path d="M157.695 46.0139C158.523 45.4503 159.373 45.0804 160.232 44.9042C161.095 44.7237 161.932 44.7237 162.742 44.9042C163.552 45.0804 164.319 45.4238 165.036 45.9347C165.754 46.4455 166.388 47.106 166.939 47.9163C167.489 48.7266 167.868 49.5589 168.079 50.4176C168.291 51.2719 168.326 52.1086 168.189 52.9277C168.053 53.7468 167.745 54.5218 167.256 55.2572C166.771 55.9927 166.111 56.64 165.283 57.2037C164.455 57.7673 163.605 58.1372 162.742 58.3178C161.879 58.4983 161.042 58.4983 160.232 58.3178C159.422 58.1416 158.655 57.7982 157.938 57.2873C157.22 56.7765 156.586 56.116 156.035 55.3057C155.485 54.4954 155.106 53.6631 154.895 52.8088C154.683 51.9545 154.648 51.1134 154.785 50.2987C154.921 49.4796 155.234 48.7002 155.718 47.9692C156.203 47.2338 156.859 46.5864 157.691 46.0227L157.695 46.0139ZM159.303 48.3875C158.814 48.7178 158.418 49.0965 158.118 49.5237C157.814 49.9508 157.612 50.4044 157.506 50.8888C157.4 51.3732 157.396 51.8708 157.502 52.3772C157.603 52.8837 157.819 53.3813 158.149 53.8701C158.479 54.3589 158.862 54.742 159.298 55.0282C159.734 55.3101 160.197 55.495 160.686 55.5743C161.174 55.6536 161.672 55.636 162.183 55.5127C162.689 55.3893 163.187 55.1604 163.676 54.8301C164.156 54.5042 164.548 54.1299 164.856 53.6983C165.164 53.2668 165.371 52.8132 165.477 52.3244C165.582 51.84 165.582 51.3424 165.481 50.836C165.38 50.3295 165.164 49.8275 164.829 49.3431C164.499 48.8543 164.116 48.4712 163.68 48.1849C163.244 47.9031 162.782 47.7226 162.293 47.6389C161.804 47.5596 161.302 47.5816 160.791 47.7093C160.276 47.8371 159.783 48.0616 159.303 48.3875Z" fill="white"/>
<path d="M173.073 58.7802L174.469 62.2635L168.37 70.4455L168.383 70.4764L176.464 67.2397L177.49 69.8026L165.86 74.4617L164.517 71.1105L170.761 62.7171L170.748 62.6863L162.469 66.0022L161.443 63.4393L173.073 58.7802Z" fill="white"/>
<path d="M24.9424 129.913L25.3211 130.666C25.4312 130.881 25.5501 131.08 25.6866 131.269C25.8187 131.458 25.9728 131.613 26.1446 131.74C26.3163 131.868 26.5057 131.938 26.7171 131.96C26.9284 131.982 27.1618 131.93 27.4172 131.797C27.7431 131.63 27.9501 131.366 28.0338 130.996C28.1174 130.626 28.0602 130.252 27.8708 129.877C27.6903 129.521 27.4437 129.274 27.131 129.138C26.8183 129.001 26.5013 128.97 26.1798 129.041L25.4224 126.249C25.9552 126.134 26.4484 126.117 26.902 126.192C27.3556 126.271 27.7739 126.425 28.1483 126.658C28.5226 126.892 28.8661 127.191 29.1699 127.557C29.4738 127.922 29.7468 128.332 29.9758 128.794C30.218 129.274 30.3941 129.767 30.4998 130.269C30.6055 130.771 30.6187 131.256 30.5394 131.718C30.4602 132.181 30.2796 132.608 30.0066 133C29.7292 133.392 29.3284 133.717 28.8088 133.982C28.2055 134.286 27.611 134.391 27.0209 134.29C26.4308 134.189 25.9244 133.872 25.4972 133.33L25.4532 133.352C25.5765 133.7 25.625 134.035 25.5985 134.365C25.5721 134.691 25.4884 134.999 25.3519 135.29C25.2154 135.576 25.0261 135.84 24.7883 136.073C24.5505 136.311 24.2686 136.509 23.956 136.668C23.4143 136.941 22.8859 137.077 22.3706 137.073C21.8554 137.073 21.3754 136.963 20.9262 136.747C20.4771 136.531 20.0675 136.219 19.6932 135.814C19.3189 135.404 18.9974 134.937 18.7288 134.404C18.24 133.436 18.0418 132.484 18.1343 131.56C18.2312 130.63 18.7068 129.811 19.5611 129.094L21.3534 131.229C21.0055 131.507 20.7853 131.828 20.684 132.194C20.5872 132.559 20.662 132.986 20.9086 133.475C21.1596 133.973 21.4811 134.281 21.8598 134.387C22.2429 134.493 22.6349 134.444 23.0444 134.237C23.3527 134.083 23.5552 133.898 23.6609 133.687C23.7666 133.475 23.8062 133.246 23.7842 133C23.7622 132.753 23.6961 132.498 23.5817 132.238C23.4672 131.974 23.3483 131.714 23.2161 131.458L22.9431 130.921L24.9336 129.913H24.9424Z" fill="white"/>
<path d="M37.9024 141.56L39.3072 143.269L33.2785 155.075L31.3585 152.741L32.684 150.297L29.6851 146.651L27.0517 147.505L25.1758 145.224L37.9024 141.56ZM35.8239 144.603L31.9706 145.863L33.8598 148.157L35.8283 144.603H35.8239Z" fill="white"/>
<path d="M43.3277 147.946L46.0976 150.306L44.5475 160.087L44.5739 160.109L50.0565 153.679L52.0954 155.419L44.2084 164.666L41.5442 162.394L43.1207 152.367L43.0943 152.345L37.4796 158.928L35.4407 157.189L43.3277 147.941V147.946ZM45.8026 148.747C46.0228 148.558 46.2694 148.391 46.5424 148.25C46.8154 148.104 47.0928 148.007 47.3703 147.955C47.6521 147.897 47.9295 147.902 48.2114 147.959C48.4932 148.016 48.753 148.148 48.9996 148.36C49.2154 148.545 49.3916 148.738 49.5193 148.941C49.647 149.144 49.7747 149.364 49.9024 149.606C49.9861 149.751 50.0697 149.901 50.149 150.042C50.2283 150.183 50.3339 150.315 50.4661 150.425C50.6158 150.553 50.7699 150.606 50.9372 150.588C51.1046 150.57 51.2719 150.522 51.4437 150.443L52.4609 151.31C52.2011 151.526 51.9413 151.711 51.6771 151.861C51.4128 152.01 51.1442 152.112 50.8712 152.156C50.5982 152.2 50.3251 152.191 50.0477 152.116C49.7703 152.046 49.4972 151.896 49.2286 151.662C49.0393 151.5 48.8807 151.315 48.7574 151.116C48.6341 150.914 48.5284 150.716 48.4404 150.522C48.3523 150.324 48.2642 150.143 48.1761 149.971C48.0881 149.8 47.9824 149.659 47.8503 149.549C47.7006 149.421 47.5332 149.381 47.3394 149.43C47.1501 149.478 46.9783 149.544 46.833 149.628L45.8026 148.747Z" fill="white"/>
<path d="M50.2371 161.606C50.7215 160.765 51.3027 160.078 51.9765 159.558C52.6547 159.034 53.3813 158.677 54.1651 158.488C54.949 158.299 55.7593 158.272 56.6048 158.413C57.4503 158.554 58.2826 158.862 59.106 159.334C59.9295 159.809 60.6165 160.373 61.1626 161.029C61.7086 161.685 62.0961 162.403 62.3295 163.174C62.5585 163.944 62.6202 164.755 62.5057 165.604C62.3956 166.45 62.0961 167.295 61.6161 168.141C61.1317 168.986 60.5505 169.669 59.8723 170.189C59.1941 170.713 58.4675 171.069 57.6837 171.259C56.8998 171.448 56.0895 171.475 55.244 171.334C54.3985 171.193 53.5662 170.884 52.7427 170.413C51.9193 169.942 51.2323 169.374 50.6862 168.718C50.1402 168.062 49.7527 167.348 49.5237 166.573C49.2947 165.803 49.233 164.992 49.3431 164.142C49.4532 163.297 49.7527 162.451 50.2371 161.606ZM52.6503 162.993C52.364 163.491 52.1835 163.988 52.0998 164.486C52.0161 164.984 52.0338 165.468 52.1438 165.939C52.2583 166.406 52.4697 166.842 52.7736 167.238C53.0774 167.639 53.4782 167.982 53.9758 168.264C54.4734 168.55 54.971 168.722 55.4686 168.784C55.9662 168.846 56.4462 168.81 56.9086 168.669C57.371 168.533 57.7938 168.299 58.1857 167.978C58.5776 167.657 58.9123 167.243 59.1985 166.749C59.476 166.265 59.6609 165.767 59.7446 165.261C59.8282 164.755 59.815 164.27 59.7005 163.803C59.5861 163.337 59.3747 162.901 59.0708 162.5C58.767 162.099 58.3662 161.756 57.8686 161.474C57.371 161.192 56.8734 161.016 56.3758 160.954C55.8782 160.893 55.3982 160.928 54.9358 161.064C54.4734 161.201 54.0462 161.434 53.6543 161.764C53.2624 162.095 52.9233 162.5 52.6459 162.989L52.6503 162.993Z" fill="white"/>
<path d="M70.6789 168.216C70.5732 167.881 70.3706 167.59 70.0668 167.335C69.7629 167.08 69.4591 166.895 69.1464 166.776C68.9615 166.705 68.7677 166.657 68.5607 166.626C68.3538 166.595 68.1424 166.595 67.9398 166.622C67.7328 166.648 67.5479 166.714 67.3849 166.824C67.222 166.934 67.0987 167.097 67.0194 167.309C66.8917 167.652 66.9182 167.96 67.1075 168.242C67.2969 168.52 67.5611 168.797 67.9046 169.075C68.2481 169.352 68.618 169.638 69.0187 169.938C69.4194 170.237 69.7717 170.576 70.0712 170.959C70.375 171.342 70.5776 171.783 70.6833 172.276C70.789 172.769 70.7185 173.346 70.4675 174.011C70.2297 174.645 69.9038 175.147 69.4899 175.53C69.076 175.913 68.6092 176.182 68.0895 176.341C67.5699 176.499 67.0194 176.552 66.4294 176.504C65.8437 176.455 65.2536 176.319 64.6679 176.094C63.9281 175.817 63.2851 175.442 62.7391 174.98C62.193 174.517 61.7394 173.932 61.3871 173.223L63.9105 171.937C64.0382 172.377 64.2627 172.765 64.5798 173.099C64.9013 173.434 65.2668 173.681 65.6851 173.839C65.8877 173.914 66.1035 173.971 66.3325 174.002C66.5571 174.033 66.7728 174.033 66.9754 174.002C67.178 173.967 67.3585 173.897 67.5171 173.782C67.6756 173.672 67.7945 173.513 67.8693 173.311C67.9971 172.967 67.9706 172.646 67.7813 172.351C67.5919 172.051 67.3277 171.761 66.9842 171.47C66.6407 171.179 66.2664 170.88 65.8569 170.567C65.4473 170.255 65.0906 169.907 64.7824 169.519C64.4741 169.132 64.2627 168.7 64.1482 168.216C64.0293 167.731 64.091 167.172 64.3332 166.542C64.5622 165.93 64.8881 165.442 65.302 165.072C65.716 164.702 66.1827 164.437 66.7024 164.279C67.222 164.12 67.7725 164.063 68.3538 164.107C68.935 164.151 69.5075 164.279 70.0624 164.486C70.7053 164.728 71.291 165.054 71.8238 165.464C72.3523 165.873 72.7794 166.384 73.1009 166.992L70.6701 168.22L70.6789 168.216Z" fill="white"/>
<path d="M78.3941 173.844C78.5218 172.879 78.8037 172.029 79.2308 171.29C79.658 170.55 80.1996 169.946 80.8514 169.471C81.5031 169 82.2473 168.669 83.0796 168.48C83.9163 168.291 84.8015 168.26 85.7439 168.388C86.6863 168.515 87.5318 168.78 88.2892 169.18C89.0422 169.581 89.6719 170.096 90.1784 170.726C90.6804 171.351 91.0459 172.082 91.2617 172.906C91.4774 173.734 91.5215 174.628 91.3938 175.592C91.2661 176.556 90.9842 177.406 90.5571 178.146C90.1299 178.886 89.5883 179.489 88.9365 179.965C88.2848 180.436 87.5406 180.766 86.7083 180.956C85.876 181.145 84.9864 181.176 84.044 181.048C83.1017 180.92 82.2562 180.656 81.4987 180.255C80.7457 179.855 80.116 179.34 79.6095 178.71C79.1031 178.084 78.742 177.353 78.5263 176.53C78.3061 175.706 78.2664 174.808 78.3941 173.844ZM81.1508 174.214C81.076 174.782 81.0936 175.31 81.2037 175.808C81.3138 176.301 81.5119 176.746 81.7938 177.133C82.0756 177.525 82.4323 177.847 82.8683 178.102C83.2998 178.357 83.8018 178.52 84.3699 178.6C84.938 178.675 85.462 178.648 85.9508 178.516C86.4352 178.384 86.8668 178.168 87.2411 177.864C87.6154 177.56 87.9237 177.186 88.1615 176.741C88.3993 176.292 88.5578 175.786 88.6327 175.222C88.7075 174.667 88.6899 174.139 88.5754 173.637C88.4653 173.135 88.2672 172.69 87.9853 172.302C87.7035 171.911 87.3424 171.589 86.9108 171.334C86.4793 171.078 85.9773 170.915 85.4092 170.836C84.8411 170.761 84.3171 170.788 83.8327 170.92C83.3483 171.052 82.9167 171.268 82.5424 171.567C82.1681 171.871 81.8598 172.245 81.6176 172.699C81.3754 173.152 81.2213 173.654 81.1464 174.214H81.1508Z" fill="white"/>
<path d="M102.768 173.364C102.901 173.315 103.037 173.276 103.174 173.24C103.306 173.205 103.451 173.179 103.596 173.166C104.169 173.113 104.693 173.166 105.182 173.324C105.67 173.487 106.093 173.729 106.459 174.046C106.824 174.368 107.119 174.764 107.348 175.231C107.577 175.698 107.718 176.204 107.767 176.75C107.824 177.375 107.767 177.957 107.577 178.485C107.392 179.014 107.115 179.48 106.745 179.886C106.375 180.291 105.921 180.617 105.389 180.868C104.856 181.119 104.274 181.273 103.649 181.334C103.011 181.396 102.407 181.352 101.844 181.202C101.28 181.053 100.774 180.819 100.338 180.489C99.8972 180.163 99.5361 179.758 99.2587 179.273C98.9769 178.789 98.8051 178.234 98.7479 177.604C98.7083 177.173 98.7083 176.772 98.7523 176.407C98.7963 176.041 98.8712 175.689 98.9725 175.359C99.0738 175.028 99.1971 174.707 99.3468 174.399C99.4965 174.09 99.655 173.773 99.818 173.447L102.077 169.061L105.204 168.766L102.773 173.359L102.768 173.364ZM105.19 176.895C105.138 176.349 104.917 175.913 104.525 175.588C104.134 175.262 103.645 175.13 103.063 175.182C102.482 175.24 102.029 175.46 101.703 175.856C101.377 176.248 101.24 176.719 101.293 177.265C101.346 177.811 101.566 178.247 101.958 178.573C102.35 178.899 102.839 179.036 103.42 178.978C104.001 178.926 104.455 178.701 104.781 178.305C105.107 177.908 105.243 177.442 105.19 176.895Z" fill="white"/>
<path d="M109.273 174.372C109.11 173.672 109.008 172.941 108.969 172.188C108.929 171.435 109.004 170.722 109.198 170.057C109.387 169.387 109.726 168.802 110.211 168.3C110.691 167.793 111.373 167.441 112.254 167.234C113.135 167.027 113.901 167.049 114.557 167.291C115.213 167.533 115.772 167.912 116.239 168.423C116.706 168.938 117.085 169.541 117.384 170.237C117.679 170.933 117.908 171.633 118.071 172.333C118.234 173.038 118.335 173.764 118.375 174.517C118.415 175.271 118.34 175.984 118.146 176.649C117.957 177.314 117.618 177.904 117.133 178.406C116.653 178.912 115.971 179.269 115.09 179.472C114.209 179.679 113.443 179.657 112.787 179.419C112.131 179.177 111.571 178.798 111.105 178.283C110.638 177.767 110.259 177.164 109.96 176.468C109.665 175.773 109.431 175.072 109.273 174.372ZM111.783 173.791C111.853 174.104 111.954 174.473 112.087 174.901C112.214 175.328 112.386 175.729 112.602 176.103C112.818 176.477 113.082 176.772 113.399 176.992C113.716 177.213 114.099 177.27 114.557 177.164C115.002 177.063 115.323 176.838 115.513 176.504C115.702 176.164 115.817 175.781 115.843 175.35C115.874 174.918 115.852 174.482 115.777 174.042C115.702 173.602 115.632 173.223 115.557 172.91C115.486 172.598 115.385 172.228 115.253 171.8C115.125 171.373 114.953 170.973 114.738 170.598C114.522 170.224 114.253 169.929 113.932 169.709C113.61 169.489 113.227 169.431 112.782 169.537C112.324 169.643 112.003 169.863 111.818 170.202C111.633 170.541 111.523 170.924 111.497 171.351C111.466 171.783 111.488 172.214 111.563 172.659C111.637 173.1 111.708 173.478 111.783 173.791Z" fill="white"/>
<path d="M121.524 174.584L123.862 173.786L123.959 178.868L121.88 179.577L121.524 174.584Z" fill="white"/>
<path d="M124.734 170.061C124.434 169.405 124.188 168.713 123.999 167.978C123.809 167.247 123.743 166.534 123.796 165.842C123.849 165.151 124.065 164.508 124.435 163.918C124.804 163.328 125.403 162.843 126.227 162.465C127.05 162.09 127.808 161.954 128.495 162.059C129.186 162.165 129.811 162.425 130.371 162.835C130.93 163.244 131.423 163.764 131.855 164.385C132.286 165.006 132.647 165.644 132.947 166.3C133.246 166.956 133.493 167.652 133.682 168.383C133.872 169.114 133.938 169.828 133.885 170.519C133.828 171.21 133.616 171.853 133.246 172.443C132.876 173.033 132.277 173.518 131.458 173.897C130.635 174.271 129.877 174.407 129.19 174.302C128.503 174.196 127.874 173.936 127.314 173.527C126.755 173.117 126.262 172.597 125.83 171.977C125.399 171.356 125.038 170.717 124.738 170.061H124.734ZM127.077 168.991C127.209 169.281 127.385 169.625 127.596 170.021C127.808 170.418 128.059 170.774 128.341 171.096C128.627 171.417 128.948 171.655 129.301 171.809C129.653 171.963 130.045 171.941 130.472 171.748C130.89 171.558 131.159 171.276 131.278 170.906C131.397 170.537 131.428 170.14 131.37 169.713C131.313 169.286 131.207 168.863 131.044 168.445C130.886 168.026 130.741 167.674 130.604 167.379C130.472 167.088 130.3 166.745 130.089 166.353C129.877 165.961 129.626 165.6 129.345 165.279C129.058 164.957 128.737 164.719 128.38 164.57C128.023 164.42 127.636 164.437 127.218 164.627C126.79 164.825 126.522 165.102 126.407 165.472C126.293 165.842 126.262 166.239 126.319 166.666C126.377 167.093 126.482 167.516 126.645 167.934C126.804 168.352 126.949 168.705 127.086 168.995L127.077 168.991Z" fill="white"/>
<path d="M134.422 165.508C134.039 164.895 133.7 164.244 133.414 163.544C133.127 162.843 132.964 162.148 132.925 161.456C132.885 160.765 133.013 160.1 133.299 159.461C133.59 158.827 134.114 158.268 134.88 157.784C135.642 157.299 136.377 157.066 137.073 157.079C137.773 157.092 138.425 157.264 139.033 157.594C139.645 157.924 140.2 158.374 140.71 158.928C141.221 159.488 141.666 160.069 142.049 160.681C142.437 161.293 142.771 161.945 143.058 162.645C143.344 163.345 143.507 164.041 143.546 164.733C143.586 165.424 143.463 166.089 143.172 166.727C142.881 167.362 142.357 167.921 141.591 168.405C140.825 168.89 140.094 169.123 139.398 169.11C138.698 169.097 138.046 168.925 137.439 168.595C136.826 168.264 136.272 167.815 135.761 167.26C135.25 166.701 134.805 166.12 134.422 165.508ZM136.597 164.129C136.769 164.402 136.985 164.719 137.249 165.08C137.513 165.442 137.804 165.763 138.134 166.045C138.46 166.327 138.808 166.52 139.178 166.622C139.548 166.727 139.931 166.653 140.327 166.402C140.715 166.155 140.944 165.842 141.014 165.459C141.085 165.076 141.063 164.68 140.948 164.261C140.834 163.847 140.671 163.442 140.455 163.05C140.239 162.658 140.05 162.328 139.878 162.055C139.706 161.786 139.491 161.469 139.226 161.108C138.962 160.747 138.667 160.426 138.341 160.144C138.015 159.862 137.663 159.673 137.289 159.571C136.915 159.47 136.531 159.541 136.144 159.787C135.748 160.038 135.519 160.351 135.452 160.734C135.386 161.113 135.413 161.513 135.527 161.927C135.642 162.341 135.805 162.746 136.021 163.138C136.236 163.53 136.426 163.861 136.597 164.134V164.129Z" fill="white"/>
<path d="M143.428 159.682C142.965 159.131 142.542 158.528 142.164 157.872C141.785 157.215 141.53 156.551 141.397 155.868C141.265 155.185 141.301 154.512 141.499 153.842C141.701 153.173 142.146 152.548 142.837 151.966C143.529 151.385 144.225 151.055 144.916 150.971C145.612 150.892 146.281 150.971 146.928 151.218C147.576 151.464 148.192 151.834 148.769 152.314C149.35 152.799 149.87 153.318 150.332 153.869C150.799 154.419 151.218 155.022 151.596 155.679C151.975 156.335 152.23 157 152.363 157.682C152.495 158.365 152.459 159.039 152.261 159.708C152.063 160.377 151.614 161.003 150.923 161.584C150.231 162.165 149.535 162.5 148.844 162.579C148.153 162.663 147.479 162.579 146.832 162.333C146.184 162.086 145.568 161.72 144.991 161.236C144.41 160.752 143.89 160.232 143.428 159.682ZM145.4 158.026C145.607 158.272 145.863 158.554 146.175 158.88C146.484 159.202 146.818 159.483 147.184 159.717C147.545 159.95 147.915 160.095 148.298 160.148C148.681 160.201 149.051 160.078 149.408 159.774C149.756 159.479 149.941 159.14 149.958 158.748C149.976 158.36 149.901 157.968 149.734 157.572C149.566 157.176 149.346 156.797 149.082 156.436C148.818 156.075 148.58 155.775 148.373 155.529C148.166 155.282 147.91 155 147.602 154.675C147.294 154.353 146.959 154.071 146.594 153.838C146.233 153.604 145.858 153.464 145.475 153.411C145.092 153.362 144.722 153.486 144.37 153.781C144.013 154.084 143.824 154.424 143.811 154.811C143.797 155.194 143.877 155.586 144.044 155.982C144.211 156.379 144.432 156.757 144.696 157.119C144.96 157.48 145.198 157.784 145.405 158.026H145.4Z" fill="white"/>
<path d="M151.011 144.48L152.644 142.357L156.643 145.44L155.529 138.619L157.665 135.844L158.836 143.577L167.573 142.899L165.287 145.863L157.7 146.259L162.266 149.778L160.633 151.9L151.002 144.48H151.011Z" fill="white"/>
<path d="M158.294 134.995L160.126 131.379L168.467 132.467L168.484 132.436L162.68 126.341L164.503 122.744L175.35 128.235L174.139 130.626L165.82 126.416L165.807 126.447L172.681 133.506L171.761 135.329L162.055 133.858L162.037 133.889L170.356 138.099L169.145 140.49L158.299 134.999L158.294 134.995Z" fill="white"/>
<path d="M122.576 106.78H95.5949C93.4327 106.78 91.5743 108.225 91.178 110.211C91.1516 110.352 91.1295 110.488 91.1163 110.625C90.8962 112.8 92.5123 114.738 94.6613 115.143L110.004 119.93C105.93 122.404 101.135 123.827 96 123.827C94.9828 123.827 93.9831 123.77 92.9967 123.664C84.6826 122.748 78.4778 115.548 78.4778 107.181V99.2763L79.5127 100.408L79.9442 100.804L88.4521 109.312C89.2404 106.221 92.0631 103.918 95.3835 103.918H98.7611L83.5684 88.7251C81.8774 87.0341 79.658 86.1886 77.4385 86.1886C75.2191 86.1886 72.9952 87.0341 71.3042 88.7251C71.2954 88.7339 69.2477 90.9314 69.2477 95.04V109.387C69.2477 124.06 80.8778 136.333 95.5464 136.58C110.532 136.831 122.761 124.756 122.761 109.827V106.78H122.581H122.576Z" fill="#D10C2B"/>
<path d="M103.381 55.4202C100.835 55.4202 98.7655 57.4899 98.7655 60.0352V99.8708L102.87 103.953H107.996V60.0352C107.996 57.4899 105.926 55.4202 103.381 55.4202Z" fill="#D10C2B"/>
<path d="M118.137 55.4202C115.592 55.4202 113.522 57.4899 113.522 60.0352V103.953H122.757V60.0352C122.757 57.4899 120.687 55.4202 118.142 55.4202H118.137Z" fill="#D10C2B"/>
<path d="M88.6195 55.4202C86.0741 55.4202 84.0044 57.4899 84.0044 60.0352V85.1802L93.2389 94.3662V60.0308C93.2389 57.4855 91.1692 55.4158 88.6239 55.4158L88.6195 55.4202Z" fill="#D10C2B"/>
<path d="M10.4235 105.644C10.7802 104.605 11.1281 103.592 11.476 102.583C12.2906 100.214 13.1009 97.8407 13.9288 95.4715C14.0081 95.247 13.9729 95.1104 13.8011 94.9519C13.4708 94.6525 13.1582 94.331 12.8059 93.9875C13.4312 93.7717 14.0257 93.7013 14.6246 93.666C18.654 93.415 22.3839 96.2114 23.2602 100.148C23.6609 101.945 23.498 103.698 22.7582 105.389C22.6965 105.534 22.6481 105.653 22.4367 105.653C21.2829 105.64 20.1292 105.648 18.9578 105.648C20.9659 103.116 21.2785 100.474 19.4466 97.757C18.2664 96.0088 16.0294 95.0003 14.0477 95.2954C14.1314 95.3438 14.2283 95.3791 14.2943 95.4451C15.3248 96.4668 16.3552 97.4972 17.3857 98.5233C17.9582 99.0914 18.0815 99.7035 17.7644 100.443C17.6895 100.615 17.5927 100.782 17.4914 100.941C16.5138 102.434 15.5317 103.927 14.5497 105.419C14.4793 105.525 14.4352 105.657 14.2591 105.657C12.9952 105.653 11.7314 105.657 10.4323 105.657L10.4235 105.644Z" fill="white"/>
<path d="M168.533 105.644C168.89 104.605 169.237 103.592 169.585 102.583C170.4 100.214 171.21 97.8407 172.038 95.4715C172.117 95.247 172.082 95.1104 171.91 94.9519C171.58 94.6525 171.268 94.331 170.915 93.9875C171.541 93.7717 172.135 93.7013 172.734 93.666C176.763 93.415 180.493 96.2114 181.37 100.148C181.77 101.945 181.607 103.698 180.868 105.389C180.806 105.534 180.757 105.653 180.546 105.653C179.392 105.64 178.239 105.648 177.067 105.648C179.075 103.116 179.388 100.474 177.556 97.757C176.376 96.0088 174.139 95.0003 172.157 95.2954C172.241 95.3438 172.338 95.3791 172.404 95.4451C173.434 96.4668 174.465 97.4972 175.495 98.5233C176.068 99.0914 176.191 99.7035 175.874 100.443C175.799 100.615 175.702 100.782 175.601 100.941C174.623 102.434 173.641 103.927 172.659 105.419C172.589 105.525 172.545 105.657 172.368 105.657C171.105 105.653 169.841 105.657 168.542 105.657L168.533 105.644Z" fill="white"/>
</g>
<defs>
<clipPath id="clip0_11667_5780">
<rect width="192" height="192" fill="white"/>
</clipPath>
</defs>
</svg>
