<svg width="494" height="81" viewBox="0 0 494 81" fill="none" xmlns="http://www.w3.org/2000/svg">
<g filter="url(#filter0_d_11506_9499)">
<rect x="260" y="12" width="222" height="57" rx="28.5" fill="white"/>
</g>
<path d="M337.099 29.8462H337.702V33.1472H337.458C336.367 33.1472 335.396 33.3098 334.544 33.6352C333.693 33.9605 332.97 34.4245 332.377 35.0273C331.793 35.6205 331.344 36.3381 331.028 37.1801C330.722 38.0221 330.569 38.9645 330.569 40.0074V43.4806C330.569 44.2269 330.64 44.8871 330.784 45.4612C330.937 46.0257 331.152 46.4993 331.43 46.882C331.717 47.2552 332.052 47.5374 332.434 47.7288C332.817 47.9106 333.248 48.0015 333.726 48.0015C334.176 48.0015 334.582 47.9058 334.946 47.7145C335.319 47.5231 335.635 47.2552 335.893 46.9107C336.161 46.5567 336.362 46.1453 336.496 45.6765C336.639 45.1981 336.711 44.6766 336.711 44.1121C336.711 43.5476 336.639 43.0261 336.496 42.5477C336.362 42.0693 336.161 41.6579 335.893 41.3135C335.625 40.9595 335.3 40.6868 334.917 40.4954C334.535 40.304 334.104 40.2084 333.626 40.2084C332.975 40.2084 332.401 40.3615 331.903 40.6676C331.415 40.9642 331.033 41.347 330.755 41.8158C330.478 42.2846 330.329 42.7774 330.31 43.294L329.062 42.4903C329.09 41.7536 329.243 41.0551 329.521 40.3949C329.808 39.7348 330.2 39.1511 330.698 38.644C331.205 38.1273 331.812 37.7255 332.52 37.4384C333.228 37.1418 334.027 36.9935 334.917 36.9935C335.893 36.9935 336.749 37.1801 337.486 37.5532C338.233 37.9264 338.854 38.4383 339.352 39.0889C339.85 39.7395 340.223 40.4906 340.471 41.3422C340.72 42.1937 340.845 43.1027 340.845 44.0691C340.845 45.0833 340.677 46.0257 340.342 46.8964C340.017 47.7671 339.543 48.5277 338.921 49.1784C338.309 49.829 337.572 50.3361 336.711 50.6997C335.85 51.0633 334.884 51.245 333.812 51.245C332.702 51.245 331.693 51.0441 330.784 50.6423C329.884 50.2308 329.109 49.6568 328.459 48.92C327.808 48.1833 327.306 47.3078 326.952 46.2936C326.607 45.2794 326.435 44.1695 326.435 42.9639V41.3565C326.435 39.6726 326.679 38.1321 327.167 36.7352C327.665 35.3287 328.378 34.1136 329.306 33.0898C330.234 32.0564 331.353 31.2575 332.664 30.693C333.975 30.1285 335.453 29.8462 337.099 29.8462ZM356.79 38.6727V42.2894C356.79 43.8586 356.623 45.2124 356.288 46.351C355.953 47.48 355.47 48.4081 354.838 49.1353C354.216 49.8529 353.475 50.3839 352.614 50.7284C351.753 51.0728 350.796 51.245 349.743 51.245C348.901 51.245 348.117 51.1398 347.39 50.9293C346.663 50.7092 346.007 50.3696 345.423 49.9103C344.849 49.451 344.352 48.8722 343.931 48.1737C343.519 47.4657 343.204 46.6237 342.984 45.6478C342.764 44.6718 342.654 43.5524 342.654 42.2894V38.6727C342.654 37.1036 342.821 35.7592 343.156 34.6398C343.5 33.5108 343.983 32.5875 344.605 31.8699C345.237 31.1523 345.983 30.626 346.844 30.2911C347.705 29.9467 348.662 29.7745 349.715 29.7745C350.557 29.7745 351.336 29.8845 352.054 30.1046C352.781 30.3151 353.437 30.6452 354.02 31.0949C354.604 31.5445 355.101 32.1234 355.513 32.8314C355.924 33.5299 356.24 34.3671 356.46 35.343C356.68 36.3094 356.79 37.4193 356.79 38.6727ZM352.643 42.8348V38.113C352.643 37.3571 352.599 36.6969 352.513 36.1324C352.437 35.5679 352.317 35.0895 352.155 34.6972C351.992 34.2953 351.791 33.97 351.552 33.7213C351.313 33.4725 351.04 33.2907 350.734 33.1759C350.428 33.0611 350.088 33.0037 349.715 33.0037C349.246 33.0037 348.83 33.0946 348.466 33.2764C348.112 33.4581 347.811 33.75 347.562 34.1518C347.313 34.5441 347.122 35.0704 346.988 35.7305C346.863 36.3812 346.801 37.1753 346.801 38.113V42.8348C346.801 43.5907 346.84 44.2556 346.916 44.8297C347.002 45.4038 347.127 45.8965 347.289 46.308C347.461 46.7098 347.662 47.0399 347.892 47.2983C348.131 47.547 348.404 47.7288 348.71 47.8436C349.026 47.9584 349.37 48.0158 349.743 48.0158C350.203 48.0158 350.609 47.925 350.963 47.7432C351.327 47.5518 351.633 47.2552 351.882 46.8533C352.14 46.4419 352.332 45.9061 352.456 45.2459C352.58 44.5857 352.643 43.782 352.643 42.8348ZM363.106 47.4705L363.091 50.2404C363.091 51.3025 362.823 52.3741 362.288 53.4553C361.761 54.5364 361.092 55.4215 360.278 56.1104L358.126 55.0053C358.365 54.5651 358.599 54.125 358.829 53.6849C359.058 53.2448 359.25 52.7616 359.403 52.2353C359.556 51.7091 359.633 51.1111 359.633 50.4413V47.4705H363.106ZM379.726 38.6727V42.2894C379.726 43.8586 379.558 45.2124 379.224 46.351C378.889 47.48 378.405 48.4081 377.774 49.1353C377.152 49.8529 376.411 50.3839 375.549 50.7284C374.688 51.0728 373.732 51.245 372.679 51.245C371.837 51.245 371.052 51.1398 370.325 50.9293C369.598 50.7092 368.943 50.3696 368.359 49.9103C367.785 49.451 367.287 48.8722 366.866 48.1737C366.455 47.4657 366.139 46.6237 365.919 45.6478C365.699 44.6718 365.589 43.5524 365.589 42.2894V38.6727C365.589 37.1036 365.757 35.7592 366.091 34.6398C366.436 33.5108 366.919 32.5875 367.541 31.8699C368.173 31.1523 368.919 30.626 369.78 30.2911C370.641 29.9467 371.598 29.7745 372.65 29.7745C373.492 29.7745 374.272 29.8845 374.99 30.1046C375.717 30.3151 376.372 30.6452 376.956 31.0949C377.54 31.5445 378.037 32.1234 378.449 32.8314C378.86 33.5299 379.176 34.3671 379.396 35.343C379.616 36.3094 379.726 37.4193 379.726 38.6727ZM375.578 42.8348V38.113C375.578 37.3571 375.535 36.6969 375.449 36.1324C375.372 35.5679 375.253 35.0895 375.09 34.6972C374.928 34.2953 374.727 33.97 374.487 33.7213C374.248 33.4725 373.975 33.2907 373.669 33.1759C373.363 33.0611 373.023 33.0037 372.65 33.0037C372.181 33.0037 371.765 33.0946 371.402 33.2764C371.048 33.4581 370.746 33.75 370.498 34.1518C370.249 34.5441 370.057 35.0704 369.923 35.7305C369.799 36.3812 369.737 37.1753 369.737 38.113V42.8348C369.737 43.5907 369.775 44.2556 369.852 44.8297C369.938 45.4038 370.062 45.8965 370.225 46.308C370.397 46.7098 370.598 47.0399 370.828 47.2983C371.067 47.547 371.34 47.7288 371.646 47.8436C371.961 47.9584 372.306 48.0158 372.679 48.0158C373.138 48.0158 373.545 47.925 373.899 47.7432C374.263 47.5518 374.569 47.2552 374.817 46.8533C375.076 46.4419 375.267 45.9061 375.392 45.2459C375.516 44.5857 375.578 43.782 375.578 42.8348ZM396.016 38.6727V42.2894C396.016 43.8586 395.849 45.2124 395.514 46.351C395.179 47.48 394.696 48.4081 394.064 49.1353C393.442 49.8529 392.701 50.3839 391.84 50.7284C390.978 51.0728 390.022 51.245 388.969 51.245C388.127 51.245 387.343 51.1398 386.615 50.9293C385.888 50.7092 385.233 50.3696 384.649 49.9103C384.075 49.451 383.578 48.8722 383.157 48.1737C382.745 47.4657 382.429 46.6237 382.209 45.6478C381.989 44.6718 381.879 43.5524 381.879 42.2894V38.6727C381.879 37.1036 382.047 35.7592 382.382 34.6398C382.726 33.5108 383.209 32.5875 383.831 31.8699C384.463 31.1523 385.209 30.626 386.07 30.2911C386.931 29.9467 387.888 29.7745 388.94 29.7745C389.782 29.7745 390.562 29.8845 391.28 30.1046C392.007 30.3151 392.662 30.6452 393.246 31.0949C393.83 31.5445 394.327 32.1234 394.739 32.8314C395.15 33.5299 395.466 34.3671 395.686 35.343C395.906 36.3094 396.016 37.4193 396.016 38.6727ZM391.868 42.8348V38.113C391.868 37.3571 391.825 36.6969 391.739 36.1324C391.663 35.5679 391.543 35.0895 391.38 34.6972C391.218 34.2953 391.017 33.97 390.777 33.7213C390.538 33.4725 390.266 33.2907 389.959 33.1759C389.653 33.0611 389.314 33.0037 388.94 33.0037C388.472 33.0037 388.055 33.0946 387.692 33.2764C387.338 33.4581 387.036 33.75 386.788 34.1518C386.539 34.5441 386.347 35.0704 386.214 35.7305C386.089 36.3812 386.027 37.1753 386.027 38.113V42.8348C386.027 43.5907 386.065 44.2556 386.142 44.8297C386.228 45.4038 386.352 45.8965 386.515 46.308C386.687 46.7098 386.888 47.0399 387.118 47.2983C387.357 47.547 387.63 47.7288 387.936 47.8436C388.252 47.9584 388.596 48.0158 388.969 48.0158C389.428 48.0158 389.835 47.925 390.189 47.7432C390.553 47.5518 390.859 47.2552 391.108 46.8533C391.366 46.4419 391.557 45.9061 391.682 45.2459C391.806 44.5857 391.868 43.782 391.868 42.8348ZM412.306 38.6727V42.2894C412.306 43.8586 412.139 45.2124 411.804 46.351C411.469 47.48 410.986 48.4081 410.354 49.1353C409.732 49.8529 408.991 50.3839 408.13 50.7284C407.268 51.0728 406.312 51.245 405.259 51.245C404.417 51.245 403.633 51.1398 402.905 50.9293C402.178 50.7092 401.523 50.3696 400.939 49.9103C400.365 49.451 399.868 48.8722 399.447 48.1737C399.035 47.4657 398.719 46.6237 398.499 45.6478C398.279 44.6718 398.169 43.5524 398.169 42.2894V38.6727C398.169 37.1036 398.337 35.7592 398.672 34.6398C399.016 33.5108 399.499 32.5875 400.121 31.8699C400.753 31.1523 401.499 30.626 402.36 30.2911C403.221 29.9467 404.178 29.7745 405.23 29.7745C406.072 29.7745 406.852 29.8845 407.57 30.1046C408.297 30.3151 408.952 30.6452 409.536 31.0949C410.12 31.5445 410.617 32.1234 411.029 32.8314C411.44 33.5299 411.756 34.3671 411.976 35.343C412.196 36.3094 412.306 37.4193 412.306 38.6727ZM408.158 42.8348V38.113C408.158 37.3571 408.115 36.6969 408.029 36.1324C407.953 35.5679 407.833 35.0895 407.67 34.6972C407.508 34.2953 407.307 33.97 407.068 33.7213C406.828 33.4725 406.556 33.2907 406.249 33.1759C405.943 33.0611 405.604 33.0037 405.23 33.0037C404.762 33.0037 404.345 33.0946 403.982 33.2764C403.628 33.4581 403.326 33.75 403.078 34.1518C402.829 34.5441 402.638 35.0704 402.504 35.7305C402.379 36.3812 402.317 37.1753 402.317 38.113V42.8348C402.317 43.5907 402.355 44.2556 402.432 44.8297C402.518 45.4038 402.642 45.8965 402.805 46.308C402.977 46.7098 403.178 47.0399 403.408 47.2983C403.647 47.547 403.92 47.7288 404.226 47.8436C404.542 47.9584 404.886 48.0158 405.259 48.0158C405.718 48.0158 406.125 47.925 406.479 47.7432C406.843 47.5518 407.149 47.2552 407.398 46.8533C407.656 46.4419 407.847 45.9061 407.972 45.2459C408.096 44.5857 408.158 43.782 408.158 42.8348ZM425.999 30.0615V50.958H421.693V30.0615H425.999ZM438.514 30.0615L430.233 40.3806L425.454 45.5186L424.679 41.4426L427.908 37.0222L433.232 30.0615H438.514ZM433.62 50.958L427.463 41.2991L430.649 38.6296L438.715 50.958H433.62ZM443.552 38.644V50.958H439.404V35.4292H443.294L443.552 38.644ZM442.978 42.6482H441.83C441.83 41.567 441.959 40.572 442.217 39.663C442.485 38.7445 442.873 37.9503 443.38 37.2806C443.896 36.6012 444.533 36.075 445.289 35.7018C446.044 35.3287 446.92 35.1421 447.915 35.1421C448.604 35.1421 449.235 35.2474 449.81 35.4579C450.384 35.6588 450.876 35.9793 451.288 36.4194C451.709 36.85 452.034 37.4145 452.264 38.113C452.493 38.8019 452.608 39.6295 452.608 40.5959V50.958H448.475V41.0551C448.475 40.3471 448.379 39.8017 448.188 39.419C447.996 39.0363 447.724 38.7684 447.37 38.6153C447.025 38.4622 446.609 38.3857 446.121 38.3857C445.585 38.3857 445.116 38.4957 444.715 38.7158C444.322 38.9358 443.997 39.242 443.739 39.6343C443.48 40.017 443.289 40.4667 443.165 40.9834C443.04 41.5 442.978 42.055 442.978 42.6482ZM452.221 42.1746L450.742 42.3612C450.742 41.347 450.867 40.4045 451.116 39.5338C451.374 38.6631 451.752 37.8977 452.249 37.2375C452.756 36.5773 453.383 36.0654 454.129 35.7018C454.876 35.3287 455.737 35.1421 456.713 35.1421C457.459 35.1421 458.138 35.2521 458.751 35.4722C459.363 35.6827 459.885 36.0224 460.315 36.4912C460.755 36.9505 461.09 37.5532 461.32 38.2996C461.559 39.0459 461.679 39.9596 461.679 41.0408V50.958H457.531V41.0408C457.531 40.3232 457.435 39.7778 457.244 39.4047C457.062 39.0219 456.794 38.7588 456.44 38.6153C456.096 38.4622 455.684 38.3857 455.206 38.3857C454.708 38.3857 454.273 38.4861 453.9 38.6871C453.527 38.8784 453.216 39.1463 452.967 39.4908C452.718 39.8352 452.532 40.2371 452.407 40.6963C452.283 41.146 452.221 41.6388 452.221 42.1746Z" fill="black"/>
<circle cx="290.5" cy="40.5" r="23.5" fill="white"/>
<path d="M296.667 23H285.333C281.2 23 277.696 26.188 275.722 30.9344C275.72 30.9381 275.719 30.9417 275.717 30.9454C274.624 33.5777 274 36.6881 274 40C274 49.2913 278.905 57 285.333 57H296.667C303.095 57 308 49.2913 308 40C308 30.7087 303.095 23 296.667 23ZM280.242 51.2825C279.524 50.379 278.89 49.2908 278.37 48.0576L279.192 48.3943C279.477 48.5112 279.793 48.5317 280.091 48.4529L286.269 46.8174C286.269 46.8178 286.269 46.8183 286.27 46.8187C286.299 46.9194 286.328 47.0196 286.359 47.1193C286.373 47.166 286.387 47.2127 286.401 47.259C286.439 47.3823 286.479 47.5046 286.519 47.6263C286.525 47.6458 286.532 47.6656 286.538 47.6851C286.585 47.8255 286.633 47.9647 286.683 48.1029C286.697 48.1427 286.712 48.1822 286.726 48.2218C286.763 48.3214 286.799 48.4204 286.837 48.5187C286.855 48.5653 286.873 48.6118 286.891 48.658C286.928 48.7534 286.966 48.8481 287.004 48.9423C287.021 48.9838 287.038 49.0253 287.055 49.0666C287.11 49.1983 287.166 49.3291 287.223 49.4584C287.223 49.4595 287.224 49.4606 287.224 49.4617C287.25 49.5205 287.277 49.5784 287.304 49.6368L280.242 51.2825ZM279.77 29.3565L281.498 31.0851C281.833 31.42 282.313 31.5654 282.778 31.4725L287.203 30.5871C287.153 30.7017 287.104 30.8171 287.055 30.9336C287.038 30.9747 287.021 31.0162 287.005 31.0575C286.966 31.1518 286.928 31.2465 286.891 31.342C286.873 31.3883 286.855 31.4346 286.837 31.4811C286.799 31.5796 286.763 31.6787 286.726 31.7784C286.712 31.818 286.697 31.8573 286.683 31.897C286.633 32.0353 286.585 32.1746 286.538 32.3151C286.532 32.3344 286.526 32.3541 286.519 32.3735C286.479 32.4952 286.44 32.6178 286.401 32.7411C286.387 32.7875 286.373 32.8342 286.359 32.8808C286.333 32.966 286.307 33.0514 286.282 33.1374L281.555 34.1932L278.701 31.2075C279.024 30.5378 279.382 29.9188 279.77 29.3565ZM280.06 36.729C280.403 37.0877 280.908 37.2408 281.392 37.1326L285.615 36.1893C285.613 36.2022 285.612 36.2152 285.61 36.228C285.604 36.2687 285.598 36.3097 285.592 36.3505C285.575 36.4683 285.559 36.5865 285.544 36.7051C285.537 36.7591 285.53 36.8133 285.524 36.8675C285.51 36.9783 285.497 37.0894 285.485 37.2008C285.479 37.2529 285.474 37.3048 285.468 37.357C285.454 37.4959 285.441 37.6353 285.429 37.7752C285.427 37.7974 285.424 37.8196 285.423 37.8418C285.409 38.0036 285.398 38.1661 285.387 38.3291C285.384 38.3699 285.382 38.4108 285.38 38.4517L280.114 39.8344L277.077 36.657C277.205 35.7888 277.382 34.9533 277.602 34.1584L280.06 36.729ZM278.643 42.3956C278.999 42.7679 279.529 42.9177 280.027 42.7869L285.37 41.3836C285.373 41.4321 285.376 41.4804 285.379 41.5288C285.382 41.5762 285.384 41.6236 285.387 41.6708C285.398 41.8339 285.409 41.9964 285.423 42.1581C285.425 42.1804 285.427 42.2025 285.429 42.2247C285.441 42.3647 285.454 42.5041 285.468 42.643C285.474 42.6952 285.479 42.7471 285.485 42.7992C285.497 42.9106 285.51 43.0217 285.524 43.1325C285.53 43.1866 285.537 43.2408 285.544 43.2949C285.559 43.4135 285.575 43.5316 285.592 43.6494C285.598 43.6903 285.604 43.7313 285.61 43.772C285.624 43.8649 285.638 43.9572 285.653 44.0495L279.826 45.5923L277.291 44.5544C277.027 43.2817 276.87 41.9242 276.84 40.5093L278.643 42.3956ZM290.351 25.8334C290.338 25.8463 290.325 25.86 290.312 25.873C290.247 25.9389 290.182 26.006 290.118 26.0739C290.096 26.097 290.074 26.1196 290.052 26.143C289.967 26.2341 289.883 26.3269 289.8 26.4214C289.782 26.4416 289.765 26.4625 289.747 26.4829C289.682 26.5584 289.617 26.6347 289.552 26.7123C289.525 26.745 289.498 26.7781 289.471 26.8112C289.415 26.8801 289.36 26.9496 289.305 27.0201C289.278 27.0538 289.252 27.0874 289.226 27.1216C289.174 27.1881 289.124 27.2556 289.074 27.3234L282.966 28.5456L281.674 27.2536C282.796 26.3427 284.042 25.8335 285.333 25.8335L290.351 25.8334ZM290.351 54.1666H285.333C284.505 54.1666 283.696 53.9567 282.925 53.5665L288.488 52.2702C288.572 52.2507 288.652 52.2237 288.728 52.1907C288.74 52.2086 288.752 52.2266 288.765 52.2444C288.839 52.3528 288.915 52.4599 288.991 52.5653C289.007 52.5876 289.024 52.6092 289.04 52.6313C289.101 52.7147 289.163 52.7971 289.225 52.8785C289.252 52.9127 289.278 52.9464 289.305 52.9802C289.36 53.0506 289.415 53.1201 289.471 53.1888C289.498 53.222 289.525 53.2552 289.552 53.288C289.616 53.3654 289.681 53.4416 289.747 53.5169C289.765 53.5374 289.782 53.5585 289.8 53.5788C289.883 53.6733 289.967 53.7659 290.052 53.8571C290.074 53.8806 290.096 53.9033 290.118 53.9265C290.182 53.9943 290.247 54.0613 290.312 54.127C290.325 54.1399 290.338 54.1537 290.351 54.1666ZM296.667 54.1666C292.141 54.1666 288.167 47.9213 288.167 40C288.167 38.1276 288.389 36.3491 288.788 34.7243C288.796 34.6962 288.803 34.6677 288.809 34.639C289.309 32.6436 290.075 30.8832 291.024 29.4716C291.059 29.4258 291.093 29.3781 291.122 29.3284C292.635 27.1453 294.593 25.8334 296.667 25.8334C301.192 25.8334 305.167 32.0787 305.167 40C305.167 47.9213 301.192 54.1666 296.667 54.1666Z" fill="black"/>
<path d="M296.667 28.6666C293.209 28.6666 291 33.8205 291 40C291 46.1795 293.209 51.3333 296.667 51.3333C300.125 51.3333 302.333 46.1795 302.333 40C302.333 33.8204 300.125 28.6666 296.667 28.6666ZM298.37 46.4541C297.777 47.8384 297.106 48.5 296.667 48.5C296.227 48.5 295.557 47.8384 294.963 46.4541C294.252 44.794 293.833 42.4838 293.833 40C293.833 37.5162 294.252 35.2059 294.963 33.5459C295.557 32.1616 296.227 31.5 296.667 31.5C297.106 31.5 297.777 32.1616 298.37 33.5459C299.081 35.2059 299.5 37.5162 299.5 40C299.5 42.4838 299.081 44.794 298.37 46.4541Z" fill="black"/>
<path d="M280.12 27.76L282.84 30.14L288.28 28.78" stroke="#FF2946" stroke-width="4"/>
<path d="M278.08 32.52L281.14 35.92L285.9 34.56" stroke="#FF2946" stroke-width="4"/>
<path d="M276.38 37.96L279.78 41.36L285.22 40" stroke="#FF2946" stroke-width="4"/>
<g filter="url(#filter1_d_11506_9499)">
<rect x="12" y="12" width="222" height="57" rx="28.5" fill="white"/>
</g>
<path d="M95.669 38.7578H97.8792C98.5873 38.7578 99.1709 38.6382 99.6302 38.399C100.089 38.1502 100.429 37.8057 100.649 37.3656C100.879 36.9159 100.994 36.3945 100.994 35.8012C100.994 35.2654 100.888 34.7918 100.678 34.3804C100.477 33.9594 100.166 33.6341 99.745 33.4045C99.324 33.1653 98.793 33.0457 98.1519 33.0457C97.6448 33.0457 97.176 33.1461 96.7454 33.3471C96.3149 33.548 95.9704 33.8302 95.7121 34.1938C95.4538 34.5574 95.3246 34.9975 95.3246 35.5142H91.1769C91.1769 34.366 91.483 33.3662 92.0954 32.5146C92.7173 31.6631 93.5497 30.9981 94.5926 30.5197C95.6355 30.0413 96.7837 29.8021 98.0371 29.8021C99.4532 29.8021 100.692 30.0317 101.754 30.491C102.816 30.9407 103.644 31.6057 104.237 32.4859C104.83 33.3662 105.127 34.4569 105.127 35.7582C105.127 36.4184 104.974 37.0594 104.668 37.6814C104.362 38.2937 103.921 38.8486 103.347 39.3462C102.783 39.8342 102.094 40.2264 101.281 40.523C100.467 40.8101 99.5536 40.9536 98.5394 40.9536H95.669V38.7578ZM95.669 41.9008V39.7624H98.5394C99.678 39.7624 100.678 39.8916 101.539 40.1499C102.4 40.4082 103.123 40.7814 103.706 41.2694C104.29 41.7477 104.73 42.317 105.027 42.9772C105.323 43.6279 105.471 44.3502 105.471 45.1444C105.471 46.1203 105.285 46.991 104.912 47.7565C104.539 48.5123 104.012 49.1534 103.333 49.6796C102.663 50.2059 101.879 50.6077 100.979 50.8852C100.08 51.1531 99.0992 51.287 98.0371 51.287C97.1569 51.287 96.291 51.1674 95.4394 50.9282C94.5974 50.6795 93.832 50.3111 93.1431 49.8231C92.4638 49.3256 91.9184 48.7037 91.507 47.9574C91.1051 47.2015 90.9042 46.3069 90.9042 45.2736H95.0519C95.0519 45.8094 95.1859 46.2878 95.4538 46.7088C95.7217 47.1297 96.09 47.4598 96.5589 47.699C97.0373 47.9382 97.5683 48.0578 98.1519 48.0578C98.8121 48.0578 99.3766 47.9382 99.8455 47.699C100.324 47.4503 100.687 47.1058 100.936 46.6657C101.195 46.216 101.324 45.6945 101.324 45.1013C101.324 44.3359 101.185 43.7235 100.908 43.2643C100.63 42.7954 100.233 42.451 99.7163 42.2309C99.1996 42.0109 98.5873 41.9008 97.8792 41.9008H95.669ZM123.384 33.6771L117.7 51H113.122L120.887 30.1035H123.8L123.384 33.6771ZM128.106 51L122.408 33.6771L121.949 30.1035H124.891L132.698 51H128.106ZM127.847 43.2212V46.5939H116.811V43.2212H127.847ZM137.378 38.7865V51H133.244V35.4711H137.119L137.378 38.7865ZM136.775 42.6902H135.655C135.655 41.542 135.804 40.5087 136.1 39.5902C136.397 38.6621 136.813 37.8727 137.349 37.2221C137.885 36.5619 138.521 36.0596 139.258 35.7151C140.004 35.3611 140.836 35.1841 141.755 35.1841C142.482 35.1841 143.147 35.2894 143.75 35.4998C144.353 35.7103 144.869 36.0452 145.3 36.5045C145.74 36.9638 146.075 37.5713 146.305 38.3272C146.544 39.0831 146.663 40.0064 146.663 41.0971V51H142.501V41.0828C142.501 40.3939 142.406 39.8581 142.214 39.4754C142.023 39.0926 141.741 38.8247 141.367 38.6716C141.004 38.509 140.554 38.4277 140.018 38.4277C139.463 38.4277 138.98 38.5377 138.569 38.7578C138.167 38.9778 137.832 39.284 137.564 39.6763C137.306 40.059 137.11 40.5087 136.976 41.0254C136.842 41.542 136.775 42.097 136.775 42.6902ZM143.004 29.0271L145.386 29.185C145.386 29.8834 145.247 30.5197 144.97 31.0938C144.692 31.6583 144.31 32.1128 143.822 32.4572C143.334 32.7921 142.774 32.9595 142.143 32.9595C141.683 32.9595 141.286 32.8974 140.951 32.773C140.626 32.6486 140.325 32.5051 140.047 32.3424C139.77 32.1702 139.483 32.0219 139.186 31.8975C138.899 31.7731 138.569 31.7109 138.196 31.7109C137.861 31.7109 137.574 31.8305 137.335 32.0697C137.105 32.3089 136.99 32.6534 136.99 33.1031L134.593 32.9739C134.593 32.285 134.732 31.6535 135.01 31.0794C135.287 30.5054 135.67 30.0461 136.158 29.7016C136.646 29.3476 137.201 29.1706 137.823 29.1706C138.215 29.1706 138.574 29.2376 138.899 29.3715C139.224 29.4959 139.535 29.6395 139.832 29.8021C140.138 29.9648 140.449 30.1083 140.765 30.2327C141.08 30.3571 141.415 30.4192 141.769 30.4192C142.104 30.4192 142.391 30.2996 142.63 30.0604C142.879 29.8117 143.004 29.4672 143.004 29.0271ZM148.558 43.3934V43.0921C148.558 41.9535 148.721 40.9058 149.046 39.949C149.372 38.9826 149.845 38.1454 150.467 37.4374C151.089 36.7293 151.855 36.1792 152.764 35.7869C153.673 35.385 154.715 35.1841 155.892 35.1841C157.069 35.1841 158.117 35.385 159.035 35.7869C159.954 36.1792 160.724 36.7293 161.346 37.4374C161.978 38.1454 162.456 38.9826 162.781 39.949C163.107 40.9058 163.269 41.9535 163.269 43.0921V43.3934C163.269 44.5225 163.107 45.5702 162.781 46.5365C162.456 47.4933 161.978 48.3305 161.346 49.0481C160.724 49.7562 159.959 50.3063 159.05 50.6986C158.141 51.0909 157.098 51.287 155.921 51.287C154.744 51.287 153.696 51.0909 152.778 50.6986C151.869 50.3063 151.099 49.7562 150.467 49.0481C149.845 48.3305 149.372 47.4933 149.046 46.5365C148.721 45.5702 148.558 44.5225 148.558 43.3934ZM152.692 43.0921V43.3934C152.692 44.0441 152.749 44.6516 152.864 45.2161C152.979 45.7807 153.161 46.2782 153.409 46.7088C153.668 47.1297 154.003 47.4598 154.414 47.699C154.825 47.9382 155.328 48.0578 155.921 48.0578C156.495 48.0578 156.988 47.9382 157.399 47.699C157.811 47.4598 158.141 47.1297 158.39 46.7088C158.638 46.2782 158.82 45.7807 158.935 45.2161C159.059 44.6516 159.121 44.0441 159.121 43.3934V43.0921C159.121 42.4606 159.059 41.8673 158.935 41.3124C158.82 40.7479 158.634 40.2504 158.375 39.8198C158.126 39.3797 157.796 39.0352 157.385 38.7865C156.973 38.5377 156.476 38.4133 155.892 38.4133C155.309 38.4133 154.811 38.5377 154.4 38.7865C153.998 39.0352 153.668 39.3797 153.409 39.8198C153.161 40.2504 152.979 40.7479 152.864 41.3124C152.749 41.8673 152.692 42.4606 152.692 43.0921ZM173.618 46.7088C173.618 46.4121 173.531 46.1442 173.359 45.905C173.187 45.6658 172.866 45.4458 172.398 45.2449C171.938 45.0344 171.273 44.843 170.403 44.6708C169.618 44.4985 168.886 44.2833 168.207 44.0249C167.537 43.757 166.953 43.4365 166.456 43.0633C165.968 42.6902 165.585 42.2501 165.308 41.743C165.03 41.2263 164.892 40.6379 164.892 39.9777C164.892 39.327 165.03 38.7147 165.308 38.1406C165.595 37.5665 166.001 37.0594 166.528 36.6193C167.063 36.1696 167.714 35.8204 168.48 35.5716C169.255 35.3133 170.125 35.1841 171.092 35.1841C172.441 35.1841 173.598 35.3994 174.565 35.8299C175.541 36.2605 176.287 36.8537 176.804 37.6096C177.33 38.3559 177.593 39.2074 177.593 40.1642H173.46C173.46 39.7624 173.374 39.4036 173.201 39.0878C173.039 38.7625 172.78 38.509 172.426 38.3272C172.082 38.1358 171.632 38.0402 171.077 38.0402C170.618 38.0402 170.221 38.1215 169.886 38.2841C169.551 38.4372 169.293 38.6477 169.111 38.9156C168.939 39.174 168.853 39.461 168.853 39.7767C168.853 40.0159 168.901 40.2312 168.996 40.4226C169.101 40.6044 169.269 40.7718 169.499 40.9249C169.728 41.078 170.025 41.2215 170.388 41.3555C170.762 41.4798 171.221 41.5947 171.766 41.6999C172.886 41.9295 173.885 42.2309 174.766 42.6041C175.646 42.9677 176.344 43.4652 176.861 44.0967C177.378 44.7186 177.636 45.5367 177.636 46.5509C177.636 47.2398 177.483 47.8713 177.177 48.4453C176.871 49.0194 176.431 49.5217 175.856 49.9523C175.282 50.3733 174.594 50.7034 173.79 50.9426C172.996 51.1722 172.101 51.287 171.106 51.287C169.661 51.287 168.437 51.0287 167.432 50.512C166.437 49.9954 165.681 49.34 165.164 48.5458C164.657 47.7421 164.404 46.9193 164.404 46.0773H168.322C168.341 46.6418 168.484 47.0963 168.752 47.4407C169.03 47.7852 169.379 48.0339 169.8 48.187C170.231 48.3401 170.695 48.4166 171.192 48.4166C171.728 48.4166 172.173 48.3449 172.527 48.2014C172.881 48.0483 173.149 47.8473 173.331 47.5986C173.522 47.3402 173.618 47.0436 173.618 46.7088Z" fill="black"/>
<circle cx="42.5" cy="40.5" r="23.5" fill="white"/>
<path d="M61 41C61 45.7739 59.1036 50.3523 55.7279 53.7279C52.3523 57.1036 47.7739 59 43 59C38.2261 59 33.6477 57.1036 30.2721 53.7279C26.8964 50.3523 25 45.7739 25 41C25 40.6022 25.158 40.2206 25.4393 39.9393C25.7206 39.658 26.1022 39.5 26.5 39.5C26.8978 39.5 27.2794 39.658 27.5607 39.9393C27.842 40.2206 28 40.6022 28 41C28 43.9667 28.8797 46.8668 30.528 49.3336C32.1762 51.8003 34.5189 53.7229 37.2597 54.8582C40.0006 55.9935 43.0166 56.2906 45.9264 55.7118C48.8361 55.133 51.5088 53.7044 53.6066 51.6066C55.7044 49.5088 57.133 46.8361 57.7118 43.9264C58.2906 41.0166 57.9935 38.0006 56.8582 35.2597C55.7229 32.5189 53.8003 30.1762 51.3336 28.528C48.8668 26.8797 45.9667 26 43 26C42.6022 26 42.2206 25.842 41.9393 25.5607C41.658 25.2794 41.5 24.8978 41.5 24.5C41.5 24.1022 41.658 23.7206 41.9393 23.4393C42.2206 23.158 42.6022 23 43 23C47.7723 23.0052 52.3477 24.9032 55.7222 28.2778C59.0968 31.6523 60.9948 36.2277 61 41ZM40.4155 39.5H37C36.6022 39.5 36.2206 39.658 35.9393 39.9393C35.658 40.2206 35.5 40.6022 35.5 41C35.5 41.3978 35.658 41.7794 35.9393 42.0607C36.2206 42.342 36.6022 42.5 37 42.5H40.4155C40.6446 42.8978 40.9622 43.2376 41.3436 43.493C41.7251 43.7484 42.1603 43.9125 42.6154 43.9727C43.0705 44.0329 43.5334 43.9875 43.9681 43.8401C44.4029 43.6926 44.7979 43.4471 45.1225 43.1225C45.4471 42.7979 45.6926 42.4029 45.8401 41.9681C45.9875 41.5334 46.0329 41.0705 45.9727 40.6154C45.9125 40.1603 45.7484 39.7251 45.493 39.3436C45.2376 38.9622 44.8978 38.6446 44.5 38.4155V33.5C44.5 33.1022 44.342 32.7206 44.0607 32.4393C43.7794 32.158 43.3978 32 43 32C42.6022 32 42.2206 32.158 41.9393 32.4393C41.658 32.7206 41.5 33.1022 41.5 33.5V38.4155C41.0506 38.6769 40.6769 39.0506 40.4155 39.5ZM27.7405 36.176C28.0372 36.176 28.3272 36.088 28.5739 35.9232C28.8205 35.7584 29.0128 35.5241 29.1263 35.25C29.2399 34.9759 29.2696 34.6743 29.2117 34.3834C29.1538 34.0924 29.0109 33.8251 28.8012 33.6153C28.5914 33.4056 28.3241 33.2627 28.0331 33.2048C27.7422 33.1469 27.4406 33.1766 27.1665 33.2902C26.8924 33.4037 26.6581 33.596 26.4933 33.8426C26.3285 34.0893 26.2405 34.3793 26.2405 34.676C26.2405 35.0738 26.3985 35.4554 26.6798 35.7367C26.9611 36.018 27.3427 36.176 27.7405 36.176ZM31.3315 30.8105C31.6282 30.8105 31.9182 30.7225 32.1649 30.5577C32.4115 30.3929 32.6038 30.1586 32.7173 29.8845C32.8309 29.6104 32.8606 29.3088 32.8027 29.0179C32.7448 28.7269 32.6019 28.4596 32.3922 28.2498C32.1824 28.0401 31.9151 27.8972 31.6241 27.8393C31.3332 27.7814 31.0316 27.8111 30.7575 27.9247C30.4834 28.0382 30.2491 28.2305 30.0843 28.4771C29.9195 28.7238 29.8315 29.0138 29.8315 29.3105C29.8315 29.7083 29.9895 30.0899 30.2708 30.3712C30.5521 30.6525 30.9337 30.8105 31.3315 30.8105ZM36.6685 27.2615C36.9652 27.2615 37.2552 27.1735 37.5019 27.0087C37.7485 26.8439 37.9408 26.6096 38.0543 26.3355C38.1679 26.0614 38.1976 25.7598 38.1397 25.4689C38.0818 25.1779 37.9389 24.9106 37.7292 24.7008C37.5194 24.4911 37.2521 24.3482 36.9611 24.2903C36.6702 24.2324 36.3686 24.2621 36.0945 24.3757C35.8204 24.4892 35.5861 24.6815 35.4213 24.9281C35.2565 25.1748 35.1685 25.4648 35.1685 25.7615C35.1685 26.1593 35.3265 26.5409 35.6078 26.8222C35.8891 27.1035 36.2707 27.2615 36.6685 27.2615Z" fill="black"/>
<path d="M40.1367 39.291H36.6231C36.2138 39.291 35.8213 39.4522 35.532 39.7391C35.2426 40.0261 35.08 40.4153 35.08 40.8211C35.08 41.227 35.2426 41.6162 35.532 41.9031C35.8213 42.1901 36.2138 42.3513 36.6231 42.3513H40.1367C40.3723 42.7572 40.699 43.1038 41.0914 43.3643C41.4839 43.6248 41.9315 43.7923 42.3997 43.8537C42.8679 43.9151 43.3441 43.8688 43.7913 43.7184C44.2385 43.568 44.6449 43.3175 44.9788 42.9863C45.3127 42.6552 45.5653 42.2523 45.717 41.8088C45.8687 41.3652 45.9154 40.8931 45.8534 40.4288C45.7915 39.9645 45.6227 39.5206 45.36 39.1314C45.0972 38.7423 44.7477 38.4183 44.3384 38.1846V33.1702C44.3384 32.7644 44.1759 32.3752 43.8865 32.0882C43.5971 31.8012 43.2046 31.64 42.7954 31.64C42.3861 31.64 41.9936 31.8012 41.7043 32.0882C41.4149 32.3752 41.2523 32.7644 41.2523 33.1702V38.1846C40.79 38.4513 40.4056 38.8325 40.1367 39.291Z" fill="#FF2946"/>
<circle cx="27.52" cy="34.88" r="1.8" fill="#FF2946"/>
<circle cx="31.12" cy="29.1199" r="1.8" fill="#FF2946"/>
<circle cx="36.88" cy="25.52" r="1.8" fill="#FF2946"/>
<defs>
<filter id="filter0_d_11506_9499" x="248" y="0" width="246" height="81" filterUnits="userSpaceOnUse" color-interpolation-filters="sRGB">
<feFlood flood-opacity="0" result="BackgroundImageFix"/>
<feColorMatrix in="SourceAlpha" type="matrix" values="0 0 0 0 0 0 0 0 0 0 0 0 0 0 0 0 0 0 127 0" result="hardAlpha"/>
<feOffset/>
<feGaussianBlur stdDeviation="6"/>
<feComposite in2="hardAlpha" operator="out"/>
<feColorMatrix type="matrix" values="0 0 0 0 0 0 0 0 0 0 0 0 0 0 0 0 0 0 0.25 0"/>
<feBlend mode="normal" in2="BackgroundImageFix" result="effect1_dropShadow_11506_9499"/>
<feBlend mode="normal" in="SourceGraphic" in2="effect1_dropShadow_11506_9499" result="shape"/>
</filter>
<filter id="filter1_d_11506_9499" x="0" y="0" width="246" height="81" filterUnits="userSpaceOnUse" color-interpolation-filters="sRGB">
<feFlood flood-opacity="0" result="BackgroundImageFix"/>
<feColorMatrix in="SourceAlpha" type="matrix" values="0 0 0 0 0 0 0 0 0 0 0 0 0 0 0 0 0 0 127 0" result="hardAlpha"/>
<feOffset/>
<feGaussianBlur stdDeviation="6"/>
<feComposite in2="hardAlpha" operator="out"/>
<feColorMatrix type="matrix" values="0 0 0 0 0 0 0 0 0 0 0 0 0 0 0 0 0 0 0.25 0"/>
<feBlend mode="normal" in2="BackgroundImageFix" result="effect1_dropShadow_11506_9499"/>
<feBlend mode="normal" in="SourceGraphic" in2="effect1_dropShadow_11506_9499" result="shape"/>
</filter>
</defs>
</svg>
