<svg width="44" height="28" viewBox="0 0 44 28" fill="none" xmlns="http://www.w3.org/2000/svg">
<path fill-rule="evenodd" clip-rule="evenodd" d="M0.827148 7.78857V23.1381H2.34294V7.78857H0.827148Z" fill="#8D959C"/>
<path fill-rule="evenodd" clip-rule="evenodd" d="M1.21191 14.6877V16.239H6.14328V14.6877H1.21191Z" fill="#8D959C"/>
<path fill-rule="evenodd" clip-rule="evenodd" d="M14.9351 3.95108C14.4096 3.95108 13.9043 4.23684 13.6416 4.70631L11.8024 7.80887H6.91149C6.08286 7.80887 5.37549 8.50287 5.37549 9.33975V23.1584C5.37549 23.9953 6.06265 24.7097 6.91149 24.7097H11.1557C11.6812 24.7097 12.1662 24.873 12.5906 25.1996L14.733 26.9346C15.3999 27.4857 16.2487 27.7714 17.1178 27.7714H32.0129C32.8416 27.7714 33.5287 27.0774 33.5287 26.2202V21.6275H35.9944L36.6007 24.1178C36.6816 24.4648 36.9847 24.7097 37.3485 24.7097H41.1481C42.4012 24.7097 43.4319 23.6687 43.4319 22.4032V11.6463C43.4319 10.3807 42.4012 9.33975 41.1481 9.33975H37.3485C37.0049 9.33975 36.7018 9.58468 36.6007 9.91127L35.9944 12.4015H33.5287V9.33975C33.5287 8.50287 32.8416 7.80887 32.0129 7.80887H27.89L26.0508 4.70631C25.7679 4.23684 25.2828 3.95108 24.7574 3.95108H22.1502V5.48195H24.7574L26.8188 8.95192C26.9603 9.17645 27.2028 9.31933 27.4656 9.31933H32.0129V13.1567C32.0129 13.3608 32.0938 13.565 32.2353 13.7078C32.3767 13.8507 32.5788 13.9324 32.7809 13.9324H36.5805C36.9241 13.9324 37.2475 13.6874 37.3283 13.3404L37.9548 10.8502H41.1683C41.5927 10.8502 41.9363 11.1768 41.9363 11.6054V22.3624C41.9363 22.791 41.5927 23.1176 41.1683 23.1176H37.9548L37.3283 20.6274C37.2475 20.2804 36.9443 20.0354 36.5805 20.0354H32.7809C32.5788 20.0354 32.3767 20.1171 32.2353 20.26C32.0938 20.4028 32.0129 20.607 32.0129 20.8111V26.1793H17.1178C16.5923 26.1793 16.1073 26.016 15.6829 25.6895L13.5405 23.9749C12.8736 23.4238 12.045 23.1176 11.1759 23.1176H6.9317V9.29892H12.2471C12.5098 9.29892 12.7523 9.15604 12.8938 8.93151L14.9553 5.46154H17.5624V3.93066H14.9553L14.9351 3.95108Z" fill="#8D959C"/>
<path fill-rule="evenodd" clip-rule="evenodd" d="M17.542 6.2373V7.78859H22.0894V6.2373H17.542Z" fill="#8D959C"/>
<path fill-rule="evenodd" clip-rule="evenodd" d="M13.7422 0.869141V2.42042H25.9089V0.869141H13.7422Z" fill="#8D959C"/>
<path fill-rule="evenodd" clip-rule="evenodd" d="M19.0781 1.25684V7.40074H20.5939V1.25684H19.0781Z" fill="#8D959C"/>
</svg>
