<svg width="54" height="31" viewBox="0 0 54 31" fill="none" xmlns="http://www.w3.org/2000/svg">
<g clip-path="url(#clip0_11471_6192)">
<path d="M45.4542 15.6705C45.4542 14.6282 44.6024 13.7684 43.57 13.7684C42.5375 13.7684 41.6857 14.6282 41.6857 15.6705C41.6857 16.7127 42.5375 17.5725 43.57 17.5725C44.6024 17.5725 45.4542 16.7127 45.4542 15.6705ZM43.57 11.8402C45.6607 11.8402 47.3643 13.5599 47.3643 15.6705C47.3643 17.781 45.6607 19.5007 43.57 19.5007C41.4792 19.5007 39.7756 17.807 39.7756 15.6705C39.7756 13.5339 41.4792 11.8402 43.57 11.8402Z" fill="#8D959C"/>
<path d="M26.5086 6.10793C31.7484 6.10793 35.9815 10.3811 35.9815 15.6705C35.9815 20.9598 31.7484 25.233 26.5086 25.233C21.2688 25.233 17.0356 20.9598 17.0356 15.6705C17.0356 10.3811 21.2688 6.10793 26.5086 6.10793ZM34.0973 15.6705C34.0973 11.4494 30.7159 8.01001 26.5086 8.01001C22.3013 8.01001 18.9199 11.4233 18.9199 15.6705C18.9199 19.9176 22.3013 23.3309 26.5086 23.3309C30.7159 23.3309 34.0973 19.9176 34.0973 15.6705Z" fill="#8D959C"/>
<path d="M11.3571 15.6705C11.3571 14.6282 10.5053 13.7684 9.47281 13.7684C8.44033 13.7684 7.58854 14.6282 7.58854 15.6705C7.58854 16.7127 8.44033 17.5725 9.47281 17.5725C10.5053 17.5725 11.3571 16.7127 11.3571 15.6705ZM9.47281 11.8402C11.5636 11.8402 13.2671 13.5599 13.2671 15.6705C13.2671 17.781 11.5636 19.5007 9.47281 19.5007C7.38205 19.5007 5.67847 17.807 5.67847 15.6705C5.67847 13.5339 7.38205 11.8402 9.47281 11.8402Z" fill="#8D959C"/>
<path d="M3.27808 12.7259C1.65193 14.0548 1.39381 16.4519 2.73603 18.0935C2.8909 18.3019 3.07158 18.4843 3.27808 18.6667C9.16318 23.461 16.0291 26.9004 23.3855 28.6982C25.4246 29.2193 27.5928 29.2193 29.632 28.6982C36.9883 26.9004 43.8543 23.487 49.7394 18.6667C51.3655 17.3378 51.6236 14.9146 50.2814 13.2731C50.1266 13.0647 49.9459 12.8823 49.7394 12.7259C43.8801 7.90558 36.9883 4.49225 29.632 2.69439C27.5928 2.17327 25.4246 2.17327 23.3855 2.69439C16.0291 4.49225 9.16318 7.90558 3.27808 12.7259ZM22.1723 30.3658C14.8418 28.4637 7.97583 24.9722 2.09073 20.1519C1.78099 19.8913 1.49706 19.6047 1.26475 19.3181C-0.696946 16.8428 -0.335581 13.247 2.09073 11.2407C8.20814 6.238 15.3064 2.69439 22.9467 0.818362C25.2956 0.219075 27.7477 0.219075 30.0966 0.818362C37.7111 2.69439 44.8351 6.238 50.9267 11.2147C51.2365 11.4752 51.5204 11.7619 51.7527 12.0485C53.7144 14.5238 53.353 18.1195 50.9267 20.1258C45.0416 24.9462 38.1757 28.4377 30.8451 30.3398C30.587 30.4179 30.3547 30.47 30.0966 30.5221C29.7868 30.6264 29.4513 30.6785 29.1157 30.7306C28.8576 30.7827 28.5737 30.8088 28.3156 30.8348C28.0833 30.8609 27.8509 30.8869 27.5928 30.913C27.2315 30.913 26.8701 30.939 26.5087 30.939H26.4571C26.1216 30.939 25.786 30.939 25.4246 30.913C25.1665 30.913 24.9342 30.8609 24.7019 30.8348C24.4438 30.7827 24.1599 30.7566 23.9017 30.7306C23.5662 30.6785 23.2306 30.6264 22.9209 30.5221C22.6628 30.47 22.4046 30.4179 22.1723 30.3398V30.3658Z" fill="#8D959C"/>
</g>
<defs>
<clipPath id="clip0_11471_6192">
<rect width="53.0175" height="30.6157" fill="white" transform="translate(0 0.37561)"/>
</clipPath>
</defs>
</svg>
