<svg width="24" height="43" viewBox="0 0 24 43" fill="none" xmlns="http://www.w3.org/2000/svg">
<g clip-path="url(#clip0_12642_1570)">
<path d="M1.09213 25.5262C0.645404 25.5262 0.198674 25.2532 0.0497648 24.8065C-0.148781 24.2605 0.149038 23.64 0.719858 23.4415L22.0139 18.2545C22.5848 18.0559 23.23 18.3537 23.4286 18.8997C23.6271 19.4457 23.3293 20.0662 22.7585 20.2647L1.46441 25.4766C1.46441 25.4766 1.21622 25.5262 1.09213 25.5262Z" fill="#8D959C"/>
<path d="M1.09213 31.7557C0.645404 31.7557 0.198674 31.4827 0.0497648 31.0359C-0.148781 30.4899 0.149038 29.8695 0.719858 29.6709L22.0139 24.4839C22.5848 24.2853 23.23 24.5832 23.4286 25.1292C23.6271 25.6752 23.3293 26.2956 22.7585 26.4942L1.46441 31.706C1.46441 31.706 1.21622 31.7557 1.09213 31.7557Z" fill="#8D959C"/>
<path d="M1.09213 37.985C0.645404 37.985 0.198674 37.712 0.0497648 37.2653C-0.148781 36.7193 0.149038 36.0988 0.719858 35.9003L22.0139 30.7133C22.5848 30.5147 23.23 30.8125 23.4286 31.3585C23.6271 31.9045 23.3293 32.525 22.7585 32.7235L1.46441 37.9106C1.46441 37.9106 1.21622 37.9602 1.09213 37.9602V37.985Z" fill="#8D959C"/>
<path d="M13.4017 39.5982H10.0264V42.8494H13.4017V39.5982Z" fill="#8D959C"/>
<path d="M13.4017 0.286011H10.0264V3.53721H13.4017V0.286011Z" fill="#8D959C"/>
<path d="M1.09213 19.3217C0.645404 19.3217 0.198674 19.0487 0.0497648 18.602C-0.148781 18.056 0.149038 17.4355 0.719858 17.237L22.0139 12.0499C22.5848 11.8514 23.23 12.1492 23.4286 12.6952C23.6271 13.2412 23.3293 13.8617 22.7585 14.0602L1.46441 19.2472C1.46441 19.2472 1.21622 19.2969 1.09213 19.2969V19.3217Z" fill="#8D959C"/>
<path d="M1.09213 12.993C0.645404 12.993 0.198674 12.72 0.0497648 12.2732C-0.148781 11.7272 0.149038 11.1068 0.719858 10.9082L22.0139 5.7212C22.5848 5.52265 23.23 5.82047 23.4286 6.36648C23.6271 6.91248 23.3293 7.53293 22.7585 7.73148L1.46441 12.9185C1.46441 12.9185 1.21622 12.9681 1.09213 12.9681V12.993Z" fill="#8D959C"/>
<path d="M22.4111 35.8506H18.2664L6.25439 37.985H22.4111C23.0067 37.985 23.5031 37.5134 23.5031 36.9178C23.5031 36.3221 23.0067 35.8506 22.4111 35.8506Z" fill="#8D959C"/>
<path d="M1.092 7.58268H5.01329L17.0253 5.4483H1.092C0.496366 5.4483 0 5.91985 0 6.51549C0 7.11113 0.496366 7.58268 1.092 7.58268Z" fill="#8D959C"/>
</g>
<defs>
<clipPath id="clip0_12642_1570">
<rect width="23.5029" height="42.5634" fill="white" transform="translate(0 0.286133)"/>
</clipPath>
</defs>
</svg>
