<svg width="43" height="40" viewBox="0 0 43 40" fill="none" xmlns="http://www.w3.org/2000/svg">
<path d="M37.537 0.148149C34.7638 0.148149 32.5106 2.38799 32.5106 5.14472C32.5106 7.55685 34.2438 9.6244 36.5713 10.0674V15.2363C36.5713 17.3039 34.8876 18.9776 32.8077 18.9776H22.2597V10.0428C24.5872 9.59978 26.3204 7.53224 26.3204 5.1201C26.3204 2.36338 24.0672 0.123535 21.2941 0.123535C18.5209 0.123535 16.2677 2.36338 16.2677 5.1201C16.2677 7.53224 18.0009 9.59978 20.3284 10.0428V18.9776H6.01681V10.0428C8.3443 9.59978 10.0775 7.53224 10.0775 5.1201C10.0775 2.36338 7.82433 0.123535 5.05115 0.123535C2.27797 0.123535 0 2.38799 0 5.14472C0 7.55685 1.73324 9.6244 4.06073 10.0674V29.8568C1.73324 30.2998 0 32.3674 0 34.7795C0 37.5363 2.25321 39.7761 5.02639 39.7761C7.79957 39.7761 10.0528 37.5363 10.0528 34.7795C10.0528 32.3674 8.31954 30.2998 5.99205 29.8568V20.9221H20.3036V29.8568C17.9761 30.2998 16.2429 32.3674 16.2429 34.7795C16.2429 37.5363 18.4961 39.7761 21.2693 39.7761C24.0425 39.7761 26.2957 37.5363 26.2957 34.7795C26.2957 32.3674 24.5624 30.2998 22.235 29.8568V20.9221H32.7829C35.9275 20.9221 38.5026 18.3869 38.5026 15.2363V10.0674C40.8301 9.6244 42.5634 7.55685 42.5634 5.14472C42.5634 2.38799 40.3101 0.148149 37.537 0.148149ZM40.632 5.14472C40.632 6.81844 39.2207 8.22142 37.537 8.22142C35.8532 8.22142 34.4419 6.81844 34.4419 5.14472C34.4419 3.47099 35.8532 2.06801 37.537 2.06801C39.2207 2.06801 40.632 3.47099 40.632 5.14472ZM18.199 5.14472C18.199 3.47099 19.6103 2.06801 21.2941 2.06801C22.9778 2.06801 24.3891 3.47099 24.3891 5.14472C24.3891 6.81844 22.9778 8.22142 21.2941 8.22142C19.6103 8.22142 18.199 6.81844 18.199 5.14472ZM24.3891 34.7549C24.3891 36.4286 22.9778 37.8316 21.2941 37.8316C19.6103 37.8316 18.199 36.4286 18.199 34.7549C18.199 33.0812 19.6103 31.6782 21.2941 31.6782C22.9778 31.6782 24.3891 33.0812 24.3891 34.7549ZM5.02639 2.06801C6.7101 2.06801 8.12145 3.47099 8.12145 5.14472C8.12145 6.81844 6.7101 8.22142 5.02639 8.22142C3.34267 8.22142 1.93132 6.81844 1.93132 5.14472C1.93132 3.47099 3.34267 2.06801 5.02639 2.06801ZM5.02639 31.6782C6.7101 31.6782 8.12145 33.0812 8.12145 34.7549C8.12145 36.4286 6.7101 37.8316 5.02639 37.8316C3.34267 37.8316 1.93132 36.4286 1.93132 34.7549C1.93132 33.0812 3.34267 31.6782 5.02639 31.6782Z" fill="#8D959C"/>
</svg>
