<svg width="242" height="37" viewBox="0 0 242 37" fill="none" xmlns="http://www.w3.org/2000/svg">
<path fill-rule="evenodd" clip-rule="evenodd" d="M11.5792 0.0467106C10.6669 0.102 9.22284 0.292379 8.35472 0.471824C7.68669 0.609863 6.78279 0.837348 6.7428 0.877463C6.72751 0.89276 7.4751 1.67142 8.40419 2.60771L10.0934 4.31013L5.08165 18.9925C2.32514 27.0678 0.05412 33.7371 0.0349181 33.8131L0 33.9513H5.55968H11.1193L15.5174 27.2091C17.9363 23.5009 20.0443 20.2525 20.2018 19.9904C20.5408 19.4262 20.8408 18.6295 20.9707 17.9482C21.1654 16.9278 20.9653 15.6322 20.4966 14.8765C20.3842 14.6955 18.2203 12.472 15.2265 9.4615L10.147 4.35363L10.7214 4.31234C11.3722 4.26553 12.8332 4.35289 13.7793 4.4951C16.795 4.94848 19.7014 6.2181 22.0893 8.12522C22.8095 8.70035 24.2963 10.2046 24.8889 10.9576C26.781 13.3617 27.9891 16.1765 28.4823 19.3304C28.6361 20.3137 28.6711 22.6478 28.548 23.7139C28.2958 25.8978 27.7197 27.8257 26.7416 29.7591C26.0739 31.0789 25.3694 32.1237 24.3393 33.3217L23.7979 33.9513H29.056H34.3141L34.4461 33.6595C35.5445 31.2304 36.1905 28.8954 36.4984 26.2416C36.6459 24.9705 36.6472 22.3453 36.501 21.1119C36.2868 19.306 35.9889 17.9213 35.4726 16.333C32.6517 7.65385 25.1163 1.36917 16.127 0.198326C14.611 0.00088189 13.1429 -0.0480799 11.5792 0.0467106ZM37.2935 30.6627C36.9333 30.7917 36.6321 31.0696 36.4347 31.455C36.2854 31.7465 36.2565 31.8755 36.2577 32.2476C36.2599 32.9536 36.5232 33.4281 37.0867 33.7418C37.3713 33.9002 37.4674 33.9206 37.9278 33.9199C38.511 33.9191 38.7923 33.8107 39.1537 33.4476C39.6383 32.9608 39.7527 32.1044 39.4203 31.4516C39.2211 31.0603 38.8535 30.7377 38.492 30.6368C38.1754 30.5485 37.5764 30.5614 37.2935 30.6627ZM38.4037 31.0366C38.8942 31.2424 39.2093 31.7218 39.2093 32.262C39.2093 32.9875 38.6318 33.5828 37.9278 33.5828C36.7844 33.5828 36.21 32.1284 37.0286 31.306C37.3863 30.9468 37.934 30.8394 38.4037 31.0366ZM37.2688 32.2466L37.2857 33.122L37.4845 33.1412L37.6832 33.1605V32.8494C37.6832 32.5827 37.7001 32.5384 37.8017 32.5384C37.8809 32.5384 37.9753 32.6402 38.0866 32.8456C38.2425 33.1334 38.2681 33.1527 38.4924 33.1527H38.7318L38.5342 32.8058C38.3638 32.5067 38.3492 32.4494 38.428 32.3911C38.7071 32.1843 38.7322 31.8011 38.4829 31.5507C38.313 31.3801 38.278 31.3712 37.7779 31.3712H37.2518L37.2688 32.2466ZM38.1767 31.8371C38.2982 31.9842 38.1708 32.1356 37.9064 32.1581C37.6879 32.1768 37.6832 32.1727 37.6832 31.9585C37.6832 31.751 37.6938 31.7398 37.8898 31.7398C38.0036 31.7398 38.1324 31.7835 38.1767 31.8371Z" fill="#EA0A2A"/>
<path fill-rule="evenodd" clip-rule="evenodd" d="M49.6699 20.3334V33.7503L55.7781 33.7161C61.6569 33.6831 61.9281 33.6731 62.9996 33.4483C67.8112 32.4395 71.2808 29.9463 73.1315 26.1679C74.1225 24.1446 74.5182 21.7974 74.3157 19.1424C74.0415 15.547 72.9293 13.0389 70.6514 10.8788C69.0173 9.32915 67.1594 8.3441 64.6744 7.70978C62.1964 7.07721 61.3669 7.01164 55.2111 6.96154L49.6699 6.91638V20.3334ZM94.5149 20.3378V33.7398H97.35H100.185V20.3378V6.93587H97.35H94.5149V20.3378ZM105.285 9.64203C105.258 9.71296 104.525 11.8469 103.655 14.3843L102.074 18.9976H103.037H103.999L104 23.8687C104.001 26.7032 104.045 29.02 104.107 29.4099C104.351 30.9465 105.261 32.2148 106.641 32.9379C107.911 33.6039 108.399 33.6878 110.958 33.6803C112.89 33.6746 113.333 33.6435 113.948 33.4702L114.669 33.2668L114.697 30.8794L114.725 28.492L114.233 28.7147C113.823 28.9003 113.544 28.9381 112.556 28.9417C111.515 28.9455 111.31 28.9164 110.879 28.7041C109.79 28.1675 109.649 27.4324 109.691 22.5028L109.721 19.0492L112.221 19.0215L114.721 18.9939V16.7277V14.4616H112.195H109.669V11.9874V9.51317H107.501C105.861 9.51317 105.321 9.54451 105.285 9.64203ZM60.443 12.5064C65.5806 13.0881 68.4249 16.0945 68.1931 20.6982C68.118 22.1905 67.9285 22.9924 67.3773 24.1522C67.0414 24.8588 66.7988 25.1896 66.1245 25.8606C65.1623 26.8182 64.5244 27.2108 63.2216 27.6473C61.8386 28.1105 60.6159 28.2724 57.9431 28.3458L55.5462 28.4117V20.4058V12.3997L57.5307 12.4006C58.6221 12.4011 59.9327 12.4487 60.443 12.5064ZM82.4016 14.5796C80.4839 14.8241 78.3265 15.681 76.8647 16.7788L76.07 17.3756L77.574 18.9561L79.078 20.5365L79.709 19.9733C80.4275 19.3319 81.4009 18.7874 82.2869 18.5315C83.1972 18.2686 84.6852 18.3513 85.4581 18.7079C86.5235 19.1995 87.2547 20.1655 87.3201 21.168L87.35 21.6265L85.0305 21.6947C79.2448 21.8649 76.2316 23.214 75.2236 26.0853C74.9654 26.8211 74.8623 28.4116 75.0181 29.2553C75.3681 31.1502 76.8403 32.7254 78.8885 33.3963C80.0905 33.79 82.2037 33.8568 83.5238 33.5427C84.9451 33.2044 85.6758 32.808 86.6026 31.8725L87.4016 31.066V32.4029V33.7398H90.0407H92.6799L92.6319 27.7862C92.5927 22.9318 92.5526 21.6423 92.4149 20.8017C92.0776 18.7424 91.5464 17.5752 90.4433 16.4699C89.3422 15.3666 88.0825 14.82 86.0641 14.5698C85.048 14.444 83.4325 14.4483 82.4016 14.5796ZM124.143 14.6117C119.916 15.2685 116.75 18.1693 116 22.0737C115.805 23.093 115.813 25.2949 116.017 26.2957C116.333 27.8537 117.14 29.4009 118.268 30.615C119.149 31.5632 119.981 32.1641 121.236 32.7584C122.644 33.4259 123.639 33.6471 125.516 33.7111C127.355 33.7739 128.4 33.6498 129.714 33.2125C132.253 32.368 134.101 30.8033 135.239 28.5336C135.868 27.2801 136.15 26.2083 136.234 24.7508C136.351 22.7363 135.94 20.8706 135.02 19.236C134.427 18.1834 132.896 16.6199 131.863 16.0129C129.605 14.686 126.866 14.1888 124.143 14.6117ZM148.151 14.9883C146.573 15.17 144.885 16.1105 144.076 17.2587L143.638 17.8801L143.609 16.6348L143.58 15.3894H140.852H138.123V24.5646V33.7398H140.948H143.773L143.819 28.4048C143.858 23.8571 143.89 22.9818 144.035 22.4739C144.502 20.833 145.346 20.0851 146.874 19.957C147.946 19.8671 148.573 20.0564 149.165 20.6491C149.535 21.0183 149.71 21.3081 149.891 21.8453C150.126 22.5458 150.129 22.6207 150.162 28.147L150.194 33.7398H153.031H155.868L155.827 27.2708C155.788 21.121 155.776 20.7534 155.566 19.8224C155.102 17.7577 154.135 16.3982 152.574 15.6171C151.437 15.0481 149.734 14.8059 148.151 14.9883ZM127.99 19.8393C129.492 20.4611 130.403 21.8385 130.553 23.7115C130.667 25.1408 130.218 26.5596 129.358 27.4934C128.536 28.3845 127.163 28.8581 125.7 28.7553C124.47 28.6688 123.695 28.3651 122.954 27.6792C121.879 26.6842 121.471 25.5711 121.55 23.8509C121.648 21.7247 122.548 20.3972 124.338 19.7425C124.894 19.539 125.136 19.5123 126.164 19.541C127.155 19.5687 127.455 19.6177 127.99 19.8393ZM87.4016 26.0028C87.4016 27.0133 87.236 27.6669 86.8385 28.2261C86.1702 29.166 84.9596 29.7657 83.471 29.8941C82.2113 30.0029 80.8664 29.4194 80.5319 28.6191C80.1376 27.6753 80.5541 26.6547 81.5769 26.0583C82.4981 25.5213 83.6421 25.317 85.8294 25.2991L87.4016 25.2862V26.0028Z" fill="black"/>
<path fill-rule="evenodd" clip-rule="evenodd" d="M220.158 17.6214V21.0964L219.72 20.6689C219.117 20.08 218.2 19.5511 217.22 19.2268C216.509 18.9916 216.218 18.9533 215.107 18.9499C213.64 18.9455 213.033 19.0846 211.859 19.6943C210.789 20.2501 209.61 21.4688 209.047 22.5999C208.379 23.9434 208.253 24.5508 208.253 26.4143C208.253 28.3071 208.377 28.8836 209.098 30.3318C209.91 31.963 211.23 33.114 213.017 33.7484C213.859 34.0476 215.732 34.1237 216.692 33.8976C217.691 33.6625 218.885 33.0113 219.578 32.3243L220.158 31.7484V32.7926V33.8369H221.705H223.251V23.9916V14.1464H221.705H220.158V17.6214ZM168.68 15.1755C165.756 15.7053 163.267 17.5022 161.974 20.0166C161.08 21.7547 160.744 23.6213 160.963 25.6317C161.213 27.9125 162.039 29.6345 163.664 31.2596C165.097 32.6928 166.706 33.5276 168.633 33.8386C169.91 34.0447 172.167 33.9244 173.282 33.5908C174.936 33.0963 176.275 32.2804 177.337 31.1219C177.906 30.5001 178.716 29.2238 178.867 28.7081L178.936 28.4761H177.13H175.324L174.955 29.0332C173.935 30.569 172.446 31.3042 170.365 31.2991C168.443 31.2945 167.212 30.798 165.931 29.5115C164.615 28.1892 164.063 26.708 164.065 24.5071C164.066 23.0322 164.289 22.034 164.869 20.9195C165.348 19.9961 166.368 18.9546 167.24 18.4967C168.501 17.8347 170.328 17.5784 171.726 17.8677C173.051 18.1419 174.428 19.0961 175.063 20.1806L175.333 20.6412H177.127C178.284 20.6412 178.922 20.6036 178.922 20.5355C178.922 20.2865 178.178 18.9844 177.651 18.311C176.615 16.9875 174.819 15.855 172.994 15.3747C172.069 15.1315 169.562 15.0157 168.68 15.1755ZM234.797 17.2907V19.0948H233.921H233.045V20.3278V21.5606L233.895 21.5906L234.746 21.6205L234.797 26.4143L234.849 31.2081L235.148 31.8552C235.827 33.3261 237.034 33.8318 239.875 33.8352L241.395 33.8369V32.5483V31.2596H240.155C238.714 31.2596 238.307 31.1379 238.026 30.6234C237.853 30.3073 237.839 29.9397 237.839 25.9504V21.6205L239.617 21.5923L241.395 21.5641V20.3294V19.0948H239.591H237.787V17.2907V15.4866H236.292H234.797V17.2907ZM188.922 18.9598C187.857 19.1381 186.908 19.6633 186.147 20.4964C185.867 20.8028 185.611 21.0535 185.579 21.0535C185.546 21.0535 185.519 20.6128 185.519 20.0742V19.0948H184.025H182.53V26.4659V33.8369H184.025H185.519L185.523 29.8421C185.524 27.645 185.571 25.4994 185.625 25.0741C185.886 23.0462 187.019 22.0844 189.146 22.0844H189.952V20.4865V18.8886L189.566 18.9026C189.353 18.9103 189.063 18.9361 188.922 18.9598ZM197.667 18.9941C194.925 19.4567 192.987 21.11 192.132 23.715C192.015 24.0708 191.865 24.8416 191.799 25.4279C191.499 28.0929 192.315 30.5727 194.013 32.1616C195.323 33.3864 196.709 33.9391 198.671 34.0189C201.869 34.149 204.216 32.8554 205.473 30.2694C205.668 29.8665 205.829 29.5071 205.829 29.4705C205.829 29.4339 205.096 29.404 204.201 29.404H202.573L202.211 29.9452C201.549 30.9357 200.453 31.4658 199.068 31.4658C197.174 31.4658 195.677 30.4208 195.113 28.7059C194.725 27.5258 194.083 27.6514 200.51 27.6514H206.119L206.188 26.8009C206.369 24.5649 205.61 22.2725 204.231 20.8935C203.649 20.3114 202.679 19.6818 201.926 19.3967C200.751 18.9517 198.935 18.78 197.667 18.9941ZM227.272 26.4659V33.8369H228.767H230.261V26.4659V19.0948H228.767H227.272V26.4659ZM200.249 21.6601C201.82 22.1492 202.785 23.2113 202.998 24.6875L203.069 25.1772H198.985C196.651 25.1772 194.901 25.1376 194.901 25.0849C194.901 24.784 195.358 23.5993 195.635 23.1803C196.57 21.7691 198.527 21.1242 200.249 21.6601ZM217.086 21.7821C219.018 22.4329 220.158 24.1742 220.158 26.4737C220.158 28.0849 219.67 29.2808 218.604 30.2774C216.504 32.2424 213.123 31.5324 211.854 28.8596C210.927 26.9092 211.207 24.4677 212.525 22.9849C213.638 21.7338 215.492 21.245 217.086 21.7821Z" fill="black"/>
<circle cx="228.79" cy="16.6537" r="1.58606" fill="black"/>
</svg>
