<svg width="401" height="50" viewBox="0 0 401 50" fill="none" xmlns="http://www.w3.org/2000/svg">
<path d="M10.4062 13.5352C10.4062 13.2305 10.3594 12.957 10.2656 12.7148C10.1797 12.4648 10.0156 12.2383 9.77344 12.0352C9.53125 11.8242 9.19141 11.6172 8.75391 11.4141C8.31641 11.2109 7.75 11 7.05469 10.7812C6.28125 10.5312 5.54688 10.25 4.85156 9.9375C4.16406 9.625 3.55469 9.26172 3.02344 8.84766C2.5 8.42578 2.08594 7.9375 1.78125 7.38281C1.48438 6.82812 1.33594 6.18359 1.33594 5.44922C1.33594 4.73828 1.49219 4.09375 1.80469 3.51562C2.11719 2.92969 2.55469 2.42969 3.11719 2.01562C3.67969 1.59375 4.34375 1.26953 5.10938 1.04297C5.88281 0.816406 6.73047 0.703125 7.65234 0.703125C8.91016 0.703125 10.0078 0.929687 10.9453 1.38281C11.8828 1.83594 12.6094 2.45703 13.125 3.24609C13.6484 4.03516 13.9102 4.9375 13.9102 5.95312H10.418C10.418 5.45312 10.3125 5.01562 10.1016 4.64062C9.89844 4.25781 9.58594 3.95703 9.16406 3.73828C8.75 3.51953 8.22656 3.41016 7.59375 3.41016C6.98438 3.41016 6.47656 3.50391 6.07031 3.69141C5.66406 3.87109 5.35938 4.11719 5.15625 4.42969C4.95312 4.73438 4.85156 5.07812 4.85156 5.46094C4.85156 5.75 4.92188 6.01172 5.0625 6.24609C5.21094 6.48047 5.42969 6.69922 5.71875 6.90234C6.00781 7.10547 6.36328 7.29688 6.78516 7.47656C7.20703 7.65625 7.69531 7.83203 8.25 8.00391C9.17969 8.28516 9.99609 8.60156 10.6992 8.95312C11.4102 9.30469 12.0039 9.69922 12.4805 10.1367C12.957 10.5742 13.3164 11.0703 13.5586 11.625C13.8008 12.1797 13.9219 12.8086 13.9219 13.5117C13.9219 14.2539 13.7773 14.918 13.4883 15.5039C13.1992 16.0898 12.7812 16.5859 12.2344 16.9922C11.6875 17.3984 11.0352 17.707 10.2773 17.918C9.51953 18.1289 8.67188 18.2344 7.73438 18.2344C6.89062 18.2344 6.05859 18.125 5.23828 17.9062C4.41797 17.6797 3.67188 17.3398 3 16.8867C2.33594 16.4336 1.80469 15.8555 1.40625 15.1523C1.00781 14.4492 0.808594 13.6172 0.808594 12.6562H4.33594C4.33594 13.1875 4.41797 13.6367 4.58203 14.0039C4.74609 14.3711 4.97656 14.668 5.27344 14.8945C5.57812 15.1211 5.9375 15.2852 6.35156 15.3867C6.77344 15.4883 7.23438 15.5391 7.73438 15.5391C8.34375 15.5391 8.84375 15.4531 9.23438 15.2812C9.63281 15.1094 9.92578 14.8711 10.1133 14.5664C10.3086 14.2617 10.4062 13.918 10.4062 13.5352ZM15.5625 11.7891V11.543C15.5625 10.6133 15.6953 9.75781 15.9609 8.97656C16.2266 8.1875 16.6133 7.50391 17.1211 6.92578C17.6289 6.34766 18.2539 5.89844 18.9961 5.57812C19.7383 5.25 20.5898 5.08594 21.5508 5.08594C22.5117 5.08594 23.3672 5.25 24.1172 5.57812C24.8672 5.89844 25.4961 6.34766 26.0039 6.92578C26.5195 7.50391 26.9102 8.1875 27.1758 8.97656C27.4414 9.75781 27.5742 10.6133 27.5742 11.543V11.7891C27.5742 12.7109 27.4414 13.5664 27.1758 14.3555C26.9102 15.1367 26.5195 15.8203 26.0039 16.4062C25.4961 16.9844 24.8711 17.4336 24.1289 17.7539C23.3867 18.0742 22.5352 18.2344 21.5742 18.2344C20.6133 18.2344 19.7578 18.0742 19.0078 17.7539C18.2656 17.4336 17.6367 16.9844 17.1211 16.4062C16.6133 15.8203 16.2266 15.1367 15.9609 14.3555C15.6953 13.5664 15.5625 12.7109 15.5625 11.7891ZM18.9375 11.543V11.7891C18.9375 12.3203 18.9844 12.8164 19.0781 13.2773C19.1719 13.7383 19.3203 14.1445 19.5234 14.4961C19.7344 14.8398 20.0078 15.1094 20.3438 15.3047C20.6797 15.5 21.0898 15.5977 21.5742 15.5977C22.043 15.5977 22.4453 15.5 22.7812 15.3047C23.1172 15.1094 23.3867 14.8398 23.5898 14.4961C23.793 14.1445 23.9414 13.7383 24.0352 13.2773C24.1367 12.8164 24.1875 12.3203 24.1875 11.7891V11.543C24.1875 11.0273 24.1367 10.543 24.0352 10.0898C23.9414 9.62891 23.7891 9.22266 23.5781 8.87109C23.375 8.51172 23.1055 8.23047 22.7695 8.02734C22.4336 7.82422 22.0273 7.72266 21.5508 7.72266C21.0742 7.72266 20.668 7.82422 20.332 8.02734C20.0039 8.23047 19.7344 8.51172 19.5234 8.87109C19.3203 9.22266 19.1719 9.62891 19.0781 10.0898C18.9844 10.543 18.9375 11.0273 18.9375 11.543ZM33.2109 0V18H29.8242V0H33.2109ZM39.5625 5.32031V18H36.1758V5.32031H39.5625ZM35.9648 2.01562C35.9648 1.52344 36.1367 1.11719 36.4805 0.796875C36.8242 0.476563 37.2852 0.316406 37.8633 0.316406C38.4336 0.316406 38.8906 0.476563 39.2344 0.796875C39.5859 1.11719 39.7617 1.52344 39.7617 2.01562C39.7617 2.50781 39.5859 2.91406 39.2344 3.23438C38.8906 3.55469 38.4336 3.71484 37.8633 3.71484C37.2852 3.71484 36.8242 3.55469 36.4805 3.23438C36.1367 2.91406 35.9648 2.50781 35.9648 2.01562ZM47.5898 15.5977C48.0039 15.5977 48.3711 15.5195 48.6914 15.3633C49.0117 15.1992 49.2617 14.9727 49.4414 14.6836C49.6289 14.3867 49.7266 14.0391 49.7344 13.6406H52.9102C52.9023 14.5312 52.6641 15.3242 52.1953 16.0195C51.7266 16.707 51.0977 17.25 50.3086 17.6484C49.5195 18.0391 48.6367 18.2344 47.6602 18.2344C46.6758 18.2344 45.8164 18.0703 45.082 17.7422C44.3555 17.4141 43.75 16.9609 43.2656 16.3828C42.7812 15.7969 42.418 15.1172 42.1758 14.3438C41.9336 13.5625 41.8125 12.7266 41.8125 11.8359V11.4961C41.8125 10.5977 41.9336 9.76172 42.1758 8.98828C42.418 8.20703 42.7812 7.52734 43.2656 6.94922C43.75 6.36328 44.3555 5.90625 45.082 5.57812C45.8086 5.25 46.6602 5.08594 47.6367 5.08594C48.6758 5.08594 49.5859 5.28516 50.3672 5.68359C51.1562 6.08203 51.7734 6.65234 52.2188 7.39453C52.6719 8.12891 52.9023 9 52.9102 10.0078H49.7344C49.7266 9.58594 49.6367 9.20312 49.4648 8.85938C49.3008 8.51562 49.0586 8.24219 48.7383 8.03906C48.4258 7.82812 48.0391 7.72266 47.5781 7.72266C47.0859 7.72266 46.6836 7.82812 46.3711 8.03906C46.0586 8.24219 45.8164 8.52344 45.6445 8.88281C45.4727 9.23438 45.3516 9.63672 45.2812 10.0898C45.2188 10.5352 45.1875 11.0039 45.1875 11.4961V11.8359C45.1875 12.3281 45.2188 12.8008 45.2812 13.2539C45.3438 13.707 45.4609 14.1094 45.6328 14.4609C45.8125 14.8125 46.0586 15.0898 46.3711 15.293C46.6836 15.4961 47.0898 15.5977 47.5898 15.5977ZM58.4297 5.32031V18H55.043V5.32031H58.4297ZM54.832 2.01562C54.832 1.52344 55.0039 1.11719 55.3477 0.796875C55.6914 0.476563 56.1523 0.316406 56.7305 0.316406C57.3008 0.316406 57.7578 0.476563 58.1016 0.796875C58.4531 1.11719 58.6289 1.52344 58.6289 2.01562C58.6289 2.50781 58.4531 2.91406 58.1016 3.23438C57.7578 3.55469 57.3008 3.71484 56.7305 3.71484C56.1523 3.71484 55.6914 3.55469 55.3477 3.23438C55.0039 2.91406 54.832 2.50781 54.832 2.01562ZM67.4297 5.32031V7.71094H60.0469V5.32031H67.4297ZM61.875 2.19141H65.25V14.1797C65.25 14.5469 65.2969 14.8281 65.3906 15.0234C65.4922 15.2188 65.6406 15.3555 65.8359 15.4336C66.0312 15.5039 66.2773 15.5391 66.5742 15.5391C66.7852 15.5391 66.9727 15.5312 67.1367 15.5156C67.3086 15.4922 67.4531 15.4688 67.5703 15.4453L67.582 17.9297C67.293 18.0234 66.9805 18.0977 66.6445 18.1523C66.3086 18.207 65.9375 18.2344 65.5312 18.2344C64.7891 18.2344 64.1406 18.1133 63.5859 17.8711C63.0391 17.6211 62.6172 17.2227 62.3203 16.6758C62.0234 16.1289 61.875 15.4102 61.875 14.5195V2.19141ZM76.1953 15.1406V9.49219C76.1953 9.08594 76.1289 8.73828 75.9961 8.44922C75.8633 8.15234 75.6562 7.92188 75.375 7.75781C75.1016 7.59375 74.7461 7.51172 74.3086 7.51172C73.9336 7.51172 73.6094 7.57812 73.3359 7.71094C73.0625 7.83594 72.8516 8.01953 72.7031 8.26172C72.5547 8.49609 72.4805 8.77344 72.4805 9.09375H69.1055C69.1055 8.55469 69.2305 8.04297 69.4805 7.55859C69.7305 7.07422 70.0938 6.64844 70.5703 6.28125C71.0469 5.90625 71.6133 5.61328 72.2695 5.40234C72.9336 5.19141 73.6758 5.08594 74.4961 5.08594C75.4805 5.08594 76.3555 5.25 77.1211 5.57812C77.8867 5.90625 78.4883 6.39844 78.9258 7.05469C79.3711 7.71094 79.5938 8.53125 79.5938 9.51562V14.9414C79.5938 15.6367 79.6367 16.207 79.7227 16.6523C79.8086 17.0898 79.9336 17.4727 80.0977 17.8008V18H76.6875C76.5234 17.6562 76.3984 17.2266 76.3125 16.7109C76.2344 16.1875 76.1953 15.6641 76.1953 15.1406ZM76.6406 10.2773L76.6641 12.1875H74.7773C74.332 12.1875 73.9453 12.2383 73.6172 12.3398C73.2891 12.4414 73.0195 12.5859 72.8086 12.7734C72.5977 12.9531 72.4414 13.1641 72.3398 13.4062C72.2461 13.6484 72.1992 13.9141 72.1992 14.2031C72.1992 14.4922 72.2656 14.7539 72.3984 14.9883C72.5312 15.2148 72.7227 15.3945 72.9727 15.5273C73.2227 15.6523 73.5156 15.7148 73.8516 15.7148C74.3594 15.7148 74.8008 15.6133 75.1758 15.4102C75.5508 15.207 75.8398 14.957 76.043 14.6602C76.2539 14.3633 76.3633 14.082 76.3711 13.8164L77.2617 15.2461C77.1367 15.5664 76.9648 15.8984 76.7461 16.2422C76.5352 16.5859 76.2656 16.9102 75.9375 17.2148C75.6094 17.5117 75.2148 17.7578 74.7539 17.9531C74.293 18.1406 73.7461 18.2344 73.1133 18.2344C72.3086 18.2344 71.5781 18.0742 70.9219 17.7539C70.2734 17.4258 69.7578 16.9766 69.375 16.4062C69 15.8281 68.8125 15.1719 68.8125 14.4375C68.8125 13.7734 68.9375 13.1836 69.1875 12.668C69.4375 12.1523 69.8047 11.7188 70.2891 11.3672C70.7812 11.0078 71.3945 10.7383 72.1289 10.5586C72.8633 10.3711 73.7148 10.2773 74.6836 10.2773H76.6406ZM94.3828 5.32031V7.71094H87V5.32031H94.3828ZM88.8281 2.19141H92.2031V14.1797C92.2031 14.5469 92.25 14.8281 92.3438 15.0234C92.4453 15.2188 92.5938 15.3555 92.7891 15.4336C92.9844 15.5039 93.2305 15.5391 93.5273 15.5391C93.7383 15.5391 93.9258 15.5312 94.0898 15.5156C94.2617 15.4922 94.4062 15.4688 94.5234 15.4453L94.5352 17.9297C94.2461 18.0234 93.9336 18.0977 93.5977 18.1523C93.2617 18.207 92.8906 18.2344 92.4844 18.2344C91.7422 18.2344 91.0938 18.1133 90.5391 17.8711C89.9922 17.6211 89.5703 17.2227 89.2734 16.6758C88.9766 16.1289 88.8281 15.4102 88.8281 14.5195V2.19141ZM103.805 14.9648V5.32031H107.18V18H104.004L103.805 14.9648ZM104.18 12.3633L105.176 12.3398C105.176 13.1836 105.078 13.9688 104.883 14.6953C104.688 15.4141 104.395 16.0391 104.004 16.5703C103.613 17.0938 103.121 17.5039 102.527 17.8008C101.934 18.0898 101.234 18.2344 100.43 18.2344C99.8125 18.2344 99.2422 18.1484 98.7188 17.9766C98.2031 17.7969 97.7578 17.5195 97.3828 17.1445C97.0156 16.7617 96.7266 16.2734 96.5156 15.6797C96.3125 15.0781 96.2109 14.3555 96.2109 13.5117V5.32031H99.5859V13.5352C99.5859 13.9102 99.6289 14.2266 99.7148 14.4844C99.8086 14.7422 99.9375 14.9531 100.102 15.1172C100.266 15.2812 100.457 15.3984 100.676 15.4688C100.902 15.5391 101.152 15.5742 101.426 15.5742C102.121 15.5742 102.668 15.4336 103.066 15.1523C103.473 14.8711 103.758 14.4883 103.922 14.0039C104.094 13.5117 104.18 12.9648 104.18 12.3633ZM292.863 15.5977C293.277 15.5977 293.645 15.5195 293.965 15.3633C294.285 15.1992 294.535 14.9727 294.715 14.6836C294.902 14.3867 295 14.0391 295.008 13.6406H298.184C298.176 14.5312 297.938 15.3242 297.469 16.0195C297 16.707 296.371 17.25 295.582 17.6484C294.793 18.0391 293.91 18.2344 292.934 18.2344C291.949 18.2344 291.09 18.0703 290.355 17.7422C289.629 17.4141 289.023 16.9609 288.539 16.3828C288.055 15.7969 287.691 15.1172 287.449 14.3438C287.207 13.5625 287.086 12.7266 287.086 11.8359V11.4961C287.086 10.5977 287.207 9.76172 287.449 8.98828C287.691 8.20703 288.055 7.52734 288.539 6.94922C289.023 6.36328 289.629 5.90625 290.355 5.57812C291.082 5.25 291.934 5.08594 292.91 5.08594C293.949 5.08594 294.859 5.28516 295.641 5.68359C296.43 6.08203 297.047 6.65234 297.492 7.39453C297.945 8.12891 298.176 9 298.184 10.0078H295.008C295 9.58594 294.91 9.20312 294.738 8.85938C294.574 8.51562 294.332 8.24219 294.012 8.03906C293.699 7.82812 293.312 7.72266 292.852 7.72266C292.359 7.72266 291.957 7.82812 291.645 8.03906C291.332 8.24219 291.09 8.52344 290.918 8.88281C290.746 9.23438 290.625 9.63672 290.555 10.0898C290.492 10.5352 290.461 11.0039 290.461 11.4961V11.8359C290.461 12.3281 290.492 12.8008 290.555 13.2539C290.617 13.707 290.734 14.1094 290.906 14.4609C291.086 14.8125 291.332 15.0898 291.645 15.293C291.957 15.4961 292.363 15.5977 292.863 15.5977ZM299.602 11.7891V11.543C299.602 10.6133 299.734 9.75781 300 8.97656C300.266 8.1875 300.652 7.50391 301.16 6.92578C301.668 6.34766 302.293 5.89844 303.035 5.57812C303.777 5.25 304.629 5.08594 305.59 5.08594C306.551 5.08594 307.406 5.25 308.156 5.57812C308.906 5.89844 309.535 6.34766 310.043 6.92578C310.559 7.50391 310.949 8.1875 311.215 8.97656C311.48 9.75781 311.613 10.6133 311.613 11.543V11.7891C311.613 12.7109 311.48 13.5664 311.215 14.3555C310.949 15.1367 310.559 15.8203 310.043 16.4062C309.535 16.9844 308.91 17.4336 308.168 17.7539C307.426 18.0742 306.574 18.2344 305.613 18.2344C304.652 18.2344 303.797 18.0742 303.047 17.7539C302.305 17.4336 301.676 16.9844 301.16 16.4062C300.652 15.8203 300.266 15.1367 300 14.3555C299.734 13.5664 299.602 12.7109 299.602 11.7891ZM302.977 11.543V11.7891C302.977 12.3203 303.023 12.8164 303.117 13.2773C303.211 13.7383 303.359 14.1445 303.562 14.4961C303.773 14.8398 304.047 15.1094 304.383 15.3047C304.719 15.5 305.129 15.5977 305.613 15.5977C306.082 15.5977 306.484 15.5 306.82 15.3047C307.156 15.1094 307.426 14.8398 307.629 14.4961C307.832 14.1445 307.98 13.7383 308.074 13.2773C308.176 12.8164 308.227 12.3203 308.227 11.7891V11.543C308.227 11.0273 308.176 10.543 308.074 10.0898C307.98 9.62891 307.828 9.22266 307.617 8.87109C307.414 8.51172 307.145 8.23047 306.809 8.02734C306.473 7.82422 306.066 7.72266 305.59 7.72266C305.113 7.72266 304.707 7.82422 304.371 8.02734C304.043 8.23047 303.773 8.51172 303.562 8.87109C303.359 9.22266 303.211 9.62891 303.117 10.0898C303.023 10.543 302.977 11.0273 302.977 11.543ZM316.992 8.02734V18H313.617V5.32031H316.781L316.992 8.02734ZM316.5 11.2148H315.586C315.586 10.2773 315.707 9.43359 315.949 8.68359C316.191 7.92578 316.531 7.28125 316.969 6.75C317.406 6.21094 317.926 5.80078 318.527 5.51953C319.137 5.23047 319.816 5.08594 320.566 5.08594C321.16 5.08594 321.703 5.17188 322.195 5.34375C322.688 5.51562 323.109 5.78906 323.461 6.16406C323.82 6.53906 324.094 7.03516 324.281 7.65234C324.477 8.26953 324.574 9.02344 324.574 9.91406V18H321.176V9.90234C321.176 9.33984 321.098 8.90234 320.941 8.58984C320.785 8.27734 320.555 8.05859 320.25 7.93359C319.953 7.80078 319.586 7.73438 319.148 7.73438C318.695 7.73438 318.301 7.82422 317.965 8.00391C317.637 8.18359 317.363 8.43359 317.145 8.75391C316.934 9.06641 316.773 9.43359 316.664 9.85547C316.555 10.2773 316.5 10.7305 316.5 11.2148ZM338.566 18H334.852L334.875 15.2578H338.566C339.488 15.2578 340.266 15.0508 340.898 14.6367C341.531 14.2148 342.008 13.6016 342.328 12.7969C342.656 11.9922 342.82 11.0195 342.82 9.87891V9.04688C342.82 8.17188 342.727 7.40234 342.539 6.73828C342.359 6.07422 342.09 5.51562 341.73 5.0625C341.371 4.60938 340.93 4.26953 340.406 4.04297C339.883 3.80859 339.281 3.69141 338.602 3.69141H334.781V0.9375H338.602C339.742 0.9375 340.785 1.13281 341.73 1.52344C342.684 1.90625 343.508 2.45703 344.203 3.17578C344.898 3.89453 345.434 4.75391 345.809 5.75391C346.191 6.74609 346.383 7.85156 346.383 9.07031V9.87891C346.383 11.0898 346.191 12.1953 345.809 13.1953C345.434 14.1953 344.898 15.0547 344.203 15.7734C343.516 16.4844 342.691 17.0352 341.73 17.4258C340.777 17.8086 339.723 18 338.566 18ZM336.844 0.9375V18H333.328V0.9375H336.844ZM355.57 15.1406V9.49219C355.57 9.08594 355.504 8.73828 355.371 8.44922C355.238 8.15234 355.031 7.92188 354.75 7.75781C354.477 7.59375 354.121 7.51172 353.684 7.51172C353.309 7.51172 352.984 7.57812 352.711 7.71094C352.438 7.83594 352.227 8.01953 352.078 8.26172C351.93 8.49609 351.855 8.77344 351.855 9.09375H348.48C348.48 8.55469 348.605 8.04297 348.855 7.55859C349.105 7.07422 349.469 6.64844 349.945 6.28125C350.422 5.90625 350.988 5.61328 351.645 5.40234C352.309 5.19141 353.051 5.08594 353.871 5.08594C354.855 5.08594 355.73 5.25 356.496 5.57812C357.262 5.90625 357.863 6.39844 358.301 7.05469C358.746 7.71094 358.969 8.53125 358.969 9.51562V14.9414C358.969 15.6367 359.012 16.207 359.098 16.6523C359.184 17.0898 359.309 17.4727 359.473 17.8008V18H356.062C355.898 17.6562 355.773 17.2266 355.688 16.7109C355.609 16.1875 355.57 15.6641 355.57 15.1406ZM356.016 10.2773L356.039 12.1875H354.152C353.707 12.1875 353.32 12.2383 352.992 12.3398C352.664 12.4414 352.395 12.5859 352.184 12.7734C351.973 12.9531 351.816 13.1641 351.715 13.4062C351.621 13.6484 351.574 13.9141 351.574 14.2031C351.574 14.4922 351.641 14.7539 351.773 14.9883C351.906 15.2148 352.098 15.3945 352.348 15.5273C352.598 15.6523 352.891 15.7148 353.227 15.7148C353.734 15.7148 354.176 15.6133 354.551 15.4102C354.926 15.207 355.215 14.957 355.418 14.6602C355.629 14.3633 355.738 14.082 355.746 13.8164L356.637 15.2461C356.512 15.5664 356.34 15.8984 356.121 16.2422C355.91 16.5859 355.641 16.9102 355.312 17.2148C354.984 17.5117 354.59 17.7578 354.129 17.9531C353.668 18.1406 353.121 18.2344 352.488 18.2344C351.684 18.2344 350.953 18.0742 350.297 17.7539C349.648 17.4258 349.133 16.9766 348.75 16.4062C348.375 15.8281 348.188 15.1719 348.188 14.4375C348.188 13.7734 348.312 13.1836 348.562 12.668C348.812 12.1523 349.18 11.7188 349.664 11.3672C350.156 11.0078 350.77 10.7383 351.504 10.5586C352.238 10.3711 353.09 10.2773 354.059 10.2773H356.016ZM365.133 0V18H361.746V0H365.133ZM374.133 5.32031V7.71094H366.75V5.32031H374.133ZM368.578 2.19141H371.953V14.1797C371.953 14.5469 372 14.8281 372.094 15.0234C372.195 15.2188 372.344 15.3555 372.539 15.4336C372.734 15.5039 372.98 15.5391 373.277 15.5391C373.488 15.5391 373.676 15.5312 373.84 15.5156C374.012 15.4922 374.156 15.4688 374.273 15.4453L374.285 17.9297C373.996 18.0234 373.684 18.0977 373.348 18.1523C373.012 18.207 372.641 18.2344 372.234 18.2344C371.492 18.2344 370.844 18.1133 370.289 17.8711C369.742 17.6211 369.32 17.2227 369.023 16.6758C368.727 16.1289 368.578 15.4102 368.578 14.5195V2.19141ZM375.211 11.7891V11.543C375.211 10.6133 375.344 9.75781 375.609 8.97656C375.875 8.1875 376.262 7.50391 376.77 6.92578C377.277 6.34766 377.902 5.89844 378.645 5.57812C379.387 5.25 380.238 5.08594 381.199 5.08594C382.16 5.08594 383.016 5.25 383.766 5.57812C384.516 5.89844 385.145 6.34766 385.652 6.92578C386.168 7.50391 386.559 8.1875 386.824 8.97656C387.09 9.75781 387.223 10.6133 387.223 11.543V11.7891C387.223 12.7109 387.09 13.5664 386.824 14.3555C386.559 15.1367 386.168 15.8203 385.652 16.4062C385.145 16.9844 384.52 17.4336 383.777 17.7539C383.035 18.0742 382.184 18.2344 381.223 18.2344C380.262 18.2344 379.406 18.0742 378.656 17.7539C377.914 17.4336 377.285 16.9844 376.77 16.4062C376.262 15.8203 375.875 15.1367 375.609 14.3555C375.344 13.5664 375.211 12.7109 375.211 11.7891ZM378.586 11.543V11.7891C378.586 12.3203 378.633 12.8164 378.727 13.2773C378.82 13.7383 378.969 14.1445 379.172 14.4961C379.383 14.8398 379.656 15.1094 379.992 15.3047C380.328 15.5 380.738 15.5977 381.223 15.5977C381.691 15.5977 382.094 15.5 382.43 15.3047C382.766 15.1094 383.035 14.8398 383.238 14.4961C383.441 14.1445 383.59 13.7383 383.684 13.2773C383.785 12.8164 383.836 12.3203 383.836 11.7891V11.543C383.836 11.0273 383.785 10.543 383.684 10.0898C383.59 9.62891 383.438 9.22266 383.227 8.87109C383.023 8.51172 382.754 8.23047 382.418 8.02734C382.082 7.82422 381.676 7.72266 381.199 7.72266C380.723 7.72266 380.316 7.82422 379.98 8.02734C379.652 8.23047 379.383 8.51172 379.172 8.87109C378.969 9.22266 378.82 9.62891 378.727 10.0898C378.633 10.543 378.586 11.0273 378.586 11.543ZM392.602 8.02734V18H389.227V5.32031H392.391L392.602 8.02734ZM392.109 11.2148H391.195C391.195 10.2773 391.316 9.43359 391.559 8.68359C391.801 7.92578 392.141 7.28125 392.578 6.75C393.016 6.21094 393.535 5.80078 394.137 5.51953C394.746 5.23047 395.426 5.08594 396.176 5.08594C396.77 5.08594 397.312 5.17188 397.805 5.34375C398.297 5.51562 398.719 5.78906 399.07 6.16406C399.43 6.53906 399.703 7.03516 399.891 7.65234C400.086 8.26953 400.184 9.02344 400.184 9.91406V18H396.785V9.90234C396.785 9.33984 396.707 8.90234 396.551 8.58984C396.395 8.27734 396.164 8.05859 395.859 7.93359C395.562 7.80078 395.195 7.73438 394.758 7.73438C394.305 7.73438 393.91 7.82422 393.574 8.00391C393.246 8.18359 392.973 8.43359 392.754 8.75391C392.543 9.06641 392.383 9.43359 392.273 9.85547C392.164 10.2773 392.109 10.7305 392.109 11.2148ZM11.4141 43.3398H14.918C14.8477 44.4883 14.5312 45.5078 13.9688 46.3984C13.4141 47.2891 12.6367 47.9844 11.6367 48.4844C10.6445 48.9844 9.44922 49.2344 8.05078 49.2344C6.95703 49.2344 5.97656 49.0469 5.10938 48.6719C4.24219 48.2891 3.5 47.7422 2.88281 47.0312C2.27344 46.3203 1.80859 45.4609 1.48828 44.4531C1.16797 43.4453 1.00781 42.3164 1.00781 41.0664V39.8828C1.00781 38.6328 1.17188 37.5039 1.5 36.4961C1.83594 35.4805 2.3125 34.6172 2.92969 33.9062C3.55469 33.1953 4.30078 32.6484 5.16797 32.2656C6.03516 31.8828 7.00391 31.6914 8.07422 31.6914C9.49609 31.6914 10.6953 31.9492 11.6719 32.4648C12.6562 32.9805 13.418 33.6914 13.957 34.5977C14.5039 35.5039 14.832 36.5352 14.9414 37.6914H11.4258C11.3867 37.0039 11.25 36.4219 11.0156 35.9453C10.7812 35.4609 10.4258 35.0977 9.94922 34.8555C9.48047 34.6055 8.85547 34.4805 8.07422 34.4805C7.48828 34.4805 6.97656 34.5898 6.53906 34.8086C6.10156 35.0273 5.73438 35.3594 5.4375 35.8047C5.14062 36.25 4.91797 36.8125 4.76953 37.4922C4.62891 38.1641 4.55859 38.9531 4.55859 39.8594V41.0664C4.55859 41.9492 4.625 42.7266 4.75781 43.3984C4.89062 44.0625 5.09375 44.625 5.36719 45.0859C5.64844 45.5391 6.00781 45.8828 6.44531 46.1172C6.89062 46.3438 7.42578 46.457 8.05078 46.457C8.78516 46.457 9.39062 46.3398 9.86719 46.1055C10.3438 45.8711 10.707 45.5234 10.957 45.0625C11.2148 44.6016 11.3672 44.0273 11.4141 43.3398ZM20.3906 39.0859V49H17.0156V36.3203H20.1914L20.3906 39.0859ZM24.2109 36.2383L24.1523 39.3672C23.9883 39.3438 23.7891 39.3242 23.5547 39.3086C23.3281 39.2852 23.1211 39.2734 22.9336 39.2734C22.457 39.2734 22.043 39.3359 21.6914 39.4609C21.3477 39.5781 21.0586 39.7539 20.8242 39.9883C20.5977 40.2227 20.4258 40.5078 20.3086 40.8438C20.1992 41.1797 20.1367 41.5625 20.1211 41.9922L19.4414 41.7812C19.4414 40.9609 19.5234 40.207 19.6875 39.5195C19.8516 38.8242 20.0898 38.2188 20.4023 37.7031C20.7227 37.1875 21.1133 36.7891 21.5742 36.5078C22.0352 36.2266 22.5625 36.0859 23.1562 36.0859C23.3438 36.0859 23.5352 36.1016 23.7305 36.1328C23.9258 36.1562 24.0859 36.1914 24.2109 36.2383ZM31.4062 49.2344C30.4219 49.2344 29.5391 49.0781 28.7578 48.7656C27.9766 48.4453 27.3125 48.0039 26.7656 47.4414C26.2266 46.8789 25.8125 46.2266 25.5234 45.4844C25.2344 44.7344 25.0898 43.9375 25.0898 43.0938V42.625C25.0898 41.6641 25.2266 40.7852 25.5 39.9883C25.7734 39.1914 26.1641 38.5 26.6719 37.9141C27.1875 37.3281 27.8125 36.8789 28.5469 36.5664C29.2812 36.2461 30.1094 36.0859 31.0312 36.0859C31.9297 36.0859 32.7266 36.2344 33.4219 36.5312C34.1172 36.8281 34.6992 37.25 35.168 37.7969C35.6445 38.3438 36.0039 39 36.2461 39.7656C36.4883 40.5234 36.6094 41.3672 36.6094 42.2969V43.7031H26.5312V41.4531H33.293V41.1953C33.293 40.7266 33.207 40.3086 33.0352 39.9414C32.8711 39.5664 32.6211 39.2695 32.2852 39.0508C31.9492 38.832 31.5195 38.7227 30.9961 38.7227C30.5508 38.7227 30.168 38.8203 29.8477 39.0156C29.5273 39.2109 29.2656 39.4844 29.0625 39.8359C28.8672 40.1875 28.7188 40.6016 28.6172 41.0781C28.5234 41.5469 28.4766 42.0625 28.4766 42.625V43.0938C28.4766 43.6016 28.5469 44.0703 28.6875 44.5C28.8359 44.9297 29.043 45.3008 29.3086 45.6133C29.582 45.9258 29.9102 46.168 30.293 46.3398C30.6836 46.5117 31.125 46.5977 31.6172 46.5977C32.2266 46.5977 32.793 46.4805 33.3164 46.2461C33.8477 46.0039 34.3047 45.6406 34.6875 45.1562L36.3281 46.9375C36.0625 47.3203 35.6992 47.6875 35.2383 48.0391C34.7852 48.3906 34.2383 48.6797 33.5977 48.9062C32.957 49.125 32.2266 49.2344 31.4062 49.2344ZM46.0195 46.2344V31H49.418V49H46.3594L46.0195 46.2344ZM38.0039 42.8125V42.5664C38.0039 41.5977 38.1133 40.7188 38.332 39.9297C38.5508 39.1328 38.8711 38.4492 39.293 37.8789C39.7148 37.3086 40.2344 36.8672 40.8516 36.5547C41.4688 36.2422 42.1719 36.0859 42.9609 36.0859C43.7031 36.0859 44.3516 36.2422 44.9062 36.5547C45.4688 36.8672 45.9453 37.3125 46.3359 37.8906C46.7344 38.4609 47.0547 39.1367 47.2969 39.918C47.5391 40.6914 47.7148 41.5391 47.8242 42.4609V43C47.7148 43.8828 47.5391 44.7031 47.2969 45.4609C47.0547 46.2188 46.7344 46.8828 46.3359 47.4531C45.9453 48.0156 45.4688 48.4531 44.9062 48.7656C44.3438 49.0781 43.6875 49.2344 42.9375 49.2344C42.1484 49.2344 41.4453 49.0742 40.8281 48.7539C40.2188 48.4336 39.7031 47.9844 39.2812 47.4062C38.8672 46.8281 38.5508 46.1484 38.332 45.3672C38.1133 44.5859 38.0039 43.7344 38.0039 42.8125ZM41.3789 42.5664V42.8125C41.3789 43.3359 41.418 43.8242 41.4961 44.2773C41.582 44.7305 41.7188 45.1328 41.9062 45.4844C42.1016 45.8281 42.3516 46.0977 42.6562 46.293C42.9688 46.4805 43.3477 46.5742 43.793 46.5742C44.3711 46.5742 44.8477 46.4453 45.2227 46.1875C45.5977 45.9219 45.8828 45.5586 46.0781 45.0977C46.2812 44.6367 46.3984 44.1055 46.4297 43.5039V41.9688C46.4062 41.4766 46.3359 41.0352 46.2188 40.6445C46.1094 40.2461 45.9453 39.9062 45.7266 39.625C45.5156 39.3438 45.25 39.125 44.9297 38.9688C44.6172 38.8125 44.2461 38.7344 43.8164 38.7344C43.3789 38.7344 43.0039 38.8359 42.6914 39.0391C42.3789 39.2344 42.125 39.5039 41.9297 39.8477C41.7422 40.1914 41.6016 40.5977 41.5078 41.0664C41.4219 41.5273 41.3789 42.0273 41.3789 42.5664ZM55.6172 36.3203V49H52.2305V36.3203H55.6172ZM52.0195 33.0156C52.0195 32.5234 52.1914 32.1172 52.5352 31.7969C52.8789 31.4766 53.3398 31.3164 53.918 31.3164C54.4883 31.3164 54.9453 31.4766 55.2891 31.7969C55.6406 32.1172 55.8164 32.5234 55.8164 33.0156C55.8164 33.5078 55.6406 33.9141 55.2891 34.2344C54.9453 34.5547 54.4883 34.7148 53.918 34.7148C53.3398 34.7148 52.8789 34.5547 52.5352 34.2344C52.1914 33.9141 52.0195 33.5078 52.0195 33.0156ZM64.6172 36.3203V38.7109H57.2344V36.3203H64.6172ZM59.0625 33.1914H62.4375V45.1797C62.4375 45.5469 62.4844 45.8281 62.5781 46.0234C62.6797 46.2188 62.8281 46.3555 63.0234 46.4336C63.2188 46.5039 63.4648 46.5391 63.7617 46.5391C63.9727 46.5391 64.1602 46.5312 64.3242 46.5156C64.4961 46.4922 64.6406 46.4688 64.7578 46.4453L64.7695 48.9297C64.4805 49.0234 64.168 49.0977 63.832 49.1523C63.4961 49.207 63.125 49.2344 62.7188 49.2344C61.9766 49.2344 61.3281 49.1133 60.7734 48.8711C60.2266 48.6211 59.8047 48.2227 59.5078 47.6758C59.2109 47.1289 59.0625 46.4102 59.0625 45.5195V33.1914ZM80.0039 46.2344V31H83.4023V49H80.3438L80.0039 46.2344ZM71.9883 42.8125V42.5664C71.9883 41.5977 72.0977 40.7188 72.3164 39.9297C72.5352 39.1328 72.8555 38.4492 73.2773 37.8789C73.6992 37.3086 74.2188 36.8672 74.8359 36.5547C75.4531 36.2422 76.1562 36.0859 76.9453 36.0859C77.6875 36.0859 78.3359 36.2422 78.8906 36.5547C79.4531 36.8672 79.9297 37.3125 80.3203 37.8906C80.7188 38.4609 81.0391 39.1367 81.2812 39.918C81.5234 40.6914 81.6992 41.5391 81.8086 42.4609V43C81.6992 43.8828 81.5234 44.7031 81.2812 45.4609C81.0391 46.2188 80.7188 46.8828 80.3203 47.4531C79.9297 48.0156 79.4531 48.4531 78.8906 48.7656C78.3281 49.0781 77.6719 49.2344 76.9219 49.2344C76.1328 49.2344 75.4297 49.0742 74.8125 48.7539C74.2031 48.4336 73.6875 47.9844 73.2656 47.4062C72.8516 46.8281 72.5352 46.1484 72.3164 45.3672C72.0977 44.5859 71.9883 43.7344 71.9883 42.8125ZM75.3633 42.5664V42.8125C75.3633 43.3359 75.4023 43.8242 75.4805 44.2773C75.5664 44.7305 75.7031 45.1328 75.8906 45.4844C76.0859 45.8281 76.3359 46.0977 76.6406 46.293C76.9531 46.4805 77.332 46.5742 77.7773 46.5742C78.3555 46.5742 78.832 46.4453 79.207 46.1875C79.582 45.9219 79.8672 45.5586 80.0625 45.0977C80.2656 44.6367 80.3828 44.1055 80.4141 43.5039V41.9688C80.3906 41.4766 80.3203 41.0352 80.2031 40.6445C80.0938 40.2461 79.9297 39.9062 79.7109 39.625C79.5 39.3438 79.2344 39.125 78.9141 38.9688C78.6016 38.8125 78.2305 38.7344 77.8008 38.7344C77.3633 38.7344 76.9883 38.8359 76.6758 39.0391C76.3633 39.2344 76.1094 39.5039 75.9141 39.8477C75.7266 40.1914 75.5859 40.5977 75.4922 41.0664C75.4062 41.5273 75.3633 42.0273 75.3633 42.5664ZM91.875 49.2344C90.8906 49.2344 90.0078 49.0781 89.2266 48.7656C88.4453 48.4453 87.7812 48.0039 87.2344 47.4414C86.6953 46.8789 86.2812 46.2266 85.9922 45.4844C85.7031 44.7344 85.5586 43.9375 85.5586 43.0938V42.625C85.5586 41.6641 85.6953 40.7852 85.9688 39.9883C86.2422 39.1914 86.6328 38.5 87.1406 37.9141C87.6562 37.3281 88.2812 36.8789 89.0156 36.5664C89.75 36.2461 90.5781 36.0859 91.5 36.0859C92.3984 36.0859 93.1953 36.2344 93.8906 36.5312C94.5859 36.8281 95.168 37.25 95.6367 37.7969C96.1133 38.3438 96.4727 39 96.7148 39.7656C96.957 40.5234 97.0781 41.3672 97.0781 42.2969V43.7031H87V41.4531H93.7617V41.1953C93.7617 40.7266 93.6758 40.3086 93.5039 39.9414C93.3398 39.5664 93.0898 39.2695 92.7539 39.0508C92.418 38.832 91.9883 38.7227 91.4648 38.7227C91.0195 38.7227 90.6367 38.8203 90.3164 39.0156C89.9961 39.2109 89.7344 39.4844 89.5312 39.8359C89.3359 40.1875 89.1875 40.6016 89.0859 41.0781C88.9922 41.5469 88.9453 42.0625 88.9453 42.625V43.0938C88.9453 43.6016 89.0156 44.0703 89.1562 44.5C89.3047 44.9297 89.5117 45.3008 89.7773 45.6133C90.0508 45.9258 90.3789 46.168 90.7617 46.3398C91.1523 46.5117 91.5938 46.5977 92.0859 46.5977C92.6953 46.5977 93.2617 46.4805 93.7852 46.2461C94.3164 46.0039 94.7734 45.6406 95.1562 45.1562L96.7969 46.9375C96.5312 47.3203 96.168 47.6875 95.707 48.0391C95.2539 48.3906 94.707 48.6797 94.0664 48.9062C93.4258 49.125 92.6953 49.2344 91.875 49.2344ZM105.855 45.4961C105.855 45.2539 105.785 45.0352 105.645 44.8398C105.504 44.6445 105.242 44.4648 104.859 44.3008C104.484 44.1289 103.941 43.9727 103.23 43.832C102.59 43.6914 101.992 43.5156 101.438 43.3047C100.891 43.0859 100.414 42.8242 100.008 42.5195C99.6094 42.2148 99.2969 41.8555 99.0703 41.4414C98.8438 41.0195 98.7305 40.5391 98.7305 40C98.7305 39.4688 98.8438 38.9688 99.0703 38.5C99.3047 38.0312 99.6367 37.6172 100.066 37.2578C100.504 36.8906 101.035 36.6055 101.66 36.4023C102.293 36.1914 103.004 36.0859 103.793 36.0859C104.895 36.0859 105.84 36.2617 106.629 36.6133C107.426 36.9648 108.035 37.4492 108.457 38.0664C108.887 38.6758 109.102 39.3711 109.102 40.1523H105.727C105.727 39.8242 105.656 39.5312 105.516 39.2734C105.383 39.0078 105.172 38.8008 104.883 38.6523C104.602 38.4961 104.234 38.418 103.781 38.418C103.406 38.418 103.082 38.4844 102.809 38.6172C102.535 38.7422 102.324 38.9141 102.176 39.1328C102.035 39.3438 101.965 39.5781 101.965 39.8359C101.965 40.0312 102.004 40.207 102.082 40.3633C102.168 40.5117 102.305 40.6484 102.492 40.7734C102.68 40.8984 102.922 41.0156 103.219 41.125C103.523 41.2266 103.898 41.3203 104.344 41.4062C105.258 41.5938 106.074 41.8398 106.793 42.1445C107.512 42.4414 108.082 42.8477 108.504 43.3633C108.926 43.8711 109.137 44.5391 109.137 45.3672C109.137 45.9297 109.012 46.4453 108.762 46.9141C108.512 47.3828 108.152 47.793 107.684 48.1445C107.215 48.4883 106.652 48.7578 105.996 48.9531C105.348 49.1406 104.617 49.2344 103.805 49.2344C102.625 49.2344 101.625 49.0234 100.805 48.6016C99.9922 48.1797 99.375 47.6445 98.9531 46.9961C98.5391 46.3398 98.332 45.668 98.332 44.9805H101.531C101.547 45.4414 101.664 45.8125 101.883 46.0938C102.109 46.375 102.395 46.5781 102.738 46.7031C103.09 46.8281 103.469 46.8906 103.875 46.8906C104.312 46.8906 104.676 46.832 104.965 46.7148C105.254 46.5898 105.473 46.4258 105.621 46.2227C105.777 46.0117 105.855 45.7695 105.855 45.4961ZM118.816 46.2344V31H122.215V49H119.156L118.816 46.2344ZM110.801 42.8125V42.5664C110.801 41.5977 110.91 40.7188 111.129 39.9297C111.348 39.1328 111.668 38.4492 112.09 37.8789C112.512 37.3086 113.031 36.8672 113.648 36.5547C114.266 36.2422 114.969 36.0859 115.758 36.0859C116.5 36.0859 117.148 36.2422 117.703 36.5547C118.266 36.8672 118.742 37.3125 119.133 37.8906C119.531 38.4609 119.852 39.1367 120.094 39.918C120.336 40.6914 120.512 41.5391 120.621 42.4609V43C120.512 43.8828 120.336 44.7031 120.094 45.4609C119.852 46.2188 119.531 46.8828 119.133 47.4531C118.742 48.0156 118.266 48.4531 117.703 48.7656C117.141 49.0781 116.484 49.2344 115.734 49.2344C114.945 49.2344 114.242 49.0742 113.625 48.7539C113.016 48.4336 112.5 47.9844 112.078 47.4062C111.664 46.8281 111.348 46.1484 111.129 45.3672C110.91 44.5859 110.801 43.7344 110.801 42.8125ZM114.176 42.5664V42.8125C114.176 43.3359 114.215 43.8242 114.293 44.2773C114.379 44.7305 114.516 45.1328 114.703 45.4844C114.898 45.8281 115.148 46.0977 115.453 46.293C115.766 46.4805 116.145 46.5742 116.59 46.5742C117.168 46.5742 117.645 46.4453 118.02 46.1875C118.395 45.9219 118.68 45.5586 118.875 45.0977C119.078 44.6367 119.195 44.1055 119.227 43.5039V41.9688C119.203 41.4766 119.133 41.0352 119.016 40.6445C118.906 40.2461 118.742 39.9062 118.523 39.625C118.312 39.3438 118.047 39.125 117.727 38.9688C117.414 38.8125 117.043 38.7344 116.613 38.7344C116.176 38.7344 115.801 38.8359 115.488 39.0391C115.176 39.2344 114.922 39.5039 114.727 39.8477C114.539 40.1914 114.398 40.5977 114.305 41.0664C114.219 41.5273 114.176 42.0273 114.176 42.5664ZM130.688 49.2344C129.703 49.2344 128.82 49.0781 128.039 48.7656C127.258 48.4453 126.594 48.0039 126.047 47.4414C125.508 46.8789 125.094 46.2266 124.805 45.4844C124.516 44.7344 124.371 43.9375 124.371 43.0938V42.625C124.371 41.6641 124.508 40.7852 124.781 39.9883C125.055 39.1914 125.445 38.5 125.953 37.9141C126.469 37.3281 127.094 36.8789 127.828 36.5664C128.562 36.2461 129.391 36.0859 130.312 36.0859C131.211 36.0859 132.008 36.2344 132.703 36.5312C133.398 36.8281 133.98 37.25 134.449 37.7969C134.926 38.3438 135.285 39 135.527 39.7656C135.77 40.5234 135.891 41.3672 135.891 42.2969V43.7031H125.812V41.4531H132.574V41.1953C132.574 40.7266 132.488 40.3086 132.316 39.9414C132.152 39.5664 131.902 39.2695 131.566 39.0508C131.23 38.832 130.801 38.7227 130.277 38.7227C129.832 38.7227 129.449 38.8203 129.129 39.0156C128.809 39.2109 128.547 39.4844 128.344 39.8359C128.148 40.1875 128 40.6016 127.898 41.0781C127.805 41.5469 127.758 42.0625 127.758 42.625V43.0938C127.758 43.6016 127.828 44.0703 127.969 44.5C128.117 44.9297 128.324 45.3008 128.59 45.6133C128.863 45.9258 129.191 46.168 129.574 46.3398C129.965 46.5117 130.406 46.5977 130.898 46.5977C131.508 46.5977 132.074 46.4805 132.598 46.2461C133.129 46.0039 133.586 45.6406 133.969 45.1562L135.609 46.9375C135.344 47.3203 134.98 47.6875 134.52 48.0391C134.066 48.3906 133.52 48.6797 132.879 48.9062C132.238 49.125 131.508 49.2344 130.688 49.2344ZM149.625 49.2344C148.641 49.2344 147.758 49.0781 146.977 48.7656C146.195 48.4453 145.531 48.0039 144.984 47.4414C144.445 46.8789 144.031 46.2266 143.742 45.4844C143.453 44.7344 143.309 43.9375 143.309 43.0938V42.625C143.309 41.6641 143.445 40.7852 143.719 39.9883C143.992 39.1914 144.383 38.5 144.891 37.9141C145.406 37.3281 146.031 36.8789 146.766 36.5664C147.5 36.2461 148.328 36.0859 149.25 36.0859C150.148 36.0859 150.945 36.2344 151.641 36.5312C152.336 36.8281 152.918 37.25 153.387 37.7969C153.863 38.3438 154.223 39 154.465 39.7656C154.707 40.5234 154.828 41.3672 154.828 42.2969V43.7031H144.75V41.4531H151.512V41.1953C151.512 40.7266 151.426 40.3086 151.254 39.9414C151.09 39.5664 150.84 39.2695 150.504 39.0508C150.168 38.832 149.738 38.7227 149.215 38.7227C148.77 38.7227 148.387 38.8203 148.066 39.0156C147.746 39.2109 147.484 39.4844 147.281 39.8359C147.086 40.1875 146.938 40.6016 146.836 41.0781C146.742 41.5469 146.695 42.0625 146.695 42.625V43.0938C146.695 43.6016 146.766 44.0703 146.906 44.5C147.055 44.9297 147.262 45.3008 147.527 45.6133C147.801 45.9258 148.129 46.168 148.512 46.3398C148.902 46.5117 149.344 46.5977 149.836 46.5977C150.445 46.5977 151.012 46.4805 151.535 46.2461C152.066 46.0039 152.523 45.6406 152.906 45.1562L154.547 46.9375C154.281 47.3203 153.918 47.6875 153.457 48.0391C153.004 48.3906 152.457 48.6797 151.816 48.9062C151.176 49.125 150.445 49.2344 149.625 49.2344ZM160.312 31V49H156.926V31H160.312Z" fill="black"/>
<path d="M119.461 0.9375V18H115.945V0.9375H119.461ZM126.258 8.22656V10.9688H118.5V8.22656H126.258ZM127.078 0.9375V3.69141H118.5V0.9375H127.078ZM132.469 5.32031V18H129.082V5.32031H132.469ZM128.871 2.01562C128.871 1.52344 129.043 1.11719 129.387 0.796875C129.73 0.476563 130.191 0.316406 130.77 0.316406C131.34 0.316406 131.797 0.476563 132.141 0.796875C132.492 1.11719 132.668 1.52344 132.668 2.01562C132.668 2.50781 132.492 2.91406 132.141 3.23438C131.797 3.55469 131.34 3.71484 130.77 3.71484C130.191 3.71484 129.73 3.55469 129.387 3.23438C129.043 2.91406 128.871 2.50781 128.871 2.01562ZM138.562 8.02734V18H135.188V5.32031H138.352L138.562 8.02734ZM138.07 11.2148H137.156C137.156 10.2773 137.277 9.43359 137.52 8.68359C137.762 7.92578 138.102 7.28125 138.539 6.75C138.977 6.21094 139.496 5.80078 140.098 5.51953C140.707 5.23047 141.387 5.08594 142.137 5.08594C142.73 5.08594 143.273 5.17188 143.766 5.34375C144.258 5.51562 144.68 5.78906 145.031 6.16406C145.391 6.53906 145.664 7.03516 145.852 7.65234C146.047 8.26953 146.145 9.02344 146.145 9.91406V18H142.746V9.90234C142.746 9.33984 142.668 8.90234 142.512 8.58984C142.355 8.27734 142.125 8.05859 141.82 7.93359C141.523 7.80078 141.156 7.73438 140.719 7.73438C140.266 7.73438 139.871 7.82422 139.535 8.00391C139.207 8.18359 138.934 8.43359 138.715 8.75391C138.504 9.06641 138.344 9.43359 138.234 9.85547C138.125 10.2773 138.07 10.7305 138.07 11.2148ZM155.555 15.1406V9.49219C155.555 9.08594 155.488 8.73828 155.355 8.44922C155.223 8.15234 155.016 7.92188 154.734 7.75781C154.461 7.59375 154.105 7.51172 153.668 7.51172C153.293 7.51172 152.969 7.57812 152.695 7.71094C152.422 7.83594 152.211 8.01953 152.062 8.26172C151.914 8.49609 151.84 8.77344 151.84 9.09375H148.465C148.465 8.55469 148.59 8.04297 148.84 7.55859C149.09 7.07422 149.453 6.64844 149.93 6.28125C150.406 5.90625 150.973 5.61328 151.629 5.40234C152.293 5.19141 153.035 5.08594 153.855 5.08594C154.84 5.08594 155.715 5.25 156.48 5.57812C157.246 5.90625 157.848 6.39844 158.285 7.05469C158.73 7.71094 158.953 8.53125 158.953 9.51562V14.9414C158.953 15.6367 158.996 16.207 159.082 16.6523C159.168 17.0898 159.293 17.4727 159.457 17.8008V18H156.047C155.883 17.6562 155.758 17.2266 155.672 16.7109C155.594 16.1875 155.555 15.6641 155.555 15.1406ZM156 10.2773L156.023 12.1875H154.137C153.691 12.1875 153.305 12.2383 152.977 12.3398C152.648 12.4414 152.379 12.5859 152.168 12.7734C151.957 12.9531 151.801 13.1641 151.699 13.4062C151.605 13.6484 151.559 13.9141 151.559 14.2031C151.559 14.4922 151.625 14.7539 151.758 14.9883C151.891 15.2148 152.082 15.3945 152.332 15.5273C152.582 15.6523 152.875 15.7148 153.211 15.7148C153.719 15.7148 154.16 15.6133 154.535 15.4102C154.91 15.207 155.199 14.957 155.402 14.6602C155.613 14.3633 155.723 14.082 155.73 13.8164L156.621 15.2461C156.496 15.5664 156.324 15.8984 156.105 16.2422C155.895 16.5859 155.625 16.9102 155.297 17.2148C154.969 17.5117 154.574 17.7578 154.113 17.9531C153.652 18.1406 153.105 18.2344 152.473 18.2344C151.668 18.2344 150.938 18.0742 150.281 17.7539C149.633 17.4258 149.117 16.9766 148.734 16.4062C148.359 15.8281 148.172 15.1719 148.172 14.4375C148.172 13.7734 148.297 13.1836 148.547 12.668C148.797 12.1523 149.164 11.7188 149.648 11.3672C150.141 11.0078 150.754 10.7383 151.488 10.5586C152.223 10.3711 153.074 10.2773 154.043 10.2773H156ZM164.859 8.02734V18H161.484V5.32031H164.648L164.859 8.02734ZM164.367 11.2148H163.453C163.453 10.2773 163.574 9.43359 163.816 8.68359C164.059 7.92578 164.398 7.28125 164.836 6.75C165.273 6.21094 165.793 5.80078 166.395 5.51953C167.004 5.23047 167.684 5.08594 168.434 5.08594C169.027 5.08594 169.57 5.17188 170.062 5.34375C170.555 5.51562 170.977 5.78906 171.328 6.16406C171.688 6.53906 171.961 7.03516 172.148 7.65234C172.344 8.26953 172.441 9.02344 172.441 9.91406V18H169.043V9.90234C169.043 9.33984 168.965 8.90234 168.809 8.58984C168.652 8.27734 168.422 8.05859 168.117 7.93359C167.82 7.80078 167.453 7.73438 167.016 7.73438C166.562 7.73438 166.168 7.82422 165.832 8.00391C165.504 8.18359 165.23 8.43359 165.012 8.75391C164.801 9.06641 164.641 9.43359 164.531 9.85547C164.422 10.2773 164.367 10.7305 164.367 11.2148ZM180.246 15.5977C180.66 15.5977 181.027 15.5195 181.348 15.3633C181.668 15.1992 181.918 14.9727 182.098 14.6836C182.285 14.3867 182.383 14.0391 182.391 13.6406H185.566C185.559 14.5312 185.32 15.3242 184.852 16.0195C184.383 16.707 183.754 17.25 182.965 17.6484C182.176 18.0391 181.293 18.2344 180.316 18.2344C179.332 18.2344 178.473 18.0703 177.738 17.7422C177.012 17.4141 176.406 16.9609 175.922 16.3828C175.438 15.7969 175.074 15.1172 174.832 14.3438C174.59 13.5625 174.469 12.7266 174.469 11.8359V11.4961C174.469 10.5977 174.59 9.76172 174.832 8.98828C175.074 8.20703 175.438 7.52734 175.922 6.94922C176.406 6.36328 177.012 5.90625 177.738 5.57812C178.465 5.25 179.316 5.08594 180.293 5.08594C181.332 5.08594 182.242 5.28516 183.023 5.68359C183.812 6.08203 184.43 6.65234 184.875 7.39453C185.328 8.12891 185.559 9 185.566 10.0078H182.391C182.383 9.58594 182.293 9.20312 182.121 8.85938C181.957 8.51562 181.715 8.24219 181.395 8.03906C181.082 7.82812 180.695 7.72266 180.234 7.72266C179.742 7.72266 179.34 7.82812 179.027 8.03906C178.715 8.24219 178.473 8.52344 178.301 8.88281C178.129 9.23438 178.008 9.63672 177.938 10.0898C177.875 10.5352 177.844 11.0039 177.844 11.4961V11.8359C177.844 12.3281 177.875 12.8008 177.938 13.2539C178 13.707 178.117 14.1094 178.289 14.4609C178.469 14.8125 178.715 15.0898 179.027 15.293C179.34 15.4961 179.746 15.5977 180.246 15.5977ZM191.086 5.32031V18H187.699V5.32031H191.086ZM187.488 2.01562C187.488 1.52344 187.66 1.11719 188.004 0.796875C188.348 0.476563 188.809 0.316406 189.387 0.316406C189.957 0.316406 190.414 0.476563 190.758 0.796875C191.109 1.11719 191.285 1.52344 191.285 2.01562C191.285 2.50781 191.109 2.91406 190.758 3.23438C190.414 3.55469 189.957 3.71484 189.387 3.71484C188.809 3.71484 188.348 3.55469 188.004 3.23438C187.66 2.91406 187.488 2.50781 187.488 2.01562ZM200.719 15.1406V9.49219C200.719 9.08594 200.652 8.73828 200.52 8.44922C200.387 8.15234 200.18 7.92188 199.898 7.75781C199.625 7.59375 199.27 7.51172 198.832 7.51172C198.457 7.51172 198.133 7.57812 197.859 7.71094C197.586 7.83594 197.375 8.01953 197.227 8.26172C197.078 8.49609 197.004 8.77344 197.004 9.09375H193.629C193.629 8.55469 193.754 8.04297 194.004 7.55859C194.254 7.07422 194.617 6.64844 195.094 6.28125C195.57 5.90625 196.137 5.61328 196.793 5.40234C197.457 5.19141 198.199 5.08594 199.02 5.08594C200.004 5.08594 200.879 5.25 201.645 5.57812C202.41 5.90625 203.012 6.39844 203.449 7.05469C203.895 7.71094 204.117 8.53125 204.117 9.51562V14.9414C204.117 15.6367 204.16 16.207 204.246 16.6523C204.332 17.0898 204.457 17.4727 204.621 17.8008V18H201.211C201.047 17.6562 200.922 17.2266 200.836 16.7109C200.758 16.1875 200.719 15.6641 200.719 15.1406ZM201.164 10.2773L201.188 12.1875H199.301C198.855 12.1875 198.469 12.2383 198.141 12.3398C197.812 12.4414 197.543 12.5859 197.332 12.7734C197.121 12.9531 196.965 13.1641 196.863 13.4062C196.77 13.6484 196.723 13.9141 196.723 14.2031C196.723 14.4922 196.789 14.7539 196.922 14.9883C197.055 15.2148 197.246 15.3945 197.496 15.5273C197.746 15.6523 198.039 15.7148 198.375 15.7148C198.883 15.7148 199.324 15.6133 199.699 15.4102C200.074 15.207 200.363 14.957 200.566 14.6602C200.777 14.3633 200.887 14.082 200.895 13.8164L201.785 15.2461C201.66 15.5664 201.488 15.8984 201.27 16.2422C201.059 16.5859 200.789 16.9102 200.461 17.2148C200.133 17.5117 199.738 17.7578 199.277 17.9531C198.816 18.1406 198.27 18.2344 197.637 18.2344C196.832 18.2344 196.102 18.0742 195.445 17.7539C194.797 17.4258 194.281 16.9766 193.898 16.4062C193.523 15.8281 193.336 15.1719 193.336 14.4375C193.336 13.7734 193.461 13.1836 193.711 12.668C193.961 12.1523 194.328 11.7188 194.812 11.3672C195.305 11.0078 195.918 10.7383 196.652 10.5586C197.387 10.3711 198.238 10.2773 199.207 10.2773H201.164ZM210.094 7.94531V18H206.707V5.32031H209.883L210.094 7.94531ZM209.625 11.2148H208.688C208.688 10.332 208.793 9.51953 209.004 8.77734C209.223 8.02734 209.539 7.37891 209.953 6.83203C210.375 6.27734 210.895 5.84766 211.512 5.54297C212.129 5.23828 212.844 5.08594 213.656 5.08594C214.219 5.08594 214.734 5.17188 215.203 5.34375C215.672 5.50781 216.074 5.76953 216.41 6.12891C216.754 6.48047 217.02 6.94141 217.207 7.51172C217.395 8.07422 217.488 8.75 217.488 9.53906V18H214.113V9.91406C214.113 9.33594 214.035 8.89062 213.879 8.57812C213.723 8.26562 213.5 8.04688 213.211 7.92188C212.93 7.79688 212.59 7.73438 212.191 7.73438C211.754 7.73438 211.371 7.82422 211.043 8.00391C210.723 8.18359 210.457 8.43359 210.246 8.75391C210.035 9.06641 209.879 9.43359 209.777 9.85547C209.676 10.2773 209.625 10.7305 209.625 11.2148ZM217.172 10.8281L215.965 10.9805C215.965 10.1523 216.066 9.38281 216.27 8.67188C216.48 7.96094 216.789 7.33594 217.195 6.79688C217.609 6.25781 218.121 5.83984 218.73 5.54297C219.34 5.23828 220.043 5.08594 220.84 5.08594C221.449 5.08594 222.004 5.17578 222.504 5.35547C223.004 5.52734 223.43 5.80469 223.781 6.1875C224.141 6.5625 224.414 7.05469 224.602 7.66406C224.797 8.27344 224.895 9.01953 224.895 9.90234V18H221.508V9.90234C221.508 9.31641 221.43 8.87109 221.273 8.56641C221.125 8.25391 220.906 8.03906 220.617 7.92188C220.336 7.79688 220 7.73438 219.609 7.73438C219.203 7.73438 218.848 7.81641 218.543 7.98047C218.238 8.13672 217.984 8.35547 217.781 8.63672C217.578 8.91797 217.426 9.24609 217.324 9.62109C217.223 9.98828 217.172 10.3906 217.172 10.8281ZM231.07 5.32031V18H227.684V5.32031H231.07ZM227.473 2.01562C227.473 1.52344 227.645 1.11719 227.988 0.796875C228.332 0.476563 228.793 0.316406 229.371 0.316406C229.941 0.316406 230.398 0.476563 230.742 0.796875C231.094 1.11719 231.27 1.52344 231.27 2.01562C231.27 2.50781 231.094 2.91406 230.742 3.23438C230.398 3.55469 229.941 3.71484 229.371 3.71484C228.793 3.71484 228.332 3.55469 227.988 3.23438C227.645 2.91406 227.473 2.50781 227.473 2.01562ZM239.695 18.2344C238.711 18.2344 237.828 18.0781 237.047 17.7656C236.266 17.4453 235.602 17.0039 235.055 16.4414C234.516 15.8789 234.102 15.2266 233.812 14.4844C233.523 13.7344 233.379 12.9375 233.379 12.0938V11.625C233.379 10.6641 233.516 9.78516 233.789 8.98828C234.062 8.19141 234.453 7.5 234.961 6.91406C235.477 6.32812 236.102 5.87891 236.836 5.56641C237.57 5.24609 238.398 5.08594 239.32 5.08594C240.219 5.08594 241.016 5.23438 241.711 5.53125C242.406 5.82812 242.988 6.25 243.457 6.79688C243.934 7.34375 244.293 8 244.535 8.76562C244.777 9.52344 244.898 10.3672 244.898 11.2969V12.7031H234.82V10.4531H241.582V10.1953C241.582 9.72656 241.496 9.30859 241.324 8.94141C241.16 8.56641 240.91 8.26953 240.574 8.05078C240.238 7.83203 239.809 7.72266 239.285 7.72266C238.84 7.72266 238.457 7.82031 238.137 8.01562C237.816 8.21094 237.555 8.48438 237.352 8.83594C237.156 9.1875 237.008 9.60156 236.906 10.0781C236.812 10.5469 236.766 11.0625 236.766 11.625V12.0938C236.766 12.6016 236.836 13.0703 236.977 13.5C237.125 13.9297 237.332 14.3008 237.598 14.6133C237.871 14.9258 238.199 15.168 238.582 15.3398C238.973 15.5117 239.414 15.5977 239.906 15.5977C240.516 15.5977 241.082 15.4805 241.605 15.2461C242.137 15.0039 242.594 14.6406 242.977 14.1562L244.617 15.9375C244.352 16.3203 243.988 16.6875 243.527 17.0391C243.074 17.3906 242.527 17.6797 241.887 17.9062C241.246 18.125 240.516 18.2344 239.695 18.2344ZM250.125 8.02734V18H246.75V5.32031H249.914L250.125 8.02734ZM249.633 11.2148H248.719C248.719 10.2773 248.84 9.43359 249.082 8.68359C249.324 7.92578 249.664 7.28125 250.102 6.75C250.539 6.21094 251.059 5.80078 251.66 5.51953C252.27 5.23047 252.949 5.08594 253.699 5.08594C254.293 5.08594 254.836 5.17188 255.328 5.34375C255.82 5.51562 256.242 5.78906 256.594 6.16406C256.953 6.53906 257.227 7.03516 257.414 7.65234C257.609 8.26953 257.707 9.02344 257.707 9.91406V18H254.309V9.90234C254.309 9.33984 254.23 8.90234 254.074 8.58984C253.918 8.27734 253.688 8.05859 253.383 7.93359C253.086 7.80078 252.719 7.73438 252.281 7.73438C251.828 7.73438 251.434 7.82422 251.098 8.00391C250.77 8.18359 250.496 8.43359 250.277 8.75391C250.066 9.06641 249.906 9.43359 249.797 9.85547C249.688 10.2773 249.633 10.7305 249.633 11.2148ZM266.484 5.32031V7.71094H259.102V5.32031H266.484ZM260.93 2.19141H264.305V14.1797C264.305 14.5469 264.352 14.8281 264.445 15.0234C264.547 15.2188 264.695 15.3555 264.891 15.4336C265.086 15.5039 265.332 15.5391 265.629 15.5391C265.84 15.5391 266.027 15.5312 266.191 15.5156C266.363 15.4922 266.508 15.4688 266.625 15.4453L266.637 17.9297C266.348 18.0234 266.035 18.0977 265.699 18.1523C265.363 18.207 264.992 18.2344 264.586 18.2344C263.844 18.2344 263.195 18.1133 262.641 17.8711C262.094 17.6211 261.672 17.2227 261.375 16.6758C261.078 16.1289 260.93 15.4102 260.93 14.5195V2.19141ZM267.562 11.7891V11.543C267.562 10.6133 267.695 9.75781 267.961 8.97656C268.227 8.1875 268.613 7.50391 269.121 6.92578C269.629 6.34766 270.254 5.89844 270.996 5.57812C271.738 5.25 272.59 5.08594 273.551 5.08594C274.512 5.08594 275.367 5.25 276.117 5.57812C276.867 5.89844 277.496 6.34766 278.004 6.92578C278.52 7.50391 278.91 8.1875 279.176 8.97656C279.441 9.75781 279.574 10.6133 279.574 11.543V11.7891C279.574 12.7109 279.441 13.5664 279.176 14.3555C278.91 15.1367 278.52 15.8203 278.004 16.4062C277.496 16.9844 276.871 17.4336 276.129 17.7539C275.387 18.0742 274.535 18.2344 273.574 18.2344C272.613 18.2344 271.758 18.0742 271.008 17.7539C270.266 17.4336 269.637 16.9844 269.121 16.4062C268.613 15.8203 268.227 15.1367 267.961 14.3555C267.695 13.5664 267.562 12.7109 267.562 11.7891ZM270.938 11.543V11.7891C270.938 12.3203 270.984 12.8164 271.078 13.2773C271.172 13.7383 271.32 14.1445 271.523 14.4961C271.734 14.8398 272.008 15.1094 272.344 15.3047C272.68 15.5 273.09 15.5977 273.574 15.5977C274.043 15.5977 274.445 15.5 274.781 15.3047C275.117 15.1094 275.387 14.8398 275.59 14.4961C275.793 14.1445 275.941 13.7383 276.035 13.2773C276.137 12.8164 276.188 12.3203 276.188 11.7891V11.543C276.188 11.0273 276.137 10.543 276.035 10.0898C275.941 9.62891 275.789 9.22266 275.578 8.87109C275.375 8.51172 275.105 8.23047 274.77 8.02734C274.434 7.82422 274.027 7.72266 273.551 7.72266C273.074 7.72266 272.668 7.82422 272.332 8.02734C272.004 8.23047 271.734 8.51172 271.523 8.87109C271.32 9.22266 271.172 9.62891 271.078 10.0898C270.984 10.543 270.938 11.0273 270.938 11.543ZM180.422 38.9688V41.9219C180.422 43.2031 180.285 44.3086 180.012 45.2383C179.738 46.1602 179.344 46.918 178.828 47.5117C178.32 48.0977 177.715 48.5312 177.012 48.8125C176.309 49.0938 175.527 49.2344 174.668 49.2344C173.98 49.2344 173.34 49.1484 172.746 48.9766C172.152 48.7969 171.617 48.5195 171.141 48.1445C170.672 47.7695 170.266 47.2969 169.922 46.7266C169.586 46.1484 169.328 45.4609 169.148 44.6641C168.969 43.8672 168.879 42.9531 168.879 41.9219V38.9688C168.879 37.6875 169.016 36.5898 169.289 35.6758C169.57 34.7539 169.965 34 170.473 33.4141C170.988 32.8281 171.598 32.3984 172.301 32.125C173.004 31.8438 173.785 31.7031 174.645 31.7031C175.332 31.7031 175.969 31.793 176.555 31.9727C177.148 32.1445 177.684 32.4141 178.16 32.7812C178.637 33.1484 179.043 33.6211 179.379 34.1992C179.715 34.7695 179.973 35.4531 180.152 36.25C180.332 37.0391 180.422 37.9453 180.422 38.9688ZM177.035 42.3672V38.5117C177.035 37.8945 177 37.3555 176.93 36.8945C176.867 36.4336 176.77 36.043 176.637 35.7227C176.504 35.3945 176.34 35.1289 176.145 34.9258C175.949 34.7227 175.727 34.5742 175.477 34.4805C175.227 34.3867 174.949 34.3398 174.645 34.3398C174.262 34.3398 173.922 34.4141 173.625 34.5625C173.336 34.7109 173.09 34.9492 172.887 35.2773C172.684 35.5977 172.527 36.0273 172.418 36.5664C172.316 37.0977 172.266 37.7461 172.266 38.5117V42.3672C172.266 42.9844 172.297 43.5273 172.359 43.9961C172.43 44.4648 172.531 44.8672 172.664 45.2031C172.805 45.5312 172.969 45.8008 173.156 46.0117C173.352 46.2148 173.574 46.3633 173.824 46.457C174.082 46.5508 174.363 46.5977 174.668 46.5977C175.043 46.5977 175.375 46.5234 175.664 46.375C175.961 46.2188 176.211 45.9766 176.414 45.6484C176.625 45.3125 176.781 44.875 176.883 44.3359C176.984 43.7969 177.035 43.1406 177.035 42.3672ZM182.672 36.1211V35.2188C182.672 34.5703 182.812 33.9805 183.094 33.4492C183.375 32.918 183.789 32.4922 184.336 32.1719C184.883 31.8516 185.555 31.6914 186.352 31.6914C187.172 31.6914 187.855 31.8516 188.402 32.1719C188.957 32.4922 189.371 32.918 189.645 33.4492C189.926 33.9805 190.066 34.5703 190.066 35.2188V36.1211C190.066 36.7539 189.926 37.3359 189.645 37.8672C189.371 38.3984 188.961 38.8242 188.414 39.1445C187.867 39.4648 187.191 39.625 186.387 39.625C185.574 39.625 184.891 39.4648 184.336 39.1445C183.789 38.8242 183.375 38.3984 183.094 37.8672C182.812 37.3359 182.672 36.7539 182.672 36.1211ZM184.91 35.2188V36.1211C184.91 36.3945 184.961 36.6562 185.062 36.9062C185.172 37.1484 185.336 37.3477 185.555 37.5039C185.781 37.6523 186.055 37.7266 186.375 37.7266C186.711 37.7266 186.984 37.6523 187.195 37.5039C187.406 37.3477 187.562 37.1484 187.664 36.9062C187.766 36.6562 187.816 36.3945 187.816 36.1211V35.2188C187.816 34.9297 187.762 34.6641 187.652 34.4219C187.551 34.1719 187.391 33.9727 187.172 33.8242C186.961 33.668 186.688 33.5898 186.352 33.5898C186.039 33.5898 185.773 33.668 185.555 33.8242C185.336 33.9727 185.172 34.1719 185.062 34.4219C184.961 34.6641 184.91 34.9297 184.91 35.2188ZM190.828 45.7188V44.8164C190.828 44.1758 190.969 43.5898 191.25 43.0586C191.539 42.5273 191.957 42.1016 192.504 41.7812C193.059 41.4609 193.738 41.3008 194.543 41.3008C195.355 41.3008 196.035 41.4609 196.582 41.7812C197.129 42.1016 197.543 42.5273 197.824 43.0586C198.105 43.5898 198.246 44.1758 198.246 44.8164V45.7188C198.246 46.3594 198.105 46.9453 197.824 47.4766C197.551 48.0078 197.141 48.4336 196.594 48.7539C196.047 49.0742 195.371 49.2344 194.566 49.2344C193.754 49.2344 193.07 49.0742 192.516 48.7539C191.961 48.4336 191.539 48.0078 191.25 47.4766C190.969 46.9453 190.828 46.3594 190.828 45.7188ZM193.078 44.8164V45.7188C193.078 46 193.141 46.2656 193.266 46.5156C193.391 46.7656 193.562 46.9648 193.781 47.1133C194.008 47.2617 194.27 47.3359 194.566 47.3359C194.941 47.3359 195.234 47.2617 195.445 47.1133C195.656 46.9648 195.801 46.7656 195.879 46.5156C195.965 46.2656 196.008 46 196.008 45.7188V44.8164C196.008 44.5352 195.953 44.2734 195.844 44.0312C195.734 43.7812 195.57 43.582 195.352 43.4336C195.141 43.2773 194.871 43.1992 194.543 43.1992C194.215 43.1992 193.941 43.2773 193.723 43.4336C193.512 43.582 193.352 43.7812 193.242 44.0312C193.133 44.2734 193.078 44.5352 193.078 44.8164ZM195.375 34.375L187.043 47.7109L185.402 46.8438L193.734 33.5078L195.375 34.375ZM216.68 43.3398H220.184C220.113 44.4883 219.797 45.5078 219.234 46.3984C218.68 47.2891 217.902 47.9844 216.902 48.4844C215.91 48.9844 214.715 49.2344 213.316 49.2344C212.223 49.2344 211.242 49.0469 210.375 48.6719C209.508 48.2891 208.766 47.7422 208.148 47.0312C207.539 46.3203 207.074 45.4609 206.754 44.4531C206.434 43.4453 206.273 42.3164 206.273 41.0664V39.8828C206.273 38.6328 206.438 37.5039 206.766 36.4961C207.102 35.4805 207.578 34.6172 208.195 33.9062C208.82 33.1953 209.566 32.6484 210.434 32.2656C211.301 31.8828 212.27 31.6914 213.34 31.6914C214.762 31.6914 215.961 31.9492 216.938 32.4648C217.922 32.9805 218.684 33.6914 219.223 34.5977C219.77 35.5039 220.098 36.5352 220.207 37.6914H216.691C216.652 37.0039 216.516 36.4219 216.281 35.9453C216.047 35.4609 215.691 35.0977 215.215 34.8555C214.746 34.6055 214.121 34.4805 213.34 34.4805C212.754 34.4805 212.242 34.5898 211.805 34.8086C211.367 35.0273 211 35.3594 210.703 35.8047C210.406 36.25 210.184 36.8125 210.035 37.4922C209.895 38.1641 209.824 38.9531 209.824 39.8594V41.0664C209.824 41.9492 209.891 42.7266 210.023 43.3984C210.156 44.0625 210.359 44.625 210.633 45.0859C210.914 45.5391 211.273 45.8828 211.711 46.1172C212.156 46.3438 212.691 46.457 213.316 46.457C214.051 46.457 214.656 46.3398 215.133 46.1055C215.609 45.8711 215.973 45.5234 216.223 45.0625C216.48 44.6016 216.633 44.0273 216.68 43.3398ZM225.387 31.9375L228.598 37.8906L231.809 31.9375H235.828L230.871 40.3984L235.957 49H231.902L228.598 42.9297L225.293 49H221.215L226.312 40.3984L221.344 31.9375H225.387ZM244.664 34.8555L240.023 49H236.285L242.625 31.9375H245.004L244.664 34.8555ZM248.52 49L243.867 34.8555L243.492 31.9375H245.895L252.27 49H248.52ZM248.309 42.6484V45.4023H239.297V42.6484H248.309ZM253.805 47.3711C253.805 46.8711 253.977 46.4531 254.32 46.1172C254.672 45.7812 255.137 45.6133 255.715 45.6133C256.293 45.6133 256.754 45.7812 257.098 46.1172C257.449 46.4531 257.625 46.8711 257.625 47.3711C257.625 47.8711 257.449 48.2891 257.098 48.625C256.754 48.9609 256.293 49.1289 255.715 49.1289C255.137 49.1289 254.672 48.9609 254.32 48.625C253.977 48.2891 253.805 47.8711 253.805 47.3711Z" fill="#0B62BD"/>
</svg>
