<svg width="28" height="28" viewBox="0 0 28 28" fill="none" xmlns="http://www.w3.org/2000/svg">
<path d="M17.2023 10.7977C16.6002 10.1955 15.9433 9.75758 15.2317 9.37439C14.958 9.26491 14.6843 9.31965 14.4653 9.53861L14.2463 9.75758C13.7537 10.1955 13.48 10.7977 13.4252 11.3998C13.3705 11.6735 13.5347 11.9472 13.7537 12.1114C14.2463 12.3304 14.6843 12.6041 15.0127 12.9873C16.8192 14.7937 16.8192 17.695 15.0127 19.5015L10.9071 23.607C9.10068 25.4135 6.19941 25.4135 4.39296 23.607C2.58651 21.8006 2.58651 18.8993 4.39296 17.0929L6.91105 14.5748C7.07527 14.4106 7.13001 14.1916 7.07527 13.9726C6.91105 13.3157 6.85631 12.6041 6.80156 11.8925C6.80156 11.3451 6.08993 11.0714 5.70674 11.4545C5.04985 12.1114 4.00978 13.1515 2.25806 14.9032C-0.752688 17.914 -0.752688 22.7859 2.25806 25.7419C5.21408 28.7527 10.086 28.7527 13.0968 25.7419C17.5855 21.2532 17.3666 21.4721 17.695 21.0342C20.1584 18.0782 19.9941 13.5894 17.2023 10.7977ZM25.7419 2.25806C22.7859 -0.752688 17.914 -0.752688 14.9032 2.25806C10.4145 6.74682 10.6334 6.52786 10.305 6.96579C7.84164 9.9218 8.00587 14.4106 10.7977 17.2023C11.3998 17.8045 12.0567 18.2424 12.7683 18.6256C13.042 18.7351 13.3157 18.6804 13.5347 18.4614L13.7537 18.2424C14.2463 17.8045 14.52 17.2023 14.5748 16.6002C14.6295 16.3265 14.4653 16.0528 14.2463 15.8886C13.7537 15.6696 13.3157 15.3959 12.9873 15.0127C11.1808 13.2063 11.1808 10.305 12.9873 8.49853L17.0929 4.39296C18.8993 2.58651 21.8006 2.58651 23.607 4.39296C25.4135 6.19941 25.4135 9.10068 23.607 10.9071L21.089 13.4252C20.9247 13.5894 20.87 13.8084 20.9247 14.0274C21.089 14.6843 21.1437 15.3959 21.1984 16.1075C21.1984 16.6549 21.9101 16.9286 22.2933 16.5455C22.9501 15.8886 23.9902 14.8485 25.7419 13.0968C28.7527 10.086 28.7527 5.21408 25.7419 2.25806Z" fill="white"/>
</svg>
