<svg width="173" height="54" viewBox="0 0 173 54" fill="none" xmlns="http://www.w3.org/2000/svg">
<rect width="173" height="54" fill="#E5E5E5"/>
<g id="Detalle - sticky" clip-path="url(#clip0_1_3)">
<rect width="1440" height="3700" transform="translate(-844 -1657)" fill="white"/>
<g id="Group 8987">
<rect id="Rectangle 9341" width="173" height="54" rx="9" fill="#333A3D"/>
<path id="Compartir auto" d="M55.8686 25.3828H53.6911C53.6513 25.1011 53.5701 24.8509 53.4474 24.6321C53.3248 24.41 53.1674 24.2211 52.9751 24.0653C52.7829 23.9096 52.5608 23.7902 52.3089 23.7074C52.0604 23.6245 51.7902 23.5831 51.4986 23.5831C50.9716 23.5831 50.5125 23.714 50.1214 23.9759C49.7304 24.2344 49.4271 24.6122 49.2116 25.1094C48.9962 25.6032 48.8885 26.2031 48.8885 26.9091C48.8885 27.6349 48.9962 28.2448 49.2116 28.7386C49.4304 29.2325 49.7353 29.6054 50.1264 29.8572C50.5175 30.1091 50.9699 30.2351 51.4837 30.2351C51.772 30.2351 52.0388 30.197 52.2841 30.1207C52.5327 30.0445 52.7531 29.9335 52.9453 29.7876C53.1375 29.6385 53.2966 29.4579 53.4226 29.2457C53.5518 29.0336 53.6413 28.7917 53.6911 28.5199L55.8686 28.5298C55.8123 28.9972 55.6714 29.4479 55.446 29.8821C55.224 30.313 54.924 30.6991 54.5462 31.0405C54.1716 31.3786 53.7242 31.647 53.2038 31.8459C52.6868 32.0414 52.1018 32.1392 51.4489 32.1392C50.5407 32.1392 49.7287 31.9337 49.0128 31.5227C48.3002 31.1117 47.7367 30.5168 47.3224 29.7379C46.9115 28.959 46.706 28.0161 46.706 26.9091C46.706 25.7988 46.9148 24.8542 47.3324 24.0753C47.75 23.2964 48.3168 22.7031 49.0327 22.2955C49.7486 21.8845 50.554 21.679 51.4489 21.679C52.0388 21.679 52.5857 21.7618 53.0895 21.9276C53.5966 22.0933 54.0457 22.3352 54.4368 22.6534C54.8279 22.9683 55.1461 23.3544 55.3913 23.8118C55.6399 24.2692 55.799 24.7929 55.8686 25.3828ZM60.8228 32.1491C60.0505 32.1491 59.3827 31.9851 58.8192 31.657C58.2591 31.3255 57.8266 30.8648 57.5217 30.2749C57.2167 29.6816 57.0643 28.9938 57.0643 28.2116C57.0643 27.4228 57.2167 26.7334 57.5217 26.1435C57.8266 25.5502 58.2591 25.0895 58.8192 24.7614C59.3827 24.4299 60.0505 24.2642 60.8228 24.2642C61.5951 24.2642 62.2612 24.4299 62.8214 24.7614C63.3848 25.0895 63.819 25.5502 64.1239 26.1435C64.4289 26.7334 64.5813 27.4228 64.5813 28.2116C64.5813 28.9938 64.4289 29.6816 64.1239 30.2749C63.819 30.8648 63.3848 31.3255 62.8214 31.657C62.2612 31.9851 61.5951 32.1491 60.8228 32.1491ZM60.8327 30.5085C61.1841 30.5085 61.4774 30.4091 61.7127 30.2102C61.948 30.008 62.1254 29.733 62.2447 29.3849C62.3673 29.0369 62.4286 28.6409 62.4286 28.1967C62.4286 27.7526 62.3673 27.3565 62.2447 27.0085C62.1254 26.6605 61.948 26.3854 61.7127 26.1832C61.4774 25.9811 61.1841 25.88 60.8327 25.88C60.4781 25.88 60.1798 25.9811 59.9379 26.1832C59.6992 26.3854 59.5186 26.6605 59.396 27.0085C59.2766 27.3565 59.217 27.7526 59.217 28.1967C59.217 28.6409 59.2766 29.0369 59.396 29.3849C59.5186 29.733 59.6992 30.008 59.9379 30.2102C60.1798 30.4091 60.4781 30.5085 60.8327 30.5085ZM65.9585 32V24.3636H67.9769V25.7109H68.0664C68.2255 25.2635 68.4906 24.9105 68.8619 24.652C69.2331 24.3935 69.6772 24.2642 70.1942 24.2642C70.7179 24.2642 71.1637 24.3951 71.5316 24.657C71.8995 24.9155 72.1448 25.2668 72.2674 25.7109H72.3469C72.5027 25.2734 72.7844 24.9238 73.1921 24.6619C73.6031 24.3968 74.0887 24.2642 74.6488 24.2642C75.3614 24.2642 75.9397 24.4912 76.3839 24.9453C76.8313 25.3961 77.055 26.0357 77.055 26.8643V32H74.9421V27.282C74.9421 26.8577 74.8294 26.5395 74.604 26.3274C74.3787 26.1153 74.0969 26.0092 73.7589 26.0092C73.3744 26.0092 73.0745 26.1319 72.859 26.3771C72.6436 26.6191 72.5359 26.9389 72.5359 27.3366V32H70.4826V27.2372C70.4826 26.8627 70.3749 26.5644 70.1594 26.3423C69.9473 26.1203 69.6673 26.0092 69.3192 26.0092C69.0839 26.0092 68.8718 26.0689 68.6829 26.1882C68.4973 26.3042 68.3498 26.4683 68.2404 26.6804C68.131 26.8892 68.0763 27.1345 68.0763 27.4162V32H65.9585ZM78.728 34.8636V24.3636H80.8161V25.6463H80.9105C81.0033 25.4408 81.1375 25.232 81.3132 25.0199C81.4922 24.8045 81.7242 24.6255 82.0092 24.483C82.2976 24.3371 82.6555 24.2642 83.0831 24.2642C83.6399 24.2642 84.1536 24.41 84.6243 24.7017C85.0949 24.9901 85.4711 25.4259 85.7528 26.0092C86.0346 26.5893 86.1754 27.3168 86.1754 28.1918C86.1754 29.0436 86.0379 29.7628 85.7628 30.3494C85.491 30.9328 85.1198 31.3752 84.6491 31.6768C84.1818 31.9751 83.6581 32.1243 83.0781 32.1243C82.6671 32.1243 82.3175 32.0563 82.0291 31.9205C81.7441 31.7846 81.5104 31.6139 81.3281 31.4084C81.1458 31.1996 81.0066 30.9891 80.9105 30.777H80.8459V34.8636H78.728ZM80.8011 28.1818C80.8011 28.6359 80.8641 29.032 80.9901 29.37C81.116 29.7081 81.2983 29.9716 81.5369 30.1605C81.7756 30.3461 82.0656 30.4389 82.407 30.4389C82.7517 30.4389 83.0433 30.3445 83.282 30.1555C83.5206 29.9633 83.7012 29.6982 83.8239 29.3601C83.9498 29.0187 84.0128 28.6259 84.0128 28.1818C84.0128 27.741 83.9515 27.3532 83.8288 27.0185C83.7062 26.6837 83.5256 26.4219 83.2869 26.233C83.0483 26.044 82.755 25.9496 82.407 25.9496C82.0623 25.9496 81.7706 26.0407 81.532 26.223C81.2966 26.4053 81.116 26.6638 80.9901 26.9986C80.8641 27.3333 80.8011 27.7277 80.8011 28.1818ZM89.7649 32.1442C89.2777 32.1442 88.8435 32.0597 88.4624 31.8906C88.0812 31.7183 87.7796 31.4647 87.5575 31.13C87.3388 30.7919 87.2294 30.371 87.2294 29.8672C87.2294 29.4429 87.3073 29.0866 87.4631 28.7983C87.6188 28.5099 87.831 28.2779 88.0994 28.1023C88.3679 27.9266 88.6728 27.794 89.0142 27.7045C89.3589 27.6151 89.7202 27.5521 90.098 27.5156C90.5421 27.4692 90.9001 27.4261 91.1719 27.3864C91.4437 27.3433 91.6409 27.2803 91.7635 27.1974C91.8861 27.1146 91.9474 26.992 91.9474 26.8295V26.7997C91.9474 26.4848 91.848 26.2412 91.6491 26.0689C91.4536 25.8965 91.1752 25.8104 90.8139 25.8104C90.4328 25.8104 90.1295 25.8949 89.9041 26.0639C89.6787 26.2296 89.5296 26.4384 89.4567 26.6903L87.4979 26.5312C87.5973 26.0672 87.7929 25.6662 88.0845 25.3281C88.3762 24.9867 88.7524 24.7249 89.2131 24.5426C89.6771 24.357 90.214 24.2642 90.8239 24.2642C91.2481 24.2642 91.6541 24.3139 92.0419 24.4134C92.433 24.5128 92.7794 24.6669 93.081 24.8757C93.3859 25.0845 93.6262 25.353 93.8018 25.6811C93.9775 26.0059 94.0653 26.3954 94.0653 26.8494V32H92.0568V30.9411H91.9972C91.8745 31.1797 91.7105 31.3902 91.505 31.5724C91.2995 31.7514 91.0526 31.8923 90.7642 31.995C90.4759 32.0945 90.1428 32.1442 89.7649 32.1442ZM90.3714 30.6825C90.683 30.6825 90.9581 30.6212 91.1967 30.4986C91.4354 30.3726 91.6226 30.2036 91.7585 29.9915C91.8944 29.7794 91.9624 29.5391 91.9624 29.2706V28.4602C91.8961 28.5033 91.8049 28.5431 91.6889 28.5795C91.5762 28.6127 91.4486 28.6442 91.3061 28.674C91.1636 28.7005 91.0211 28.7254 90.8786 28.7486C90.736 28.7685 90.6068 28.7867 90.4908 28.8033C90.2422 28.8397 90.0251 28.8977 89.8395 28.9773C89.6539 29.0568 89.5097 29.1645 89.407 29.3004C89.3042 29.433 89.2528 29.5987 89.2528 29.7976C89.2528 30.0859 89.3572 30.3063 89.5661 30.4588C89.7782 30.608 90.0466 30.6825 90.3714 30.6825ZM95.7085 32V24.3636H97.7617V25.696H97.8413C97.9805 25.2221 98.2141 24.8641 98.5423 24.6222C98.8704 24.3769 99.2482 24.2543 99.6758 24.2543C99.7818 24.2543 99.8962 24.2609 100.019 24.2741C100.141 24.2874 100.249 24.3056 100.342 24.3288V26.2081C100.243 26.1783 100.105 26.1518 99.9293 26.1286C99.7537 26.1054 99.5929 26.0938 99.4471 26.0938C99.1355 26.0938 98.8571 26.1617 98.6119 26.2976C98.3699 26.4302 98.1777 26.6158 98.0352 26.8544C97.896 27.093 97.8263 27.3681 97.8263 27.6797V32H95.7085ZM105.882 24.3636V25.9545H101.283V24.3636H105.882ZM102.327 22.5341H104.445V29.6534C104.445 29.849 104.475 30.0014 104.534 30.1108C104.594 30.2169 104.677 30.2914 104.783 30.3345C104.892 30.3776 105.018 30.3991 105.161 30.3991C105.26 30.3991 105.36 30.3909 105.459 30.3743C105.558 30.3544 105.635 30.3395 105.688 30.3295L106.021 31.9055C105.915 31.9387 105.766 31.9768 105.573 32.0199C105.381 32.0663 105.147 32.0945 104.872 32.1044C104.362 32.1243 103.914 32.0563 103.53 31.9006C103.149 31.7448 102.852 31.5028 102.64 31.1747C102.428 30.8466 102.324 30.4323 102.327 29.9318V22.5341ZM107.261 32V24.3636H109.379V32H107.261ZM108.325 23.3793C108.01 23.3793 107.74 23.2749 107.515 23.0661C107.293 22.8539 107.182 22.6004 107.182 22.3054C107.182 22.0137 107.293 21.7635 107.515 21.5547C107.74 21.3426 108.01 21.2365 108.325 21.2365C108.64 21.2365 108.908 21.3426 109.131 21.5547C109.356 21.7635 109.469 22.0137 109.469 22.3054C109.469 22.6004 109.356 22.8539 109.131 23.0661C108.908 23.2749 108.64 23.3793 108.325 23.3793ZM111.076 32V24.3636H113.129V25.696H113.208C113.348 25.2221 113.581 24.8641 113.909 24.6222C114.238 24.3769 114.615 24.2543 115.043 24.2543C115.149 24.2543 115.263 24.2609 115.386 24.2741C115.509 24.2874 115.616 24.3056 115.709 24.3288V26.2081C115.61 26.1783 115.472 26.1518 115.297 26.1286C115.121 26.1054 114.96 26.0938 114.814 26.0938C114.503 26.0938 114.224 26.1617 113.979 26.2976C113.737 26.4302 113.545 26.6158 113.402 26.8544C113.263 27.093 113.194 27.3681 113.194 27.6797V32H111.076ZM122.222 32.1442C121.735 32.1442 121.301 32.0597 120.919 31.8906C120.538 31.7183 120.237 31.4647 120.015 31.13C119.796 30.7919 119.686 30.371 119.686 29.8672C119.686 29.4429 119.764 29.0866 119.92 28.7983C120.076 28.5099 120.288 28.2779 120.556 28.1023C120.825 27.9266 121.13 27.794 121.471 27.7045C121.816 27.6151 122.177 27.5521 122.555 27.5156C122.999 27.4692 123.357 27.4261 123.629 27.3864C123.901 27.3433 124.098 27.2803 124.221 27.1974C124.343 27.1146 124.404 26.992 124.404 26.8295V26.7997C124.404 26.4848 124.305 26.2412 124.106 26.0689C123.911 25.8965 123.632 25.8104 123.271 25.8104C122.89 25.8104 122.587 25.8949 122.361 26.0639C122.136 26.2296 121.987 26.4384 121.914 26.6903L119.955 26.5312C120.054 26.0672 120.25 25.6662 120.542 25.3281C120.833 24.9867 121.209 24.7249 121.67 24.5426C122.134 24.357 122.671 24.2642 123.281 24.2642C123.705 24.2642 124.111 24.3139 124.499 24.4134C124.89 24.5128 125.236 24.6669 125.538 24.8757C125.843 25.0845 126.083 25.353 126.259 25.6811C126.435 26.0059 126.522 26.3954 126.522 26.8494V32H124.514V30.9411H124.454C124.332 31.1797 124.167 31.3902 123.962 31.5724C123.757 31.7514 123.51 31.8923 123.221 31.995C122.933 32.0945 122.6 32.1442 122.222 32.1442ZM122.828 30.6825C123.14 30.6825 123.415 30.6212 123.654 30.4986C123.892 30.3726 124.08 30.2036 124.216 29.9915C124.351 29.7794 124.419 29.5391 124.419 29.2706V28.4602C124.353 28.5033 124.262 28.5431 124.146 28.5795C124.033 28.6127 123.906 28.6442 123.763 28.674C123.621 28.7005 123.478 28.7254 123.336 28.7486C123.193 28.7685 123.064 28.7867 122.948 28.8033C122.699 28.8397 122.482 28.8977 122.297 28.9773C122.111 29.0568 121.967 29.1645 121.864 29.3004C121.761 29.433 121.71 29.5987 121.71 29.7976C121.71 30.0859 121.814 30.3063 122.023 30.4588C122.235 30.608 122.504 30.6825 122.828 30.6825ZM133.062 28.7486V24.3636H135.18V32H133.147V30.6129H133.067C132.895 31.0604 132.608 31.42 132.207 31.6918C131.81 31.9635 131.324 32.0994 130.751 32.0994C130.24 32.0994 129.791 31.9834 129.403 31.7514C129.016 31.5194 128.712 31.1896 128.494 30.7621C128.278 30.3345 128.169 29.8224 128.165 29.2259V24.3636H130.283V28.848C130.287 29.2988 130.408 29.6551 130.646 29.9169C130.885 30.1787 131.205 30.3097 131.606 30.3097C131.861 30.3097 132.1 30.2517 132.322 30.1357C132.544 30.0163 132.723 29.8407 132.859 29.6087C132.998 29.3767 133.066 29.09 133.062 28.7486ZM140.936 24.3636V25.9545H136.338V24.3636H140.936ZM137.382 22.5341H139.499V29.6534C139.499 29.849 139.529 30.0014 139.589 30.1108C139.649 30.2169 139.731 30.2914 139.838 30.3345C139.947 30.3776 140.073 30.3991 140.215 30.3991C140.315 30.3991 140.414 30.3909 140.514 30.3743C140.613 30.3544 140.689 30.3395 140.742 30.3295L141.075 31.9055C140.969 31.9387 140.82 31.9768 140.628 32.0199C140.436 32.0663 140.202 32.0945 139.927 32.1044C139.417 32.1243 138.969 32.0563 138.585 31.9006C138.204 31.7448 137.907 31.5028 137.695 31.1747C137.483 30.8466 137.378 30.4323 137.382 29.9318V22.5341ZM145.684 32.1491C144.912 32.1491 144.244 31.9851 143.681 31.657C143.12 31.3255 142.688 30.8648 142.383 30.2749C142.078 29.6816 141.926 28.9938 141.926 28.2116C141.926 27.4228 142.078 26.7334 142.383 26.1435C142.688 25.5502 143.12 25.0895 143.681 24.7614C144.244 24.4299 144.912 24.2642 145.684 24.2642C146.456 24.2642 147.123 24.4299 147.683 24.7614C148.246 25.0895 148.68 25.5502 148.985 26.1435C149.29 26.7334 149.443 27.4228 149.443 28.2116C149.443 28.9938 149.29 29.6816 148.985 30.2749C148.68 30.8648 148.246 31.3255 147.683 31.657C147.123 31.9851 146.456 32.1491 145.684 32.1491ZM145.694 30.5085C146.045 30.5085 146.339 30.4091 146.574 30.2102C146.809 30.008 146.987 29.733 147.106 29.3849C147.229 29.0369 147.29 28.6409 147.29 28.1967C147.29 27.7526 147.229 27.3565 147.106 27.0085C146.987 26.6605 146.809 26.3854 146.574 26.1832C146.339 25.9811 146.045 25.88 145.694 25.88C145.339 25.88 145.041 25.9811 144.799 26.1832C144.561 26.3854 144.38 26.6605 144.257 27.0085C144.138 27.3565 144.078 27.7526 144.078 28.1967C144.078 28.6409 144.138 29.0369 144.257 29.3849C144.38 29.733 144.561 30.008 144.799 30.2102C145.041 30.4091 145.339 30.5085 145.694 30.5085Z" fill="white"/>
<path id="share-alt" d="M33 29C32.1875 29 31.4688 29.3125 30.9062 29.8438L27.8438 27.9062C28.0312 27.3438 28.0312 26.6875 27.8438 26.125L30.9062 24.1875C31.4688 24.6875 32.1875 25 33 25C34.6562 25 36 23.6562 36 22C36 20.3438 34.6562 19 33 19C31.3438 19 30 20.3438 30 22C30 22.3125 30.0312 22.625 30.125 22.9062L27.0625 24.8438C26.5 24.3125 25.7812 24 25 24C23.3438 24 22 25.3438 22 27C22 28.6562 23.3438 30 25 30C25.7812 30 26.5 29.6875 27.0625 29.1875L30.125 31.125C30.0312 31.4062 30 31.7188 30 32C30 33.6562 31.3438 35 33 35C34.6562 35 36 33.6562 36 32C36 30.3438 34.6562 29 33 29ZM33 20.5C33.8125 20.5 34.5 21.1875 34.5 22C34.5 22.8438 33.8125 23.5 33 23.5C32.1562 23.5 31.5 22.8438 31.5 22C31.5 21.1875 32.1562 20.5 33 20.5ZM25 28.5C24.1562 28.5 23.5 27.8438 23.5 27C23.5 26.1875 24.1562 25.5 25 25.5C25.8125 25.5 26.5 26.1875 26.5 27C26.5 27.8438 25.8125 28.5 25 28.5ZM33 33.5C32.1562 33.5 31.5 32.8438 31.5 32C31.5 31.1875 32.1562 30.5 33 30.5C33.8125 30.5 34.5 31.1875 34.5 32C34.5 32.8438 33.8125 33.5 33 33.5Z" fill="white"/>
</g>
</g>
<defs>
<clipPath id="clip0_1_3">
<rect width="1440" height="3700" fill="white" transform="translate(-844 -1657)"/>
</clipPath>
</defs>
</svg>
