<svg width="28" height="23" viewBox="0 0 28 23" fill="none" xmlns="http://www.w3.org/2000/svg">
<path d="M25.1507 5.64384C26.2466 4.82192 27.2329 3.83562 28 2.68493C27.0137 3.12329 25.863 3.45205 24.7123 3.56164C25.9178 2.84932 26.7945 1.75342 27.2329 0.383562C26.137 1.0411 24.8767 1.53425 23.6164 1.80822C22.5205 0.657534 21.0411 0 19.3973 0C16.2192 0 13.6438 2.57534 13.6438 5.75342C13.6438 6.19178 13.6986 6.63014 13.8082 7.06849C9.0411 6.79452 4.76712 4.49315 1.91781 1.0411C1.42466 1.86301 1.15068 2.84932 1.15068 3.94521C1.15068 5.91781 2.13699 7.67123 3.72603 8.71233C2.79452 8.65753 1.86301 8.43836 1.09589 8V8.05479C1.09589 10.8493 3.06849 13.1507 5.69863 13.6986C5.26027 13.8082 4.71233 13.9178 4.21918 13.9178C3.83562 13.9178 3.50685 13.863 3.12329 13.8082C3.83562 16.1096 5.9726 17.7534 8.49315 17.8082C6.52055 19.3425 4.05479 20.274 1.36986 20.274C0.876712 20.274 0.438356 20.2192 0 20.1644C2.52055 21.8082 5.53425 22.7397 8.82192 22.7397C19.3973 22.7397 25.1507 14.0274 25.1507 6.41096C25.1507 6.13699 25.1507 5.91781 25.1507 5.64384Z" fill="white"/>
</svg>
