<svg width="28" height="29" viewBox="0 0 28 29" fill="none" xmlns="http://www.w3.org/2000/svg">
<path d="M23.75 4.24498C21.1875 1.54363 17.6875 0 13.9375 0C6.3125 0 0.0625 6.43179 0.0625 14.2786C0.0625 16.8513 0.75 19.2954 1.9375 21.4178L0 28.8144L7.3125 26.8849C9.375 27.9783 11.625 28.6214 13.9375 28.6214C21.625 28.6214 28 22.1897 28 14.3429C28 10.4838 26.375 6.94633 23.75 4.24498ZM13.9375 26.1774C11.875 26.1774 9.875 25.5985 8.0625 24.5051L7.6875 24.2478L3.3125 25.4699L4.5 21.0963L4.1875 20.646C3.0625 18.7165 2.4375 16.5297 2.4375 14.2786C2.4375 7.78246 7.625 2.44408 14 2.44408C17.0625 2.44408 19.9375 3.66612 22.125 5.91724C24.3125 8.16837 25.625 11.127 25.625 14.3429C25.625 20.839 20.3125 26.1774 13.9375 26.1774ZM20.3125 17.3015C19.9375 17.1086 18.25 16.2724 17.9375 16.1438C17.625 16.0151 17.375 15.9508 17.125 16.3367C16.9375 16.6583 16.25 17.4945 16.0625 17.7517C15.8125 17.9447 15.625 18.009 15.3125 17.816C13.25 16.787 11.9375 15.9508 10.5625 13.5711C10.1875 12.9279 10.9375 12.9922 11.5625 11.6415C11.6875 11.3843 11.625 11.1913 11.5625 10.9984C11.5 10.8054 10.75 9.06882 10.5 8.36132C10.1875 7.65383 9.9375 7.71814 9.6875 7.71814C9.5 7.71814 9.25 7.71814 9.0625 7.71814C8.8125 7.71814 8.4375 7.78246 8.125 8.16837C7.8125 8.55428 6.9375 9.39041 6.9375 11.127C6.9375 12.9279 8.125 14.6002 8.3125 14.8574C8.5 15.0504 10.75 18.6522 14.25 20.1958C16.4375 21.2249 17.3125 21.2892 18.4375 21.0963C19.0625 21.0319 20.4375 20.2601 20.75 19.424C21.0625 18.5879 21.0625 17.8804 20.9375 17.7517C20.875 17.5588 20.625 17.4945 20.3125 17.3015Z" fill="white"/>
</svg>
