<svg width="52" height="17" viewBox="0 0 38 24" fill="none" xmlns="http://www.w3.org/2000/svg">
<path d="M23.997 2.95081H13.7822V21.3824H23.997V2.95081Z" fill="#FF5F00"/>
<path d="M14.4392 12.1658C14.4376 10.3907 14.8382 8.6385 15.6107 7.04185C16.3832 5.44519 17.5073 4.04594 18.898 2.95001C17.1759 1.59079 15.1076 0.745518 12.9296 0.510795C10.7517 0.276072 8.55185 0.661362 6.58165 1.62265C4.61144 2.58393 2.95034 4.08242 1.78819 5.94682C0.62605 7.81122 0.00976563 9.96632 0.00976562 12.1658C0.00976562 14.3653 0.62605 16.5204 1.78819 18.3848C2.95034 20.2492 4.61144 21.7477 6.58165 22.709C8.55185 23.6702 10.7517 24.0555 12.9296 23.8208C15.1076 23.5861 17.1759 22.7408 18.898 21.3816C17.5074 20.2857 16.3832 18.8864 15.6107 17.2897C14.8382 15.6931 14.4376 13.9409 14.4392 12.1658Z" fill="#EB001B"/>
<path d="M37.7773 12.1658C37.7774 14.3652 37.1612 16.5203 35.9991 18.3847C34.837 20.2491 33.176 21.7476 31.2058 22.7089C29.2357 23.6702 27.0359 24.0555 24.8579 23.8208C22.68 23.5861 20.6118 22.7408 18.8896 21.3816C20.2791 20.2846 21.4024 18.8851 22.1747 17.2887C22.9471 15.6923 23.3484 13.9406 23.3484 12.1658C23.3484 10.391 22.9471 8.63933 22.1747 7.04293C21.4024 5.44653 20.2791 4.04704 18.8896 2.95C20.6118 1.59079 22.68 0.745512 24.8579 0.510792C27.0359 0.276072 29.2357 0.661379 31.2058 1.62267C33.176 2.58397 34.837 4.08245 35.9991 5.94686C37.1612 7.81126 37.7774 9.96636 37.7773 12.1658Z" fill="#F79E1B"/>
<path d="M36.6807 19.429V19.0516H36.8322V18.9747H36.4463V19.0516H36.5979V19.429H36.6807ZM37.4299 19.429V18.974H37.3116L37.1756 19.2869L37.0395 18.974H36.9211V19.429H37.0046V19.0858L37.1322 19.3817H37.2189L37.3465 19.085V19.429H37.4299Z" fill="#F79E1B"/>
</svg>
