<svg width="52" height="17" viewBox="0 0 52 17" fill="none" xmlns="http://www.w3.org/2000/svg">
<path d="M26.8932 5.41302C26.8635 7.77161 28.9777 9.08789 30.5704 9.87041C32.2068 10.6734 32.7565 11.1883 32.7502 11.9062C32.7377 13.0052 31.4448 13.4902 30.2347 13.5091C28.1236 13.5421 26.8963 12.9344 25.9204 12.4746L25.1599 16.0629C26.139 16.5179 27.9518 16.9147 29.8318 16.932C34.2445 16.932 37.1317 14.7356 37.1473 11.33C37.1645 7.00798 31.2184 6.76866 31.259 4.83676C31.2731 4.25105 31.8274 3.62597 33.0422 3.46695C33.6434 3.38665 35.3032 3.32525 37.1848 4.19909L37.9234 0.727335C36.9115 0.355755 35.6108 -8.01086e-05 33.9916 -8.01086e-05C29.8381 -8.01086e-05 26.9166 2.22625 26.8932 5.41302ZM45.0202 0.299072C44.2145 0.299072 43.5353 0.772995 43.2324 1.50041L36.9287 16.6769H41.3383L42.2158 14.2318H47.6045L48.1135 16.6769H52L48.6085 0.299072H45.0202ZM45.637 4.7234L46.9096 10.8734H43.4244L45.637 4.7234ZM21.5467 0.299072L18.0709 16.6769H22.2728L25.747 0.299072H21.5467ZM15.3305 0.299072L10.9568 11.4465L9.18768 1.96803C8.98 0.909975 8.16023 0.299072 7.2499 0.299072H0.0999339L0 0.774569C1.46778 1.09577 3.13543 1.61377 4.1457 2.168C4.76404 2.50651 4.94048 2.80252 5.14347 3.60708L8.49438 16.6769H12.9352L19.7432 0.299072H15.3305Z" fill="url(#paint0_linear)"/>
<defs>
<linearGradient id="paint0_linear" x1="23.9066" y1="17.2717" x2="24.4008" y2="-0.117597" gradientUnits="userSpaceOnUse">
<stop stop-color="#222357"/>
<stop offset="1" stop-color="#254AA5"/>
</linearGradient>
</defs>
</svg>
