<svg width="13" height="18" viewBox="0 0 13 18" fill="none" xmlns="http://www.w3.org/2000/svg">
<path fill-rule="evenodd" clip-rule="evenodd" d="M7.00757 17.5299C6.8728 17.6704 6.69012 17.7493 6.49965 17.7493C6.30918 17.7493 6.1265 17.6704 5.99173 17.5299L0.241732 11.5299C0.171115 11.4613 0.114476 11.3785 0.0751915 11.2865C0.0359077 11.1945 0.0147858 11.0952 0.0130825 10.9944C0.0113802 10.8937 0.0291319 10.7937 0.0652809 10.7003C0.101431 10.6069 0.155236 10.5221 0.223488 10.4509C0.291739 10.3797 0.373038 10.3235 0.462535 10.2858C0.552032 10.2481 0.647892 10.2296 0.744399 10.2313C0.840906 10.2331 0.936083 10.2552 1.02425 10.2961C1.11242 10.3371 1.19176 10.3962 1.25757 10.4699L5.7809 15.1899L5.7809 0.999928C5.7809 0.801016 5.85662 0.610249 5.99142 0.469597C6.12621 0.328945 6.30902 0.249928 6.49965 0.249928C6.69027 0.249928 6.87309 0.328945 7.00788 0.469597C7.14267 0.610249 7.2184 0.801016 7.2184 0.999928L7.2184 15.1899L11.7417 10.4699C11.8075 10.3962 11.8869 10.3371 11.9751 10.2961C12.0632 10.2552 12.1584 10.2331 12.2549 10.2313C12.3514 10.2296 12.4473 10.2481 12.5368 10.2858C12.6263 10.3235 12.7076 10.3797 12.7758 10.4509C12.8441 10.5221 12.8979 10.6069 12.934 10.7003C12.9702 10.7937 12.9879 10.8937 12.9862 10.9944C12.9845 11.0952 12.9634 11.1945 12.9241 11.2865C12.8848 11.3785 12.8282 11.4613 12.7576 11.5299L7.00757 17.5299Z" fill="#BF1D33"/>
</svg>
