<svg width="12" height="11" viewBox="0 0 12 11" fill="none" xmlns="http://www.w3.org/2000/svg">
<path d="M11.4062 5.68427L7.27913 9.81131C7.12436 9.96608 6.91801 10.0435 6.71166 10.0435C6.47951 10.0435 6.27316 9.96608 6.1184 9.81131C5.78308 9.50178 5.78308 8.96011 6.1184 8.65058L8.82677 5.91642H0.933806C0.469514 5.91642 0.108398 5.5553 0.108398 5.09101C0.108398 4.65251 0.469514 4.2656 0.933806 4.2656H8.82677L6.1184 1.55724C5.78308 1.24771 5.78308 0.706034 6.1184 0.396506C6.42793 0.0611843 6.9696 0.0611843 7.27913 0.396506L11.4062 4.52354C11.7415 4.83307 11.7415 5.37475 11.4062 5.68427Z" fill="#4E5356"/>
</svg>
