<svg width="13" height="11" viewBox="0 0 13 11" fill="none" xmlns="http://www.w3.org/2000/svg">
<path d="M12.0953 5.09101C12.0953 5.5553 11.7342 5.91642 11.2957 5.91642H3.37697L6.08534 8.65058C6.42066 8.96011 6.42066 9.50178 6.08534 9.81131C5.93058 9.96608 5.72423 10.0435 5.51788 10.0435C5.28573 10.0435 5.07938 9.96608 4.92461 9.81131L0.797576 5.68427C0.462254 5.37475 0.462254 4.83307 0.797576 4.52354L4.92461 0.396506C5.23414 0.0611843 5.77581 0.0611843 6.08534 0.396506C6.42066 0.706034 6.42066 1.24771 6.08534 1.55724L3.37697 4.2656H11.2957C11.7342 4.2656 12.0953 4.65251 12.0953 5.09101Z" fill="#4E5356"/>
</svg>
