<svg width="159" height="107" viewBox="0 0 159 107" fill="none" xmlns="http://www.w3.org/2000/svg">
<path d="M149.376 89.8006L54.4085 106.413C52.5889 106.733 50.715 106.609 48.9561 106.052L14.045 95.0541C9.98436 93.7748 6.97401 90.3643 6.2334 86.2001L0.1744 52.1204C-0.566215 47.9563 1.0874 43.7319 4.46167 41.1511L33.4766 18.9718C34.9418 17.8508 36.6561 17.1003 38.4789 16.7836L133.444 0.174432C139.672 -0.914901 145.61 3.21127 146.708 9.38627L158.663 76.6431C159.761 82.8213 155.601 88.7113 149.376 89.8006Z" fill="#FF002D"/>
<path d="M37.1562 35.5303L43.6175 34.3998C45.1817 34.1275 46.7012 34.0388 48.1697 34.1401C49.6414 34.2415 50.9694 34.5866 52.1569 35.1788C53.3444 35.771 54.3564 36.6355 55.196 37.7691C56.0324 38.9028 56.6102 40.3563 56.9262 42.1265C57.2039 43.6971 57.1529 45.1348 56.7666 46.4331C56.3803 47.7346 55.7546 48.881 54.8863 49.869C54.018 50.8601 52.9582 51.6803 51.7068 52.3326C50.4554 52.985 49.1019 53.4378 47.6494 53.6911L40.6071 54.923L37.1594 35.5271L37.1562 35.5303ZM44.2113 50.23L46.4491 49.8373C47.4419 49.6631 48.3517 49.4003 49.1721 49.052C49.9925 48.7005 50.6757 48.2381 51.2184 47.6618C51.7611 47.0855 52.1441 46.3888 52.3708 45.5686C52.5943 44.7485 52.6102 43.789 52.4155 42.6933C52.2463 41.7433 51.9207 40.9485 51.4354 40.3088C50.9502 39.6691 50.366 39.172 49.6765 38.8236C48.9869 38.4753 48.2144 38.2568 47.3525 38.1713C46.4938 38.0858 45.6127 38.1238 44.7093 38.2821L42.1682 38.7255L44.2144 50.2331L44.2113 50.23Z" fill="black"/>
<path d="M68.4792 48.33L68.4249 48.3395C68.0897 49.1311 67.5693 49.7518 66.8607 50.1951C66.152 50.6385 65.373 50.9361 64.5271 51.085C63.9014 51.1958 63.2821 51.2116 62.6723 51.142C62.0626 51.0691 61.504 50.8981 60.9996 50.629C60.4952 50.3598 60.0706 49.9925 59.7227 49.5238C59.3747 49.0583 59.1385 48.4851 59.0203 47.8106C58.8831 47.0443 58.9118 46.3698 59.1033 45.7903C59.2949 45.2108 59.6045 44.7041 60.0291 44.2735C60.4537 43.8428 60.9645 43.4755 61.555 43.1715C62.1456 42.8706 62.7713 42.6141 63.4257 42.4051C64.0802 42.1961 64.7442 42.0251 65.4113 41.889C66.0785 41.7528 66.701 41.6356 67.2693 41.5343C67.1384 40.8028 66.7745 40.2708 66.1743 39.932C65.5742 39.5931 64.9133 39.4886 64.1951 39.6153C63.4768 39.742 62.9182 39.9858 62.4074 40.3658C61.8966 40.7458 61.4625 41.224 61.1081 41.794L58.5 39.9351C59.148 39.0865 59.9525 38.3961 60.923 37.8578C61.8902 37.3226 62.9277 36.9553 64.0323 36.7621C65.2485 36.55 66.2733 36.5246 67.1097 36.6893C67.946 36.854 68.6515 37.1865 69.223 37.69C69.7944 38.1935 70.2509 38.8521 70.5861 39.6691C70.9213 40.4861 71.1862 41.452 71.3873 42.5666L72.5908 49.3338L68.7792 50.002L68.4823 48.33H68.4792ZM66.717 44.3431C66.4042 44.397 66.0147 44.4793 65.5518 44.5901C65.0857 44.701 64.6484 44.8561 64.2398 45.0588C63.8312 45.2615 63.496 45.518 63.2374 45.8283C62.9788 46.1386 62.8894 46.5186 62.9724 46.9778C63.0586 47.4718 63.3363 47.8011 63.8024 47.9626C64.2685 48.1273 64.7314 48.1685 65.1911 48.0861C65.5965 48.0165 65.9764 47.893 66.3371 47.7156C66.6947 47.5415 67.0043 47.3261 67.2629 47.0728C67.5215 46.8195 67.7098 46.525 67.8311 46.183C67.9492 45.841 67.9748 45.461 67.8982 45.043L67.7417 44.1658L66.7202 44.3431H66.717Z" fill="black"/>
<path d="M70.8633 28.2786L75.0069 27.5535L78.6876 48.2666L74.544 48.9918L70.8633 28.2786Z" fill="black"/>
<path d="M88.3426 36.2396L84.697 36.8761L85.4855 41.3158C85.5494 41.68 85.6292 42.0125 85.7186 42.307C85.8079 42.6015 85.9388 42.8485 86.1048 43.0448C86.2708 43.2411 86.5007 43.3773 86.788 43.447C87.0753 43.5198 87.4424 43.5166 87.8829 43.4406C88.1032 43.4026 88.3905 43.3298 88.7417 43.219C89.0928 43.1113 89.345 42.9593 89.5014 42.763L90.1112 46.1861C89.6802 46.43 89.2205 46.6231 88.7321 46.7656C88.2437 46.9081 87.7616 47.019 87.2828 47.1045C86.5837 47.228 85.9261 47.266 85.3099 47.2248C84.6938 47.1836 84.1384 47.038 83.6404 46.7973C83.1424 46.5566 82.721 46.1988 82.3826 45.7333C82.0442 45.2646 81.808 44.6661 81.6771 43.9346L80.5534 37.6045L77.9006 38.0668L77.3164 34.7798L79.9692 34.3175L79.2669 30.3718L83.4105 29.6466L84.1128 33.5923L87.7584 32.9558L88.3426 36.2428V36.2396Z" fill="black"/>
<path d="M89.8526 39.4506C89.6642 38.393 89.6866 37.3986 89.9228 36.474C90.1558 35.5493 90.5549 34.7196 91.1199 33.9913C91.6817 33.263 92.3904 32.6518 93.2428 32.1641C94.0951 31.6765 95.0369 31.3408 96.068 31.1603C97.0991 30.9798 98.0983 30.9735 99.0687 31.1445C100.039 31.3123 100.914 31.6448 101.696 32.1388C102.478 32.6328 103.136 33.2756 103.675 34.0673C104.215 34.859 104.579 35.7836 104.767 36.8413C104.955 37.899 104.933 38.8933 104.697 39.818C104.464 40.7426 104.065 41.5723 103.5 42.3006C102.935 43.029 102.229 43.6401 101.377 44.1278C100.524 44.6155 99.5827 44.9511 98.5516 45.1316C97.5205 45.3121 96.5213 45.3185 95.5508 45.1475C94.5804 44.9765 93.7057 44.6471 92.9236 44.1531C92.1414 43.6591 91.4838 43.0163 90.9443 42.2246C90.4048 41.433 90.0409 40.5083 89.8526 39.4506ZM93.9962 38.7255C94.1749 39.7293 94.6091 40.4925 95.2986 41.0118C95.9882 41.5311 96.8597 41.699 97.9099 41.5153C98.9602 41.3316 99.72 40.8788 100.189 40.1568C100.659 39.4348 100.805 38.5703 100.627 37.5665C100.448 36.5626 100.014 35.7995 99.3241 35.2801C98.6346 34.7608 97.7631 34.593 96.7128 34.7766C95.6626 34.9603 94.9028 35.4131 94.4335 36.1351C93.9643 36.8571 93.8174 37.7216 93.9962 38.7255Z" fill="black"/>
<path d="M105.322 29.881L109.3 29.1843L109.622 30.9925L109.677 30.983C109.76 30.7043 109.9 30.4161 110.092 30.1185C110.286 29.8208 110.529 29.5421 110.826 29.2825C111.123 29.0228 111.471 28.7948 111.87 28.5921C112.272 28.3895 112.719 28.247 113.217 28.1583C114.267 27.9746 115.142 27.9873 115.844 28.1931C116.546 28.399 117.127 28.7568 117.587 29.2603C118.047 29.7638 118.411 30.3876 118.676 31.1318C118.941 31.876 119.155 32.6961 119.311 33.5923L120.617 40.9358L116.473 41.661L115.314 35.1408C115.247 34.7576 115.161 34.3618 115.062 33.9565C114.96 33.5511 114.81 33.187 114.612 32.864C114.411 32.541 114.149 32.294 113.827 32.1261C113.501 31.9583 113.073 31.9203 112.54 32.0121C112.007 32.104 111.592 32.2781 111.292 32.5283C110.995 32.7785 110.787 33.0793 110.669 33.4276C110.551 33.7791 110.5 34.1591 110.516 34.5708C110.532 34.9825 110.58 35.4068 110.657 35.847L111.835 42.478L107.691 43.2031L105.325 29.8873L105.322 29.881Z" fill="black"/>
<path d="M62.6669 70.655C61.5942 70.2465 60.4737 69.9805 59.3022 69.8601C58.1306 69.7398 57.0324 69.6068 56.0077 69.458C54.983 69.3123 54.1115 69.0716 53.3964 68.7328C52.6813 68.3971 52.2472 67.8081 52.0971 66.9658C52.0046 66.4401 52.0556 65.9683 52.2567 65.5535C52.4547 65.1386 52.7484 64.784 53.1346 64.4831C53.5177 64.1855 53.9423 63.9416 54.3988 63.7516C54.8585 63.5648 55.3118 63.4286 55.7651 63.3495C56.5344 63.2165 57.3772 63.2228 58.2934 63.3748C59.2096 63.5268 59.9757 63.8751 60.5919 64.4166L64.03 59.0523C62.6477 58.21 61.176 57.6938 59.6086 57.5038C58.0444 57.317 56.4642 57.3613 54.8712 57.64C53.4922 57.8806 52.1865 58.3081 50.9543 58.9161C49.7221 59.5241 48.675 60.3 47.8162 61.2373C46.9575 62.1746 46.3286 63.2608 45.9328 64.499C45.5369 65.734 45.4731 67.1051 45.7381 68.603C46.0158 70.1578 46.5617 71.3485 47.3789 72.1845C48.1961 73.0173 49.1506 73.638 50.2328 74.0465C51.3182 74.455 52.461 74.7305 53.6614 74.8698C54.8617 75.0123 55.9854 75.1706 57.0292 75.3385C58.0731 75.5095 58.9606 75.7818 59.698 76.1555C60.4354 76.5291 60.8792 77.1371 61.0292 77.9795C61.1186 78.4798 61.0675 78.9358 60.8824 79.3475C60.694 79.7591 60.4163 80.1201 60.0492 80.4305C59.6789 80.7408 59.2479 80.9973 58.7499 81.2063C58.2519 81.4153 57.7539 81.5641 57.2495 81.6528C56.2152 81.8333 55.1713 81.7795 54.121 81.4881C53.0708 81.1968 52.1514 80.687 51.3661 79.9555L47.8035 85.5446C49.3773 86.5453 50.9958 87.185 52.659 87.4636C54.3222 87.7423 56.0715 87.7201 57.9007 87.4003C59.3596 87.1438 60.7132 86.7195 61.9614 86.121C63.2095 85.5225 64.263 84.7561 65.1217 83.8188C65.9805 82.8815 66.5998 81.7826 66.9765 80.5223C67.3532 79.262 67.4042 77.856 67.1297 76.3011C66.8392 74.6703 66.2901 73.4226 65.4793 72.5613C64.6684 71.7 63.7299 71.0635 62.6573 70.6518L62.6669 70.655Z" fill="black"/>
<path d="M76.5767 54.5841L69.3652 84.6675L76.2095 83.4705L77.5056 77.1371L88.452 75.2213L91.9317 80.7186L98.9356 79.4931L81.7067 53.6848L76.5735 54.5841H76.5767ZM78.5303 71.586L80.4106 62.3013L85.4162 70.3826L78.5303 71.586Z" fill="black"/>
<path d="M102.248 50.0938L96.0391 51.18L101.006 79.1353L118.72 76.0383L117.708 70.351L106.207 72.3618L102.248 50.0938Z" fill="black"/>
<path d="M141.034 33.2218C140.328 33.6208 139.872 34.2478 139.569 34.973C139.269 35.695 139.042 36.4455 138.758 37.1738C138.608 37.5538 138.435 37.937 138.209 38.279C137.905 38.7381 137.42 38.963 136.877 38.4753C136.258 37.9243 135.92 37.2181 135.767 36.4265C135.527 35.1851 135.862 34.0641 136.545 33.0286C136.747 32.7246 136.97 32.4365 137.2 32.123C136.041 32.37 134.965 32.75 134.014 33.4245C133.43 33.8393 132.983 34.365 132.814 35.0838C132.702 35.562 132.795 36.0243 132.89 36.493C133.139 37.6931 133.197 38.8996 132.935 40.1061C132.798 40.7331 132.587 41.3316 132.137 41.8098C131.802 42.1645 131.399 42.3545 131.01 42.136C130.72 41.9745 130.461 41.718 130.26 41.452C129.883 40.9516 129.577 40.3975 129.206 39.894C128.472 38.8965 127.483 38.3106 126.241 38.1618C126.186 38.1555 126.135 38.146 126.062 38.1333C126.19 38.3518 126.314 38.5513 126.423 38.7603C126.917 39.7261 127.099 40.7521 127.042 41.8288C126.981 42.991 126.662 44.0803 126.081 45.0873C125.877 45.4451 125.634 45.7745 125.337 46.0595L116.418 47.6206L121.388 75.5728L141.251 72.099L140.239 66.4148L126.585 68.8025L125.574 63.1183L137.794 60.9808L136.782 55.2966L124.562 57.4341L123.636 52.2218L136.191 50.0241C136.354 50.0558 136.523 50.0621 136.715 50.0305C137.972 49.8215 139.138 49.356 139.974 48.653C140.919 47.8581 141.624 46.8955 142.078 45.7523C142.266 45.2805 142.32 44.7896 142.304 44.2893C142.272 43.3995 142.148 42.5191 141.969 41.6008C141.867 41.8066 141.79 41.984 141.698 42.1518C141.363 42.7788 141.05 43.4185 140.676 44.0265C140.338 44.5775 139.964 45.119 139.444 45.5306C138.595 46.2051 137.519 46.2716 136.702 45.4768C136.083 44.872 135.907 43.8048 136.22 43.181C136.421 42.782 136.772 42.554 137.165 42.3893C137.759 42.1423 138.365 41.927 138.962 41.6831C139.562 41.4361 140.137 41.1353 140.66 40.7458C141.593 40.0586 142.106 39.1308 142.26 37.9971C142.346 37.3606 142.295 36.7241 142.209 36.094C142.145 35.6158 142.059 35.1408 142.174 34.6595C142.327 34.0166 142.78 33.6303 143.345 33.3516C143.607 33.2218 143.878 33.1078 144.143 32.9843C143.077 32.7215 142.027 32.6676 141.031 33.2313L141.034 33.2218Z" fill="black"/>
<path d="M60.454 68.888C59.3814 68.4795 58.2609 68.2135 57.0893 68.0931C55.9177 67.9728 54.8195 67.8398 53.7948 67.691C52.7701 67.5453 51.8986 67.3046 51.1835 66.9658C50.4684 66.6301 50.0343 66.0411 49.8842 65.1988C49.7917 64.6731 49.8427 64.2013 50.0439 63.7865C50.2418 63.3716 50.5355 63.017 50.9217 62.7161C51.3048 62.4185 51.7294 62.1746 52.1859 61.9846C52.6456 61.7978 53.0989 61.6616 53.5522 61.5825C54.3215 61.4495 55.1643 61.4558 56.0805 61.6078C56.9967 61.7598 57.7629 62.1081 58.379 62.6496L61.8171 57.2853C60.4348 56.443 58.9632 55.9268 57.3957 55.7368C55.8315 55.55 54.2513 55.5943 52.6584 55.873C51.2793 56.1136 49.9736 56.5411 48.7414 57.1491C47.5092 57.7571 46.4621 58.533 45.6034 59.4703C44.7446 60.4076 44.1157 61.4938 43.7199 62.732C43.324 63.967 43.2602 65.3381 43.5252 66.836C43.8029 68.3908 44.3488 69.5815 45.166 70.4175C45.9832 71.2503 46.9377 71.871 48.0199 72.2795C49.1053 72.688 50.2482 72.9635 51.4485 73.1028C52.6488 73.2453 53.7725 73.4036 54.8163 73.5715C55.8602 73.7425 56.7477 74.0148 57.4851 74.3885C58.2225 74.7621 58.6663 75.3701 58.8163 76.2125C58.9057 76.7128 58.8546 77.1688 58.6695 77.5805C58.4811 77.9921 58.2034 78.3531 57.8363 78.6635C57.466 78.9738 57.035 79.2303 56.537 79.4393C56.039 79.6483 55.541 79.7971 55.0366 79.8858C54.0023 80.0663 52.9584 80.0125 51.9082 79.7211C50.8579 79.4298 49.9385 78.92 49.1532 78.1885L45.5906 83.7776C47.1644 84.7783 48.7829 85.418 50.4461 85.6966C52.1093 85.9753 53.8587 85.9531 55.6879 85.6333C57.1467 85.3768 58.5003 84.9525 59.7485 84.354C60.9967 83.7555 62.0501 82.9891 62.9089 82.0518C63.7676 81.1145 64.3869 80.0156 64.7636 78.7553C65.1403 77.495 65.1914 76.089 64.9168 74.5341C64.6263 72.9033 64.0772 71.6556 63.2664 70.7943C62.4555 69.933 61.517 69.2965 60.4444 68.8848L60.454 68.888Z" fill="white"/>
<path d="M74.3638 52.8203L67.1523 82.9036L73.9966 81.7066L75.2927 75.3733L86.2391 73.4575L89.7188 78.9548L96.7227 77.7293L79.4938 51.921L74.3606 52.8203H74.3638ZM76.3175 69.819L78.1977 60.5343L83.2033 68.6156L76.3175 69.819Z" fill="white"/>
<path d="M100.035 48.33L93.8262 49.4161L98.7934 77.3683L116.508 74.2713L115.496 68.584L103.994 70.598L100.035 48.33Z" fill="white"/>
<path d="M138.825 31.4548C138.119 31.8538 137.663 32.4808 137.36 33.206C137.06 33.928 136.833 34.6785 136.549 35.4068C136.399 35.7868 136.226 36.17 136 36.512C135.696 36.9711 135.211 37.196 134.668 36.7083C134.049 36.1573 133.711 35.4511 133.558 34.6595C133.318 33.4181 133.653 32.2971 134.336 31.2616C134.538 30.9576 134.761 30.6695 134.991 30.356C133.832 30.603 132.756 30.983 131.805 31.6575C131.221 32.0723 130.774 32.598 130.605 33.3168C130.493 33.795 130.586 34.2573 130.681 34.726C130.93 35.9261 130.988 37.1326 130.726 38.3391C130.589 38.9661 130.378 39.5646 129.928 40.0428C129.593 40.3975 129.19 40.5875 128.801 40.369C128.511 40.2075 128.252 39.951 128.051 39.685C127.674 39.1846 127.368 38.6305 126.997 38.127C126.263 37.1295 125.274 36.5436 124.032 36.3948C123.977 36.3885 123.926 36.379 123.853 36.3663C123.981 36.5848 124.105 36.7843 124.214 36.9933C124.708 37.9591 124.89 38.9851 124.833 40.0618C124.772 41.224 124.453 42.3133 123.872 43.3203C123.668 43.6781 123.425 44.0075 123.128 44.2925L114.209 45.8536L119.179 73.8058L139.042 70.332L138.03 64.6478L124.376 67.0355L123.365 61.3513L135.585 59.2138L134.573 53.5296L122.353 55.6671L121.427 50.4548L133.982 48.2571C134.145 48.2888 134.314 48.2951 134.506 48.2635C135.763 48.0545 136.929 47.589 137.765 46.886C138.71 46.0911 139.415 45.1285 139.869 43.9853C140.057 43.5135 140.111 43.0226 140.095 42.5223C140.063 41.6325 139.939 40.7521 139.76 39.8338C139.658 40.0396 139.581 40.217 139.489 40.3848C139.154 41.0118 138.841 41.6515 138.467 42.2595C138.129 42.8105 137.755 43.352 137.235 43.7636C136.386 44.4381 135.31 44.5046 134.493 43.7098C133.874 43.105 133.698 42.0378 134.011 41.414C134.212 41.015 134.563 40.787 134.956 40.6223C135.55 40.3753 136.156 40.16 136.753 39.9161C137.353 39.6691 137.928 39.3683 138.451 38.9788C139.384 38.2916 139.897 37.3638 140.051 36.2301C140.137 35.5936 140.086 34.9571 140 34.327C139.936 33.8488 139.85 33.3738 139.965 32.8925C140.118 32.2496 140.571 31.8633 141.136 31.5846C141.398 31.4548 141.669 31.3408 141.934 31.2173C140.868 30.9545 139.818 30.9006 138.822 31.4643L138.825 31.4548Z" fill="white"/>
<path d="M20.3954 71.3231C23.2727 71.3231 25.6052 69.0093 25.6052 66.1551C25.6052 63.3009 23.2727 60.9871 20.3954 60.9871C17.5181 60.9871 15.1855 63.3009 15.1855 66.1551C15.1855 69.0093 17.5181 71.3231 20.3954 71.3231Z" fill="black"/>
</svg>
