<svg width="25" height="25" viewBox="0 0 25 25" fill="none" xmlns="http://www.w3.org/2000/svg">
<path d="M12.3972 24.7945C5.7347 24.7945 0.333984 19.3938 0.333984 12.7312C0.333984 6.06869 5.7347 0.667969 12.3972 0.667969C19.0598 0.667969 24.4605 6.06869 24.4605 12.7312C24.4605 19.3938 19.0598 24.7945 12.3972 24.7945ZM12.3972 22.3818C14.9567 22.3818 17.4114 21.3651 19.2212 19.5552C21.0311 17.7454 22.0478 15.2907 22.0478 12.7312C22.0478 10.1717 21.0311 7.71705 19.2212 5.90722C17.4114 4.09738 14.9567 3.08062 12.3972 3.08062C9.83774 3.08062 7.38307 4.09738 5.57323 5.90722C3.76339 7.71705 2.74663 10.1717 2.74663 12.7312C2.74663 15.2907 3.76339 17.7454 5.57323 19.5552C7.38307 21.3651 9.83774 22.3818 12.3972 22.3818ZM12.3972 6.6996C12.7172 6.6996 13.024 6.82669 13.2502 7.05292C13.4765 7.27915 13.6036 7.58598 13.6036 7.90592V13.9375C13.6036 14.2575 13.4765 14.5643 13.2502 14.7905C13.024 15.0168 12.7172 15.1439 12.3972 15.1439C12.0773 15.1439 11.7705 15.0168 11.5442 14.7905C11.318 14.5643 11.1909 14.2575 11.1909 13.9375V7.90592C11.1909 7.58598 11.318 7.27915 11.5442 7.05292C11.7705 6.82669 12.0773 6.69959 12.3972 6.6996ZM12.3972 18.7628C12.0773 18.7628 11.7705 18.6358 11.5442 18.4095C11.318 18.1833 11.1909 17.8765 11.1909 17.5565C11.1909 17.2366 11.318 16.9298 11.5442 16.7035C11.7705 16.4773 12.0773 16.3502 12.3972 16.3502C12.7172 16.3502 13.024 16.4773 13.2502 16.7035C13.4765 16.9298 13.6036 17.2366 13.6036 17.5565C13.6036 17.8765 13.4765 18.1833 13.2502 18.4095C13.024 18.6358 12.7172 18.7628 12.3972 18.7628Z" fill="#1A7CE4"/>
</svg>
