<svg width="23" height="25" viewBox="0 0 23 25" fill="none" xmlns="http://www.w3.org/2000/svg">
<g filter="url(#filter0_d_4004_6390)">
<path d="M15.541 10.6371C14.7078 10.6371 13.9707 10.9576 13.3939 11.5023L10.2534 9.51548C10.4457 8.93865 10.4457 8.26568 10.2534 7.68885L13.3939 5.70199C13.9707 6.21473 14.7078 6.53519 15.541 6.53519C17.2394 6.53519 18.6174 5.1572 18.6174 3.45876C18.6174 1.76031 17.2394 0.382324 15.541 0.382324C13.8425 0.382324 12.4646 1.76031 12.4646 3.45876C12.4646 3.77922 12.4966 4.09968 12.5927 4.3881L9.45222 6.37496C8.87539 5.83017 8.13833 5.50971 7.33718 5.50971C5.63873 5.50971 4.26074 6.8877 4.26074 8.58615C4.26074 10.2846 5.63873 11.6626 7.33718 11.6626C8.13833 11.6626 8.87539 11.3421 9.45222 10.8294L12.5927 12.8162C12.4966 13.1047 12.4646 13.4251 12.4646 13.7135C12.4646 15.412 13.8425 16.79 15.541 16.79C17.2394 16.79 18.6174 15.412 18.6174 13.7135C18.6174 12.0151 17.2394 10.6371 15.541 10.6371ZM15.541 1.92054C16.3742 1.92054 17.0792 2.62556 17.0792 3.45876C17.0792 4.324 16.3742 4.99697 15.541 4.99697C14.6757 4.99697 14.0028 4.324 14.0028 3.45876C14.0028 2.62556 14.6757 1.92054 15.541 1.92054ZM7.33718 10.1244C6.47193 10.1244 5.79896 9.45139 5.79896 8.58615C5.79896 7.75294 6.47193 7.04793 7.33718 7.04793C8.17038 7.04793 8.87539 7.75294 8.87539 8.58615C8.87539 9.45139 8.17038 10.1244 7.33718 10.1244ZM15.541 15.2517C14.6757 15.2517 14.0028 14.5788 14.0028 13.7135C14.0028 12.8803 14.6757 12.1753 15.541 12.1753C16.3742 12.1753 17.0792 12.8803 17.0792 13.7135C17.0792 14.5788 16.3742 15.2517 15.541 15.2517Z" fill="white"/>
</g>
<defs>
<filter id="filter0_d_4004_6390" x="0.260742" y="0.382324" width="22.3564" height="24.4077" filterUnits="userSpaceOnUse" color-interpolation-filters="sRGB">
<feFlood flood-opacity="0" result="BackgroundImageFix"/>
<feColorMatrix in="SourceAlpha" type="matrix" values="0 0 0 0 0 0 0 0 0 0 0 0 0 0 0 0 0 0 127 0" result="hardAlpha"/>
<feOffset dy="4"/>
<feGaussianBlur stdDeviation="2"/>
<feComposite in2="hardAlpha" operator="out"/>
<feColorMatrix type="matrix" values="0 0 0 0 0 0 0 0 0 0 0 0 0 0 0 0 0 0 0.25 0"/>
<feBlend mode="normal" in2="BackgroundImageFix" result="effect1_dropShadow_4004_6390"/>
<feBlend mode="normal" in="SourceGraphic" in2="effect1_dropShadow_4004_6390" result="shape"/>
</filter>
</defs>
</svg>
