<svg width="16" height="12" viewBox="0 0 16 12" fill="currentColor" xmlns="http://www.w3.org/2000/svg">
<path d="M15.6059 4.03125H13.9809L13.0121 1.59375C12.6371 0.625 11.6996 0 10.6996 0H5.29336C4.29336 0 3.35586 0.625 2.98086 1.59375L2.01211 4H0.387113C0.137113 4 -0.0503866 4.25 0.0121134 4.46875L0.199613 5.21875C0.230863 5.40625 0.387113 5.5 0.574613 5.5H0.918363C0.668363 5.96875 0.512113 6.46875 0.512113 7V11.25C0.512113 11.6875 0.824613 12 1.26211 12H1.76211C2.16836 12 2.51211 11.6875 2.51211 11.25V10.5H13.5121V11.25C13.5121 11.6875 13.8246 12 14.2621 12H14.7621C15.1684 12 15.5121 11.6875 15.5121 11.25V7C15.5121 6.46875 15.3246 5.96875 15.0746 5.53125H15.4496C15.6059 5.53125 15.7621 5.40625 15.7934 5.21875L15.9809 4.46875C16.0434 4.25 15.8559 4.03125 15.6059 4.03125ZM4.38711 2.15625C4.54336 1.75 4.88711 1.5 5.29336 1.5H10.6996C11.1059 1.5 11.4809 1.75 11.6059 2.15625L12.3871 4H3.60586L4.38711 2.15625ZM14.0121 8.5C14.0121 8.78125 13.7621 9 13.5121 9H2.51211C2.23086 9 2.01211 8.78125 2.01211 8.5V7C2.01211 6.1875 2.66836 5.5 3.51211 5.5H12.5121C13.3246 5.5 14.0121 6.1875 14.0121 7V8.5ZM4.01211 6.25C3.38711 6.25 3.01211 6.65625 3.01211 7.25C3.01211 7.875 3.38711 8.25 4.01211 8.25C4.60586 8.25 5.51211 8.34375 5.51211 7.75C5.51211 7.15625 4.60586 6.25 4.01211 6.25ZM12.0121 6.25C11.3871 6.25 10.5121 7.15625 10.5121 7.75C10.5121 8.34375 11.3871 8.25 12.0121 8.25C12.6059 8.25 13.0121 7.875 13.0121 7.25C13.0121 6.65625 12.6059 6.25 12.0121 6.25Z" fill="currentColor"/>
</svg>
