<svg width="88" height="14" viewBox="0 0 88 14" fill="none" xmlns="http://www.w3.org/2000/svg">
<path d="M5.35846 0C4.45293 0 3.57597 0.126757 2.74517 0.362481L4.14083 1.77349L0 13.9967H4.55843L8.15089 8.44937C8.80586 7.48424 8.73772 6.48018 8.23551 5.91422L4.15402 1.78794C4.30238 1.77905 4.45073 1.77349 4.60129 1.77349C8.54211 1.77349 11.7378 5.0058 11.7378 8.9942C11.7378 10.9367 10.9796 12.6991 9.74766 13.9967H14.05C14.661 12.7146 15.0039 11.2781 15.0039 9.75919C15.0039 4.36979 10.6851 0 5.35846 0Z" fill="#FF2946"/>
<path d="M16.2238 13.3017C16.2238 13.5019 16.1578 13.6675 16.0271 13.801C15.8963 13.9333 15.7315 14 15.5314 14C15.3314 14 15.1677 13.9333 15.0369 13.801C14.9072 13.6687 14.8413 13.5019 14.8413 13.3017C14.8413 13.1016 14.9061 12.9304 15.0369 12.798C15.1666 12.6657 15.3314 12.599 15.5314 12.599C15.7315 12.599 15.8974 12.6657 16.0282 12.798C16.1578 12.9304 16.2238 13.0983 16.2238 13.3017ZM15.004 13.3017C15.004 13.4596 15.0534 13.5908 15.1534 13.6931C15.2534 13.7965 15.3798 13.8477 15.5325 13.8477C15.6853 13.8477 15.8128 13.7965 15.9128 13.6931C16.0128 13.5897 16.0633 13.4596 16.0633 13.3017C16.0633 13.1438 16.0139 13.0115 15.9139 12.9092C15.8139 12.8069 15.6875 12.7558 15.5325 12.7558C15.3776 12.7558 15.2512 12.8069 15.1523 12.9092C15.0534 13.0115 15.004 13.1427 15.004 13.3017ZM15.5622 12.9248C15.6413 12.9248 15.7062 12.9481 15.7556 12.9937C15.8051 13.0393 15.8293 13.096 15.8293 13.165C15.8293 13.2662 15.7853 13.3384 15.6963 13.384L15.8567 13.6609H15.6655L15.5347 13.4118H15.4336V13.6609H15.2655V12.9259H15.5622V12.9248ZM15.5622 13.076H15.4336V13.2595H15.5622C15.5897 13.2595 15.6117 13.2517 15.6293 13.235C15.6457 13.2183 15.6545 13.1961 15.6545 13.1683C15.6545 13.1405 15.6457 13.1183 15.6293 13.1005C15.6128 13.0838 15.5897 13.0749 15.5622 13.0749V13.076Z" fill="#FF2946"/>
<path d="M18.9052 5.49948H21.6811C22.3536 5.49948 22.9921 5.5762 23.5977 5.72742C24.2032 5.87975 24.7307 6.12548 25.1812 6.46572C25.6318 6.80597 25.9901 7.2485 26.2549 7.79223C26.5198 8.33706 26.6527 8.99642 26.6527 9.77364C26.6527 10.4619 26.5241 11.0679 26.267 11.5927C26.0098 12.1164 25.6637 12.5567 25.2285 12.9137C24.7933 13.2695 24.2911 13.5397 23.7218 13.7242C23.1526 13.9088 22.5548 14 21.9306 14H18.9052V5.49948ZM20.7558 12.2699H21.7174C22.1448 12.2699 22.5416 12.2254 22.9097 12.1376C23.2779 12.0497 23.5955 11.9029 23.8647 11.6995C24.1339 11.4949 24.3449 11.2269 24.4999 10.8956C24.6537 10.5631 24.7318 10.1572 24.7318 9.67691C24.7318 9.26105 24.6548 8.89857 24.4999 8.59057C24.346 8.28258 24.1383 8.02795 23.8768 7.82781C23.6152 7.62766 23.3086 7.47756 22.957 7.37749C22.6053 7.27741 22.235 7.22738 21.8481 7.22738H20.7569V12.2699H20.7558Z" fill="#3C3C3C"/>
<path d="M30.7321 13.1227H30.7079C30.5101 13.4352 30.2474 13.6586 29.9188 13.7954C29.5903 13.9311 29.2441 14 28.8803 14C28.6111 14 28.3529 13.9622 28.1034 13.8855C27.8539 13.8099 27.6352 13.6953 27.4451 13.543C27.255 13.3907 27.1044 13.2028 26.9946 12.9793C26.8836 12.7558 26.8286 12.4956 26.8286 12.1987C26.8286 11.8629 26.8902 11.5783 27.0121 11.3459C27.1352 11.1135 27.3012 10.9223 27.51 10.7699C27.7199 10.6176 27.9583 10.4997 28.2276 10.4152C28.4968 10.3307 28.7748 10.2696 29.0639 10.2295C29.3529 10.1895 29.6408 10.165 29.9298 10.1573C30.2189 10.1495 30.4859 10.145 30.731 10.145C30.731 9.8248 30.6178 9.57129 30.3925 9.38226C30.1672 9.19435 29.9002 9.09984 29.5914 9.09984C29.2826 9.09984 29.032 9.16211 28.7902 9.28553C28.5485 9.41006 28.3331 9.58018 28.1441 9.79589L27.1946 8.81186C27.5264 8.49941 27.9144 8.26591 28.3572 8.10913C28.8001 7.95346 29.2595 7.87452 29.7331 7.87452C30.2551 7.87452 30.6837 7.94012 31.02 8.07244C31.3563 8.20476 31.6255 8.39823 31.8266 8.65508C32.0288 8.91193 32.1684 9.22548 32.2475 9.59797C32.3266 9.97046 32.3662 10.4008 32.3662 10.8889V13.9978H30.7288V13.1216L30.7321 13.1227ZM30.2936 11.2981C30.1595 11.2981 29.9914 11.3036 29.7892 11.3159C29.587 11.3281 29.3936 11.3626 29.2078 11.4182C29.0221 11.4738 28.8639 11.5583 28.7331 11.6706C28.6023 11.7829 28.5375 11.9385 28.5375 12.1387C28.5375 12.3544 28.6287 12.5145 28.81 12.619C28.9924 12.7235 29.1815 12.7747 29.3793 12.7747C29.5529 12.7747 29.721 12.7502 29.8837 12.7024C30.0452 12.6546 30.1903 12.5868 30.3167 12.4978C30.443 12.41 30.5442 12.2977 30.6189 12.162C30.6936 12.0264 30.7321 11.8663 30.7321 11.6817V11.297H30.2936V11.2981Z" fill="#3C3C3C"/>
<path d="M32.9629 5.4995H34.7432V13.9989H32.9629V5.4995Z" fill="#3C3C3C"/>
<path d="M39.6357 10.9378C39.6357 10.4742 39.7193 10.0539 39.8852 9.67693C40.0511 9.30111 40.2786 8.97865 40.5676 8.71068C40.8567 8.44271 41.1962 8.2359 41.5875 8.09246C41.9787 7.94903 42.3963 7.87675 42.8392 7.87675C43.282 7.87675 43.6996 7.94903 44.0909 8.09246C44.4821 8.23701 44.8228 8.44271 45.1118 8.71068C45.4008 8.97865 45.6283 9.30111 45.7942 9.67693C45.9602 10.0528 46.0437 10.4731 46.0437 10.9378C46.0437 11.4026 45.9602 11.8218 45.7942 12.1987C45.6283 12.5746 45.4008 12.897 45.1118 13.165C44.8228 13.4329 44.4832 13.6386 44.0909 13.7832C43.6996 13.9277 43.282 13.9989 42.8392 13.9989C42.3963 13.9989 41.9787 13.9266 41.5875 13.7832C41.1962 13.6386 40.8556 13.4329 40.5676 13.165C40.2786 12.897 40.0511 12.5746 39.8852 12.1987C39.7193 11.8229 39.6357 11.4026 39.6357 10.9378ZM41.4149 10.9378C41.4149 11.3781 41.5391 11.734 41.7886 12.0064C42.038 12.2788 42.3875 12.4144 42.8392 12.4144C43.2908 12.4144 43.6403 12.2788 43.8898 12.0064C44.1392 11.734 44.2634 11.3781 44.2634 10.9378C44.2634 10.4975 44.1392 10.1417 43.8898 9.86929C43.6403 9.59687 43.2908 9.46122 42.8392 9.46122C42.3875 9.46122 42.038 9.59687 41.7886 9.86929C41.5391 10.1417 41.4149 10.4975 41.4149 10.9378Z" fill="#3C3C3C"/>
<path d="M46.636 8.16474H48.3449V8.95753H48.369C48.424 8.84523 48.5031 8.73404 48.6064 8.62173C48.7086 8.50943 48.8317 8.40936 48.9745 8.32152C49.1174 8.23368 49.279 8.16141 49.4614 8.10581C49.6438 8.05021 49.8416 8.02131 50.0548 8.02131C50.5054 8.02131 50.8691 8.09136 51.1461 8.23146C51.423 8.37156 51.6384 8.56614 51.7922 8.81409C51.9461 9.06205 52.0516 9.35448 52.1065 9.69028C52.1615 10.0261 52.1901 10.3908 52.1901 10.7822V14H50.4098V11.1424C50.4098 10.9745 50.4043 10.8 50.3922 10.6198C50.3801 10.4397 50.3449 10.274 50.2856 10.1217C50.2262 9.96936 50.135 9.84594 50.013 9.74921C49.89 9.65358 49.7141 9.60466 49.4856 9.60466C49.257 9.60466 49.0702 9.64691 48.9273 9.7303C48.7844 9.81481 48.6756 9.926 48.6009 10.0661C48.5251 10.2062 48.4767 10.3641 48.4525 10.5409C48.4284 10.7166 48.4174 10.9011 48.4174 11.0935V13.9989H46.6371V8.16474H46.636Z" fill="#3C3C3C"/>
<path d="M37.7203 9.46122V9.31779H39.2863V7.87676H37.7203V6.29229H36.3609L35.94 7.53318L35.8235 7.87676L35.3356 9.31779H35.94V12.2354C35.94 12.5557 35.9938 12.8281 36.1004 13.0516C36.207 13.2762 36.3554 13.4574 36.5455 13.5975C36.7356 13.7376 36.9565 13.8399 37.2104 13.9033C37.4631 13.9678 37.7401 13.9989 38.0412 13.9989C38.2467 13.9989 38.4566 13.9867 38.6698 13.9633C38.883 13.9389 39.0885 13.8911 39.2863 13.8188V12.3177C39.2072 12.39 39.0907 12.4356 38.9368 12.4556C38.783 12.4756 38.6577 12.4856 38.5632 12.4856C38.3731 12.4856 38.2214 12.46 38.106 12.4078C37.9917 12.3555 37.906 12.2821 37.8511 12.1854C37.7961 12.0898 37.7598 11.9752 37.7445 11.8429C37.7291 11.7106 37.7203 11.5649 37.7203 11.4048V9.46011V9.46122Z" fill="#3C3C3C"/>
<path d="M54.9715 8.0958C55.3132 7.50649 55.777 7.04617 56.3627 6.71593C56.9485 6.38458 57.5903 6.22002 58.2881 6.22002C59.0859 6.22002 59.7958 6.41794 60.4178 6.81489C61.0398 7.21184 61.4904 7.77335 61.7706 8.50054H60.2937C60.0991 8.10025 59.8299 7.80226 59.4848 7.60545C59.1398 7.40865 58.7408 7.3108 58.2881 7.3108C57.7925 7.3108 57.3496 7.4231 56.9617 7.64882C56.5737 7.87454 56.2693 8.1981 56.0506 8.61951C55.8308 9.04204 55.722 9.53239 55.722 10.0928C55.722 10.6532 55.8319 11.1435 56.0506 11.5661C56.2693 11.9886 56.5737 12.3133 56.9617 12.5423C57.3496 12.7714 57.7925 12.8859 58.2881 12.8859C58.7408 12.8859 59.1398 12.788 59.4848 12.5912C59.8299 12.3944 60.0991 12.0964 60.2937 11.6962H61.7706C61.4904 12.4233 61.0387 12.9837 60.4178 13.3762C59.7958 13.7687 59.0859 13.9656 58.2881 13.9656C57.5837 13.9656 56.9397 13.7999 56.3572 13.4696C55.7748 13.1383 55.3132 12.6791 54.9715 12.0898C54.6297 11.5005 54.4594 10.8355 54.4594 10.0928C54.4594 9.35003 54.6297 8.68511 54.9715 8.0958Z" fill="#3C3C3C"/>
<path d="M65.1511 8.04686C65.4489 7.87563 65.8038 7.79001 66.2138 7.79001V9.0776H65.9005C65.4192 9.0776 65.0544 9.20102 64.806 9.44898C64.5576 9.69693 64.4335 10.125 64.4335 10.7366V13.901H63.2037V7.88897H64.4335V8.76182C64.6137 8.45604 64.8522 8.2181 65.1511 8.04686Z" fill="#3C3C3C"/>
<path d="M72.748 11.3581H68.2082C68.2445 11.8385 68.4203 12.2243 68.7368 12.5145C69.0533 12.8058 69.4413 12.9515 69.9017 12.9515C70.5633 12.9515 71.0303 12.6713 71.304 12.1109H72.6304C72.4502 12.6635 72.1249 13.116 71.6545 13.4696C71.1831 13.8221 70.5996 13.9989 69.9017 13.9989C69.3336 13.9989 68.8248 13.8699 68.3753 13.612C67.9258 13.354 67.5731 12.9904 67.3181 12.5212C67.0631 12.052 66.9357 11.5082 66.9357 10.89C66.9357 10.2718 67.0598 9.72807 67.3071 9.25885C67.5555 8.78963 67.9038 8.42826 68.3533 8.17363C68.8028 7.91901 69.3182 7.79225 69.9006 7.79225C70.4831 7.79225 70.9611 7.91567 71.3996 8.16362C71.8381 8.41047 72.1798 8.75849 72.4238 9.20548C72.6678 9.65247 72.7909 10.1673 72.7909 10.7499C72.7909 10.9756 72.7766 11.1791 72.748 11.3615V11.3581ZM71.5084 10.3541C71.5007 9.89597 71.3391 9.52904 71.0227 9.25218C70.7062 8.97531 70.3149 8.83744 69.8468 8.83744C69.4226 8.83744 69.0599 8.9742 68.7577 9.24662C68.4555 9.51904 68.2764 9.88819 68.2181 10.3541H71.5073H71.5084Z" fill="#3C3C3C"/>
<path d="M73.9612 9.26333C74.2095 8.79744 74.5469 8.43607 74.9755 8.17811C75.403 7.92015 75.8799 7.79117 76.4041 7.79117C76.7921 7.79117 77.1756 7.87678 77.5525 8.04802C77.9295 8.21925 78.2295 8.44608 78.4526 8.72961V5.82754H79.6933V13.9011H78.4526V12.996C78.2515 13.2873 77.9723 13.5275 77.6174 13.7165C77.2613 13.9055 76.8536 14 76.3931 14C75.8755 14 75.403 13.8677 74.9755 13.602C74.548 13.3362 74.2095 12.966 73.9612 12.489C73.7128 12.0131 73.5897 11.4727 73.5897 10.8689C73.5897 10.2652 73.7139 9.73033 73.9612 9.26555V9.26333ZM78.1998 9.80927C78.0306 9.5035 77.8097 9.27111 77.536 9.111C77.2624 8.95088 76.9679 8.87083 76.6514 8.87083C76.3349 8.87083 76.0404 8.94866 75.7667 9.10544C75.4931 9.26222 75.2722 9.49127 75.1041 9.7926C74.9348 10.0939 74.8502 10.4531 74.8502 10.8678C74.8502 11.2825 74.9348 11.6461 75.1041 11.9586C75.2722 12.271 75.4953 12.5101 75.7722 12.6735C76.0492 12.837 76.3415 12.9193 76.6514 12.9193C76.9613 12.9193 77.2624 12.8392 77.536 12.6791C77.8097 12.519 78.0306 12.2844 78.1998 11.9753C78.369 11.6662 78.4537 11.3048 78.4537 10.89C78.4537 10.4753 78.369 10.115 78.1998 9.81039V9.80927Z" fill="#3C3C3C"/>
<path d="M81.3747 6.8627C81.223 6.70926 81.1483 6.52023 81.1483 6.29563C81.1483 6.07102 81.2241 5.88089 81.3747 5.72856C81.5253 5.57623 81.7121 5.4995 81.9352 5.4995C82.1583 5.4995 82.3341 5.57623 82.4846 5.72856C82.6352 5.88089 82.711 6.07102 82.711 6.29563C82.711 6.52023 82.6352 6.71037 82.4846 6.8627C82.3341 7.01503 82.1506 7.09175 81.9352 7.09175C81.7198 7.09175 81.5253 7.01503 81.3747 6.8627ZM82.5396 7.88788V13.9H81.3099V7.88788H82.5396Z" fill="#3C3C3C"/>
<path d="M85.5914 8.90308V12.231C85.5914 12.4567 85.643 12.618 85.7474 12.7169C85.8518 12.8159 86.0299 12.8637 86.2815 12.8637H87.0365V13.9H86.0661C85.5122 13.9 85.0881 13.7688 84.7935 13.5075C84.499 13.2451 84.3518 12.8203 84.3518 12.231V8.90308H83.6506V7.88791H84.3518V6.39351H85.5914V7.88791H87.0365V8.90308H85.5914Z" fill="#3C3C3C"/>
</svg>
