<svg width="22" height="21" viewBox="0 0 22 21" fill="none" xmlns="http://www.w3.org/2000/svg">
<path d="M20.2197 0H0.861328C0.408234 0 0.0410156 0.367218 0.0410156 0.820313C0.0410156 3.10469 1.02026 5.28557 2.7277 6.80331L6.32025 9.99644C6.94318 10.5502 7.30046 11.3458 7.30046 12.1794V20.1787C7.30046 20.8324 8.03105 21.2243 8.57563 20.8611L13.4153 17.6348C13.6435 17.4826 13.7806 17.2266 13.7806 16.9523V12.1794C13.7806 11.3458 14.1379 10.5502 14.7608 9.99644L18.3532 6.80331C20.0607 5.28557 21.0399 3.10469 21.0399 0.820313C21.0399 0.367218 20.6727 0 20.2197 0ZM17.2633 5.57701L13.6709 8.7703C12.698 9.63515 12.14 10.8776 12.14 12.1792V16.5133L8.94093 18.6459V12.1794C8.94093 10.8776 8.38289 9.63515 7.41005 8.7703L3.81766 5.57717C2.66634 4.55354 1.93142 3.15099 1.73467 1.64047H19.3462C19.1495 3.15099 18.4147 4.55354 17.2633 5.57701Z" fill="#989EA3"/>
</svg>
