<svg width="30" height="30" viewBox="0 0 30 30" fill="none" xmlns="http://www.w3.org/2000/svg">
<g clip-path="url(#clip0_11169_7627)">
<path d="M7.68182 1.08376C8.77776 2.59501 10.0846 4.54688 11.5959 6.93094C11.9765 7.57594 11.9184 8.34844 11.4262 9.25688C11.2387 9.6375 10.7643 10.5047 10.0087 11.8697C10.8403 13.0416 12.1068 14.4825 13.8112 16.1822C15.5156 17.8819 16.934 19.1531 18.0656 19.9847C19.4249 19.1878 20.2977 18.7012 20.6793 18.5081C21.1715 18.2447 21.6459 18.1097 22.0968 18.1097C22.4371 18.1097 22.7418 18.1856 23.0052 18.3384C24.7452 19.3987 26.714 20.7056 28.9059 22.2525C29.3221 22.5572 29.5565 22.9734 29.6146 23.5003C29.6737 24.0337 29.5087 24.5962 29.1346 25.2056C28.9471 25.469 28.6424 25.8562 28.2262 26.3719C27.8099 26.8819 27.1827 27.5259 26.3512 28.2994C25.5196 29.0728 24.839 29.4656 24.3065 29.4656H24.2474C20.2452 29.3072 15.3121 26.3072 9.47057 20.4656C3.62339 14.6175 0.622456 9.69 0.470581 5.68219C0.470581 5.15438 0.856831 4.46344 1.63683 3.60845C2.41027 2.75907 3.0487 2.14314 3.53526 1.76251C4.02745 1.38751 4.4437 1.08282 4.78308 0.854074C5.19933 0.549387 5.6737 0.403137 6.20151 0.403137C6.85214 0.403137 7.33776 0.631887 7.6837 1.08282L7.68182 1.08376ZM5.80682 2.27345C5.00995 2.84157 4.26558 3.48001 3.56245 4.17751C2.86495 4.88063 2.45527 5.39626 2.3437 5.73563C2.49652 9.25688 5.30245 13.7391 10.7699 19.1887C16.2374 24.6384 20.7309 27.4565 24.2465 27.644C24.5512 27.5325 25.049 27.1162 25.7521 26.3962C26.4552 25.6762 27.088 24.9197 27.6505 24.1284C27.7621 23.9756 27.8034 23.8472 27.7621 23.73C25.4943 22.1419 23.6015 20.8762 22.0846 19.9275C21.9318 19.9275 21.7443 19.9866 21.5165 20.0972C21.1762 20.2847 20.3268 20.759 18.9618 21.5147L17.9952 22.0828L17.0287 21.4556C15.7809 20.5884 14.2687 19.2403 12.4874 17.4244C10.7118 15.6487 9.38807 14.1319 8.51432 12.8831L7.83464 11.9747L8.40276 10.9547C9.15838 9.59531 9.6337 8.73938 9.82026 8.4C9.93182 8.17125 9.98994 7.98375 9.98994 7.83188C8.64182 5.68126 7.39401 3.78845 6.25776 2.16001H6.1987C6.05245 2.16001 5.91745 2.20126 5.80589 2.27157L5.80682 2.27345Z" fill="black"/>
</g>
<defs>
<clipPath id="clip0_11169_7627">
<rect width="30" height="30" fill="white"/>
</clipPath>
</defs>
</svg>
