<svg width="43" height="43" viewBox="0 0 43 43" fill="none" xmlns="http://www.w3.org/2000/svg">
<rect width="43" height="43" rx="5" fill="#007CFF"/>
<path d="M26.3406 26.1785C29.1073 21.8371 28.7595 22.3787 28.8392 22.2655C29.8465 20.8448 30.3789 19.1726 30.3789 17.4297C30.3789 12.8076 26.6282 9 22 9C17.3869 9 13.6211 12.8001 13.6211 17.4297C13.6211 19.1715 14.1647 20.8874 15.205 22.3273L17.6593 26.1786C15.0352 26.5818 10.5742 27.7836 10.5742 30.4297C10.5742 31.3943 11.2038 32.7689 14.2031 33.8401C16.2975 34.5881 19.0664 35 22 35C27.4856 35 33.4258 33.4526 33.4258 30.4297C33.4258 27.7831 28.97 26.5827 26.3406 26.1785ZM16.4775 21.4894C16.4691 21.4763 16.4604 21.4635 16.4512 21.4509C15.5856 20.26 15.1445 18.8486 15.1445 17.4297C15.1445 13.6202 18.212 10.5234 22 10.5234C25.7801 10.5234 28.8555 13.6216 28.8555 17.4297C28.8555 18.8509 28.4228 20.2144 27.6039 21.3739C27.5305 21.4707 27.9134 20.876 22 30.1549L16.4775 21.4894ZM22 33.4766C16.0081 33.4766 12.0977 31.7153 12.0977 30.4297C12.0977 29.5656 14.107 28.1448 18.5595 27.591L21.3576 31.9817C21.4975 32.2011 21.7397 32.334 21.9999 32.334C22.2602 32.334 22.5025 32.2011 22.6423 31.9817L25.4404 27.591C29.893 28.1448 31.9023 29.5656 31.9023 30.4297C31.9023 31.7044 28.0271 33.4766 22 33.4766Z" fill="white"/>
<path d="M22 13.6211C19.8999 13.6211 18.1914 15.3296 18.1914 17.4297C18.1914 19.5297 19.8999 21.2383 22 21.2383C24.1001 21.2383 25.8086 19.5297 25.8086 17.4297C25.8086 15.3296 24.1001 13.6211 22 13.6211ZM22 19.7148C20.74 19.7148 19.7148 18.6897 19.7148 17.4297C19.7148 16.1697 20.74 15.1445 22 15.1445C23.26 15.1445 24.2852 16.1697 24.2852 17.4297C24.2852 18.6897 23.26 19.7148 22 19.7148Z" fill="white"/>
</svg>
