<svg width="73" height="29" viewBox="0 0 73 29" fill="none" xmlns="http://www.w3.org/2000/svg">
<mask id="path-1-outside-1_11709_6059" maskUnits="userSpaceOnUse" x="0" y="10.2397" width="20" height="19" fill="black">
<rect fill="white" y="10.2397" width="20" height="19"/>
<path d="M18.7372 18.0868H9.76324C9.04425 18.0868 8.42559 18.5666 8.29349 19.2271C8.28513 19.2739 8.27679 19.3191 8.27345 19.3659C8.19988 20.0899 8.73829 20.7353 9.45226 20.8691L14.5554 22.4625C13.201 23.2869 11.6059 23.7584 9.89701 23.7584C9.55926 23.7584 9.22652 23.74 8.89712 23.7032C6.13154 23.3989 4.06824 21.0028 4.06824 18.2205V15.5904L4.41265 15.9666L4.55647 16.0987L7.38725 18.9295C7.64976 17.9012 8.58947 17.1354 9.69303 17.1354H10.8166L5.76369 12.0824C5.20188 11.5206 4.46284 11.2397 3.72379 11.2397C2.98474 11.2397 2.2457 11.5206 1.68389 12.0824C1.68054 12.0857 1 12.8164 1 14.1825V18.9546C1 23.8353 4.86748 27.9185 9.74822 27.9987C14.7326 28.0823 18.8007 24.066 18.8007 19.1V18.0868H18.7405H18.7372Z"/>
</mask>
<path d="M18.7372 18.0868H9.76324C9.04425 18.0868 8.42559 18.5666 8.29349 19.2271C8.28513 19.2739 8.27679 19.3191 8.27345 19.3659C8.19988 20.0899 8.73829 20.7353 9.45226 20.8691L14.5554 22.4625C13.201 23.2869 11.6059 23.7584 9.89701 23.7584C9.55926 23.7584 9.22652 23.74 8.89712 23.7032C6.13154 23.3989 4.06824 21.0028 4.06824 18.2205V15.5904L4.41265 15.9666L4.55647 16.0987L7.38725 18.9295C7.64976 17.9012 8.58947 17.1354 9.69303 17.1354H10.8166L5.76369 12.0824C5.20188 11.5206 4.46284 11.2397 3.72379 11.2397C2.98474 11.2397 2.2457 11.5206 1.68389 12.0824C1.68054 12.0857 1 12.8164 1 14.1825V18.9546C1 23.8353 4.86748 27.9185 9.74822 27.9987C14.7326 28.0823 18.8007 24.066 18.8007 19.1V18.0868H18.7405H18.7372Z" fill="#D10C2B" style="fill:#D10C2B;fill:color(display-p3 0.8196 0.0471 0.1686);fill-opacity:1;"/>
<path d="M18.7372 18.0868H9.76324C9.04425 18.0868 8.42559 18.5666 8.29349 19.2271C8.28513 19.2739 8.27679 19.3191 8.27345 19.3659C8.19988 20.0899 8.73829 20.7353 9.45226 20.8691L14.5554 22.4625C13.201 23.2869 11.6059 23.7584 9.89701 23.7584C9.55926 23.7584 9.22652 23.74 8.89712 23.7032C6.13154 23.3989 4.06824 21.0028 4.06824 18.2205V15.5904L4.41265 15.9666L4.55647 16.0987L7.38725 18.9295C7.64976 17.9012 8.58947 17.1354 9.69303 17.1354H10.8166L5.76369 12.0824C5.20188 11.5206 4.46284 11.2397 3.72379 11.2397C2.98474 11.2397 2.2457 11.5206 1.68389 12.0824C1.68054 12.0857 1 12.8164 1 14.1825V18.9546C1 23.8353 4.86748 27.9185 9.74822 27.9987C14.7326 28.0823 18.8007 24.066 18.8007 19.1V18.0868H18.7405H18.7372Z" stroke="white" style="stroke:white;stroke:white;stroke-opacity:1;" stroke-width="2" mask="url(#path-1-outside-1_11709_6059)"/>
<mask id="path-2-outside-2_11709_6059" maskUnits="userSpaceOnUse" x="9.81653" y="0" width="6" height="19" fill="black">
<rect fill="white" x="9.81653" width="6" height="19"/>
<path d="M12.3515 1.00167C11.5054 1.00167 10.8165 1.69056 10.8165 2.53662V15.786L12.1826 17.1437H13.8881V2.53495C13.8881 1.68889 13.1992 1 12.3531 1L12.3515 1.00167Z"/>
</mask>
<path d="M12.3515 1.00167C11.5054 1.00167 10.8165 1.69056 10.8165 2.53662V15.786L12.1826 17.1437H13.8881V2.53495C13.8881 1.68889 13.1992 1 12.3531 1L12.3515 1.00167Z" fill="#D10C2B" style="fill:#D10C2B;fill:color(display-p3 0.8196 0.0471 0.1686);fill-opacity:1;"/>
<path d="M12.3515 1.00167C11.5054 1.00167 10.8165 1.69056 10.8165 2.53662V15.786L12.1826 17.1437H13.8881V2.53495C13.8881 1.68889 13.1992 1 12.3531 1L12.3515 1.00167Z" stroke="white" style="stroke:white;stroke:white;stroke-opacity:1;" stroke-width="2" mask="url(#path-2-outside-2_11709_6059)"/>
<mask id="path-3-outside-3_11709_6059" maskUnits="userSpaceOnUse" x="14.7257" y="0.00167847" width="6" height="19" fill="black">
<rect fill="white" x="14.7257" y="0.00167847" width="6" height="19"/>
<path d="M17.2606 1.00168C16.4146 1.00168 15.7257 1.69056 15.7257 2.53663V17.1454H18.7973V2.53663C18.7973 1.69056 18.1084 1.00168 17.2623 1.00168H17.2606Z"/>
</mask>
<path d="M17.2606 1.00168C16.4146 1.00168 15.7257 1.69056 15.7257 2.53663V17.1454H18.7973V2.53663C18.7973 1.69056 18.1084 1.00168 17.2623 1.00168H17.2606Z" fill="#D10C2B" style="fill:#D10C2B;fill:color(display-p3 0.8196 0.0471 0.1686);fill-opacity:1;"/>
<path d="M17.2606 1.00168C16.4146 1.00168 15.7257 1.69056 15.7257 2.53663V17.1454H18.7973V2.53663C18.7973 1.69056 18.1084 1.00168 17.2623 1.00168H17.2606Z" stroke="white" style="stroke:white;stroke:white;stroke-opacity:1;" stroke-width="2" mask="url(#path-3-outside-3_11709_6059)"/>
<mask id="path-4-outside-4_11709_6059" maskUnits="userSpaceOnUse" x="4.90747" y="0.00167847" width="6" height="17" fill="black">
<rect fill="white" x="4.90747" y="0.00167847" width="6" height="17"/>
<path d="M7.44241 1.00168C6.59635 1.00168 5.90747 1.69056 5.90747 2.53663V10.9019L8.97902 13.9585V2.5383C8.97902 1.69224 8.29014 1.00335 7.44408 1.00335L7.44241 1.00168Z"/>
</mask>
<path d="M7.44241 1.00168C6.59635 1.00168 5.90747 1.69056 5.90747 2.53663V10.9019L8.97902 13.9585V2.5383C8.97902 1.69224 8.29014 1.00335 7.44408 1.00335L7.44241 1.00168Z" fill="#D10C2B" style="fill:#D10C2B;fill:color(display-p3 0.8196 0.0471 0.1686);fill-opacity:1;"/>
<path d="M7.44241 1.00168C6.59635 1.00168 5.90747 1.69056 5.90747 2.53663V10.9019L8.97902 13.9585V2.5383C8.97902 1.69224 8.29014 1.00335 7.44408 1.00335L7.44241 1.00168Z" stroke="white" style="stroke:white;stroke:white;stroke-opacity:1;" stroke-width="2" mask="url(#path-4-outside-4_11709_6059)"/>
<mask id="path-5-outside-5_11709_6059" maskUnits="userSpaceOnUse" x="22.3485" y="4.6416" width="9" height="8" fill="black">
<rect fill="white" x="22.3485" y="4.6416" width="9" height="8"/>
<path d="M26.5874 5.6416H27.5304L29.7827 10.82H28.4952L28.0488 9.72309H26.0373L25.6059 10.82H24.3485L26.5857 5.6416H26.5874ZM27.0271 7.14812L26.3985 8.75664H27.6642L27.0288 7.14812H27.0271Z"/>
</mask>
<path d="M26.5874 5.6416H27.5304L29.7827 10.82H28.4952L28.0488 9.72309H26.0373L25.6059 10.82H24.3485L26.5857 5.6416H26.5874ZM27.0271 7.14812L26.3985 8.75664H27.6642L27.0288 7.14812H27.0271Z" fill="#D10C2B" style="fill:#D10C2B;fill:color(display-p3 0.8196 0.0471 0.1686);fill-opacity:1;"/>
<path d="M26.5874 5.6416H27.5304L29.7827 10.82H28.4952L28.0488 9.72309H26.0373L25.6059 10.82H24.3485L26.5857 5.6416H26.5874ZM27.0271 7.14812L26.3985 8.75664H27.6642L27.0288 7.14812H27.0271Z" stroke="white" style="stroke:white;stroke:white;stroke-opacity:1;" stroke-width="2" mask="url(#path-5-outside-5_11709_6059)"/>
<mask id="path-6-outside-6_11709_6059" maskUnits="userSpaceOnUse" x="29.4349" y="3.207" width="7" height="9" fill="black">
<rect fill="white" x="29.4349" y="3.207" width="7" height="9"/>
<path d="M30.4349 5.64163H31.9849L34.187 9.23989H34.2021V5.64163H35.3424V10.82H33.8509L31.5903 7.13477H31.5753V10.82H30.4349V5.64163ZM31.4582 5.21692C31.4783 5.09486 31.5117 4.9728 31.5602 4.85074C31.6087 4.72868 31.6706 4.62 31.7458 4.52469C31.821 4.42938 31.913 4.35247 32.02 4.29395C32.1271 4.23543 32.2491 4.207 32.3862 4.207C32.5083 4.207 32.617 4.22205 32.7156 4.25047C32.8143 4.2789 32.9146 4.31568 33.0233 4.36083C33.0918 4.38591 33.1587 4.40932 33.2239 4.4344C33.2891 4.45948 33.3594 4.47119 33.4329 4.47119C33.5149 4.47119 33.5817 4.4461 33.6302 4.39427C33.6787 4.34244 33.7205 4.28057 33.7539 4.20867H34.3241C34.2991 4.3508 34.2656 4.48122 34.2221 4.60328C34.1787 4.72534 34.1185 4.83068 34.0432 4.92097C33.968 5.01126 33.8743 5.08316 33.7657 5.13666C33.657 5.19017 33.5249 5.21692 33.3744 5.21692C33.2674 5.21692 33.1654 5.20187 33.0701 5.1701C32.9748 5.13834 32.8862 5.10322 32.8026 5.06477C32.719 5.02631 32.6404 4.9912 32.5651 4.95943C32.4899 4.92766 32.4146 4.91261 32.3427 4.91261C32.2591 4.91261 32.1939 4.94605 32.1454 5.0146C32.097 5.08316 32.0601 5.15171 32.0367 5.2186H31.4582V5.21692Z"/>
</mask>
<path d="M30.4349 5.64163H31.9849L34.187 9.23989H34.2021V5.64163H35.3424V10.82H33.8509L31.5903 7.13477H31.5753V10.82H30.4349V5.64163ZM31.4582 5.21692C31.4783 5.09486 31.5117 4.9728 31.5602 4.85074C31.6087 4.72868 31.6706 4.62 31.7458 4.52469C31.821 4.42938 31.913 4.35247 32.02 4.29395C32.1271 4.23543 32.2491 4.207 32.3862 4.207C32.5083 4.207 32.617 4.22205 32.7156 4.25047C32.8143 4.2789 32.9146 4.31568 33.0233 4.36083C33.0918 4.38591 33.1587 4.40932 33.2239 4.4344C33.2891 4.45948 33.3594 4.47119 33.4329 4.47119C33.5149 4.47119 33.5817 4.4461 33.6302 4.39427C33.6787 4.34244 33.7205 4.28057 33.7539 4.20867H34.3241C34.2991 4.3508 34.2656 4.48122 34.2221 4.60328C34.1787 4.72534 34.1185 4.83068 34.0432 4.92097C33.968 5.01126 33.8743 5.08316 33.7657 5.13666C33.657 5.19017 33.5249 5.21692 33.3744 5.21692C33.2674 5.21692 33.1654 5.20187 33.0701 5.1701C32.9748 5.13834 32.8862 5.10322 32.8026 5.06477C32.719 5.02631 32.6404 4.9912 32.5651 4.95943C32.4899 4.92766 32.4146 4.91261 32.3427 4.91261C32.2591 4.91261 32.1939 4.94605 32.1454 5.0146C32.097 5.08316 32.0601 5.15171 32.0367 5.2186H31.4582V5.21692Z" fill="#D10C2B" style="fill:#D10C2B;fill:color(display-p3 0.8196 0.0471 0.1686);fill-opacity:1;"/>
<path d="M30.4349 5.64163H31.9849L34.187 9.23989H34.2021V5.64163H35.3424V10.82H33.8509L31.5903 7.13477H31.5753V10.82H30.4349V5.64163ZM31.4582 5.21692C31.4783 5.09486 31.5117 4.9728 31.5602 4.85074C31.6087 4.72868 31.6706 4.62 31.7458 4.52469C31.821 4.42938 31.913 4.35247 32.02 4.29395C32.1271 4.23543 32.2491 4.207 32.3862 4.207C32.5083 4.207 32.617 4.22205 32.7156 4.25047C32.8143 4.2789 32.9146 4.31568 33.0233 4.36083C33.0918 4.38591 33.1587 4.40932 33.2239 4.4344C33.2891 4.45948 33.3594 4.47119 33.4329 4.47119C33.5149 4.47119 33.5817 4.4461 33.6302 4.39427C33.6787 4.34244 33.7205 4.28057 33.7539 4.20867H34.3241C34.2991 4.3508 34.2656 4.48122 34.2221 4.60328C34.1787 4.72534 34.1185 4.83068 34.0432 4.92097C33.968 5.01126 33.8743 5.08316 33.7657 5.13666C33.657 5.19017 33.5249 5.21692 33.3744 5.21692C33.2674 5.21692 33.1654 5.20187 33.0701 5.1701C32.9748 5.13834 32.8862 5.10322 32.8026 5.06477C32.719 5.02631 32.6404 4.9912 32.5651 4.95943C32.4899 4.92766 32.4146 4.91261 32.3427 4.91261C32.2591 4.91261 32.1939 4.94605 32.1454 5.0146C32.097 5.08316 32.0601 5.15171 32.0367 5.2186H31.4582V5.21692Z" stroke="white" style="stroke:white;stroke:white;stroke-opacity:1;" stroke-width="2" mask="url(#path-6-outside-6_11709_6059)"/>
<mask id="path-7-outside-7_11709_6059" maskUnits="userSpaceOnUse" x="35.2487" y="4.50787" width="8" height="8" fill="black">
<rect fill="white" x="35.2487" y="4.50787" width="8" height="8"/>
<path d="M36.2487 8.22998C36.2487 7.81531 36.3172 7.44077 36.4577 7.10302C36.5964 6.76693 36.7904 6.48101 37.0395 6.24358C37.2887 6.00782 37.583 5.82556 37.9241 5.69849C38.2652 5.57141 38.638 5.50787 39.0427 5.50787C39.4473 5.50787 39.8202 5.57141 40.1613 5.69849C40.5024 5.82556 40.7983 6.00615 41.0458 6.24358C41.2949 6.47934 41.4889 6.76693 41.6277 7.10302C41.7664 7.4391 41.8367 7.81531 41.8367 8.22998C41.8367 8.64465 41.7664 9.0192 41.6277 9.35695C41.4889 9.69471 41.2949 9.98063 41.0458 10.2164C40.7966 10.4521 40.5024 10.6344 40.1613 10.7615C39.8202 10.8886 39.4473 10.9521 39.0427 10.9521C38.638 10.9521 38.2652 10.8886 37.9241 10.7615C37.583 10.6344 37.287 10.4538 37.0395 10.2164C36.7904 9.98063 36.5964 9.69303 36.4577 9.35695C36.3189 9.02087 36.2487 8.64465 36.2487 8.22998ZM37.4324 8.22998C37.4324 8.4741 37.4709 8.69649 37.5462 8.89881C37.6214 9.10113 37.7301 9.27669 37.8722 9.4255C38.0127 9.57432 38.1832 9.68969 38.3805 9.77329C38.5778 9.85689 38.7985 9.89703 39.0427 9.89703C39.2868 9.89703 39.5075 9.85522 39.7048 9.77329C39.9021 9.69136 40.071 9.57432 40.2131 9.4255C40.3536 9.27669 40.4622 9.10113 40.5391 8.89881C40.6144 8.69649 40.6528 8.4741 40.6528 8.22998C40.6528 7.98586 40.6144 7.7685 40.5391 7.5645C40.4639 7.36051 40.3552 7.18328 40.2131 7.03446C40.071 6.88565 39.9021 6.77028 39.7048 6.68667C39.5075 6.60307 39.2868 6.56294 39.0427 6.56294C38.7985 6.56294 38.5778 6.60474 38.3805 6.68667C38.1832 6.76861 38.0143 6.88565 37.8722 7.03446C37.7301 7.18328 37.6231 7.36051 37.5462 7.5645C37.4709 7.7685 37.4324 7.99088 37.4324 8.22998Z"/>
</mask>
<path d="M36.2487 8.22998C36.2487 7.81531 36.3172 7.44077 36.4577 7.10302C36.5964 6.76693 36.7904 6.48101 37.0395 6.24358C37.2887 6.00782 37.583 5.82556 37.9241 5.69849C38.2652 5.57141 38.638 5.50787 39.0427 5.50787C39.4473 5.50787 39.8202 5.57141 40.1613 5.69849C40.5024 5.82556 40.7983 6.00615 41.0458 6.24358C41.2949 6.47934 41.4889 6.76693 41.6277 7.10302C41.7664 7.4391 41.8367 7.81531 41.8367 8.22998C41.8367 8.64465 41.7664 9.0192 41.6277 9.35695C41.4889 9.69471 41.2949 9.98063 41.0458 10.2164C40.7966 10.4521 40.5024 10.6344 40.1613 10.7615C39.8202 10.8886 39.4473 10.9521 39.0427 10.9521C38.638 10.9521 38.2652 10.8886 37.9241 10.7615C37.583 10.6344 37.287 10.4538 37.0395 10.2164C36.7904 9.98063 36.5964 9.69303 36.4577 9.35695C36.3189 9.02087 36.2487 8.64465 36.2487 8.22998ZM37.4324 8.22998C37.4324 8.4741 37.4709 8.69649 37.5462 8.89881C37.6214 9.10113 37.7301 9.27669 37.8722 9.4255C38.0127 9.57432 38.1832 9.68969 38.3805 9.77329C38.5778 9.85689 38.7985 9.89703 39.0427 9.89703C39.2868 9.89703 39.5075 9.85522 39.7048 9.77329C39.9021 9.69136 40.071 9.57432 40.2131 9.4255C40.3536 9.27669 40.4622 9.10113 40.5391 8.89881C40.6144 8.69649 40.6528 8.4741 40.6528 8.22998C40.6528 7.98586 40.6144 7.7685 40.5391 7.5645C40.4639 7.36051 40.3552 7.18328 40.2131 7.03446C40.071 6.88565 39.9021 6.77028 39.7048 6.68667C39.5075 6.60307 39.2868 6.56294 39.0427 6.56294C38.7985 6.56294 38.5778 6.60474 38.3805 6.68667C38.1832 6.76861 38.0143 6.88565 37.8722 7.03446C37.7301 7.18328 37.6231 7.36051 37.5462 7.5645C37.4709 7.7685 37.4324 7.99088 37.4324 8.22998Z" fill="#D10C2B" style="fill:#D10C2B;fill:color(display-p3 0.8196 0.0471 0.1686);fill-opacity:1;"/>
<path d="M36.2487 8.22998C36.2487 7.81531 36.3172 7.44077 36.4577 7.10302C36.5964 6.76693 36.7904 6.48101 37.0395 6.24358C37.2887 6.00782 37.583 5.82556 37.9241 5.69849C38.2652 5.57141 38.638 5.50787 39.0427 5.50787C39.4473 5.50787 39.8202 5.57141 40.1613 5.69849C40.5024 5.82556 40.7983 6.00615 41.0458 6.24358C41.2949 6.47934 41.4889 6.76693 41.6277 7.10302C41.7664 7.4391 41.8367 7.81531 41.8367 8.22998C41.8367 8.64465 41.7664 9.0192 41.6277 9.35695C41.4889 9.69471 41.2949 9.98063 41.0458 10.2164C40.7966 10.4521 40.5024 10.6344 40.1613 10.7615C39.8202 10.8886 39.4473 10.9521 39.0427 10.9521C38.638 10.9521 38.2652 10.8886 37.9241 10.7615C37.583 10.6344 37.287 10.4538 37.0395 10.2164C36.7904 9.98063 36.5964 9.69303 36.4577 9.35695C36.3189 9.02087 36.2487 8.64465 36.2487 8.22998ZM37.4324 8.22998C37.4324 8.4741 37.4709 8.69649 37.5462 8.89881C37.6214 9.10113 37.7301 9.27669 37.8722 9.4255C38.0127 9.57432 38.1832 9.68969 38.3805 9.77329C38.5778 9.85689 38.7985 9.89703 39.0427 9.89703C39.2868 9.89703 39.5075 9.85522 39.7048 9.77329C39.9021 9.69136 40.071 9.57432 40.2131 9.4255C40.3536 9.27669 40.4622 9.10113 40.5391 8.89881C40.6144 8.69649 40.6528 8.4741 40.6528 8.22998C40.6528 7.98586 40.6144 7.7685 40.5391 7.5645C40.4639 7.36051 40.3552 7.18328 40.2131 7.03446C40.071 6.88565 39.9021 6.77028 39.7048 6.68667C39.5075 6.60307 39.2868 6.56294 39.0427 6.56294C38.7985 6.56294 38.5778 6.60474 38.3805 6.68667C38.1832 6.76861 38.0143 6.88565 37.8722 7.03446C37.7301 7.18328 37.6231 7.36051 37.5462 7.5645C37.4709 7.7685 37.4324 7.99088 37.4324 8.22998Z" stroke="white" style="stroke:white;stroke:white;stroke-opacity:1;" stroke-width="2" mask="url(#path-7-outside-7_11709_6059)"/>
<mask id="path-8-outside-8_11709_6059" maskUnits="userSpaceOnUse" x="40.3567" y="4.51123" width="8" height="8" fill="black">
<rect fill="white" x="40.3567" y="4.51123" width="8" height="8"/>
<path d="M45.3028 6.90573C45.2109 6.78868 45.0855 6.70173 44.9266 6.64656C44.7678 6.59138 44.619 6.56295 44.4768 6.56295C44.3932 6.56295 44.308 6.57299 44.221 6.59305C44.1341 6.61312 44.0505 6.64321 43.9719 6.68501C43.8933 6.72681 43.8297 6.78199 43.7812 6.84888C43.7328 6.91576 43.7077 6.99936 43.7077 7.09801C43.7077 7.25351 43.7662 7.3739 43.8833 7.45583C44.0003 7.53776 44.1474 7.60966 44.3263 7.66818C44.5052 7.72671 44.6959 7.78523 44.8999 7.84375C45.1039 7.90227 45.2961 7.98587 45.4734 8.09288C45.6506 8.1999 45.7994 8.34369 45.9165 8.52428C46.0335 8.70486 46.092 8.94563 46.092 9.24828C46.092 9.55092 46.0385 9.78668 45.9315 10.0024C45.8245 10.2164 45.679 10.3953 45.4968 10.5358C45.3145 10.6779 45.1022 10.7816 44.8614 10.8501C44.6207 10.9187 44.3648 10.9521 44.0973 10.9521C43.7612 10.9521 43.4485 10.9003 43.1609 10.7983C42.8733 10.6963 42.6058 10.5307 42.3567 10.3017L43.1676 9.4088C43.2847 9.5643 43.4318 9.68468 43.6107 9.77163C43.7896 9.85858 43.9735 9.90038 44.1625 9.90038C44.2544 9.90038 44.3481 9.88867 44.4434 9.86694C44.5387 9.8452 44.624 9.81176 44.6992 9.76829C44.7745 9.72481 44.8363 9.66796 44.8815 9.59941C44.9266 9.53086 44.9517 9.4506 44.9517 9.35863C44.9517 9.20313 44.8915 9.0794 44.7728 8.98911C44.6524 8.89882 44.5036 8.8219 44.323 8.75837C44.1424 8.69483 43.9468 8.63129 43.7378 8.56775C43.5288 8.50421 43.3332 8.41894 43.1526 8.31193C42.972 8.20491 42.8215 8.06279 42.7028 7.88722C42.5824 7.71166 42.5239 7.48091 42.5239 7.19165C42.5239 6.90238 42.5791 6.66997 42.6878 6.46096C42.7964 6.25195 42.9436 6.07639 43.1258 5.93426C43.3081 5.79381 43.5204 5.68679 43.7579 5.61657C43.997 5.54634 44.2427 5.51123 44.4969 5.51123C44.7895 5.51123 45.0721 5.55303 45.3446 5.63496C45.6172 5.71856 45.863 5.85735 46.0837 6.0513L45.3012 6.9074L45.3028 6.90573Z"/>
</mask>
<path d="M45.3028 6.90573C45.2109 6.78868 45.0855 6.70173 44.9266 6.64656C44.7678 6.59138 44.619 6.56295 44.4768 6.56295C44.3932 6.56295 44.308 6.57299 44.221 6.59305C44.1341 6.61312 44.0505 6.64321 43.9719 6.68501C43.8933 6.72681 43.8297 6.78199 43.7812 6.84888C43.7328 6.91576 43.7077 6.99936 43.7077 7.09801C43.7077 7.25351 43.7662 7.3739 43.8833 7.45583C44.0003 7.53776 44.1474 7.60966 44.3263 7.66818C44.5052 7.72671 44.6959 7.78523 44.8999 7.84375C45.1039 7.90227 45.2961 7.98587 45.4734 8.09288C45.6506 8.1999 45.7994 8.34369 45.9165 8.52428C46.0335 8.70486 46.092 8.94563 46.092 9.24828C46.092 9.55092 46.0385 9.78668 45.9315 10.0024C45.8245 10.2164 45.679 10.3953 45.4968 10.5358C45.3145 10.6779 45.1022 10.7816 44.8614 10.8501C44.6207 10.9187 44.3648 10.9521 44.0973 10.9521C43.7612 10.9521 43.4485 10.9003 43.1609 10.7983C42.8733 10.6963 42.6058 10.5307 42.3567 10.3017L43.1676 9.4088C43.2847 9.5643 43.4318 9.68468 43.6107 9.77163C43.7896 9.85858 43.9735 9.90038 44.1625 9.90038C44.2544 9.90038 44.3481 9.88867 44.4434 9.86694C44.5387 9.8452 44.624 9.81176 44.6992 9.76829C44.7745 9.72481 44.8363 9.66796 44.8815 9.59941C44.9266 9.53086 44.9517 9.4506 44.9517 9.35863C44.9517 9.20313 44.8915 9.0794 44.7728 8.98911C44.6524 8.89882 44.5036 8.8219 44.323 8.75837C44.1424 8.69483 43.9468 8.63129 43.7378 8.56775C43.5288 8.50421 43.3332 8.41894 43.1526 8.31193C42.972 8.20491 42.8215 8.06279 42.7028 7.88722C42.5824 7.71166 42.5239 7.48091 42.5239 7.19165C42.5239 6.90238 42.5791 6.66997 42.6878 6.46096C42.7964 6.25195 42.9436 6.07639 43.1258 5.93426C43.3081 5.79381 43.5204 5.68679 43.7579 5.61657C43.997 5.54634 44.2427 5.51123 44.4969 5.51123C44.7895 5.51123 45.0721 5.55303 45.3446 5.63496C45.6172 5.71856 45.863 5.85735 46.0837 6.0513L45.3012 6.9074L45.3028 6.90573Z" fill="#D10C2B" style="fill:#D10C2B;fill:color(display-p3 0.8196 0.0471 0.1686);fill-opacity:1;"/>
<path d="M45.3028 6.90573C45.2109 6.78868 45.0855 6.70173 44.9266 6.64656C44.7678 6.59138 44.619 6.56295 44.4768 6.56295C44.3932 6.56295 44.308 6.57299 44.221 6.59305C44.1341 6.61312 44.0505 6.64321 43.9719 6.68501C43.8933 6.72681 43.8297 6.78199 43.7812 6.84888C43.7328 6.91576 43.7077 6.99936 43.7077 7.09801C43.7077 7.25351 43.7662 7.3739 43.8833 7.45583C44.0003 7.53776 44.1474 7.60966 44.3263 7.66818C44.5052 7.72671 44.6959 7.78523 44.8999 7.84375C45.1039 7.90227 45.2961 7.98587 45.4734 8.09288C45.6506 8.1999 45.7994 8.34369 45.9165 8.52428C46.0335 8.70486 46.092 8.94563 46.092 9.24828C46.092 9.55092 46.0385 9.78668 45.9315 10.0024C45.8245 10.2164 45.679 10.3953 45.4968 10.5358C45.3145 10.6779 45.1022 10.7816 44.8614 10.8501C44.6207 10.9187 44.3648 10.9521 44.0973 10.9521C43.7612 10.9521 43.4485 10.9003 43.1609 10.7983C42.8733 10.6963 42.6058 10.5307 42.3567 10.3017L43.1676 9.4088C43.2847 9.5643 43.4318 9.68468 43.6107 9.77163C43.7896 9.85858 43.9735 9.90038 44.1625 9.90038C44.2544 9.90038 44.3481 9.88867 44.4434 9.86694C44.5387 9.8452 44.624 9.81176 44.6992 9.76829C44.7745 9.72481 44.8363 9.66796 44.8815 9.59941C44.9266 9.53086 44.9517 9.4506 44.9517 9.35863C44.9517 9.20313 44.8915 9.0794 44.7728 8.98911C44.6524 8.89882 44.5036 8.8219 44.323 8.75837C44.1424 8.69483 43.9468 8.63129 43.7378 8.56775C43.5288 8.50421 43.3332 8.41894 43.1526 8.31193C42.972 8.20491 42.8215 8.06279 42.7028 7.88722C42.5824 7.71166 42.5239 7.48091 42.5239 7.19165C42.5239 6.90238 42.5791 6.66997 42.6878 6.46096C42.7964 6.25195 42.9436 6.07639 43.1258 5.93426C43.3081 5.79381 43.5204 5.68679 43.7579 5.61657C43.997 5.54634 44.2427 5.51123 44.4969 5.51123C44.7895 5.51123 45.0721 5.55303 45.3446 5.63496C45.6172 5.71856 45.863 5.85735 46.0837 6.0513L45.3012 6.9074L45.3028 6.90573Z" stroke="white" style="stroke:white;stroke:white;stroke-opacity:1;" stroke-width="2" mask="url(#path-8-outside-8_11709_6059)"/>
<mask id="path-9-outside-9_11709_6059" maskUnits="userSpaceOnUse" x="23.6061" y="10.8032" width="8" height="8" fill="black">
<rect fill="white" x="23.6061" y="10.8032" width="8" height="8"/>
<path d="M29.5721 16.7491C29.236 16.9247 28.8849 17.0518 28.5187 17.1287C28.1525 17.2073 27.7796 17.2457 27.4001 17.2457C26.9954 17.2457 26.6226 17.1822 26.2815 17.0551C25.9404 16.928 25.6444 16.7474 25.397 16.51C25.1478 16.2742 24.9539 15.9867 24.8151 15.6506C24.6763 15.3145 24.6061 14.9383 24.6061 14.5253C24.6061 14.1123 24.6746 13.7361 24.8151 13.3983C24.9539 13.0622 25.1478 12.7763 25.397 12.5389C25.6461 12.3031 25.9404 12.1209 26.2815 11.9938C26.6226 11.8667 26.9954 11.8032 27.4001 11.8032C27.8047 11.8032 28.196 11.8533 28.5455 11.9536C28.8949 12.054 29.1992 12.2262 29.4634 12.4686L28.6591 13.3465C28.5036 13.186 28.3281 13.0639 28.1325 12.9803C27.9368 12.8967 27.6944 12.8566 27.4018 12.8566C27.1576 12.8566 26.9369 12.8984 26.7396 12.9803C26.5423 13.0622 26.3734 13.1793 26.2313 13.3281C26.0892 13.4769 25.9822 13.6541 25.9053 13.8581C25.83 14.0621 25.7916 14.2845 25.7916 14.5236C25.7916 14.7627 25.83 14.9901 25.9053 15.1924C25.9805 15.3947 26.0892 15.5703 26.2313 15.7191C26.3718 15.8679 26.5423 15.9833 26.7396 16.0669C26.9369 16.1488 27.1576 16.1906 27.4018 16.1906C27.6459 16.1906 27.8649 16.1622 28.0455 16.107C28.2261 16.0519 28.3699 15.9933 28.4769 15.9348V15.0938H27.5489V14.0404H29.5754V16.7458L29.5721 16.7491Z"/>
</mask>
<path d="M29.5721 16.7491C29.236 16.9247 28.8849 17.0518 28.5187 17.1287C28.1525 17.2073 27.7796 17.2457 27.4001 17.2457C26.9954 17.2457 26.6226 17.1822 26.2815 17.0551C25.9404 16.928 25.6444 16.7474 25.397 16.51C25.1478 16.2742 24.9539 15.9867 24.8151 15.6506C24.6763 15.3145 24.6061 14.9383 24.6061 14.5253C24.6061 14.1123 24.6746 13.7361 24.8151 13.3983C24.9539 13.0622 25.1478 12.7763 25.397 12.5389C25.6461 12.3031 25.9404 12.1209 26.2815 11.9938C26.6226 11.8667 26.9954 11.8032 27.4001 11.8032C27.8047 11.8032 28.196 11.8533 28.5455 11.9536C28.8949 12.054 29.1992 12.2262 29.4634 12.4686L28.6591 13.3465C28.5036 13.186 28.3281 13.0639 28.1325 12.9803C27.9368 12.8967 27.6944 12.8566 27.4018 12.8566C27.1576 12.8566 26.9369 12.8984 26.7396 12.9803C26.5423 13.0622 26.3734 13.1793 26.2313 13.3281C26.0892 13.4769 25.9822 13.6541 25.9053 13.8581C25.83 14.0621 25.7916 14.2845 25.7916 14.5236C25.7916 14.7627 25.83 14.9901 25.9053 15.1924C25.9805 15.3947 26.0892 15.5703 26.2313 15.7191C26.3718 15.8679 26.5423 15.9833 26.7396 16.0669C26.9369 16.1488 27.1576 16.1906 27.4018 16.1906C27.6459 16.1906 27.8649 16.1622 28.0455 16.107C28.2261 16.0519 28.3699 15.9933 28.4769 15.9348V15.0938H27.5489V14.0404H29.5754V16.7458L29.5721 16.7491Z" fill="#D10C2B" style="fill:#D10C2B;fill:color(display-p3 0.8196 0.0471 0.1686);fill-opacity:1;"/>
<path d="M29.5721 16.7491C29.236 16.9247 28.8849 17.0518 28.5187 17.1287C28.1525 17.2073 27.7796 17.2457 27.4001 17.2457C26.9954 17.2457 26.6226 17.1822 26.2815 17.0551C25.9404 16.928 25.6444 16.7474 25.397 16.51C25.1478 16.2742 24.9539 15.9867 24.8151 15.6506C24.6763 15.3145 24.6061 14.9383 24.6061 14.5253C24.6061 14.1123 24.6746 13.7361 24.8151 13.3983C24.9539 13.0622 25.1478 12.7763 25.397 12.5389C25.6461 12.3031 25.9404 12.1209 26.2815 11.9938C26.6226 11.8667 26.9954 11.8032 27.4001 11.8032C27.8047 11.8032 28.196 11.8533 28.5455 11.9536C28.8949 12.054 29.1992 12.2262 29.4634 12.4686L28.6591 13.3465C28.5036 13.186 28.3281 13.0639 28.1325 12.9803C27.9368 12.8967 27.6944 12.8566 27.4018 12.8566C27.1576 12.8566 26.9369 12.8984 26.7396 12.9803C26.5423 13.0622 26.3734 13.1793 26.2313 13.3281C26.0892 13.4769 25.9822 13.6541 25.9053 13.8581C25.83 14.0621 25.7916 14.2845 25.7916 14.5236C25.7916 14.7627 25.83 14.9901 25.9053 15.1924C25.9805 15.3947 26.0892 15.5703 26.2313 15.7191C26.3718 15.8679 26.5423 15.9833 26.7396 16.0669C26.9369 16.1488 27.1576 16.1906 27.4018 16.1906C27.6459 16.1906 27.8649 16.1622 28.0455 16.107C28.2261 16.0519 28.3699 15.9933 28.4769 15.9348V15.0938H27.5489V14.0404H29.5754V16.7458L29.5721 16.7491Z" stroke="white" style="stroke:white;stroke:white;stroke-opacity:1;" stroke-width="2" mask="url(#path-9-outside-9_11709_6059)"/>
<mask id="path-10-outside-10_11709_6059" maskUnits="userSpaceOnUse" x="28.1708" y="10.9369" width="9" height="8" fill="black">
<rect fill="white" x="28.1708" y="10.9369" width="9" height="8"/>
<path d="M32.4097 11.9369H33.3527L35.605 17.1153H34.3175L33.8711 16.0184H31.8596L31.4282 17.1153H30.1708L32.408 11.9369H32.4097ZM32.8494 13.4434L32.2207 15.052H33.4865L32.8511 13.4434H32.8494Z"/>
</mask>
<path d="M32.4097 11.9369H33.3527L35.605 17.1153H34.3175L33.8711 16.0184H31.8596L31.4282 17.1153H30.1708L32.408 11.9369H32.4097ZM32.8494 13.4434L32.2207 15.052H33.4865L32.8511 13.4434H32.8494Z" fill="#D10C2B" style="fill:#D10C2B;fill:color(display-p3 0.8196 0.0471 0.1686);fill-opacity:1;"/>
<path d="M32.4097 11.9369H33.3527L35.605 17.1153H34.3175L33.8711 16.0184H31.8596L31.4282 17.1153H30.1708L32.408 11.9369H32.4097ZM32.8494 13.4434L32.2207 15.052H33.4865L32.8511 13.4434H32.8494Z" stroke="white" style="stroke:white;stroke:white;stroke-opacity:1;" stroke-width="2" mask="url(#path-10-outside-10_11709_6059)"/>
<mask id="path-11-outside-11_11709_6059" maskUnits="userSpaceOnUse" x="35.2552" y="10.9369" width="7" height="8" fill="black">
<rect fill="white" x="35.2552" y="10.9369" width="7" height="8"/>
<path d="M36.2569 11.9369H38.26C38.5226 11.9369 38.7734 11.962 39.0091 12.0138C39.2449 12.0657 39.4522 12.1509 39.6311 12.2697C39.8084 12.3884 39.9505 12.5506 40.0558 12.7529C40.1612 12.9552 40.213 13.2077 40.213 13.5103C40.213 13.8765 40.1177 14.1875 39.9271 14.4433C39.7365 14.6992 39.4589 14.8614 39.0927 14.9299L40.4086 17.117H39.0409L37.9591 15.0469H37.3956V17.117H36.2552V11.9386L36.2569 11.9369ZM37.3972 14.0788H38.0694C38.1714 14.0788 38.2801 14.0755 38.3955 14.0671C38.5108 14.0588 38.6128 14.037 38.7065 14.0019C38.8001 13.9668 38.8753 13.9083 38.9372 13.8297C38.9974 13.7511 39.0292 13.6424 39.0292 13.5003C39.0292 13.3682 39.0024 13.2645 38.9489 13.1859C38.8954 13.1074 38.8269 13.0488 38.7449 13.007C38.663 12.9652 38.5677 12.9368 38.459 12.9234C38.352 12.9084 38.2466 12.9017 38.1446 12.9017H37.3989V14.0788H37.3972Z"/>
</mask>
<path d="M36.2569 11.9369H38.26C38.5226 11.9369 38.7734 11.962 39.0091 12.0138C39.2449 12.0657 39.4522 12.1509 39.6311 12.2697C39.8084 12.3884 39.9505 12.5506 40.0558 12.7529C40.1612 12.9552 40.213 13.2077 40.213 13.5103C40.213 13.8765 40.1177 14.1875 39.9271 14.4433C39.7365 14.6992 39.4589 14.8614 39.0927 14.9299L40.4086 17.117H39.0409L37.9591 15.0469H37.3956V17.117H36.2552V11.9386L36.2569 11.9369ZM37.3972 14.0788H38.0694C38.1714 14.0788 38.2801 14.0755 38.3955 14.0671C38.5108 14.0588 38.6128 14.037 38.7065 14.0019C38.8001 13.9668 38.8753 13.9083 38.9372 13.8297C38.9974 13.7511 39.0292 13.6424 39.0292 13.5003C39.0292 13.3682 39.0024 13.2645 38.9489 13.1859C38.8954 13.1074 38.8269 13.0488 38.7449 13.007C38.663 12.9652 38.5677 12.9368 38.459 12.9234C38.352 12.9084 38.2466 12.9017 38.1446 12.9017H37.3989V14.0788H37.3972Z" fill="#D10C2B" style="fill:#D10C2B;fill:color(display-p3 0.8196 0.0471 0.1686);fill-opacity:1;"/>
<path d="M36.2569 11.9369H38.26C38.5226 11.9369 38.7734 11.962 39.0091 12.0138C39.2449 12.0657 39.4522 12.1509 39.6311 12.2697C39.8084 12.3884 39.9505 12.5506 40.0558 12.7529C40.1612 12.9552 40.213 13.2077 40.213 13.5103C40.213 13.8765 40.1177 14.1875 39.9271 14.4433C39.7365 14.6992 39.4589 14.8614 39.0927 14.9299L40.4086 17.117H39.0409L37.9591 15.0469H37.3956V17.117H36.2552V11.9386L36.2569 11.9369ZM37.3972 14.0788H38.0694C38.1714 14.0788 38.2801 14.0755 38.3955 14.0671C38.5108 14.0588 38.6128 14.037 38.7065 14.0019C38.8001 13.9668 38.8753 13.9083 38.9372 13.8297C38.9974 13.7511 39.0292 13.6424 39.0292 13.5003C39.0292 13.3682 39.0024 13.2645 38.9489 13.1859C38.8954 13.1074 38.8269 13.0488 38.7449 13.007C38.663 12.9652 38.5677 12.9368 38.459 12.9234C38.352 12.9084 38.2466 12.9017 38.1446 12.9017H37.3989V14.0788H37.3972Z" stroke="white" style="stroke:white;stroke:white;stroke-opacity:1;" stroke-width="2" mask="url(#path-11-outside-11_11709_6059)"/>
<mask id="path-12-outside-12_11709_6059" maskUnits="userSpaceOnUse" x="38.5928" y="10.9369" width="9" height="8" fill="black">
<rect fill="white" x="38.5928" y="10.9369" width="9" height="8"/>
<path d="M42.8316 11.9369H43.7747L46.027 17.1153H44.7395L44.293 16.0184H42.2815L41.8502 17.1153H40.5928L42.83 11.9369H42.8316ZM43.2714 13.4434L42.6427 15.052H43.9084L43.2731 13.4434H43.2714Z"/>
</mask>
<path d="M42.8316 11.9369H43.7747L46.027 17.1153H44.7395L44.293 16.0184H42.2815L41.8502 17.1153H40.5928L42.83 11.9369H42.8316ZM43.2714 13.4434L42.6427 15.052H43.9084L43.2731 13.4434H43.2714Z" fill="#D10C2B" style="fill:#D10C2B;fill:color(display-p3 0.8196 0.0471 0.1686);fill-opacity:1;"/>
<path d="M42.8316 11.9369H43.7747L46.027 17.1153H44.7395L44.293 16.0184H42.2815L41.8502 17.1153H40.5928L42.83 11.9369H42.8316ZM43.2714 13.4434L42.6427 15.052H43.9084L43.2731 13.4434H43.2714Z" stroke="white" style="stroke:white;stroke:white;stroke-opacity:1;" stroke-width="2" mask="url(#path-12-outside-12_11709_6059)"/>
<mask id="path-13-outside-13_11709_6059" maskUnits="userSpaceOnUse" x="45.6788" y="10.9369" width="7" height="8" fill="black">
<rect fill="white" x="45.6788" y="10.9369" width="7" height="8"/>
<path d="M46.6788 11.9369H48.2288L50.4309 15.5352H50.446V11.9369H51.5863V17.1153H50.0948L47.8343 13.4301H47.8192V17.1153H46.6788V11.9369Z"/>
</mask>
<path d="M46.6788 11.9369H48.2288L50.4309 15.5352H50.446V11.9369H51.5863V17.1153H50.0948L47.8343 13.4301H47.8192V17.1153H46.6788V11.9369Z" fill="#D10C2B" style="fill:#D10C2B;fill:color(display-p3 0.8196 0.0471 0.1686);fill-opacity:1;"/>
<path d="M46.6788 11.9369H48.2288L50.4309 15.5352H50.446V11.9369H51.5863V17.1153H50.0948L47.8343 13.4301H47.8192V17.1153H46.6788V11.9369Z" stroke="white" style="stroke:white;stroke:white;stroke-opacity:1;" stroke-width="2" mask="url(#path-13-outside-13_11709_6059)"/>
<mask id="path-14-outside-14_11709_6059" maskUnits="userSpaceOnUse" x="51.2937" y="10.9353" width="7" height="8" fill="black">
<rect fill="white" x="51.2937" y="10.9353" width="7" height="8"/>
<path d="M53.7718 12.9452H52.2937V11.9353H56.3886V12.9452H54.9105V17.1136H53.7701V12.9452H53.7718Z"/>
</mask>
<path d="M53.7718 12.9452H52.2937V11.9353H56.3886V12.9452H54.9105V17.1136H53.7701V12.9452H53.7718Z" fill="#D10C2B" style="fill:#D10C2B;fill:color(display-p3 0.8196 0.0471 0.1686);fill-opacity:1;"/>
<path d="M53.7718 12.9452H52.2937V11.9353H56.3886V12.9452H54.9105V17.1136H53.7701V12.9452H53.7718Z" stroke="white" style="stroke:white;stroke:white;stroke-opacity:1;" stroke-width="2" mask="url(#path-14-outside-14_11709_6059)"/>
<mask id="path-15-outside-15_11709_6059" maskUnits="userSpaceOnUse" x="54.9236" y="9.50232" width="7" height="9" fill="black">
<rect fill="white" x="54.9236" y="9.50232" width="7" height="9"/>
<path d="M57.6626 10.5023H59.1541L57.8884 11.5557H56.9236L57.6626 10.5023ZM57.0858 11.9353H58.2261V17.1136H57.0858V11.9353Z"/>
</mask>
<path d="M57.6626 10.5023H59.1541L57.8884 11.5557H56.9236L57.6626 10.5023ZM57.0858 11.9353H58.2261V17.1136H57.0858V11.9353Z" fill="#D10C2B" style="fill:#D10C2B;fill:color(display-p3 0.8196 0.0471 0.1686);fill-opacity:1;"/>
<path d="M57.6626 10.5023H59.1541L57.8884 11.5557H56.9236L57.6626 10.5023ZM57.0858 11.9353H58.2261V17.1136H57.0858V11.9353Z" stroke="white" style="stroke:white;stroke:white;stroke-opacity:1;" stroke-width="2" mask="url(#path-15-outside-15_11709_6059)"/>
<mask id="path-16-outside-16_11709_6059" maskUnits="userSpaceOnUse" x="56.8616" y="10.9369" width="9" height="8" fill="black">
<rect fill="white" x="56.8616" y="10.9369" width="9" height="8"/>
<path d="M61.1004 11.9369H62.0435L64.2958 17.1153H63.0083L62.5618 16.0184H60.5503L60.119 17.1153H58.8616L61.0988 11.9369H61.1004ZM61.5402 13.4434L60.9115 15.052H62.1772L61.5419 13.4434H61.5402Z"/>
</mask>
<path d="M61.1004 11.9369H62.0435L64.2958 17.1153H63.0083L62.5618 16.0184H60.5503L60.119 17.1153H58.8616L61.0988 11.9369H61.1004ZM61.5402 13.4434L60.9115 15.052H62.1772L61.5419 13.4434H61.5402Z" fill="#D10C2B" style="fill:#D10C2B;fill:color(display-p3 0.8196 0.0471 0.1686);fill-opacity:1;"/>
<path d="M61.1004 11.9369H62.0435L64.2958 17.1153H63.0083L62.5618 16.0184H60.5503L60.119 17.1153H58.8616L61.0988 11.9369H61.1004ZM61.5402 13.4434L60.9115 15.052H62.1772L61.5419 13.4434H61.5402Z" stroke="white" style="stroke:white;stroke:white;stroke-opacity:1;" stroke-width="2" mask="url(#path-16-outside-16_11709_6059)"/>
<mask id="path-17-outside-17_11709_6059" maskUnits="userSpaceOnUse" x="23.6061" y="17.3978" width="8" height="8" fill="black">
<rect fill="white" x="23.6061" y="17.3978" width="8" height="8"/>
<path d="M24.6061 21.1199C24.6061 20.7052 24.6746 20.3307 24.8151 19.9929C24.9539 19.6568 25.1478 19.3709 25.397 19.1335C25.6461 18.8977 25.9404 18.7155 26.2815 18.5884C26.6226 18.4613 26.9954 18.3978 27.4001 18.3978C27.8047 18.3978 28.1776 18.4613 28.5187 18.5884C28.8598 18.7155 29.1557 18.896 29.4032 19.1335C29.6523 19.3692 29.8463 19.6568 29.9851 19.9929C30.1239 20.329 30.1941 20.7052 30.1941 21.1199C30.1941 21.5345 30.1239 21.9091 29.9851 22.2452C29.8463 22.5813 29.6523 22.8688 29.4032 23.1046C29.1541 23.3404 28.8598 23.5226 28.5187 23.6497C28.1776 23.7768 27.8047 23.8403 27.4001 23.8403C26.9954 23.8403 26.6226 23.7768 26.2815 23.6497C25.9404 23.5226 25.6444 23.342 25.397 23.1046C25.1478 22.8688 24.9539 22.5813 24.8151 22.2452C24.6763 21.9091 24.6061 21.5329 24.6061 21.1199ZM25.7899 21.1199C25.7899 21.364 25.8284 21.5864 25.9036 21.7887C25.9788 21.991 26.0875 22.1666 26.2296 22.3154C26.3701 22.4642 26.5406 22.5796 26.738 22.6632C26.9353 22.7451 27.156 22.7869 27.4001 22.7869C27.6442 22.7869 27.8649 22.7451 28.0622 22.6632C28.2596 22.5796 28.4284 22.4642 28.5705 22.3154C28.711 22.1666 28.8197 21.991 28.8966 21.7887C28.9718 21.5864 29.0103 21.364 29.0103 21.1199C29.0103 20.8758 28.9718 20.6584 28.8966 20.4544C28.8214 20.2504 28.7126 20.0732 28.5705 19.9244C28.4284 19.7755 28.2596 19.6602 28.0622 19.5766C27.8649 19.493 27.6442 19.4528 27.4001 19.4528C27.156 19.4528 26.9353 19.4946 26.738 19.5766C26.5406 19.6585 26.3718 19.7755 26.2296 19.9244C26.0875 20.0732 25.9805 20.2504 25.9036 20.4544C25.8284 20.6584 25.7899 20.8808 25.7899 21.1199Z"/>
</mask>
<path d="M24.6061 21.1199C24.6061 20.7052 24.6746 20.3307 24.8151 19.9929C24.9539 19.6568 25.1478 19.3709 25.397 19.1335C25.6461 18.8977 25.9404 18.7155 26.2815 18.5884C26.6226 18.4613 26.9954 18.3978 27.4001 18.3978C27.8047 18.3978 28.1776 18.4613 28.5187 18.5884C28.8598 18.7155 29.1557 18.896 29.4032 19.1335C29.6523 19.3692 29.8463 19.6568 29.9851 19.9929C30.1239 20.329 30.1941 20.7052 30.1941 21.1199C30.1941 21.5345 30.1239 21.9091 29.9851 22.2452C29.8463 22.5813 29.6523 22.8688 29.4032 23.1046C29.1541 23.3404 28.8598 23.5226 28.5187 23.6497C28.1776 23.7768 27.8047 23.8403 27.4001 23.8403C26.9954 23.8403 26.6226 23.7768 26.2815 23.6497C25.9404 23.5226 25.6444 23.342 25.397 23.1046C25.1478 22.8688 24.9539 22.5813 24.8151 22.2452C24.6763 21.9091 24.6061 21.5329 24.6061 21.1199ZM25.7899 21.1199C25.7899 21.364 25.8284 21.5864 25.9036 21.7887C25.9788 21.991 26.0875 22.1666 26.2296 22.3154C26.3701 22.4642 26.5406 22.5796 26.738 22.6632C26.9353 22.7451 27.156 22.7869 27.4001 22.7869C27.6442 22.7869 27.8649 22.7451 28.0622 22.6632C28.2596 22.5796 28.4284 22.4642 28.5705 22.3154C28.711 22.1666 28.8197 21.991 28.8966 21.7887C28.9718 21.5864 29.0103 21.364 29.0103 21.1199C29.0103 20.8758 28.9718 20.6584 28.8966 20.4544C28.8214 20.2504 28.7126 20.0732 28.5705 19.9244C28.4284 19.7755 28.2596 19.6602 28.0622 19.5766C27.8649 19.493 27.6442 19.4528 27.4001 19.4528C27.156 19.4528 26.9353 19.4946 26.738 19.5766C26.5406 19.6585 26.3718 19.7755 26.2296 19.9244C26.0875 20.0732 25.9805 20.2504 25.9036 20.4544C25.8284 20.6584 25.7899 20.8808 25.7899 21.1199Z" fill="#D10C2B" style="fill:#D10C2B;fill:color(display-p3 0.8196 0.0471 0.1686);fill-opacity:1;"/>
<path d="M24.6061 21.1199C24.6061 20.7052 24.6746 20.3307 24.8151 19.9929C24.9539 19.6568 25.1478 19.3709 25.397 19.1335C25.6461 18.8977 25.9404 18.7155 26.2815 18.5884C26.6226 18.4613 26.9954 18.3978 27.4001 18.3978C27.8047 18.3978 28.1776 18.4613 28.5187 18.5884C28.8598 18.7155 29.1557 18.896 29.4032 19.1335C29.6523 19.3692 29.8463 19.6568 29.9851 19.9929C30.1239 20.329 30.1941 20.7052 30.1941 21.1199C30.1941 21.5345 30.1239 21.9091 29.9851 22.2452C29.8463 22.5813 29.6523 22.8688 29.4032 23.1046C29.1541 23.3404 28.8598 23.5226 28.5187 23.6497C28.1776 23.7768 27.8047 23.8403 27.4001 23.8403C26.9954 23.8403 26.6226 23.7768 26.2815 23.6497C25.9404 23.5226 25.6444 23.342 25.397 23.1046C25.1478 22.8688 24.9539 22.5813 24.8151 22.2452C24.6763 21.9091 24.6061 21.5329 24.6061 21.1199ZM25.7899 21.1199C25.7899 21.364 25.8284 21.5864 25.9036 21.7887C25.9788 21.991 26.0875 22.1666 26.2296 22.3154C26.3701 22.4642 26.5406 22.5796 26.738 22.6632C26.9353 22.7451 27.156 22.7869 27.4001 22.7869C27.6442 22.7869 27.8649 22.7451 28.0622 22.6632C28.2596 22.5796 28.4284 22.4642 28.5705 22.3154C28.711 22.1666 28.8197 21.991 28.8966 21.7887C28.9718 21.5864 29.0103 21.364 29.0103 21.1199C29.0103 20.8758 28.9718 20.6584 28.8966 20.4544C28.8214 20.2504 28.7126 20.0732 28.5705 19.9244C28.4284 19.7755 28.2596 19.6602 28.0622 19.5766C27.8649 19.493 27.6442 19.4528 27.4001 19.4528C27.156 19.4528 26.9353 19.4946 26.738 19.5766C26.5406 19.6585 26.3718 19.7755 26.2296 19.9244C26.0875 20.0732 25.9805 20.2504 25.9036 20.4544C25.8284 20.6584 25.7899 20.8808 25.7899 21.1199Z" stroke="white" style="stroke:white;stroke:white;stroke-opacity:1;" stroke-width="2" mask="url(#path-17-outside-17_11709_6059)"/>
<mask id="path-18-outside-18_11709_6059" maskUnits="userSpaceOnUse" x="32.0884" y="17.5315" width="6" height="8" fill="black">
<rect fill="white" x="32.0884" y="17.5315" width="6" height="8"/>
<path d="M34.9694 20.3808C35.028 20.3658 35.0865 20.3541 35.145 20.344C35.2035 20.334 35.2637 20.329 35.3273 20.329C35.5714 20.329 35.7921 20.3725 35.9928 20.4611C36.1917 20.548 36.3623 20.6684 36.5044 20.8189C36.6465 20.9694 36.7552 21.15 36.8338 21.3573C36.9124 21.5646 36.9508 21.7853 36.9508 22.0194C36.9508 22.287 36.9007 22.5311 36.8003 22.7468C36.7 22.9641 36.5646 23.1497 36.3907 23.3069C36.2185 23.4624 36.0128 23.5828 35.7771 23.6698C35.5413 23.7567 35.2888 23.7985 35.0196 23.7985C34.7504 23.7985 34.4929 23.755 34.2588 23.6698C34.0247 23.5845 33.8208 23.4641 33.6485 23.3069C33.4763 23.1514 33.3392 22.9641 33.2389 22.7468C33.1386 22.5294 33.0884 22.287 33.0884 22.0194C33.0884 21.8338 33.1051 21.665 33.1402 21.5111C33.1753 21.3573 33.2188 21.2118 33.2757 21.0764C33.3308 20.9393 33.3977 20.8089 33.473 20.6851C33.5482 20.5614 33.6284 20.4327 33.7104 20.3006L34.844 18.5315H36.1817L34.9678 20.3825L34.9694 20.3808ZM35.854 21.9743C35.854 21.7402 35.7771 21.5462 35.6232 21.3924C35.4694 21.2386 35.2687 21.1617 35.0196 21.1617C34.7705 21.1617 34.5699 21.2386 34.416 21.3924C34.2622 21.5462 34.1853 21.7402 34.1853 21.9743C34.1853 22.2084 34.2622 22.4023 34.416 22.5562C34.5699 22.71 34.7705 22.7869 35.0196 22.7869C35.2687 22.7869 35.4694 22.71 35.6232 22.5562C35.7771 22.4023 35.854 22.2084 35.854 21.9743Z"/>
</mask>
<path d="M34.9694 20.3808C35.028 20.3658 35.0865 20.3541 35.145 20.344C35.2035 20.334 35.2637 20.329 35.3273 20.329C35.5714 20.329 35.7921 20.3725 35.9928 20.4611C36.1917 20.548 36.3623 20.6684 36.5044 20.8189C36.6465 20.9694 36.7552 21.15 36.8338 21.3573C36.9124 21.5646 36.9508 21.7853 36.9508 22.0194C36.9508 22.287 36.9007 22.5311 36.8003 22.7468C36.7 22.9641 36.5646 23.1497 36.3907 23.3069C36.2185 23.4624 36.0128 23.5828 35.7771 23.6698C35.5413 23.7567 35.2888 23.7985 35.0196 23.7985C34.7504 23.7985 34.4929 23.755 34.2588 23.6698C34.0247 23.5845 33.8208 23.4641 33.6485 23.3069C33.4763 23.1514 33.3392 22.9641 33.2389 22.7468C33.1386 22.5294 33.0884 22.287 33.0884 22.0194C33.0884 21.8338 33.1051 21.665 33.1402 21.5111C33.1753 21.3573 33.2188 21.2118 33.2757 21.0764C33.3308 20.9393 33.3977 20.8089 33.473 20.6851C33.5482 20.5614 33.6284 20.4327 33.7104 20.3006L34.844 18.5315H36.1817L34.9678 20.3825L34.9694 20.3808ZM35.854 21.9743C35.854 21.7402 35.7771 21.5462 35.6232 21.3924C35.4694 21.2386 35.2687 21.1617 35.0196 21.1617C34.7705 21.1617 34.5699 21.2386 34.416 21.3924C34.2622 21.5462 34.1853 21.7402 34.1853 21.9743C34.1853 22.2084 34.2622 22.4023 34.416 22.5562C34.5699 22.71 34.7705 22.7869 35.0196 22.7869C35.2687 22.7869 35.4694 22.71 35.6232 22.5562C35.7771 22.4023 35.854 22.2084 35.854 21.9743Z" fill="#D10C2B" style="fill:#D10C2B;fill:color(display-p3 0.8196 0.0471 0.1686);fill-opacity:1;"/>
<path d="M34.9694 20.3808C35.028 20.3658 35.0865 20.3541 35.145 20.344C35.2035 20.334 35.2637 20.329 35.3273 20.329C35.5714 20.329 35.7921 20.3725 35.9928 20.4611C36.1917 20.548 36.3623 20.6684 36.5044 20.8189C36.6465 20.9694 36.7552 21.15 36.8338 21.3573C36.9124 21.5646 36.9508 21.7853 36.9508 22.0194C36.9508 22.287 36.9007 22.5311 36.8003 22.7468C36.7 22.9641 36.5646 23.1497 36.3907 23.3069C36.2185 23.4624 36.0128 23.5828 35.7771 23.6698C35.5413 23.7567 35.2888 23.7985 35.0196 23.7985C34.7504 23.7985 34.4929 23.755 34.2588 23.6698C34.0247 23.5845 33.8208 23.4641 33.6485 23.3069C33.4763 23.1514 33.3392 22.9641 33.2389 22.7468C33.1386 22.5294 33.0884 22.287 33.0884 22.0194C33.0884 21.8338 33.1051 21.665 33.1402 21.5111C33.1753 21.3573 33.2188 21.2118 33.2757 21.0764C33.3308 20.9393 33.3977 20.8089 33.473 20.6851C33.5482 20.5614 33.6284 20.4327 33.7104 20.3006L34.844 18.5315H36.1817L34.9678 20.3825L34.9694 20.3808ZM35.854 21.9743C35.854 21.7402 35.7771 21.5462 35.6232 21.3924C35.4694 21.2386 35.2687 21.1617 35.0196 21.1617C34.7705 21.1617 34.5699 21.2386 34.416 21.3924C34.2622 21.5462 34.1853 21.7402 34.1853 21.9743C34.1853 22.2084 34.2622 22.4023 34.416 22.5562C34.5699 22.71 34.7705 22.7869 35.0196 22.7869C35.2687 22.7869 35.4694 22.71 35.6232 22.5562C35.7771 22.4023 35.854 22.2084 35.854 21.9743Z" stroke="white" style="stroke:white;stroke:white;stroke-opacity:1;" stroke-width="2" mask="url(#path-18-outside-18_11709_6059)"/>
<mask id="path-19-outside-19_11709_6059" maskUnits="userSpaceOnUse" x="36.5728" y="17.4429" width="6" height="8" fill="black">
<rect fill="white" x="36.5728" y="17.4429" width="6" height="8"/>
<path d="M37.5728 21.1199C37.5728 20.8122 37.6012 20.5012 37.6564 20.1835C37.7132 19.8658 37.8119 19.5782 37.9557 19.3207C38.0995 19.0616 38.2951 18.8509 38.5442 18.6887C38.7934 18.5248 39.1094 18.4429 39.4956 18.4429C39.8819 18.4429 40.1979 18.5248 40.447 18.6887C40.6961 18.8526 40.8918 19.0632 41.0356 19.3207C41.1794 19.5799 41.2797 19.8675 41.3349 20.1835C41.3901 20.5012 41.4185 20.8122 41.4185 21.1199C41.4185 21.4275 41.3901 21.7385 41.3349 22.0562C41.2797 22.3739 41.1794 22.6598 41.0356 22.919C40.8918 23.1782 40.6961 23.3888 40.447 23.551C40.1979 23.7149 39.8819 23.7968 39.4956 23.7968C39.1094 23.7968 38.7934 23.7149 38.5442 23.551C38.2951 23.3872 38.0995 23.1765 37.9557 22.919C37.8119 22.6598 37.7115 22.3739 37.6564 22.0562C37.6012 21.7385 37.5728 21.4275 37.5728 21.1199ZM38.6696 21.1199C38.6696 21.257 38.6763 21.4192 38.688 21.6098C38.6997 21.8004 38.7332 21.9826 38.7867 22.1582C38.8402 22.3338 38.9221 22.4826 39.0325 22.6047C39.1411 22.7267 39.2966 22.7869 39.4973 22.7869C39.6979 22.7869 39.8468 22.725 39.9588 22.6047C40.0708 22.4843 40.1544 22.3338 40.2079 22.1582C40.2614 21.9826 40.2949 21.8004 40.3066 21.6098C40.3183 21.4192 40.325 21.257 40.325 21.1199C40.325 20.9828 40.3183 20.8206 40.3066 20.63C40.2949 20.4393 40.2614 20.2571 40.2079 20.0815C40.1544 19.906 40.0708 19.7571 39.9588 19.6351C39.8468 19.513 39.6929 19.4528 39.4973 19.4528C39.3017 19.4528 39.1428 19.513 39.0325 19.6351C38.9221 19.7571 38.8418 19.906 38.7867 20.0815C38.7332 20.2571 38.6997 20.4393 38.688 20.63C38.6763 20.8206 38.6696 20.9828 38.6696 21.1199Z"/>
</mask>
<path d="M37.5728 21.1199C37.5728 20.8122 37.6012 20.5012 37.6564 20.1835C37.7132 19.8658 37.8119 19.5782 37.9557 19.3207C38.0995 19.0616 38.2951 18.8509 38.5442 18.6887C38.7934 18.5248 39.1094 18.4429 39.4956 18.4429C39.8819 18.4429 40.1979 18.5248 40.447 18.6887C40.6961 18.8526 40.8918 19.0632 41.0356 19.3207C41.1794 19.5799 41.2797 19.8675 41.3349 20.1835C41.3901 20.5012 41.4185 20.8122 41.4185 21.1199C41.4185 21.4275 41.3901 21.7385 41.3349 22.0562C41.2797 22.3739 41.1794 22.6598 41.0356 22.919C40.8918 23.1782 40.6961 23.3888 40.447 23.551C40.1979 23.7149 39.8819 23.7968 39.4956 23.7968C39.1094 23.7968 38.7934 23.7149 38.5442 23.551C38.2951 23.3872 38.0995 23.1765 37.9557 22.919C37.8119 22.6598 37.7115 22.3739 37.6564 22.0562C37.6012 21.7385 37.5728 21.4275 37.5728 21.1199ZM38.6696 21.1199C38.6696 21.257 38.6763 21.4192 38.688 21.6098C38.6997 21.8004 38.7332 21.9826 38.7867 22.1582C38.8402 22.3338 38.9221 22.4826 39.0325 22.6047C39.1411 22.7267 39.2966 22.7869 39.4973 22.7869C39.6979 22.7869 39.8468 22.725 39.9588 22.6047C40.0708 22.4843 40.1544 22.3338 40.2079 22.1582C40.2614 21.9826 40.2949 21.8004 40.3066 21.6098C40.3183 21.4192 40.325 21.257 40.325 21.1199C40.325 20.9828 40.3183 20.8206 40.3066 20.63C40.2949 20.4393 40.2614 20.2571 40.2079 20.0815C40.1544 19.906 40.0708 19.7571 39.9588 19.6351C39.8468 19.513 39.6929 19.4528 39.4973 19.4528C39.3017 19.4528 39.1428 19.513 39.0325 19.6351C38.9221 19.7571 38.8418 19.906 38.7867 20.0815C38.7332 20.2571 38.6997 20.4393 38.688 20.63C38.6763 20.8206 38.6696 20.9828 38.6696 21.1199Z" fill="#D10C2B" style="fill:#D10C2B;fill:color(display-p3 0.8196 0.0471 0.1686);fill-opacity:1;"/>
<path d="M37.5728 21.1199C37.5728 20.8122 37.6012 20.5012 37.6564 20.1835C37.7132 19.8658 37.8119 19.5782 37.9557 19.3207C38.0995 19.0616 38.2951 18.8509 38.5442 18.6887C38.7934 18.5248 39.1094 18.4429 39.4956 18.4429C39.8819 18.4429 40.1979 18.5248 40.447 18.6887C40.6961 18.8526 40.8918 19.0632 41.0356 19.3207C41.1794 19.5799 41.2797 19.8675 41.3349 20.1835C41.3901 20.5012 41.4185 20.8122 41.4185 21.1199C41.4185 21.4275 41.3901 21.7385 41.3349 22.0562C41.2797 22.3739 41.1794 22.6598 41.0356 22.919C40.8918 23.1782 40.6961 23.3888 40.447 23.551C40.1979 23.7149 39.8819 23.7968 39.4956 23.7968C39.1094 23.7968 38.7934 23.7149 38.5442 23.551C38.2951 23.3872 38.0995 23.1765 37.9557 22.919C37.8119 22.6598 37.7115 22.3739 37.6564 22.0562C37.6012 21.7385 37.5728 21.4275 37.5728 21.1199ZM38.6696 21.1199C38.6696 21.257 38.6763 21.4192 38.688 21.6098C38.6997 21.8004 38.7332 21.9826 38.7867 22.1582C38.8402 22.3338 38.9221 22.4826 39.0325 22.6047C39.1411 22.7267 39.2966 22.7869 39.4973 22.7869C39.6979 22.7869 39.8468 22.725 39.9588 22.6047C40.0708 22.4843 40.1544 22.3338 40.2079 22.1582C40.2614 21.9826 40.2949 21.8004 40.3066 21.6098C40.3183 21.4192 40.325 21.257 40.325 21.1199C40.325 20.9828 40.3183 20.8206 40.3066 20.63C40.2949 20.4393 40.2614 20.2571 40.2079 20.0815C40.1544 19.906 40.0708 19.7571 39.9588 19.6351C39.8468 19.513 39.6929 19.4528 39.4973 19.4528C39.3017 19.4528 39.1428 19.513 39.0325 19.6351C38.9221 19.7571 38.8418 19.906 38.7867 20.0815C38.7332 20.2571 38.6997 20.4393 38.688 20.63C38.6763 20.8206 38.6696 20.9828 38.6696 21.1199Z" stroke="white" style="stroke:white;stroke:white;stroke-opacity:1;" stroke-width="2" mask="url(#path-19-outside-19_11709_6059)"/>
<mask id="path-20-outside-20_11709_6059" maskUnits="userSpaceOnUse" x="39.9167" y="21.5244" width="5" height="5" fill="black">
<rect fill="white" x="39.9167" y="21.5244" width="5" height="5"/>
<path d="M42.4585 22.5244H43.5119L42.8531 24.5861H41.9167L42.4585 22.5244Z"/>
</mask>
<path d="M42.4585 22.5244H43.5119L42.8531 24.5861H41.9167L42.4585 22.5244Z" fill="#D10C2B" style="fill:#D10C2B;fill:color(display-p3 0.8196 0.0471 0.1686);fill-opacity:1;"/>
<path d="M42.4585 22.5244H43.5119L42.8531 24.5861H41.9167L42.4585 22.5244Z" stroke="white" style="stroke:white;stroke:white;stroke-opacity:1;" stroke-width="2" mask="url(#path-20-outside-20_11709_6059)"/>
<mask id="path-21-outside-21_11709_6059" maskUnits="userSpaceOnUse" x="43.3298" y="17.4429" width="6" height="8" fill="black">
<rect fill="white" x="43.3298" y="17.4429" width="6" height="8"/>
<path d="M44.3298 21.1199C44.3298 20.8122 44.3583 20.5012 44.4134 20.1835C44.4703 19.8658 44.5689 19.5782 44.7127 19.3207C44.8565 19.0616 45.0522 18.8509 45.3013 18.6887C45.5504 18.5265 45.8665 18.4429 46.2527 18.4429C46.6389 18.4429 46.955 18.5248 47.2041 18.6887C47.4533 18.8526 47.6489 19.0632 47.7927 19.3207C47.9365 19.5799 48.0368 19.8675 48.092 20.1835C48.1471 20.5012 48.1756 20.8122 48.1756 21.1199C48.1756 21.4275 48.1471 21.7385 48.092 22.0562C48.0368 22.3739 47.9365 22.6598 47.7927 22.919C47.6489 23.1782 47.4533 23.3888 47.2041 23.551C46.955 23.7149 46.6389 23.7968 46.2527 23.7968C45.8665 23.7968 45.5504 23.7149 45.3013 23.551C45.0522 23.3872 44.8565 23.1765 44.7127 22.919C44.5689 22.6598 44.4686 22.3739 44.4134 22.0562C44.3583 21.7385 44.3298 21.4275 44.3298 21.1199ZM45.4267 21.1199C45.4267 21.257 45.4334 21.4192 45.4451 21.6098C45.4568 21.8004 45.4902 21.9826 45.5437 22.1582C45.5973 22.3338 45.6792 22.4826 45.7895 22.6047C45.8982 22.7267 46.0537 22.7869 46.2544 22.7869C46.455 22.7869 46.6038 22.725 46.7159 22.6047C46.8279 22.4843 46.9115 22.3338 46.965 22.1582C47.0185 21.9826 47.052 21.8004 47.0637 21.6098C47.0754 21.4192 47.0821 21.257 47.0821 21.1199C47.0821 20.9828 47.0754 20.8206 47.0637 20.63C47.052 20.4393 47.0185 20.2571 46.965 20.0815C46.9115 19.906 46.8279 19.7571 46.7159 19.6351C46.6038 19.513 46.45 19.4528 46.2544 19.4528C46.0587 19.4528 45.8999 19.513 45.7895 19.6351C45.6792 19.7571 45.5989 19.906 45.5437 20.0815C45.4902 20.2571 45.4568 20.4393 45.4451 20.63C45.4334 20.8206 45.4267 20.9828 45.4267 21.1199Z"/>
</mask>
<path d="M44.3298 21.1199C44.3298 20.8122 44.3583 20.5012 44.4134 20.1835C44.4703 19.8658 44.5689 19.5782 44.7127 19.3207C44.8565 19.0616 45.0522 18.8509 45.3013 18.6887C45.5504 18.5265 45.8665 18.4429 46.2527 18.4429C46.6389 18.4429 46.955 18.5248 47.2041 18.6887C47.4533 18.8526 47.6489 19.0632 47.7927 19.3207C47.9365 19.5799 48.0368 19.8675 48.092 20.1835C48.1471 20.5012 48.1756 20.8122 48.1756 21.1199C48.1756 21.4275 48.1471 21.7385 48.092 22.0562C48.0368 22.3739 47.9365 22.6598 47.7927 22.919C47.6489 23.1782 47.4533 23.3888 47.2041 23.551C46.955 23.7149 46.6389 23.7968 46.2527 23.7968C45.8665 23.7968 45.5504 23.7149 45.3013 23.551C45.0522 23.3872 44.8565 23.1765 44.7127 22.919C44.5689 22.6598 44.4686 22.3739 44.4134 22.0562C44.3583 21.7385 44.3298 21.4275 44.3298 21.1199ZM45.4267 21.1199C45.4267 21.257 45.4334 21.4192 45.4451 21.6098C45.4568 21.8004 45.4902 21.9826 45.5437 22.1582C45.5973 22.3338 45.6792 22.4826 45.7895 22.6047C45.8982 22.7267 46.0537 22.7869 46.2544 22.7869C46.455 22.7869 46.6038 22.725 46.7159 22.6047C46.8279 22.4843 46.9115 22.3338 46.965 22.1582C47.0185 21.9826 47.052 21.8004 47.0637 21.6098C47.0754 21.4192 47.0821 21.257 47.0821 21.1199C47.0821 20.9828 47.0754 20.8206 47.0637 20.63C47.052 20.4393 47.0185 20.2571 46.965 20.0815C46.9115 19.906 46.8279 19.7571 46.7159 19.6351C46.6038 19.513 46.45 19.4528 46.2544 19.4528C46.0587 19.4528 45.8999 19.513 45.7895 19.6351C45.6792 19.7571 45.5989 19.906 45.5437 20.0815C45.4902 20.2571 45.4568 20.4393 45.4451 20.63C45.4334 20.8206 45.4267 20.9828 45.4267 21.1199Z" fill="#D10C2B" style="fill:#D10C2B;fill:color(display-p3 0.8196 0.0471 0.1686);fill-opacity:1;"/>
<path d="M44.3298 21.1199C44.3298 20.8122 44.3583 20.5012 44.4134 20.1835C44.4703 19.8658 44.5689 19.5782 44.7127 19.3207C44.8565 19.0616 45.0522 18.8509 45.3013 18.6887C45.5504 18.5265 45.8665 18.4429 46.2527 18.4429C46.6389 18.4429 46.955 18.5248 47.2041 18.6887C47.4533 18.8526 47.6489 19.0632 47.7927 19.3207C47.9365 19.5799 48.0368 19.8675 48.092 20.1835C48.1471 20.5012 48.1756 20.8122 48.1756 21.1199C48.1756 21.4275 48.1471 21.7385 48.092 22.0562C48.0368 22.3739 47.9365 22.6598 47.7927 22.919C47.6489 23.1782 47.4533 23.3888 47.2041 23.551C46.955 23.7149 46.6389 23.7968 46.2527 23.7968C45.8665 23.7968 45.5504 23.7149 45.3013 23.551C45.0522 23.3872 44.8565 23.1765 44.7127 22.919C44.5689 22.6598 44.4686 22.3739 44.4134 22.0562C44.3583 21.7385 44.3298 21.4275 44.3298 21.1199ZM45.4267 21.1199C45.4267 21.257 45.4334 21.4192 45.4451 21.6098C45.4568 21.8004 45.4902 21.9826 45.5437 22.1582C45.5973 22.3338 45.6792 22.4826 45.7895 22.6047C45.8982 22.7267 46.0537 22.7869 46.2544 22.7869C46.455 22.7869 46.6038 22.725 46.7159 22.6047C46.8279 22.4843 46.9115 22.3338 46.965 22.1582C47.0185 21.9826 47.052 21.8004 47.0637 21.6098C47.0754 21.4192 47.0821 21.257 47.0821 21.1199C47.0821 20.9828 47.0754 20.8206 47.0637 20.63C47.052 20.4393 47.0185 20.2571 46.965 20.0815C46.9115 19.906 46.8279 19.7571 46.7159 19.6351C46.6038 19.513 46.45 19.4528 46.2544 19.4528C46.0587 19.4528 45.8999 19.513 45.7895 19.6351C45.6792 19.7571 45.5989 19.906 45.5437 20.0815C45.4902 20.2571 45.4568 20.4393 45.4451 20.63C45.4334 20.8206 45.4267 20.9828 45.4267 21.1199Z" stroke="white" style="stroke:white;stroke:white;stroke-opacity:1;" stroke-width="2" mask="url(#path-21-outside-21_11709_6059)"/>
<mask id="path-22-outside-22_11709_6059" maskUnits="userSpaceOnUse" x="47.7909" y="17.4429" width="6" height="8" fill="black">
<rect fill="white" x="47.7909" y="17.4429" width="6" height="8"/>
<path d="M48.7909 21.1199C48.7909 20.8122 48.8193 20.5012 48.8745 20.1835C48.9313 19.8658 49.03 19.5782 49.1738 19.3207C49.3176 19.0616 49.5132 18.8509 49.7623 18.6887C50.0115 18.5265 50.3275 18.4429 50.7138 18.4429C51.1 18.4429 51.416 18.5248 51.6652 18.6887C51.9143 18.8526 52.1099 19.0632 52.2537 19.3207C52.3975 19.5799 52.4978 19.8675 52.553 20.1835C52.6082 20.5012 52.6366 20.8122 52.6366 21.1199C52.6366 21.4275 52.6082 21.7385 52.553 22.0562C52.4978 22.3739 52.3975 22.6598 52.2537 22.919C52.1099 23.1782 51.9143 23.3888 51.6652 23.551C51.416 23.7149 51.1 23.7968 50.7138 23.7968C50.3275 23.7968 50.0115 23.7149 49.7623 23.551C49.5132 23.3872 49.3176 23.1765 49.1738 22.919C49.03 22.6598 48.9297 22.3739 48.8745 22.0562C48.8193 21.7385 48.7909 21.4275 48.7909 21.1199ZM49.8877 21.1199C49.8877 21.257 49.8944 21.4192 49.9061 21.6098C49.9178 21.8004 49.9513 21.9826 50.0048 22.1582C50.0583 22.3338 50.1402 22.4826 50.2506 22.6047C50.3593 22.7267 50.5148 22.7869 50.7154 22.7869C50.9161 22.7869 51.0649 22.725 51.1769 22.6047C51.289 22.4843 51.3726 22.3338 51.4261 22.1582C51.4796 21.9826 51.513 21.8004 51.5247 21.6098C51.5364 21.4192 51.5431 21.257 51.5431 21.1199C51.5431 20.9828 51.5364 20.8206 51.5247 20.63C51.513 20.4393 51.4796 20.2571 51.4261 20.0815C51.3726 19.906 51.289 19.7571 51.1769 19.6351C51.0649 19.513 50.9111 19.4528 50.7154 19.4528C50.5198 19.4528 50.361 19.513 50.2506 19.6351C50.1402 19.7571 50.06 19.906 50.0048 20.0815C49.9513 20.2571 49.9178 20.4393 49.9061 20.63C49.8944 20.8206 49.8877 20.9828 49.8877 21.1199Z"/>
</mask>
<path d="M48.7909 21.1199C48.7909 20.8122 48.8193 20.5012 48.8745 20.1835C48.9313 19.8658 49.03 19.5782 49.1738 19.3207C49.3176 19.0616 49.5132 18.8509 49.7623 18.6887C50.0115 18.5265 50.3275 18.4429 50.7138 18.4429C51.1 18.4429 51.416 18.5248 51.6652 18.6887C51.9143 18.8526 52.1099 19.0632 52.2537 19.3207C52.3975 19.5799 52.4978 19.8675 52.553 20.1835C52.6082 20.5012 52.6366 20.8122 52.6366 21.1199C52.6366 21.4275 52.6082 21.7385 52.553 22.0562C52.4978 22.3739 52.3975 22.6598 52.2537 22.919C52.1099 23.1782 51.9143 23.3888 51.6652 23.551C51.416 23.7149 51.1 23.7968 50.7138 23.7968C50.3275 23.7968 50.0115 23.7149 49.7623 23.551C49.5132 23.3872 49.3176 23.1765 49.1738 22.919C49.03 22.6598 48.9297 22.3739 48.8745 22.0562C48.8193 21.7385 48.7909 21.4275 48.7909 21.1199ZM49.8877 21.1199C49.8877 21.257 49.8944 21.4192 49.9061 21.6098C49.9178 21.8004 49.9513 21.9826 50.0048 22.1582C50.0583 22.3338 50.1402 22.4826 50.2506 22.6047C50.3593 22.7267 50.5148 22.7869 50.7154 22.7869C50.9161 22.7869 51.0649 22.725 51.1769 22.6047C51.289 22.4843 51.3726 22.3338 51.4261 22.1582C51.4796 21.9826 51.513 21.8004 51.5247 21.6098C51.5364 21.4192 51.5431 21.257 51.5431 21.1199C51.5431 20.9828 51.5364 20.8206 51.5247 20.63C51.513 20.4393 51.4796 20.2571 51.4261 20.0815C51.3726 19.906 51.289 19.7571 51.1769 19.6351C51.0649 19.513 50.9111 19.4528 50.7154 19.4528C50.5198 19.4528 50.361 19.513 50.2506 19.6351C50.1402 19.7571 50.06 19.906 50.0048 20.0815C49.9513 20.2571 49.9178 20.4393 49.9061 20.63C49.8944 20.8206 49.8877 20.9828 49.8877 21.1199Z" fill="#D10C2B" style="fill:#D10C2B;fill:color(display-p3 0.8196 0.0471 0.1686);fill-opacity:1;"/>
<path d="M48.7909 21.1199C48.7909 20.8122 48.8193 20.5012 48.8745 20.1835C48.9313 19.8658 49.03 19.5782 49.1738 19.3207C49.3176 19.0616 49.5132 18.8509 49.7623 18.6887C50.0115 18.5265 50.3275 18.4429 50.7138 18.4429C51.1 18.4429 51.416 18.5248 51.6652 18.6887C51.9143 18.8526 52.1099 19.0632 52.2537 19.3207C52.3975 19.5799 52.4978 19.8675 52.553 20.1835C52.6082 20.5012 52.6366 20.8122 52.6366 21.1199C52.6366 21.4275 52.6082 21.7385 52.553 22.0562C52.4978 22.3739 52.3975 22.6598 52.2537 22.919C52.1099 23.1782 51.9143 23.3888 51.6652 23.551C51.416 23.7149 51.1 23.7968 50.7138 23.7968C50.3275 23.7968 50.0115 23.7149 49.7623 23.551C49.5132 23.3872 49.3176 23.1765 49.1738 22.919C49.03 22.6598 48.9297 22.3739 48.8745 22.0562C48.8193 21.7385 48.7909 21.4275 48.7909 21.1199ZM49.8877 21.1199C49.8877 21.257 49.8944 21.4192 49.9061 21.6098C49.9178 21.8004 49.9513 21.9826 50.0048 22.1582C50.0583 22.3338 50.1402 22.4826 50.2506 22.6047C50.3593 22.7267 50.5148 22.7869 50.7154 22.7869C50.9161 22.7869 51.0649 22.725 51.1769 22.6047C51.289 22.4843 51.3726 22.3338 51.4261 22.1582C51.4796 21.9826 51.513 21.8004 51.5247 21.6098C51.5364 21.4192 51.5431 21.257 51.5431 21.1199C51.5431 20.9828 51.5364 20.8206 51.5247 20.63C51.513 20.4393 51.4796 20.2571 51.4261 20.0815C51.3726 19.906 51.289 19.7571 51.1769 19.6351C51.0649 19.513 50.9111 19.4528 50.7154 19.4528C50.5198 19.4528 50.361 19.513 50.2506 19.6351C50.1402 19.7571 50.06 19.906 50.0048 20.0815C49.9513 20.2571 49.9178 20.4393 49.9061 20.63C49.8944 20.8206 49.8877 20.9828 49.8877 21.1199Z" stroke="white" style="stroke:white;stroke:white;stroke-opacity:1;" stroke-width="2" mask="url(#path-22-outside-22_11709_6059)"/>
<mask id="path-23-outside-23_11709_6059" maskUnits="userSpaceOnUse" x="52.2534" y="17.4429" width="6" height="8" fill="black">
<rect fill="white" x="52.2534" y="17.4429" width="6" height="8"/>
<path d="M53.2534 21.1199C53.2534 20.8122 53.2818 20.5012 53.337 20.1835C53.3939 19.8658 53.4925 19.5782 53.6363 19.3207C53.7801 19.0616 53.9758 18.8509 54.2249 18.6887C54.474 18.5248 54.79 18.4429 55.1763 18.4429C55.5625 18.4429 55.8785 18.5248 56.1277 18.6887C56.3768 18.8526 56.5724 19.0632 56.7162 19.3207C56.86 19.5799 56.9604 19.8675 57.0155 20.1835C57.0707 20.5012 57.0992 20.8122 57.0992 21.1199C57.0992 21.4275 57.0707 21.7385 57.0155 22.0562C56.9604 22.3739 56.86 22.6598 56.7162 22.919C56.5724 23.1782 56.3768 23.3888 56.1277 23.551C55.8785 23.7149 55.5625 23.7968 55.1763 23.7968C54.79 23.7968 54.474 23.7149 54.2249 23.551C53.9758 23.3872 53.7801 23.1765 53.6363 22.919C53.4925 22.6598 53.3922 22.3739 53.337 22.0562C53.2818 21.7385 53.2534 21.4275 53.2534 21.1199ZM54.3503 21.1199C54.3503 21.257 54.357 21.4192 54.3687 21.6098C54.3804 21.8004 54.4138 21.9826 54.4673 22.1582C54.5208 22.3338 54.6028 22.4826 54.7131 22.6047C54.8218 22.7267 54.9773 22.7869 55.178 22.7869C55.3786 22.7869 55.5274 22.725 55.6394 22.6047C55.7515 22.4843 55.8351 22.3338 55.8886 22.1582C55.9421 21.9826 55.9755 21.8004 55.9872 21.6098C55.9989 21.4192 56.0056 21.257 56.0056 21.1199C56.0056 20.9828 55.9989 20.8206 55.9872 20.63C55.9755 20.4393 55.9421 20.2571 55.8886 20.0815C55.8351 19.906 55.7515 19.7571 55.6394 19.6351C55.5274 19.513 55.3736 19.4528 55.178 19.4528C54.9823 19.4528 54.8235 19.513 54.7131 19.6351C54.6028 19.7571 54.5225 19.906 54.4673 20.0815C54.4138 20.2571 54.3804 20.4393 54.3687 20.63C54.357 20.8206 54.3503 20.9828 54.3503 21.1199Z"/>
</mask>
<path d="M53.2534 21.1199C53.2534 20.8122 53.2818 20.5012 53.337 20.1835C53.3939 19.8658 53.4925 19.5782 53.6363 19.3207C53.7801 19.0616 53.9758 18.8509 54.2249 18.6887C54.474 18.5248 54.79 18.4429 55.1763 18.4429C55.5625 18.4429 55.8785 18.5248 56.1277 18.6887C56.3768 18.8526 56.5724 19.0632 56.7162 19.3207C56.86 19.5799 56.9604 19.8675 57.0155 20.1835C57.0707 20.5012 57.0992 20.8122 57.0992 21.1199C57.0992 21.4275 57.0707 21.7385 57.0155 22.0562C56.9604 22.3739 56.86 22.6598 56.7162 22.919C56.5724 23.1782 56.3768 23.3888 56.1277 23.551C55.8785 23.7149 55.5625 23.7968 55.1763 23.7968C54.79 23.7968 54.474 23.7149 54.2249 23.551C53.9758 23.3872 53.7801 23.1765 53.6363 22.919C53.4925 22.6598 53.3922 22.3739 53.337 22.0562C53.2818 21.7385 53.2534 21.4275 53.2534 21.1199ZM54.3503 21.1199C54.3503 21.257 54.357 21.4192 54.3687 21.6098C54.3804 21.8004 54.4138 21.9826 54.4673 22.1582C54.5208 22.3338 54.6028 22.4826 54.7131 22.6047C54.8218 22.7267 54.9773 22.7869 55.178 22.7869C55.3786 22.7869 55.5274 22.725 55.6394 22.6047C55.7515 22.4843 55.8351 22.3338 55.8886 22.1582C55.9421 21.9826 55.9755 21.8004 55.9872 21.6098C55.9989 21.4192 56.0056 21.257 56.0056 21.1199C56.0056 20.9828 55.9989 20.8206 55.9872 20.63C55.9755 20.4393 55.9421 20.2571 55.8886 20.0815C55.8351 19.906 55.7515 19.7571 55.6394 19.6351C55.5274 19.513 55.3736 19.4528 55.178 19.4528C54.9823 19.4528 54.8235 19.513 54.7131 19.6351C54.6028 19.7571 54.5225 19.906 54.4673 20.0815C54.4138 20.2571 54.3804 20.4393 54.3687 20.63C54.357 20.8206 54.3503 20.9828 54.3503 21.1199Z" fill="#D10C2B" style="fill:#D10C2B;fill:color(display-p3 0.8196 0.0471 0.1686);fill-opacity:1;"/>
<path d="M53.2534 21.1199C53.2534 20.8122 53.2818 20.5012 53.337 20.1835C53.3939 19.8658 53.4925 19.5782 53.6363 19.3207C53.7801 19.0616 53.9758 18.8509 54.2249 18.6887C54.474 18.5248 54.79 18.4429 55.1763 18.4429C55.5625 18.4429 55.8785 18.5248 56.1277 18.6887C56.3768 18.8526 56.5724 19.0632 56.7162 19.3207C56.86 19.5799 56.9604 19.8675 57.0155 20.1835C57.0707 20.5012 57.0992 20.8122 57.0992 21.1199C57.0992 21.4275 57.0707 21.7385 57.0155 22.0562C56.9604 22.3739 56.86 22.6598 56.7162 22.919C56.5724 23.1782 56.3768 23.3888 56.1277 23.551C55.8785 23.7149 55.5625 23.7968 55.1763 23.7968C54.79 23.7968 54.474 23.7149 54.2249 23.551C53.9758 23.3872 53.7801 23.1765 53.6363 22.919C53.4925 22.6598 53.3922 22.3739 53.337 22.0562C53.2818 21.7385 53.2534 21.4275 53.2534 21.1199ZM54.3503 21.1199C54.3503 21.257 54.357 21.4192 54.3687 21.6098C54.3804 21.8004 54.4138 21.9826 54.4673 22.1582C54.5208 22.3338 54.6028 22.4826 54.7131 22.6047C54.8218 22.7267 54.9773 22.7869 55.178 22.7869C55.3786 22.7869 55.5274 22.725 55.6394 22.6047C55.7515 22.4843 55.8351 22.3338 55.8886 22.1582C55.9421 21.9826 55.9755 21.8004 55.9872 21.6098C55.9989 21.4192 56.0056 21.257 56.0056 21.1199C56.0056 20.9828 55.9989 20.8206 55.9872 20.63C55.9755 20.4393 55.9421 20.2571 55.8886 20.0815C55.8351 19.906 55.7515 19.7571 55.6394 19.6351C55.5274 19.513 55.3736 19.4528 55.178 19.4528C54.9823 19.4528 54.8235 19.513 54.7131 19.6351C54.6028 19.7571 54.5225 19.906 54.4673 20.0815C54.4138 20.2571 54.3804 20.4393 54.3687 20.63C54.357 20.8206 54.3503 20.9828 54.3503 21.1199Z" stroke="white" style="stroke:white;stroke:white;stroke-opacity:1;" stroke-width="2" mask="url(#path-23-outside-23_11709_6059)"/>
<mask id="path-24-outside-24_11709_6059" maskUnits="userSpaceOnUse" x="59.338" y="17.5299" width="9" height="8" fill="black">
<rect fill="white" x="59.338" y="17.5299" width="9" height="8"/>
<path d="M60.3397 18.5299H61.48V20.6801L63.4915 18.5299H64.983L62.6789 20.936L65.1803 23.7082H63.5852L61.4784 21.2503V23.7082H60.338V18.5299H60.3397Z"/>
</mask>
<path d="M60.3397 18.5299H61.48V20.6801L63.4915 18.5299H64.983L62.6789 20.936L65.1803 23.7082H63.5852L61.4784 21.2503V23.7082H60.338V18.5299H60.3397Z" fill="#D10C2B" style="fill:#D10C2B;fill:color(display-p3 0.8196 0.0471 0.1686);fill-opacity:1;"/>
<path d="M60.3397 18.5299H61.48V20.6801L63.4915 18.5299H64.983L62.6789 20.936L65.1803 23.7082H63.5852L61.4784 21.2503V23.7082H60.338V18.5299H60.3397Z" stroke="white" style="stroke:white;stroke:white;stroke-opacity:1;" stroke-width="2" mask="url(#path-24-outside-24_11709_6059)"/>
<mask id="path-25-outside-25_11709_6059" maskUnits="userSpaceOnUse" x="64.7052" y="17.5299" width="8" height="8" fill="black">
<rect fill="white" x="64.7052" y="17.5299" width="8" height="8"/>
<path d="M65.7069 18.5299H67.4324L68.6246 21.9091H68.6397L69.8385 18.5299H71.5574V23.7082H70.417V19.7371H70.402L69.0409 23.7082H68.1698L66.8606 19.7371H66.8456V23.7082H65.7052V18.5299H65.7069Z"/>
</mask>
<path d="M65.7069 18.5299H67.4324L68.6246 21.9091H68.6397L69.8385 18.5299H71.5574V23.7082H70.417V19.7371H70.402L69.0409 23.7082H68.1698L66.8606 19.7371H66.8456V23.7082H65.7052V18.5299H65.7069Z" fill="#D10C2B" style="fill:#D10C2B;fill:color(display-p3 0.8196 0.0471 0.1686);fill-opacity:1;"/>
<path d="M65.7069 18.5299H67.4324L68.6246 21.9091H68.6397L69.8385 18.5299H71.5574V23.7082H70.417V19.7371H70.402L69.0409 23.7082H68.1698L66.8606 19.7371H66.8456V23.7082H65.7052V18.5299H65.7069Z" stroke="white" style="stroke:white;stroke:white;stroke-opacity:1;" stroke-width="2" mask="url(#path-25-outside-25_11709_6059)"/>
</svg>
