<svg width="50" height="61" viewBox="0 0 50 61" fill="none" xmlns="http://www.w3.org/2000/svg">
<path d="M24.7452 16.291C21.3563 20.1531 15.3215 20.8775 11.9892 20.9621L12.9107 34.1715C14.121 46.1206 23.2429 47.9202 24.7452 48.136C26.2477 47.9202 35.3697 46.1209 36.5797 34.1715L37.5015 20.9621C34.1689 20.8775 28.1341 20.1529 24.7452 16.291Z" fill="#73D0F4"/>
<path d="M48.9312 10.4742C48.5442 10.1221 48.0101 9.94294 47.4683 9.98341C47.4613 9.98399 46.7703 10.0348 45.6535 10.0348C40.9016 10.0348 29.5239 9.16996 26.5112 1.16076C26.2497 0.465859 25.5412 0 24.7452 0C23.9495 0 23.2407 0.465859 22.9793 1.1609C19.9665 9.17011 8.58885 10.035 3.83697 10.035C2.71981 10.035 2.02926 9.98399 2.02412 9.98385C1.48221 9.94236 0.947788 10.1208 0.559822 10.473C0.171856 10.8254 -0.031164 11.3162 0.00389313 11.8178L1.63756 35.2347C1.6388 35.2509 1.64005 35.2669 1.64176 35.2831C2.86845 47.5149 8.98398 53.8527 13.8984 57.0156C19.2655 60.4698 24.3462 60.9714 24.5598 60.9911C24.6215 60.997 24.6834 60.9999 24.7451 60.9999C24.8068 60.9999 24.8689 60.997 24.9303 60.9911C25.1439 60.9714 30.2247 60.4698 35.5917 57.0156C40.5061 53.8527 46.622 47.5149 47.8487 35.2831C47.8502 35.2669 47.8518 35.2509 47.8526 35.2347L49.4864 11.8175C49.5216 11.3165 49.3183 10.8263 48.9312 10.4742ZM44.1231 34.9875C43.2479 43.6613 39.7081 50.0859 33.6017 54.0832C29.5526 56.734 25.6299 57.4048 24.7407 57.528C23.8621 57.4101 20.0658 56.7724 16.0351 54.1782C9.83922 50.1905 6.25015 43.7337 5.36764 34.9875L3.8675 13.4921C8.76242 13.4884 19.6128 12.6345 24.7451 5.5808C29.8776 12.6345 40.7277 13.4884 45.6226 13.4921L44.1231 34.9875Z" fill="#3D6889"/>
<path d="M24.7452 11.0429C23.9495 11.0429 23.2407 11.5088 22.9793 12.2038C21.1765 16.9965 14.1843 17.5139 11.2616 17.5141C10.5732 17.5141 10.149 17.4833 10.1476 17.4833C9.60644 17.4421 9.07123 17.6202 8.68327 17.9725C8.2953 18.3245 8.09228 18.8156 8.12734 19.3172L9.18092 34.4185C9.18217 34.4348 9.18341 34.451 9.18482 34.4669C9.9997 42.5901 14.0864 46.8151 17.3712 48.929C20.9724 51.2468 24.4155 51.5866 24.5604 51.5999C24.622 51.6056 24.6837 51.6084 24.7455 51.6084C24.8074 51.6084 24.8694 51.6056 24.9308 51.5999C25.0757 51.5866 28.5186 51.2468 32.1197 48.929C35.4045 46.8149 39.4912 42.5899 40.3058 34.4669C40.3073 34.451 40.3089 34.4348 40.31 34.4185L41.3639 19.3172C41.3986 18.8166 41.195 18.3265 40.8086 17.9746C40.4218 17.6224 39.888 17.4432 39.3463 17.4831C39.3421 17.4834 38.9172 17.5142 38.2291 17.5142C35.3068 17.5142 28.3142 16.9967 26.5115 12.204C26.2497 11.5089 25.5412 11.0429 24.7452 11.0429ZM36.5797 34.1715C35.3697 46.1209 26.2475 47.9202 24.7452 48.136C23.2427 47.9202 14.1209 46.1206 12.9107 34.1715L11.9892 20.9621C15.3215 20.8775 21.3564 20.1531 24.7452 16.291C28.1341 20.1531 34.1689 20.8775 37.5015 20.9621L36.5797 34.1715Z" fill="#3D6889"/>
</svg>
