<svg width="53" height="53" viewBox="0 0 53 53" fill="none" xmlns="http://www.w3.org/2000/svg">
<circle cx="26.5" cy="26.5" r="26.5" fill="white"/>
<path d="M10 23.0007V14.276C10.1928 13.6316 10.6444 13.2791 11.2558 13.0312C16.1028 11.0318 20.9443 9.01041 25.7859 7H26.3256C26.4909 7.0716 26.6506 7.14321 26.8159 7.2093C31.4811 9.14811 36.1409 11.0924 40.8171 13.0147C41.4395 13.2681 41.9132 13.6151 42.106 14.276V23.1714C42.0344 23.8214 41.9738 24.4713 41.8857 25.1212C41.1201 30.7834 38.7021 35.625 34.6537 39.6513C32.2577 42.0362 29.4597 43.8153 26.3256 45.0656H25.7859C22.8391 43.8869 20.1787 42.24 17.8764 40.0534C13.5692 35.9609 11.008 30.9707 10.2148 25.0827C10.1377 24.5043 10.0826 23.9205 10.0165 23.3422C10.0055 23.2265 10 23.1108 10 23.0007ZM12.9798 19.6463C13.101 21.497 12.9633 23.3752 13.2607 25.1984C14.4725 32.5901 18.4713 38.0099 25.0919 41.4965C26.0447 41.9977 26.0668 42.0032 27.0196 41.4909C34.5601 37.4316 38.6305 31.136 39.0821 22.571C39.2033 20.3348 39.1041 18.0876 39.1152 15.8403C39.1152 15.5814 38.9995 15.4933 38.7902 15.4052C34.6372 13.6867 30.4952 11.9627 26.3422 10.2497C26.1769 10.1836 25.9346 10.1781 25.7693 10.2442C21.6053 11.9572 17.4468 13.6922 13.2828 15.4107C13.0349 15.5153 12.9633 15.642 12.9688 15.8954C12.9798 17.1457 12.9688 18.396 12.9688 19.6463H12.9798Z" fill="black"/>
<path d="M24.4089 27.027C24.5632 26.8122 24.6293 26.68 24.7284 26.5808C26.7113 24.5925 28.6996 22.6096 30.6825 20.6157C31.1397 20.1585 31.6574 19.9492 32.2908 20.1475C33.2933 20.456 33.6623 21.6842 32.9959 22.4994C32.9077 22.6096 32.8031 22.7087 32.7039 22.8079C30.3631 25.1488 28.0222 27.4897 25.6813 29.8305C24.8 30.7118 24.0234 30.7173 23.1476 29.8416C21.8532 28.5472 20.5589 27.2583 19.27 25.9584C18.6751 25.3581 18.609 24.5374 19.0827 23.9315C19.65 23.21 20.6635 23.1604 21.3575 23.8434C22.2773 24.7467 23.1862 25.661 24.0895 26.5753C24.1886 26.6745 24.2547 26.8067 24.4034 27.0215L24.4089 27.027Z" fill="#FF2946"/>
</svg>
