<svg width="22" height="24" viewBox="0 0 22 24" fill="none" xmlns="http://www.w3.org/2000/svg">
<path d="M21.1802 9.63738C20.9803 4.70211 16.9603 0.839844 12.0161 0.839844C7.07736 0.839844 3.03731 4.76266 2.84876 9.65643C2.21576 10.8954 1.07466 13.2212 1.02248 13.3277C0.726729 13.9179 0.715656 14.6128 0.996844 15.2233C1.27699 15.8321 1.81107 16.2752 2.46203 16.438L2.87989 16.5428C3.08261 17.4577 3.38734 18.8369 3.48281 19.2751C3.84256 20.9306 4.71211 21.6369 6.39039 21.6369C6.62284 21.6369 6.85943 21.623 7.08978 21.6005V21.7437V23.1605H8.50658H16.8178H18.2345V21.7437V18.8351C18.2345 17.8874 18.5272 16.9683 19.017 16.3768C21.0339 13.9427 21.3085 11.3734 21.1802 9.63738ZM17.926 15.473C17.1077 16.4609 16.8178 17.7819 16.8178 18.8351V21.7437H8.50662V19.906C8.50662 19.906 7.36029 20.2201 6.39043 20.2201C5.42122 20.2201 5.08986 19.998 4.86713 18.9734C4.71978 18.2969 4.07396 15.381 4.07396 15.381L2.80626 15.0638C2.57555 15.006 2.38326 14.8469 2.28364 14.6304C2.18403 14.4142 2.18782 14.1645 2.29437 13.9517C2.29437 13.9517 3.68073 11.1258 4.25867 10.0126C4.25937 5.72908 7.73216 2.25664 12.0162 2.25664C12.3399 2.25664 12.6567 2.28323 12.9698 2.32134V8.42016C11.636 8.83492 10.6675 10.0791 10.6675 11.5492C10.6675 12.8304 11.4046 13.9365 12.4758 14.4754C12.252 15.115 11.8501 15.7829 11.1887 16.2959C10.6668 16.6995 9.97809 17.0192 9.04973 17.1506C8.85948 16.8881 8.55266 16.7158 8.20364 16.7158H6.78549C6.20716 16.7158 5.73842 17.1846 5.73842 17.7636C5.73842 18.3416 6.20716 18.8103 6.78549 18.8103H8.20364C8.62498 18.8103 8.98573 18.5602 9.15179 18.2018C9.7837 18.1158 10.3503 17.96 10.8404 17.7373C11.9642 17.2275 12.7072 16.408 13.1528 15.5727C13.2925 15.3105 13.4018 15.0483 13.4903 14.7906C13.6387 14.811 13.7895 14.8255 13.9438 14.8255C15.7532 14.8255 17.2201 13.3586 17.2201 11.5492C17.2201 10.0151 16.1641 8.73086 14.7408 8.37456V2.75716C17.5906 3.82877 19.6456 6.5226 19.7656 9.71834C19.8918 11.362 19.5718 13.4869 17.926 15.473Z" fill="white"/>
</svg>
