<svg width="13" height="13" viewBox="0 0 13 13" fill="none" xmlns="http://www.w3.org/2000/svg">
<g id="carbon:chevron-up-outline" clip-path="url(#clip0_4313_3418)">
<path id="Vector" d="M9.17556 5.11306L6.5 7.78781L3.82444 5.11266L3.25 5.6875L6.5 8.9375L9.75 5.6875L9.17556 5.11306Z" fill="#1A7CE4"/>
<path id="Vector_2" d="M0.8125 6.5C0.8125 3.36375 3.36375 0.8125 6.5 0.8125C9.63625 0.8125 12.1875 3.36375 12.1875 6.5C12.1875 9.63625 9.63625 12.1875 6.5 12.1875C3.36375 12.1875 0.8125 9.63625 0.8125 6.5ZM11.375 6.5C11.375 3.81184 9.18816 1.625 6.5 1.625C3.81184 1.625 1.625 3.81184 1.625 6.5C1.625 9.18816 3.81184 11.375 6.5 11.375C9.18816 11.375 11.375 9.18816 11.375 6.5Z" fill="#1A7CE4"/>
</g>
<defs>
<clipPath id="clip0_4313_3418">
<rect width="13" height="13" fill="white" transform="matrix(-1 0 0 -1 13 13)"/>
</clipPath>
</defs>
</svg>
