<svg width="36" height="36" viewBox="0 0 36 36" fill="none" xmlns="http://www.w3.org/2000/svg">
<circle cx="17.6171" cy="17.6171" r="17.6171" fill="white" fill-opacity="0.5"/>
<path d="M17.6172 8.19385C15.06 8.19385 14.7384 8.20563 13.7337 8.25039C12.7289 8.2975 12.0446 8.45534 11.4451 8.68856C10.8159 8.92452 10.2461 9.29564 9.77599 9.77575C9.29588 10.2459 8.92476 10.8156 8.6888 11.4448C8.45558 12.0432 8.29657 12.7287 8.25063 13.7299C8.20587 14.737 8.19409 15.0574 8.19409 17.6181C8.19409 20.1765 8.20587 20.4969 8.25063 21.5016C8.29775 22.5051 8.45558 23.1895 8.6888 23.789C8.93027 24.4086 9.25183 24.9339 9.77599 25.4581C10.299 25.9823 10.8243 26.305 11.4439 26.5453C12.0446 26.7785 12.7278 26.9375 13.7313 26.9835C14.7372 27.0282 15.0576 27.04 17.6172 27.04C20.1767 27.04 20.4959 27.0282 21.5018 26.9835C22.5042 26.9363 23.1909 26.7785 23.7905 26.5453C24.4192 26.3092 24.9885 25.9381 25.4583 25.4581C25.9825 24.9339 26.3041 24.4086 26.5455 23.789C26.7776 23.1895 26.9366 22.5051 26.9837 21.5016C27.0285 20.4969 27.0402 20.1765 27.0402 17.6169C27.0402 15.0574 27.0285 14.737 26.9837 13.7311C26.9366 12.7287 26.7776 12.0432 26.5455 11.4448C26.3096 10.8156 25.9385 10.2459 25.4583 9.77575C24.9882 9.29564 24.4185 8.92452 23.7893 8.68856C23.1886 8.45534 22.503 8.29632 21.5007 8.25039C20.4947 8.20563 20.1755 8.19385 17.6148 8.19385H17.6172ZM16.7726 9.89236H17.6183C20.1343 9.89236 20.4323 9.9006 21.4253 9.94654C22.344 9.98777 22.8434 10.1421 23.1756 10.2705C23.615 10.4413 23.9295 10.6462 24.2593 10.976C24.5891 11.3058 24.7928 11.6191 24.9636 12.0597C25.0932 12.3907 25.2463 12.8901 25.2876 13.8088C25.3335 14.8018 25.3429 15.0998 25.3429 17.6146C25.3429 20.1294 25.3335 20.4285 25.2876 21.4215C25.2463 22.3402 25.092 22.8385 24.9636 23.1707C24.8115 23.5793 24.5705 23.949 24.2581 24.2531C23.9283 24.5829 23.615 24.7867 23.1744 24.9575C22.8446 25.0871 22.3452 25.2402 21.4253 25.2826C20.4323 25.3274 20.1343 25.338 17.6183 25.338C15.1024 25.338 14.8032 25.3274 13.8102 25.2826C12.8915 25.2402 12.3933 25.0871 12.0611 24.9575C11.6522 24.8059 11.282 24.5653 10.9774 24.2531C10.6644 23.9488 10.423 23.5786 10.2707 23.1695C10.1423 22.8385 9.98801 22.3391 9.94678 21.4203C9.90202 20.4274 9.8926 20.1294 9.8926 17.6122C9.8926 15.0951 9.90202 14.7994 9.94678 13.8065C9.98919 12.8877 10.1423 12.3883 10.2719 12.0561C10.4427 11.6168 10.6476 11.3023 10.9774 10.9725C11.3072 10.6427 11.6206 10.4389 12.0611 10.2681C12.3933 10.1385 12.8915 9.98541 13.8102 9.94301C14.6795 9.90296 15.0164 9.89118 16.7726 9.89V9.89236ZM22.6479 11.4566C22.4994 11.4566 22.3524 11.4858 22.2152 11.5427C22.078 11.5995 21.9533 11.6828 21.8483 11.7878C21.7433 11.8928 21.66 12.0174 21.6032 12.1546C21.5464 12.2918 21.5171 12.4389 21.5171 12.5874C21.5171 12.7359 21.5464 12.8829 21.6032 13.0201C21.66 13.1573 21.7433 13.2819 21.8483 13.3869C21.9533 13.4919 22.078 13.5752 22.2152 13.6321C22.3524 13.6889 22.4994 13.7181 22.6479 13.7181C22.9478 13.7181 23.2354 13.599 23.4475 13.3869C23.6595 13.1749 23.7787 12.8873 23.7787 12.5874C23.7787 12.2875 23.6595 11.9998 23.4475 11.7878C23.2354 11.5757 22.9478 11.4566 22.6479 11.4566ZM17.6183 12.7782C16.9765 12.7682 16.339 12.8859 15.7431 13.1246C15.1472 13.3633 14.6047 13.7182 14.1473 14.1686C13.6898 14.6189 13.3266 15.1558 13.0786 15.7479C12.8306 16.34 12.7029 16.9756 12.7029 17.6175C12.7029 18.2595 12.8306 18.895 13.0786 19.4871C13.3266 20.0792 13.6898 20.6161 14.1473 21.0664C14.6047 21.5168 15.1472 21.8717 15.7431 22.1104C16.339 22.3491 16.9765 22.4669 17.6183 22.4569C18.8887 22.437 20.1004 21.9185 20.9918 21.0131C21.8832 20.1077 22.3828 18.8881 22.3828 17.6175C22.3828 16.347 21.8832 15.1274 20.9918 14.222C20.1004 13.3166 18.8887 12.798 17.6183 12.7782ZM17.6183 14.4755C18.0309 14.4755 18.4394 14.5568 18.8205 14.7146C19.2016 14.8725 19.548 15.1039 19.8397 15.3956C20.1314 15.6873 20.3628 16.0336 20.5206 16.4148C20.6785 16.7959 20.7598 17.2044 20.7598 17.6169C20.7598 18.0295 20.6785 18.438 20.5206 18.8191C20.3628 19.2002 20.1314 19.5465 19.8397 19.8382C19.548 20.1299 19.2016 20.3613 18.8205 20.5192C18.4394 20.6771 18.0309 20.7583 17.6183 20.7583C16.7852 20.7583 15.9862 20.4274 15.397 19.8382C14.8079 19.2491 14.4769 18.4501 14.4769 17.6169C14.4769 16.7838 14.8079 15.9847 15.397 15.3956C15.9862 14.8065 16.7852 14.4755 17.6183 14.4755Z" fill="#1E1E1E"/>
</svg>
