<svg width="32" height="32" viewBox="0 0 32 32" fill="none" xmlns="http://www.w3.org/2000/svg">
<g id="mdi:location">
<path id="Vector" d="M15.9998 15.3333C15.1158 15.3333 14.2679 14.9821 13.6428 14.357C13.0177 13.7319 12.6665 12.8841 12.6665 12C12.6665 11.1159 13.0177 10.2681 13.6428 9.64298C14.2679 9.01786 15.1158 8.66667 15.9998 8.66667C16.8839 8.66667 17.7317 9.01786 18.3569 9.64298C18.982 10.2681 19.3332 11.1159 19.3332 12C19.3332 12.4377 19.247 12.8712 19.0794 13.2756C18.9119 13.68 18.6664 14.0475 18.3569 14.357C18.0473 14.6666 17.6799 14.9121 17.2754 15.0796C16.871 15.2471 16.4376 15.3333 15.9998 15.3333ZM15.9998 2.66667C13.5245 2.66667 11.1505 3.65 9.40017 5.40034C7.64983 7.15068 6.6665 9.52465 6.6665 12C6.6665 19 15.9998 29.3333 15.9998 29.3333C15.9998 29.3333 25.3332 19 25.3332 12C25.3332 9.52465 24.3498 7.15068 22.5995 5.40034C20.8492 3.65 18.4752 2.66667 15.9998 2.66667Z" fill="#333A3D"/>
</g>
</svg>
