<svg width="20" height="20" viewBox="0 0 20 20" fill="none" xmlns="http://www.w3.org/2000/svg">
<path d="M10.0013 16.6675C11.7694 16.6675 13.4651 15.9651 14.7153 14.7149C15.9656 13.4646 16.668 11.7689 16.668 10.0008C16.668 8.2327 15.9656 6.53701 14.7153 5.28677C13.4651 4.03653 11.7694 3.33415 10.0013 3.33415C8.23319 3.33415 6.5375 4.03653 5.28726 5.28677C4.03701 6.53701 3.33464 8.2327 3.33464 10.0008C3.33464 11.7689 4.03701 13.4646 5.28726 14.7149C6.5375 15.9651 8.23319 16.6675 10.0013 16.6675ZM10.0013 1.66748C11.0957 1.66748 12.1793 1.88303 13.1903 2.30182C14.2014 2.72061 15.12 3.33444 15.8939 4.10826C16.6677 4.88208 17.2815 5.80074 17.7003 6.81178C18.1191 7.82283 18.3346 8.90646 18.3346 10.0008C18.3346 12.211 17.4567 14.3306 15.8939 15.8934C14.3311 17.4562 12.2114 18.3341 10.0013 18.3341C5.39297 18.3341 1.66797 14.5841 1.66797 10.0008C1.66797 7.79068 2.54594 5.67106 4.10875 4.10826C5.67155 2.54545 7.79116 1.66748 10.0013 1.66748ZM10.418 5.83415V10.2091L14.168 12.4341L13.543 13.4591L9.16797 10.8341V5.83415H10.418Z" fill="black"/>
</svg>
