<svg width="36" height="36" viewBox="0 0 36 36" fill="none" xmlns="http://www.w3.org/2000/svg">
<rect width="36" height="36" fill="#E5E5E5"/>
<path d="M-813 -8427C-813 -8428.1 -812.105 -8429 -811 -8429H13201C13202.1 -8429 13203 -8428.1 13203 -8427V1370C13203 1371.1 13202.1 1372 13201 1372H-811C-812.105 1372 -813 1371.1 -813 1370V-8427Z" fill="#484848"/>
<path d="M-811 -8428H13201V-8430H-811V-8428ZM13202 -8427V1370H13204V-8427H13202ZM13201 1371H-811V1373H13201V1371ZM-812 1370V-8427H-814V1370H-812ZM-811 1371C-811.552 1371 -812 1370.55 -812 1370H-814C-814 1371.66 -812.657 1373 -811 1373V1371ZM13202 1370C13202 1370.55 13201.6 1371 13201 1371V1373C13202.7 1373 13204 1371.66 13204 1370H13202ZM13201 -8428C13201.6 -8428 13202 -8427.55 13202 -8427H13204C13204 -8428.66 13202.7 -8430 13201 -8430V-8428ZM-811 -8430C-812.657 -8430 -814 -8428.66 -814 -8427H-812C-812 -8427.55 -811.552 -8428 -811 -8428V-8430Z" fill="black" fill-opacity="0.1"/>
<g clip-path="url(#clip0_9371_14395)">
<rect width="430" height="9137" transform="translate(-191 -7918)" fill="white"/>
<path d="M-191 -161H239V1219H-191V-161Z" fill="#1E1E1E"/>
<circle cx="17.6171" cy="17.6171" r="17.6171" fill="white" fill-opacity="0.5"/>
<path d="M22.6002 11.82C21.9167 11.0395 21.5401 10.0374 21.5402 9H18.4502V21.4C18.4268 22.0712 18.1437 22.7071 17.6605 23.1735C17.1773 23.6399 16.5318 23.9004 15.8602 23.9C14.4402 23.9 13.2602 22.74 13.2602 21.3C13.2602 19.58 14.9202 18.29 16.6302 18.82V15.66C13.1802 15.2 10.1602 17.88 10.1602 21.3C10.1602 24.63 12.9202 27 15.8502 27C18.9902 27 21.5402 24.45 21.5402 21.3V15.01C22.7932 15.9099 24.2975 16.3926 25.8402 16.39V13.3C25.8402 13.3 23.9602 13.39 22.6002 11.82Z" fill="#1E1E1E"/>
</g>
<defs>
<clipPath id="clip0_9371_14395">
<rect width="430" height="9137" fill="white" transform="translate(-191 -7918)"/>
</clipPath>
</defs>
</svg>
