<svg width="19" height="18" viewBox="0 0 19 18" fill="none" xmlns="http://www.w3.org/2000/svg">
<path fill-rule="evenodd" clip-rule="evenodd" d="M15.8774 2.61584C14.1853 0.929883 11.935 0.000988768 9.53764 0C4.59762 0 0.577164 4.00111 0.575177 8.91881C0.574514 10.4908 0.987158 12.0254 1.77149 13.3781L0.5 18L5.25114 16.7596C6.56027 17.4703 8.03411 17.8449 9.534 17.8453H9.53775C14.4772 17.8453 18.4981 13.8439 18.5 8.92595C18.501 6.54258 17.5696 4.3017 15.8774 2.61584ZM9.53764 16.339H9.53455C8.19793 16.3384 6.88703 15.9809 5.74316 15.3056L5.47126 15.1449L2.65186 15.881L3.4044 13.1453L3.22722 12.8648C2.48153 11.6844 2.08776 10.3201 2.08842 8.91936C2.08997 4.8319 5.43174 1.50645 9.54062 1.50645C11.5303 1.5071 13.4007 2.27922 14.8071 3.68053C16.2135 5.08184 16.9875 6.94446 16.9869 8.9254C16.9851 13.0132 13.6435 16.339 9.53764 16.339V16.339ZM13.6237 10.7866C13.3998 10.675 12.2988 10.136 12.0934 10.0615C11.8883 9.98712 11.7389 9.9501 11.5897 10.1731C11.4404 10.3961 11.0113 10.8982 10.8806 11.0469C10.7499 11.1956 10.6194 11.2143 10.3954 11.1027C10.1714 10.9912 9.44988 10.7557 8.59446 9.99646C7.9288 9.40551 7.47939 8.67568 7.34869 8.45266C7.21821 8.22942 7.34759 8.12043 7.44694 7.99783C7.68936 7.69823 7.93211 7.38413 8.00673 7.23549C8.08147 7.08673 8.04405 6.95654 7.98797 6.84503C7.93211 6.73352 7.48425 5.63654 7.29769 5.19016C7.11576 4.75576 6.9313 4.81443 6.79375 4.80762C6.66327 4.80114 6.51391 4.79982 6.36455 4.79982C6.2153 4.79982 5.97266 4.85552 5.76733 5.07876C5.56211 5.30189 4.98366 5.84099 4.98366 6.93798C4.98366 8.03496 5.7861 9.0947 5.89803 9.24346C6.00997 9.39221 7.47719 11.6433 9.72354 12.6086C10.2578 12.8384 10.6749 12.9754 11.0002 13.0781C11.5367 13.2478 12.0248 13.2238 12.4107 13.1665C12.841 13.1024 13.7355 12.6272 13.9223 12.1067C14.1088 11.5861 14.1088 11.1399 14.0528 11.0469C13.9969 10.9539 13.8475 10.8982 13.6237 10.7866V10.7866Z" fill="white"/>
</svg>
