<svg width="36" height="36" viewBox="0 0 36 36" fill="none" xmlns="http://www.w3.org/2000/svg">
<circle cx="17.7342" cy="17.6171" r="17.6171" fill="white" fill-opacity="0.5"/>
<path d="M16.5054 20.485L20.7581 18.0268L16.5054 15.5686V20.485ZM25.9776 14.0691C26.0841 14.4542 26.1579 14.9704 26.2071 15.626C26.2644 16.2815 26.289 16.8469 26.289 17.3385L26.3382 18.0268C26.3382 19.8213 26.2071 21.1405 25.9776 21.9845C25.7728 22.722 25.2975 23.1972 24.5601 23.4021C24.1749 23.5086 23.4703 23.5823 22.3887 23.6315C21.3234 23.6888 20.3484 23.7134 19.447 23.7134L18.1442 23.7626C14.7109 23.7626 12.5723 23.6315 11.7283 23.4021C10.9908 23.1972 10.5156 22.722 10.3107 21.9845C10.2042 21.5994 10.1305 21.0832 10.0813 20.4276C10.0239 19.7721 9.99936 19.2067 9.99936 18.7151L9.9502 18.0268C9.9502 16.2323 10.0813 14.9131 10.3107 14.0691C10.5156 13.3317 10.9908 12.8564 11.7283 12.6516C12.1134 12.545 12.8181 12.4713 13.8997 12.4221C14.9649 12.3648 15.94 12.3402 16.8413 12.3402L18.1442 12.291C21.5775 12.291 23.7161 12.4221 24.5601 12.6516C25.2975 12.8564 25.7728 13.3317 25.9776 14.0691Z" fill="#1E1E1E"/>
</svg>
