<?xml version="1.0" encoding="UTF-8"?>
<svg id="Layer_1" data-name="Layer 1" xmlns="http://www.w3.org/2000/svg" version="1.1" viewBox="0 0 520 360">
  <defs>
    <style>
      .cls-1 {
        fill: #ff002d;
      }

      .cls-1, .cls-2, .cls-3 {
        stroke-width: 0px;
      }

      .cls-2 {
        fill: #000;
      }

      .cls-3 {
        fill: #fff;
      }
    </style>
  </defs>
  <path class="cls-1" d="M479.14,295.29l-297.49,52.46c-5.7,1.01-11.57.62-17.08-1.14l-109.36-34.73c-12.72-4.04-22.15-14.81-24.47-27.96l-18.98-107.62c-2.32-13.15,2.86-26.49,13.43-34.64l90.89-70.04c4.59-3.54,9.96-5.91,15.67-6.91L429.23,12.26c19.51-3.44,38.11,9.59,41.55,29.09l37.45,212.39c3.44,19.51-9.59,38.11-29.09,41.55Z"/>
  <g>
    <g>
      <path class="cls-2" d="M127.61,123.91l20.24-3.57c4.9-.86,9.66-1.14,14.26-.82,4.61.32,8.77,1.41,12.49,3.28,3.72,1.87,6.89,4.6,9.52,8.18,2.62,3.58,4.43,8.17,5.42,13.76.87,4.96.71,9.5-.5,13.6-1.21,4.11-3.17,7.73-5.89,10.85-2.72,3.13-6.04,5.72-9.96,7.78-3.92,2.06-8.16,3.49-12.71,4.29l-22.06,3.89-10.8-61.25ZM149.71,170.33l7.01-1.24c3.11-.55,5.96-1.38,8.53-2.48,2.57-1.11,4.71-2.57,6.41-4.39,1.7-1.82,2.9-4.02,3.61-6.61.7-2.59.75-5.62.14-9.08-.53-3-1.55-5.51-3.07-7.53-1.52-2.02-3.35-3.59-5.51-4.69-2.16-1.1-4.58-1.79-7.28-2.06-2.69-.27-5.45-.15-8.28.35l-7.96,1.4,6.41,36.34Z"/>
      <path class="cls-2" d="M225.73,164.33l-.17.03c-1.05,2.5-2.68,4.46-4.9,5.86-2.22,1.4-4.66,2.34-7.31,2.81-1.96.35-3.9.4-5.81.18-1.91-.23-3.66-.77-5.24-1.62-1.58-.85-2.91-2.01-4-3.49-1.09-1.47-1.83-3.28-2.2-5.41-.43-2.42-.34-4.55.26-6.38.6-1.83,1.57-3.43,2.9-4.79,1.33-1.36,2.93-2.52,4.78-3.48,1.85-.95,3.81-1.76,5.86-2.42,2.05-.66,4.13-1.2,6.22-1.63,2.09-.43,4.04-.8,5.82-1.12-.41-2.31-1.55-3.99-3.43-5.06s-3.95-1.4-6.2-1-4,1.17-5.6,2.37c-1.6,1.2-2.96,2.71-4.07,4.51l-8.17-5.87c2.03-2.68,4.55-4.86,7.59-6.56,3.03-1.69,6.28-2.85,9.74-3.46,3.81-.67,7.02-.75,9.64-.23,2.62.52,4.83,1.57,6.62,3.16s3.22,3.67,4.27,6.25c1.05,2.58,1.88,5.63,2.51,9.15l3.77,21.37-11.94,2.11-.93-5.28ZM220.21,151.74c-.98.17-2.2.43-3.65.78-1.46.35-2.83.84-4.11,1.48-1.28.64-2.33,1.45-3.14,2.43-.81.98-1.09,2.18-.83,3.63.27,1.56,1.14,2.6,2.6,3.11,1.46.52,2.91.65,4.35.39,1.27-.22,2.46-.61,3.59-1.17,1.12-.55,2.09-1.23,2.9-2.03.81-.8,1.4-1.73,1.78-2.81.37-1.08.45-2.28.21-3.6l-.49-2.77-3.2.56Z"/>
      <path class="cls-2" d="M233.2,101.01l12.98-2.29,11.53,65.41-12.98,2.29-11.53-65.41Z"/>
      <path class="cls-2" d="M287.95,126.15l-11.42,2.01,2.47,14.02c.2,1.15.45,2.2.73,3.13.28.93.69,1.71,1.21,2.33.52.62,1.24,1.05,2.14,1.27.9.23,2.05.22,3.43-.02.69-.12,1.59-.35,2.69-.7,1.1-.34,1.89-.82,2.38-1.44l1.91,10.81c-1.35.77-2.79,1.38-4.32,1.83s-3.04.8-4.54,1.07c-2.19.39-4.25.51-6.18.38s-3.67-.59-5.23-1.35c-1.56-.76-2.88-1.89-3.94-3.36-1.06-1.48-1.8-3.37-2.21-5.68l-3.52-19.99-8.31,1.46-1.83-10.38,8.31-1.46-2.2-12.46,12.98-2.29,2.2,12.46,11.42-2.01,1.83,10.38Z"/>
      <path class="cls-2" d="M292.68,136.29c-.59-3.34-.52-6.48.22-9.4.73-2.92,1.98-5.54,3.75-7.84,1.76-2.3,3.98-4.23,6.65-5.77,2.67-1.54,5.62-2.6,8.85-3.17s6.36-.59,9.4-.05c3.04.53,5.78,1.58,8.23,3.14,2.45,1.56,4.51,3.59,6.2,6.09,1.69,2.5,2.83,5.42,3.42,8.76s.52,6.48-.22,9.4c-.73,2.92-1.98,5.54-3.75,7.84-1.77,2.3-3.98,4.23-6.65,5.77-2.67,1.54-5.62,2.6-8.85,3.17-3.23.57-6.36.59-9.4.05-3.04-.54-5.78-1.58-8.23-3.14-2.45-1.56-4.51-3.59-6.2-6.09-1.69-2.5-2.83-5.42-3.42-8.76ZM305.66,134c.56,3.17,1.92,5.58,4.08,7.22,2.16,1.64,4.89,2.17,8.18,1.59s5.67-2.01,7.14-4.29c1.47-2.28,1.93-5.01,1.37-8.18s-1.92-5.58-4.08-7.22c-2.16-1.64-4.89-2.17-8.18-1.59s-5.67,2.01-7.14,4.29c-1.47,2.28-1.93,5.01-1.37,8.18Z"/>
      <path class="cls-2" d="M341.14,106.07l12.46-2.2,1.01,5.71.17-.03c.26-.88.7-1.79,1.3-2.73.61-.94,1.37-1.82,2.3-2.64.93-.82,2.02-1.54,3.27-2.18,1.26-.64,2.66-1.09,4.22-1.37,3.29-.58,6.03-.54,8.23.11,2.2.65,4.02,1.78,5.46,3.37,1.44,1.59,2.58,3.56,3.41,5.91.83,2.35,1.5,4.94,1.99,7.77l4.09,23.19-12.98,2.29-3.63-20.59c-.21-1.21-.48-2.46-.79-3.74-.32-1.28-.79-2.43-1.41-3.45-.63-1.02-1.45-1.8-2.46-2.33-1.02-.53-2.36-.65-4.03-.36s-2.97.84-3.91,1.63c-.93.79-1.58,1.74-1.95,2.84-.37,1.11-.53,2.31-.48,3.61.05,1.3.2,2.64.44,4.03l3.69,20.94-12.98,2.29-7.41-42.05Z"/>
    </g>
    <g>
      <path class="cls-2" d="M207.52,234.83c-3.36-1.29-6.87-2.13-10.54-2.51-3.67-.38-7.11-.8-10.32-1.27-3.21-.46-5.94-1.22-8.18-2.29-2.24-1.06-3.6-2.92-4.07-5.58-.29-1.66-.13-3.15.5-4.46.62-1.31,1.54-2.43,2.75-3.38,1.2-.94,2.53-1.71,3.96-2.31,1.44-.59,2.86-1.02,4.28-1.27,2.41-.42,5.05-.4,7.92.08,2.87.48,5.27,1.58,7.2,3.29l10.77-16.94c-4.33-2.66-8.94-4.29-13.85-4.89-4.9-.59-9.85-.45-14.84.43-4.32.76-8.41,2.11-12.27,4.03-3.86,1.92-7.14,4.37-9.83,7.33-2.69,2.96-4.66,6.39-5.9,10.3-1.24,3.9-1.44,8.23-.61,12.96.87,4.91,2.58,8.67,5.14,11.31,2.56,2.63,5.55,4.59,8.94,5.88,3.4,1.29,6.98,2.16,10.74,2.6,3.76.45,7.28.95,10.55,1.48,3.27.54,6.05,1.4,8.36,2.58,2.31,1.18,3.7,3.1,4.17,5.76.28,1.58.12,3.02-.46,4.32-.59,1.3-1.46,2.44-2.61,3.42-1.16.98-2.51,1.79-4.07,2.45s-3.12,1.13-4.7,1.41c-3.24.57-6.51.4-9.8-.52-3.29-.92-6.17-2.53-8.63-4.84l-11.16,17.65c4.93,3.16,10,5.18,15.21,6.06,5.21.88,10.69.81,16.42-.2,4.57-.81,8.81-2.15,12.72-4.04,3.91-1.89,7.21-4.31,9.9-7.27,2.69-2.96,4.63-6.43,5.81-10.41,1.18-3.98,1.34-8.42.48-13.33-.91-5.15-2.63-9.09-5.17-11.81-2.54-2.72-5.48-4.73-8.84-6.03Z"/>
      <path class="cls-2" d="M251.09,184.08l-22.59,95,21.44-3.78,4.06-20,34.29-6.05,10.9,17.36,21.94-3.87-53.97-81.5-16.08,2.84ZM257.21,237.77l5.89-29.32,15.68,25.52-21.57,3.8Z"/>
      <polygon class="cls-2" points="331.51 169.9 312.06 173.33 327.62 261.61 383.11 251.83 379.94 233.87 343.91 240.22 331.51 169.9"/>
      <path class="cls-2" d="M453.01,116.62c-2.21,1.26-3.64,3.24-4.59,5.53-.94,2.28-1.65,4.65-2.54,6.95-.47,1.2-1.01,2.41-1.72,3.49-.95,1.45-2.47,2.16-4.17.62-1.94-1.74-3-3.97-3.48-6.47-.75-3.92.3-7.46,2.44-10.73.63-.96,1.33-1.87,2.05-2.86-3.63.78-7,1.98-9.98,4.11-1.83,1.31-3.23,2.97-3.76,5.24-.35,1.51-.06,2.97.24,4.45.78,3.79.96,7.6.14,11.41-.43,1.98-1.09,3.87-2.5,5.38-1.05,1.12-2.31,1.72-3.53,1.03-.91-.51-1.72-1.32-2.35-2.16-1.18-1.58-2.14-3.33-3.3-4.92-2.3-3.15-5.4-5-9.29-5.47-.17-.02-.33-.05-.56-.09.4.69.79,1.32,1.13,1.98,1.55,3.05,2.12,6.29,1.94,9.69-.19,3.67-1.19,7.11-3.01,10.29-.64,1.13-1.4,2.17-2.33,3.07l-27.94,4.93,15.57,88.27,62.22-10.97-3.17-17.95-42.77,7.54-3.17-17.95,38.28-6.75-3.17-17.95-38.28,6.75-2.9-16.46,39.33-6.94c.51.1,1.04.12,1.64.02,3.94-.66,7.59-2.13,10.21-4.35,2.96-2.51,5.17-5.55,6.59-9.16.59-1.49.76-3.04.71-4.62-.1-2.81-.49-5.59-1.05-8.49-.32.65-.56,1.21-.85,1.74-1.05,1.98-2.03,4-3.2,5.92-1.06,1.74-2.23,3.45-3.86,4.75-2.66,2.13-6.03,2.34-8.59-.17-1.94-1.91-2.49-5.28-1.51-7.25.63-1.26,1.73-1.98,2.96-2.5,1.86-.78,3.76-1.46,5.63-2.23,1.88-.78,3.68-1.73,5.32-2.96,2.92-2.17,4.53-5.1,5.01-8.68.27-2.01.11-4.02-.16-6.01-.2-1.51-.47-3.01-.11-4.53.48-2.03,1.9-3.25,3.67-4.13.82-.41,1.67-.77,2.5-1.16-3.34-.83-6.63-1-9.75.78Z"/>
    </g>
    <g>
      <path class="cls-3" d="M200.59,229.25c-3.36-1.29-6.87-2.13-10.54-2.51-3.67-.38-7.11-.8-10.32-1.27-3.21-.46-5.94-1.22-8.18-2.29-2.24-1.06-3.6-2.92-4.07-5.58-.29-1.66-.13-3.15.5-4.46.62-1.31,1.54-2.43,2.75-3.38,1.2-.94,2.53-1.71,3.96-2.31,1.44-.59,2.86-1.02,4.28-1.27,2.41-.42,5.05-.4,7.92.08,2.87.48,5.27,1.58,7.2,3.29l10.77-16.94c-4.33-2.66-8.94-4.29-13.85-4.89-4.9-.59-9.85-.45-14.84.43-4.32.76-8.41,2.11-12.27,4.03-3.86,1.92-7.14,4.37-9.83,7.33-2.69,2.96-4.66,6.39-5.9,10.3-1.24,3.9-1.44,8.23-.61,12.96.87,4.91,2.58,8.67,5.14,11.31,2.56,2.63,5.55,4.59,8.94,5.88,3.4,1.29,6.98,2.16,10.74,2.6,3.76.45,7.28.95,10.55,1.48,3.27.54,6.05,1.4,8.36,2.58,2.31,1.18,3.7,3.1,4.17,5.76.28,1.58.12,3.02-.46,4.32-.59,1.3-1.46,2.44-2.61,3.42-1.16.98-2.51,1.79-4.07,2.45s-3.12,1.13-4.7,1.41c-3.24.57-6.51.4-9.8-.52-3.29-.92-6.17-2.53-8.63-4.84l-11.16,17.65c4.93,3.16,10,5.18,15.21,6.06,5.21.88,10.69.81,16.42-.2,4.57-.81,8.81-2.15,12.72-4.04,3.91-1.89,7.21-4.31,9.9-7.27,2.69-2.96,4.63-6.43,5.81-10.41,1.18-3.98,1.34-8.42.48-13.33-.91-5.15-2.63-9.09-5.17-11.81-2.54-2.72-5.48-4.73-8.84-6.03Z"/>
      <path class="cls-3" d="M244.16,178.51l-22.59,95,21.44-3.78,4.06-20,34.29-6.05,10.9,17.36,21.94-3.87-53.97-81.5-16.08,2.84ZM250.28,232.19l5.89-29.32,15.68,25.52-21.57,3.8Z"/>
      <polygon class="cls-3" points="324.58 164.33 305.13 167.76 320.69 256.03 376.18 246.25 373.01 228.29 336.98 234.65 324.58 164.33"/>
      <path class="cls-3" d="M446.09,111.04c-2.21,1.26-3.64,3.24-4.59,5.53-.94,2.28-1.65,4.65-2.54,6.95-.47,1.2-1.01,2.41-1.72,3.49-.95,1.45-2.47,2.16-4.17.62-1.94-1.74-3-3.97-3.48-6.47-.75-3.92.3-7.46,2.44-10.73.63-.96,1.33-1.87,2.05-2.86-3.63.78-7,1.98-9.98,4.11-1.83,1.31-3.23,2.97-3.76,5.24-.35,1.51-.06,2.97.24,4.45.78,3.79.96,7.6.14,11.41-.43,1.98-1.09,3.87-2.5,5.38-1.05,1.12-2.31,1.72-3.53,1.03-.91-.51-1.72-1.32-2.35-2.16-1.18-1.58-2.14-3.33-3.3-4.92-2.3-3.15-5.4-5-9.29-5.47-.17-.02-.33-.05-.56-.09.4.69.79,1.32,1.13,1.98,1.55,3.05,2.12,6.29,1.94,9.69-.19,3.67-1.19,7.11-3.01,10.29-.64,1.13-1.4,2.17-2.33,3.07l-27.94,4.93,15.57,88.27,62.22-10.97-3.17-17.95-42.77,7.54-3.17-17.95,38.28-6.75-3.17-17.95-38.28,6.75-2.9-16.46,39.33-6.94c.51.1,1.04.12,1.64.02,3.94-.66,7.59-2.13,10.21-4.35,2.96-2.51,5.17-5.55,6.59-9.16.59-1.49.76-3.04.71-4.62-.1-2.81-.49-5.59-1.05-8.49-.32.65-.56,1.21-.85,1.74-1.05,1.98-2.03,4-3.2,5.92-1.06,1.74-2.23,3.45-3.86,4.75-2.66,2.13-6.03,2.34-8.59-.17-1.94-1.91-2.49-5.28-1.51-7.25.63-1.26,1.73-1.98,2.96-2.5,1.86-.78,3.76-1.46,5.63-2.23,1.88-.78,3.68-1.73,5.32-2.96,2.92-2.17,4.53-5.1,5.01-8.68.27-2.01.11-4.02-.16-6.01-.2-1.51-.47-3.01-.11-4.53.48-2.03,1.9-3.25,3.67-4.13.82-.41,1.67-.77,2.5-1.16-3.34-.83-6.63-1-9.75.78Z"/>
    </g>
  </g>
  <circle class="cls-2" cx="75.1" cy="220.62" r="16.32"/>
</svg>