<svg width="61" height="61" viewBox="0 0 61 61" fill="none" xmlns="http://www.w3.org/2000/svg">
<path d="M51.7372 38.0927C46.4401 32.9194 39.5709 29.8991 32.235 29.4769V17.9878H52.6051C53.2972 17.9878 53.9268 17.5881 54.2214 16.9621C54.5165 16.3362 54.423 15.5962 53.9822 15.0629L48.9667 8.99415L53.9822 2.92545C54.423 2.39211 54.5165 1.65214 54.2214 1.02572C53.9268 0.399771 53.2972 0.000465391 52.6051 0.000465391H30.4525C30.4511 0.000465391 30.4497 0 30.4479 0C29.4612 0 28.6612 0.800008 28.6612 1.78664V29.4774C21.336 29.9014 14.4761 32.9167 9.18367 38.0792C3.46122 43.6607 0.200224 51.1358 0.00103684 59.127C-0.0231635 60.1137 0.756367 60.9332 1.743 60.9579C1.75835 60.9579 1.77325 60.9583 1.78814 60.9583C2.75476 60.9583 3.54964 60.1872 3.57385 59.2159C3.72882 52.9992 5.92919 47.3522 9.52992 42.9044C12.4777 45.6875 15.9444 47.8408 19.6969 49.2593C19.2785 52.4612 19.0523 55.8307 19.0258 59.1912C19.0179 60.1783 19.8113 60.9844 20.798 60.9923C21.7837 60.9965 22.5911 60.2067 22.599 59.2196C22.6237 56.1397 22.8141 53.1477 23.1552 50.3358C25.5273 50.924 27.9771 51.2321 30.4534 51.2321C32.9293 51.2321 35.3791 50.9236 37.7517 50.3353C38.0933 53.1495 38.2837 56.1439 38.3079 59.2271C38.3153 60.2091 39.1139 61.0002 40.0945 61.0002H40.1085C41.0956 60.9923 41.889 60.1858 41.8811 59.1992C41.8546 55.8353 41.6289 52.4626 41.21 49.2579C44.9248 47.8539 48.3608 45.7293 51.289 42.9873C54.9372 47.462 57.1888 53.1137 57.3335 59.2504C57.3568 60.2226 58.1521 60.9951 59.1192 60.9951C59.1336 60.9951 59.1476 60.9951 59.162 60.9946C60.1487 60.9714 60.9296 60.1527 60.9063 59.1661C60.7178 51.167 57.461 43.683 51.7372 38.0927ZM32.235 3.57374H48.8103L45.2715 7.8558C44.7256 8.51619 44.7256 9.47164 45.2715 10.132L48.8103 14.4141H32.235V3.57374ZM11.9602 40.2847C15.3641 37.0745 19.6154 34.7563 24.3615 33.6771C22.533 36.6063 21.161 40.8288 20.2656 45.6432C17.2093 44.3909 14.3853 42.5796 11.9602 40.2847ZM30.4534 47.6579C28.1535 47.6579 25.8791 47.3587 23.6839 46.7853C24.1302 44.282 24.7077 41.9769 25.4049 39.952C27.1706 34.8243 29.1704 32.9972 30.4534 32.9972C31.7365 32.9972 33.7368 34.8248 35.5025 39.9543C36.1996 41.9788 36.7763 44.2829 37.2226 46.7849C35.0273 47.3587 32.7525 47.6579 30.4534 47.6579ZM36.5692 33.7139C41.2352 34.821 45.4558 37.1624 48.855 40.3708C46.4513 42.6243 43.6594 44.4058 40.6413 45.6423C39.7501 40.8483 38.3856 36.6412 36.5692 33.7139Z" fill="black"/>
</svg>
