<svg width="318" height="122" viewBox="0 0 318 122" fill="none" xmlns="http://www.w3.org/2000/svg">
<path d="M79.8227 76.8955H39.4372C36.2015 76.8955 33.4173 79.0551 32.8229 82.0274C32.7853 82.2381 32.7477 82.4412 32.7327 82.6519C32.4016 85.9102 34.8246 88.8147 38.0377 89.4167L61.0032 96.5878C54.9082 100.297 47.7295 102.419 40.0392 102.419C38.5192 102.419 37.0218 102.337 35.5394 102.171C23.0935 100.802 13.808 90.0187 13.808 77.4975V65.661L15.358 67.3541L16.0052 67.9486L28.7445 80.688C29.9259 76.0602 34.1549 72.6139 39.1212 72.6139H44.1778L21.438 49.8741C18.9097 47.3458 15.5838 46.0816 12.2579 46.0816C8.93191 46.0816 5.60601 47.3458 3.07769 49.8741C3.06264 49.8891 0 53.1775 0 59.3252V80.8008C0 102.766 17.4048 121.141 39.3696 121.502C61.8009 121.878 80.1085 103.804 80.1085 81.4555V76.8955H79.8377H79.8227Z" fill="#D10C2B"/>
<path d="M51.0854 0.0075321C47.2779 0.0075321 44.1777 3.10773 44.1777 6.91525V66.5414L50.3254 72.6515H58.0008V6.90773C58.0008 3.10021 54.9005 0 51.0929 0L51.0854 0.0075321Z" fill="#D10C2B"/>
<path d="M73.1784 0.00752258C69.3709 0.00752258 66.2708 3.10772 66.2708 6.91524V72.659H80.0936V6.91524C80.0936 3.10772 76.9935 0.00752258 73.186 0.00752258H73.1784Z" fill="#D10C2B"/>
<path d="M28.9931 0.00752258C25.1856 0.00752258 22.0854 3.10772 22.0854 6.91524V44.5616L35.9083 58.3168V6.92277C35.9083 3.11525 32.8082 0.0150432 29.0007 0.0150432L28.9931 0.00752258Z" fill="#D10C2B"/>
<path d="M115.151 20.8887H119.395L129.531 44.1929H123.737L121.728 39.2567H112.676L110.734 44.1929H105.076L115.144 20.8887H115.151ZM117.13 27.6685L114.301 34.9073H119.997L117.138 27.6685H117.13Z" fill="#D10C2B"/>
<path d="M132.466 20.8887H139.442L149.352 37.082H149.419V20.8887H154.551V44.1929H147.839L137.666 27.6083H137.598V44.1929H132.466V20.8887ZM137.071 18.9774C137.161 18.4281 137.312 17.8788 137.53 17.3295C137.748 16.7802 138.027 16.2911 138.365 15.8622C138.704 15.4333 139.118 15.0872 139.6 14.8238C140.081 14.5604 140.63 14.4325 141.247 14.4325C141.797 14.4325 142.286 14.5002 142.73 14.6281C143.174 14.7561 143.625 14.9216 144.114 15.1248C144.423 15.2376 144.724 15.343 145.017 15.4559C145.311 15.5687 145.627 15.6214 145.958 15.6214C146.327 15.6214 146.628 15.5085 146.846 15.2753C147.064 15.042 147.252 14.7636 147.403 14.44H149.969C149.856 15.0796 149.705 15.6666 149.51 16.2159C149.314 16.7652 149.043 17.2392 148.704 17.6456C148.366 18.0519 147.944 18.3755 147.455 18.6163C146.966 18.857 146.372 18.9774 145.694 18.9774C145.213 18.9774 144.754 18.9097 144.325 18.7667C143.896 18.6238 143.497 18.4658 143.121 18.2927C142.745 18.1196 142.391 17.9616 142.053 17.8186C141.714 17.6757 141.375 17.6079 141.052 17.6079C140.676 17.6079 140.382 17.7584 140.164 18.067C139.946 18.3755 139.78 18.684 139.675 18.985H137.071V18.9774Z" fill="#D10C2B"/>
<path d="M158.629 32.5371C158.629 30.6709 158.938 28.9854 159.57 27.4654C160.195 25.9529 161.067 24.6662 162.189 23.5976C163.31 22.5367 164.634 21.7165 166.169 21.1446C167.704 20.5727 169.382 20.2868 171.203 20.2868C173.024 20.2868 174.702 20.5727 176.237 21.1446C177.772 21.7165 179.104 22.5291 180.218 23.5976C181.339 24.6586 182.212 25.9529 182.836 27.4654C183.461 28.9778 183.777 30.6709 183.777 32.5371C183.777 34.4032 183.461 36.0887 182.836 37.6087C182.212 39.1287 181.339 40.4155 180.218 41.4765C179.097 42.5375 177.772 43.3577 176.237 43.9295C174.702 44.5014 173.024 44.7874 171.203 44.7874C169.382 44.7874 167.704 44.5014 166.169 43.9295C164.634 43.3577 163.302 42.545 162.189 41.4765C161.067 40.4155 160.195 39.1212 159.57 37.6087C158.945 36.0963 158.629 34.4032 158.629 32.5371ZM163.957 32.5371C163.957 33.6357 164.13 34.6365 164.469 35.547C164.807 36.4575 165.296 37.2476 165.936 37.9173C166.568 38.587 167.336 39.1062 168.223 39.4824C169.111 39.8586 170.105 40.0392 171.203 40.0392C172.302 40.0392 173.295 39.8511 174.183 39.4824C175.071 39.1137 175.831 38.587 176.471 37.9173C177.103 37.2476 177.592 36.4575 177.938 35.547C178.276 34.6365 178.449 33.6357 178.449 32.5371C178.449 31.4384 178.276 30.4602 177.938 29.5422C177.599 28.6242 177.11 27.8266 176.471 27.1569C175.831 26.4872 175.071 25.968 174.183 25.5917C173.295 25.2155 172.302 25.0349 171.203 25.0349C170.105 25.0349 169.111 25.223 168.223 25.5917C167.336 25.9604 166.576 26.4872 165.936 27.1569C165.296 27.8266 164.815 28.6242 164.469 29.5422C164.13 30.4602 163.957 31.461 163.957 32.5371Z" fill="#D10C2B"/>
<path d="M199.376 26.5774C198.962 26.0507 198.397 25.6594 197.683 25.4111C196.968 25.1628 196.298 25.0349 195.659 25.0349C195.282 25.0349 194.899 25.08 194.507 25.1703C194.116 25.2606 193.74 25.396 193.386 25.5842C193.032 25.7723 192.746 26.0206 192.528 26.3216C192.31 26.6226 192.197 26.9988 192.197 27.4428C192.197 28.1426 192.46 28.6844 192.987 29.0531C193.514 29.4218 194.176 29.7454 194.981 30.0087C195.786 30.2721 196.644 30.5355 197.562 30.7988C198.48 31.0622 199.346 31.4384 200.143 31.92C200.941 32.4016 201.611 33.0487 202.137 33.8614C202.664 34.6741 202.927 35.7576 202.927 37.1196C202.927 38.4816 202.687 39.5426 202.205 40.5133C201.723 41.4764 201.069 42.2816 200.249 42.9137C199.428 43.5533 198.473 44.0198 197.389 44.3283C196.306 44.6368 195.154 44.7873 193.95 44.7873C192.438 44.7873 191.031 44.5541 189.736 44.0951C188.442 43.636 187.238 42.8911 186.117 41.8602L189.767 37.842C190.293 38.5418 190.956 39.0836 191.761 39.4749C192.566 39.8661 193.393 40.0543 194.244 40.0543C194.658 40.0543 195.079 40.0016 195.508 39.9038C195.937 39.8059 196.321 39.6555 196.659 39.4598C196.998 39.2642 197.276 39.0083 197.479 38.6998C197.683 38.3913 197.795 38.0301 197.795 37.6162C197.795 36.9164 197.525 36.3596 196.99 35.9533C196.449 35.5469 195.779 35.2008 194.966 34.9149C194.154 34.6289 193.273 34.343 192.333 34.057C191.392 33.7711 190.512 33.3873 189.699 32.9058C188.886 32.4242 188.209 31.7846 187.675 30.9945C187.133 30.2044 186.87 29.1659 186.87 27.8642C186.87 26.5624 187.118 25.5164 187.607 24.5758C188.096 23.6352 188.758 22.8452 189.578 22.2056C190.399 21.5735 191.354 21.0919 192.423 20.7758C193.499 20.4598 194.605 20.3018 195.749 20.3018C197.066 20.3018 198.337 20.4899 199.564 20.8586C200.79 21.2349 201.896 21.8594 202.89 22.7323L199.368 26.585L199.376 26.5774Z" fill="#D10C2B"/>
<path d="M128.583 70.8757C127.07 71.6658 125.49 72.2377 123.842 72.5838C122.194 72.9375 120.516 73.1105 118.808 73.1105C116.987 73.1105 115.309 72.8246 113.774 72.2527C112.239 71.6808 110.907 70.8682 109.794 69.7996C108.672 68.7387 107.8 67.4444 107.175 65.9319C106.55 64.4194 106.234 62.7264 106.234 60.8678C106.234 59.0091 106.543 57.3161 107.175 55.7961C107.8 54.2836 108.672 52.9969 109.794 51.9284C110.915 50.8674 112.239 50.0472 113.774 49.4753C115.309 48.9034 116.987 48.6175 118.808 48.6175C120.629 48.6175 122.39 48.8432 123.963 49.2947C125.535 49.7462 126.905 50.5212 128.094 51.6123L124.474 55.5628C123.775 54.8404 122.985 54.2911 122.104 53.9149C121.224 53.5387 120.133 53.3581 118.816 53.3581C117.717 53.3581 116.724 53.5462 115.836 53.9149C114.948 54.2836 114.188 54.8103 113.548 55.48C112.909 56.1497 112.427 56.9474 112.081 57.8654C111.743 58.7834 111.569 59.7842 111.569 60.8602C111.569 61.9363 111.743 62.9596 112.081 63.8701C112.42 64.7806 112.909 65.5707 113.548 66.2404C114.18 66.9101 114.948 67.4293 115.836 67.8056C116.724 68.1743 117.717 68.3624 118.816 68.3624C119.914 68.3624 120.9 68.2345 121.713 67.9862C122.526 67.7379 123.173 67.4745 123.654 67.2111V63.4262H119.478V58.6856H128.598V70.8606L128.583 70.8757Z" fill="#D10C2B"/>
<path d="M141.353 49.2194H145.596L155.732 72.5236H149.938L147.929 67.5874H138.877L136.935 72.5236H131.277L141.345 49.2194H141.353ZM143.332 55.9992L140.502 63.2381H146.199L143.339 55.9992H143.332Z" fill="#D10C2B"/>
<path d="M158.667 49.2194H167.682C168.863 49.2194 169.992 49.3323 171.053 49.5656C172.114 49.7988 173.047 50.1826 173.852 50.7169C174.65 51.2511 175.289 51.981 175.763 52.8915C176.237 53.802 176.471 54.9382 176.471 56.3002C176.471 57.9481 176.042 59.3478 175.184 60.499C174.326 61.6503 173.077 62.3802 171.429 62.6887L177.351 72.5311H171.196L166.327 63.2155H163.791V72.5311H158.66V49.2269L158.667 49.2194ZM163.799 58.8586H166.824C167.283 58.8586 167.772 58.8436 168.291 58.806C168.81 58.7683 169.27 58.6705 169.691 58.5125C170.112 58.3545 170.451 58.0911 170.729 57.7375C171 57.3838 171.143 56.8947 171.143 56.2551C171.143 55.6606 171.023 55.1941 170.782 54.8404C170.541 54.4868 170.233 54.2234 169.864 54.0353C169.495 53.8472 169.066 53.7192 168.577 53.659C168.096 53.5913 167.622 53.5612 167.162 53.5612H163.806V58.8586H163.799Z" fill="#D10C2B"/>
<path d="M188.254 49.2194H192.498L202.634 72.5236H196.84L194.831 67.5874H185.779L183.837 72.5236H178.179L188.247 49.2194H188.254ZM190.233 55.9992L187.404 63.2381H193.1L190.241 55.9992H190.233Z" fill="#D10C2B"/>
<path d="M205.569 49.2194H212.544L222.454 65.4127H222.522V49.2194H227.654V72.5236H220.942L210.769 55.939H210.701V72.5236H205.569V49.2194Z" fill="#D10C2B"/>
<path d="M237.489 53.7568H230.837V49.2119H249.265V53.7568H242.613V72.5161H237.481V53.7568H237.489Z" fill="#D10C2B"/>
<path d="M254.999 42.7632H261.711L256.015 47.5038H251.673L254.999 42.7632ZM252.403 49.2119H257.535V72.5161H252.403V49.2119Z" fill="#D10C2B"/>
<path d="M270.47 49.2194H274.714L284.849 72.5236H279.055L277.046 67.5874H267.994L266.053 72.5236H260.394L270.462 49.2194H270.47ZM272.449 55.9992L269.619 63.2381H275.316L272.456 55.9992H272.449Z" fill="#D10C2B"/>
<path d="M106.234 90.5454C106.234 88.6793 106.543 86.9937 107.175 85.4737C107.8 83.9612 108.672 82.6745 109.794 81.606C110.915 80.545 112.239 79.7248 113.774 79.1529C115.309 78.581 116.987 78.2951 118.808 78.2951C120.629 78.2951 122.307 78.581 123.842 79.1529C125.377 79.7248 126.709 80.5375 127.823 81.606C128.944 82.667 129.817 83.9612 130.442 85.4737C131.066 86.9862 131.382 88.6793 131.382 90.5454C131.382 92.4115 131.066 94.0971 130.442 95.6096C129.817 97.122 128.944 98.4163 127.823 99.4773C126.702 100.538 125.377 101.358 123.842 101.93C122.307 102.502 120.629 102.788 118.808 102.788C116.987 102.788 115.309 102.502 113.774 101.93C112.239 101.358 110.907 100.546 109.794 99.4773C108.672 98.4163 107.8 97.122 107.175 95.6096C106.55 94.0971 106.234 92.404 106.234 90.5454ZM111.562 90.5454C111.562 91.644 111.735 92.6448 112.074 93.5553C112.412 94.4658 112.901 95.2559 113.541 95.9256C114.173 96.5953 114.941 97.1145 115.828 97.4907C116.716 97.8595 117.71 98.0476 118.808 98.0476C119.907 98.0476 120.9 97.8595 121.788 97.4907C122.676 97.1145 123.436 96.5953 124.076 95.9256C124.708 95.2559 125.197 94.4658 125.543 93.5553C125.882 92.6448 126.055 91.644 126.055 90.5454C126.055 89.4468 125.882 88.4686 125.543 87.5505C125.204 86.6325 124.715 85.8349 124.076 85.1652C123.436 84.4955 122.676 83.9763 121.788 83.6C120.9 83.2238 119.907 83.0432 118.808 83.0432C117.71 83.0432 116.716 83.2313 115.828 83.6C114.941 83.9688 114.18 84.4955 113.541 85.1652C112.901 85.8349 112.42 86.6325 112.074 87.5505C111.735 88.4686 111.562 89.4693 111.562 90.5454Z" fill="#D10C2B"/>
<path d="M152.873 87.2195C153.136 87.1517 153.4 87.0991 153.663 87.0539C153.927 87.0088 154.198 86.9862 154.483 86.9862C155.582 86.9862 156.575 87.1818 157.478 87.5807C158.374 87.9719 159.141 88.5137 159.781 89.191C160.421 89.8682 160.91 90.6809 161.263 91.6139C161.617 92.547 161.79 93.5403 161.79 94.5937C161.79 95.7977 161.564 96.8963 161.113 97.867C160.661 98.8452 160.052 99.6805 159.269 100.388C158.494 101.088 157.569 101.629 156.508 102.021C155.447 102.412 154.31 102.6 153.099 102.6C151.887 102.6 150.729 102.404 149.675 102.021C148.622 101.637 147.704 101.095 146.929 100.388C146.154 99.688 145.537 98.8452 145.085 97.867C144.634 96.8888 144.408 95.7977 144.408 94.5937C144.408 93.7585 144.483 92.9985 144.641 92.3062C144.799 91.6139 144.995 90.9593 145.251 90.3498C145.499 89.7327 145.8 89.1458 146.138 88.589C146.477 88.0322 146.838 87.4527 147.207 86.8583L152.309 78.8971H158.329L152.866 87.227L152.873 87.2195ZM156.854 94.3906C156.854 93.3371 156.508 92.4642 155.815 91.772C155.123 91.0797 154.22 90.7335 153.099 90.7335C151.978 90.7335 151.075 91.0797 150.383 91.772C149.69 92.4642 149.344 93.3371 149.344 94.3906C149.344 95.444 149.69 96.3169 150.383 97.0092C151.075 97.7015 151.978 98.0476 153.099 98.0476C154.22 98.0476 155.123 97.7015 155.815 97.0092C156.508 96.3169 156.854 95.444 156.854 94.3906Z" fill="#D10C2B"/>
<path d="M164.589 90.5454C164.589 89.1608 164.717 87.7612 164.965 86.3315C165.221 84.9018 165.665 83.6076 166.312 82.4488C166.959 81.2824 167.84 80.3343 168.961 79.6044C170.082 78.867 171.504 78.4983 173.243 78.4983C174.981 78.4983 176.403 78.867 177.524 79.6044C178.645 80.3418 179.526 81.29 180.173 82.4488C180.82 83.6151 181.271 84.9094 181.52 86.3315C181.768 87.7612 181.896 89.1608 181.896 90.5454C181.896 91.93 181.768 93.3296 181.52 94.7593C181.271 96.189 180.82 97.4757 180.173 98.642C179.526 99.8084 178.645 100.756 177.524 101.486C176.403 102.224 174.981 102.593 173.243 102.593C171.504 102.593 170.082 102.224 168.961 101.486C167.84 100.749 166.959 99.8009 166.312 98.642C165.665 97.4757 165.214 96.189 164.965 94.7593C164.717 93.3296 164.589 91.93 164.589 90.5454ZM169.525 90.5454C169.525 91.1624 169.555 91.8923 169.608 92.7501C169.661 93.608 169.811 94.4282 170.052 95.2183C170.293 96.0084 170.662 96.6781 171.158 97.2274C171.647 97.7767 172.347 98.0476 173.25 98.0476C174.153 98.0476 174.823 97.7692 175.327 97.2274C175.831 96.6856 176.207 96.0084 176.448 95.2183C176.689 94.4282 176.839 93.608 176.892 92.7501C176.945 91.8923 176.975 91.1624 176.975 90.5454C176.975 89.9284 176.945 89.1985 176.892 88.3406C176.839 87.4828 176.689 86.6626 176.448 85.8725C176.207 85.0824 175.831 84.4127 175.327 83.8634C174.823 83.3141 174.131 83.0432 173.25 83.0432C172.37 83.0432 171.655 83.3141 171.158 83.8634C170.662 84.4127 170.3 85.0824 170.052 85.8725C169.811 86.6626 169.661 87.4828 169.608 88.3406C169.555 89.1985 169.525 89.9284 169.525 90.5454Z" fill="#D10C2B"/>
<path d="M186.576 96.8662H191.317L188.352 106.144H184.138L186.576 96.8662Z" fill="#D10C2B"/>
<path d="M194.996 90.5454C194.996 89.1608 195.124 87.7612 195.373 86.3315C195.628 84.9018 196.072 83.6076 196.72 82.4488C197.367 81.2824 198.247 80.3343 199.368 79.6044C200.489 78.8745 201.912 78.4983 203.65 78.4983C205.388 78.4983 206.81 78.867 207.932 79.6044C209.053 80.3418 209.933 81.29 210.58 82.4488C211.227 83.6151 211.679 84.9094 211.927 86.3315C212.175 87.7612 212.303 89.1608 212.303 90.5454C212.303 91.93 212.175 93.3296 211.927 94.7593C211.679 96.189 211.227 97.4757 210.58 98.642C209.933 99.8084 209.053 100.756 207.932 101.486C206.81 102.224 205.388 102.593 203.65 102.593C201.912 102.593 200.489 102.224 199.368 101.486C198.247 100.749 197.367 99.8009 196.72 98.642C196.072 97.4757 195.621 96.189 195.373 94.7593C195.124 93.3296 194.996 91.93 194.996 90.5454ZM199.933 90.5454C199.933 91.1624 199.963 91.8923 200.015 92.7501C200.068 93.608 200.219 94.4282 200.459 95.2183C200.7 96.0084 201.069 96.6781 201.565 97.2274C202.055 97.7767 202.754 98.0476 203.657 98.0476C204.56 98.0476 205.23 97.7692 205.734 97.2274C206.238 96.6856 206.615 96.0084 206.855 95.2183C207.096 94.4282 207.247 93.608 207.299 92.7501C207.352 91.8923 207.382 91.1624 207.382 90.5454C207.382 89.9284 207.352 89.1985 207.299 88.3406C207.247 87.4828 207.096 86.6626 206.855 85.8725C206.615 85.0824 206.238 84.4127 205.734 83.8634C205.23 83.3141 204.538 83.0432 203.657 83.0432C202.777 83.0432 202.062 83.3141 201.565 83.8634C201.069 84.4127 200.708 85.0824 200.459 85.8725C200.219 86.6626 200.068 87.4828 200.015 88.3406C199.963 89.1985 199.933 89.9284 199.933 90.5454Z" fill="#D10C2B"/>
<path d="M215.073 90.5454C215.073 89.1608 215.2 87.7612 215.449 86.3315C215.705 84.9018 216.148 83.6076 216.796 82.4488C217.443 81.2824 218.323 80.3343 219.444 79.6044C220.565 78.8745 221.988 78.4983 223.726 78.4983C225.464 78.4983 226.886 78.867 228.008 79.6044C229.129 80.3418 230.009 81.29 230.656 82.4488C231.303 83.6151 231.755 84.9094 232.003 86.3315C232.252 87.7612 232.379 89.1608 232.379 90.5454C232.379 91.93 232.252 93.3296 232.003 94.7593C231.755 96.189 231.303 97.4757 230.656 98.642C230.009 99.8084 229.129 100.756 228.008 101.486C226.886 102.224 225.464 102.593 223.726 102.593C221.988 102.593 220.565 102.224 219.444 101.486C218.323 100.749 217.443 99.8009 216.796 98.642C216.148 97.4757 215.697 96.189 215.449 94.7593C215.2 93.3296 215.073 91.93 215.073 90.5454ZM220.009 90.5454C220.009 91.1624 220.039 91.8923 220.091 92.7501C220.144 93.608 220.295 94.4282 220.535 95.2183C220.776 96.0084 221.145 96.6781 221.642 97.2274C222.131 97.7767 222.831 98.0476 223.734 98.0476C224.636 98.0476 225.306 97.7692 225.81 97.2274C226.315 96.6856 226.691 96.0084 226.932 95.2183C227.172 94.4282 227.323 93.608 227.375 92.7501C227.428 91.8923 227.458 91.1624 227.458 90.5454C227.458 89.9284 227.428 89.1985 227.375 88.3406C227.323 87.4828 227.172 86.6626 226.932 85.8725C226.691 85.0824 226.315 84.4127 225.81 83.8634C225.306 83.3141 224.614 83.0432 223.734 83.0432C222.853 83.0432 222.138 83.3141 221.642 83.8634C221.145 84.4127 220.784 85.0824 220.535 85.8725C220.295 86.6626 220.144 87.4828 220.091 88.3406C220.039 89.1985 220.009 89.9284 220.009 90.5454Z" fill="#D10C2B"/>
<path d="M235.156 90.5454C235.156 89.1608 235.284 87.7612 235.532 86.3315C235.788 84.9018 236.232 83.6076 236.879 82.4488C237.527 81.2824 238.407 80.3343 239.528 79.6044C240.649 78.867 242.071 78.4983 243.81 78.4983C245.548 78.4983 246.97 78.867 248.091 79.6044C249.212 80.3418 250.093 81.29 250.74 82.4488C251.387 83.6151 251.839 84.9094 252.087 86.3315C252.335 87.7612 252.463 89.1608 252.463 90.5454C252.463 91.93 252.335 93.3296 252.087 94.7593C251.839 96.189 251.387 97.4757 250.74 98.642C250.093 99.8084 249.212 100.756 248.091 101.486C246.97 102.224 245.548 102.593 243.81 102.593C242.071 102.593 240.649 102.224 239.528 101.486C238.407 100.749 237.527 99.8009 236.879 98.642C236.232 97.4757 235.781 96.189 235.532 94.7593C235.284 93.3296 235.156 91.93 235.156 90.5454ZM240.093 90.5454C240.093 91.1624 240.123 91.8923 240.175 92.7501C240.228 93.608 240.378 94.4282 240.619 95.2183C240.86 96.0084 241.229 96.6781 241.725 97.2274C242.214 97.7767 242.914 98.0476 243.817 98.0476C244.72 98.0476 245.39 97.7692 245.894 97.2274C246.398 96.6856 246.774 96.0084 247.015 95.2183C247.256 94.4282 247.406 93.608 247.459 92.7501C247.512 91.8923 247.542 91.1624 247.542 90.5454C247.542 89.9284 247.512 89.1985 247.459 88.3406C247.406 87.4828 247.256 86.6626 247.015 85.8725C246.774 85.0824 246.398 84.4127 245.894 83.8634C245.39 83.3141 244.698 83.0432 243.817 83.0432C242.937 83.0432 242.222 83.3141 241.725 83.8634C241.229 84.4127 240.868 85.0824 240.619 85.8725C240.378 86.6626 240.228 87.4828 240.175 88.3406C240.123 89.1985 240.093 89.9284 240.093 90.5454Z" fill="#D10C2B"/>
<path d="M267.046 78.8896H272.178V88.5664L281.23 78.8896H287.942L277.573 89.7177L288.83 102.194H281.652L272.171 91.1323V102.194H267.039V78.8896H267.046Z" fill="#D10C2B"/>
<path d="M291.2 78.8896H298.966L304.331 94.0971H304.399L309.794 78.8896H317.53V102.194H312.398V84.3224H312.33L306.205 102.194H302.284L296.392 84.3224H296.325V102.194H291.193V78.8896H291.2Z" fill="#D10C2B"/>
</svg>
