<svg width="431" height="65" viewBox="0 0 431 65" fill="none" xmlns="http://www.w3.org/2000/svg">
<path fill-rule="evenodd" clip-rule="evenodd" d="M20.6321 0.0832301C19.0065 0.181746 16.4335 0.520969 14.8867 0.840708C13.6963 1.08667 12.0858 1.49201 12.0145 1.56349C11.9873 1.59074 13.3193 2.97818 14.9748 4.64649L17.9847 7.6799L9.05462 33.8414C4.143 48.2302 0.0964324 60.1137 0.062218 60.2491L0 60.4954H9.90638H19.8127L27.6493 48.4819C31.9594 41.8746 35.7155 36.0864 35.9961 35.6195C36.6001 34.6142 37.1346 33.1945 37.3662 31.9805C37.713 30.1623 37.3566 27.8539 36.5213 26.5074C36.3211 26.1848 32.4653 22.2229 27.1309 16.8587L18.0802 7.7574L19.1037 7.68384C20.2632 7.60043 22.8665 7.75609 24.5523 8.00949C29.9257 8.81732 35.1044 11.0796 39.3593 14.4777C40.6425 15.5025 43.2917 18.1828 44.3477 19.5245C47.719 23.8082 49.8717 28.8237 50.7506 34.4434C51.0246 36.1956 51.0869 40.3544 50.8675 42.254C50.4181 46.1454 49.3917 49.5805 47.6489 53.0256C46.4591 55.3773 45.2039 57.2389 43.3684 59.3734L42.4037 60.4954H51.7727H61.1417L61.3769 59.9754C63.3342 55.6471 64.4852 51.4865 65.0339 46.7579C65.2967 44.4931 65.299 39.8154 65.0383 37.6178C64.6567 34.3999 64.1259 31.9327 63.206 29.1025C58.1797 13.6378 44.7529 2.43962 28.7354 0.353383C26.0343 0.00157138 23.4184 -0.08567 20.6321 0.0832301ZM66.4505 54.6357C65.8087 54.8655 65.2721 55.3606 64.9202 56.0474C64.6542 56.5668 64.6028 56.7967 64.6049 57.4596C64.6088 58.7176 65.0779 59.563 66.0821 60.122C66.5892 60.4043 66.7604 60.4405 67.5808 60.4393C68.6199 60.4379 69.1211 60.2448 69.7651 59.5978C70.6285 58.7304 70.8323 57.2045 70.2401 56.0413C69.8852 55.3441 69.2301 54.7692 68.586 54.5895C68.022 54.4321 66.9546 54.4552 66.4505 54.6357ZM68.4287 55.3017C69.3026 55.6684 69.8642 56.5227 69.8642 57.4852C69.8642 58.7779 68.8352 59.8386 67.5808 59.8386C65.5434 59.8386 64.5199 57.2472 65.9786 55.7818C66.6158 55.1418 67.5918 54.9505 68.4287 55.3017ZM66.4065 57.4578L66.4367 59.0176L66.7908 59.0519L67.1449 59.0863V58.532C67.1449 58.0567 67.175 57.9778 67.3561 57.9778C67.4972 57.9778 67.6654 58.1591 67.8638 58.5251C68.1415 59.0379 68.187 59.0724 68.5867 59.0724H69.0133L68.6611 58.4541C68.3577 57.9213 68.3315 57.8192 68.472 57.7153C68.9693 57.3468 69.014 56.6641 68.5698 56.2179C68.2671 55.9138 68.2047 55.898 67.3137 55.898H66.3762L66.4065 57.4578ZM68.0243 56.7281C68.2408 56.9903 68.0137 57.26 67.5425 57.3002C67.1532 57.3335 67.1449 57.3261 67.1449 56.9444C67.1449 56.5748 67.1638 56.5547 67.513 56.5547C67.7158 56.5547 67.9453 56.6326 68.0243 56.7281Z" fill="#EA0A2A"/>
<path fill-rule="evenodd" clip-rule="evenodd" d="M88.5 36.23V60.1366L99.3837 60.0756C109.859 60.0168 110.342 59.999 112.251 59.5986C120.825 57.801 127.007 53.3585 130.304 46.6261C132.07 43.0209 132.775 38.8386 132.414 34.1078C131.926 27.7016 129.944 23.2325 125.885 19.3836C122.974 16.6224 119.663 14.8672 115.235 13.7369C110.82 12.6098 109.342 12.493 98.3734 12.4037L88.5 12.3232V36.23ZM168.406 36.2379V60.1179H173.458H178.509V36.2379V12.358H173.458H168.406V36.2379ZM187.596 17.1799C187.549 17.3063 186.242 21.1085 184.692 25.6297L181.874 33.8499H183.59H185.306L185.307 42.5294C185.308 47.58 185.388 51.7081 185.498 52.4028C185.931 55.1407 187.554 57.4007 190.012 58.6891C192.275 59.8758 193.144 60.0253 197.705 60.0119C201.146 60.0018 201.937 59.9463 203.032 59.6375L204.318 59.2751L204.367 55.0211L204.416 50.7672L203.54 51.164C202.81 51.4948 202.313 51.562 200.552 51.5685C198.698 51.5753 198.333 51.5235 197.564 51.1452C195.623 50.1889 195.372 48.8792 195.447 40.0954L195.501 33.9418L199.955 33.8925L204.41 33.8433V29.8054V25.7675H199.909H195.409V21.3589V16.9503H191.545C188.623 16.9503 187.661 17.0061 187.596 17.1799ZM107.696 22.2838C116.85 23.3201 121.918 28.677 121.505 36.8801C121.371 39.539 121.034 40.968 120.051 43.0345C119.453 44.2935 119.021 44.883 117.819 46.0785C116.105 47.7848 114.968 48.4843 112.647 49.262C110.182 50.0875 108.004 50.3759 103.241 50.5067L98.9704 50.6241V36.359V22.0936L102.507 22.0951C104.451 22.096 106.787 22.1809 107.696 22.2838ZM146.822 25.9778C143.405 26.4133 139.561 27.9402 136.956 29.8963L135.54 30.9597L138.22 33.7759L140.9 36.5919L142.024 35.5884C143.305 34.4454 145.039 33.4754 146.618 33.0194C148.24 32.5508 150.891 32.6983 152.268 33.3337C154.167 34.2096 155.469 35.9308 155.586 37.7172L155.639 38.5341L151.506 38.6557C141.197 38.9589 135.828 41.3627 134.032 46.4789C133.572 47.7899 133.388 50.6239 133.666 52.1273C134.29 55.5037 136.913 58.3103 140.562 59.5058C142.704 60.2073 146.469 60.3264 148.822 59.7666C151.354 59.164 152.656 58.4577 154.308 56.7906L155.731 55.3536V57.7357V60.1179H160.434H165.136L165.051 49.5097C164.981 40.86 164.909 38.5623 164.664 37.0645C164.063 33.3951 163.117 31.3153 161.151 29.346C159.189 27.3801 156.945 26.4062 153.348 25.9603C151.538 25.7361 148.659 25.7438 146.822 25.9778ZM221.199 26.0349C213.665 27.2052 208.025 32.374 206.689 39.3309C206.34 41.1471 206.355 45.0705 206.718 46.8538C207.283 49.63 208.72 52.3868 210.73 54.55C212.299 56.2396 213.782 57.3103 216.017 58.3693C218.528 59.5585 220.299 59.9527 223.644 60.0668C226.92 60.1787 228.783 59.9575 231.125 59.1783C235.649 57.6737 238.941 54.8856 240.97 50.8414C242.09 48.6079 242.592 46.6981 242.742 44.101C242.95 40.5115 242.218 37.1872 240.578 34.2746C239.522 32.3991 236.794 29.6132 234.953 28.5317C230.93 26.1674 226.049 25.2814 221.199 26.0349ZM263.976 26.7059C261.165 27.0298 258.157 28.7056 256.715 30.7514L255.935 31.8587L255.884 29.6397L255.832 27.4207H250.97H246.108V43.7693V60.1179H251.141H256.175L256.257 50.6118C256.327 42.5086 256.383 40.9491 256.641 40.044C257.474 37.1202 258.978 35.7877 261.702 35.5594C263.611 35.3992 264.728 35.7364 265.784 36.7925C266.442 37.4505 266.755 37.9668 267.076 38.924C267.495 40.1722 267.501 40.3056 267.559 50.1526L267.617 60.1179H272.672H277.727L277.654 48.5912C277.585 37.6334 277.562 36.9784 277.189 35.3194C276.361 31.6406 274.638 29.2181 271.857 27.8265C269.831 26.8125 266.797 26.381 263.976 26.7059ZM228.053 35.3496C230.729 36.4576 232.353 38.9119 232.619 42.2492C232.822 44.7959 232.023 47.3241 230.489 48.988C229.026 50.5756 226.58 51.4195 223.973 51.2364C221.781 51.0822 220.4 50.5411 219.08 49.319C217.165 47.546 216.437 45.5627 216.578 42.4976C216.752 38.7091 218.357 36.3437 221.545 35.1771C222.536 34.8145 222.967 34.7669 224.799 34.8182C226.564 34.8674 227.1 34.9548 228.053 35.3496ZM155.731 46.332C155.731 48.1325 155.436 49.2971 154.728 50.2935C153.537 51.9682 151.38 53.0367 148.728 53.2656C146.483 53.4594 144.087 52.4197 143.491 50.9937C142.788 49.312 143.53 47.4934 145.353 46.4308C146.994 45.4739 149.033 45.1099 152.93 45.0781L155.731 45.0551V46.332Z" fill="black"/>
<path fill-rule="evenodd" clip-rule="evenodd" d="M392.286 31.3979V37.5898L391.505 36.8281C390.43 35.7788 388.796 34.8363 387.051 34.2586C385.784 33.8394 385.265 33.7712 383.285 33.7652C380.672 33.7573 379.591 34.0051 377.499 35.0914C375.592 36.0819 373.49 38.2533 372.488 40.2688C371.298 42.6627 371.072 43.745 371.072 47.0654C371.072 50.438 371.294 51.4652 372.579 54.0457C374.026 56.9522 376.378 59.0032 379.561 60.1334C381.063 60.6667 384.399 60.8022 386.11 60.3994C387.89 59.9804 390.018 58.82 391.252 57.5959L392.286 56.5698V58.4304V60.2912H395.042H397.797V42.7486V25.2061H395.042H392.286V31.3979ZM300.561 27.0399C295.351 27.9838 290.915 31.1856 288.611 35.6658C287.018 38.7627 286.42 42.0888 286.811 45.671C287.255 49.735 288.727 52.8032 291.623 55.6989C294.177 58.2526 297.043 59.7401 300.476 60.2941C302.753 60.6613 306.773 60.4472 308.761 59.8527C311.707 58.9716 314.094 57.5178 315.986 55.4535C317.001 54.3456 318.443 52.0714 318.713 51.1525L318.834 50.7392H315.617H312.4L311.741 51.7317C309.925 54.4684 307.271 55.7783 303.563 55.7693C300.138 55.761 297.944 54.8763 295.663 52.5841C293.318 50.228 292.334 47.5887 292.337 43.6671C292.339 41.039 292.737 39.2605 293.769 37.2746C294.624 35.6293 296.441 33.7734 297.995 32.9577C300.241 31.778 303.498 31.3213 305.988 31.8368C308.349 32.3254 310.802 34.0257 311.934 35.9581L312.415 36.7786H315.612C317.673 36.7786 318.809 36.7118 318.809 36.5904C318.809 36.1467 317.484 33.8265 316.545 32.6267C314.7 30.2684 311.5 28.2506 308.247 27.3947C306.6 26.9614 302.133 26.7551 300.561 27.0399ZM418.37 30.8087V34.0233H416.809H415.248V36.2202V38.417L416.763 38.4704L418.279 38.5237L418.37 47.0654L418.462 55.6071L418.995 56.7601C420.205 59.381 422.356 60.282 427.417 60.2881L430.127 60.2912V57.9951V55.6989H427.917C425.349 55.6989 424.623 55.482 424.123 54.5653C423.816 54.002 423.789 53.3471 423.789 46.2388V38.5237L426.958 38.4734L430.127 38.4232V36.2232V34.0233H426.912H423.697V30.8087V27.5941H421.034H418.37V30.8087ZM336.628 33.7828C334.73 34.1004 333.04 35.0363 331.684 36.5207C331.185 37.0667 330.729 37.5134 330.671 37.5134C330.613 37.5134 330.566 36.7281 330.566 35.7683V34.0233H327.902H325.239V47.1572V60.2912H327.902H330.566L330.571 53.1731C330.575 49.2583 330.657 45.4351 330.754 44.6774C331.219 41.064 333.238 39.3503 337.028 39.3503H338.464V36.5031V33.6559L337.776 33.6809C337.397 33.6946 336.88 33.7406 336.628 33.7828ZM352.21 33.8438C347.325 34.6682 343.871 37.6141 342.347 42.2558C342.139 42.8897 341.873 44.2632 341.755 45.3078C341.221 50.0563 342.674 54.475 345.7 57.306C348.033 59.4885 350.503 60.4732 353.999 60.6154C359.697 60.8472 363.879 58.5423 366.119 53.9345C366.468 53.2167 366.753 52.5762 366.753 52.5109C366.753 52.4457 365.448 52.3925 363.853 52.3925H360.952L360.308 53.3568C359.128 55.1218 357.175 56.0663 354.707 56.0663C351.332 56.0663 348.664 54.2042 347.66 51.1487C346.969 49.046 345.824 49.2697 357.276 49.2697H367.271L367.394 47.7542C367.716 43.7701 366.363 39.6854 363.906 37.2283C362.868 36.191 361.141 35.0692 359.8 34.5613C357.705 33.7683 354.47 33.4625 352.21 33.8438ZM404.961 47.1572V60.2912H407.624H410.288V47.1572V34.0233H407.624H404.961V47.1572ZM356.811 38.5943C359.611 39.4657 361.329 41.3583 361.709 43.9886L361.835 44.8611H354.558C350.401 44.8611 347.282 44.7906 347.282 44.6967C347.282 44.1605 348.095 42.0495 348.59 41.303C350.255 38.7884 353.743 37.6394 356.811 38.5943ZM386.812 38.8116C390.254 39.9712 392.286 43.074 392.286 47.1712C392.286 50.0421 391.416 52.1729 389.517 53.9487C385.774 57.45 379.75 56.185 377.489 51.4226C375.838 47.9473 376.336 43.5969 378.685 40.9547C380.668 38.7256 383.971 37.8545 386.812 38.8116Z" fill="black"/>
<circle cx="408.373" cy="28.2607" r="2.82609" fill="black"/>
</svg>
