<svg width="25" height="24" viewBox="0 0 25 24" fill="none" xmlns="http://www.w3.org/2000/svg">
<path id="plus-circle" d="M18.6935 11.2258C18.6935 10.9355 18.4032 10.6452 18.1129 10.6452H13.8548V6.3871C13.8548 6.09677 13.5645 5.80645 13.2742 5.80645H11.7258C11.3871 5.80645 11.1452 6.09677 11.1452 6.3871V10.6452H6.8871C6.54839 10.6452 6.30645 10.9355 6.30645 11.2258V12.7742C6.30645 13.1129 6.54839 13.3548 6.8871 13.3548H11.1452V17.6129C11.1452 17.9516 11.3871 18.1935 11.7258 18.1935H13.2742C13.5645 18.1935 13.8548 17.9516 13.8548 17.6129V13.3548H18.1129C18.4032 13.3548 18.6935 13.1129 18.6935 12.7742V11.2258ZM24.5 12C24.5 5.37097 19.129 0 12.5 0C5.87097 0 0.5 5.37097 0.5 12C0.5 18.629 5.87097 24 12.5 24C19.129 24 24.5 18.629 24.5 12ZM22.1774 12C22.1774 17.371 17.8226 21.6774 12.5 21.6774C7.12903 21.6774 2.82258 17.371 2.82258 12C2.82258 6.67742 7.12903 2.32258 12.5 2.32258C17.8226 2.32258 22.1774 6.67742 22.1774 12Z" fill="#D10C2B"/>
</svg>
