<svg width="24" height="24" viewBox="0 0 24 24" fill="none" xmlns="http://www.w3.org/2000/svg">
<path d="M18.1935 11.2258C18.1935 10.9355 17.9032 10.6452 17.6129 10.6452H13.3548V10.7259C13.3548 14.9839 13.6452 10.6452 13.3548 10.6452H10.6452H6.3871C6.04839 10.6452 5.80645 10.9355 5.80645 11.2258V12.7742C5.80645 13.1129 6.04839 13.3548 6.3871 13.3548H10.6452C10.6452 13.3548 11.0971 13.3548 11.4358 13.3548H12.6052C12.8956 13.3548 13.3228 13.3548 13.3548 13.3548H17.6129C17.9032 13.3548 18.1935 13.1129 18.1935 12.7742V11.2258ZM24 12C24 5.37097 18.629 0 12 0C5.37097 0 0 5.37097 0 12C0 18.629 5.37097 24 12 24C18.629 24 24 18.629 24 12ZM21.6774 12C21.6774 17.371 17.3226 21.6774 12 21.6774C6.62903 21.6774 2.32258 17.371 2.32258 12C2.32258 6.67742 6.62903 2.32258 12 2.32258C17.3226 2.32258 21.6774 6.67742 21.6774 12Z" fill="#D10C2B"/>
</svg>
