<svg width="24" height="23" viewBox="0 0 24 23" fill="none" xmlns="http://www.w3.org/2000/svg">
<path fill-rule="evenodd" clip-rule="evenodd" d="M0 11.468C0 0.971776 7.74441 0 12 0C16.2556 0 24 0.971776 24 11.468C24 21.7048 16.1291 23 12 23C7.9361 23 0 21.7048 0 11.468ZM16.5163 11.0792L17.8068 20.7977C18.516 20.4127 22.3867 18.53 22.3223 11.468C22.3223 3.17483 17.29 0.971777 12.9677 0.971777L16.5163 11.0792ZM12 9.13563H12.5804V0.973317H11.484V9.13563H12ZM12 22.0282C14.387 22.0282 16.5163 21.3806 17.4196 20.9271L12.7093 10.6264H11.29L6.58045 20.9271C7.48371 21.3806 9.61304 22.0282 12 22.0282ZM11.0323 0.971777C6.70927 0.971777 1.6777 3.17483 1.6777 11.468C1.61022 18.53 5.48396 20.4058 6.19323 20.7977L7.54812 11.0792L11.0323 0.971777Z" fill="black"/>
</svg>
