<svg width="24" height="24" viewBox="0 0 24 24" fill="none" xmlns="http://www.w3.org/2000/svg">
<g clip-path="url(#clip0_3462_5297)">
<path fill-rule="evenodd" clip-rule="evenodd" d="M12 0C9.62663 0 7.30655 0.703788 5.33316 2.02236C3.35977 3.34094 1.8217 5.21509 0.913451 7.4078C0.00519942 9.60051 -0.232441 12.0133 0.230582 14.3411C0.693605 16.6689 1.83649 18.8071 3.51472 20.4853C5.19295 22.1635 7.33115 23.3064 9.65892 23.7694C11.9867 24.2324 14.3995 23.9948 16.5922 23.0866C18.7849 22.1783 20.6591 20.6402 21.9776 18.6668C23.2962 16.6935 24 14.3734 24 12C23.999 8.81771 22.7344 5.76606 20.4842 3.51584C18.2339 1.26562 15.1823 0.00101622 12 0V0ZM12 22.7256C9.87803 22.7261 7.80358 22.0972 6.03903 20.9186C4.27447 19.74 2.89909 18.0645 2.08684 16.1042C1.27458 14.1438 1.06194 11.9866 1.4758 9.90535C1.88967 7.82412 2.91145 5.91238 4.41192 4.41191C5.91238 2.91145 7.82413 1.88966 9.90536 1.4758C11.9866 1.06193 14.1438 1.27458 16.1042 2.08683C18.0645 2.89909 19.74 4.27447 20.9186 6.03902C22.0972 7.80357 22.7261 9.87802 22.7256 12C22.7259 13.4086 22.4487 14.8034 21.9098 16.1049C21.3709 17.4063 20.5809 18.5888 19.5848 19.5848C18.5888 20.5809 17.4063 21.3709 16.1049 21.9098C14.8035 22.4487 13.4086 22.7259 12 22.7256Z" fill="#A3A3A3"/>
<path fill-rule="evenodd" clip-rule="evenodd" d="M14.667 14.174C14.0612 17.0057 12.1849 19.4647 12.0768 19.6319H12.0822C12.0308 19.5138 10.8078 17.9105 10.0011 15.8241C9.39462 18.6611 7.51909 21.1225 7.41097 21.2866H7.41557C7.3389 21.1071 4.63525 17.6275 4.63525 14.1556V8.15098H9.3072V6.50089H13.9738V4.84619H19.5237V10.8439C19.5237 14.3181 16.8776 17.7816 16.7487 17.9749H16.7541C16.7027 17.8568 15.4744 16.2581 14.667 14.1717V14.174Z" fill="#A3A3A3"/>
<path fill-rule="evenodd" clip-rule="evenodd" d="M5.5144 9.03516V14.2492C5.5144 16.8754 7.30252 19.2754 7.41523 19.4633C7.52335 19.2785 9.30686 16.8785 9.30686 14.2492V9.03516H5.5144Z" fill="white"/>
<path fill-rule="evenodd" clip-rule="evenodd" d="M10.186 7.38037V12.5944C10.186 15.2252 11.9749 17.6252 12.0823 17.8085C12.1904 17.6283 13.9739 15.2283 13.9739 12.5944V7.38037H10.186Z" fill="white"/>
<path fill-rule="evenodd" clip-rule="evenodd" d="M14.8523 5.72461V10.9387C14.8523 13.5748 16.6404 15.9695 16.7485 16.1527C16.8612 15.9725 18.6448 13.5779 18.6448 10.9387V5.72461H14.8523Z" fill="white"/>
<path fill-rule="evenodd" clip-rule="evenodd" d="M15.0188 5.93678L18.421 5.90381L18.4616 10.082C18.47 10.9913 18.4447 11.5388 18.4164 11.8455L15.0188 5.94138V5.93678Z" fill="#0A339B"/>
<path fill-rule="evenodd" clip-rule="evenodd" d="M15.0476 8.37695L17.9468 13.4752C17.5634 14.5081 17.1194 15.212 16.7544 15.7978C15.9424 14.5847 15.0476 12.7092 15.0476 11.0239V8.37695Z" fill="#0A339B"/>
<path fill-rule="evenodd" clip-rule="evenodd" d="M10.3811 7.57471H13.7779V11.7529C13.7779 12.663 13.7472 13.2097 13.7166 13.5164L10.3811 7.57547V7.57471Z" fill="#727272"/>
<path fill-rule="evenodd" clip-rule="evenodd" d="M10.3811 10.0269L13.2741 15.1251C12.8908 16.158 12.4468 16.8672 12.0818 17.4531C11.2805 16.2354 10.3811 14.3645 10.3811 12.6791V10.0269Z" fill="#727272"/>
<path fill-rule="evenodd" clip-rule="evenodd" d="M5.70972 9.22949H9.11189V13.4076C9.11189 14.3178 9.08122 14.8645 9.05055 15.1658L5.70972 9.22949Z" fill="#990808"/>
<path fill-rule="evenodd" clip-rule="evenodd" d="M5.70972 11.6812L8.60812 16.7794C8.22473 17.8123 7.78077 18.5215 7.41579 19.1073C6.60914 17.8897 5.70972 16.0142 5.70972 14.3334V11.6812Z" fill="#990808"/>
</g>
<defs>
<clipPath id="clip0_3462_5297">
<rect width="24" height="24" fill="white"/>
</clipPath>
</defs>
</svg>
