<svg width="27" height="6" viewBox="0 0 27 6" fill="none" xmlns="http://www.w3.org/2000/svg">
<g clip-path="url(#clip0_3462_5396)">
<path d="M16.9226 1.48826H19.0382V1.21834H17.5719V0.0615234H16.9226V1.48826Z" fill="#231F20"/>
<path d="M4.72827 0.0615234V1.48826H5.37063V0.90214H6.49476V1.48826H7.1441V0.0615234H6.49476V0.63993H5.37063V0.0615234H4.72827Z" fill="#231F20"/>
<path d="M12.8278 0.0616967L12.2273 0.663239L11.5989 0.0616967L10.8518 0V0.0616967L11.7665 0.902314V1.48843H12.4158V0.894602L13.2676 0.0616967V0L12.8347 0.0539846" fill="#231F20"/>
<path d="M19.7578 1.48826H21.9153V1.24147H20.4072V0.886716H21.8594V0.647642H20.4072V0.300598H21.8874V0.0615234H19.7578V1.48826Z" fill="#231F20"/>
<path d="M13.7939 0.431375C13.7939 0.762995 14.136 0.840116 14.6038 0.901812C15.0716 0.963509 15.302 0.986646 15.302 1.11004C15.302 1.23343 15.1624 1.2797 14.7504 1.2797C14.4391 1.27693 14.1294 1.23028 13.8288 1.14089C13.8288 1.14089 13.7869 1.29513 13.7729 1.37996C13.7691 1.3977 13.7691 1.4162 13.7729 1.43395C14.1035 1.51052 14.4406 1.54673 14.7783 1.54192C15.4067 1.54192 16.0072 1.42623 16.0072 1.05605C16.0072 0.685874 15.7628 0.662738 15.0646 0.577905C14.7783 0.539345 14.4781 0.516208 14.4781 0.392815C14.4781 0.269422 14.5619 0.261709 14.9669 0.261709C15.2375 0.261987 15.5071 0.298237 15.7698 0.369679L15.8257 0.0380591C15.4884 0.0192147 15.1505 0.0192147 14.8133 0.0380591C14.3734 0.0380591 13.7939 0.107468 13.7939 0.469936" fill="#231F20"/>
<path d="M1.62803 0.771208C1.62803 1.23393 2.0679 1.54242 2.97558 1.54242C3.23711 1.53851 3.49821 1.51791 3.75758 1.48072L3.81344 1.12596C3.58468 1.18963 3.35083 1.22838 3.11523 1.24165C2.61251 1.24165 2.27038 1.11054 2.27038 0.771208C2.27038 0.431877 2.59156 0.308483 3.12221 0.308483C3.35564 0.312907 3.58871 0.330927 3.82042 0.362468V0.308483L3.75758 0.0694087C3.50579 0.0256247 3.25141 0.00242544 2.99653 0C2.07488 0 1.6001 0.308483 1.6001 0.771208" fill="#231F20"/>
<path d="M8.1394 1.48909H8.78875V0.316849H9.13087C9.25176 0.307858 9.37306 0.307858 9.49394 0.316849C9.68944 0.316849 9.75228 0.417106 9.75228 0.517363C9.75228 0.61762 9.66152 0.694741 9.46601 0.733301C9.3544 0.740495 9.24249 0.740495 9.13087 0.733301C9.06458 0.728773 8.99898 0.715834 8.93537 0.694741V0.771862L9.63359 1.54307H10.4714V1.42739L9.77323 0.895255C9.89164 0.887156 10.0088 0.863863 10.1223 0.825846C10.3178 0.756437 10.4156 0.640756 10.4156 0.517363C10.4156 0.39397 10.3248 0.201168 9.96175 0.116335C9.69769 0.0564738 9.42825 0.0305944 9.1588 0.0392138C8.69798 0.0392138 8.21621 0.0392138 8.16733 0.0392138V1.48909" fill="#231F20"/>
<path d="M22.7675 1.48783H23.4169V0.315597H23.752C23.8752 0.30656 23.9988 0.30656 24.1221 0.315597C24.3176 0.315597 24.3804 0.415854 24.3804 0.516111C24.3804 0.616368 24.2896 0.693489 24.0872 0.77061C23.9709 0.778651 23.8543 0.778651 23.738 0.77061C23.6775 0.751977 23.619 0.726118 23.5635 0.693489V0.77061L24.2617 1.54182H25.1345V1.42614L24.3874 0.894003C24.5058 0.885904 24.623 0.862611 24.7365 0.824594C24.932 0.755185 25.0297 0.639504 25.0297 0.516111C25.0297 0.392718 24.932 0.199915 24.5689 0.115083C24.2959 0.0519782 24.0168 0.0260781 23.738 0.0379617C23.2772 0.0379617 22.7955 0.0379617 22.7466 0.0379617V1.48783" fill="#231F20"/>
<path d="M1.65869 3.50977L7.79601 3.61773C7.90685 3.62247 8.01689 3.64057 8.12417 3.67172C8.21576 3.71938 8.30046 3.78176 8.37552 3.85681H9.93255C9.73867 3.8585 9.5451 3.87396 9.35303 3.90308C9.31113 3.90308 9.35303 3.90308 9.35303 3.90308H8.23588L8.27777 3.94935L8.61292 3.99563L8.87126 4.2347H10.1001C10.0043 4.25065 9.91055 4.27913 9.82083 4.31953L9.77196 4.36581H8.86428C8.86428 4.36581 8.86428 4.41979 9.02487 4.4275C9.09471 4.43217 9.16326 4.45045 9.22735 4.48149C9.49131 4.67123 9.77804 4.8192 10.0792 4.92108C10.6168 5.09074 11.5664 5.26812 11.5664 5.26812C10.8978 5.26141 10.2332 5.15505 9.59042 4.95192C8.98995 4.66658 8.19399 4.01876 7.99849 3.93393C7.88156 3.87925 7.75536 3.85295 7.62843 3.85681C7.62843 3.85681 3.43914 3.67172 2.97832 3.62545C2.5175 3.57917 1.65869 3.50977 1.65869 3.50977Z" fill="#191919"/>
<path d="M25.3374 3.50977L19.1931 3.61773C19.0846 3.62266 18.9769 3.64076 18.8719 3.67172C18.7751 3.70542 18.6833 3.7548 18.5996 3.81825H17.0426C17.2365 3.81994 17.4301 3.8354 17.6221 3.86452C17.664 3.86452 17.6221 3.86452 17.6221 3.86452H18.7393L18.6974 3.91079L18.3622 3.95707L18.1528 4.2347H16.889C16.9848 4.25065 17.0786 4.27913 17.1683 4.31953L17.2102 4.36581H18.1528C18.1528 4.36581 18.1528 4.41979 17.9922 4.4275C17.9222 4.43094 17.8534 4.44927 17.7897 4.48149C17.5228 4.6704 17.2339 4.81829 16.9309 4.92108C16.4003 5.09074 15.4507 5.26812 15.4507 5.26812C16.1169 5.26166 16.7793 5.15529 17.4197 4.95192C18.0201 4.66658 18.8161 4.01876 19.0186 3.93393C19.129 3.88242 19.2478 3.85618 19.3677 3.85681C19.3677 3.85681 23.557 3.67172 24.0178 3.62545C24.4786 3.57917 25.3374 3.50977 25.3374 3.50977Z" fill="#191919"/>
<path d="M13.5364 4.73423H11.6442C11.4345 4.77154 11.2198 4.7555 11.0166 4.68734C10.8133 4.61919 10.6268 4.5007 10.4712 4.34091C10.0663 3.96302 10.1151 3.78564 10.1151 3.78564H13.5573" fill="white"/>
<path d="M13.5398 4.72711H11.6756C11.4615 4.76936 11.2415 4.75581 11.033 4.68752C10.8245 4.61924 10.6333 4.49811 10.4747 4.33379C10.0837 3.94819 10.1256 3.79395 10.1256 3.79395H13.5189" fill="url(#paint0_linear_3462_5396)"/>
<path d="M13.418 4.73423H15.3101C15.5231 4.77524 15.7418 4.76106 15.949 4.6928C16.1562 4.62455 16.3462 4.50409 16.5041 4.34092C16.909 3.96302 16.8602 3.78564 16.8602 3.78564H13.418" fill="white"/>
<path d="M13.4212 4.72711H15.2855C15.4963 4.76564 15.7123 4.75022 15.9169 4.68203C16.1215 4.61384 16.3091 4.4947 16.4655 4.33379C16.8565 3.94819 16.8146 3.79395 16.8146 3.79395H13.3235" fill="url(#paint1_linear_3462_5396)"/>
<path d="M14.1682 4.36395H14.65V4.30225H14.3148V4.04004H14.1682V4.36395Z" fill="white"/>
<path d="M11.5544 4.04883V4.36502H11.7011V4.23392H11.9524V4.36502H12.0991V4.04883H11.9524V4.17222H11.7011V4.04883H11.5544Z" fill="white"/>
<path d="M13.3158 4.04004L13.1762 4.17886L13.0295 4.04004H12.855L13.0714 4.23284V4.37166H13.2181V4.23284L13.4205 4.04004H13.3158Z" fill="white"/>
<path d="M14.7722 4.36395H15.268V4.30996H14.9188V4.23284H15.254V4.17886H14.9188V4.09402H15.261V4.04004H14.7722V4.36395Z" fill="white"/>
<path d="M13.4949 4.126C13.4949 4.20312 13.5717 4.21854 13.6764 4.23397C13.7811 4.24939 13.844 4.23397 13.844 4.28024C13.844 4.32651 13.844 4.28024 13.7113 4.28024C13.6419 4.29187 13.5713 4.29187 13.5019 4.28024V4.34965C13.5784 4.36037 13.6558 4.36037 13.7323 4.34965C13.8789 4.34965 14.0185 4.34965 14.0185 4.24168C14.0185 4.13371 13.9557 4.14913 13.8021 4.126C13.6485 4.10286 13.6624 4.126 13.6624 4.126C13.6624 4.126 13.6624 4.126 13.7742 4.126C13.8369 4.12034 13.8999 4.12034 13.9627 4.126V4.0643C13.8836 4.05864 13.8043 4.05864 13.7253 4.0643C13.6275 4.0643 13.4949 4.0643 13.4949 4.16456" fill="white"/>
<path d="M10.8928 4.20307C10.8928 4.31104 10.9906 4.38045 11.1931 4.38045H11.3746V4.29561H11.221C11.1023 4.29561 11.0255 4.29561 11.0255 4.18765C11.0255 4.07968 11.1023 4.08739 11.221 4.08739H11.3746V4.04883H11.2C10.9906 4.04883 10.8928 4.11824 10.8928 4.21849" fill="white"/>
<path d="M12.2878 4.36474H12.4345V4.10253H12.5671C12.609 4.10253 12.623 4.10253 12.623 4.1488C12.623 4.19507 12.623 4.1488 12.5601 4.19507H12.4414L12.609 4.35702H12.7906L12.623 4.22592H12.6998C12.7487 4.22592 12.7696 4.17965 12.7696 4.15651C12.7696 4.13337 12.7696 4.0871 12.6649 4.06396H12.4903H12.2878V4.38016" fill="white"/>
<path d="M15.4226 4.36493H15.5692V4.10272H15.7298C15.7717 4.10272 15.7857 4.10272 15.7857 4.14899C15.7857 4.19527 15.7857 4.14899 15.7228 4.19527H15.5972L15.7647 4.35722H15.9533L15.7857 4.22612H15.8625C15.9114 4.22612 15.9323 4.17984 15.9323 4.15671C15.9323 4.13357 15.9323 4.0873 15.8276 4.06416C15.7673 4.05544 15.7063 4.05544 15.646 4.06416H15.4226V4.38807" fill="white"/>
<path d="M13.5314 5.74647C13.3315 5.72998 13.1308 5.72998 12.931 5.74647C12.6912 5.77899 12.4564 5.84642 12.2327 5.94699C11.8246 5.96866 11.4155 5.948 11.0109 5.88529L2.09465 4.41228C1.6758 4.38444 1.26895 4.24699 0.90768 4.01126C0.551187 3.85369 0.238253 3.59578 0 3.26318C0.105493 3.32407 0.208037 3.391 0.307215 3.4637C0.657067 3.76518 1.05158 3.99741 1.47323 4.15007C1.97595 4.3583 9.85182 5.60766 9.85182 5.60766C10.5409 5.7648 11.2429 5.84234 11.9465 5.83902C12.2397 5.70791 12.4073 5.59223 12.5469 5.55367C12.9427 5.4726 13.3459 5.44413 13.7479 5.46884" fill="black"/>
<path d="M13.4695 5.74576C13.6694 5.72926 13.8701 5.72926 14.0699 5.74576C14.3092 5.78083 14.5437 5.84817 14.7682 5.94627C15.1763 5.96794 15.5854 5.94729 15.99 5.88457L24.9342 4.34216C25.3538 4.30585 25.7612 4.169 26.1281 3.94113C26.4917 3.78982 26.8055 3.52108 27.0288 3.16992C26.9223 3.22877 26.8197 3.29577 26.7216 3.37044C26.3708 3.67025 25.9765 3.90232 25.5556 4.05681C25.0529 4.26504 17.177 5.51439 17.177 5.51439C16.4879 5.67137 15.7859 5.74891 15.0824 5.74576C14.7891 5.61465 14.6215 5.49897 14.4819 5.46041C14.1025 5.37954 13.7156 5.35104 13.3298 5.37558" fill="black"/>
<path d="M13.6001 3.46195C13.6001 3.46195 11.694 3.46195 11.5055 3.39254C11.317 3.32313 10.898 3.08406 10.7514 3.08406C10.605 3.04417 10.4552 3.02091 10.3045 3.01465C10.3045 3.01465 0.313076 3.08406 0.222308 3.08406C0.157937 3.10096 0.0965792 3.12963 0.0407715 3.16889C0.0407715 3.16889 0.669166 3.27686 0.955434 3.30771C3.9438 3.56221 10.4163 3.4311 10.6536 3.46966C10.891 3.50822 11.0516 3.69331 11.3519 3.69331H13.6211" fill="url(#paint2_linear_3462_5396)"/>
<path d="M13.3774 3.46195C13.3774 3.46195 15.2836 3.46195 15.4721 3.39254C15.6606 3.32313 16.0586 3.08406 16.2192 3.08406C16.368 3.04447 16.52 3.02122 16.673 3.01465C16.673 3.01465 26.6645 3.08406 26.7553 3.08406C26.8196 3.10096 26.881 3.12963 26.9368 3.16889C26.9368 3.16889 26.3084 3.27686 26.0221 3.30771C23.0338 3.56221 16.5613 3.4311 16.3239 3.46966C16.0865 3.50822 15.9189 3.69331 15.6257 3.69331H13.3425" fill="url(#paint3_linear_3462_5396)"/>
</g>
<defs>
<linearGradient id="paint0_linear_3462_5396" x1="11.8432" y1="4.72711" x2="11.8432" y2="3.79395" gradientUnits="userSpaceOnUse">
<stop offset="0.01"/>
<stop offset="0.12" stop-color="#00205F"/>
<stop offset="0.33" stop-color="#00053F"/>
<stop offset="0.76" stop-color="#000747"/>
<stop offset="0.9" stop-color="#001E9F"/>
<stop offset="1"/>
</linearGradient>
<linearGradient id="paint1_linear_3462_5396" x1="-220.424" y1="9.64107" x2="-220.424" y2="8.48691" gradientUnits="userSpaceOnUse">
<stop offset="0.01"/>
<stop offset="0.12" stop-color="#00205F"/>
<stop offset="0.33" stop-color="#00053F"/>
<stop offset="0.76" stop-color="#000747"/>
<stop offset="0.9" stop-color="#001E9F"/>
<stop offset="1"/>
</linearGradient>
<linearGradient id="paint2_linear_3462_5396" x1="6.83441" y1="3.67018" x2="6.83441" y2="2.9838" gradientUnits="userSpaceOnUse">
<stop offset="0.03" stop-color="#B0B0B0"/>
<stop offset="0.33" stop-color="#DCDCDC"/>
<stop offset="0.58" stop-color="#B5B5B5"/>
<stop offset="0.68" stop-color="#9D9D9D"/>
<stop offset="0.94" stop-color="#8B8B8B"/>
</linearGradient>
<linearGradient id="paint3_linear_3462_5396" x1="-3444.7" y1="6.24509" x2="-3444.7" y2="5.64108" gradientUnits="userSpaceOnUse">
<stop offset="0.03" stop-color="#B0B0B0"/>
<stop offset="0.33" stop-color="#DCDCDC"/>
<stop offset="0.58" stop-color="#B5B5B5"/>
<stop offset="0.68" stop-color="#9D9D9D"/>
<stop offset="0.94" stop-color="#8B8B8B"/>
</linearGradient>
<clipPath id="clip0_3462_5396">
<rect width="27" height="6" fill="white"/>
</clipPath>
</defs>
</svg>
