<svg width="12" height="28" viewBox="0 0 12 28" fill="none" xmlns="http://www.w3.org/2000/svg">
<path d="M3 24.3833V24.7333H5.76923L6 28L6.23077 24.7333H8.88461V24.3833C9.38418 21.0619 9.65407 17.7094 9.69231 14.35L12 14L9.69231 13.7667C9.71775 10.4046 9.44746 7.04696 8.88461 3.73333V3.38333H6.23077L6 0L5.76923 3.26667H3.11538V3.61667C2.55821 6.97025 2.28798 10.3662 2.30769 13.7667L0 14L2.30769 14.2333C2.30731 17.6287 2.53863 21.0201 3 24.3833ZM8.19231 23.9167H6.23077L6.80769 14.7L8.88461 14.4667C8.88493 17.6296 8.65353 20.7883 8.19231 23.9167ZM8.19231 4.08333C8.65353 7.21173 8.88493 10.3704 8.88461 13.5333L6.80769 13.3L6.23077 4.08333H8.19231ZM3.80769 4.08333H5.76923L5.19231 13.3L3.11538 13.5333C3.1208 10.3706 3.35217 7.21237 3.80769 4.08333ZM5.19231 14.7L5.76923 23.9167H3.80769C3.4041 20.743 3.17298 17.5493 3.11538 14.35L5.19231 14.7Z" fill="#757575"/>
</svg>
