<?xml version="1.0" standalone="no"?>
<!DOCTYPE svg PUBLIC "-//W3C//DTD SVG 20010904//EN"
 "http://www.w3.org/TR/2001/REC-SVG-20010904/DTD/svg10.dtd">
<svg version="1.0" xmlns="http://www.w3.org/2000/svg"
 width="64.000000pt" height="64.000000pt" viewBox="0 0 64.000000 64.000000"
 preserveAspectRatio="xMidYMid meet">
<metadata>
Created by potrace 1.16, written by Peter Selinger 2001-2019
</metadata>
<g transform="translate(0.000000,64.000000) scale(0.100000,-0.100000)"
fill="#000000" stroke="none">
<path d="M152 487 l-62 -63 0 -105 0 -105 63 -62 63 -62 105 0 105 0 62 63 62
63 0 105 0 105 -63 62 -63 62 -105 0 -105 0 -62 -63z m305 -29 l53 -52 0 -85
0 -85 -52 -53 -52 -53 -85 0 -85 0 -53 52 -53 52 0 85 0 85 52 53 52 53 85 0
85 0 53 -52z"/>
<path d="M250 448 c-11 -24 -20 -50 -20 -58 0 -10 -6 -8 -19 9 -16 21 -20 22
-39 10 -19 -12 -22 -23 -22 -85 0 -58 4 -74 20 -89 20 -18 20 -17 20 46 l1 64
15 -34 c16 -38 20 -37 45 17 l17 37 1 -107 c1 -101 2 -108 21 -108 19 0 20 7
20 170 0 165 -1 170 -20 170 -15 0 -27 -13 -40 -42z"/>
<path d="M342 323 c4 -201 8 -207 94 -122 44 43 54 60 54 86 0 32 -1 33 -40
33 -33 0 -40 -3 -40 -19 0 -12 8 -21 21 -23 19 -3 19 -5 -10 -32 l-31 -30 0
108 0 108 33 -40 c34 -43 67 -55 67 -24 0 10 -22 41 -48 70 -35 38 -55 52 -75
52 l-27 0 2 -167z"/>
</g>
</svg>
