<svg width="28" height="27" viewBox="0 0 28 27" fill="none" xmlns="http://www.w3.org/2000/svg">
<g clip-path="url(#clip0_3462_6547)">
<path d="M26.2631 13.5136C26.2631 17.0701 20.7864 19.953 14.0285 19.953C7.27058 19.953 1.79395 17.0701 1.79395 13.5136C1.79395 9.95698 7.26804 7.07324 14.0285 7.07324C20.789 7.07324 26.2631 9.95784 26.2631 13.5136Z" fill="#004990"/>
<path d="M27.2537 13.4998C27.2537 17.5179 21.3198 20.776 14.0004 20.776C6.68101 20.776 0.74707 17.5179 0.74707 13.4998C0.74707 9.48175 6.68101 6.22363 14.0004 6.22363C21.3198 6.22363 27.2537 9.48175 27.2537 13.4998Z" stroke="#231F20" stroke-width="1.98"/>
<path d="M26.1651 13.4713C26.1651 17.0029 20.7249 19.8659 14.0135 19.8659C7.30217 19.8659 1.86279 17.0029 1.86279 13.4713C1.86279 9.93973 7.30301 7.07324 14.0135 7.07324C20.724 7.07324 26.1651 9.93973 26.1651 13.4713Z" stroke="#231F20" stroke-width="0.99"/>
<path d="M14.0004 6.22363C6.68101 6.22363 0.74707 9.48175 0.74707 13.4998C0.74707 17.5179 6.68101 20.776 14.0004 20.776C21.3198 20.776 27.2537 17.5179 27.2537 13.4998C27.2537 9.48175 21.3198 6.22363 14.0004 6.22363ZM14.014 20.4629C6.82582 20.4629 1.00113 17.3135 1.00113 13.4282C1.00113 9.54299 6.82582 6.39443 14.014 6.39443C21.2021 6.39443 27.031 9.54386 27.031 13.4282C27.031 17.3126 21.2029 20.4629 14.014 20.4629Z" fill="url(#paint0_linear_3462_6547)"/>
<path d="M14.0004 6.22363C6.68101 6.22363 0.74707 9.48175 0.74707 13.4998C0.74707 17.5179 6.68101 20.776 14.0004 20.776C21.3198 20.776 27.2537 17.5179 27.2537 13.4998C27.2537 9.48175 21.3198 6.22363 14.0004 6.22363ZM14.014 19.866C7.30345 19.866 1.86323 17.0029 1.86323 13.4714C1.86323 9.9398 7.30345 7.07331 14.014 7.07331C20.7245 7.07331 26.1655 9.93635 26.1655 13.4679C26.1655 16.9995 20.7253 19.866 14.014 19.866Z" fill="url(#paint1_linear_3462_6547)"/>
<path d="M13.9577 6.52295C6.86947 6.52295 1.12354 9.62838 1.12354 13.4567C1.12354 17.285 6.86947 20.3921 13.9577 20.3921C21.0459 20.3921 26.7927 17.2867 26.7927 13.4567C26.7927 9.62665 21.0467 6.52295 13.9577 6.52295ZM14.0136 19.866C7.30306 19.866 1.86284 17.0029 1.86284 13.4714C1.86284 9.93979 7.30306 7.0733 14.0136 7.0733C20.7241 7.0733 26.1651 9.93634 26.1651 13.4679C26.1651 16.9995 20.7249 19.866 14.0136 19.866Z" fill="url(#paint2_linear_3462_6547)"/>
<path d="M14.0135 6.97412C7.19541 6.97412 1.66797 9.88288 1.66797 13.4714C1.66797 17.0599 7.19541 19.9695 14.0135 19.9695C20.8315 19.9695 26.3598 17.0599 26.3598 13.4714C26.3598 9.88288 20.8324 6.97412 14.0135 6.97412ZM14.0135 19.866C7.30296 19.866 1.86275 17.0029 1.86275 13.4714C1.86275 9.93981 7.30296 7.07332 14.0135 7.07332C20.724 7.07332 26.165 9.93636 26.165 13.4679C26.165 16.9995 20.7248 19.866 14.0135 19.866Z" fill="url(#paint3_linear_3462_6547)"/>
<path d="M11.8162 16.9071C11.8162 16.9071 10.54 17.0063 10.5459 17.1486C10.5518 17.2909 11.5986 17.397 11.773 17.4186C11.9475 17.4402 12.6317 17.5178 12.8265 17.5911C13.0213 17.6644 13.1542 17.7196 13.2313 17.9362C13.3084 18.1527 13.4964 18.81 13.4964 18.81C13.4964 18.81 13.587 19.1723 13.6657 19.1723C13.7445 19.1723 13.8351 18.7884 13.8351 18.7884C13.8351 18.7884 14.024 17.9715 14.1628 17.8223C14.3017 17.6731 14.3238 17.6161 14.9445 17.5169C15.5652 17.4177 16.1784 17.3039 16.6467 17.3039C16.9296 17.295 17.2128 17.3091 17.4935 17.3461C17.7798 17.3824 18.3938 17.46 18.6376 17.5385C18.8815 17.617 18.9654 17.7973 19.0281 17.9577C19.0907 18.1182 19.2313 18.5547 19.2313 18.5547C19.2313 18.5547 19.266 18.7324 19.3499 18.7324C19.4337 18.7324 19.4676 18.5469 19.4676 18.5469C19.4676 18.5469 19.6911 17.8223 19.8165 17.7084C19.9418 17.5946 20.0333 17.4885 20.654 17.4108C21.2748 17.3332 21.644 17.2538 21.8608 17.2383C22.0776 17.2228 22.23 17.1952 22.23 17.1244C22.23 17.0537 22.1453 17.0252 21.8396 16.9821C21.5339 16.939 20.6193 16.8398 20.1374 16.7337C19.6556 16.6276 19.6293 16.2359 19.5582 16.0436C19.487 15.8512 19.4405 15.5458 19.3287 15.5458C19.2169 15.5458 19.189 15.752 19.1678 15.8158C19.1466 15.8797 19.0357 16.2851 18.9518 16.4197C18.868 16.5543 18.8053 16.7035 18.4776 16.7647C18.1499 16.826 17.5359 16.964 16.9532 16.9778C16.4983 16.9889 16.0433 16.96 15.5932 16.8915C15.1401 16.8346 14.7218 16.8139 14.4076 16.6716C14.0934 16.5292 13.9334 16.0608 13.8495 15.7762C13.7657 15.4915 13.7098 15.3569 13.6607 15.3569C13.6115 15.3569 13.5218 15.57 13.4659 15.7546C13.41 15.9392 13.2635 16.487 13.0475 16.6224C12.8316 16.7578 12.4649 16.8458 11.8162 16.9071Z" fill="url(#paint4_radial_3462_6547)"/>
<path d="M20.5462 14.6732C20.0788 14.6732 19.4648 14.7887 18.8441 14.8897C18.2233 14.9906 18.203 15.0493 18.0633 15.2011C17.9235 15.3529 17.7355 16.1853 17.7355 16.1853C17.7355 16.1853 17.6449 16.577 17.5661 16.577C17.4874 16.577 17.3968 16.2078 17.3968 16.2078C17.3968 16.2078 17.2088 15.5418 17.1326 15.3175C17.0563 15.0933 16.9234 15.0346 16.7278 14.9621C16.5321 14.8897 15.8487 14.8103 15.6743 14.7896C15.4998 14.7689 14.4539 14.6594 14.4463 14.5144C14.4387 14.3695 15.7166 14.2686 15.7166 14.2686C16.3653 14.203 16.7286 14.1237 16.9446 13.9865C17.1605 13.8494 17.307 13.2912 17.3629 13.1032C17.4188 12.9151 17.5094 12.6978 17.5585 12.6978C17.6076 12.6978 17.6635 12.8349 17.7465 13.1248C17.8295 13.4146 17.9904 13.8925 18.3046 14.0365C18.6188 14.1806 19.038 14.203 19.4902 14.2617C19.8575 14.3279 20.2301 14.3585 20.603 14.3531C20.9905 14.3385 21.3759 14.2885 21.7547 14.2039C21.9774 14.1685 22.3958 14.0978 22.5279 13.7847C22.66 13.4715 22.793 13.0178 22.8912 13.0083C22.9894 12.9988 23.1452 13.5052 23.1452 13.5052C23.1452 13.5052 23.257 13.996 23.6339 14.0805C24.0107 14.1651 24.6035 14.3083 24.9109 14.3505C25.2184 14.3928 25.3149 14.4221 25.3149 14.5075C25.3149 14.5929 24.9042 14.6352 24.9042 14.6352C24.9042 14.6352 23.7939 14.7629 23.5712 14.9052C23.3485 15.0475 23.2155 15.1467 23.0479 15.9136C22.9852 16.1129 22.9708 16.2052 22.9081 16.2052C22.8455 16.2052 22.7388 15.8851 22.6151 15.4452C22.4915 15.0053 22.3856 14.8836 21.764 14.7913C21.1424 14.699 20.8782 14.674 20.5462 14.6732Z" fill="url(#paint5_radial_3462_6547)"/>
<path d="M4.71953 11.5712L3.19518 11.7842C3.19518 11.7842 2.92334 11.7946 2.92334 11.9016C2.92334 12.0085 3.15369 12.0077 3.23668 12.0189C3.31967 12.0301 4.94987 12.2492 4.94987 12.2492C4.94987 12.2492 7.55481 12.6124 7.80548 12.6546C8.05615 12.6969 8.75819 12.7926 9.06137 13.0704C9.36454 13.3482 9.62622 13.9442 9.81507 14.8284C10.0039 15.7126 10.2021 16.4674 10.2021 16.4674C10.2021 16.4674 10.2334 16.734 10.3376 16.734C10.4417 16.734 10.4739 16.4571 10.4739 16.4571C10.4739 16.4571 10.9871 14.3781 11.1125 14.0158C11.2378 13.6535 11.4156 12.8867 12.5521 12.7055C13.6886 12.5244 15.821 12.2854 15.821 12.2854C15.821 12.2854 17.8924 12.0266 18.6046 12.0715C19.3168 12.1164 20.1103 12.2207 20.3093 12.2526C20.5084 12.2846 20.8293 12.3208 20.969 12.6762C21.0852 13.0114 21.183 13.353 21.2621 13.6993C21.2621 13.6993 21.3103 13.9046 21.3874 13.9046C21.4645 13.9046 21.5127 13.7131 21.5127 13.7131C21.5127 13.7131 21.7431 12.9031 21.8269 12.6969C21.9108 12.4907 22.081 12.3139 22.6983 12.2354C23.3157 12.1569 23.9754 12.0146 23.9754 12.0146C23.9754 12.0146 24.2887 12.0077 24.2887 11.8869C24.2887 11.7661 23.9542 11.7592 23.9542 11.7592L22.5307 11.5246C22.5307 11.5246 21.959 11.4823 21.8125 11.0985C21.666 10.7146 21.5127 10.2954 21.5127 10.2954C21.5127 10.2954 21.4848 10.1228 21.4009 10.1228C21.3171 10.1228 21.2756 10.329 21.2756 10.329C21.2756 10.329 21.1062 10.919 20.9758 11.1105C20.8454 11.302 20.6828 11.4944 19.9782 11.566C19.2736 11.6376 18.9044 11.7144 18.6232 11.7221C18.1831 11.7342 17.7427 11.7175 17.3047 11.6721L13.8664 11.246C13.8664 11.246 12.6732 11.1105 12.2964 10.9872C11.9195 10.8638 11.3648 10.838 10.9414 9.48105C10.518 8.12415 10.4917 8.02236 10.4917 8.02236C10.4917 8.02236 10.4561 7.77393 10.3376 7.77393C10.219 7.77393 10.1852 8.05083 10.1852 8.05083C10.1852 8.05083 9.71006 9.62166 9.48649 10.0901C9.26292 10.5585 9.10371 11.0001 7.24147 11.2115C5.58756 11.4323 4.71953 11.5712 4.71953 11.5712Z" fill="url(#paint6_radial_3462_6547)"/>
<path d="M24.5128 14.4397C24.5221 14.4457 24.5298 14.454 24.5353 14.4638C24.5407 14.4735 24.5438 14.4845 24.5441 14.4957C24.5441 14.5285 24.5051 14.557 24.4526 14.582L25.0903 14.6122C25.1987 14.5906 25.3139 14.5579 25.3139 14.513C25.3139 14.4509 25.2631 14.419 25.1174 14.3896L24.5128 14.4397Z" fill="url(#paint7_linear_3462_6547)"/>
</g>
<defs>
<linearGradient id="paint0_linear_3462_6547" x1="0.74707" y1="13.4998" x2="27.2537" y2="13.4998" gradientUnits="userSpaceOnUse">
<stop offset="0.01" stop-color="#808080"/>
<stop offset="0.15" stop-color="white"/>
<stop offset="0.2" stop-color="#F4F4F4"/>
<stop offset="0.3" stop-color="#DCDCDC"/>
<stop offset="0.4" stop-color="#CECECE"/>
<stop offset="0.48" stop-color="#C9C9C9"/>
<stop offset="0.49" stop-color="#C0C0C0"/>
<stop offset="0.51" stop-color="#979797"/>
<stop offset="0.54" stop-color="#757575"/>
<stop offset="0.57" stop-color="#5A5A5A"/>
<stop offset="0.59" stop-color="#474747"/>
<stop offset="0.62" stop-color="#3C3C3C"/>
<stop offset="0.65" stop-color="#383838"/>
<stop offset="0.84" stop-color="#383838"/>
<stop offset="1" stop-color="#7A7A7A"/>
</linearGradient>
<linearGradient id="paint1_linear_3462_6547" x1="0.74707" y1="13.4998" x2="27.2537" y2="13.4998" gradientUnits="userSpaceOnUse">
<stop offset="0.01" stop-color="#D1D1D1"/>
<stop offset="0.46" stop-color="#4D4D4D"/>
<stop offset="1" stop-color="#A6A6A6"/>
</linearGradient>
<linearGradient id="paint2_linear_3462_6547" x1="8.40567" y1="7.60467" x2="19.4514" y2="18.8256" gradientUnits="userSpaceOnUse">
<stop offset="0.01" stop-color="#E6E6E6"/>
<stop offset="0.46" stop-color="#595959"/>
<stop offset="0.84" stop-color="#808080"/>
<stop offset="1" stop-color="#D9D9D9"/>
</linearGradient>
<linearGradient id="paint3_linear_3462_6547" x1="9.06866" y1="10.5367" x2="23.3747" y2="18.7195" gradientUnits="userSpaceOnUse">
<stop offset="0.01" stop-color="#F2F2F2"/>
<stop offset="0.35" stop-color="#1A1A1A"/>
<stop offset="0.59" stop-color="#3D3D3D"/>
<stop offset="0.69" stop-color="#474747"/>
<stop offset="0.77" stop-color="#525252"/>
<stop offset="1" stop-color="#BDBDBD"/>
</linearGradient>
<radialGradient id="paint4_radial_3462_6547" cx="0" cy="0" r="1" gradientUnits="userSpaceOnUse" gradientTransform="translate(16.385 17.2728) scale(4.33507 4.41575)">
<stop stop-color="#A1A1A1"/>
<stop offset="0.06" stop-color="#909090"/>
<stop offset="0.15" stop-color="#7D7D7D"/>
<stop offset="0.24" stop-color="#727272"/>
<stop offset="0.34" stop-color="#6E6E6E"/>
<stop offset="0.41" stop-color="white"/>
<stop offset="0.42" stop-color="#F8F8F8"/>
<stop offset="0.55" stop-color="#C7C8CA"/>
<stop offset="0.65" stop-color="#A4A6A8"/>
<stop offset="0.74" stop-color="#8F9193"/>
<stop offset="0.8" stop-color="#87898C"/>
<stop offset="0.83" stop-color="#7D7F81"/>
<stop offset="0.89" stop-color="#6E6F6F"/>
<stop offset="0.94" stop-color="#696969"/>
</radialGradient>
<radialGradient id="paint5_radial_3462_6547" cx="0" cy="0" r="1" gradientUnits="userSpaceOnUse" gradientTransform="translate(2470.32 670.921) scale(522.345 186.434)">
<stop stop-color="#A1A1A1"/>
<stop offset="0.06" stop-color="#909090"/>
<stop offset="0.15" stop-color="#7D7D7D"/>
<stop offset="0.24" stop-color="#727272"/>
<stop offset="0.34" stop-color="#6E6E6E"/>
<stop offset="0.41" stop-color="white"/>
<stop offset="0.42" stop-color="#F8F8F8"/>
<stop offset="0.55" stop-color="#C7C8CA"/>
<stop offset="0.65" stop-color="#A4A6A8"/>
<stop offset="0.74" stop-color="#8F9193"/>
<stop offset="0.8" stop-color="#87898C"/>
<stop offset="0.83" stop-color="#7D7F81"/>
<stop offset="0.89" stop-color="#6E6F6F"/>
<stop offset="0.94" stop-color="#696969"/>
</radialGradient>
<radialGradient id="paint6_radial_3462_6547" cx="0" cy="0" r="1" gradientUnits="userSpaceOnUse" gradientTransform="translate(13.6039 12.2564) scale(8.17134 6.65873)">
<stop stop-color="#A1A1A1"/>
<stop offset="0.06" stop-color="#909090"/>
<stop offset="0.15" stop-color="#7D7D7D"/>
<stop offset="0.24" stop-color="#727272"/>
<stop offset="0.34" stop-color="#6E6E6E"/>
<stop offset="0.66" stop-color="white"/>
<stop offset="0.67" stop-color="#F8F8F8"/>
<stop offset="0.71" stop-color="#C7C8CA"/>
<stop offset="0.75" stop-color="#A4A6A8"/>
<stop offset="0.78" stop-color="#8F9193"/>
<stop offset="0.8" stop-color="#87898C"/>
<stop offset="0.83" stop-color="#7D7F81"/>
<stop offset="0.89" stop-color="#6E6F6F"/>
<stop offset="0.94" stop-color="#696969"/>
</radialGradient>
<linearGradient id="paint7_linear_3462_6547" x1="24.8837" y1="14.4112" x2="24.8837" y2="14.582" gradientUnits="userSpaceOnUse">
<stop stop-color="#C2C2C2"/>
<stop offset="0.12" stop-color="#BABABA"/>
<stop offset="0.32" stop-color="#A4A4A4"/>
<stop offset="0.45" stop-color="#919191"/>
<stop offset="0.71" stop-color="#B1B1B1"/>
<stop offset="0.82" stop-color="#BFBFBF"/>
</linearGradient>
<clipPath id="clip0_3462_6547">
<rect width="28" height="27" fill="white"/>
</clipPath>
</defs>
</svg>
