<svg width="21" height="22" viewBox="0 0 21 22" fill="none" xmlns="http://www.w3.org/2000/svg">
<path d="M7.59368 5.54569C7.78623 4.88639 8.27467 5.22307 8.27467 5.22307C8.27467 5.22307 9.54004 6.2324 13.0101 8.54556C16.4801 10.8587 20.8069 7.64869 20.8069 7.64869L10.5337 0C6.02438 5.00447 0.255756 6.79891 0.255756 6.79891L0.272529 6.80524L13.4066 16.4543C13.214 17.1136 12.7256 16.7769 12.7256 16.7769C12.7256 16.7769 11.4602 15.7676 7.9902 13.4544C4.52016 11.1413 0.193359 14.3513 0.193359 14.3513L10.4666 22C14.9732 16.9955 20.7418 15.2011 20.7418 15.2011L20.725 15.1948L7.59368 5.54569Z" fill="#FF0016"/>
</svg>
