<svg width="96" height="96" viewBox="0 0 96 96" fill="none" xmlns="http://www.w3.org/2000/svg">
<rect width="96" height="96" fill="#AAAAAA"/>
<g clip-path="url(#clip0_5_2)">
<rect width="1440" height="6185" transform="translate(-841 -1240)" fill="white"/>
<rect x="-841" y="-515" width="1440" height="754" fill="white"/>
<g filter="url(#filter0_d_5_2)">
<rect x="8" y="8" width="80" height="80" rx="12" fill="#FF2946"/>
</g>
<path d="M49.6534 58.9748H27.2502C26.7375 58.9748 26.3216 58.5426 26.3216 58.01V39.6583H65.8368V42.0703C65.8368 42.7336 66.3591 43.2763 66.9976 43.2763C67.636 43.2763 68.1583 42.7336 68.1583 42.0703V33.3769C68.1583 31.5176 66.6977 30 64.9081 30H27.2502C25.451 30 24 31.5176 24 33.3769V58.01C24 59.8693 25.4607 61.3869 27.2502 61.3869H49.6631C50.3015 61.3869 50.8239 60.8441 50.8239 60.1808C50.8239 59.5175 50.3015 58.9748 49.6534 58.9748ZM27.2502 32.4121H64.9081C65.4208 32.4121 65.8368 32.8442 65.8368 33.3769V37.2462H26.3119V33.3769C26.3119 32.8442 26.7375 32.4121 27.2502 32.4121Z" fill="white"/>
<path d="M47.2352 48.6129C47.2352 47.9496 46.7128 47.4069 46.0744 47.4069H32.1256C31.4872 47.4069 30.9648 47.9496 30.9648 48.6129C30.9648 49.2762 31.4872 49.8189 32.1256 49.8189H46.0744C46.7225 49.8189 47.2352 49.2762 47.2352 48.6129Z" fill="white"/>
<path d="M32.1256 51.7286C31.4872 51.7286 30.9648 52.2713 30.9648 52.9346C30.9648 53.5979 31.4872 54.1406 32.1256 54.1406H37.707C38.3455 54.1406 38.8678 53.5979 38.8678 52.9346C38.8678 52.2713 38.3455 51.7286 37.707 51.7286H32.1256Z" fill="white"/>
<path d="M31.9901 45.447H45.9389C46.5773 45.447 47.0997 44.9043 47.0997 44.241C47.0997 43.5777 46.5773 43.035 45.9389 43.035H31.9901C31.3517 43.035 30.8293 43.5777 30.8293 44.241C30.8293 44.9043 31.342 45.447 31.9901 45.447Z" fill="white"/>
<path d="M70.0736 53.7486H68.3711V50.9345C68.3711 47.4471 65.6336 44.6029 62.277 44.6029C58.9204 44.6029 56.1829 47.4471 56.1829 50.9345V53.7486H54.4804C53.8419 53.7486 53.3196 54.2913 53.3196 54.9546V65.4069C53.3196 66.0702 53.8419 66.6129 54.4804 66.6129H70.064C70.7024 66.6129 71.2248 66.0702 71.2248 65.4069V54.9546C71.2344 54.2813 70.7121 53.7486 70.0736 53.7486ZM58.5044 50.9245C58.5044 48.7637 60.1973 47.0049 62.277 47.0049C64.3567 47.0049 66.0496 48.7637 66.0496 50.9245V53.7386H58.5044V50.9245ZM68.9128 64.1908H55.6412V56.1506H68.9032V64.1908H68.9128Z" fill="white"/>
</g>
<defs>
<filter id="filter0_d_5_2" x="0" y="0" width="96" height="96" filterUnits="userSpaceOnUse" color-interpolation-filters="sRGB">
<feFlood flood-opacity="0" result="BackgroundImageFix"/>
<feColorMatrix in="SourceAlpha" type="matrix" values="0 0 0 0 0 0 0 0 0 0 0 0 0 0 0 0 0 0 127 0" result="hardAlpha"/>
<feOffset/>
<feGaussianBlur stdDeviation="4"/>
<feComposite in2="hardAlpha" operator="out"/>
<feColorMatrix type="matrix" values="0 0 0 0 0 0 0 0 0 0 0 0 0 0 0 0 0 0 0.25 0"/>
<feBlend mode="normal" in2="BackgroundImageFix" result="effect1_dropShadow_5_2"/>
<feBlend mode="normal" in="SourceGraphic" in2="effect1_dropShadow_5_2" result="shape"/>
</filter>
<clipPath id="clip0_5_2">
<rect width="1440" height="6185" fill="white" transform="translate(-841 -1240)"/>
</clipPath>
</defs>
</svg>
