<svg width="96" height="96" viewBox="0 0 96 96" fill="none" xmlns="http://www.w3.org/2000/svg">
<rect width="96" height="96" fill="#AAAAAA"/>
<g clip-path="url(#clip0_5_2)">
<rect width="1440" height="6185" transform="translate(-841 -1127)" fill="white"/>
<rect x="-841" y="-402" width="1440" height="754" fill="white"/>
<g filter="url(#filter0_d_5_2)">
<rect x="8" y="8" width="80" height="80" rx="12" fill="#FF2946"/>
</g>
<path d="M65.3795 33H35.2359C32.3977 33 30.0891 35.1939 30.0891 37.8908V38.3195C27.2777 38.3499 25 40.5293 25 43.2073V58.423C25 61.12 27.309 63.3138 30.1468 63.3138H60.2904C63.1283 63.3138 65.4372 61.12 65.4372 58.423V57.9944C68.248 57.9646 70.5264 55.7852 70.5264 53.1065V37.891C70.527 35.1941 68.2174 33 65.3795 33ZM62.1369 58.423C62.1369 59.2153 61.2918 59.884 60.2911 59.884H30.1475C29.1468 59.884 28.3016 59.2153 28.3016 58.423V43.2075C28.3016 42.4158 29.1472 41.7466 30.1475 41.7466H60.2911C61.2918 41.7466 62.1369 42.416 62.1369 43.2075V58.423ZM65.4379 54.5627V43.2073C65.4379 40.5104 63.1289 38.3165 60.2911 38.3165H33.3901V37.8908C33.3901 37.099 34.2357 36.4299 35.2359 36.4299H65.3795C66.3802 36.4299 67.2254 37.0992 67.2254 37.8908V53.1065H67.226C67.2258 53.8827 66.4123 54.537 65.4379 54.5627Z" fill="white"/>
<path d="M45.2781 49.5305C43.8889 49.3585 43.1836 49.1527 43.1836 48.5032C43.1836 47.4971 44.5854 47.3884 45.1885 47.3884C46.0759 47.3884 47.0573 47.8342 47.3771 48.3824L47.5042 48.6012L49.5316 47.6267L49.4077 47.3643C48.6943 45.8502 47.4294 45.3929 46.4527 45.207V43.8671H44.0813V45.2C41.9929 45.5378 40.7545 46.7598 40.7545 48.5027C40.7545 51.3705 43.3435 51.6711 45.0551 51.8706C46.6109 52.0615 47.3361 52.4496 47.3361 53.0915C47.3361 54.3331 45.6482 54.4296 45.1304 54.4296C43.9696 54.4296 42.8515 53.8323 42.5303 53.0394L42.4229 52.776L40.2232 53.7442L40.3317 54.0077C40.9506 55.5132 42.2771 56.4627 44.0806 56.6994V58.1439H46.4519V56.6273C48.1827 56.4055 49.8503 55.2554 49.8503 53.0908C49.8509 50.1164 47.0996 49.7642 45.2781 49.5305Z" fill="white"/>
</g>
<defs>
<filter id="filter0_d_5_2" x="0" y="0" width="96" height="96" filterUnits="userSpaceOnUse" color-interpolation-filters="sRGB">
<feFlood flood-opacity="0" result="BackgroundImageFix"/>
<feColorMatrix in="SourceAlpha" type="matrix" values="0 0 0 0 0 0 0 0 0 0 0 0 0 0 0 0 0 0 127 0" result="hardAlpha"/>
<feOffset/>
<feGaussianBlur stdDeviation="4"/>
<feComposite in2="hardAlpha" operator="out"/>
<feColorMatrix type="matrix" values="0 0 0 0 0 0 0 0 0 0 0 0 0 0 0 0 0 0 0.25 0"/>
<feBlend mode="normal" in2="BackgroundImageFix" result="effect1_dropShadow_5_2"/>
<feBlend mode="normal" in="SourceGraphic" in2="effect1_dropShadow_5_2" result="shape"/>
</filter>
<clipPath id="clip0_5_2">
<rect width="1440" height="6185" fill="white" transform="translate(-841 -1127)"/>
</clipPath>
</defs>
</svg>
