<svg width="96" height="96" viewBox="0 0 96 96" fill="none" xmlns="http://www.w3.org/2000/svg">
<rect width="96" height="96" fill="#AAAAAA"/>
<g clip-path="url(#clip0_5_2)">
<rect width="1440" height="6185" transform="translate(-841 -1014)" fill="white"/>
<rect x="-841" y="-289" width="1440" height="754" fill="white"/>
<g filter="url(#filter0_d_5_2)">
<rect x="8" y="8" width="80" height="80" rx="12" fill="#FF2946"/>
</g>
<path d="M48.7937 42.1062C47.1047 41.5312 46.0766 41.1 45.9113 39.9859C45.8012 39.1953 46.4254 38.3328 47.2883 38.0813C48.2613 37.7938 49.5648 37.9195 50.7949 38.4047C51.2355 38.5844 51.7496 38.3687 51.9332 37.9195C52.1168 37.4883 51.8965 36.9852 51.4375 36.8055C50.7398 36.5359 50.0238 36.3562 49.3262 36.2844V35.2062C49.3262 34.7391 48.9406 34.3438 48.4449 34.3438C47.9676 34.3438 47.5637 34.7211 47.5637 35.2062V36.2844C47.2883 36.3203 47.0312 36.3742 46.7742 36.4461C45.0852 36.9312 43.9285 38.5844 44.1672 40.2195C44.4793 42.4477 46.5355 43.1484 48.2062 43.7234C49.1059 44.0289 49.9504 44.3164 50.4461 44.7836C50.8684 45.1789 51.0887 45.6641 51.0887 46.1852C51.0887 46.7062 50.85 47.1914 50.4094 47.5687C49.9137 48 49.2527 48.2516 48.3898 48.3055C47.7289 48.3414 46.9394 48.2695 45.9848 48.1078C45.7644 48.0719 45.5258 48.018 45.3055 47.9641C44.8465 47.8383 44.3508 48.0898 44.2223 48.5391C44.0754 48.9883 44.3508 49.4734 44.8098 49.5992C45.0852 49.6891 45.3789 49.743 45.6727 49.7969C46.3703 49.9227 46.9945 49.9945 47.5637 50.0305V51.0547C47.5637 51.5219 47.9492 51.9172 48.4449 51.9172C48.9223 51.9172 49.3262 51.5398 49.3262 51.0547V49.9227C50.2258 49.743 50.9785 49.4016 51.6027 48.8625C52.3922 48.1617 52.8512 47.2273 52.8512 46.2391C52.8695 45.2328 52.4289 44.2805 51.6578 43.5797C50.9051 42.825 49.8219 42.4656 48.7937 42.1062Z" fill="white"/>
<path d="M68.4199 32.1875H63.2977V29.025C63.2977 28.1805 62.6 27.4797 61.7187 27.4797H35.2812C34.4184 27.4797 33.7023 28.1625 33.7023 29.025V32.1875H28.5801C27.3867 32.1875 26.4137 33.1578 26.4137 34.3258V38.7101C26.4137 43.2742 29.7551 47.1555 34.2898 47.9641C34.859 50.2101 35.9422 52.2406 37.4109 53.8937C39.2469 55.9242 41.5969 57.3976 44.2773 58.1703L41.5602 63.9023H41.5418C40.6605 63.9023 39.9445 64.6031 39.9445 65.4656V68.5023H57.0555V65.4476C57.0555 64.5851 56.3394 63.8844 55.4582 63.8844L52.7227 58.1703C55.3848 57.3976 57.7531 55.9242 59.5891 53.8937C61.0762 52.2406 62.141 50.2101 62.7101 47.9641C67.2449 47.1555 70.5863 43.2742 70.5863 38.7101V34.3258C70.5863 33.1578 69.6133 32.1875 68.4199 32.1875ZM28.1578 38.7101V34.3258C28.1578 34.0922 28.3414 33.9125 28.5801 33.9125H33.7023V43.2383C33.7023 44.2086 33.7758 45.1789 33.9043 46.1312C30.5629 45.2148 28.1578 42.2141 28.1578 38.7101ZM61.2047 46.6883C60.7641 49.0062 59.7543 51.1086 58.2672 52.7617C56.5598 54.6484 54.3383 55.9961 51.8414 56.643L50.2625 57.0383L54.3383 65.6273H55.3113V66.8133H41.6887V65.6094H42.6617L46.7375 57.0203L45.1586 56.625C42.6434 55.9961 40.4219 54.6484 38.7144 52.7617C37.2273 51.1265 36.2176 49.0242 35.7769 46.6883C35.5566 45.5562 35.4465 44.4062 35.4465 43.2383V29.2047H61.5168V43.2383C61.5351 44.4062 61.425 45.5562 61.2047 46.6883ZM68.8422 38.7101C68.8422 42.2141 66.4371 45.2148 63.0773 46.1312C63.2242 45.1789 63.2793 44.2086 63.2793 43.2383V33.9125H68.4016C68.6402 33.9125 68.8422 34.1101 68.8422 34.3258V38.7101Z" fill="white"/>
</g>
<defs>
<filter id="filter0_d_5_2" x="0" y="0" width="96" height="96" filterUnits="userSpaceOnUse" color-interpolation-filters="sRGB">
<feFlood flood-opacity="0" result="BackgroundImageFix"/>
<feColorMatrix in="SourceAlpha" type="matrix" values="0 0 0 0 0 0 0 0 0 0 0 0 0 0 0 0 0 0 127 0" result="hardAlpha"/>
<feOffset/>
<feGaussianBlur stdDeviation="4"/>
<feComposite in2="hardAlpha" operator="out"/>
<feColorMatrix type="matrix" values="0 0 0 0 0 0 0 0 0 0 0 0 0 0 0 0 0 0 0.25 0"/>
<feBlend mode="normal" in2="BackgroundImageFix" result="effect1_dropShadow_5_2"/>
<feBlend mode="normal" in="SourceGraphic" in2="effect1_dropShadow_5_2" result="shape"/>
</filter>
<clipPath id="clip0_5_2">
<rect width="1440" height="6185" fill="white" transform="translate(-841 -1014)"/>
</clipPath>
</defs>
</svg>
