<svg version="1.2" xmlns="http://www.w3.org/2000/svg" viewBox="0 0 82 82" width="82" height="82">
	<title>detail-pay-svg</title>
	<defs>
		<clipPath clipPathUnits="userSpaceOnUse" id="cp1">
			<path d="m-982-357h1440v1017h-1440z"/>
		</clipPath>
	</defs>
	<style>
		.s0 { fill: #ff2946 } 
		.s1 { fill: #ffffff } 
	</style>
	<g id="Clip-Path: Clip-Path" clip-path="url(#cp1)">
		<g id="Clip-Path">
			<g id="Layer">
				<path id="Layer" class="s0" d="m41 82c-22.7 0-41-18.3-41-41 0-22.7 18.3-41 41-41 22.7 0 41 18.3 41 41 0 22.7-18.3 41-41 41z"/>
				<path id="Layer" fill-rule="evenodd" class="s1" d="m63.5 30.7v14.7c0 2.5-2.3 4.6-5.1 4.7v0.4c0 2.6-2.3 4.7-5.1 4.7h-30.2c-2.8 0-5.1-2.1-5.1-4.7v-14.7c0-2.6 2.3-4.7 5.1-4.7v-0.4c0-2.6 2.3-4.7 5.1-4.7h30.2c2.8 0 5.1 2.1 5.1 4.7zm-8.4 5.1c0-0.7-0.8-1.4-1.8-1.4h-30.2c-1 0-1.8 0.7-1.8 1.4v14.7c0 0.7 0.8 1.4 1.8 1.4h30.2c1 0 1.8-0.7 1.8-1.4zm5.1 9.5v-14.6c0-0.8-0.8-1.5-1.8-1.5h-30.2c-1 0-1.8 0.7-1.8 1.5v0.4h26.9c2.8 0 5.1 2.1 5.1 4.7v10.9c1 0 1.8-0.7 1.8-1.4z"/>
				<path id="Layer" class="s1" d="m42.9 45.3c0 2.1-1.7 3.2-3.4 3.4v1.5h-2.4v-1.4c-1.8-0.2-3.1-1.1-3.8-2.6l-0.1-0.2 2.2-1 0.1 0.3c0.4 0.8 1.5 1.3 2.6 1.3 0.5 0 2.2-0.1 2.2-1.3 0-0.6-0.7-1-2.2-1.1-1.8-0.2-4.3-0.5-4.3-3.3 0-1.7 1.2-2.8 3.3-3.2v-1.2h2.4v1.2c0.9 0.2 2.2 0.7 2.9 2.1l0.1 0.3-2 0.9-0.1-0.2c-0.3-0.5-1.3-1-2.2-1-0.6 0-2 0.2-2 1.1 0 0.6 0.7 0.8 2.1 1 1.8 0.2 4.6 0.6 4.6 3.4z"/>
			</g>
		</g>
	</g>
</svg>