<svg width="286" height="46" viewBox="0 0 286 46" fill="none" xmlns="http://www.w3.org/2000/svg">
<g clip-path="url(#clip0_226_65)">
<path d="M17.6078 0C14.6322 0 11.7506 0.416521 9.02056 1.1911L13.6067 5.82764L0 45.9927H14.9789L26.7836 27.7644C28.9358 24.593 28.7119 21.2937 27.0617 19.434L13.65 5.87514C14.1375 5.84591 14.625 5.82764 15.1197 5.82764C28.0692 5.82764 38.5703 16.4489 38.5703 29.5547C38.5703 35.9377 36.0786 41.7288 32.0306 45.9927H46.1681C48.1758 41.78 49.3025 37.0594 49.3025 32.0685C49.3025 14.359 35.1108 0 17.6078 0Z" fill="#EA0029"/>
<path d="M53.3108 43.7092C53.3108 44.3668 53.0942 44.9112 52.6644 45.3497C52.2347 45.7845 51.6931 46.0037 51.0358 46.0037C50.3786 46.0037 49.8406 45.7845 49.4108 45.3497C48.9847 44.9149 48.7681 44.3668 48.7681 43.7092C48.7681 43.0515 48.9811 42.4888 49.4108 42.054C49.8369 41.6192 50.3786 41.4 51.0358 41.4C51.6931 41.4 52.2383 41.6192 52.6681 42.054C53.0942 42.4888 53.3108 43.0405 53.3108 43.7092ZM49.3025 43.7092C49.3025 44.228 49.465 44.6591 49.7936 44.9953C50.1222 45.3351 50.5375 45.5031 51.0394 45.5031C51.5414 45.5031 51.9603 45.3351 52.2889 44.9953C52.6175 44.6555 52.7836 44.228 52.7836 43.7092C52.7836 43.1903 52.6211 42.7555 52.2925 42.4194C51.9639 42.0833 51.5486 41.9152 51.0394 41.9152C50.5303 41.9152 50.115 42.0833 49.79 42.4194C49.465 42.7555 49.3025 43.1867 49.3025 43.7092ZM51.1369 42.4706C51.3969 42.4706 51.61 42.5473 51.7725 42.6971C51.935 42.8469 52.0144 43.0332 52.0144 43.2598C52.0144 43.5922 51.87 43.8297 51.5775 43.9795L52.1047 44.8893H51.4764L51.0467 44.0709H50.7144V44.8893H50.1619V42.4742H51.1369V42.4706ZM51.1369 42.9675H50.7144V43.5703H51.1369C51.2272 43.5703 51.2994 43.5447 51.3572 43.4899C51.4114 43.4351 51.4403 43.3621 51.4403 43.2707C51.4403 43.1794 51.4114 43.1063 51.3572 43.0478C51.3031 42.993 51.2272 42.9638 51.1369 42.9638V42.9675Z" fill="#EA0029"/>
<path d="M62.1219 18.0712H71.2436C73.4536 18.0712 75.5517 18.3233 77.5414 18.8202C79.5311 19.3207 81.2644 20.1282 82.745 21.2462C84.2256 22.3643 85.4028 23.8184 86.2731 25.6051C87.1433 27.3954 87.5803 29.562 87.5803 32.116C87.5803 34.3776 87.1578 36.3689 86.3128 38.0934C85.4678 39.8143 84.3303 41.2612 82.9003 42.434C81.4703 43.6032 79.82 44.491 77.9494 45.0975C76.0789 45.704 74.1144 46.0037 72.0633 46.0037H62.1219V18.0712ZM68.2031 40.3185H71.3628C72.7675 40.3185 74.0711 40.1724 75.2808 39.8837C76.4906 39.5951 77.5342 39.1128 78.4189 38.4442C79.3036 37.7719 79.9969 36.8913 80.5061 35.8025C81.0117 34.7101 81.2681 33.3765 81.2681 31.7981C81.2681 30.4316 81.0153 29.2405 80.5061 28.2284C80.0006 27.2164 79.3181 26.3797 78.4586 25.722C77.5992 25.0643 76.5917 24.5711 75.4361 24.2423C74.2806 23.9134 73.0636 23.749 71.7925 23.749H68.2067V40.3185H68.2031Z" fill="#242221"/>
<path d="M100.985 43.1209H100.905C100.255 44.1476 99.3922 44.882 98.3125 45.3314C97.2328 45.7772 96.0953 46.0037 94.9 46.0037C94.0153 46.0037 93.1667 45.8795 92.3469 45.6274C91.5272 45.3789 90.8086 45.0026 90.1839 44.502C89.5592 44.0015 89.0644 43.384 88.7033 42.6496C88.3386 41.9152 88.1581 41.0602 88.1581 40.0847C88.1581 38.9813 88.3603 38.0459 88.7611 37.2823C89.1656 36.5187 89.7108 35.8903 90.3969 35.3897C91.0867 34.8891 91.8703 34.5019 92.755 34.2242C93.6397 33.9465 94.5533 33.7455 95.5031 33.614C96.4528 33.4825 97.3989 33.4021 98.3486 33.3765C99.2983 33.3509 100.176 33.3363 100.981 33.3363C100.981 32.2841 100.609 31.451 99.8689 30.8299C99.1286 30.2124 98.2511 29.9019 97.2364 29.9019C96.2217 29.9019 95.3983 30.1065 94.6039 30.512C93.8094 30.9212 93.1017 31.4803 92.4806 32.1891L89.3606 28.9556C90.4511 27.9289 91.7258 27.1616 93.1811 26.6464C94.6364 26.1349 96.1458 25.8755 97.7022 25.8755C99.4175 25.8755 100.826 26.0911 101.931 26.5258C103.036 26.9606 103.921 27.5964 104.581 28.4404C105.246 29.2844 105.704 30.3147 105.964 31.5387C106.224 32.7627 106.354 34.1767 106.354 35.7807V45.9964H100.974V43.1173L100.985 43.1209ZM99.5439 37.1252C99.1033 37.1252 98.5508 37.1435 97.8864 37.1837C97.2219 37.2239 96.5864 37.3371 95.9761 37.5198C95.3658 37.7025 94.8458 37.9802 94.4161 38.3492C93.9864 38.7182 93.7733 39.2297 93.7733 39.8874C93.7733 40.5962 94.0731 41.1223 94.6689 41.4658C95.2683 41.8092 95.8894 41.9773 96.5394 41.9773C97.11 41.9773 97.6625 41.8969 98.1969 41.7398C98.7278 41.5827 99.2044 41.3598 99.6197 41.0675C100.035 40.7789 100.367 40.4099 100.613 39.9641C100.858 39.5184 100.985 38.9922 100.985 38.3857V37.1216H99.5439V37.1252Z" fill="#242221"/>
<path d="M108.315 18.0712H114.165V46H108.315V18.0712Z" fill="#242221"/>
<path d="M130.242 35.9414C130.242 34.4178 130.516 33.0367 131.062 31.7981C131.607 30.5632 132.354 29.5036 133.304 28.6231C134.254 27.7425 135.37 27.063 136.655 26.5916C137.941 26.1203 139.313 25.8828 140.768 25.8828C142.224 25.8828 143.596 26.1203 144.881 26.5916C146.167 27.0666 147.286 27.7425 148.236 28.6231C149.186 29.5036 149.933 30.5632 150.479 31.7981C151.024 33.0331 151.298 34.4142 151.298 35.9414C151.298 37.4687 151.024 38.8461 150.479 40.0847C149.933 41.3197 149.186 42.3792 148.236 43.2598C147.286 44.1403 146.171 44.8163 144.881 45.2912C143.596 45.7662 142.224 46 140.768 46C139.313 46 137.941 45.7626 136.655 45.2912C135.37 44.8163 134.25 44.1403 133.304 43.2598C132.354 42.3792 131.607 41.3197 131.062 40.0847C130.516 38.8498 130.242 37.4687 130.242 35.9414ZM136.088 35.9414C136.088 37.3883 136.496 38.5575 137.316 39.4526C138.136 40.3478 139.284 40.7935 140.768 40.7935C142.253 40.7935 143.401 40.3478 144.221 39.4526C145.04 38.5575 145.448 37.3883 145.448 35.9414C145.448 34.4946 145.04 33.3254 144.221 32.4302C143.401 31.5351 142.253 31.0893 140.768 31.0893C139.284 31.0893 138.136 31.5351 137.316 32.4302C136.496 33.3254 136.088 34.4946 136.088 35.9414Z" fill="#242221"/>
<path d="M153.245 26.8291H158.86V29.4342H158.939C159.12 29.0652 159.38 28.6998 159.719 28.3308C160.055 27.9618 160.46 27.6329 160.929 27.3443C161.399 27.0556 161.929 26.8182 162.529 26.6355C163.128 26.4528 163.778 26.3578 164.479 26.3578C165.959 26.3578 167.155 26.588 168.065 27.0483C168.975 27.5087 169.683 28.1481 170.188 28.9629C170.694 29.7776 171.04 30.7386 171.221 31.842C171.401 32.9454 171.495 34.1438 171.495 35.4299V46.0037H165.645V36.6137C165.645 36.062 165.627 35.4884 165.587 34.8965C165.548 34.3046 165.432 33.7602 165.237 33.2596C165.042 32.7591 164.743 32.3535 164.342 32.0356C163.937 31.7214 163.359 31.5606 162.608 31.5606C161.857 31.5606 161.243 31.6995 160.774 31.9735C160.304 32.2512 159.947 32.6166 159.701 33.0769C159.452 33.5373 159.293 34.0561 159.214 34.6371C159.134 35.2143 159.098 35.8209 159.098 36.4529V46H153.248V26.8291H153.245Z" fill="#242221"/>
<path d="M123.948 31.0893V30.618H129.094V25.8828H123.948V20.6763H119.481L118.098 24.7538L117.715 25.8828L116.112 30.618H118.098V40.2053C118.098 41.2575 118.275 42.1527 118.625 42.8871C118.975 43.6251 119.463 44.2207 120.087 44.681C120.712 45.1414 121.438 45.4775 122.272 45.6858C123.103 45.8977 124.013 46 125.002 46C125.678 46 126.367 45.9598 127.068 45.8831C127.768 45.8027 128.444 45.6456 129.094 45.4081V40.4756C128.834 40.7131 128.451 40.8629 127.945 40.9287C127.44 40.9945 127.028 41.0273 126.718 41.0273C126.093 41.0273 125.594 40.9433 125.215 40.7716C124.84 40.5999 124.558 40.3587 124.377 40.0408C124.197 39.7266 124.078 39.3503 124.027 38.9155C123.977 38.4807 123.948 38.0021 123.948 37.476V31.0856V31.0893Z" fill="#242221"/>
<path d="M180.635 26.6025C181.758 24.666 183.282 23.1534 185.207 22.0683C187.131 20.9795 189.24 20.4387 191.533 20.4387C194.155 20.4387 196.488 21.0891 198.532 22.3934C200.576 23.6978 202.056 25.5429 202.977 27.9324H198.124C197.484 26.6171 196.6 25.6379 195.466 24.9912C194.332 24.3445 193.021 24.023 191.533 24.023C189.905 24.023 188.449 24.392 187.175 25.1337C185.9 25.8754 184.9 26.9386 184.181 28.3234C183.459 29.7118 183.101 31.3231 183.101 33.1645C183.101 35.006 183.462 36.6173 184.181 38.0057C184.9 39.3941 185.9 40.461 187.175 41.2136C188.449 41.9663 189.905 42.3426 191.533 42.3426C193.021 42.3426 194.332 42.0211 195.466 41.3744C196.6 40.7277 197.484 39.7485 198.124 38.4332H202.977C202.056 40.8227 200.572 42.6641 198.532 43.9539C196.488 45.2436 194.155 45.8904 191.533 45.8904C189.219 45.8904 187.102 45.3459 185.189 44.2608C183.275 43.172 181.758 41.663 180.635 39.7266C179.512 37.7901 178.952 35.6052 178.952 33.1645C178.952 30.7239 179.512 28.539 180.635 26.6025Z" fill="#242221"/>
<path d="M214.085 26.4418C215.063 25.8791 216.23 25.5978 217.577 25.5978V29.8288H216.547C214.966 29.8288 213.767 30.2343 212.951 31.0491C212.135 31.8639 211.727 33.2705 211.727 35.2801V45.6785H207.686V25.923H211.727V28.7911C212.319 27.7863 213.102 27.0045 214.085 26.4418Z" fill="#242221"/>
<path d="M239.048 37.3225H224.131C224.25 38.9009 224.828 40.1687 225.868 41.1223C226.908 42.0796 228.183 42.5582 229.696 42.5582C231.869 42.5582 233.404 41.6375 234.303 39.796H238.662C238.07 41.6119 237.001 43.099 235.455 44.2609C233.906 45.4191 231.989 46 229.696 46C227.829 46 226.157 45.5762 224.68 44.7285C223.203 43.8809 222.044 42.6861 221.206 41.1443C220.368 39.6024 219.949 37.8157 219.949 35.7843C219.949 33.7528 220.357 31.9662 221.17 30.4243C221.986 28.8825 223.131 27.695 224.607 26.8583C226.084 26.0216 227.778 25.6051 229.692 25.6051C231.606 25.6051 233.177 26.0107 234.618 26.8254C236.058 27.6366 237.181 28.7802 237.983 30.2489C238.785 31.7177 239.189 33.4094 239.189 35.3239C239.189 36.0656 239.142 36.7343 239.048 37.3335V37.3225ZM234.975 34.0232C234.95 32.5179 234.419 31.3122 233.379 30.4024C232.339 29.4926 231.053 29.0396 229.515 29.0396C228.121 29.0396 226.929 29.489 225.936 30.3841C224.943 31.2793 224.355 32.4923 224.163 34.0232H234.971H234.975Z" fill="#242221"/>
<path d="M243.035 30.439C243.851 28.9081 244.96 27.7206 246.368 26.873C247.773 26.0253 249.34 25.6015 251.063 25.6015C252.337 25.6015 253.598 25.8828 254.836 26.4455C256.075 27.0081 257.061 27.7535 257.794 28.6852V19.149H261.871V45.6785H257.794V42.7044C257.133 43.6617 256.216 44.4509 255.049 45.072C253.879 45.6931 252.539 46.0037 251.026 46.0037C249.326 46.0037 247.773 45.5689 246.368 44.6957C244.963 43.8224 243.851 42.6058 243.035 41.0383C242.219 39.4745 241.814 37.6988 241.814 35.7149C241.814 33.7309 242.223 31.9735 243.035 30.4463V30.439ZM256.963 32.2329C256.407 31.2282 255.681 30.4645 254.782 29.9384C253.883 29.4123 252.915 29.1492 251.875 29.1492C250.835 29.1492 249.867 29.405 248.968 29.9201C248.069 30.4353 247.343 31.188 246.791 32.1781C246.234 33.1683 245.956 34.3484 245.956 35.7112C245.956 37.0741 246.234 38.2688 246.791 39.2955C247.343 40.3222 248.076 41.1077 248.986 41.6448C249.896 42.1819 250.857 42.4523 251.875 42.4523C252.893 42.4523 253.883 42.1892 254.782 41.6631C255.681 41.137 256.407 40.366 256.963 39.3503C257.519 38.3346 257.797 37.1471 257.797 35.7843C257.797 34.4215 257.519 33.2377 256.963 32.2366V32.2329Z" fill="#242221"/>
<path d="M267.396 22.5506C266.897 22.0464 266.652 21.4253 266.652 20.6872C266.652 19.9492 266.901 19.3244 267.396 18.8238C267.89 18.3233 268.504 18.0712 269.237 18.0712C269.97 18.0712 270.548 18.3233 271.043 18.8238C271.538 19.3244 271.787 19.9492 271.787 20.6872C271.787 21.4253 271.538 22.05 271.043 22.5506C270.548 23.0512 269.945 23.3033 269.237 23.3033C268.529 23.3033 267.89 23.0512 267.396 22.5506ZM271.223 25.9193V45.6748H267.183V25.9193H271.223Z" fill="#242221"/>
<path d="M281.251 29.2552V40.1907C281.251 40.9324 281.421 41.4622 281.764 41.7873C282.107 42.1125 282.692 42.2696 283.519 42.2696H286V45.6749H282.811C280.991 45.6749 279.598 45.2437 278.63 44.3851C277.662 43.5228 277.178 42.1271 277.178 40.1907V29.2552H274.874V25.9194H277.178V21.0088H281.251V25.9194H286V29.2552H281.251Z" fill="#242221"/>
</g>
<defs>
<clipPath id="clip0_226_65">
<rect width="286" height="46" fill="white"/>
</clipPath>
</defs>
</svg>
