<svg width="19" height="20" viewBox="0 0 19 20" fill="none" xmlns="http://www.w3.org/2000/svg">
<path d="M18.8438 10.012C18.8438 4.85996 14.652 0.668213 9.5 0.668213C4.348 0.668213 0.15625 4.85996 0.15625 10.012C0.15625 15.164 4.348 19.3557 9.5 19.3557C14.652 19.3557 18.8438 15.164 18.8438 10.012ZM17.4062 10.012C17.4063 14.387 13.875 17.9182 9.5 17.9182C5.12497 17.9182 1.59375 14.387 1.59375 10.012C1.59375 5.63693 5.12497 2.10571 9.5 2.10571C13.875 2.10571 17.4062 5.63693 17.4062 10.012ZM13.0262 10.012L12.5324 9.49446L8.21991 5.18196L7.18491 6.21696L10.9828 10.012L7.18778 13.807L8.22062 14.842L12.5331 10.5295L13.0262 10.012Z" fill="#0063CC"/>
</svg>
