<svg width="29" height="22" viewBox="0 0 29 22" fill="none" xmlns="http://www.w3.org/2000/svg">
<path d="M8.78287 13.5135C8.16186 14.0721 8.16186 14.8455 8.78287 15.4042C9.35953 16.0057 10.158 16.0057 10.779 15.4042C11.3556 14.8455 12.3759 14.0721 11.7549 13.4705C11.1782 12.9119 9.35953 12.9119 8.78287 13.5135ZM16.7673 5.77876C16.1463 6.33738 16.1463 8.09917 16.7229 8.65779C17.344 9.25937 18.1424 8.27105 18.7191 7.71243C19.3401 7.11085 19.3401 6.33738 18.7191 5.77876C18.1424 5.17717 17.344 5.17717 16.7673 5.77876ZM27.6794 19.9161H12.4202L11.5331 19.0567L22.4895 8.44293L23.2436 9.13046C23.6428 9.56017 24.3082 9.56017 24.7074 9.13046L25.2397 8.65779C25.6389 8.27105 25.6389 7.62649 25.2397 7.23976L20.9813 3.11459C19.9611 2.12627 18.5416 1.73953 17.2552 1.99735L13.0856 0.278534C11.7549 -0.280083 10.2467 0.0207108 9.22645 1.00903L3.85914 6.20847C2.83891 7.19679 2.5284 8.65779 3.10506 9.9469L4.87937 13.9861C4.61323 15.2323 5.01245 16.6073 6.03268 17.5957L8.47237 19.9161H0.709727C0.310506 19.9161 0 20.2598 0 20.6036V21.2911C0 21.6779 0.310506 21.9786 0.709727 21.9786H27.6794C28.0342 21.9786 28.3891 21.6779 28.3891 21.2911V20.6036C28.3891 20.2598 28.0342 19.9161 27.6794 19.9161ZM5.05681 9.13046C4.83502 8.61482 4.92373 8.0562 5.32295 7.66946L10.7346 2.42706C11.1338 2.04033 11.7105 1.95438 12.2428 2.16924L14.8599 3.2435L6.16575 11.6657L5.05681 9.13046ZM9.00466 17.5957L7.54085 16.1347C6.69805 15.3612 6.69805 14.0721 7.54085 13.2556L16.5012 4.57559C17.344 3.75915 18.6747 3.75915 19.4731 4.57559L20.9813 5.99361C21.2475 6.29441 21.2475 6.72411 20.9813 6.98194L10.0249 17.5957C9.75875 17.8535 9.31517 17.8535 9.00466 17.5957Z" fill="#333A3D"/>
</svg>
