<svg width="23" height="16" viewBox="0 0 23 16" fill="none" xmlns="http://www.w3.org/2000/svg">
<path d="M21.4635 1.29735H19.3172V0.648675C19.3172 0.324338 18.9594 0 18.6017 0H14.309C13.9066 0 13.5936 0.324338 13.5936 0.648675V1.29735H9.30086V0.648675C9.30086 0.324338 8.94313 0 8.58541 0H4.2927C3.89026 0 3.57725 0.324338 3.57725 0.648675V1.29735H1.4309C0.626019 1.29735 0 1.90548 0 2.5947V14.2709C0 15.0006 0.626019 15.5682 1.4309 15.5682H21.4635C22.2237 15.5682 22.8944 15.0006 22.8944 14.2709V2.5947C22.8944 1.90548 22.2237 1.29735 21.4635 1.29735ZM20.7481 13.6222H2.14635V3.24338H20.7481V13.6222ZM8.94313 6.81109H3.93498C3.7114 6.81109 3.57725 6.97326 3.57725 7.13543V8.43278C3.57725 8.63549 3.7114 8.75712 3.93498 8.75712H8.94313C9.122 8.75712 9.30086 8.63549 9.30086 8.43278V7.13543C9.30086 6.97326 9.122 6.81109 8.94313 6.81109ZM18.9594 6.81109H17.5285V5.51374C17.5285 5.35157 17.3497 5.1894 17.1708 5.1894H15.7399C15.5163 5.1894 15.3822 5.35157 15.3822 5.51374V6.81109H13.9513C13.7277 6.81109 13.5936 6.97326 13.5936 7.13543V8.43278C13.5936 8.63549 13.7277 8.75712 13.9513 8.75712H15.3822V10.0545C15.3822 10.2572 15.5163 10.3788 15.7399 10.3788H17.1708C17.3497 10.3788 17.5285 10.2572 17.5285 10.0545V8.75712H18.9594C19.1383 8.75712 19.3172 8.63549 19.3172 8.43278V7.13543C19.3172 6.97326 19.1383 6.81109 18.9594 6.81109Z" fill="#333A3D"/>
</svg>
