<svg width="26" height="22" viewBox="0 0 26 22" fill="none" xmlns="http://www.w3.org/2000/svg">
<path d="M5.90125 9.27653H7.70418L7.36076 11.5391C7.27491 11.7448 7.48955 11.9094 7.70418 11.9094C7.83296 11.9094 7.96174 11.8682 8.00467 11.786L10.8808 7.67213C11.0525 7.46644 10.8808 7.21961 10.5803 7.21961H8.82028L9.1637 5.73863C9.20663 5.53293 9.03492 5.36838 8.82028 5.36838H6.71686C6.54515 5.36838 6.37344 5.45066 6.37344 5.61521L5.55783 8.94742C5.5149 9.15311 5.68661 9.27653 5.90125 9.27653ZM24.7891 5.32724H24.1023V3.3526C24.1023 3.02349 23.7589 2.69438 23.4155 2.69438C23.0291 2.69438 22.7286 3.02349 22.7286 3.3526V5.32724H21.355V3.3526C21.355 3.02349 21.0116 2.69438 20.6681 2.69438C20.2818 2.69438 19.9813 3.02349 19.9813 3.3526V5.32724H19.2945C18.9081 5.32724 18.6077 5.65635 18.6077 5.98546V7.9601C18.6077 9.44108 19.595 10.6752 21.0116 11.0866V15.365C21.0116 16.0232 20.4535 16.5169 19.8096 16.5169C19.1228 16.5169 18.6077 16.0232 18.6077 15.365V14.2131C18.6077 12.2385 16.8906 10.593 14.8301 10.593H14.4867V2.03617C14.4867 0.966569 13.5423 0.0615234 12.4262 0.0615234H4.18416C3.02513 0.0615234 2.12367 0.966569 2.12367 2.03617V19.1497H1.09342C0.878781 19.1497 0.75 19.3143 0.75 19.4789V20.7953C0.75 21.001 0.878781 21.1244 1.09342 21.1244H15.5169C15.6886 21.1244 15.8603 21.001 15.8603 20.7953V19.4789C15.8603 19.3143 15.6886 19.1497 15.5169 19.1497H14.4867V12.5676H14.8301C15.7745 12.5676 16.5472 13.3081 16.5472 14.2131V15.365C16.5472 17.0928 18.0067 18.4915 19.8096 18.4915C21.5696 18.4915 23.0721 17.0928 23.0721 15.365V11.0866C24.4457 10.6752 25.476 9.44108 25.476 7.9601V5.98546C25.476 5.65635 25.1326 5.32724 24.7891 5.32724ZM12.4262 19.1497H4.18416V2.03617H12.4262V19.1497ZM23.4155 7.9601C23.4155 8.70059 22.7716 9.27653 22.0418 9.27653C21.2691 9.27653 20.6681 8.70059 20.6681 7.9601V7.30189H23.4155V7.9601Z" fill="#333A3D"/>
</svg>
