<svg width="24" height="24" viewBox="0 0 24 24" fill="none" xmlns="http://www.w3.org/2000/svg">
<g id="Group 8997">
<rect id="Rectangle 9349" x="1" y="1" width="22" height="22" rx="11" fill="white" stroke="#808080" stroke-width="2"/>
<path id="$" d="M12.9312 6V8.0163H11.668V6H12.9312ZM12.7773 17.1614V19H11.5142V17.1614H12.7773ZM13.668 14.9196C13.668 14.6598 13.6113 14.4388 13.498 14.2566C13.39 14.0743 13.2119 13.9125 12.9636 13.7713C12.7206 13.63 12.3914 13.4933 11.9757 13.3612C11.274 13.1334 10.6559 12.8919 10.1215 12.6367C9.59244 12.377 9.17949 12.0557 8.88259 11.673C8.5857 11.2857 8.43725 10.7958 8.43725 10.2035C8.43725 9.63845 8.59649 9.14862 8.91498 8.73396C9.23347 8.31931 9.67341 8.00035 10.2348 7.77708C10.8016 7.54925 11.4602 7.43533 12.2105 7.43533C12.7827 7.43533 13.3009 7.50824 13.7652 7.65405C14.2294 7.7953 14.6289 8.00491 14.9636 8.28286C15.2982 8.55626 15.5547 8.89117 15.7328 9.28759C15.9109 9.68402 16 10.1374 16 10.6477H13.6761C13.6761 10.3743 13.641 10.1328 13.5709 9.92324C13.5007 9.71363 13.3981 9.53821 13.2632 9.39695C13.1336 9.2557 12.9771 9.15089 12.7935 9.08254C12.61 9.00964 12.4076 8.97319 12.1862 8.97319C11.857 8.97319 11.587 9.02787 11.3765 9.13722C11.166 9.24658 11.0121 9.39467 10.915 9.58149C10.8232 9.76376 10.7773 9.97336 10.7773 10.2103C10.7773 10.4427 10.8259 10.6455 10.9231 10.8186C11.0256 10.9918 11.2011 11.1512 11.4494 11.2971C11.6977 11.4383 12.0378 11.5841 12.4696 11.7345C13.1714 11.9623 13.7868 12.2084 14.3158 12.4727C14.8448 12.7369 15.2578 13.0605 15.5547 13.4432C15.8516 13.826 16 14.3135 16 14.9059C16 15.4937 15.8381 15.9949 15.5142 16.4096C15.1903 16.8197 14.7368 17.1341 14.1538 17.3528C13.5709 17.5669 12.8961 17.674 12.1296 17.674C11.6329 17.674 11.139 17.6193 10.6478 17.51C10.1565 17.3961 9.7112 17.2138 9.31174 16.9632C8.91228 16.7126 8.59379 16.38 8.35628 15.9653C8.11876 15.5461 8 15.0312 8 14.4206H10.332C10.332 14.7532 10.3833 15.0312 10.4858 15.2545C10.5884 15.4732 10.7233 15.6486 10.8907 15.7808C11.0634 15.9083 11.2578 15.9995 11.4737 16.0542C11.6896 16.1088 11.9082 16.1362 12.1296 16.1362C12.475 16.1362 12.7584 16.0838 12.9798 15.979C13.2065 15.8742 13.3765 15.7306 13.4899 15.5484C13.6086 15.3615 13.668 15.1519 13.668 14.9196Z" fill="#808080"/>
</g>
</svg>
