<svg width="28" height="20" viewBox="0 0 28 20" fill="none" xmlns="http://www.w3.org/2000/svg">
<path d="M13.7367 0.176758C8.4137 0.176758 4.121 4.51239 4.121 9.79242C4.121 15.1154 8.4137 19.4081 13.7367 19.4081C19.0167 19.4081 23.3523 15.1154 23.3523 9.79242C23.3523 4.51239 19.0167 0.176758 13.7367 0.176758ZM13.7367 17.3476C9.52981 17.3476 6.1815 13.9993 6.1815 9.79242C6.1815 5.62849 9.52981 2.23726 13.7367 2.23726C17.9006 2.23726 21.2918 5.62849 21.2918 9.79242C21.2918 13.9993 17.9006 17.3476 13.7367 17.3476ZM13.7367 12.5397C12.964 12.5397 12.363 13.1837 12.363 13.9134C12.363 14.6861 12.964 15.2871 13.7367 15.2871C14.4664 15.2871 15.1103 14.6861 15.1103 13.9134C15.1103 13.1837 14.4664 12.5397 13.7367 12.5397ZM14.6811 4.29775H12.7493C12.363 4.29775 12.0196 4.6841 12.0625 5.07044L12.6206 10.5651C12.6635 10.9085 12.964 11.1661 13.3074 11.1661H14.123C14.4664 11.1661 14.7669 10.9085 14.8098 10.5651L15.3679 5.07044C15.4108 4.6841 15.0674 4.29775 14.6811 4.29775ZM2.0605 9.79242C2.0605 7.25972 2.87611 4.76995 4.42149 2.75238C4.63612 2.45189 4.59319 2.06555 4.33563 1.80799L3.82051 1.37872C3.52002 1.12115 3.04782 1.16408 2.79026 1.46457C0.987322 3.86848 0 6.78752 0 9.79242C0 12.8402 0.987322 15.7593 2.79026 18.1632C3.04782 18.4637 3.52002 18.5066 3.82051 18.249L4.33563 17.8198C4.59319 17.5622 4.63612 17.1759 4.42149 16.8754C2.87611 14.8578 2.0605 12.368 2.0605 9.79242ZM24.5543 1.37872C24.3396 1.07823 23.8674 1.0353 23.5669 1.29286L23.0518 1.76506C22.7513 1.97969 22.7513 2.40896 22.966 2.70945C24.5543 4.72703 25.4128 7.21679 25.4128 9.79242C25.4128 12.411 24.5543 14.9007 22.966 16.9183C22.7513 17.2188 22.7513 17.6481 23.0518 17.8627L23.5669 18.3349C23.8674 18.5925 24.3396 18.5495 24.5543 18.249C26.4431 15.8451 27.4733 12.8832 27.4733 9.79242C27.4733 6.7446 26.4431 3.78263 24.5543 1.37872Z" fill="#333A3D"/>
</svg>
