<svg width="29" height="30" viewBox="0 0 29 30" fill="none" xmlns="http://www.w3.org/2000/svg">
<g clip-path="url(#clip0)">
<path d="M15.2612 4.62915H4.69302C4.36463 4.62915 4.09595 4.91199 4.09595 5.25769V12.6116C4.09595 12.9572 4.36463 13.2401 4.69302 13.2401H15.2612C15.5896 13.2401 15.8582 12.9572 15.8582 12.6116V5.25769C15.8582 4.91199 15.5896 4.62915 15.2612 4.62915ZM14.6641 11.983H5.29009V5.88622H14.6641V11.983Z" fill="#000"/>
<path d="M27.8951 27.1936H17.8882V17.137H18.8615C19.7451 17.137 20.4616 17.8975 20.4556 18.8278C20.4556 18.834 20.4556 18.834 20.4556 18.8403V20.5814C20.4556 22.423 21.8707 23.9126 23.6201 23.9126C25.3695 23.9126 26.7846 22.423 26.7846 20.5814V10.6379C26.7846 9.60714 26.4204 8.61406 25.7516 7.85353L21.0826 2.25328L20.187 3.08294L23.8052 7.42612C22.4976 7.65868 21.6139 8.95975 21.8349 10.3362C22.0259 11.5556 23.029 12.4481 24.2052 12.4481C24.7008 12.4418 25.1844 12.2847 25.5904 11.983V20.5814C25.5904 21.7253 24.7068 22.6555 23.6201 22.6555C22.5334 22.6555 21.6498 21.7253 21.6498 20.5814V18.8403C21.6557 17.2124 20.4079 15.8862 18.8674 15.8799H18.8615H17.8882V4.17031C17.8882 2.73725 16.7896 1.54932 15.4283 1.54932H4.33473C2.97341 1.54932 1.88674 2.74353 1.88674 4.17031V27.1936H0.59707C0.268682 27.1936 0 27.4764 0 27.8221C0 28.1678 0.268682 28.4506 0.59707 28.4506H27.9011C28.2295 28.4506 28.4982 28.1678 28.4982 27.8221C28.4982 27.4764 28.2295 27.1936 27.8951 27.1936ZM24.2052 11.1848C23.5365 11.1848 22.9992 10.6128 22.9992 9.91513C22.9992 9.21745 23.5425 8.64548 24.2052 8.64548C24.874 8.64548 25.4113 9.21745 25.4113 9.91513C25.4113 10.6128 24.868 11.1848 24.2052 11.1848ZM16.6941 27.1936H3.08088V4.17031C3.08088 3.42864 3.63019 2.80639 4.33473 2.80639H15.4283C16.1328 2.80639 16.6941 3.43492 16.6941 4.17031V27.1936Z" fill="#000"/>
</g>
<defs>
<clipPath id="clip0">
<rect width="28.4982" height="30" fill="white"/>
</clipPath>
</defs>
</svg>
