<svg width="29" height="30" viewBox="0 0 29 30" fill="none" xmlns="http://www.w3.org/2000/svg">
<path d="M22.9053 24.0292C22.8136 24.0099 22.7203 24.0001 22.6268 24H22.4938L23.3487 20.4085C23.644 19.1679 23.7208 17.8808 23.5753 16.611L22.6581 8.583C22.4576 6.82394 21.0401 5.50006 19.3571 5.5H18.0747C18.3885 5.06962 18.5592 4.54256 18.5606 4V2.5C18.559 1.12 17.4966 0.001625 16.1857 0H12.386C11.075 0.001625 10.0127 1.12 10.0111 2.5V4C10.0128 4.54275 10.1841 5.06981 10.4984 5.5H9.21602C7.53302 5.50006 6.11548 6.82394 5.91498 8.583L4.99829 16.611C4.85277 17.8808 4.92954 19.1679 5.22485 20.4085L6.07789 24H5.9449C5.15794 24.0007 4.52053 24.6729 4.52124 25.5013C4.5213 25.5998 4.53062 25.698 4.54897 25.7945L5.11893 28.7945C5.25341 29.4944 5.83697 29.9982 6.51534 30H22.0563C22.7347 29.9982 23.3183 29.4944 23.4528 28.7945L24.0227 25.7945C24.1772 24.9822 23.6769 24.1918 22.9053 24.0292ZM19.5105 6.515C20.649 6.59031 21.5752 7.50825 21.7153 8.7L22.6301 16.73C22.762 17.8791 22.6925 19.0439 22.4249 20.1665H22.4235L21.5144 24H19.5105V6.515ZM10.9611 2.5C10.9611 1.67156 11.599 1 12.386 1H16.1857C16.9727 1 17.6106 1.67156 17.6106 2.5V4C17.6106 4.82844 16.9727 5.5 16.1857 5.5H12.386C11.599 5.5 10.9611 4.82844 10.9611 4V2.5ZM10.0111 6.5H18.5606V8H10.0111V6.5ZM10.0111 9H18.5606V11H10.0111V9ZM13.6142 16.5L12.8609 17.293L12.1076 16.5L12.8609 15.707L13.6142 16.5ZM13.5325 15L14.2858 14.207L15.0391 15L14.2858 15.793L13.5325 15ZM14.2858 17.207L15.0391 18L14.2858 18.793L13.5325 18L14.2858 17.207ZM14.9574 16.5L15.7107 15.707L16.4641 16.5L15.7107 17.293L14.9574 16.5ZM17.1357 17.207L17.889 18L17.1357 18.793L16.3824 18L17.1357 17.207ZM16.3824 15L17.1357 14.207L17.889 15L17.1357 15.793L16.3824 15ZM16.3824 12H17.889L17.1357 12.793L16.3824 12ZM16.4641 13.5L15.7107 14.293L14.9574 13.5L15.7107 12.707L16.4641 13.5ZM14.2858 12.793L13.5325 12H15.0391L14.2858 12.793ZM13.6142 13.5L12.8609 14.293L12.1076 13.5L12.8609 12.707L13.6142 13.5ZM11.436 12.793L10.6827 12H12.1893L11.436 12.793ZM12.1893 15L11.436 15.793L10.6827 15L11.436 14.207L12.1893 15ZM12.1893 18L11.436 18.793L10.6827 18L11.436 17.207L12.1893 18ZM12.1893 21H10.6827L11.436 20.207L12.1893 21ZM12.1076 19.5L12.8609 18.707L13.6142 19.5L12.8609 20.293L12.1076 19.5ZM14.2858 20.207L15.0391 21H13.5325L14.2858 20.207ZM14.9574 19.5L15.7107 18.707L16.4641 19.5L15.7107 20.293L14.9574 19.5ZM17.1357 20.207L17.889 21H16.3824L17.1357 20.207ZM17.8073 19.5L18.5606 18.707V20.293L17.8073 19.5ZM17.8073 16.5L18.5606 15.707V17.293L17.8073 16.5ZM17.8073 13.5L18.5606 12.707V14.293L17.8073 13.5ZM10.0111 12.707L10.7644 13.5L10.0111 14.293V12.707ZM10.0111 15.707L10.7644 16.5L10.0111 17.293V15.707ZM10.0111 18.707L10.7644 19.5L10.0111 20.293V18.707ZM10.0111 22H18.5606V24H18.0856H10.0111V22ZM17.6106 25V27H10.9611V25H17.6106ZM5.94158 16.73L6.85637 8.7C6.99643 7.50825 7.92268 6.59031 9.06118 6.515V24H7.05728L6.14676 20.1665C5.87918 19.0439 5.8096 17.8791 5.94158 16.73ZM23.0923 25.598L22.5223 28.598C22.4771 28.831 22.2822 28.9983 22.0563 28.998H6.51534C6.28943 28.9983 6.09458 28.831 6.0494 28.598L5.47943 25.598C5.42695 25.3274 5.59277 25.0633 5.84979 25.0081C5.88108 25.0014 5.91296 24.998 5.9449 24.998H10.0111V27.498C10.0111 27.7741 10.2238 27.998 10.4861 27.998H18.0856C18.3479 27.998 18.5606 27.7741 18.5606 27.498V25H22.6268C22.7689 25.0002 22.9034 25.0673 22.9935 25.183C23.0838 25.2987 23.12 25.4511 23.0923 25.598Z" fill="#000"/>
</svg>
