<svg width="29" height="30" viewBox="0 0 29 30" fill="none" xmlns="http://www.w3.org/2000/svg">
<g clip-path="url(#clip0)">
<path d="M20.6371 12.6555L13.6865 19.0886C13.6772 19.0972 13.668 19.1057 13.6598 19.1149C13.4349 19.3505 13.3108 19.6648 13.3108 19.9999C13.3108 20.6889 13.8431 21.2498 14.4982 21.2498C14.8136 21.2498 15.1116 21.1205 15.3644 20.8543L21.4755 13.5374C21.6819 13.2902 21.6703 12.9161 21.4489 12.683C21.2273 12.4505 20.8737 12.4382 20.6371 12.6555Z" fill="#000"/>
<path d="M14.4981 5C6.64068 5 0.249023 11.7291 0.249023 20C0.249023 21.5515 0.477454 23.0872 0.926245 24.5654C1.00512 24.8243 1.23355 25 1.49214 25H27.5041C27.7627 25 27.9912 24.8243 28.07 24.5654C28.5188 23.0872 28.7472 21.5516 28.7472 20C28.7472 11.7291 22.3555 5 14.4981 5ZM25.7787 20.625H27.5186C27.4727 21.6821 27.3384 22.7313 27.0635 23.75H1.93275C1.65779 22.7312 1.52348 21.6821 1.47762 20.625H3.21756C3.54574 20.625 3.81129 20.3455 3.81129 20C3.81129 19.6545 3.54574 19.375 3.21756 19.375H1.46649C1.55448 17.3289 2.06094 15.3985 2.91076 13.6792L4.43163 14.6039C4.52559 14.6606 4.62761 14.6875 4.72847 14.6875C4.93257 14.6875 5.13318 14.5758 5.24216 14.375C5.4068 14.0759 5.3094 13.6938 5.02531 13.5211L3.50783 12.5985C4.5277 10.9263 5.87908 9.50381 7.46763 8.43025L8.34406 10.0287C8.45305 10.2289 8.6537 10.3412 8.85775 10.3412C8.95866 10.3412 9.06069 10.3143 9.15459 10.2576C9.43868 10.0848 9.53609 9.70273 9.37144 9.40367L8.49329 7.80219C10.1266 6.90746 11.9605 6.37426 13.9043 6.28162V8.12498C13.9043 8.47045 14.1699 8.75 14.4981 8.75C14.8262 8.75 15.0918 8.47045 15.0918 8.12498V6.28162C17.0356 6.37426 18.8695 6.90746 20.5028 7.80219L19.6247 9.40367C19.46 9.70273 19.5574 10.0848 19.8415 10.2576C19.9355 10.3143 20.0375 10.3412 20.1384 10.3412C20.3425 10.3412 20.5431 10.2288 20.652 10.0287L21.5285 8.43025C23.117 9.50381 24.4684 10.9263 25.4883 12.5985L23.9708 13.5211C23.6867 13.6938 23.5893 14.0759 23.7539 14.375C23.8629 14.5758 24.0636 14.6875 24.2676 14.6875C24.3685 14.6875 24.4706 14.6606 24.5645 14.6039L26.0853 13.6792C26.9352 15.3986 27.4416 17.3289 27.5296 19.375H25.7785C25.4504 19.375 25.1848 19.6545 25.1848 20C25.1849 20.3455 25.4505 20.625 25.7787 20.625Z" fill="#000"/>
</g>
<defs>
<clipPath id="clip0">
<rect width="28.4982" height="30" fill="white" transform="translate(0.249023)"/>
</clipPath>
</defs>
</svg>
