<svg width="16" height="16" viewBox="0 0 16 16" fill="none" xmlns="http://www.w3.org/2000/svg">
<path d="M10.085 0.372559H5.04249C3.20341 0.372559 1.64458 1.79099 0.765945 3.90278C0.765236 3.9044 0.764645 3.90603 0.763965 3.90765C0.277494 5.07882 0 6.46271 0 7.93628C0 12.0702 2.18258 15.5 5.04249 15.5H10.085C12.9449 15.5 15.1274 12.0702 15.1274 7.93628C15.1274 3.80235 12.9449 0.372559 10.085 0.372559ZM2.77724 12.9561C2.45791 12.5541 2.17578 12.07 1.94411 11.5213L2.30998 11.6711C2.43697 11.7231 2.57749 11.7323 2.71015 11.6972L5.45885 10.9695C5.45891 10.9697 5.45897 10.9699 5.45903 10.9701C5.47194 11.0149 5.48517 11.0595 5.49865 11.1039C5.50494 11.1246 5.51117 11.1454 5.51759 11.166C5.53463 11.2208 5.55213 11.2753 5.57003 11.3294C5.5729 11.3381 5.57561 11.3469 5.57851 11.3556C5.5994 11.418 5.62091 11.48 5.64292 11.5415C5.64927 11.5592 5.65583 11.5767 5.66227 11.5944C5.6784 11.6387 5.69477 11.6827 5.7115 11.7265C5.71941 11.7472 5.72742 11.7679 5.73546 11.7885C5.75203 11.8309 5.7689 11.873 5.78601 11.9149C5.79354 11.9334 5.80096 11.9519 5.80858 11.9702C5.83296 12.0288 5.85772 12.087 5.88316 12.1445C5.88336 12.145 5.88357 12.1455 5.88381 12.146C5.89539 12.1722 5.90738 12.198 5.91917 12.2239L2.77724 12.9561ZM2.56706 3.20071L3.33616 3.96982C3.48519 4.11885 3.69887 4.18352 3.90551 4.14219L5.87447 3.74825C5.8521 3.79922 5.83015 3.8506 5.80858 3.90239C5.80099 3.92068 5.79357 3.93915 5.78607 3.95753C5.76893 3.99948 5.75206 4.04164 5.73546 4.08413C5.72742 4.10472 5.71944 4.12532 5.71152 4.14603C5.6948 4.18982 5.6784 4.23393 5.66224 4.27828C5.65583 4.29588 5.64927 4.31338 5.64295 4.33107C5.62094 4.39259 5.5994 4.45455 5.57854 4.51706C5.57567 4.52566 5.57296 4.53444 5.57009 4.54306C5.55216 4.59722 5.53466 4.65173 5.51759 4.70663C5.51117 4.72725 5.50494 4.74802 5.49865 4.76876C5.48712 4.80667 5.47572 4.8447 5.46461 4.88293L3.36142 5.35271L2.09149 4.0243C2.23523 3.72633 2.39469 3.4509 2.56706 3.20071ZM2.69608 6.48091C2.84866 6.64052 3.07362 6.70862 3.2891 6.66049L5.16791 6.24082C5.16706 6.24653 5.16632 6.25232 5.16546 6.25802C5.16277 6.27613 5.16035 6.29439 5.15772 6.31253C5.15018 6.36495 5.14295 6.41751 5.13612 6.47031C5.13302 6.49433 5.13006 6.51844 5.12711 6.54255C5.12108 6.59183 5.11538 6.64129 5.10997 6.69087C5.10746 6.71403 5.10486 6.73713 5.10247 6.76033C5.09612 6.82214 5.09029 6.88415 5.08492 6.94641C5.08406 6.9563 5.08303 6.96614 5.08223 6.97604C5.07623 7.04801 5.07103 7.12031 5.06636 7.19285C5.06521 7.21099 5.06424 7.22922 5.06317 7.24739L2.7204 7.86259L1.36889 6.44889C1.42606 6.06263 1.50474 5.69089 1.60271 5.3372L2.69608 6.48091ZM2.06575 9.00214C2.22409 9.16778 2.45983 9.23443 2.68146 9.17623L5.05898 8.5519C5.06013 8.57346 5.06146 8.59494 5.0627 8.61648C5.06394 8.63755 5.065 8.65867 5.06636 8.67968C5.07103 8.75222 5.07623 8.82451 5.08223 8.89649C5.08306 8.90641 5.08409 8.91622 5.08492 8.92612C5.09027 8.98838 5.09612 9.05042 5.10247 9.1122C5.10486 9.13542 5.10746 9.15853 5.10997 9.18169C5.11538 9.23127 5.12105 9.28073 5.12711 9.32998C5.13006 9.35409 5.13302 9.3782 5.13612 9.40225C5.14295 9.45502 5.15018 9.50758 5.15772 9.56C5.16032 9.57817 5.16277 9.59643 5.16546 9.61454C5.17161 9.65587 5.17822 9.69694 5.18481 9.73801L2.59199 10.4244L1.46432 9.96265C1.34679 9.39637 1.27697 8.7924 1.26338 8.16287L2.06575 9.00214ZM7.27479 1.63319C7.26903 1.63895 7.26348 1.64504 7.25774 1.65083C7.2287 1.68017 7.19992 1.71001 7.17132 1.7402C7.16157 1.75049 7.15171 1.76056 7.14201 1.77096C7.10423 1.8115 7.06679 1.85277 7.02983 1.89482C7.02191 1.90383 7.01417 1.91311 7.00631 1.92218C6.97715 1.95577 6.94819 1.98975 6.91956 2.02426C6.90748 2.03879 6.89554 2.05354 6.88358 2.06825C6.85864 2.09889 6.83391 2.12985 6.80939 2.1612C6.79766 2.17621 6.78587 2.19116 6.77423 2.20635C6.75151 2.23595 6.72902 2.26597 6.70669 2.29617L3.98901 2.83993L3.41416 2.26508C3.9134 1.8598 4.46791 1.63325 5.04249 1.63325L7.27479 1.63319ZM7.27479 14.2394H5.04246C4.674 14.2394 4.3138 14.1459 3.9711 13.9723L6.44594 13.3956C6.48326 13.3869 6.51895 13.3749 6.55293 13.3602C6.55834 13.3682 6.56368 13.3762 6.56912 13.3841C6.60227 13.4324 6.63584 13.48 6.66987 13.5269C6.67708 13.5368 6.68444 13.5464 6.69168 13.5563C6.71892 13.5934 6.7464 13.63 6.77417 13.6662C6.78584 13.6815 6.79763 13.6965 6.80942 13.7115C6.83391 13.7428 6.85858 13.7737 6.88349 13.8043C6.89548 13.8191 6.90748 13.8338 6.91959 13.8484C6.94816 13.8829 6.97706 13.9168 7.00616 13.9503C7.01408 13.9594 7.02188 13.9688 7.02986 13.9778C7.06682 14.0199 7.1042 14.0611 7.14198 14.1016C7.15173 14.1121 7.16163 14.1222 7.17144 14.1325C7.19998 14.1627 7.2287 14.1925 7.25769 14.2217C7.26345 14.2275 7.26903 14.2336 7.27479 14.2394ZM10.085 14.2394C8.07135 14.2394 6.30309 11.4607 6.30309 7.93628C6.30309 7.10321 6.40201 6.31188 6.57949 5.58898C6.5831 5.57649 6.58623 5.56381 6.58906 5.55105C6.81116 4.66323 7.152 3.88 7.57436 3.25191C7.59019 3.23156 7.60491 3.21034 7.61814 3.18821C8.29129 2.21692 9.1623 1.63319 10.085 1.63319C12.0986 1.63319 13.8668 4.41188 13.8668 7.93628C13.8668 11.4607 12.0986 14.2394 10.085 14.2394Z" fill="white"/>
<path d="M10.0852 2.8938C8.54666 2.8938 7.56396 5.18688 7.56396 7.93629C7.56396 10.6857 8.54666 12.9788 10.0852 12.9788C11.6237 12.9788 12.6064 10.6857 12.6064 7.93629C12.6064 5.18685 11.6237 2.8938 10.0852 2.8938ZM10.843 10.8079C10.579 11.4238 10.2808 11.7181 10.0852 11.7181C9.88963 11.7181 9.59137 11.4238 9.3274 10.8079C9.01088 10.0693 8.82456 9.04139 8.82456 7.93629C8.82456 6.83119 9.01088 5.80329 9.3274 5.06471C9.59137 4.44879 9.88966 4.15443 10.0852 4.15443C10.2807 4.15443 10.579 4.44879 10.843 5.06471C11.1595 5.80329 11.3458 6.83119 11.3458 7.93629C11.3458 9.04139 11.1595 10.0693 10.843 10.8079Z" fill="white"/>
<path d="M2.72314 2.49048L3.93334 3.5494L6.35373 2.9443" stroke="#FF2946" stroke-width="1.57"/>
<path d="M1.81543 4.6084L3.1769 6.12114L5.29474 5.51605" stroke="#FF2946" stroke-width="1.57"/>
<path d="M1.05908 7.02881L2.57183 8.54155L4.99222 7.93646" stroke="#FF2946" stroke-width="1.57"/>
</svg>
