<svg width="22" height="22" viewBox="0 0 22 22" fill="none" xmlns="http://www.w3.org/2000/svg">
<path d="M20.6259 10.3627H8.93099C8.57874 10.3627 8.29053 10.6509 8.29053 11.0031C8.29053 11.3554 8.57874 11.6436 8.93099 11.6436H20.6259C20.9781 11.6436 21.2663 11.3554 21.2663 11.0031C21.2663 10.6509 20.9845 10.3627 20.6259 10.3627Z" fill="white"/>
<path d="M3.71108 8.02502C2.06508 8.02502 0.73291 9.35719 0.73291 11.0032C0.73291 12.6492 2.06508 13.9814 3.71108 13.9814C5.35707 13.9814 6.68924 12.6492 6.68924 11.0032C6.68924 9.35719 5.35707 8.02502 3.71108 8.02502ZM3.71108 12.7004C2.76959 12.7004 2.01384 11.9383 2.01384 11.0032C2.01384 10.0617 2.776 9.30596 3.71108 9.30596C4.64616 9.30596 5.40831 10.0681 5.40831 11.0032C5.40831 11.9383 4.64616 12.7004 3.71108 12.7004Z" fill="white"/>
<path d="M20.6259 2.35681H8.93099C8.57874 2.35681 8.29053 2.64502 8.29053 2.99728C8.29053 3.34953 8.57874 3.63774 8.93099 3.63774H20.6259C20.9781 3.63774 21.2663 3.34953 21.2663 2.99728C21.2663 2.64502 20.9845 2.35681 20.6259 2.35681Z" fill="white"/>
<path d="M3.71108 0C2.06508 0 0.73291 1.33217 0.73291 2.97817C0.73291 4.62416 2.06508 5.95633 3.71108 5.95633C5.35707 5.95633 6.68924 4.62416 6.68924 2.97817C6.68924 1.33857 5.35707 0.00640466 3.71108 0ZM3.71108 4.6818C2.76959 4.6818 2.01384 3.91965 2.01384 2.98457C2.01384 2.04949 2.776 1.28734 3.71108 1.28734C4.65256 1.28734 5.40831 2.04949 5.40831 2.98457C5.40831 3.91965 4.64616 4.6818 3.71108 4.6818Z" fill="white"/>
<path d="M20.6259 18.3685H8.93099C8.57874 18.3685 8.29053 18.6567 8.29053 19.009C8.29053 19.3613 8.57874 19.6495 8.93099 19.6495H20.6259C20.9781 19.6495 21.2663 19.3613 21.2663 19.009C21.2663 18.6567 20.9845 18.3685 20.6259 18.3685Z" fill="white"/>
<path d="M3.71108 16.0437C2.06508 16.0437 0.73291 17.3759 0.73291 19.0219C0.73291 20.6679 2.06508 22 3.71108 22C5.35707 22 6.68924 20.6679 6.68924 19.0219C6.68924 17.3823 5.35707 16.0437 3.71108 16.0437ZM3.71108 20.7255C2.76959 20.7255 2.01384 19.9634 2.01384 19.0283C2.01384 18.0868 2.776 17.331 3.71108 17.331C4.65256 17.331 5.40831 18.0932 5.40831 19.0283C5.40831 19.9634 4.64616 20.7255 3.71108 20.7255Z" fill="white"/>
</svg>
