<svg width="28" height="28" viewBox="0 0 28 28" fill="none" xmlns="http://www.w3.org/2000/svg">
<path d="M26.2513 13.189H11.3669C10.9186 13.189 10.5518 13.5558 10.5518 14.0041C10.5518 14.4524 10.9186 14.8192 11.3669 14.8192H26.2513C26.6996 14.8192 27.0664 14.4524 27.0664 14.0041C27.0664 13.5558 26.7078 13.189 26.2513 13.189Z" fill="#FF2946"/>
<path d="M4.7235 10.2136C2.62859 10.2136 0.933105 11.9091 0.933105 14.004C0.933105 16.0989 2.62859 17.7944 4.7235 17.7944C6.8184 17.7944 8.51389 16.0989 8.51389 14.004C8.51389 11.9091 6.8184 10.2136 4.7235 10.2136ZM4.7235 16.1641C3.52524 16.1641 2.56338 15.1941 2.56338 14.004C2.56338 12.8058 3.5334 11.8439 4.7235 11.8439C5.9136 11.8439 6.88361 12.8139 6.88361 14.004C6.88361 15.1941 5.9136 16.1641 4.7235 16.1641Z" fill="#FF2946"/>
<path d="M26.2513 2.99963H11.3669C10.9186 2.99963 10.5518 3.36645 10.5518 3.81477C10.5518 4.2631 10.9186 4.62991 11.3669 4.62991H26.2513C26.6996 4.62991 27.0664 4.2631 27.0664 3.81477C27.0664 3.36645 26.7078 2.99963 26.2513 2.99963Z" fill="#FF2946"/>
<path d="M4.7235 0C2.62859 0 0.933105 1.69549 0.933105 3.79039C0.933105 5.8853 2.62859 7.58079 4.7235 7.58079C6.8184 7.58079 8.51389 5.8853 8.51389 3.79039C8.51389 1.70364 6.8184 0.00815138 4.7235 0ZM4.7235 5.95866C3.52524 5.95866 2.56338 4.98865 2.56338 3.79854C2.56338 2.60844 3.5334 1.63843 4.7235 1.63843C5.92175 1.63843 6.88361 2.60844 6.88361 3.79854C6.88361 4.98865 5.9136 5.95866 4.7235 5.95866Z" fill="#FF2946"/>
<path d="M26.2513 23.3781H11.3669C10.9186 23.3781 10.5518 23.7449 10.5518 24.1932C10.5518 24.6415 10.9186 25.0083 11.3669 25.0083H26.2513C26.6996 25.0083 27.0664 24.6415 27.0664 24.1932C27.0664 23.7449 26.7078 23.3781 26.2513 23.3781Z" fill="#FF2946"/>
<path d="M4.7235 20.4192C2.62859 20.4192 0.933105 22.1147 0.933105 24.2096C0.933105 26.3045 2.62859 28 4.7235 28C6.8184 28 8.51389 26.3045 8.51389 24.2096C8.51389 22.1228 6.8184 20.4192 4.7235 20.4192ZM4.7235 26.3778C3.52524 26.3778 2.56338 25.4078 2.56338 24.2177C2.56338 23.0195 3.5334 22.0576 4.7235 22.0576C5.92175 22.0576 6.88361 23.0276 6.88361 24.2177C6.88361 25.4078 5.9136 26.3778 4.7235 26.3778Z" fill="#FF2946"/>
</svg>
