<svg width="54" height="54" viewBox="0 0 54 54" fill="none" xmlns="http://www.w3.org/2000/svg">
<g clip-path="url(#clip0_8944_4954)">
<path d="M52.3163 13.0675L46.8332 7.58441C44.586 5.33726 40.9905 5.33726 38.7433 7.58441L27.777 18.4608C25.5298 20.7079 25.5298 24.3035 27.777 26.5507L27.8394 26.6131L22.2039 32.6631C22.0241 32.9327 21.9342 33.2024 22.0241 33.4721L22.4736 35.5395L20.4061 35.09C20.1365 35.09 19.7769 35.1799 19.5971 35.3597L14.3837 40.5731C14.114 40.753 14.0242 41.1125 14.114 41.3821L14.3837 42.3709L13.3949 42.1911C13.1252 42.1911 12.7657 42.281 12.5859 42.4608L12.1364 42.9103C10.1589 44.7979 8.81061 47.2249 8.18133 49.8316C8.00152 50.4608 8.27118 51.18 8.72065 51.6294C9.08017 51.9889 9.52964 52.1688 10.069 52.1688C10.1588 52.1688 10.3386 52.1688 10.4285 52.1688C13.0353 51.4496 15.4622 50.1013 17.3499 48.2137L21.215 44.3485C21.4847 44.1687 21.5745 43.8092 21.4847 43.5395L21.3049 42.5507L22.2937 42.7306C22.5633 42.8204 22.9228 42.6407 23.1026 42.4609L33.2232 31.9972L33.2599 32.0339C34.3385 33.1125 35.7767 33.7417 37.3048 33.7417C38.8329 33.7417 40.2711 33.1125 41.3498 32.1237L52.3163 21.1574C54.5635 18.9103 54.5635 15.3148 52.3163 13.0675ZM22.1141 40.8428L20.3163 40.4833C20.0466 40.4833 19.6871 40.5731 19.5073 40.753C19.2376 40.9328 19.1478 41.2923 19.2376 41.5619L19.5971 43.3597L16.0915 46.8653C14.3837 48.5732 12.3162 49.8316 9.97912 50.371C9.97912 50.371 9.97912 50.4608 9.88926 50.371C9.88926 50.2811 9.88926 50.2811 9.88926 50.1912C10.5184 47.854 11.6871 45.7867 13.3949 44.0788L13.4848 43.9889L15.1927 44.3484C15.4623 44.3484 15.8218 44.2586 16.0017 44.0788C16.2713 43.899 16.3612 43.5394 16.2713 43.2698L15.9118 41.472L20.4961 36.8877L23.4624 37.5169C23.732 37.5169 24.0915 37.427 24.2714 37.2472C24.541 37.0674 24.6309 36.7079 24.541 36.4382L23.9118 33.472L29.1253 27.8989L31.9118 30.6854L22.1141 40.8428ZM51.0578 19.8091L40.0916 30.7754C39.2826 31.4946 38.3838 31.9439 37.3051 31.9439C36.2265 31.9439 35.2377 31.4945 34.5187 30.7754L29.0355 25.2923C27.5074 23.7642 27.5074 21.3372 29.0355 19.8092L40.0017 8.93273C40.8106 8.12374 41.7994 7.76423 42.7881 7.76423C43.7769 7.76423 44.7656 8.12374 45.5746 8.75302L51.0577 14.2361C51.7769 15.0451 52.2262 15.944 52.2262 17.0226C52.2264 18.1013 51.777 19.0901 51.0578 19.8091Z" fill="#000"/>
<path d="M44.5847 12.1687C43.506 11.0901 41.7982 11.0901 40.7195 12.1687L39.9106 12.9777C39.3712 13.517 39.1016 14.2362 39.1016 14.9552C39.1016 15.7642 39.3712 16.3934 39.9106 16.9327L42.787 19.8091C43.3263 20.3485 44.0455 20.6181 44.7645 20.6181C45.5735 20.6181 46.2026 20.3485 46.742 19.8091L47.4611 18.9103C48.5398 17.8317 48.5398 16.1238 47.4611 15.0452L44.5847 12.1687ZM46.3825 17.7418L45.5735 18.5508C45.214 18.9103 44.5847 18.9103 44.2252 18.5508L41.3487 15.6743C40.9892 15.3148 40.9892 14.6855 41.3487 14.326L42.1577 13.517C42.3375 13.3372 42.5172 13.2474 42.7869 13.2474C42.9667 13.2474 43.2364 13.3372 43.4161 13.517L46.3824 16.3935C46.742 16.753 46.742 17.3822 46.3825 17.7418Z" fill="#000"/>
<path d="M27.8651 3.62935C28.4045 3.62935 28.764 3.26983 28.764 2.73051C28.764 2.19118 28.4045 1.83167 27.8651 1.83167C12.2247 1.83167 0 14.5058 0 30.5956C0 31.135 0.359515 31.4945 0.898841 31.4945C1.43817 31.4945 1.79768 31.135 1.79768 30.5956C1.79779 15.4945 13.2135 3.62935 27.8651 3.62935Z" fill="#000"/>
<path d="M27.8669 8.12373C28.4062 8.12373 28.7658 7.76422 28.7658 7.22489C28.7658 6.68556 28.4062 6.32605 27.8669 6.32605C14.7433 6.32605 4.49609 17.0227 4.49609 30.5957C4.49609 31.135 4.85561 31.4946 5.39494 31.4946C5.93426 31.4946 6.29378 31.135 6.29378 30.5957C6.29388 18.0114 15.7321 8.12373 27.8669 8.12373Z" fill="#000"/>
<path d="M27.8647 10.8204C17.4377 10.8204 8.98828 19.7193 8.98828 30.5957C8.98828 31.135 9.3478 31.4945 9.88712 31.4945C10.4264 31.4945 10.786 31.135 10.786 30.5957C10.786 20.708 18.4264 12.6181 27.8646 12.6181C28.4039 12.6181 28.7634 12.2586 28.7634 11.7193C28.7636 11.1799 28.404 10.8204 27.8647 10.8204Z" fill="#000"/>
</g>
<defs>
<clipPath id="clip0_8944_4954">
<rect width="54" height="54" fill="white"/>
</clipPath>
</defs>
</svg>
