<svg width="53" height="53" viewBox="0 0 53 53" fill="none" xmlns="http://www.w3.org/2000/svg">
<path d="M13.2843 16.3012H39.7172C40.4136 16.3012 40.9783 15.7365 40.9783 15.0403C40.9783 14.3438 40.4136 13.7792 39.7172 13.7792H13.2843C12.5879 13.7792 12.0234 14.3438 12.0234 15.0403C12.0234 15.7365 12.5881 16.3012 13.2843 16.3012Z" fill="#000"/>
<path d="M13.2843 9.73578H39.7172C40.4136 9.73578 40.9783 9.17112 40.9783 8.4747C40.9783 7.77829 40.4136 7.21362 39.7172 7.21362H13.2843C12.5879 7.21362 12.0234 7.77829 12.0234 8.4747C12.0234 9.17112 12.5881 9.73578 13.2843 9.73578Z" fill="#000"/>
<path d="M44.7475 0H8.25327C7.55685 0 6.99219 0.564663 6.99219 1.2609V51.7389C6.99219 52.4353 7.55685 53 8.25327 53H44.7475C45.4439 53 46.0086 52.4353 46.0086 51.7389V1.2609C46.0086 0.564663 45.4439 0 44.7475 0ZM43.4865 50.478H21.647L26.1005 46.0249C26.5928 45.5324 26.5928 44.7339 26.1005 44.2414C25.6079 43.749 24.8097 43.749 24.3169 44.2414L18.0803 50.478H11.2951L17.3887 44.3844C17.8812 43.8919 17.8812 43.0934 17.3888 42.6009C16.8963 42.1085 16.0979 42.1085 15.6055 42.6009L9.51435 48.692V41.7261L15.7281 35.5125C16.2205 35.02 16.2205 34.2215 15.7281 33.729C15.2356 33.2366 14.4373 33.2366 13.9446 33.729L9.51417 38.1594V2.52216H43.4865V50.478Z" fill="#B2B4B7"/>
<path d="M13.2843 22.8668H39.7172C40.4136 22.8668 40.9783 22.3021 40.9783 21.6057C40.9783 20.9093 40.4136 20.3446 39.7172 20.3446H13.2843C12.5879 20.3446 12.0234 20.9093 12.0234 21.6057C12.0234 22.3021 12.5881 22.8668 13.2843 22.8668Z" fill="#000"/>
<path d="M34.2836 31.0667C31.3077 31.0667 28.8867 33.4877 28.8867 36.4635C28.8867 39.4393 31.3077 41.8603 34.2836 41.8603C37.2594 41.8603 39.6804 39.4393 39.6804 36.4635C39.6804 33.4877 37.2594 31.0667 34.2836 31.0667ZM34.2836 39.3695C32.6812 39.3695 31.3776 38.0658 31.3776 36.4635C31.3776 34.8611 32.6812 33.5575 34.2836 33.5575C35.8859 33.5575 37.1895 34.8611 37.1895 36.4635C37.1895 38.0658 35.8859 39.3695 34.2836 39.3695Z" fill="#000"/>
</svg>
