<svg width="34" height="35" viewBox="0 0 34 35" fill="none" xmlns="http://www.w3.org/2000/svg">
<g clip-path="url(#clip0)">
<path d="M33.2797 15.5213L33.189 14.9596H29.4208L29.5409 15.7087C29.7919 17.2945 29.9511 18.9389 30.0155 20.6048H27.9096V14.9596C27.9096 14.0259 27.1878 13.2661 26.3008 13.2661H25.2283C24.9323 13.2661 24.6921 13.0126 24.6921 12.7016V11.5725C24.6921 10.6388 23.9703 9.87899 23.0833 9.87899H18.7932V8.18544H25.2283V4.79834H9.14064V8.18544H15.5757V9.87899H11.9485C11.335 9.87899 10.7837 10.2375 10.5092 10.815L10.0292 11.8249C9.93805 12.0174 9.75465 12.1371 9.55034 12.1371H6.99562C6.10865 12.1371 5.38685 12.8969 5.38685 13.8306V17.7822H3.77808V13.2661H0.560547V25.6854H3.77808V21.1693H5.38685V25.6854C5.38685 26.6191 6.10865 27.379 6.99562 27.379H9.76913C9.91017 27.379 10.0485 27.4394 10.1483 27.5444L12.2011 29.7054C12.5046 30.0254 12.9089 30.2016 13.3385 30.2016H26.3008C27.1878 30.2016 27.9096 29.4417 27.9096 28.508V23.9919H30.0149C29.9608 25.3089 29.8471 26.6146 29.6744 27.8808L29.4363 29.6371H33.2014L33.418 28.0406C33.677 26.1297 33.8084 24.1821 33.8084 22.2521C33.8084 20.0036 33.6304 17.7393 33.2797 15.5213ZM5.38685 20.0403H2.70557V24.5564H1.63306V14.3951H2.70557V18.9112H5.38685V20.0403ZM10.2132 7.0564V5.92737H24.1558V7.0564H17.7207V9.87899H16.6482V7.0564H10.2132ZM8.60439 26.25H6.99562C6.6996 26.25 6.45936 25.9965 6.45936 25.6854V13.8306C6.45936 13.5196 6.6996 13.2661 6.99562 13.2661H8.60439V16.0887H10.7494C11.0454 16.0887 11.2857 16.3421 11.2857 16.6532V22.2983C11.2857 22.6094 11.0454 22.8629 10.7494 22.8629H8.60439V26.25ZM13.9669 29.0725H13.3385C13.1974 29.0725 13.0596 29.0121 12.9593 28.9071L10.9065 26.7462C10.603 26.4261 10.1987 26.25 9.76913 26.25H9.6769V23.9919H10.7494C11.6364 23.9919 12.3582 23.2321 12.3582 22.2983V16.6532C12.3582 15.7195 11.6364 14.9596 10.7494 14.9596H9.6769V13.257C10.2384 13.2113 10.7339 12.8675 10.9891 12.3301L11.4691 11.3202C11.5608 11.1277 11.7442 11.008 11.9485 11.008H13.9669V29.0725ZM18.257 29.0725H17.1845V26.8145H16.112V29.0725H15.0395V22.8629H16.112V25.6854H17.1845V22.8629H18.257V29.0725ZM20.402 29.0725H19.3295V22.8629H20.402V29.0725ZM22.547 29.0725H21.4745V22.8629H22.547V29.0725ZM26.8371 28.508C26.8371 28.8191 26.5968 29.0725 26.3008 29.0725H25.7646V25.1209H24.6921V29.0725H23.6196V22.8629H24.6921V23.9919H25.7646V22.8629H26.8371V28.508ZM26.8371 21.7338H15.0395V20.6048H26.8371V21.7338ZM19.3295 19.4758V17.2177H22.547V19.4758H19.3295ZM26.8371 19.4758H23.6196V16.0887H18.257V19.4758H15.0395V14.3951H22.547V13.2661H15.0395V11.008H23.0833C23.3793 11.008 23.6196 11.2615 23.6196 11.5725V12.7016C23.6196 13.6353 24.3414 14.3951 25.2283 14.3951H26.3008C26.5968 14.3951 26.8371 14.6486 26.8371 14.9596V19.4758ZM32.3557 27.8808L32.271 28.508H30.6735L30.7367 28.0406C30.9394 26.5469 31.0639 25.0001 31.1073 23.4437L31.1228 22.8629H27.9096V21.7338H31.1202L31.1057 21.1541C31.0622 19.4357 30.9201 17.7348 30.6836 16.0887H32.2801C32.5825 18.1226 32.7359 20.1938 32.7359 22.2521C32.7359 24.1291 32.6083 26.023 32.3557 27.8808Z" fill="#000"/>
<path d="M9.677 18.9114H8.60449V20.0404H9.677V18.9114Z" fill="#000"/>
<path d="M17.1848 17.2178H16.1123V18.3468H17.1848V17.2178Z" fill="#000"/>
<path d="M25.7649 17.2178H24.6924V18.3468H25.7649V17.2178Z" fill="#000"/>
</g>
<defs>
<clipPath id="clip0">
<rect width="33.2479" height="35" fill="white" transform="translate(0.560547)"/>
</clipPath>
</defs>
</svg>
