<svg width="29" height="30" viewBox="0 0 29 30" fill="none" xmlns="http://www.w3.org/2000/svg">
<g clip-path="url(#clip0)">
<path d="M23.3724 3.5H20.9947C19.9749 1.2725 18.5168 0 16.9603 0C15.3957 0 13.9305 1.286 12.9102 3.5355C10.2575 3.89 8.17336 7.1 8.17336 11C8.14287 12.8376 8.64723 14.641 9.61869 16.168C9.078 16.9419 8.67991 17.8157 8.44504 18.744C8.33532 19.1875 8.25505 19.6405 8.17383 20.079C8.07884 20.609 7.98385 21.1145 7.84658 21.603C3.93806 21.97 0.098877 23.371 0.098877 25.75C0.098877 28.173 4.3869 30 10.0732 30C15.7596 30 20.0476 28.173 20.0476 25.75C20.0476 23.6645 16.8078 21.984 12.1156 21.59C12.1598 21.251 12.2191 20.909 12.279 20.5715L12.3203 20.3395C12.4294 19.6959 12.5861 19.0623 12.7891 18.4445C12.9904 18.4797 13.194 18.4983 13.398 18.5H23.3724C26.2531 18.5 28.597 15.1355 28.597 11C28.597 6.8645 26.2531 3.5 23.3724 3.5ZM16.9603 1C18.0432 1 19.1024 1.9 19.9293 3.5H13.9922C14.8182 1.9 15.8774 1 16.9603 1ZM13.398 4.5C15.7553 4.5 17.6727 7.416 17.6727 11C17.6727 14.584 15.7553 17.5 13.398 17.5C13.322 17.5 13.246 17.497 13.1705 17.4905C13.1805 17.4695 13.1905 17.4485 13.2009 17.4275C13.4917 16.8957 13.9267 16.4672 14.4501 16.197C14.794 15.9894 15.0997 15.7184 15.3525 15.397C15.3681 15.3814 15.3827 15.3646 15.3962 15.347C15.4804 15.2403 15.561 15.1285 15.638 15.0115C16.2069 14.1103 16.5583 13.0766 16.6615 12V11.992C16.7028 11.6631 16.7232 11.3317 16.7228 11C16.7228 7.71 15.0039 5.5 13.398 5.5C11.7922 5.5 10.0732 7.71 10.0732 11C10.0532 12.2696 10.3491 13.5226 10.9315 14.6345C10.878 14.6855 10.8251 14.7367 10.7729 14.788C10.7292 14.831 10.6874 14.874 10.6446 14.9175C10.5292 15.0355 10.4181 15.1545 10.3121 15.276C10.2884 15.3025 10.2618 15.326 10.2385 15.355C9.49076 14.0401 9.10467 12.5324 9.1233 11C9.1233 7.416 11.0407 4.5 13.398 4.5ZM11.6853 14C11.2344 13.0722 11.007 12.042 11.0232 11C11.0232 8.212 12.4063 6.5 13.398 6.5C14.3898 6.5 15.7729 8.212 15.7729 11C15.7736 11.2936 15.7557 11.5869 15.7192 11.878C15.7078 11.9825 15.6836 12.0805 15.6679 12.1825C15.5183 12.2355 15.3725 12.2875 15.2115 12.3425C13.9639 12.7063 12.7753 13.265 11.6853 14ZM19.0977 25.75C19.0977 27.287 15.3929 29 10.0732 29C4.75358 29 1.04882 27.287 1.04882 25.75C1.04882 24.5435 3.42699 23.11 7.45188 22.646C7.42243 22.7035 7.39678 22.765 7.36543 22.8205C6.98767 23.6002 6.20316 24.066 5.37389 24.003C5.24838 23.9873 5.12218 24.0256 5.02384 24.1092C4.92549 24.1928 4.86333 24.3145 4.85142 24.447C4.82371 24.7215 5.0125 24.9676 5.27319 24.997C5.37872 25.0092 5.4848 25.0152 5.59095 25.015C6.68235 24.9931 7.67585 24.3474 8.18333 23.33C8.37715 22.9829 8.53556 22.6152 8.65593 22.233V22.2295C8.84965 21.5878 8.99996 20.9325 9.10572 20.2685C9.18552 19.8265 9.26104 19.4095 9.36316 18.998C9.59371 18.0792 10.0058 17.2218 10.5724 16.482C10.9522 15.9819 11.3806 15.5249 11.8506 15.1185C12.9169 14.2987 14.1178 13.693 15.3929 13.332C15.3824 13.3615 15.3763 13.395 15.3653 13.424C15.3544 13.453 15.3387 13.481 15.3269 13.5115C15.2524 13.7105 15.1661 13.9044 15.0685 14.092C15.0238 14.1755 14.9687 14.2455 14.9198 14.324C14.8476 14.441 14.7773 14.5635 14.6994 14.6685L14.6937 14.6745L14.6885 14.6805C14.6789 14.6902 14.6697 14.7004 14.661 14.711C14.4748 14.9569 14.2469 15.1642 13.9889 15.3225C13.3009 15.6858 12.7328 16.2586 12.3583 16.9665C12.2486 17.1875 12.1441 17.428 12.0463 17.6815C11.7477 18.481 11.5271 19.3105 11.388 20.157L11.3471 20.387C11.0757 21.4696 11.0401 22.6029 11.2431 23.702C11.4402 24.5246 12.0143 25.1894 12.7734 25.474C13.0226 25.5613 13.2919 25.4193 13.3747 25.157C13.4576 24.8947 13.3228 24.6113 13.0736 24.524C12.6177 24.3415 12.276 23.9351 12.1593 23.4365C12.0907 23.1589 12.0553 22.8733 12.0539 22.5865C16.4146 22.959 19.0977 24.487 19.0977 25.75ZM23.3724 17.5H15.9933C17.5621 16.2045 18.6227 13.779 18.6227 11C18.6227 8.221 17.5621 5.7955 15.9933 4.5H20.3767C20.991 6.12981 21.3468 7.85478 21.4298 9.606C20.7792 9.86899 20.4035 10.5873 20.5401 11.3066C20.6767 12.0259 21.2859 12.5369 21.9825 12.5163C22.6791 12.4958 23.2602 11.9498 23.3584 11.2235C23.4565 10.4973 23.0432 9.80226 22.3797 9.578C22.2967 7.84348 21.9674 6.13183 21.4027 4.5H23.3724C25.7297 4.5 27.6471 7.416 27.6471 11C27.6471 14.584 25.7297 17.5 23.3724 17.5ZM21.9475 10.5C22.2098 10.5 22.4224 10.7239 22.4224 11C22.4224 11.2761 22.2098 11.5 21.9475 11.5C21.6852 11.5 21.4725 11.2761 21.4725 11C21.4725 10.7239 21.6852 10.5 21.9475 10.5Z" fill="#000"/>
<path d="M10.4958 27.0031C6.45567 27.4756 4.16441 26.0846 4.14161 26.0706C3.91686 25.9329 3.62875 26.0111 3.49522 26.246C3.36168 26.4809 3.43238 26.7851 3.65382 26.9286C3.74169 26.9841 5.55607 28.1026 8.82529 28.1026C9.41834 28.102 10.0109 28.0668 10.6003 27.9971C10.7689 27.9774 10.9148 27.8645 10.983 27.7009C11.0512 27.5373 11.0312 27.3479 10.9307 27.2039C10.8302 27.06 10.6644 26.9834 10.4958 27.0031Z" fill="#000"/>
</g>
<defs>
<clipPath id="clip0">
<rect width="28.4982" height="30" fill="white" transform="translate(0.098877)"/>
</clipPath>
</defs>
</svg>
