<svg width="38" height="53" viewBox="0 0 38 53" fill="none" xmlns="http://www.w3.org/2000/svg">
<g clip-path="url(#clip0_8944_5030)">
<path fill-rule="evenodd" clip-rule="evenodd" d="M7.09245 2.9645C4.88325 2.9645 3.09245 4.73412 3.09245 6.91704V41.1724C3.09245 43.3554 4.88325 45.1249 7.09245 45.1249H20.4258V47.76H7.09245C3.41058 47.76 0.425781 44.8106 0.425781 41.1724V6.91704C0.425781 3.27883 3.41058 0.329468 7.09245 0.329468H31.0924C34.7743 0.329468 37.7591 3.27883 37.7591 6.91704V41.1724C37.7591 44.8106 34.7743 47.76 31.0924 47.76H28.4258V45.1249H31.0924C33.3016 45.1249 35.0924 43.3554 35.0924 41.1724V6.91704C35.0924 4.73412 33.3016 2.9645 31.0924 2.9645H7.09245Z" fill="#000"/>
<path fill-rule="evenodd" clip-rule="evenodd" d="M11.0938 9.55201C11.0938 8.82435 11.6907 8.2345 12.4271 8.2345H25.7604C26.4968 8.2345 27.0937 8.82435 27.0937 9.55201C27.0937 10.2797 26.4968 10.8695 25.7604 10.8695H12.4271C11.6907 10.8695 11.0938 10.2797 11.0938 9.55201Z" fill="#000"/>
<path fill-rule="evenodd" clip-rule="evenodd" d="M5.76562 17.457C5.76562 16.7294 6.36256 16.1395 7.09896 16.1395H31.099C31.8354 16.1395 32.4323 16.7294 32.4323 17.457C32.4323 18.1847 31.8354 18.7746 31.099 18.7746H7.09896C6.36256 18.7746 5.76562 18.1847 5.76562 17.457Z" fill="#000"/>
<path fill-rule="evenodd" clip-rule="evenodd" d="M5.76562 22.7271C5.76562 21.9994 6.36256 21.4095 7.09896 21.4095H31.099C31.8354 21.4095 32.4323 21.9994 32.4323 22.7271C32.4323 23.4547 31.8354 24.0446 31.099 24.0446H7.09896C6.36256 24.0446 5.76562 23.4547 5.76562 22.7271Z" fill="#000"/>
<path fill-rule="evenodd" clip-rule="evenodd" d="M5.76562 27.9971C5.76562 27.2694 6.36256 26.6796 7.09896 26.6796H31.099C31.8354 26.6796 32.4323 27.2694 32.4323 27.9971C32.4323 28.7247 31.8354 29.3146 31.099 29.3146H7.09896C6.36256 29.3146 5.76562 28.7247 5.76562 27.9971Z" fill="#000"/>
<path fill-rule="evenodd" clip-rule="evenodd" d="M24.4271 42.4898C25.8999 42.4898 27.0938 41.3101 27.0938 39.8548C27.0938 38.3994 25.8999 37.2197 24.4271 37.2197C22.9543 37.2197 21.7604 38.3994 21.7604 39.8548C21.7604 41.3101 22.9543 42.4898 24.4271 42.4898ZM24.4271 45.1248C27.3726 45.1248 29.7604 42.7653 29.7604 39.8548C29.7604 36.9443 27.3726 34.5847 24.4271 34.5847C21.4816 34.5847 19.0938 36.9443 19.0938 39.8548C19.0938 42.7653 21.4816 45.1248 24.4271 45.1248Z" fill="#000"/>
<path fill-rule="evenodd" clip-rule="evenodd" d="M24.4297 48.3897L25.763 48.9753V45.1249H23.0964V48.9753L24.4297 48.3897ZM20.4297 53.03V42.4899H28.4297V53.03L24.4297 51.2733L20.4297 53.03Z" fill="#000"/>
</g>
<defs>
<clipPath id="clip0_8944_5030">
<rect width="38" height="53" fill="white"/>
</clipPath>
</defs>
</svg>
