<svg width="19" height="18" viewBox="0 0 19 18" fill="none" xmlns="http://www.w3.org/2000/svg">
<path d="M10.4844 13.2656C10.4844 13.4603 10.4266 13.6506 10.3185 13.8125C10.2103 13.9744 10.0566 14.1006 9.87671 14.1751C9.69684 14.2496 9.49891 14.2691 9.30796 14.2311C9.11701 14.1931 8.94161 14.0993 8.80395 13.9617C8.66628 13.824 8.57253 13.6486 8.53454 13.4577C8.49656 13.2667 8.51605 13.0688 8.59056 12.8889C8.66506 12.7091 8.79123 12.5553 8.95311 12.4471C9.11499 12.339 9.30531 12.2812 9.5 12.2812C9.76108 12.2812 10.0115 12.385 10.1961 12.5696C10.3807 12.7542 10.4844 13.0046 10.4844 13.2656ZM9.5 4.40625C7.69039 4.40625 6.21875 5.73105 6.21875 7.35938V7.6875C6.21875 7.86155 6.28789 8.02847 6.41096 8.15154C6.53404 8.27461 6.70096 8.34375 6.875 8.34375C7.04905 8.34375 7.21597 8.27461 7.33904 8.15154C7.46211 8.02847 7.53125 7.86155 7.53125 7.6875V7.35938C7.53125 6.45703 8.41473 5.71875 9.5 5.71875C10.5853 5.71875 11.4688 6.45703 11.4688 7.35938C11.4688 8.26172 10.5853 9 9.5 9C9.32596 9 9.15904 9.06914 9.03596 9.19221C8.91289 9.31528 8.84375 9.4822 8.84375 9.65625V10.3125C8.84375 10.4865 8.91289 10.6535 9.03596 10.7765C9.15904 10.8996 9.32596 10.9688 9.5 10.9688C9.67405 10.9688 9.84097 10.8996 9.96404 10.7765C10.0871 10.6535 10.1563 10.4865 10.1563 10.3125V10.2534C11.6525 9.97863 12.7813 8.78508 12.7813 7.35938C12.7813 5.73105 11.3096 4.40625 9.5 4.40625ZM18.0313 9C18.0313 10.6873 17.5309 12.3368 16.5935 13.7397C15.6561 15.1427 14.3237 16.2361 12.7648 16.8818C11.2059 17.5276 9.49054 17.6965 7.83564 17.3673C6.18074 17.0381 4.66062 16.2256 3.4675 15.0325C2.27438 13.8394 1.46186 12.3193 1.13268 10.6644C0.803499 9.00946 0.972446 7.29411 1.61816 5.73523C2.26387 4.17635 3.35734 2.84395 4.7603 1.90652C6.16325 0.969099 7.81268 0.46875 9.5 0.46875C11.7619 0.471139 13.9305 1.37073 15.5299 2.97013C17.1293 4.56954 18.0289 6.7381 18.0313 9ZM16.7188 9C16.7188 7.57227 16.2954 6.17659 15.5022 4.98948C14.709 3.80236 13.5816 2.87711 12.2625 2.33074C10.9434 1.78437 9.492 1.64142 8.0917 1.91996C6.6914 2.19849 5.40514 2.88601 4.39558 3.89557C3.38602 4.90513 2.6985 6.19139 2.41996 7.59169C2.14142 8.99199 2.28438 10.4434 2.83075 11.7625C3.37712 13.0816 4.30236 14.209 5.48948 15.0022C6.6766 15.7954 8.07227 16.2188 9.5 16.2188C11.4139 16.2166 13.2487 15.4553 14.602 14.102C15.9553 12.7487 16.7166 10.9139 16.7188 9Z" fill="#1A7CE4"/>
</svg>
