<svg width="24" height="19" viewBox="0 0 24 19" fill="none" xmlns="http://www.w3.org/2000/svg">
<path id="tachometer-fastest" d="M18.4583 11.2388L14.2083 12.0871C13.7083 11.3661 12.9167 10.8571 12 10.8571C10.5 10.8571 9.33333 12.0871 9.33333 13.5714C9.33333 14.0804 9.45833 14.5469 9.66667 14.9286H14.2917C14.4167 14.6741 14.5 14.4196 14.5833 14.1228L18.8333 13.2321C19.375 13.1049 19.75 12.596 19.625 12.0446C19.5 11.4933 19 11.1116 18.4583 11.2388ZM12 0C5.33333 0 0 5.47098 0 12.2143C0 14.4621 0.583333 16.5826 1.625 18.3638C1.83333 18.7879 2.29167 19 2.75 19H21.2083C21.6667 19 22.125 18.7879 22.3333 18.3638C23.375 16.5826 24 14.4621 24 12.2143C24 5.47098 18.625 0 12 0ZM20.8333 16.9643H3.125C2.375 15.5223 2 13.9107 2 12.2143C2 6.61607 6.45833 2.03571 12 2.03571C17.5 2.03571 22 6.61607 22 12.2143C22 13.9107 21.5833 15.5223 20.8333 16.9643Z" fill="#808080"/>
</svg>
