<svg width="24" height="20" viewBox="0 0 24 20" fill="none" xmlns="http://www.w3.org/2000/svg">
<path d="M16.5349 9.39671C17.2376 9.39671 17.8577 8.82435 17.8577 8.08846C17.8577 7.39345 17.2376 6.7802 16.5349 6.7802C15.7908 6.7802 15.2121 7.39345 15.2121 8.08846C15.2121 8.82435 15.7908 9.39671 16.5349 9.39671ZM5.29116 11.3591C4.54709 11.3591 3.96837 11.9723 3.96837 12.6673C3.96837 13.4032 4.54709 13.9756 5.29116 13.9756C5.99389 13.9756 6.61395 13.4032 6.61395 12.6673C6.61395 11.9723 5.99389 11.3591 5.29116 11.3591ZM11.9051 7.43433C12.6078 7.43433 13.2279 6.86197 13.2279 6.12608C13.2279 5.43107 12.6078 4.81783 11.9051 4.81783C11.161 4.81783 10.5823 5.43107 10.5823 6.12608C10.5823 6.86197 11.161 7.43433 11.9051 7.43433ZM18.3124 11.727L14.096 12.5447C13.5999 11.8497 12.8145 11.3591 11.9051 11.3591C10.417 11.3591 9.25952 12.5447 9.25952 13.9756C9.25952 14.4662 9.38353 14.9159 9.59022 15.2838H14.1786C14.3027 15.0386 14.3853 14.7933 14.468 14.5071L18.6844 13.6485C19.2218 13.5259 19.5938 13.0353 19.4698 12.5038C19.3458 11.9723 18.8497 11.6044 18.3124 11.727ZM7.27534 6.7802C6.53127 6.7802 5.95255 7.39345 5.95255 8.08846C5.95255 8.82435 6.53127 9.39671 7.27534 9.39671C7.97807 9.39671 8.59813 8.82435 8.59813 8.08846C8.59813 7.39345 7.97807 6.7802 7.27534 6.7802ZM11.9051 0.893066C5.29116 0.893066 0 6.16696 0 12.6673C0 14.8341 0.57872 16.8783 1.61215 18.5954C1.81883 19.0042 2.27354 19.2086 2.72825 19.2086H21.0406C21.4953 19.2086 21.95 19.0042 22.1567 18.5954C23.1901 16.8783 23.8102 14.8341 23.8102 12.6673C23.8102 6.16696 18.4777 0.893066 11.9051 0.893066ZM20.6686 17.2462H3.10029C2.35622 15.8562 1.98418 14.3027 1.98418 12.6673C1.98418 7.2708 6.40726 2.85545 11.9051 2.85545C17.3616 2.85545 21.826 7.2708 21.826 12.6673C21.826 14.3027 21.4126 15.8562 20.6686 17.2462Z" fill="#333A3D"/>
</svg>
