<svg width="24" height="24" viewBox="0 0 24 24" fill="none" xmlns="http://www.w3.org/2000/svg">
<path d="M12.3613 3.93287C8.11329 3.93287 4.67018 7.4207 4.67018 11.624C4.67018 15.872 8.11329 19.3151 12.3613 19.3151C16.5645 19.3151 20.0524 15.872 20.0524 11.624C20.0524 7.4207 16.5645 3.93287 12.3613 3.93287ZM12.3613 6.07923C13.1662 6.07923 13.971 6.3028 14.6418 6.61581L13.4792 8.27029C13.1214 8.13615 12.719 8.04672 12.3613 8.04672C11.9588 8.04672 11.5564 8.13615 11.1987 8.27029L10.0361 6.61581C10.7068 6.3028 11.5117 6.07923 12.3613 6.07923ZM6.86125 12.2947C6.81653 12.0711 6.81653 11.8475 6.81653 11.624C6.81653 10.1931 7.35312 8.89631 8.29215 7.91257L9.45476 9.52233C9.05231 10.1036 8.78402 10.8638 8.78402 11.624C8.78402 11.6687 8.78402 11.6687 8.78402 11.6687L6.86125 12.2947ZM11.2881 17.0793C9.63362 16.7663 8.29215 15.7378 7.53198 14.3516L9.41004 13.7256C9.8572 14.3516 10.5279 14.7988 11.2881 15.0224V17.0793ZM12.3613 13.0549C11.5564 13.0549 10.9304 12.4289 10.9304 11.624C10.9304 10.8638 11.5564 10.1931 12.3613 10.1931C13.1214 10.1931 13.7922 10.8638 13.7922 11.624C13.7922 12.4289 13.1214 13.0549 12.3613 13.0549ZM13.4345 17.0793V15.0224C14.1499 14.7988 14.8206 14.3516 15.2678 13.7256L17.1459 14.3516C16.3857 15.7378 15.0442 16.7663 13.4345 17.0793ZM15.8938 11.6687C15.8938 11.6687 15.9385 11.6687 15.9385 11.624C15.9385 10.8638 15.6255 10.1036 15.2231 9.52233L16.3857 7.91257C17.3247 8.89631 17.906 10.1931 17.906 11.624C17.906 11.8475 17.8613 12.0711 17.8166 12.2947L15.8938 11.6687ZM12.3613 0.176758C6.01165 0.176758 0.914062 5.31906 0.914062 11.624C0.914062 17.9736 6.01165 23.0712 12.3613 23.0712C18.6662 23.0712 23.8085 17.9736 23.8085 11.624C23.8085 5.31906 18.6662 0.176758 12.3613 0.176758ZM12.3613 20.9248C7.21897 20.9248 3.06041 16.7663 3.06041 11.624C3.06041 6.52638 7.21897 2.32311 12.3613 2.32311C17.4589 2.32311 21.6621 6.52638 21.6621 11.624C21.6621 16.7663 17.4589 20.9248 12.3613 20.9248Z" fill="#333A3D"/>
</svg>
