<svg width="26" height="26" viewBox="0 0 26 26" fill="none" xmlns="http://www.w3.org/2000/svg">
<g clip-path="url(#clip0)">
<path d="M25.2223 3.80859C25.2223 1.70851 23.5994 0 21.6044 0C19.6095 0 17.9865 1.70851 17.9865 3.80859C17.9865 5.64783 19.2315 7.18674 20.8808 7.54062V12.2383H13.5967V7.54062C15.2461 7.18674 16.4911 5.64783 16.4911 3.80859C16.4911 1.70851 14.8681 0 12.8731 0C10.8782 0 9.2552 1.70851 9.2552 3.80859C9.2552 5.64783 10.5002 7.18674 12.1495 7.54062V12.2383H4.86544V7.54062C6.51481 7.18674 7.75979 5.64783 7.75979 3.80859C7.75979 1.70851 6.13681 0 4.14186 0C2.14691 0 0.523926 1.70851 0.523926 3.80859C0.523926 5.64783 1.76891 7.18674 3.41827 7.54062V13.7617H12.1495V18.4594C10.5002 18.8133 9.2552 20.3522 9.2552 22.1914C9.2552 24.2915 10.8782 26 12.8731 26C14.8681 26 16.4911 24.2915 16.4911 22.1914C16.4911 20.3522 15.2461 18.8133 13.5967 18.4594V13.7617H20.8808V18.4594C19.2315 18.8133 17.9865 20.3522 17.9865 22.1914C17.9865 24.2915 19.6095 26 21.6044 26C23.5994 26 25.2223 24.2915 25.2223 22.1914C25.2223 20.3522 23.9774 18.8133 22.328 18.4594V7.54062C23.9774 7.18674 25.2223 5.64783 25.2223 3.80859ZM10.7024 3.80859C10.7024 2.54858 11.6762 1.52344 12.8731 1.52344C14.0701 1.52344 15.0439 2.54858 15.0439 3.80859C15.0439 5.0686 14.0701 6.09375 12.8731 6.09375C11.6762 6.09375 10.7024 5.0686 10.7024 3.80859ZM1.9711 3.80859C1.9711 2.54858 2.94492 1.52344 4.14186 1.52344C5.33879 1.52344 6.31262 2.54858 6.31262 3.80859C6.31262 5.0686 5.33879 6.09375 4.14186 6.09375C2.94492 6.09375 1.9711 5.0686 1.9711 3.80859ZM15.0439 22.1914C15.0439 23.4514 14.0701 24.4766 12.8731 24.4766C11.6762 24.4766 10.7024 23.4514 10.7024 22.1914C10.7024 20.9314 11.6762 19.9062 12.8731 19.9062C14.0701 19.9062 15.0439 20.9314 15.0439 22.1914ZM19.4336 3.80859C19.4336 2.54858 20.4075 1.52344 21.6044 1.52344C22.8013 1.52344 23.7752 2.54858 23.7752 3.80859C23.7752 5.0686 22.8013 6.09375 21.6044 6.09375C20.4075 6.09375 19.4336 5.0686 19.4336 3.80859ZM23.7752 22.1914C23.7752 23.4514 22.8013 24.4766 21.6044 24.4766C20.4075 24.4766 19.4336 23.4514 19.4336 22.1914C19.4336 20.9314 20.4075 19.9062 21.6044 19.9062C22.8013 19.9062 23.7752 20.9314 23.7752 22.1914Z" fill="#000"/>
</g>
<defs>
<clipPath id="clip0">
<rect width="24.6984" height="26" fill="white" transform="translate(0.523926)"/>
</clipPath>
</defs>
</svg>
