<svg width="18" height="18" viewBox="0 0 18 18" fill="none" xmlns="http://www.w3.org/2000/svg">
<path id="Whatsapp" d="M15.0446 2.88529C13.4332 1.28038 11.2322 0.363281 8.874 0.363281C4.079 0.363281 0.148678 4.18451 0.148678 8.84641C0.148678 10.3749 0.581014 11.827 1.32778 13.088L0.109375 17.4824L4.70786 16.336C6.00486 16.9856 7.41978 17.3678 8.874 17.3678C13.7083 17.3678 17.7172 13.5465 17.7172 8.88463C17.7172 6.59189 16.6954 4.49021 15.0446 2.88529ZM8.874 15.9157C7.577 15.9157 6.31929 15.5718 5.1795 14.9222L4.94368 14.7693L2.19245 15.4954L2.93921 12.8969L2.74269 12.6294C2.03524 11.4831 1.6422 10.1838 1.6422 8.84641C1.6422 4.98697 4.90437 1.81535 8.91331 1.81535C10.8392 1.81535 12.6471 2.54138 14.0227 3.87881C15.3983 5.21624 16.2237 6.97401 16.2237 8.88463C16.2237 12.7441 12.8829 15.9157 8.874 15.9157ZM12.8829 10.6424C12.6471 10.5278 11.5859 10.031 11.3894 9.95457C11.1929 9.87815 11.0357 9.83993 10.8785 10.0692C10.7606 10.2603 10.3282 10.757 10.2103 10.9099C10.0531 11.0245 9.93519 11.0627 9.73868 10.9481C8.44167 10.3367 7.6163 9.83993 6.75163 8.42608C6.51581 8.04395 6.98745 8.08217 7.38048 7.27971C7.45909 7.12686 7.41978 7.01222 7.38048 6.89759C7.34118 6.78295 6.86954 5.75122 6.71232 5.33088C6.51581 4.91055 6.35859 4.94876 6.20138 4.94876C6.08347 4.94876 5.92626 4.94876 5.80835 4.94876C5.65114 4.94876 5.41532 4.98697 5.2188 5.21624C5.02228 5.44552 4.47204 5.94228 4.47204 6.97401C4.47204 8.04395 5.2188 9.03747 5.33671 9.19032C5.45462 9.30496 6.86954 11.4448 9.07052 12.3619C10.4461 12.9733 10.9964 13.0116 11.7038 12.8969C12.0969 12.8587 12.9615 12.4002 13.1581 11.9034C13.3546 11.4066 13.3546 10.9863 13.276 10.9099C13.2367 10.7952 13.0795 10.757 12.8829 10.6424Z" fill="white"/>
</svg>
