<svg width="16" height="16" viewBox="0 0 16 16" fill="none" xmlns="http://www.w3.org/2000/svg">
<path d="M15.1592 7.57962C15.1592 9.58986 14.3607 11.5178 12.9392 12.9392C11.5178 14.3607 9.58986 15.1592 7.57962 15.1592C5.56938 15.1592 3.64147 14.3607 2.22002 12.9392C0.798564 11.5178 0 9.58986 0 7.57962C0 7.4121 0.0665471 7.25144 0.185002 7.13298C0.303456 7.01453 0.464115 6.94798 0.631635 6.94798C0.799155 6.94798 0.959814 7.01453 1.07827 7.13298C1.19672 7.25144 1.26327 7.4121 1.26327 7.57962C1.26327 8.82887 1.63372 10.0501 2.32777 11.0888C3.02182 12.1275 4.00829 12.9371 5.16246 13.4152C6.31662 13.8932 7.58662 14.0183 8.81188 13.7746C10.0371 13.5309 11.1626 12.9293 12.0459 12.0459C12.9293 11.1626 13.5309 10.0371 13.7746 8.81188C14.0183 7.58662 13.8932 6.31662 13.4152 5.16246C12.9371 4.00829 12.1275 3.02182 11.0888 2.32777C10.0501 1.63372 8.82887 1.26327 7.57962 1.26327C7.4121 1.26327 7.25144 1.19672 7.13298 1.07827C7.01453 0.959814 6.94798 0.799155 6.94798 0.631635C6.94798 0.464115 7.01453 0.303456 7.13298 0.185002C7.25144 0.0665471 7.4121 0 7.57962 0C9.58919 0.00217351 11.5158 0.801436 12.9368 2.22242C14.3578 3.6434 15.1571 5.57004 15.1592 7.57962ZM6.49131 6.94798H5.05308C4.88556 6.94798 4.7249 7.01453 4.60644 7.13298C4.48799 7.25144 4.42144 7.4121 4.42144 7.57962C4.42144 7.74714 4.48799 7.9078 4.60644 8.02625C4.7249 8.1447 4.88556 8.21125 5.05308 8.21125H6.49131C6.58777 8.37878 6.7215 8.52185 6.88214 8.62939C7.04278 8.73693 7.22602 8.80605 7.41766 8.8314C7.60931 8.85674 7.80421 8.83763 7.98728 8.77554C8.17036 8.71346 8.33668 8.61007 8.47337 8.47337C8.61007 8.33668 8.71346 8.17036 8.77554 7.98728C8.83763 7.80421 8.85674 7.60931 8.8314 7.41766C8.80605 7.22602 8.73693 7.04278 8.62939 6.88214C8.52185 6.7215 8.37878 6.58777 8.21125 6.49131V4.42144C8.21125 4.25392 8.1447 4.09326 8.02625 3.97481C7.9078 3.85636 7.74714 3.78981 7.57962 3.78981C7.4121 3.78981 7.25144 3.85636 7.13298 3.97481C7.01453 4.09326 6.94798 4.25392 6.94798 4.42144V6.49131C6.75876 6.60139 6.60139 6.75876 6.49131 6.94798ZM1.154 5.54828C1.27892 5.54828 1.40104 5.51123 1.50491 5.44183C1.60879 5.37243 1.68974 5.27378 1.73755 5.15836C1.78536 5.04294 1.79787 4.91594 1.77349 4.79342C1.74912 4.67089 1.68897 4.55835 1.60063 4.47001C1.51229 4.38168 1.39975 4.32152 1.27722 4.29715C1.1547 4.27277 1.0277 4.28528 0.912281 4.33309C0.796864 4.3809 0.698216 4.46186 0.628812 4.56573C0.559407 4.6696 0.522362 4.79172 0.522362 4.91664C0.522362 5.08416 0.588909 5.24482 0.707363 5.36328C0.825818 5.48173 0.986477 5.54828 1.154 5.54828ZM2.66613 3.28892C2.79106 3.28892 2.91318 3.25188 3.01705 3.18247C3.12092 3.11307 3.20188 3.01442 3.24968 2.899C3.29749 2.78359 3.31 2.65659 3.28563 2.53406C3.26126 2.41154 3.2011 2.29899 3.11276 2.21065C3.02443 2.12232 2.91188 2.06216 2.78936 2.03779C2.66683 2.01342 2.53983 2.02593 2.42441 2.07373C2.309 2.12154 2.21035 2.2025 2.14095 2.30637C2.07154 2.41024 2.0345 2.53236 2.0345 2.65729C2.0345 2.82481 2.10104 2.98547 2.2195 3.10392C2.33795 3.22238 2.49861 3.28892 2.66613 3.28892ZM4.91349 1.79447C5.03841 1.79447 5.16053 1.75743 5.2644 1.68802C5.36828 1.61862 5.44923 1.51997 5.49704 1.40456C5.54485 1.28914 5.55736 1.16214 5.53299 1.03961C5.50861 0.917089 5.44846 0.804542 5.36012 0.716206C5.27178 0.627871 5.15924 0.567713 5.03671 0.543342C4.91419 0.51897 4.78719 0.531478 4.67177 0.579285C4.55635 0.627092 4.45771 0.70805 4.3883 0.811922C4.3189 0.915794 4.28185 1.03791 4.28185 1.16284C4.28185 1.33036 4.3484 1.49102 4.46685 1.60947C4.58531 1.72793 4.74597 1.79447 4.91349 1.79447Z" fill="white"/>
<path d="M6.37393 6.85992H4.8944C4.72207 6.85992 4.5568 6.9278 4.43494 7.04864C4.31309 7.16948 4.24463 7.33337 4.24463 7.50426C4.24463 7.67515 4.31309 7.83905 4.43494 7.95988C4.5568 8.08072 4.72207 8.14861 4.8944 8.14861H6.37393C6.47317 8.31951 6.61073 8.46546 6.77599 8.57517C6.94124 8.68487 7.12974 8.75538 7.32689 8.78123C7.52403 8.80709 7.72454 8.78759 7.91287 8.72426C8.1012 8.66092 8.2723 8.55545 8.41291 8.41601C8.55353 8.27656 8.65989 8.10689 8.72376 7.92014C8.78763 7.73338 8.80729 7.53455 8.78122 7.33905C8.75514 7.14355 8.68404 6.95662 8.57341 6.79275C8.46278 6.62888 8.3156 6.49246 8.14326 6.39405V4.28253C8.14326 4.11164 8.07481 3.94775 7.95295 3.82691C7.83109 3.70607 7.66582 3.63818 7.49349 3.63818C7.32116 3.63818 7.15589 3.70607 7.03403 3.82691C6.91218 3.94775 6.84372 4.11164 6.84372 4.28253V6.39405C6.64906 6.50635 6.48718 6.66689 6.37393 6.85992Z" fill="#FF2946"/>
<circle cx="1.06118" cy="5.00259" r="0.757962" fill="#FF2946"/>
<circle cx="2.5773" cy="2.57705" r="0.757962" fill="#FF2946"/>
<circle cx="5.00259" cy="1.06118" r="0.757962" fill="#FF2946"/>
</svg>
