<svg xmlns="http://www.w3.org/2000/svg" width="136" height="91" fill="none" viewBox="0 0 136 91">
    <path fill="#F5F5F5" d="M114.663 15.18l-7.608 15.348 2.271.086-6.447 12.195h3.385l-5.281 10.836h29.527l-6.501-10.836 3.116-.135-6.232-12.19 2.302-.135-8.532-15.17z"/>
    <path fill="#E0E0E0" d="M115.95 32.988c.043 0-.018 9.269-.135 20.7-.117 11.432-.304 21.986-.306 21.942-.012-2.444.031-10.51.15-21.942.118-11.431.246-20.7.291-20.7zM119.568 36.928c.034.028-.72 1.07-1.694 2.328-.974 1.258-1.785 2.255-1.814 2.228-.029-.027.72-1.067 1.694-2.325.973-1.258 1.78-2.258 1.814-2.23z"/>
    <path fill="#E0E0E0" d="M115.88 41.158c-.027.035-.778-.504-1.674-1.204-.896-.7-1.604-1.294-1.579-1.33.026-.036.778.506 1.676 1.206.898.7 1.602 1.294 1.577 1.328zM115.675 48.688c-.201-.127-.388-.274-.56-.438-.335-.282-.796-.67-1.312-1.094-.517-.423-.994-.794-1.338-1.064-.195-.135-.375-.29-.54-.46.217.098.421.222.607.37.36.249.849.609 1.37 1.032.52.423.972.83 1.288 1.134.183.153.345.327.485.52zM119.573 44.033c.033.029-.797 1.12-1.857 2.437-1.06 1.318-1.946 2.364-1.98 2.34-.034-.023.797-1.117 1.857-2.435 1.061-1.318 1.946-2.369 1.98-2.342z"/>
    <path fill="#F5F5F5" d="M28.24 15.18l-6.932 13.983 2.07.078-5.873 11.113h3.083l-4.811 9.871h26.9l-5.923-9.871 2.838-.124-5.675-11.106L36.014 29 28.24 15.18z"/>
    <path fill="#E0E0E0" d="M29.412 31.4c.04 0-.015 8.443-.12 18.856-.107 10.413-.228 22.219-.267 22.217-.04-.002.014-11.802.122-22.219.108-10.417.225-18.853.265-18.853zM32.71 34.995c.03.024-.661.974-1.545 2.119-.884 1.145-1.62 2.057-1.656 2.032-.036-.025.659-.972 1.543-2.118.883-1.147 1.625-2.06 1.657-2.033z"/>
    <path fill="#E0E0E0" d="M29.347 38.85c-.026.03-.708-.462-1.525-1.099s-1.462-1.179-1.44-1.211c.022-.033.707.46 1.526 1.098.82.637 1.462 1.18 1.439 1.211zM29.163 45.709c-.184-.115-.355-.25-.511-.4-.304-.255-.72-.612-1.197-.995-.477-.383-.9-.72-1.217-.97-.178-.123-.343-.264-.493-.42.198.09.384.202.554.337.33.227.774.556 1.248.941.473.386.883.755 1.173 1.032.166.14.315.3.443.475zM32.72 41.468c.03.025-.72 1.019-1.69 2.22-.97 1.2-1.773 2.16-1.8 2.129-.027-.03.72-1.017 1.69-2.22.97-1.202 1.762-2.149 1.8-2.129z"/>
    <path fill="#EBEBEB" d="M16.304 33.89l-5.339 10.771 1.595.061-4.525 8.558h2.376l-3.706 7.605h19.53l-3.372-7.605 2.185-.096-4.372-8.553 1.617-.096-5.989-10.645z"/>
    <path fill="#E0E0E0" d="M17.208 46.384c.03 0-.013 6.503-.094 14.522-.081 8.02-.18 14.524-.205 14.524-.025 0 .01-6.501.093-14.524.083-8.022.175-14.522.206-14.522zM19.747 49.154c-.367.564-.764 1.109-1.19 1.631-.396.545-.822 1.067-1.276 1.566-.023-.02.508-.75 1.188-1.633.68-.882 1.253-1.584 1.278-1.564z"/>
    <path fill="#E0E0E0" d="M17.157 52.122c-.02.024-.54-.36-1.175-.846-.392-.283-.762-.594-1.107-.932.02-.025.54.36 1.175.844.636.484 1.125.91 1.107.934zM17.015 57.405c-.14-.089-.272-.192-.393-.307-.235-.198-.56-.472-.921-.767-.362-.295-.697-.558-.938-.747-.137-.095-.264-.204-.38-.324.153.07.296.157.427.26.254.18.596.427.961.72.366.294.68.582.9.796.13.108.245.233.344.37zM19.75 54.138c.024.02-.559.785-1.302 1.71-.744.925-1.367 1.66-1.39 1.64.406-.59.84-1.16 1.303-1.708.744-.925 1.365-1.66 1.388-1.642z"/>
    <path fill="#F5F5F5" d="M108.984 75.67c-7.034 5.27-16.474 6.02-25.23 5.283-8.758-.736-17.46-2.754-26.237-2.232-4.97.295-9.875 1.402-14.852 1.49-4.977.088-10.26-1.006-13.86-4.444l80.179-.097z"/>
    <path fill="#EBEBEB" d="M42.773 25.248h23.76s-2.103-3.825-8.22-3.268c-5.844.54-6.14-1.881-9.11-2.178-2.97-.297-5.438 1.98-6.43 5.446z"/>
    <path fill="#F5F5F5" d="M63.94 31.79H76.9s-1.147-2.085-4.483-1.782c-3.186.29-3.348-1.026-4.968-1.188-1.62-.163-2.97 1.08-3.51 2.97z"/>
    <path fill="#FAFAFA" d="M77.428 19.656h12.96s-1.148-2.086-4.482-1.788c-3.186.29-3.348-1.026-4.968-1.188-1.62-.162-2.97 1.086-3.51 2.976z"/>
    <path fill="#263238" d="M129.637 75.56c0 .027-27.606.047-61.651.047-34.046 0-61.658-.02-61.658-.047s27.6-.047 61.658-.047c34.057 0 61.651.022 61.651.047z"/>
    <path fill="#E8505B" d="M121.611 57.814c.853.918 1.344 2.114 1.382 3.366.039 1.253-.378 2.477-1.173 3.445-.724.867-1.634 1.559-2.664 2.023l-8.845 3.986-6.248.966-81.767-.518-5.124-1.003c-1.197-.234-2.274-.881-3.042-1.828-.769-.948-1.18-2.135-1.163-3.354l.052-3.56c.005-.268.094-.527.256-.74.162-.214.387-.37.644-.447l.36-.111s.302-3.49 2.408-4.28c7.676-3.307 12.755-4.37 25.602-4.906l10.848-6.48s4.38-2.799 8.46-3.166c4.081-.367 13.32-.37 17.552-.128 4.97.286 11.275 2.547 14.793 4.291 2.754 1.367 9.383 4.742 9.383 4.742l3.749.628c.566.027 10.921.659 12.111.84.433.07.838.26 1.17.545.333.286.58.658.714 1.075.297.983.54 4.592.54 4.592"/>
    <path fill="#263238" d="M89.96 45.554c-1.767-.884-6.509-2.102-9.16-2.599-2.651-.497-8.04-.565-10.194-.511-2.152.054-8.135.158-11.29 1.053-1.62.46-4.227 1.81-5.76 2.941-.54.392-2.85 2.209-3.367 2.62l-4.014 3.748 49.32-1.557s.284-1.719-.603-2.709-4.932-2.986-4.932-2.986z"/>
    <path fill="#FAFAFA" d="M16.795 59.828l-2.495-.036c.098-.673.427-2.462 1.494-3.465l3.303.049c.138.002.272.04.39.11.117.071.214.172.28.292.066.12.099.256.095.393-.003.137-.043.27-.115.387l-.6.978c-.247.4-.593.73-1.005.957-.412.226-.876.342-1.347.335z"/>
    <path fill="#E0E0E0" d="M17.098 59.677c.26-1.098.587-2.542 1.514-3.309h.486c.137.002.271.04.389.111.117.07.214.172.28.292.066.12.099.255.096.392-.004.138-.044.271-.116.388l-.6.977c-.223.363-.528.668-.89.89-.363.223-.773.356-1.197.39l.038-.131z"/>
    <path fill="#000" d="M41.306 71.233c.265-1.284.322-2.601.17-3.903-.645-5.538-4.272-9.523-9.751-9.602-4.768-.069-8.707 2.91-9.511 8.427-.236 1.647-.18 3.323.165 4.95l18.927.128zM110.3 70.657c0-.203-.023-.412-.027-.628-.097-6.99-4.786-11.832-10.363-11.913-2.45-.032-4.813.908-6.57 2.616-1.758 1.707-2.766 4.042-2.804 6.492-.023 1.555-.097 3.019.086 4.31l13.43.09 6.248-.967z" opacity=".7"/>
    <path fill="#263238" d="M91.731 67.24c-.023 1.593.427 3.156 1.293 4.493.865 1.337 2.108 2.386 3.57 3.017 1.462.63 3.078.813 4.645.525 1.566-.288 3.011-1.034 4.153-2.144 1.143-1.11 1.93-2.533 2.263-4.09.333-1.557.197-3.178-.391-4.658-.588-1.48-1.602-2.752-2.913-3.656-1.311-.903-2.861-1.398-4.453-1.42-2.135-.032-4.195.787-5.727 2.275-1.531 1.488-2.409 3.523-2.44 5.658z"/>
    <path fill="#263238" d="M91.731 67.22v.02c-.015 1.058.178 2.108.569 3.09.39.983.97 1.88 1.707 2.638.737.758 1.616 1.364 2.587 1.783.971.418 2.015.642 3.073.657 1.057.015 2.107-.178 3.09-.568.982-.391 1.878-.971 2.637-1.708.758-.737 1.364-1.616 1.783-2.587.419-.971.642-2.015.657-3.072v-.02l-16.103-.232z"/>
    <path fill="#FAFAFA" d="M94.129 67.277c-.015 1.117.303 2.214.911 3.152.61.937 1.482 1.673 2.51 2.115 1.026.441 2.161.569 3.26.365 1.1-.203 2.114-.728 2.915-1.507.801-.78 1.353-1.78 1.587-2.873.233-1.093.137-2.23-.276-3.27-.414-1.038-1.126-1.93-2.046-2.565-.921-.634-2.009-.981-3.126-.997-.743-.011-1.481.125-2.172.4-.69.274-1.32.682-1.853 1.2-.532.519-.957 1.137-1.25 1.82-.294.683-.45 1.416-.46 2.16z"/>
    <path fill="#E0E0E0" d="M99.86 61.704c-.743-.01-1.48.125-2.171.4-.69.275-1.32.683-1.853 1.201-.532.519-.957 1.137-1.251 1.82-.294.682-.45 1.416-.46 2.159l11.306.162c.012-.743-.123-1.481-.397-2.172-.274-.69-.681-1.32-1.198-1.854-.518-.533-1.135-.96-1.817-1.254-.682-.294-1.416-.451-2.159-.462z"/>
    <path fill="#263238" d="M96.34 67.307c-.01.681.182 1.35.552 1.922.37.571.901 1.02 1.527 1.29.625.27 1.316.348 1.986.225.67-.123 1.288-.442 1.777-.917.488-.475.825-1.084.967-1.75.143-.666.085-1.359-.167-1.992s-.685-1.177-1.246-1.563c-.561-.387-1.224-.598-1.905-.608-.913-.013-1.794.337-2.448.974-.655.636-1.03 1.506-1.044 2.42zM32.242 75.613c4.443-.2 7.884-3.963 7.684-8.406-.2-4.443-3.963-7.884-8.406-7.684-4.443.2-7.883 3.963-7.684 8.406.2 4.443 3.963 7.883 8.406 7.684z"/>
    <path fill="#263238" d="M23.837 67.428v.021c-.03 2.136.788 4.196 2.276 5.728 1.488 1.531 3.524 2.409 5.66 2.44 2.135.03 4.195-.788 5.726-2.276 1.532-1.488 2.41-3.524 2.44-5.66v-.021l-16.102-.232z"/>
    <path fill="#FAFAFA" d="M26.24 67.484c-.016 1.118.3 2.216.907 3.154.608.94 1.48 1.677 2.508 2.12 1.026.442 2.162.57 3.261.368 1.1-.202 2.115-.726 2.917-1.505.803-.78 1.355-1.78 1.59-2.873.233-1.094.137-2.232-.276-3.271-.413-1.04-1.125-1.933-2.046-2.567-.921-.635-2.01-.982-3.128-.997-1.499-.022-2.945.553-4.02 1.598-1.075 1.045-1.691 2.474-1.713 3.973z"/>
    <path fill="#E0E0E0" d="M31.968 61.913c-1.498-.02-2.943.555-4.017 1.6-1.074 1.045-1.69 2.473-1.711 3.97l11.306.164c.01-.743-.125-1.48-.4-2.17-.275-.691-.683-1.32-1.2-1.853-.519-.533-1.137-.958-1.82-1.252-.682-.293-1.415-.45-2.158-.46z"/>
    <path fill="#263238" d="M28.443 67.516c-.01.681.18 1.35.55 1.923.37.572.9 1.022 1.526 1.293.625.27 1.316.35 1.986.227.67-.123 1.29-.441 1.778-.916.49-.474.827-1.082.97-1.748.143-.666.085-1.36-.166-1.993s-.684-1.178-1.245-1.565c-.56-.387-1.224-.599-1.905-.609-.912-.013-1.793.336-2.448.971s-1.031 1.505-1.046 2.417z"/>
    <path fill="#000" d="M16.31 65.72c-.013.9-.47 1.62-1.02 1.62-.548 0-.986-.748-.973-1.65.012-.901.47-1.62 1.02-1.62.551 0 .985.748.972 1.65z" opacity=".4"/>
    <path fill="#263238" d="M121.611 57.814c-.051.01-.103.014-.155.013l-.446.016c-.387.009-.947.021-1.636.05-.69.029-1.514.065-2.425.139-.986.073-1.966.218-2.932.432-.496.116-.978.283-1.44.498-.425.213-.823.474-1.186.78-.72.56-1.26 1.18-1.759 1.668-.379.397-.802.748-1.26 1.05-.126.08-.258.15-.394.212-.046.025-.094.045-.144.06 0-.011.193-.098.513-.31.446-.312.858-.67 1.229-1.07.485-.49 1.025-1.122 1.75-1.693.368-.313.772-.58 1.204-.797.469-.221.959-.392 1.464-.51.972-.215 1.958-.358 2.952-.426.914-.067 1.738-.101 2.43-.116.691-.014 1.26-.016 1.639-.012h.447c.05 0 .1.006.149.016z"/>
    <path fill="#fff" d="M110.048 70.8c.031-.022.064-.043.097-.062.094-.062.185-.13.272-.202.327-.285.582-.644.743-1.047.25-.642.339-1.334.261-2.018-.093-.906-.274-1.802-.54-2.673-.311-1.059-.746-2.077-1.296-3.033-.634-1.097-1.443-2.083-2.395-2.918-1.049-.927-2.283-1.62-3.62-2.034-1.443-.42-2.955-.55-4.448-.38-1.495.159-2.957.54-4.34 1.129-1.242.49-2.366 1.238-3.297 2.195-.931.958-1.648 2.102-2.103 3.358-.39 1.032-.672 2.102-.839 3.193-.079.5-.138.98-.18 1.44-.048.426-.066.855-.054 1.283.026.8.287 1.484.695 1.874.298.319.702.519 1.136.562.151.004.302-.01.45-.041l-.112.032c-.111.024-.226.035-.34.032-.443-.035-.857-.232-1.165-.552-.422-.396-.698-1.095-.72-1.903-.015-.432 0-.864.046-1.294.037-.456.095-.936.17-1.44.163-1.098.442-2.176.832-3.215.221-.578.489-1.137.8-1.672.334-.566.727-1.095 1.173-1.579.977-1.024 2.16-1.831 3.47-2.367 1.392-.596 2.866-.98 4.373-1.14 1.51-.174 3.041-.043 4.5.386 1.352.42 2.598 1.123 3.657 2.063.959.844 1.773 1.84 2.409 2.948.997 1.77 1.614 3.728 1.81 5.75.068.69-.032 1.387-.293 2.03-.169.407-.433.767-.77 1.05-.117.098-.245.18-.382.246z" opacity=".5"/>
    <path fill="#263238" d="M22.383 66.153c-.093-.097-.18-.2-.261-.307-.237-.277-.498-.531-.782-.76-.948-.743-2.058-1.25-3.24-1.481-1.186-.223-2.395-.3-3.6-.23-.462.015-.837.039-1.096.051-.134.015-.268.018-.403.011.033-.011.068-.018.103-.02l.297-.036c.257-.027.631-.06 1.096-.088 1.21-.092 2.428-.026 3.621.198 1.202.234 2.327.762 3.275 1.537.282.237.538.504.763.796.064.078.124.16.18.245.018.026.034.055.047.084zM22.332 60.168c0 .033-1.922.03-4.293 0-2.37-.03-4.291-.088-4.291-.12 0-.033 1.922-.029 4.293 0 2.37.029 4.293.079 4.291.12z"/>
    <path fill="#fff" d="M44.121 70.401c-.002-.036-.002-.073 0-.11v-.322c0-.142 0-.318-.021-.525-.022-.207-.026-.447-.053-.72-.14-1.517-.468-3.01-.977-4.446-.348-.994-.776-1.957-1.28-2.88-.564-1.064-1.252-2.056-2.05-2.958-.888-.993-1.99-1.772-3.222-2.279-1.324-.543-2.738-.832-4.169-.853-.723-.006-1.445.045-2.16.155-.693.118-1.376.29-2.043.513-.642.221-1.265.494-1.863.816l-.22.116-.212.128-.423.252-.398.276-.198.136-.18.15c-.954.734-1.786 1.617-2.462 2.614-.591.867-1.07 1.807-1.425 2.795-.292.817-.501 1.661-.625 2.52-.041.38-.088.733-.096 1.06-.007.328-.016.627-.014.9.002.274.029.508.038.72.009.212.038.382.056.522.018.14.029.243.04.32.01.078 0 .11 0 .11s0-.036-.022-.108c-.022-.072-.03-.18-.05-.318-.022-.139-.055-.315-.067-.522-.013-.207-.05-.447-.049-.72.002-.274-.018-.573 0-.9.018-.328.049-.686.088-1.068.117-.863.322-1.713.612-2.534.352-.998.83-1.946 1.422-2.822.68-1.008 1.516-1.9 2.477-2.645l.19-.15.199-.138.401-.28.423-.258.213-.13.221-.116c.602-.327 1.23-.604 1.877-.827.674-.226 1.363-.4 2.063-.52.723-.111 1.453-.164 2.184-.156 1.443.022 2.87.316 4.205.867 1.247.512 2.362 1.299 3.263 2.302.798.914 1.485 1.92 2.047 2.995.502.928.928 1.895 1.27 2.893.505 1.444.823 2.945.947 4.47.05.557.064 1.116.043 1.675z" opacity=".5"/>
    <path fill="#263238" d="M107.083 50.846c.005.039.005.078 0 .117-.01.09-.025.2-.043.335-.039.29-.099.71-.137 1.23-.054.607-.026 1.22.083 1.82.142.731.494 1.406 1.014 1.941.526.528 1.156.942 1.85 1.215.565.222 1.15.391 1.746.504.513.103.932.166 1.22.213l.333.056c.04.004.078.013.116.026-.04.007-.08.007-.119 0l-.335-.034c-.292-.034-.72-.084-1.229-.18-.609-.103-1.205-.268-1.781-.491-.711-.273-1.357-.694-1.895-1.233-.53-.551-.887-1.246-1.026-1.998-.106-.61-.127-1.23-.061-1.845.05-.524.122-.943.18-1.231.027-.144.05-.256.066-.331.001-.039.007-.077.018-.114zM66.175 55.252c.032-.008.066-.01.099-.009.096-.004.191 0 .286.015.078.01.154.035.221.076.067.041.125.096.17.161.06.088.096.19.104.295.009.105-.011.211-.058.307-.06.112-.142.21-.242.288-.1.078-.216.134-.339.163-.275.06-.558.074-.837.042l-1.894-.108c-.173-.002-.345-.035-.507-.096-.082-.031-.156-.08-.218-.142-.062-.062-.11-.136-.142-.218-.024-.083-.028-.171-.011-.257.016-.085.053-.165.106-.234.095-.13.229-.228.382-.279.273-.072.555-.101.837-.084.259 0 .502 0 .72.018l1.042.044c.128-.002.256.004.383.02-.032.01-.065.014-.099.013-.064 0-.16.009-.284.01H64.13c-.27-.011-.54.02-.801.09-.132.044-.247.129-.328.242-.043.054-.072.118-.086.187-.013.068-.01.139.009.205.027.068.068.13.12.18.052.05.114.09.182.116.151.054.31.083.47.084l1.892.117c.27.033.542.024.808-.027.113-.024.22-.072.313-.14.093-.069.17-.156.227-.256.042-.083.062-.175.057-.268-.005-.093-.035-.183-.086-.261-.037-.062-.088-.115-.148-.156-.06-.041-.128-.069-.199-.082-.247-.05-.387-.043-.385-.056zM91.64 55.042c.032-.005.066-.005.099 0 .095-.005.191 0 .286.014.078.01.153.036.22.077.068.041.126.096.17.16.06.088.097.19.105.295.008.106-.012.212-.058.307-.06.112-.142.21-.242.288-.1.078-.216.134-.34.164-.275.06-.56.074-.84.041l-1.894-.108c-.173-.002-.344-.034-.507-.093-.082-.032-.156-.08-.218-.142-.062-.062-.11-.137-.142-.218-.025-.084-.03-.172-.014-.258.017-.085.053-.165.108-.234.095-.13.228-.227.381-.279.273-.071.555-.1.837-.084.26 0 .502.009.72.018l1.044.045c.128 0 .255.006.382.02-.032.009-.066.013-.1.012-.064 0-.16.01-.284.013H89.59c-.27-.012-.54.018-.8.09-.133.043-.248.129-.328.243-.043.054-.073.118-.086.186-.014.068-.01.138.008.204.027.068.068.13.12.18.052.05.115.09.183.116.15.054.31.083.47.086l1.891.115c.27.034.542.025.809-.027.112-.024.218-.072.311-.14.093-.068.171-.154.228-.254.042-.084.061-.176.056-.27-.005-.092-.034-.183-.084-.261-.039-.06-.09-.112-.149-.151-.06-.04-.127-.066-.197-.078-.243-.072-.383-.065-.382-.077z"/>
    <path fill="#263238" d="M95.477 51.25s0 .033-.025.1-.045.17-.081.3l-.322 1.163c-.287 1.021-.704 2.52-1.237 4.41v.011h-.01c-.905.423-1.74.98-2.478 1.653-.417.377-.803.787-1.153 1.227-.373.473-.71.973-1.008 1.496-.641 1.15-1.126 2.382-1.44 3.661-.363 1.407-.55 2.853-.558 4.306v.043H69.066l-23.292-.009h-.035v-.032c-.599-4.767-.959-8.69-1.188-11.436-.111-1.368-.18-2.437-.237-3.164l-.054-.83-.02-.28s.01.095.025.282c.015.187.038.466.065.828l.26 3.163c.235 2.734.615 6.66 1.207 11.437l-.036-.033h41.35l-.042.043c.01-1.457.2-2.908.565-4.32.322-1.285.813-2.522 1.462-3.677.3-.526.64-1.028 1.017-1.503.354-.441.743-.853 1.163-1.231.744-.673 1.586-1.23 2.496-1.652l-.014.016 1.26-4.403c.146-.506.257-.9.335-1.161.038-.13.066-.229.088-.297l.036-.112z"/>
    <path fill="#263238" d="M69.52 52.162v.045c0 .034-.01.077-.015.131l-.063.504c-.027.213-.063.488-.096.8-.032.31-.077.665-.11 1.06-.032.394-.073.822-.1 1.285-.027.462-.054.96-.08 1.48-.034 1.042-.043 2.19 0 3.392.044 1.203.13 2.35.236 3.386.058.519.11 1.012.18 1.47.07.46.126.888.19 1.279.062.39.127.74.18 1.05.052.309.104.574.149.79.045.215.072.377.095.498l.023.132c.003.014.003.03 0 .044-.007-.013-.011-.028-.014-.043-.01-.033-.02-.077-.032-.13l-.114-.494c-.048-.21-.108-.48-.165-.789-.058-.31-.134-.657-.195-1.047-.06-.39-.138-.817-.2-1.278-.06-.461-.126-.953-.18-1.473-.11-1.038-.2-2.185-.243-3.39-.043-1.207-.025-2.355.013-3.401.027-.522.049-1.017.088-1.482.04-.464.072-.9.114-1.287.041-.387.084-.747.122-1.058.038-.311.078-.58.112-.797l.08-.502.024-.132c-.002-.014-.002-.029 0-.043zM44.458 51.649c-.576.432-1.44.54-2.142.394-.702-.146-1.26-.471-1.62-1.096l1.584-.07 2.178.772z"/>
    <path fill="#455A64" d="M42.276 50.877s1.598.973 2.063.84c.464-.133 7.92-6.023 12.41-8.296-.439-.163-.898-.267-1.365-.31 0 0-2.092 1.059-4.702 2.629-1.98 1.195-4.005 2.447-4.95 3.023l-3.456 2.114z"/>
    <path fill="#263238" d="M47.388 52.126l-.052.032-.157.092-.611.347-2.308 1.295c-1.44-.053-3.303-.09-5.432 0-1.064.046-2.195.122-3.372.243-1.177.12-2.403.288-3.658.488-2.197.342-4.27.775-6.166 1.123-1.681.306-3.38.51-5.085.61-1.457.083-2.64.061-3.453.038-.408-.013-.72-.03-.938-.042l-.244-.016c-.028.002-.056.002-.083 0h.328c.214 0 .54.018.937.025.816.013 1.995.024 3.45-.068 1.695-.108 3.384-.317 5.055-.625 1.894-.36 3.97-.788 6.169-1.132 1.26-.2 2.482-.36 3.663-.486 1.18-.126 2.313-.192 3.379-.234 2.13-.083 3.99-.034 5.437.027h-.016l2.322-1.26.62-.335.16-.084c.016-.015.035-.028.055-.038z"/>
    <path fill="#455A64" d="M49.086 52.311c11.318-.505 34.15-.927 45.468-1.44 0 0 .372-1.243-.693-2.021-.387-.283-2.738-2.061-5.483-3.107-3.367-1.256-6.88-2.077-10.454-2.442-2.017-.164-5.705-.314-5.705-.314s-6.751.27-8.64.44c-2.374.197-4.693.828-6.84 1.86-2.349 1.178-6.454 4.621-6.454 4.621l-2.88 2.409 1.68-.006z"/>
    <path fill="#263238" d="M69.915 42.662l-2.185 9.34 3.962-.126.786-9.214h-2.563zM87.039 44.922l-.384 6.327h.55l.372-6.129-.538-.198zM49.514 50.17c.18.231 1.18 2.492 1.18 2.492l-3.824-.25 2.644-2.243z"/>
    <path fill="#E8505B" d="M53.1 52.437l-2.92.081c-.383 0-.686-.687-.673-1.524.01-.749.27-1.38.612-1.49l2.766-.877.215 3.81z"/>
    <path fill="#455A64" d="M71.156 42.555c.025 0-.285 2.132-.69 4.754-.405 2.623-.758 4.745-.783 4.74-.025-.006.283-2.132.69-4.754.406-2.623.755-4.745.782-4.74zM49.627 50.03c-.098.342-.248.667-.446.962-.171.312-.39.594-.65.837-.021-.018.27-.389.57-.886.301-.496.501-.923.526-.912z"/>
    <path fill="#EBEBEB" d="M65.782 44.36c-.011.028-.026.053-.043.076l-.135.21c-.128.195-.3.454-.51.768-.433.646-1.029 1.539-1.679 2.532-.65.994-1.227 1.898-1.645 2.553l-.498.774c-.054.084-.101.153-.139.208-.014.026-.032.05-.052.07 0 0 .009-.028.036-.079l.124-.217c.11-.19.27-.46.472-.79.405-.667.975-1.577 1.62-2.57.644-.995 1.26-1.882 1.7-2.52.224-.318.407-.575.54-.75.062-.079.11-.145.152-.201.041-.056.054-.065.057-.063zM64.121 45.768c-.271.46-.568.904-.891 1.329-.296.444-.619.87-.967 1.274.272-.46.57-.903.891-1.328.297-.444.62-.87.967-1.275z"/>
    <path fill="#F5F5F5" d="M121.577 57.315s-.94.06-1.649-.244c-.269-.114-.512-.28-.716-.49-.203-.21-.362-.458-.467-.73-.106-.272-.155-.563-.146-.855.01-.291.078-.578.201-.843l.01-.022c.163-.337.415-.624.73-.827.315-.203.68-.316 1.054-.325h.393c.145.293.232.61.255.936.106.853.267 2.162.335 3.4z"/>
    <path fill="#EBEBEB" d="M79.999 44.663c.022.015-.843 1.413-1.93 3.125s-1.98 3.087-2.008 3.073c-.03-.015.84-1.412 1.93-3.123 1.088-1.712 1.986-3.09 2.008-3.075zM79.7 46.429c-.188.375-.403.736-.644 1.08-.214.362-.455.708-.72 1.035.188-.375.404-.736.646-1.08.213-.362.453-.708.718-1.035zM52.432 49.169c-.711.336-1.471.558-2.252.657 0-.027.504-.148 1.123-.33.62-.182 1.12-.353 1.129-.327zM68.1 53.123c0 .027-4.75.047-10.606.047-5.858 0-10.61-.02-10.61-.047s4.749-.047 10.61-.047c5.86 0 10.607.022 10.607.047zM66.542 55.01c-.512.047-1.027.063-1.54.046-.516.017-1.03.001-1.543-.046.512-.047 1.027-.063 1.542-.047.514-.015 1.029 0 1.54.047zM32.05 57.148c-.039.004-.079.004-.118 0h-.337c-.412 0-.823.025-1.231.075-1.352.162-2.654.612-3.816 1.322-1.162.709-2.157 1.66-2.918 2.79-.231.34-.442.694-.63 1.06-.07.13-.115.232-.151.3-.015.037-.034.072-.058.103.011-.038.025-.074.042-.11.03-.07.07-.18.135-.31.176-.373.378-.734.606-1.08.753-1.15 1.752-2.117 2.925-2.834 1.173-.715 2.49-1.162 3.858-1.305.411-.046.826-.062 1.24-.047.146 0 .26.016.336.021.04 0 .08.005.117.015zM86.306 52.625c0 .025-3.144.046-7.02.046-3.875 0-7.02-.021-7.02-.046 0-.026 3.143-.047 7.02-.047s7.02.02 7.02.047zM92.466 54.734c-.17.014-.339.014-.508 0-.313 0-.745-.016-1.222-.02-.477-.003-.91 0-1.222 0-.17.012-.34.01-.508-.009.166-.035.336-.055.506-.057.313-.02.745-.036 1.224-.035.479.002.912.024 1.226.05.17.006.339.03.504.071z"/>
    <path fill="#B78876" d="M103.863 38.419c-.334 0-.654-.133-.891-.37-.236-.235-.369-.556-.369-.89v-1.44s-1.035-.162-1.047-1.197c-.013-1.035.167-3.42.167-3.42.589-.253 1.234-.344 1.87-.264.636.08 1.238.328 1.746.72l-.245 5.691c-.02.314-.157.61-.386.826-.228.217-.53.34-.845.344z"/>
    <path fill="#AA6550" d="M102.618 35.71c.478.008.948-.126 1.35-.385 0 0-.321.747-1.354.653l.004-.268z"/>
    <path fill="#B78876" d="M105.238 32.758c.018 0 .72-.209.69.499-.031.707-.729.54-.729.518l.039-1.017z"/>
    <path fill="#AA6550" d="M105.424 33.514s.011.009.032.02c.015.006.03.009.046.009s.031-.003.046-.01c.047-.026.085-.066.111-.113.027-.047.04-.1.038-.154.004-.062-.005-.123-.028-.18-.006-.023-.018-.043-.033-.06-.016-.017-.036-.03-.057-.038-.014-.004-.029-.004-.043.002-.014.006-.025.016-.031.029-.009.02 0 .034-.009.036-.009.002-.015-.013 0-.041.004-.018.015-.033.03-.044.01-.007.021-.012.033-.015.012-.003.024-.003.036 0 .028.007.054.02.076.04s.038.045.048.073c.028.062.041.13.038.198.002.063-.015.126-.049.18-.034.053-.084.095-.142.12-.019.005-.039.005-.058.001-.019-.003-.038-.011-.054-.022-.03-.017-.034-.03-.03-.031z"/>
    <path fill="#263238" d="M102.112 32.718c0 .04.015.076.042.104.027.028.063.044.102.046.019.001.037-.001.055-.007.018-.006.034-.015.049-.028.014-.012.025-.027.033-.044.008-.017.013-.036.014-.054 0-.02-.003-.039-.01-.056-.007-.018-.017-.035-.03-.049-.013-.013-.029-.025-.047-.032-.017-.008-.036-.012-.055-.013-.019-.001-.038.001-.056.007-.018.006-.034.015-.049.028-.014.012-.025.027-.034.044-.008.017-.013.036-.014.054zM101.932 32.57c.02.019.131-.064.29-.062.158.002.277.079.293.06.016-.02-.011-.044-.061-.082-.069-.047-.151-.072-.234-.072-.083 0-.164.027-.23.076-.049.038-.067.072-.058.08zM103.671 32.718c0 .04.015.076.041.104.027.028.064.044.103.046.018.001.037-.001.055-.007.018-.006.034-.015.048-.028.015-.012.026-.027.034-.044.008-.017.013-.036.014-.054 0-.02-.003-.039-.01-.056-.007-.018-.017-.035-.03-.049-.013-.013-.029-.025-.047-.032-.017-.008-.036-.012-.055-.013-.019-.001-.038.001-.056.007-.018.006-.035.015-.049.028-.014.012-.026.027-.034.044-.008.017-.013.036-.014.054z"/>
    <path fill="#263238" d="M103.498 32.6c.018.02.129-.063.29-.063.16 0 .275.08.291.06.016-.019-.009-.042-.061-.08-.069-.048-.15-.074-.234-.072-.083-.001-.164.025-.23.074-.049.037-.065.072-.056.08zM102.92 33.78c-.084-.026-.171-.042-.259-.046-.04 0-.079-.013-.087-.04-.003-.042.007-.084.027-.12.04-.1.08-.202.121-.31.112-.262.202-.533.27-.81-.132.253-.244.516-.335.786-.039.108-.077.213-.115.312-.025.049-.032.105-.02.158.006.015.015.028.026.038.012.01.026.018.041.022.022.006.045.01.068.01.088.012.176.012.263 0zM103.388 33.888c-.025 0-.027.18-.18.294-.153.113-.331.104-.333.128-.002.023.041.034.119.036.104.003.206-.031.286-.098.075-.06.123-.148.135-.244.004-.072-.014-.116-.027-.116zM103.46 31.977c.016.043.18.021.36.045.18.023.337.074.36.034.023-.04-.014-.06-.076-.1-.081-.053-.173-.086-.27-.094-.095-.012-.192 0-.282.032-.069.027-.103.061-.092.083zM101.991 32.11c.027.036.137 0 .27 0s.243.025.268-.013c.026-.037 0-.055-.054-.09-.065-.04-.142-.061-.22-.059-.077.003-.152.028-.215.074-.045.032-.061.066-.049.088z"/>
    <path fill="#263238" d="M101.232 30.468c-.007-.064.002-.129.027-.189s.064-.112.115-.153c.053-.04.119-.06.185-.055.067.005.129.034.175.082-.01-.043-.01-.088-.001-.131.008-.044.026-.085.052-.121.025-.037.058-.067.096-.09.038-.023.081-.037.125-.043.169-.009.313.117.477.162.162.036.332.016.482-.056.153-.06.297-.145.452-.203.328-.12.69-.105 1.007.04.317.146.564.411.687.738.115-.029.237-.021.348.021.112.042.208.117.276.214.131.201.184.444.148.68-.023.16-.062.315-.119.465v.04c-.011.57-.075 1.238-.318 1.242-.423 0-.323-.79-.323-.79-.52-.202-.325-.981-.457-1.098-.131-.117-.401-.393-1.488.163-.406.182-.858.23-1.293.139h-.027c-.098-.024-.193-.064-.279-.117-.102-.059-.183-.148-.23-.256-.023-.054-.029-.114-.019-.171.011-.058.038-.112.078-.154-.095-.099-.156-.224-.176-.359z"/>
    <path fill="#B78876" d="M114.035 37.461c-.025.044-.32.6-.32.6l.243-.942c.075-.297-.108-.266-.162-.16-.054.106-.387 1.003-.387 1.003.311-1.167.214-1.271.126-1.289-.089-.018-.36 1.05-.36 1.05-.072-.122-.168-.227-.283-.308-.283-.195-.752 0-.774.133-.022.133.144.169.144.169.066-.05.146-.08.228-.085.083-.006.166.013.238.054.072.041.131.102.169.176.037.074.053.158.044.24-.006.061-.033.118-.077.161-.043.044-.1.07-.161.076-.061.006-.122-.009-.173-.043-.051-.034-.088-.085-.106-.143-.117-.526-.297-.36-.297-.36l.18 1.16-.191.584-1.051 2.85-2.009-2.092s-1.08 2.374-1.098 2.453c-.018.08 1.006 1.12 1.68 1.813.238.244.538.42.867.508.33.089.677.087 1.006-.005.329-.092.627-.271.862-.518.236-.247.401-.553.478-.885l.793-4.092.373-1.34.166-.672c.041-.157-.078-.209-.148-.096zM96.19 45.455c.6.106 1.287-.326 1.656-.81l1.496-1.97-1.759-1.569-1.575 1.962-5.915-.313-1.393-.777c-.096-.054-.207-.075-.315-.058l-1.922.54 1.8.554L91.41 44.2l4.779 1.256z"/>
    <path fill="#E8505B" d="M109.596 74.444l.249 1.042s1.702 2.21 2.228 2.103c.344-.07-.079-.648-.72-2.328l-.135-.693-1.622-.124z"/>
    <path fill="#263238" d="M112.141 77.268c-.002.011-.006.022-.012.031-.018.028-.042.051-.072.067-.046.025-.099.036-.151.034-.07-.007-.136-.032-.193-.072-.305-.245-.592-.512-.859-.8-.269-.282-.523-.58-.761-.89-.09-.121-.162-.218-.209-.288-.02-.027-.038-.054-.054-.08l-.018-.028s.009 0 .024.025l.059.075.218.281c.18.234.45.553.765.882.266.285.549.553.848.803.044.037.098.061.156.07.057.008.116 0 .169-.023.038-.02.069-.05.09-.087z"/>
    <path fill="#263238" d="M111.9 76.548h-.137c-.108.017-.213.056-.306.116-.095.055-.175.134-.23.23-.041.074-.052.126-.058.126.001-.048.014-.095.036-.137.053-.103.134-.19.234-.248.097-.061.207-.099.321-.11.048-.006.097.002.14.023zM110.289 76.032s.018-.074.031-.195c.017-.156-.013-.315-.085-.455-.071-.141-.185-.257-.326-.33-.057-.027-.118-.049-.18-.066.018-.003.037-.003.054 0 .05.008.097.023.143.043.149.07.27.188.343.335.077.146.105.312.08.475-.007.049-.019.096-.035.142-.014.027-.014.053-.025.05z"/>
    <path fill="#263238" d="M109.706 74.62c.048.104.08.215.094.328.03.18.065.33.057.333-.047-.103-.078-.214-.09-.327-.032-.184-.07-.33-.061-.333zM111.38 75.409c0 .009-.097 0-.21.032-.114.033-.2.072-.206.063.055-.05.123-.083.197-.095.071-.022.148-.022.219 0zM111.411 75.587s-.081 0-.18.024c-.099.023-.162.066-.169.057.042-.047.099-.08.162-.09.061-.02.128-.017.187.01zM111.547 75.81c-.059-.006-.12-.006-.18 0-.058.02-.114.044-.169.072.018-.028.041-.052.069-.07.029-.018.06-.03.093-.034.032-.009.065-.01.098-.005.032.005.063.018.089.037zM111.26 75.333c-.02.003-.039.003-.058 0-.051-.01-.102-.024-.151-.041-.073-.026-.144-.057-.213-.094-.04-.022-.078-.046-.115-.073-.023-.014-.043-.033-.058-.055-.015-.023-.025-.048-.028-.075.002-.014.007-.028.015-.04.008-.013.018-.024.03-.031.013-.008.027-.013.041-.015.015-.002.029-.001.043.003.047.016.088.044.119.081.056.053.108.11.157.17.041.052.074.095.093.125.012.015.022.032.029.049 0 0-.052-.061-.14-.158-.043-.049-.097-.105-.16-.164-.028-.032-.064-.057-.105-.07-.038-.01-.088.01-.088.052 0 .041.036.075.07.102.034.027.076.05.114.072.065.038.134.071.205.1.12.04.2.057.2.062z"/>
    <path fill="#263238" d="M111.169 75.312c-.003-.017-.003-.035 0-.052 0-.033 0-.081.011-.14.008-.072.026-.142.054-.208.017-.04.039-.076.067-.108.014-.022.035-.038.06-.046.025-.008.052-.007.077.003.019.016.034.037.043.06.008.025.009.05.003.075-.007.042-.02.083-.037.122-.03.067-.07.128-.121.18-.034.035-.071.066-.11.094-.027.018-.043.027-.045.025-.002-.002.058-.047.137-.135.046-.05.083-.108.11-.17.016-.037.027-.075.034-.114 0-.038 0-.087-.031-.103-.03-.016-.07 0-.097.036-.025.03-.046.064-.063.1-.027.062-.047.129-.057.197-.009.062-.02.123-.035.184z"/>
    <path fill="#000" d="M109.845 75.486l-.121-.5s.418.077.526.389c.064.172.092.356.083.54l.9.977s.228-.444.64-.338c0 0 .324.72.314.89-.011.172-.218.16-.292.125-.3-.174-.573-.39-.812-.64-.475-.505-1.006-1.137-1.238-1.443z" opacity=".4"/>
    <path fill="#E8505B" d="M101.133 74.972l-.009-1.39 2.601-.03.034 2.03-.162.012c-.72.049-3.65.197-4.14.056-.528-.155 1.676-.678 1.676-.678z"/>
    <path fill="#000" d="M102.816 75.573c.035-.22.15-.419.324-.558.17-.14.387-.21.606-.196v.72l-.93.034z" opacity=".4"/>
    <path fill="#000" d="M100.056 75.265s-.772.234-.673.36c.099.126 3.06.088 4.376-.043v-.058l-3.463.074s-.089-.328-.24-.333z" opacity=".4"/>
    <path fill="#263238" d="M103.795 75.522h-.045l-.128.01-.473.026c-.4.018-.951.038-1.561.047-.61.01-1.161 0-1.56 0l-.474-.014h-.173 2.214c.611 0 1.161-.024 1.561-.038l.472-.016h.129l.038-.015z"/>
    <path fill="#263238" d="M100.292 75.638c-.023-.078-.054-.154-.092-.225-.048-.066-.103-.127-.164-.18.079.033.145.09.191.161.046.072.068.157.065.242v.002zM101.053 75.238s-.045-.038-.082-.097c-.038-.06-.065-.112-.058-.117.007-.006.045.04.085.099.039.06.063.111.055.115zM101.262 75.125s-.047-.02-.092-.06c-.045-.04-.077-.077-.072-.084.006-.008.047.021.094.06.047.04.077.076.07.084zM101.394 74.878c-.044.016-.091.022-.137.018-.046.006-.092.002-.135-.013.043-.015.089-.02.135-.018.046-.006.093-.001.137.013zM101.437 74.703c-.044.032-.097.048-.151.047-.053.01-.108.003-.157-.02.051-.008.102-.012.153-.012.051-.008.103-.013.155-.015z"/>
    <path fill="#263238" d="M100.964 75.013c-.056.01-.113.01-.168 0-.061-.007-.121-.02-.18-.038-.035-.01-.07-.022-.102-.04-.021-.01-.037-.03-.044-.052-.002-.012-.002-.025.003-.037.004-.011.012-.022.023-.03.063-.032.135-.041.205-.026.069.016.131.055.174.111.027.032.046.07.056.11.004.015.004.03 0 .045-.018-.05-.044-.098-.077-.14-.039-.044-.089-.076-.144-.092-.066-.02-.138-.015-.2.016-.025.02-.016.052.014.069.03.016.061.03.094.04.059.017.119.031.18.04.101.02.166.019.166.024z"/>
    <path fill="#263238" d="M100.92 75.022c-.011-.017-.018-.036-.022-.056-.004-.02-.003-.04.001-.06.004-.044.02-.086.045-.123.013-.025.033-.046.057-.061s.051-.024.08-.026c.008.002.016.005.024.01.007.004.013.01.018.018.005.007.008.015.01.024.002.008.002.017 0 .026-.003.026-.012.051-.027.073-.021.038-.047.073-.078.103-.052.052-.093.072-.095.068-.002-.003.034-.03.079-.082.026-.032.049-.066.069-.101.023-.036.037-.101 0-.108-.038-.007-.083.04-.108.074-.024.032-.04.069-.047.108-.005.037-.007.075-.006.113zM103.732 74.811c-.064-.003-.129-.003-.193 0-.152.021-.296.083-.416.18-.119.098-.208.227-.257.373-.038.113-.041.18-.047.18-.003-.017-.003-.035 0-.052.005-.048.014-.095.027-.14.045-.154.135-.29.258-.392.124-.101.276-.162.435-.176.048-.005.096-.005.144 0 .018.006.035.015.049.027z"/>
    <path fill="#263238" d="M103.449 73.731c.021.18.03.36.029.54.011.18.011.36 0 .54-.021-.179-.031-.36-.031-.54-.01-.18-.01-.36.002-.54zM102.484 75.324c-.124.03-.252.044-.379.042-.128.009-.255 0-.38-.025 0-.01.171 0 .38 0 .208 0 .378-.026.379-.017zM102.994 75.317s-.013.036-.031.074c-.018.038-.025.074-.034.074-.009 0-.014-.042 0-.087.014-.045.059-.068.065-.06zM103.183 75.074s-.009.034-.036.061c-.027.027-.054.045-.059.04-.006-.005.009-.034.036-.061.027-.027.054-.045.059-.04zM103.46 74.963c0 .009-.036.009-.074.023s-.065.034-.072.027c-.007-.007.015-.041.061-.058.047-.016.085-.001.085.008zM103.651 74.909s-.011.021-.033.03c-.021.01-.041.01-.044 0-.004-.009.012-.021.034-.03.021-.01.041-.01.043 0z"/>
    <path fill="#455A64" d="M112.359 74.63l-5.142-27.234-7.148 1.089.507 25.887 4.05.085-.673-22.585 4.556 22.758h3.85z"/>
    <path fill="#263238" d="M108.007 50l-8.17-.304.232-7.457-1.071 1.222-2.185-1.892 2.403-3.274c.309-.418.698-.769 1.145-1.033.447-.265.943-.437 1.458-.506.304-.042.54-.063.687-.081.868.274 1.799.274 2.666 0 .377.013.749.084 1.103.212.668.237 1.271.627 1.761 1.14l2.68 3.623-2.291 1.98-1.305-1.148.887 7.518z"/>
    <path fill="#455A64" d="M100.191 39.423c.025 0 0 1.242-.057 2.77-.058 1.529-.125 2.769-.15 2.767-.025-.002 0-1.24.056-2.77s.124-2.767.151-2.767zM106.83 39.913c.099.53.166 1.064.201 1.602.068.534.104 1.072.11 1.611-.099-.53-.167-1.064-.202-1.602-.067-.535-.104-1.072-.109-1.611zM102.83 36.756c.016.021-.047.095-.139.169-.091.074-.18.113-.196.094-.016-.02.047-.096.139-.17.092-.073.18-.113.196-.093zM103.201 36.837c.023.012 0 .088-.018.18s-.049.158-.076.156c-.027-.001-.041-.084-.014-.18.027-.095.086-.169.108-.156zM103.624 36.89c.027 0 .05.07.056.157.005.089-.015.159-.04.16-.025.002-.05-.068-.054-.156-.004-.088.013-.16.038-.16zM104.167 36.85c.027 0 .049.075.074.165.025.09.042.167.02.18-.022.013-.083-.052-.112-.155-.028-.102-.007-.19.018-.19zM104.774 36.785c.025-.01.067.045.115.11.049.064.09.118.074.14-.016.021-.09 0-.148-.085-.057-.084-.064-.156-.041-.165zM105.093 36.693c.014-.022.077 0 .138.034.061.034.101.09.087.112-.015.021-.076 0-.137-.033-.061-.032-.101-.092-.088-.113z"/>
    <path fill="#FAFAFA" d="M107.001 41.684c0 .027-1.532.049-3.42.05-1.889.002-3.42-.02-3.42-.044 0-.026 1.531-.049 3.42-.05 1.888-.003 3.42.019 3.42.044zM107.06 42.19c0 .027-1.532.049-3.42.05-1.888.002-3.42-.02-3.42-.045 0-.025 1.532-.048 3.42-.048s3.42.021 3.42.043zM107.119 42.696c0 .027-1.575.061-3.515.079-1.94.018-3.517 0-3.517-.016s1.573-.061 3.515-.078c1.942-.016 3.517-.01 3.517.015zM109.339 39.735c-.084.118-.182.227-.292.322-.191.18-.464.441-.777.706-.314.264-.607.491-.825.648-.111.091-.232.17-.36.235.099-.106.208-.203.326-.288l.806-.667.792-.683c.102-.1.212-.192.33-.273zM109.76 40.188c-.105.125-.221.24-.347.342-.224.2-.54.467-.9.747-.36.281-.702.519-.954.683-.131.097-.272.18-.42.248.117-.113.245-.214.382-.302.241-.18.572-.425.936-.702.363-.278.684-.54.918-.72.119-.11.248-.21.385-.296zM109.963 40.615c-.385.393-.793.763-1.222 1.109-.408.369-.837.714-1.285 1.035.387-.392.796-.761 1.224-1.107.409-.369.837-.715 1.283-1.037zM100.094 41.843c-.126-.052-.244-.124-.347-.213-.258-.202-.499-.424-.72-.666-.263-.277-.495-.54-.66-.72-.097-.096-.182-.202-.255-.317.111.079.213.17.303.27.18.18.417.425.68.702.22.239.45.465.693.679.107.082.21.17.306.265zM99.86 42.46c-.13-.073-.25-.162-.36-.263-.207-.18-.488-.423-.781-.72-.293-.297-.55-.563-.72-.768-.103-.105-.193-.222-.268-.348.115.09.22.192.317.303.18.192.45.459.743.747s.565.54.761.72c.114.098.217.209.308.329zM99.612 42.9c-.119-.091-.229-.192-.328-.303-.194-.193-.464-.457-.77-.744-.306-.286-.59-.54-.798-.72-.117-.09-.226-.192-.326-.302.133.068.257.153.37.252.217.167.51.41.818.697.308.286.571.561.755.766.106.107.2.225.279.353z"/>
    <path fill="#455A64" d="M107.991 49.656c0 .026-1.817 0-4.056-.055-2.239-.056-4.053-.123-4.053-.148 0-.025 1.816 0 4.055.054s4.054.122 4.054.15z"/>
    <path fill="#E8505B" d="M126.23 65.208c.233.117.441.28.61.479.169.199.297.43.374.679.152.5.188 1.028.105 1.544-.133 1-.72 1.998-1.348 2.787-.828-.751-.999-2.038-1.044-2.7-.071-1.039.432-2.963 1.303-2.792M126.919 72.37c-.052-.287-.027-.582.072-.857.1-.274.27-.517.494-.705.225-.182.484-.318.762-.4.278-.08.57-.107.858-.075.134 0 .268.03.389.088.122.057.23.141.316.245.065.109.099.233.099.36 0 .127-.034.251-.099.36-.131.216-.318.393-.54.513-.738.445-1.535.74-2.356.475"/>
    <path fill="#263238" d="M125.78 75.42c.004-.07.015-.138.032-.205.031-.144.069-.332.114-.555.105-.617.31-1.212.606-1.764.308-.55.757-1.01 1.3-1.33.165-.094.341-.168.524-.22.049-.015.1-.027.151-.036h.052c-.244.078-.479.18-.702.306-.524.328-.958.782-1.26 1.322-.29.546-.499 1.132-.619 1.738-.056.233-.101.422-.135.55-.016.066-.037.13-.063.194z"/>
    <path fill="#263238" d="M125.976 66.711c.004.03.004.06 0 .09 0 .067 0 .152.011.258 0 .225.014.549.02.95.011.803.011 1.912-.018 3.136-.029 1.224-.079 2.33-.126 3.134-.025.4-.047.72-.065.946 0 .107-.016.191-.023.258 0 .03-.005.06-.013.09-.002-.03-.002-.06 0-.09v-.26l.041-.948c.035-.801.078-1.908.107-3.132.028-1.224.036-2.34.037-3.134v-.95-.258c.008-.03.017-.06.029-.09z"/>
    <path fill="#E8505B" d="M125.451 72.948c-.09-.609-.324-1.188-.683-1.689-.358-.5-.831-.909-1.378-1.19-.279-.141-.645-.235-.881-.031-.235.203-.19.583-.082.876.235.61.647 1.135 1.181 1.51.534.377 1.168.586 1.821.602"/>
    <path fill="#263238" d="M123.508 71.03c.063.02.123.048.18.08.069.034.136.072.2.112.074.049.166.097.254.166.101.07.198.147.29.228.108.09.211.187.308.29.451.47.78 1.043.957 1.67.038.136.068.274.09.413.022.119.037.239.043.36.009.1.012.201.009.302.001.077-.002.153-.01.229-.002.065-.01.13-.026.194-.016 0 .018-.279-.023-.72-.011-.12-.028-.24-.052-.36-.025-.136-.057-.272-.096-.405-.092-.305-.218-.599-.374-.876-.161-.275-.351-.531-.567-.765-.094-.103-.194-.2-.299-.292-.089-.082-.183-.158-.281-.23-.358-.261-.61-.382-.603-.397z"/>
    <path fill="#E8505B" d="M96.397 31.219c-.148-.108-.332-.153-.513-.126-.18.028-.343.126-.452.274-.052-.077-.119-.142-.197-.192-.078-.05-.165-.084-.256-.1-.091-.015-.185-.012-.275.009-.09.021-.175.06-.25.115-.132.126-.217.294-.24.475-.021.182.021.365.12.519.272.425.787.608 1.105.992.32-.384.809-.54 1.08-.972.1-.154.141-.338.119-.52-.023-.18-.108-.349-.241-.474z"/>
    <path fill="#263238" d="M98.96 35.006l-.117-.016-.36-.052-1.354-.207h.018c-.483.333-1.048.528-1.634.565-.547.034-1.094-.071-1.59-.304-.497-.233-.927-.588-1.25-1.03-.323-.443-.53-.96-.602-1.504-.07-.544-.004-1.097.194-1.608.199-.511.523-.964.942-1.317.42-.353.921-.595 1.459-.704.537-.108 1.094-.08 1.617.083.524.163.998.455 1.38.849.518.537.836 1.236.9 1.98.052.582-.056 1.167-.312 1.692v-.022l.522 1.188.135.308c.029.069.043.103.041.101l-.014-.029-.04-.08-.145-.31-.54-1.156v-.022c.261-.548.36-1.16.287-1.763-.075-.604-.32-1.173-.706-1.642-.387-.469-.9-.817-1.478-1.005-.578-.187-1.198-.206-1.786-.053-.588.153-1.12.47-1.534.915-.414.445-.693 1-.803 1.597-.11.598-.046 1.215.182 1.778.229.563.613 1.049 1.109 1.401.53.377 1.162.583 1.812.591.65.009 1.286-.181 1.826-.544h.009l1.33.236.36.064.094.018.048.002z"/>
</svg>
