<svg xmlns="http://www.w3.org/2000/svg" width="24" height="24" fill="none" viewBox="0 0 24 24">
    <path fill="#7B7B7B" d="M19.031 8.438h1.407c1.163 0 2.109-.947 2.109-2.11V2.11C22.547.946 21.6 0 20.437 0h-1.406c-1.163 0-2.11.946-2.11 2.11v1.406h-2.933c-.29-.819-1.071-1.407-1.988-1.407s-1.698.588-1.988 1.407H7.078V2.109C7.078.946 6.132 0 4.968 0H3.564c-1.164 0-2.11.946-2.11 2.11v4.218c0 1.163.946 2.11 2.11 2.11h1.406c1.163 0 2.11-.947 2.11-2.11V4.922h2.933c.212.598.687 1.073 1.285 1.285v5.137c-1.163 0-2.11.946-2.11 2.11v1.405c0 1.164.947 2.11 2.11 2.11v2.11H7.078v-1.407c0-1.163-.946-2.11-2.11-2.11H3.564c-1.164 0-2.11.947-2.11 2.11v4.219c0 1.163.946 2.109 2.11 2.109h1.406c1.163 0 2.11-.946 2.11-2.11v-1.406h9.843v1.407c0 1.163.946 2.109 2.11 2.109h1.405c1.164 0 2.11-.946 2.11-2.11v-4.218c0-1.163-.946-2.11-2.11-2.11h-1.406c-1.163 0-2.11.947-2.11 2.11v1.406h-4.218v-2.11c1.163 0 2.11-.945 2.11-2.109v-1.406c0-1.163-.947-2.11-2.11-2.11V6.208c.598-.212 1.073-.687 1.285-1.285h2.934v1.406c0 1.163.946 2.11 2.11 2.11zm-.703-6.329c0-.387.316-.703.703-.703h1.407c.387 0 .703.316.703.703v4.22c0 .387-.316.702-.703.702H19.03c-.387 0-.703-.315-.703-.703V2.11zM5.672 6.33c0 .387-.316.702-.703.702H3.562c-.387 0-.703-.315-.703-.703V2.11c0-.387.316-.703.704-.703h1.406c.387 0 .703.316.703.703v4.22zm0 15.562c0 .387-.316.703-.703.703H3.562c-.387 0-.703-.316-.703-.703v-4.22c0-.387.316-.702.704-.702h1.406c.387 0 .703.315.703.703v4.219zm12.656-4.22c0-.387.316-.702.703-.702h1.407c.387 0 .703.315.703.703v4.219c0 .387-.316.703-.703.703H19.03c-.387 0-.703-.316-.703-.703v-4.22zm-4.922-4.218v1.406c0 .388-.315.704-.703.704h-1.406c-.388 0-.703-.316-.703-.704v-1.406c0-.388.315-.703.703-.703h1.406c.388 0 .703.315.703.703zM12 4.922c-.388 0-.703-.316-.703-.703 0-.388.315-.703.703-.703.388 0 .703.315.703.703 0 .387-.315.703-.703.703z"/>
</svg>
