<svg xmlns="http://www.w3.org/2000/svg" width="24" height="24" fill="none" viewBox="0 0 24 24">
    <path fill="#7B7B7B" d="M20.484 8.484c-.388 0-.703.315-.703.704v.703h-1.406v-.704c0-.388-.315-.703-.703-.703h-1.115l-1.2-1.2c-.132-.132-.311-.206-.498-.206h-.703V5.672h.703c.389 0 .704-.315.704-.703 0-.389-.315-.703-.704-.703H7.734c-.388 0-.703.314-.703.703 0 .388.315.703.703.703h.704v1.406h-.704c-.186 0-.365.074-.497.206l-1.2 1.2H3.516c-.389 0-.704.315-.704.704V12H1.407V9.187c0-.388-.315-.703-.703-.703-.388 0-.703.315-.703.704v7.03c0 .39.315.704.703.704.388 0 .703-.315.703-.703v-2.813h1.407v2.813c0 .388.314.703.703.703h2.52l2.607 2.607c.132.131.311.205.498.205h7.125c.266 0 .51-.15.629-.388l1.212-2.424h1.674v.703c0 .388.315.703.703.703 1.939 0 3.516-1.577 3.516-3.515V12c0-1.938-1.577-3.516-3.516-3.516zM5.625 15.516H4.219V9.89h1.406v5.625zm4.219-9.844h2.906v1.406H9.844V5.672zm7.125 10.38l-1.138 2.276h-6.4l-2.4-2.4v-6.45l.995-.994h6.542l1.2 1.2c.132.133.311.207.498.207h.703v6.162zm2.812-.536h-1.406v-4.22h1.406v4.22zm2.813-.704c0 .917-.588 1.7-1.407 1.99v-6.79c.819.29 1.407 1.071 1.407 1.988v2.813z"/>
    <path fill="#7B7B7B" d="M13.453 12.703h-1.675l.898-1.795c.174-.347.033-.77-.315-.943-.347-.174-.77-.033-.943.314l-1.406 2.813c-.233.466.106 1.017.629 1.017h1.674l-.897 1.795c-.174.348-.033.77.314.944.348.173.77.032.944-.315l1.406-2.812c.233-.467-.106-1.018-.629-1.018z"/>
</svg>
