<svg xmlns="http://www.w3.org/2000/svg" width="24" height="24" fill="none" viewBox="0 0 24 24">
    <path fill="#7B7B7B" d="M14.79 2.813H6.351c-.389 0-.704.314-.704.703v5.066c0 .389.315.704.704.704h8.437c.388 0 .703-.315.703-.704V3.516c0-.389-.315-.704-.703-.704zm-.704 5.066H7.055V4.22h7.031v3.66z"/>
    <path fill="#7B7B7B" d="M22.298 4.468c-.307-.238-.749-.182-.987.125L19.39 7.075c-.095.123-.147.274-.147.43v7.929h-.937V2.109C18.305.946 17.358 0 16.195 0H4.945c-1.163 0-2.11.946-2.11 2.11V19.78h-.702c-.389 0-.703.315-.703.703v2.813c0 .388.315.703.703.703h16.875c.388 0 .703-.315.703-.703v-2.813c0-.388-.315-.703-.703-.703h-.703V16.84h1.64c.389 0 .703-.315.703-.703V9.82h.451c.389 0 .703-.315.703-.703V6.255l.621-.801c.238-.307.182-.749-.125-.986zM4.242 2.109c0-.387.316-.703.703-.703h11.25c.388 0 .703.316.703.703v17.672H4.242V2.11zm14.063 19.078v1.407H2.835v-1.407h15.47z"/>
    <path fill="#7B7B7B" d="M8.184 10.785H6.352c-.389 0-.704.315-.704.703 0 .388.315.703.704.703h1.832c.388 0 .703-.315.703-.703 0-.388-.315-.703-.703-.703z"/>
</svg>
