<svg xmlns="http://www.w3.org/2000/svg" width="24" height="24" fill="none" viewBox="0 0 24 24">
    <path fill="#7B7B7B" d="M12.047 0C5.489 0 0 5.298 0 11.953 0 18.571 5.459 24 12.047 24 18.709 24 24 18.504 24 11.953 24 5.347 18.654 0 12.047 0zm0 22.603c-5.867 0-10.65-4.783-10.65-10.65 0-5.815 4.783-10.556 10.65-10.556 5.815 0 10.556 4.74 10.556 10.556 0 5.867-4.74 10.65-10.556 10.65z"/>
    <path fill="#7B7B7B" d="M12.047 2.813c-5.053 0-9.235 4.1-9.235 9.14 0 2.466.976 4.856 2.678 6.557.274.275.72.275.994 0l.997-.997c.274-.274.274-.72 0-.994-.275-.274-.72-.274-.994 0l-.476.476c-1-1.211-1.62-2.737-1.761-4.339h.672c.388 0 .703-.315.703-.703 0-.388-.315-.703-.703-.703h-.67c.146-1.6.788-3.061 1.772-4.232l.463.463c.274.274.72.275.994 0s.274-.72 0-.994l-.46-.46c1.193-.988 2.686-1.632 4.323-1.777v.672c0 .388.315.703.703.703.388 0 .703-.315.703-.703v-.67c1.557.14 2.982.744 4.137 1.673l-6.061 4.308c-.615.437-.982 1.08-.982 1.72 0 .048.002.096.005.143.08 1.08 1.054 1.966 2.198 1.966.681 0 1.324-.332 1.72-.888l4.308-6.06c.929 1.154 1.533 2.579 1.674 4.136h-.67c-.39 0-.704.315-.704.703 0 .388.315.703.703.703h.672c-.142 1.6-.762 3.124-1.763 4.336l-.473-.473c-.275-.274-.72-.274-.995 0-.274.275-.274.72 0 .994l.994.995c.275.274.72.274.995 0 1.703-1.703 2.68-4.093 2.68-6.555 0-5.04-4.097-9.14-9.141-9.14zm.574 9.547c-.132.185-.347.296-.574.296-.41 0-.797-.341-.797-.703 0-.177.157-.408.39-.574l3.39-2.41-2.41 3.39z"/>
    <path fill="#7B7B7B" d="M13.453 16.969h-2.906c-1.163 0-2.11.946-2.11 2.11 0 1.162.947 2.108 2.11 2.108h2.906c1.163 0 2.11-.946 2.11-2.109s-.947-2.11-2.11-2.11zm0 2.812h-2.906c-.388 0-.703-.315-.703-.703 0-.388.315-.703.703-.703h2.906c.388 0 .703.315.703.703 0 .388-.315.703-.703.703z"/>
</svg>
