<svg xmlns="http://www.w3.org/2000/svg" width="24" height="24" fill="none" viewBox="0 0 24 24">
    <path fill="#7B7B7B" fill-rule="evenodd" d="M22 12c0 5.523-4.477 10-10 10S2 17.523 2 12 6.477 2 12 2s10 4.477 10 10zm2 0c0 6.627-5.373 12-12 12S0 18.627 0 12 5.373 0 12 0s12 5.373 12 12zM7 8c0 .37-.201.693-.5.866V11.5h5V8.866C11.201 8.693 11 8.37 11 8c0-.552.448-1 1-1s1 .448 1 1c0 .37-.201.693-.5.866V11.5H15c1.38 0 2.5-1.12 2.5-2.5v-.134C17.201 8.693 17 8.37 17 8c0-.552.448-1 1-1s1 .448 1 1c0 .37-.201.693-.5.866V9c0 1.933-1.567 3.5-3.5 3.5h-2.5v2.634c.299.173.5.496.5.866 0 .552-.448 1-1 1s-1-.448-1-1c0-.37.201-.693.5-.866V12.5h-5v2.634c.299.173.5.496.5.866 0 .552-.448 1-1 1s-1-.448-1-1c0-.37.201-.693.5-.866V8.866C5.201 8.693 5 8.37 5 8c0-.552.448-1 1-1s1 .448 1 1zm9.447 5H15v4h.824v-1.599h.407L17.012 17H18l-.95-1.69c.263-.052.464-.176.601-.372.138-.2.206-.44.206-.723 0-.234-.038-.428-.116-.582-.074-.158-.176-.283-.306-.373-.127-.094-.276-.16-.45-.198-.168-.041-.348-.062-.538-.062zm-.137 1.655h-.486v-.91h.539c.074 0 .15.006.227.018.077.011.146.034.206.068.06.03.109.075.148.135.038.06.058.141.058.243 0 .11-.023.194-.069.254-.042.06-.097.106-.164.136-.066.026-.142.043-.227.05-.08.005-.158.006-.232.006z" clip-rule="evenodd"/>
</svg>
