<svg xmlns="http://www.w3.org/2000/svg" width="46" height="90" fill="none" viewBox="0 0 46 90">
    <path fill="#455A64" d="M38.069 90l-30.526-.146C3.855 89.83.894 86.846.92 83.182l.315-76.557C1.258 2.96 4.244-.025 7.931 0l30.526.146c3.664 0 6.624 3.009 6.624 6.673l-.315 76.532C44.742 87.04 41.757 90 38.069 90z"/>
    <path fill="#FAFAFA" d="M38.142 2.147l-5.921-.025c-.801.025-1.456.68-1.456 1.505v1.067c.024.801-.631 1.48-1.432 1.505l-11.55-.049c-.8-.024-1.456-.703-1.432-1.504V3.578c.024-.8-.63-1.48-1.431-1.504h-2.087l-5.144-.049C5.116 2.001 3.005 4.088 3.005 6.66L2.69 81.373c0 2.572 2.087 4.659 4.659 4.659l30.477.145c2.572 0 4.659-2.062 4.683-4.635l.316-74.712c0-2.548-2.087-4.66-4.684-4.683.025 0 .025 0 0 0z"/>
    <path fill="#E8505B" d="M10.528 73.244h25.187c2.16 0 3.907 1.747 3.907 3.906v.704c0 2.16-1.747 3.907-3.907 3.907H10.528c-2.16 0-3.907-1.747-3.907-3.907v-.704c0-2.16 1.747-3.906 3.907-3.906z"/>
    <path fill="#E8505B" fill-rule="evenodd" d="M25.294 20.847L22.78 17.58l-2.513 3.268-3.745-1.725-.707 4.062-4.118.212 1.262 3.926-3.547 2.101 2.94 2.89-2.164 3.51 3.947 1.19-.285 4.114 4.049-.78 1.659 3.775 3.223-2.571 3.222 2.571 1.66-3.774 4.048.779-.285-4.113 3.947-1.192-2.165-3.51 2.942-2.889-3.548-2.101 1.262-3.926-4.118-.212-.707-4.062-3.745 1.725zm-4.158 10.688c.384.16.811.32 1.281.48l.673.224c.31.107.55.22.72.337.171.106.257.267.257.48 0 .214-.107.4-.32.56-.214.16-.582.24-1.106.24-.512 0-.987-.084-1.425-.255-.427-.171-.79-.374-1.09-.609-.213.118-.41.288-.592.513-.181.213-.272.475-.272.784 0 .257.064.486.192.689.128.203.305.379.529.529.235.149.507.272.817.368.32.096.672.165 1.057.208v.16c0 .47.117.774.352.913.235.15.56.224.977.224.213 0 .422-.016.624-.048.203-.032.353-.059.449-.08v-1.281c.886-.182 1.559-.523 2.018-1.025.459-.512.688-1.132.688-1.858 0-.854-.272-1.527-.816-2.018-.534-.502-1.303-.913-2.307-1.233l-.848-.272c-.278-.085-.486-.176-.625-.272-.139-.107-.208-.24-.208-.4 0-.204.112-.37.336-.497.224-.139.577-.208 1.057-.208.47 0 .902.058 1.297.176.395.107.71.235.945.384.182-.139.337-.304.465-.496.128-.203.192-.443.192-.721 0-.448-.203-.8-.609-1.057-.395-.256-.923-.427-1.585-.512v-.209c0-.47-.118-.774-.352-.913-.235-.149-.561-.224-.977-.224-.214 0-.422.016-.625.048s-.352.059-.448.08v1.298c-.833.181-1.474.523-1.922 1.025-.449.49-.673 1.1-.673 1.825 0 .47.075.87.224 1.201.16.32.38.598.657.833s.608.438.993.609z" clip-rule="evenodd"/>
    <g clip-path="url(#clip0)">
        <path fill="#E8505B" d="M64.969 55.124H13.156v7.587h51.813v-7.587z"/>
        <path fill="#000" d="M64.969 55.124H13.156v7.587h51.813v-7.587z" opacity=".5"/>
        <path fill="#263238" d="M20.457 67.638c2.753-.185 4.835-2.562 4.65-5.31-.185-2.748-2.567-4.825-5.32-4.64-2.753.184-4.835 2.562-4.65 5.31.185 2.747 2.567 4.825 5.32 4.64z"/>
        <path fill="#263238" d="M15.126 62.58v.01c-.037 2.75 2.167 5.014 4.922 5.061 2.755.037 5.024-2.162 5.071-4.912v-.01l-9.993-.149z"/>
        <path fill="#FAFAFA" d="M16.611 62.608c-.028 1.93 1.522 3.524 3.456 3.552 1.933.028 3.53-1.52 3.558-3.45.028-1.928-1.523-3.522-3.456-3.55-1.933-.028-3.53 1.519-3.558 3.448z"/>
        <path fill="#E0E0E0" d="M20.17 59.16c-1.934-.028-3.53 1.519-3.559 3.448l7.014.103c.028-1.93-1.513-3.523-3.456-3.551z"/>
        <path fill="#263238" d="M17.984 62.627c-.019 1.174.925 2.144 2.101 2.163 1.177.018 2.148-.923 2.167-2.098.019-1.174-.925-2.144-2.101-2.162-1.177-.019-2.148.923-2.167 2.097z"/>
        <path fill="#E8505B" d="M26.67 50.855s-7.36.54-10.087 1.155c-1.924.43-5.631 1.175-5.585 3.496l.29 1.668s-1.373.625-1.373 2.228c0 1.603-.336 4.082 2.877 4.176.532.018 1.531 0 1.531 0s-.616-6.823 5.66-7.019c6.387-.205 5.958 6.953 5.958 6.953h26.653s-1.092-6.972 5.781-6.99c6.874-.01 5.828 7.028 5.828 7.028s2.53.214 3.707-1.902c1.177-2.125.869-3.635.869-3.635l-.037-1.342c-.01-.457-.383-.82-.84-.839 0 0 .457-3.374-.244-3.961-.7-.588-4.566-4.11-4.566-4.11l.186-.113c.308-.196.252-.652-.093-.773-1.466-.504-4.37-1.501-5.053-1.734-.102-.037-.205-.056-.317-.065-.411-.028-1.56-.103-3.67-.13-2.578-.029-12.804 0-12.804 0s-3.52.288-5.482 1.146c-2.045.913-9.19 4.763-9.19 4.763z"/>
        <path fill="#000" d="M11.783 59.215c-.27-.056-.672-.056-.878.122-.15.13-.187.354-.215.55-.028.28-.046.559.019.83.065.27.224.53.467.66.243.131.579.113.766-.092.177-.187.196-.466.186-.718-.009-.364.02-.662-.046-1.016-.01-.065-.047-.15-.094-.205-.056-.084-.112-.121-.205-.13z" opacity=".4"/>
        <path fill="#FAFAFA" d="M11.297 57.174c.785 0 1.541-.046 2.316-.093.084-.01.178-.019.234-.075.075-.065.084-.186.084-.28 0-.419-.019-.894-.336-1.164-.197-.168-.458-.215-.72-.243-.625-.056-1.288-.009-1.877.187l.3 1.668z"/>
        <path fill="#fff" d="M27.52 63.307s0-.018-.01-.065c0-.046-.01-.112-.01-.196-.009-.177-.027-.428-.037-.755-.018-.326-.037-.727-.084-1.183-.047-.457-.121-.988-.27-1.548-.16-.559-.393-1.165-.757-1.752-.355-.587-.822-1.165-1.457-1.622-1.26-.895-2.96-1.398-4.744-1.426-1.784-.019-3.484.54-4.707 1.482-.617.457-1.13.997-1.532 1.557-.401.559-.69 1.137-.896 1.677-.206.55-.318 1.063-.374 1.53-.065.456-.056.857-.047 1.183.028.326.056.578.094.745.018.084.028.15.037.196.01.047.01.066.01.066s-.01-.02-.02-.066c-.008-.046-.018-.112-.036-.196-.038-.167-.075-.419-.103-.745-.019-.326-.028-.727.037-1.193.056-.457.168-.988.374-1.538.205-.55.495-1.128.896-1.697.392-.568.915-1.109 1.532-1.566 1.233-.95 2.942-1.51 4.735-1.49 1.793.018 3.502.53 4.772 1.434.635.457 1.102 1.044 1.466 1.632.355.596.598 1.193.747 1.761.159.569.224 1.09.271 1.557.047.466.066.867.075 1.193.01.326.028.578.028.755 0 .084.01.15.01.196v.074z"/>
        <path fill="#263238" d="M27.8 63.42v-.057c0-.037 0-.093-.01-.167 0-.15-.01-.364-.019-.644-.018-.568-.037-1.388-.065-2.442-.028-1.053-.065-2.33-.103-3.793-.01-.364-.018-.746-.028-1.138-.01-.195.01-.39.028-.596.019-.102.028-.196.047-.298.019-.103.037-.196.065-.298.094-.401.234-.802.42-1.194.187-.391.402-.773.682-1.137 1.43-.895 2.98-1.873 4.614-2.899.41-.26.822-.522 1.242-.782.41-.28.86-.523 1.317-.737.457-.214.943-.41 1.429-.569.242-.083.495-.158.747-.232.252-.066.504-.14.766-.187.99-.224 1.998-.326 2.979-.373.98-.046 1.942-.046 2.876.01h.028l-.01.027c-.438 1.977-.858 3.831-1.241 5.537-.234.382-.42.783-.56 1.193-.131.41-.215.82-.188 1.23.028.41.047.811.057 1.203.009.392.018.764.018 1.128.019 1.463.028 2.74.028 3.794v2.441c0-.568-.01-1.388-.018-2.441-.01-1.054-.02-2.33-.038-3.794l-.028-1.128c-.01-.392-.019-.783-.056-1.193-.028-.41.056-.839.187-1.25.14-.41.327-.81.56-1.202v.01c.383-1.706.794-3.57 1.233-5.537l.019.028c-.934-.056-1.896-.056-2.877-.01-.98.047-1.98.16-2.97.374-.261.056-.513.12-.765.186-.252.075-.505.15-.747.233-.495.168-.972.354-1.43.569-.457.214-.905.456-1.316.727-.42.26-.84.522-1.252.783-1.643 1.034-3.194 2.004-4.622 2.898h.009c-.28.355-.495.737-.682 1.128-.187.392-.317.793-.41 1.184-.206.802-.103 1.585-.103 2.321.037 1.463.065 2.74.093 3.794.028 1.053.047 1.883.056 2.442.01.28.01.494.01.643v.168c.027.028.027.046.027.046z"/>
        <path fill="#263238" d="M41.621 54.266s.028 0 .075-.01c.046-.008.121-.027.196-.074.075-.046.159-.14.196-.26.019-.066.028-.131.028-.206 0-.074-.019-.149-.056-.224-.075-.14-.233-.26-.43-.26h-2.073c-.121 0-.243.046-.327.13-.084.084-.14.186-.158.308-.01.12 0 .233.055.326.057.093.14.168.243.214.103.047.206.038.309.038H40.536c.337 0 .598.009.794.009h.215c.047.01.075.01.075.01s-.028 0-.075.008h-.215c-.196 0-.466 0-.793.01H39.52c-.056 0-.112-.019-.168-.037-.103-.047-.206-.122-.262-.234-.065-.102-.075-.233-.065-.354.01-.12.075-.251.168-.335.093-.084.224-.14.364-.14h2.073c.206 0 .383.13.458.289.037.074.056.158.056.233 0 .074-.01.149-.028.214-.047.13-.13.215-.215.27-.084.047-.159.066-.205.075-.047.01-.075 0-.075 0zM29.163 51.666l14.26-.261 9.283-.168 3.064-1.762c.252-.14.317-.466.14-.699l-1.905-2.498c-.197-.26-.505-.41-.832-.42l-10.385-.083s-3.913-.224-6.985 1.491c-3.25 1.818-6.64 4.4-6.64 4.4z"/>
        <path fill="#455A64" d="M35.7 46.036s.72.326.252.624c-.467.298-7.695 4.847-7.695 4.847l-1.662-.755c2.941-1.631 5.911-3.216 9.105-4.716z"/>
        <path fill="#263238" d="M28.49 51.619s-.018 0-.046.01c-.028.009-.075.018-.131.027-.121.028-.29.056-.504.103-.44.084-1.084.214-1.868.345-1.588.27-3.782.587-6.23.801-.606.056-1.204.093-1.783.13-.579.038-1.13.075-1.662.122-1.056.093-2.008.242-2.774.475-.775.224-1.364.504-1.746.727-.197.103-.337.205-.44.27-.046.029-.083.056-.111.075-.028.019-.038.019-.038.019s.01-.01.038-.028c.028-.019.065-.047.112-.075.102-.065.242-.167.439-.28.383-.232.97-.521 1.746-.745.775-.233 1.718-.392 2.783-.485.532-.046 1.083-.084 1.662-.12.58-.038 1.177-.085 1.784-.14 2.447-.215 4.642-.523 6.23-.784.793-.13 1.428-.251 1.876-.335.215-.038.393-.075.505-.093.056-.01.102-.02.13-.028.01.009.029.009.029.009zM51.268 60.418c0 .01-5.37.028-11.982.028-6.621 0-11.982-.01-11.982-.028 0-.01 5.37-.028 11.982-.028 6.612 0 11.982.019 11.982.028zM13.688 58.078c0 .01-.757.028-1.69.028-.934 0-1.69-.009-1.69-.028 0-.018.756-.028 1.69-.028.934 0 1.69.01 1.69.028z"/>
        <path fill="#455A64" d="M30.947 51.19s4.557-3.29 6.36-3.943c1.736-.633 2.642-.792 4.267-.839 1.56-.046 2.513 0 2.513 0l-1.205 4.624-11.935.158z"/>
        <path fill="#E8505B" d="M30.284 51.2c0-.289.159-.55.41-.7l1.047-.586c.298-.168.635-.252.98-.252.215 0 .42.037.626.102.448.15.747.57.766 1.044.028.653-.495 1.194-1.149 1.194h-1.868c-.457 0-.812-.355-.812-.802z"/>
        <path fill="#263238" d="M30.284 51.2s0 .037.009.102c.01.065.028.159.093.27.066.112.168.233.318.317.075.038.168.075.27.084.103.01.206.01.318.01.458 0 1 0 1.597-.01.15 0 .299-.018.448-.074.14-.056.28-.14.393-.252.112-.112.205-.252.27-.4.056-.16.085-.327.066-.495-.028-.335-.206-.652-.467-.839-.13-.093-.28-.149-.43-.186-.15-.037-.308-.056-.448-.056-.299 0-.579.065-.822.177-.121.056-.233.121-.336.177-.112.056-.215.121-.308.177-.196.112-.383.205-.532.299-.16.083-.262.205-.318.316-.065.112-.084.205-.093.27-.028.085-.028.112-.028.112s-.01-.037 0-.102c.009-.065.028-.168.084-.28.056-.111.158-.242.327-.326.158-.093.336-.196.532-.307.102-.056.205-.112.308-.178.112-.056.215-.13.346-.186.242-.112.532-.186.84-.186.15 0 .308.018.467.056.15.037.317.093.448.186.28.186.467.513.495.867.01.177-.01.354-.075.512-.065.159-.158.308-.28.42-.121.112-.261.205-.41.26-.15.057-.309.075-.458.075-.598 0-1.14 0-1.597-.009-.112 0-.224 0-.327-.01-.103-.018-.196-.046-.28-.092-.159-.094-.262-.215-.327-.327-.056-.111-.075-.214-.084-.28-.01-.055-.01-.093-.01-.093z"/>
        <path fill="#fff" d="M42.686 51.666h-.084c-.056 0-.14 0-.243.009-.215 0-.523.01-.897.019-.756.018-1.802.037-2.95.074-1.159.028-2.205.056-2.961.056h-1.224.084c.056 0 .14 0 .243-.01.215 0 .523-.009.897-.018.756-.019 1.802-.037 2.95-.075 1.159-.027 2.196-.055 2.952-.055h1.233zM41.444 53.073c0 .01-.365.028-.822.028-.449 0-.822-.01-.822-.028 0-.01.364-.028.822-.028.457 0 .822.01.822.028zM41.743 48.086c.009.01-1.009.438-2.27.942-1.26.512-2.279.913-2.288.895-.01-.01 1.009-.439 2.27-.942 1.26-.513 2.288-.913 2.288-.895zM39.688 48.403c.01.01-.962.438-2.157.951-1.196.513-2.176.913-2.176.904-.01-.01.962-.438 2.157-.95 1.195-.513 2.167-.923 2.176-.905zM16.5 52.3s-.02.009-.057.009c-.037.009-.093.009-.159.018-.065.01-.149.019-.252.038-.093.018-.205.028-.327.055-.242.047-.532.103-.85.187-.317.084-.653.196-1.008.336s-.682.288-.971.438c-.29.149-.542.298-.747.438-.103.065-.197.13-.28.186-.085.056-.15.103-.206.15-.056.036-.094.064-.13.092-.029.02-.047.028-.047.028s.009-.018.037-.037c.028-.028.075-.056.121-.102.056-.047.122-.094.206-.15.084-.055.168-.12.27-.186.206-.14.458-.289.748-.447.29-.15.616-.308.97-.448.356-.14.701-.242 1.019-.335.317-.084.607-.14.85-.177.121-.02.233-.038.336-.047.093-.01.187-.019.252-.028.065-.01.122-.01.159-.01.046-.009.065-.009.065-.009zM33.179 50.109s-.028-.037-.094-.084c-.065-.047-.168-.102-.308-.121-.14-.019-.317.01-.495.056-.187.046-.383.112-.588.196-.402.177-.738.41-.953.596-.224.186-.336.326-.345.317l.074-.102c.056-.066.14-.15.243-.243.215-.196.551-.438.962-.615.206-.093.411-.159.598-.196.187-.046.364-.065.513-.046.15.018.253.084.318.14.028.027.047.055.065.074 0 .01.01.019.01.028z"/>
    </g>
    <defs>
        <clipPath id="clip0">
            <path fill="#fff" d="M0 0H32.678V22.875H0z" transform="translate(9.905 44.933)"/>
        </clipPath>
    </defs>
</svg>
