<svg xmlns="http://www.w3.org/2000/svg" width="84" height="90" fill="none" viewBox="0 0 84 90">
    <path fill="#EBEBEB" d="M2.072 40.79s-2.04.54-.324 4.943c1.717 4.402 2.988 6.626 2.988 6.626s.28 1.011-.553 1.078c-.833.068-2.608-.4-3.073.567-.465.965.173 2.055 1.618 3.068 1.444 1.013 4.524 3.351 4.802 3.563.279.21.52.692-.042.829s-4.657.152-4.533 2.095c.123 1.943 4.61 4.107 5.094 4.354.485.247.584.472.517.743-.067.272-1.447.15-2.613.203-1.165.051-2.506.316-2.34 1.43.166 1.114 2.695 3.68 9.322 5.007l3.113.416 1.966-2.471c3.882-5.537 3.945-9.136 3.295-10.057-.649-.92-1.797-.188-2.684.578-.887.766-1.797 1.797-2.022 1.657-.224-.139-.323-.384-.141-.898.182-.515 1.938-5.167.687-6.665-1.251-1.498-4.227 1.323-4.728 1.608-.501.286-.656-.224-.602-.57.053-.346.673-4.163 1.02-5.892.345-1.73.091-2.945-.949-3.338-1.001-.378-1.963 1.186-2.614 1.711-.652.526-1.144-.4-1.144-.4s-.613-2.486-2.408-6.858c-1.794-4.37-3.686-3.32-3.686-3.32"/>
    <path fill="#E0E0E0" d="M16.136 76.462c-1.305-3.214-3.533-8.97-5.467-13.9-1.935-4.93-3.691-9.39-4.98-12.61-.648-1.607-1.169-2.921-1.533-3.82l-.415-1.037-.106-.27c-.013-.03-.024-.062-.033-.094 0 0 .015.029.042.09.027.06.065.152.115.267l.433 1.03c.373.9.899 2.195 1.56 3.804 1.304 3.214 3.072 7.671 5.009 12.602 1.936 4.93 4.149 10.688 5.44 13.91"/>
    <path fill="#E0E0E0" d="M3.566 54.758c.073.02.144.048.21.083.136.059.327.149.56.26.47.226 1.11.56 1.81.94l1.798.975.543.29c.07.031.135.07.196.116-.073-.02-.145-.048-.214-.08-.132-.059-.323-.151-.557-.266-.467-.224-1.103-.572-1.797-.95l-1.797-.961-.543-.29c-.075-.03-.145-.069-.21-.117zM8.907 57.243c-.024-.012.6-1.362 1.395-3.015.796-1.653 1.458-2.985 1.483-2.974.025.011-.6 1.364-1.395 3.017-.795 1.653-1.458 2.985-1.483 2.972zM11.538 64.948c.042-.065.091-.125.146-.18l.422-.47c.355-.395.842-.945 1.348-1.572.505-.627.966-1.206 1.287-1.63.153-.198.279-.367.382-.502.042-.065.092-.124.148-.177-.03.07-.07.138-.117.2-.083.123-.202.303-.357.52-.308.434-.748 1.025-1.267 1.652-.519.627-1.015 1.172-1.383 1.557-.185.19-.335.346-.45.449-.047.056-.1.108-.16.153zM6.212 63.764c.075-.002.15.007.224.024l.573.104c.483.092 1.15.224 1.885.38.734.154 1.397.298 1.878.406l.566.135c.071.012.14.034.206.063-.075.001-.15-.007-.224-.025l-.573-.106c-.485-.092-1.15-.224-1.885-.377-.734-.153-1.4-.299-1.878-.409l-.568-.132c-.07-.013-.14-.034-.204-.063zM7.66 70.862c.093.004.185.016.275.036l.734.13c.62.115 1.476.279 2.417.465.941.187 1.797.364 2.415.497l.728.16c.09.015.18.039.265.071-.091-.002-.183-.013-.272-.034l-.734-.13c-.62-.115-1.476-.278-2.42-.467-.943-.189-1.797-.364-2.412-.494l-.73-.162c-.09-.016-.18-.04-.265-.072zM14.35 72.14c.053-.08.112-.155.178-.224l.512-.614c.433-.519 1.026-1.237 1.66-2.05.633-.814 1.188-1.56 1.586-2.105l.471-.647c.055-.08.116-.155.182-.225-.041.089-.092.173-.15.252-.103.16-.254.386-.45.674-.383.555-.93 1.312-1.572 2.125s-1.237 1.525-1.682 2.035c-.225.251-.407.45-.537.593-.061.067-.127.13-.198.186z"/>
    <path fill="#EBEBEB" d="M64.24 45.026l-15.773 9.53c-.8.484-1.057 1.525-.573 2.326L63.49 82.697c.484.8 1.525 1.058 2.326.574l15.773-9.53c.8-.484 1.057-1.525.574-2.326L66.566 45.6c-.483-.8-1.525-1.058-2.325-.574z"/>
    <path fill="#fff" d="M76.14 71.26c-.392.237-.846.352-1.303.332-.458-.021-.9-.177-1.268-.448-.37-.272-.65-.647-.805-1.078-.156-.43-.181-.898-.071-1.343.11-.444.349-.847.687-1.156.338-.308.76-.51 1.214-.579.453-.068.916-.001 1.33.193.415.195.763.508 1 .9.157.26.262.549.308.85.045.3.031.607-.041.902-.073.295-.203.573-.384.818-.18.245-.407.452-.667.609z"/>
    <path fill="#fff" d="M76.398 74.095c-.197 0-.393-.024-.584-.072-.594-.149-1.11-.519-1.442-1.035-.331-.516-.453-1.139-.341-1.741.112-.603.45-1.14.944-1.503.495-.362 1.109-.522 1.718-.448.608.075 1.165.38 1.557.851.392.472.59 1.075.552 1.687-.038.612-.307 1.186-.754 1.607-.446.42-1.037.654-1.65.654zm0-4.632c-.39 0-.773.105-1.11.302-.336.197-.614.48-.806.82-.191.34-.289.725-.283 1.115.006.39.115.771.317 1.105.302.495.786.851 1.349.992.562.14 1.157.055 1.657-.24.372-.225.67-.556.855-.95.185-.395.249-.836.183-1.267-.066-.43-.258-.833-.552-1.154-.294-.322-.676-.55-1.1-.654-.171-.045-.348-.068-.525-.07h.015zM55.283 53.93l-1.595.96-.099-.16 1.449-.877-.225-.375.146-.088.324.54zM54.834 56.443l-.146.088-.674-1.123.114-.072 1.05.271c.083.035.173.051.264.047.09-.005.179-.029.259-.071.184-.113.224-.31.074-.553-.046-.085-.11-.159-.187-.215-.078-.057-.168-.096-.263-.113l.03-.177c.12.025.233.076.331.15.099.074.18.168.237.277.195.323.155.628-.11.788-.1.055-.21.087-.325.094-.113.007-.227-.011-.333-.054l-.86-.224.539.887zM56.12 57.957l-.192-.319-.42.252-.1-.164.419-.252-.544-.898.119-.072 1.572.206.11.182-1.52-.193.417.692.369-.225.096.16-.368.224.193.32-.15.087zM57.596 60.399l-.193-.32-.417.255-.1-.164.418-.254-.543-.899.119-.072 1.572.207.11.182-1.52-.193.417.692.371-.225.095.16-.369.224.198.312-.157.095zM58.488 61.762c-.27.164-.597.101-.83-.287-.134-.205-.185-.453-.142-.694h.177c-.043.207-.002.423.112.602.164.27.382.334.575.224.194-.11.256-.328 0-.734l-.204-.34.85-.4.525.872-.146.088-.45-.728-.539.252.124.204c.31.474.231.77-.052.941zM59.448 63.332c-.07.041-.146.068-.226.077-.08.01-.16.003-.238-.02-.077-.024-.148-.063-.209-.115-.06-.052-.11-.116-.145-.189-.256-.424-.101-.83.402-1.136.541-.326 1.002-.2 1.262.224.086.129.136.278.144.432l-.173.013c-.002-.127-.04-.25-.112-.355-.207-.343-.562-.431-.993-.17-.043.026-.085.054-.126.085.116-.008.231.019.332.076.1.058.182.144.234.247.05.063.086.136.105.213.02.078.022.159.008.238-.015.078-.046.153-.092.219-.046.065-.105.12-.173.161zm-.104-.157c.05-.03.093-.071.126-.12.033-.048.055-.103.065-.16.01-.058.007-.117-.008-.174-.015-.057-.042-.11-.08-.155-.02-.057-.053-.11-.097-.153-.044-.043-.096-.076-.154-.096-.058-.02-.12-.026-.18-.02-.062.008-.12.029-.172.062-.052.032-.096.076-.128.128-.033.052-.053.111-.06.172-.006.061 0 .123.02.18.021.058.054.11.098.154.023.051.057.097.1.134.042.037.091.065.145.082.054.018.11.023.166.017.056-.005.11-.023.16-.05zM60.746 65.525c-.265.162-.586.092-.82-.294-.135-.206-.185-.455-.142-.697h.178c-.043.21-.002.427.114.607.16.265.371.334.569.224.197-.11.236-.325.056-.622l-.067-.112.119-.074.82.108-.492-.816.146-.087.62 1.024-.117.07-.84-.108c.188.343.112.624-.144.777zM61.73 67.113c-.07.04-.146.067-.226.076-.08.01-.161.003-.238-.02-.077-.024-.148-.063-.209-.116-.061-.052-.11-.117-.145-.19-.256-.422-.101-.83.402-1.134.541-.328 1.004-.202 1.265.225.084.128.133.276.141.429l-.17.014c-.004-.127-.043-.25-.113-.355-.209-.344-.561-.432-.995-.169-.036.02-.08.052-.126.083.116-.006.231.02.332.078.101.057.183.143.237.246.05.063.085.136.104.214.02.078.022.159.007.237-.015.08-.046.154-.092.22s-.105.121-.174.162zm-.101-.16c.05-.03.092-.071.125-.12.032-.048.054-.103.064-.16.01-.058.007-.118-.009-.174-.015-.056-.042-.11-.08-.154-.02-.06-.053-.113-.096-.157-.044-.044-.098-.078-.156-.098-.059-.021-.122-.028-.183-.021-.062.007-.122.028-.174.062-.053.033-.097.078-.13.131-.032.053-.052.113-.059.175-.006.062.002.124.024.183.021.058.056.11.1.154.025.05.06.096.102.133.042.037.092.065.146.082.054.017.11.022.166.016.056-.006.11-.023.16-.051zM63.734 67.904l-.115.07-1.882.224-.106-.177 1.844-.225-.496-.82-.297.18-.099-.162.45-.267.7 1.177zM65.11 70.188l-.114.07-1.882.225-.106-.178 1.844-.225-.496-.82-.299.182-.097-.161.45-.27.7 1.177zM64.908 72.446c-.28.17-.602.036-.83-.344-.23-.38-.196-.721.085-.898.09-.056.197-.08.302-.066.105.013.203.061.277.137-.022-.088-.014-.18.022-.264.035-.084.097-.153.176-.198.26-.157.555-.034.76.303.204.337.177.66-.082.818-.078.047-.168.07-.26.062-.09-.008-.177-.045-.245-.105.034.102.032.212-.005.313s-.107.187-.2.242zm-.098-.17c.195-.12.224-.363.047-.643-.178-.281-.396-.376-.591-.257-.196.12-.225.36-.05.643.176.283.396.375.594.256zm.175-.722c.15.247.353.328.525.225.173-.104.194-.333.05-.573-.144-.24-.348-.326-.526-.225-.177.101-.198.33-.05.573zM66.211 73.782c-.541.328-1.004.203-1.264-.224-.085-.13-.133-.278-.142-.432l.17-.013c.004.127.043.25.113.355.209.344.562.431.995.17.036-.022.081-.051.126-.085-.116.007-.231-.02-.332-.077-.101-.058-.183-.143-.236-.246-.049-.063-.083-.135-.102-.212-.018-.077-.02-.157-.006-.235.015-.078.046-.152.091-.217s.104-.12.172-.16c.069-.042.146-.068.225-.078.08-.01.161-.003.238.02.077.023.148.063.21.115.06.052.11.117.144.19.256.408.101.815-.402 1.13zm.18-.415c.049-.034.09-.078.121-.13.031-.05.052-.107.06-.166.008-.059.004-.119-.012-.176-.016-.057-.044-.111-.081-.157-.023-.056-.057-.106-.1-.147-.044-.04-.096-.071-.153-.09-.057-.018-.117-.023-.177-.016-.06.008-.116.028-.167.06-.05.032-.093.075-.125.126-.032.05-.052.107-.06.167-.007.06-.001.12.017.176.019.057.05.11.09.153.026.051.062.097.105.135.044.037.094.066.149.083.055.018.112.024.17.02.057-.006.112-.022.163-.05v.012zM67.97 74.906l-1.593.963-.098-.164 1.446-.876-.224-.375.146-.087.323.539zM67.514 77.428l-.146.09-.674-1.123.117-.07 1.049.27c.084.034.174.05.264.046.09-.004.18-.029.26-.07.183-.111.224-.31.071-.553-.045-.086-.109-.16-.186-.217-.078-.056-.168-.095-.263-.112l.029-.175c.12.025.235.076.333.15.099.073.18.168.238.277.195.324.155.627-.113.788-.1.055-.21.087-.323.094-.114.006-.227-.012-.333-.055l-.86-.225.537.885zM68.689 78.67c-.267.162-.589.092-.82-.294-.135-.205-.185-.455-.142-.696h.178c-.043.209-.002.427.114.606.16.263.371.335.569.225.197-.11.224-.326.056-.622l-.07-.115.121-.072.82.108-.492-.816.147-.087.617 1.024-.114.07-.84-.108c.188.344.112.622-.144.777zM60.245 67.525l-.695.42 7.757 12.83.695-.42-7.757-12.83zM62.018 74.462l-.692.418 3.956 6.548.692-.418-3.956-6.548z"/>
    <path fill="#E0E0E0" d="M62.733 54.097l-2.084-3.449c-.319-.527-1.003-.696-1.53-.377l-2.096 1.266c-.527.318-.696 1.003-.377 1.53l2.084 3.449c.318.527 1.003.696 1.53.377l2.095-1.266c.527-.318.696-1.003.378-1.53z"/>
    <path fill="#EBEBEB" d="M57.176 51.44l.256-.155 1.67 2.759c.045.076.105.142.177.194.07.053.152.09.238.112.086.021.175.026.262.012.088-.013.172-.043.248-.089.076-.046.142-.106.194-.177.053-.071.09-.152.112-.238.021-.086.026-.175.012-.263-.013-.088-.043-.172-.089-.248l-1.667-2.758.256-.155 1.667 2.759c.133.22.174.486.112.736-.062.25-.221.467-.442.6-.221.133-.486.174-.737.112-.25-.062-.466-.221-.6-.442l-1.669-2.759zM60.806 54.294l-.258.157 1.15 1.903.259-.157-1.15-1.903z"/>
    <path fill="#fff" d="M72.076 62.115L63.75 48.338l-1.182.714 8.324 13.778 1.183-.715z"/>
    <path fill="#F5F5F5" d="M60.225 5.719c-.171 2.426.152 1.33-.731 3.594s-2.062 4.6-4.268 5.616c-2.723 1.249-5.922.719-8.826 1.45-4.551 1.146-7.844 5.322-9.248 9.801-1.404 4.48-1.25 9.278-1.08 13.968l23.226 3.221s.122-9.434 2.148-12.015c2.026-2.581 11.651-4.897 14.826-11.953 2.861-6.35 3.572-10.805 3.572-10.805L60.224 5.72z"/>
    <path fill="#E0E0E0" d="M71.469 10.355c0 .034-2.123-.225-4.728-.584-2.606-.36-4.718-.674-4.718-.7 0-.028 2.12.224 4.717.583 2.597.36 4.731.67 4.729.701zM71.213 12.246c0 .034-2.12-.224-4.717-.584-2.597-.359-4.718-.674-4.718-.7 0-.027 2.12.224 4.718.584 2.596.359 4.721.669 4.717.7zM70.348 14.176c0 .031-2.12-.225-4.717-.584-2.597-.36-4.718-.674-4.718-.703 0-.03 2.119.225 4.718.586 2.599.362 4.722.67 4.717.701zM68.773 16.121c0 .034-2.12-.224-4.728-.584-2.608-.359-4.718-.674-4.718-.7 0-.027 2.121.224 4.729.584 2.608.359 4.722.669 4.717.7zM66.264 18.064c0 .032-2.12-.224-4.717-.586-2.597-.362-4.717-.674-4.717-.7 0-.028 2.12.224 4.717.586 2.597.361 4.722.667 4.717.7zM75.699 10.986c-.779-.048-1.551-.174-2.305-.375.391.005.781.049 1.164.13.387.044.77.126 1.14.245zM75.618 12.673c-.389-.005-.776-.047-1.157-.128-.388-.043-.77-.125-1.141-.245.39.003.78.047 1.161.13.386.044.767.126 1.137.243zM75.045 15.016c-.391-.007-.78-.052-1.163-.135-.387-.048-.769-.129-1.142-.24 0-.04.526.02 1.162.124.388.045.771.13 1.143.251zM74.219 16.982c-.392-.007-.781-.052-1.164-.135-.386-.05-.768-.13-1.141-.24 0-.04.525.02 1.161.123.389.045.772.13 1.144.252zM72.44 18.857c-.392-.006-.782-.052-1.164-.134-.387-.048-.769-.128-1.141-.24 0-.041.525.02 1.159.125.389.045.773.129 1.145.25zM64.128 20.437c0 .031-3.18-.391-7.094-.946-3.913-.555-7.085-1.029-7.08-1.06.004-.032 3.18.39 7.096.945 3.915.555 7.078 1.031 7.078 1.06zM62.48 22.43c-.053-.002-.106-.007-.158-.014l-.45-.059-1.639-.24-5.405-.831c-2.109-.333-4.016-.643-5.39-.874l-1.634-.28c-.193-.037-.341-.064-.45-.086-.051-.008-.103-.021-.152-.04.053.001.105.007.157.017l.45.063 1.64.245 5.404.838 5.391.867 1.633.276.45.081c.052.006.103.018.152.036zM59.514 24.24c-.196.004-.392-.013-.584-.052-.38-.05-.93-.126-1.61-.225-1.36-.195-3.235-.48-5.304-.804-2.07-.323-3.945-.627-5.3-.851l-1.603-.27-.434-.08c-.051-.007-.102-.019-.15-.037.051-.001.102.003.153.014l.438.056 1.61.225 5.304.815 5.299.84 2.181.369zM69.472 21.53c-.391-.006-.781-.052-1.164-.134-.386-.05-.768-.13-1.14-.24 0-.041.525.02 1.16.123.39.045.772.129 1.144.252zM67.183 22.802c-.391-.007-.781-.052-1.164-.135-.386-.049-.767-.13-1.14-.24 0-.04.525.02 1.16.123.39.045.772.13 1.144.252zM64.101 24.947c-.391-.007-.781-.052-1.164-.134-.386-.048-.768-.129-1.14-.24 0-.041.525.02 1.16.125.39.045.772.128 1.144.25zM58.211 28.335c0 .033-3.933-.546-8.76-1.29-4.828-.743-8.761-1.375-8.761-1.406 0-.031 3.93.546 8.76 1.292 4.83.745 8.766 1.372 8.761 1.404zM55.86 32.587c0 .031-1.295-.15-2.876-.407-1.581-.256-2.862-.49-2.857-.52.004-.032 1.293.15 2.875.406 1.581.256 2.862.487 2.857.521z"/>
    <path fill="#455A64" d="M53.633 90l-30.526-.146c-3.688-.024-6.648-3.008-6.624-6.672l.315-76.557c.025-3.664 3.01-6.65 6.698-6.625L54.02.146c3.664 0 6.625 3.009 6.625 6.673L60.33 83.35C60.306 87.04 57.321 90 53.633 90z"/>
    <path fill="#FAFAFA" d="M53.706 2.147l-5.921-.025c-.8.025-1.456.68-1.456 1.505v1.067c.024.801-.63 1.48-1.432 1.505l-11.55-.049c-.8-.024-1.456-.703-1.431-1.504V3.578c.024-.8-.631-1.48-1.432-1.504h-2.087l-5.144-.049C20.68 2.001 18.57 4.088 18.57 6.66l-.316 74.713c0 2.572 2.087 4.659 4.66 4.659l30.476.145c2.572 0 4.66-2.062 4.683-4.634L58.39 6.83c0-2.548-2.087-4.66-4.683-4.683.024 0 .024 0 0 0z"/>
    <path fill="#E8505B" d="M26.092 73.244h25.187c2.16 0 3.907 1.747 3.907 3.906v.704c0 2.16-1.747 3.907-3.907 3.907H26.092c-2.16 0-3.907-1.747-3.907-3.907v-.704c0-2.16 1.747-3.906 3.907-3.906zM41.195 27.96c-.945.023-1.813.019-2.604-.013-.797-.05-1.52-.191-2.165-.422-.646-.232-1.214-.575-1.702-1.032-.476-.482-.862-1.133-1.156-1.953-.456-1.269-.435-2.477.063-3.624.49-1.166 1.428-2.176 2.81-3.03l-.814-2.266c.16-.1.411-.243.756-.43.344-.186.708-.348 1.092-.486.748-.269 1.38-.348 1.896-.239.509.091.91.547 1.205 1.368l.13.364c1.244-.278 2.3-.32 3.17-.128.89.186 1.476.67 1.757 1.454.174.485.21.946.107 1.383-.11.418-.284.807-.523 1.167-.516-.11-1.162-.13-1.939-.062-.783.05-1.597.226-2.441.529-.863.31-1.453.658-1.769 1.046-.322.368-.42.73-.292 1.084.1.28.308.468.625.565.31.078.74.102 1.293.073l1.695-.072c2.005-.088 3.643.134 4.917.666 1.287.507 2.198 1.507 2.733 2.999.456 1.268.432 2.498-.072 3.69-.51 1.172-1.504 2.203-2.982 3.092l.803 2.238c-.16.1-.41.242-.755.429-.345.187-.709.35-1.092.487-.748.268-1.38.348-1.896.238-.51-.09-.911-.547-1.206-1.367l-.1-.28c-.718.173-1.394.28-2.03.318-.616.032-1.183-.007-1.698-.117-.497-.116-.924-.31-1.281-.582-.358-.272-.617-.631-.778-1.079-.194-.54-.195-1.056-.003-1.547.186-.508.434-.934.744-1.277.684.218 1.464.338 2.338.36.894.017 1.8-.14 2.722-.471.94-.338 1.551-.715 1.834-1.133.283-.417.358-.812.224-1.185-.134-.373-.388-.598-.761-.674-.381-.095-.883-.136-1.506-.123l-1.35.042zM60.786 42.772c-.794-.45-1.512-.886-2.152-1.306-.636-.44-1.165-.92-1.586-1.439-.422-.52-.722-1.095-.902-1.728-.157-.648-.155-1.397.006-2.244.248-1.31.862-2.332 1.84-3.064.983-.752 2.258-1.149 3.826-1.19l.444-2.341c.18-.006.46-.003.838.009.377.012.76.054 1.145.127.753.143 1.316.39 1.69.74.377.331.485.92.324 1.768l-.071.376c1.167.38 2.064.87 2.69 1.468.646.602.892 1.307.739 2.116-.095.501-.293.913-.594 1.235-.298.303-.634.548-1.01.736-.373-.35-.899-.689-1.576-1.017-.674-.348-1.436-.602-2.285-.763-.869-.165-1.53-.16-1.982.013-.45.155-.709.415-.778.78-.055.29.025.554.24.795.217.22.563.456 1.035.705l1.441.783c1.705.922 2.954 1.927 3.747 3.016.816 1.073 1.078 2.38.786 3.921-.249 1.31-.876 2.349-1.881 3.116-1.002.748-2.335 1.134-3.999 1.158l-.438 2.312c-.181.005-.46.002-.839-.01-.377-.011-.759-.054-1.145-.127-.753-.143-1.316-.39-1.69-.74-.376-.33-.485-.92-.324-1.768l.055-.289c-.68-.209-1.293-.455-1.84-.738-.526-.28-.976-.595-1.35-.945-.354-.346-.612-.725-.774-1.135-.162-.41-.2-.846-.112-1.308.106-.559.36-1 .76-1.323.406-.342.821-.583 1.248-.721.46.526 1.046 1.016 1.76 1.471.733.459 1.562.776 2.489.951.946.18 1.639.162 2.08-.054.44-.216.698-.516.77-.902.074-.385-.026-.703-.298-.955-.269-.27-.665-.555-1.188-.854l-1.139-.635zM41.146 53.796c-.532-.302-1.013-.594-1.443-.876-.426-.296-.781-.617-1.064-.965-.282-.348-.484-.735-.605-1.16-.105-.434-.103-.936.004-1.504.167-.879.579-1.564 1.235-2.055.659-.504 1.514-.77 2.565-.798l.298-1.57c.122-.004.309-.002.562.006.254.008.51.036.769.085.504.096.882.261 1.132.496.253.222.326.618.218 1.186l-.048.252c.783.256 1.385.584 1.805.985.433.404.598.877.495 1.42-.064.335-.197.611-.399.827-.199.203-.425.368-.677.494-.25-.235-.602-.462-1.057-.682-.452-.233-.963-.404-1.532-.512-.583-.11-1.026-.107-1.33.009-.3.103-.475.278-.521.523-.037.194.017.372.16.533.146.148.378.306.695.473l.967.525c1.143.618 1.98 1.293 2.512 2.023.548.72.724 1.596.527 2.63-.166.878-.587 1.575-1.261 2.09-.672.501-1.566.76-2.682.776l-.294 1.55c-.121.004-.309.002-.562-.006-.253-.008-.51-.037-.768-.086-.505-.095-.883-.26-1.133-.496-.253-.222-.326-.617-.218-1.185l.037-.194c-.456-.14-.867-.305-1.234-.495-.353-.188-.655-.399-.905-.634-.238-.232-.411-.486-.52-.761-.109-.275-.134-.568-.075-.878.071-.374.242-.67.51-.887.272-.23.55-.39.837-.484.308.353.702.682 1.18.987.492.308 1.048.52 1.67.638.634.12 1.099.108 1.394-.036.296-.145.468-.347.517-.605.05-.258-.017-.472-.2-.64-.18-.182-.446-.373-.797-.573l-.764-.426zM28.74 43.84c-.345-.196-.656-.384-.934-.567-.276-.19-.505-.399-.688-.624-.183-.225-.313-.475-.391-.75-.068-.28-.067-.605.002-.973.108-.568.374-1.01.799-1.328.426-.326.979-.498 1.659-.517l.192-1.015c.079-.002.2 0 .364.004.163.005.329.024.496.056.327.062.571.169.733.32.163.144.21.4.14.767l-.03.163c.506.165.895.378 1.167.637.28.26.386.567.32.918-.041.217-.127.395-.258.535-.129.131-.275.238-.438.32-.162-.152-.39-.3-.683-.442-.293-.15-.623-.26-.991-.33-.377-.072-.663-.07-.86.005-.195.067-.307.18-.337.339-.024.125.01.24.104.344.094.096.244.198.449.306l.625.34c.74.4 1.28.835 1.625 1.307.354.465.467 1.032.34 1.7-.107.569-.38 1.02-.815 1.352-.434.325-1.013.492-1.734.502l-.19 1.003c-.079.002-.2 0-.364-.004-.164-.005-.33-.024-.497-.055-.326-.062-.57-.17-.732-.321-.164-.144-.21-.4-.141-.767l.024-.125c-.295-.09-.561-.198-.798-.32-.229-.122-.424-.258-.586-.41-.153-.15-.265-.315-.335-.492-.07-.178-.087-.367-.049-.568.046-.242.156-.433.33-.574.176-.148.356-.252.54-.313.2.229.455.442.764.639.318.198.678.336 1.08.412.41.078.71.07.902-.023.19-.094.302-.224.334-.391.032-.167-.012-.306-.13-.414-.116-.118-.288-.241-.515-.37l-.494-.276z"/>
</svg>
