<svg xmlns="http://www.w3.org/2000/svg" width="96" height="91" fill="none" viewBox="0 0 96 91">
    <path fill="#E0E0E0" d="M88.612 27.15h-8.914v9.294h8.914V27.15z"/>
    <path fill="#FAFAFA" d="M88.007 27.15h-8.913v9.294h8.913V27.15z"/>
    <path fill="#E0E0E0" d="M88.012 36.446h-8.92v-9.297h8.92v9.297zm-8.905 0h8.905v-9.291h-8.905v9.29z"/>
    <path fill="#FAFAFA" d="M86.81 28.4h-6.518v6.793h6.518V28.4z"/>
    <path fill="#E0E0E0" d="M80.292 35.24c-.045.068-.098.13-.159.186-.106.11-.252.259-.424.424-.172.165-.314.305-.424.407-.055.06-.118.113-.187.157.046-.068.099-.13.16-.184.103-.11.25-.26.424-.424.173-.166.315-.306.424-.408.055-.06.117-.114.186-.159zM86.81 35.222c.068.047.132.101.188.161.108.104.257.25.424.425.168.173.306.316.407.424.06.056.113.12.157.188-.068-.044-.131-.098-.186-.159-.11-.106-.259-.252-.424-.424-.166-.172-.308-.316-.41-.424-.06-.057-.112-.12-.156-.19zM86.793 28.419c.046-.068.1-.13.16-.187.105-.11.25-.259.414-.424.163-.165.316-.305.424-.41.057-.059.12-.111.189-.156-.047.068-.101.13-.161.186-.104.11-.25.26-.414.424-.163.166-.316.306-.424.408-.056.06-.12.113-.188.159zM80.275 28.436c-.068-.047-.13-.101-.187-.162-.11-.104-.258-.25-.424-.424-.165-.174-.305-.316-.407-.424-.06-.056-.112-.12-.157-.188.068.045.13.098.185.159.11.104.258.252.424.424.165.171.305.316.407.424.061.056.115.12.159.19z"/>
    <path fill="#E0E0E0" d="M86.793 35.195v-.13-.366-1.385c0-1.19 0-2.883-.013-4.915l.025.026h-6.498l.03-.03v6.796l-.026-.026 4.707.013h1.323-1.317l-4.721.013h-.024v-.024V28.344h6.54v.026c0 2.037-.011 3.738-.014 4.931v1.832c-.012.051-.012.062-.012.062z"/>
    <path fill="#EBEBEB" d="M84.64 30.71h-2.175v2.176h2.175V30.71z"/>
    <path fill="#E0E0E0" d="M95.608 9.788H82.505v13.659h13.103V9.788z"/>
    <path fill="#FAFAFA" d="M94.722 9.788H81.62v13.659h13.103V9.788z"/>
    <path fill="#E0E0E0" d="M94.727 23.45H81.615V9.785h13.112V23.45zm-13.103 0h13.094V9.793H81.624v13.659z"/>
    <path fill="#FAFAFA" d="M92.962 11.624h-9.58v9.986h9.58v-9.986z"/>
    <path fill="#E0E0E0" d="M83.381 21.678c-.07.1-.149.191-.237.274-.153.161-.367.38-.609.617s-.462.45-.636.6c-.083.088-.176.166-.278.231.068-.1.147-.192.236-.273.152-.162.369-.382.61-.62.242-.237.465-.45.636-.6.082-.088.176-.165.278-.229zM92.96 21.653c.102.067.195.147.276.237.161.153.38.367.617.609.238.242.45.462.6.625.087.084.164.177.23.278-.1-.068-.192-.147-.274-.235-.162-.153-.38-.37-.617-.61-.238-.242-.452-.465-.603-.637-.086-.08-.163-.17-.229-.267zM92.935 11.652c.066-.102.145-.194.235-.276.155-.16.37-.38.61-.617.242-.237.463-.45.626-.6.084-.086.176-.164.276-.23-.067.1-.146.193-.236.275-.152.16-.366.38-.608.617s-.464.451-.636.6c-.08.086-.17.164-.267.23zM83.362 11.675c-.1-.067-.192-.146-.273-.235-.164-.153-.382-.37-.62-.61-.237-.242-.447-.463-.597-.637-.088-.082-.166-.175-.232-.276.101.067.193.146.274.236.161.152.382.367.619.608.237.242.45.465.6.636.087.084.164.177.229.278z"/>
    <path fill="#E0E0E0" d="M92.935 21.61v-.048-.138-.54c0-.474 0-1.16-.01-2.036 0-1.75-.011-4.24-.02-7.224l.038.036H83.39l.042-.042v9.986l-.036-.036 6.916.02h2.457-.506l-1.936.01-6.94.017h-.038v-.038-10.029H92.982v.036c0 2.994-.013 5.494-.02 7.249v2.693c-.004.03-.013.058-.027.084z"/>
    <path fill="#EBEBEB" d="M89.77 15.019h-3.198v3.197h3.197v-3.197zM12.415 70.007c1.092-.564 2.377-.636 3.59-.437.65.108 1.329.303 1.772.793.443.49.528 1.349.02 1.77-.304.25-.726.289-1.118.282-.95-.01-2.004-.178-2.756.395-.425.324-.721.867-1.239 1.026-.517.159-1.077-.142-1.344-.598-.247-.475-.302-1.027-.152-1.541.06-.357.203-.696.416-.989.213-.293.49-.533.811-.701zM9.913 65.18c.668.951 1.965.635 2.567.054.603-.58.849-1.425 1.088-2.23.528-1.838 1.06-3.766.668-5.638-.094-.568-.344-1.098-.72-1.533-.191-.214-.435-.375-.707-.465-.272-.09-.563-.108-.844-.05-.653.172-1.06.814-1.354 1.423-.866 1.8-1.32 3.77-1.328 5.767 0 .928.106 1.908.636 2.671M8.08 66.547c.724-.861.862-2.12.54-3.193-.323-1.073-1.06-1.995-1.891-2.744-.99-.88-2.143-1.56-3.393-1.997-.483-.195-1.002-.283-1.522-.259-.259.016-.51.095-.732.229-.221.134-.407.32-.54.543-.357.68-.015 1.505.354 2.177.65 1.188 1.395 2.322 2.224 3.393.668.858 1.431 1.707 2.447 2.094 1.015.388 2.071.344 2.61-.362"/>
    <path fill="#E0E0E0" d="M9.869 79.563c.034-.143.054-.288.059-.435.032-.314.07-.71.116-1.18.06-.583.148-1.162.265-1.735.158-.699.37-1.384.637-2.048.26-.663.612-1.286 1.045-1.851.354-.46.806-.837 1.323-1.1.35-.175.726-.292 1.113-.346.143-.006.286-.027.424-.064-.146-.014-.293-.014-.439 0-.401.03-.794.134-1.16.303-.544.256-1.022.635-1.395 1.107-.452.573-.817 1.21-1.083 1.891-.272.674-.485 1.37-.636 2.08-.112.58-.19 1.166-.231 1.756-.038.502-.051.91-.06 1.19-.008.144 0 .289.022.432z"/>
    <path fill="#E0E0E0" d="M9.95 78.653c.012-.07.017-.14.012-.212v-.574c0-.5 0-1.222.025-2.12.045-1.784.197-3.703.494-6.408.282-2.544.658-5.513 1.06-7.431.085-.437.172-.831.253-1.177.08-.346.142-.636.212-.884l.116-.535c.02-.064.03-.13.034-.197-.03.06-.054.123-.07.189-.042.144-.097.326-.165.551-.068.225-.144.518-.223.87-.078.352-.184.737-.277 1.174-.494 2.277-.865 4.579-1.111 6.895-.297 2.712-.424 5.18-.444 6.967 0 .895 0 1.618.032 2.12l.036.575c-.003.066.002.132.015.197z"/>
    <path fill="#E0E0E0" d="M9.962 73.891c.016-.2.016-.4 0-.6-.023-.386-.076-.943-.185-1.628-.13-.8-.307-1.591-.527-2.37-.26-.96-.591-1.897-.993-2.806-.69-1.675-1.68-3.211-2.92-4.533-.214-.226-.442-.439-.684-.636-.106-.089-.2-.178-.293-.248l-.265-.182c-.16-.122-.329-.23-.506-.325-.03.038.716.477 1.658 1.484 1.198 1.332 2.161 2.857 2.847 4.512.393.903.726 1.831.996 2.778.26.871.425 1.673.562 2.347.138.674.198 1.23.24 1.611.008.2.031.4.07.596zM5.359 82.29l.477 6.536h8.398l.477-6.537H5.36zM15.714 79.713H4.549v2.576h11.165v-2.576z"/>
    <path fill="#EBEBEB" d="M4.549 88.576v.714H15.527v-.714H4.55z"/>
    <path fill="#E0E0E0" d="M5.588 90.548l-.515-1.258h10.056l-.6 1.258H5.588z"/>
    <path fill="#F5F5F5" d="M14.554 84.427s0 .02-.038.059l-.125.167-.49.636-.02.028-.022-.03-1.202-1.662h.07l-1.186 1.677-.036.051-.042-.049-1.401-1.668h.08l-.078.097-1.255 1.573-.04.053-.039-.055-1.185-1.675h.07l-1.459 1.663-.025.03-.022-.035-.455-.767-.117-.212c-.014-.023-.026-.047-.036-.072 0 0 .02.019.049.063l.13.197.478.753h-.044c.373-.437.86-1.007 1.433-1.681l.036-.043.034.047 1.194 1.667h-.08l1.252-1.576.076-.095.04-.051.041.049 1.4 1.673h-.08l1.197-1.669.034-.049.036.049 1.174 1.681h-.042c.212-.256.386-.46.509-.61l.138-.157c.03-.043.046-.06.048-.057zM14.828 82.247c0 .03-2.104.053-4.699.053-2.595 0-4.7-.023-4.7-.053s2.103-.053 4.7-.053c2.598 0 4.699.017 4.699.053zM15.252 89.36c0 .03-2.286.053-5.108.053-2.822 0-5.107-.023-5.107-.053s2.287-.05 5.107-.05c2.82 0 5.108.023 5.108.05z"/>
    <path fill="#263238" d="M94.26 90.548c0 .03-20.922.055-46.728.055-25.805 0-46.731-.026-46.731-.055 0-.03 20.918-.055 46.731-.055 25.814 0 46.728.025 46.728.055z"/>
    <path fill="#263238" d="M67.577 90.63l-28.159-.129c-.806-.004-1.603-.166-2.347-.478-.743-.312-1.418-.768-1.985-1.341-.567-.573-1.016-1.252-1.32-1.999-.304-.746-.459-1.546-.454-2.352l.297-70.603c.004-.806.166-1.604.477-2.346.312-.744.767-1.418 1.34-1.985.572-.567 1.25-1.016 1.996-1.321.746-.305 1.545-.46 2.35-.457l28.161.132c.806.004 1.603.167 2.346.48.743.313 1.417.768 1.983 1.342.567.573 1.015 1.252 1.319 1.998.303.747.457 1.546.452 2.352l-.299 70.603c-.008 1.626-.661 3.181-1.816 4.326-1.154 1.144-2.715 1.784-4.34 1.778z"/>
    <path fill="#FAFAFA" d="M67.884 10.2l-5.46-.026c-.177.003-.353.041-.517.112-.163.071-.31.174-.434.302s-.221.28-.286.445c-.065.166-.097.343-.094.521v.99c.006.36-.131.707-.38.965-.25.26-.592.409-.951.416l-10.644-.051c-.178-.005-.353-.045-.516-.117-.162-.072-.309-.176-.431-.305-.123-.13-.219-.282-.282-.448-.064-.166-.095-.343-.09-.521v-.99c.009-.36-.125-.708-.373-.97-.247-.26-.588-.413-.948-.423h-1.92l-4.777-.024c-.565-.002-1.124.107-1.646.32-.523.214-.998.528-1.399.926-.4.397-.72.87-.938 1.39-.218.52-.332 1.079-.334 1.643l-.29 68.907c-.005 1.14.443 2.234 1.245 3.042.802.809 1.892 1.266 3.03 1.271l28.105.132c1.14.004 2.234-.444 3.043-1.246.81-.803 1.268-1.893 1.273-3.033l.29-68.907c.004-.565-.104-1.125-.317-1.648-.213-.523-.527-.998-.925-1.4-.397-.401-.87-.72-1.39-.939-.52-.218-1.08-.332-1.644-.335z"/>
    <path fill="#263238" d="M69.17 17.786c.001.042-.01.085-.032.121-.023.037-.056.066-.095.083-.04.017-.083.022-.125.014-.042-.008-.08-.029-.111-.059-.03-.03-.05-.07-.058-.112-.008-.042-.002-.085.015-.124.018-.04.047-.072.084-.095.037-.022.08-.032.122-.03.053 0 .104.022.141.06.037.038.058.089.058.142zM69.167 18.51c0 .04-.012.08-.034.113-.022.033-.053.059-.09.074s-.078.02-.117.011c-.039-.007-.075-.027-.103-.055-.028-.028-.047-.064-.055-.103-.008-.039-.004-.08.011-.116.016-.037.042-.069.075-.09.033-.023.072-.035.112-.035.053 0 .104.022.142.06.038.037.059.088.059.142zM69.157 19.24c0 .056-.023.11-.062.15-.04.04-.094.062-.15.062-.043-.014-.08-.04-.106-.077-.026-.036-.04-.08-.04-.124 0-.045.014-.088.04-.125.026-.036.063-.063.106-.077.052 0 .103.02.143.055.039.035.063.084.069.136z"/>
    <path fill="#F5F5F5" d="M69.515 28.656H41.382c-.504 0-.912.408-.912.912V46.75c0 .504.408.912.912.912h28.133c.504 0 .912-.408.912-.912V29.568c0-.504-.409-.912-.912-.912z"/>
    <path fill="#E0E0E0" d="M68.692 27.422H40.56c-.504 0-.912.408-.912.912v17.182c0 .504.408.912.912.912h28.133c.504 0 .912-.408.912-.912V28.334c0-.504-.408-.912-.912-.912z"/>
    <path fill="#263238" d="M62.338 23.563h-.286l-.053.132h-.147l.274-.615h.142l.276.615h-.151l-.055-.132zm-.045-.108l-.097-.235-.098.235h.195zM62.607 23.08h.28c.043-.005.087-.001.129.012.042.013.08.035.113.064.032.029.059.065.076.105.018.04.028.083.028.126 0 .044-.01.087-.028.127-.017.04-.044.076-.076.105-.033.029-.071.05-.113.064-.042.013-.086.017-.13.012h-.28v-.615zm.273.498c.051 0 .1-.02.135-.056.036-.036.056-.084.056-.135 0-.05-.02-.099-.056-.135-.035-.035-.084-.055-.135-.055h-.129v.381h.13zM63.336 23.08h.28c.044-.005.088-.001.13.012.041.013.08.035.112.064.033.029.059.065.077.105.018.04.027.083.027.126 0 .044-.01.087-.027.127-.018.04-.044.076-.077.105-.032.029-.07.05-.113.064-.041.013-.085.017-.129.012h-.28v-.615zm.272.498c.05 0 .099-.02.135-.056.035-.036.056-.084.056-.135 0-.05-.02-.099-.056-.135-.036-.035-.085-.055-.135-.055h-.13v.381h.13zM64.874 23.693v-.37l-.183.304h-.063l-.18-.295v.36h-.134v-.614h.117l.23.381.227-.381h.117v.615h-.131zM65.115 23.387c-.003-.067.013-.134.048-.192.034-.058.086-.104.147-.133.06-.028.13-.037.196-.027.066.011.128.042.177.088.05.046.083.106.098.172.015.066.01.135-.016.197-.025.063-.068.117-.124.155-.055.038-.121.058-.189.058-.043.003-.086-.004-.127-.019-.04-.015-.078-.038-.11-.067-.03-.03-.056-.066-.073-.106-.017-.04-.026-.082-.027-.126zm.53 0c0-.038-.013-.075-.034-.106-.022-.03-.052-.055-.088-.069-.035-.014-.074-.017-.11-.01-.038.009-.072.027-.099.055-.026.027-.044.061-.051.098-.007.038-.003.076.012.111.014.035.039.065.07.086.032.021.07.032.107.032.026.001.052-.004.076-.013.024-.01.046-.025.064-.043.018-.019.032-.04.041-.065.01-.024.014-.05.012-.076zM66.292 23.693l-.119-.172h-.131v.172H65.9v-.615h.265c.165 0 .267.085.267.212 0 .04-.011.081-.034.116-.022.035-.053.062-.091.079l.138.197-.153.01zm-.133-.5h-.117v.211h.117c.087 0 .129-.04.129-.108s-.042-.102-.13-.102v-.002zM67.023 23.58v.113h-.477v-.615h.467v.114h-.325v.134h.287v.11h-.287v.142l.335.002zM67.522 23.44h-.155v.15h-.119v-.15h-.152v-.106h.152v-.15h.113v.15h.154l.007.106zM38.66 18.653c.008-.152.062-.297.153-.419.091-.12.216-.213.36-.264.142-.05.297-.058.445-.021.147.036.28.115.383.227l-.212.193c-.042-.053-.096-.095-.157-.124-.06-.028-.127-.043-.195-.042-.119 0-.233.048-.317.132-.085.084-.132.199-.132.318 0 .12.047.233.132.318.084.084.198.131.317.131.068.001.134-.013.195-.042.061-.028.115-.07.157-.123l.212.193c-.102.112-.236.19-.383.227-.148.037-.303.03-.446-.022-.143-.05-.268-.142-.359-.264-.091-.121-.145-.267-.154-.418zM41.144 18.74v.617h-.292v-.136c-.036.053-.086.095-.144.121-.058.027-.122.037-.185.03-.255 0-.405-.14-.405-.327s.136-.324.464-.324h.25c0-.134-.08-.212-.25-.212-.112-.001-.22.034-.311.1l-.113-.213c.14-.089.302-.135.467-.131.333-.006.52.148.52.475zm-.312.275v-.11h-.212c-.146 0-.192.053-.192.125 0 .072.067.132.178.132.048.002.096-.011.136-.037.041-.026.073-.065.09-.11zM42.098 18.258v.29h-.07c-.04-.003-.08.003-.117.017-.038.014-.072.036-.1.065-.027.03-.048.064-.06.102-.013.038-.016.078-.011.118v.511h-.312V18.28h.3v.142c.043-.056.1-.1.164-.128.065-.028.136-.04.206-.036zM43.374 17.866v1.484h-.296v-.11c-.042.048-.094.085-.153.11-.058.024-.121.034-.184.03-.142-.009-.275-.071-.372-.174-.098-.104-.152-.24-.152-.383 0-.141.054-.278.152-.381.097-.104.23-.166.371-.175.06-.002.121.008.177.03.056.023.106.058.148.101v-.523l.31-.009zm-.296.95c-.005-.053-.025-.104-.058-.146-.033-.043-.077-.074-.128-.092-.05-.017-.106-.019-.157-.006-.052.014-.1.042-.135.081-.037.04-.06.09-.069.142-.009.053-.002.107.02.156s.057.09.102.12c.045.029.098.044.151.044.038 0 .076-.007.111-.022.036-.015.067-.038.093-.066.026-.028.045-.062.057-.098.012-.036.017-.075.013-.113zM43.56 19.257l.103-.227c.114.07.244.106.377.106.145 0 .198-.038.198-.1 0-.175-.654 0-.654-.424 0-.211.187-.35.5-.35.148-.003.294.03.425.096l-.104.223c-.095-.053-.203-.081-.312-.08-.14 0-.199.044-.199.1 0 .185.651 0 .651.425 0 .201-.187.343-.509.343-.166.006-.33-.033-.477-.112zM51.12 64.144h-.365v-.265h1.06v.265h-.362v.92h-.335l.002-.92zM51.864 64.47c-.01-.132.022-.264.09-.378.066-.115.166-.206.286-.263.12-.057.255-.077.386-.056.13.02.253.08.35.17.097.091.164.209.193.338.03.13.019.265-.03.389-.049.123-.134.229-.244.304-.11.074-.239.114-.372.114-.084.005-.169-.007-.248-.036-.08-.028-.153-.073-.214-.13-.062-.058-.111-.128-.145-.206-.034-.077-.052-.16-.052-.245zm.98 0c-.004-.061-.026-.121-.064-.171-.037-.05-.088-.089-.147-.11-.059-.021-.122-.025-.183-.01-.06.014-.116.046-.16.091-.042.046-.07.103-.081.164-.011.062-.004.125.02.183.025.057.066.106.118.14.053.035.114.053.176.053.044 0 .087-.008.128-.025.04-.017.076-.043.106-.075.03-.031.053-.07.068-.11.015-.041.021-.085.018-.13zM53.594 64.144h-.364v-.265h1.06v.265h-.363v.92h-.333v-.92zM55.163 64.836h-.502l-.094.229h-.341l.523-1.186h.331l.524 1.186h-.348l-.093-.23zm-.1-.248l-.152-.38-.153.38h.305zM55.689 63.88h.335v.92h.566v.265h-.901v-1.186zM48.4 69.627v.367h-.16v-.362c-.281-.005-.552-.109-.765-.293l.093-.182c.187.163.424.258.672.269v-.848c-.352-.087-.71-.195-.71-.617 0-.308.212-.573.71-.61v-.37h.16v.365c.23.007.454.075.648.2l-.08.188c-.17-.11-.366-.174-.569-.187v.849c.361.084.743.186.743.617 0 .317-.234.585-.742.614zm-.16-1.272v-.8c-.33.03-.477.2-.477.402 0 .248.215.337.477.405v-.007zm.668.672c0-.254-.233-.339-.508-.407v.8c.352-.02.508-.183.508-.386v-.007zM52.929 68.537c0-.713.373-1.139.89-1.139.518 0 .895.424.895 1.139 0 .714-.377 1.138-.895 1.138-.517 0-.89-.426-.89-1.138zm1.55 0c0-.598-.27-.927-.66-.927s-.657.329-.657.927c0 .598.267.926.657.926s.66-.328.66-.926zM52.236 69.648c-.003.064-.018.128-.044.187l-.134.44h-.144l.108-.464c-.034-.01-.065-.032-.085-.062-.021-.03-.031-.065-.03-.101 0-.022.004-.045.012-.066.008-.02.02-.04.036-.056.015-.016.034-.029.055-.037.02-.009.043-.013.065-.013.044.002.086.02.116.053.03.032.046.075.045.119zM51.215 69.45v.212h-1.58v-.16l.93-.912c.253-.25.302-.401.302-.554 0-.259-.182-.424-.524-.424-.114-.007-.228.011-.334.054-.105.043-.2.11-.276.194l-.164-.14c.1-.109.224-.194.36-.25.138-.054.286-.079.433-.07.454 0 .74.231.74.604 0 .212-.066.405-.366.7l-.762.748 1.24-.002zM57.887 68.537c0-.713.373-1.139.89-1.139.518 0 .897.424.897 1.139 0 .714-.377 1.138-.896 1.138-.52 0-.891-.426-.891-1.138zm1.55 0c0-.598-.27-.927-.66-.927s-.657.329-.657.927c0 .598.27.926.658.926s.659-.328.659-.926zM55.407 68.537c0-.713.373-1.139.89-1.139.518 0 .897.424.897 1.139 0 .714-.377 1.138-.897 1.138s-.89-.426-.89-1.138zm1.55 0c0-.598-.27-.927-.66-.927s-.657.329-.657.927c0 .598.27.926.657.926.388 0 .66-.328.66-.926z"/>
    <path fill="#E8505B" d="M65.658 73.043h-21.74c-1.907 0-3.452 1.545-3.452 3.452v.615c0 1.906 1.545 3.451 3.451 3.451h21.741c1.906 0 3.452-1.545 3.452-3.451v-.615c0-1.907-1.546-3.452-3.452-3.452z"/>
    <path fill="#000" d="M65.658 73.043h-21.74c-1.907 0-3.452 1.545-3.452 3.452v.615c0 1.906 1.545 3.451 3.451 3.451h21.741c1.906 0 3.452-1.545 3.452-3.451v-.615c0-1.907-1.546-3.452-3.452-3.452z" opacity=".3"/>
    <path fill="#E8505B" d="M64.545 73.043h-21.74c-1.907 0-3.453 1.545-3.453 3.452v.615c0 1.906 1.546 3.451 3.452 3.451h21.741c1.906 0 3.452-1.545 3.452-3.451v-.615c0-1.907-1.546-3.452-3.452-3.452z"/>
    <path fill="#fff" d="M52.814 76.389c0 .386-.278.619-.74.619h-.441v.538h-.252V75.77h.693c.462 0 .74.233.74.619zm-.252 0c0-.255-.172-.399-.496-.399h-.425v.797h.425c.324 0 .496-.144.496-.398zM54.232 77.103h-.945l-.195.443h-.261l.805-1.776h.255l.808 1.776h-.267l-.2-.443zm-.089-.212l-.383-.871-.384.89.767-.019zM55.532 76.931v.615h-.252v-.619l-.706-1.157h.271l.57.937.57-.937h.253l-.706 1.162z"/>
    <path fill="#E8505B" d="M57.69 60.83c.134-.01.267-.032.397-.067.366-.119.671-.377.848-.72.06-.117.103-.241.13-.37.021-.144.03-.29.023-.435v-.998c0-.72 0-1.535-.017-2.437-.017-.9-.011-1.89-.017-2.953v-.81c.012-.271-.054-.54-.189-.776-.139-.242-.347-.436-.598-.558-.266-.119-.558-.167-.848-.137l-7.766.03c-.333.001-.654.122-.906.34-.248.216-.41.513-.458.838-.018.163-.024.328-.017.492v6.969c-.02.272.028.545.142.793.115.237.295.436.52.573.44.296.984.19 1.471.212h7.26H57.26l-1.162.014-4.276.032H49.65c-.27 0-.534-.073-.765-.212-.24-.146-.433-.358-.555-.61-.122-.26-.176-.547-.155-.834v-1.742c0-1.194-.01-2.447-.015-3.747v-.984-.496c-.006-.17 0-.34.017-.509.052-.35.228-.67.496-.903.271-.235.618-.366.977-.369l7.765-.021c.303-.028.607.024.884.15.267.132.489.34.636.598.142.251.21.537.197.825v7.198c.006.15-.005.299-.03.446-.03.131-.076.259-.137.38-.093.173-.22.327-.372.45-.153.124-.33.216-.519.27-.097.027-.198.042-.299.047l-.085.032z"/>
    <path fill="#E8505B" d="M55.502 57.233h-.284l-.778.01-2.619.023h-.02v-.02c-.022-.139-.043-.285-.064-.425l-.45-3.14.017.013H50.42c-.022.003-.044.003-.066 0h.25l.698-.013h.013v.015l.466 3.138c.021.148.043.295.064.424l-.026-.021h3.609l.074-.005z"/>
    <path fill="#E8505B" d="M51.711 56.492h.284l.79-.012 2.715-.023-.023.019.248-1.465c.047-.263.089-.522.131-.768l.026.027-3.202.011h-1.206.256l.948-.013 3.202-.027h.027v.027c-.042.248-.084.507-.131.77l-.25 1.465v.02H51.73l-.02-.03zM52.748 58.252s0-.032-.021-.087c-.024-.076-.072-.143-.136-.19-.04-.03-.086-.05-.135-.06-.048-.01-.099-.01-.147 0-.049.012-.094.033-.134.063-.04.03-.072.068-.096.112-.023.044-.037.092-.04.142-.004.05.004.1.021.146.018.046.045.089.08.124.036.035.078.062.125.079.054.02.113.025.17.016.057-.008.112-.03.158-.065.065-.047.111-.114.134-.19.017-.056.017-.09.021-.09.007.031.007.063 0 .094-.017.084-.064.159-.131.212-.05.04-.11.068-.174.079-.064.01-.13.005-.191-.016-.078-.026-.145-.075-.194-.141-.048-.066-.074-.146-.075-.228 0-.08.024-.159.07-.224.047-.066.113-.116.188-.142.05-.02.105-.028.159-.024.054.003.106.019.154.044.047.026.089.062.121.105.033.043.055.093.067.146.01.03.012.064.006.095zM55.116 58.235s0-.034-.02-.089c-.024-.076-.072-.142-.136-.188-.048-.034-.103-.056-.16-.064-.058-.008-.117-.001-.171.02-.066.025-.122.07-.162.128-.04.058-.061.127-.06.198 0 .07.022.139.062.196.04.058.098.102.164.126.054.02.113.026.17.018.058-.008.112-.03.159-.065.063-.049.11-.116.135-.193.015-.055.015-.087.02-.087.007.03.007.062 0 .092-.018.084-.064.159-.132.212-.057.047-.126.077-.2.086-.073.01-.148-.003-.215-.035-.067-.031-.123-.082-.163-.145-.039-.063-.059-.136-.058-.21 0-.08.025-.159.071-.225.046-.066.112-.116.188-.144.06-.022.127-.028.19-.017.065.01.125.037.176.077.068.053.116.128.134.212.01.031.014.065.008.097z"/>
    <path fill="#E8505B" d="M56.726 53.861c.002.21-.057.417-.172.593-.114.176-.279.315-.472.397-.194.083-.407.106-.614.067-.207-.04-.397-.14-.547-.287-.15-.148-.252-.337-.294-.542-.042-.206-.022-.42.058-.615s.215-.361.39-.478c.175-.117.38-.18.59-.18.28 0 .547.11.745.305.198.196.312.462.316.74z"/>
    <path fill="#fff" d="M55.799 53.463v.797h-.184v-.649h-.16v-.148h.344z"/>
    <path fill="#E8505B" d="M67.742 26.396H39.61c-.504 0-.912.408-.912.912V44.49c0 .503.408.912.912.912h28.133c.504 0 .912-.409.912-.912V27.308c0-.504-.408-.912-.912-.912z"/>
    <path fill="#fff" d="M43.629 30.738c0 .244-.193.384-.562.384h-.727v-1.406h.687c.352 0 .532.146.532.365.002.064-.015.127-.048.182-.033.055-.081.099-.139.127.076.02.143.066.19.13.046.063.07.14.067.218zm-.965-.778v.333h.322c.16 0 .247-.057.247-.168 0-.11-.087-.165-.246-.165h-.323zm.636.744c0-.119-.09-.176-.258-.176h-.38v.348h.38c.17 0 .26-.05.26-.172H43.3zM44.801 30.82h-.653l-.125.302h-.333l.637-1.406h.32l.636 1.406h-.342l-.14-.301zm-.101-.247l-.223-.539-.212.539h.435zM46.703 29.716v1.397h-.267l-.702-.848v.848h-.324v-1.405h.27l.697.848v-.848l.326.008zM47.547 30.569l-.189.197v.347h-.322v-1.405h.322v.655l.624-.655h.36l-.58.636.616.77h-.381l-.45-.546zM43.366 36.586h-.259v.339h-.131v-.34h-.73v-.095l.685-.848h.149l-.662.833h.562v-.299h.127v.3h.26v.11zM44.314 36.554c0 .212-.157.382-.469.382-.17.006-.336-.053-.464-.166l.066-.106c.107.1.25.155.398.15.212 0 .333-.099.333-.26s-.11-.257-.35-.257h-.09v-.095l.357-.447h-.661v-.12h.831v.096l-.365.458c.276.013.414.16.414.365zM45.36 36.545c0 .212-.156.39-.47.39-.17.007-.336-.053-.464-.165l.066-.106c.107.1.25.155.397.15.211 0 .334-.107.334-.264 0-.157-.103-.27-.424-.27h-.273l.066-.646h.706v.118h-.59l-.044.412h.165c.382 0 .53.152.53.381zM46.496 36.539c-.001.056-.013.11-.036.162-.023.05-.056.096-.098.133-.041.037-.09.066-.143.083-.053.017-.109.024-.165.018-.343 0-.527-.237-.527-.636 0-.398.24-.667.589-.667.106-.005.212.02.305.07l-.053.106c-.076-.043-.163-.064-.25-.06-.28 0-.458.178-.458.528-.002.035-.002.07 0 .106.038-.07.096-.127.166-.165.07-.037.15-.054.228-.047.054-.007.109-.003.16.012.053.015.1.04.142.076.042.034.075.077.1.126.023.048.037.101.04.155zm-.132 0c0-.17-.125-.278-.324-.278-.04-.004-.082 0-.12.011-.04.012-.076.032-.107.058-.031.027-.056.06-.074.096-.018.037-.028.076-.03.117 0 .142.117.276.34.276.038.005.078.001.116-.01.038-.012.073-.032.102-.057.03-.027.054-.059.071-.094.017-.036.026-.075.026-.115v-.004zM49.286 36.925l-.31-.405-.31.405h-.146l.384-.498-.367-.47h.149l.29.379.293-.38h.144l-.367.47.388.499h-.148zM50.27 36.925l-.308-.405-.312.405h-.148l.384-.498-.365-.47h.148l.29.379.291-.38h.145l-.365.47.388.499h-.148zM51.255 36.925l-.31-.405-.309.405h-.138l.384-.498-.383-.47h.148l.29.379.293-.38h.144l-.367.47.388.499h-.14zM52.24 36.925l-.308-.405-.31.405h-.148l.384-.498-.365-.47h.146l.293.379.29-.38h.145l-.365.47.386.499h-.149zM55.64 36.925l-.31-.405-.31.405h-.146l.384-.498-.367-.47h.149l.29.379.293-.38h.144l-.367.47.388.499h-.148zM56.624 36.925l-.308-.405-.305.405h-.148l.384-.498-.365-.47h.146l.293.379.29-.38h.144l-.364.47.386.499h-.153zM57.608 36.925l-.308-.405-.31.405h-.148l.384-.498-.367-.47h.149l.29.379.293-.38h.142l-.365.47.388.499h-.148zM58.593 36.925l-.307-.405-.312.405h-.146l.384-.498-.367-.47h.148l.293.379.29-.38h.145l-.365.47.386.499h-.148zM61.647 35.634v1.29h-.123v-1.172h-.303v-.118h.426zM62.809 36.554c0 .212-.157.382-.469.382-.17.006-.336-.053-.464-.166l.063-.106c.11.1.253.155.401.15.212 0 .33-.099.33-.26s-.107-.257-.347-.257h-.091v-.095l.356-.447h-.66v-.12h.83v.096l-.365.458c.278.013.416.16.416.365zM64.091 36.586h-.258v.339H63.7v-.34h-.73v-.095l.686-.848h.146l-.66.833h.56v-.299h.13v.3h.258v.11zM65.088 36.806v.119h-.906v-.087l.537-.526c.146-.144.174-.23.174-.32 0-.148-.106-.242-.303-.242-.066-.004-.132.007-.193.032-.06.025-.115.064-.16.113l-.095-.081c.058-.063.13-.112.208-.144.08-.031.165-.045.25-.04.263 0 .424.133.424.347-.003.08-.023.157-.06.227s-.088.13-.152.178l-.439.424h.715zM41.593 39.605c.003-.067.026-.132.065-.186.04-.054.095-.095.158-.117.063-.023.131-.027.196-.01.065.016.124.051.169.1l-.091.086c-.019-.023-.043-.042-.07-.054-.026-.013-.056-.019-.085-.018-.052 0-.103.02-.14.057-.037.037-.057.087-.057.14 0 .052.02.102.057.14.037.036.088.057.14.057.03 0 .059-.006.086-.02.027-.012.05-.03.069-.054l.09.085c-.03.036-.07.065-.114.085-.044.019-.092.027-.14.025-.043.002-.085-.004-.126-.02-.04-.014-.077-.037-.108-.067-.031-.029-.056-.065-.073-.104-.017-.04-.026-.082-.026-.125zM42.654 39.78h-.287l-.055.132h-.146l.276-.617h.14l.275.617h-.15l-.053-.131zm-.047-.107l-.097-.238-.098.238h.195zM43.324 39.912l-.119-.171h-.127v.171h-.142v-.617h.265c.165 0 .27.087.27.225 0 .041-.013.082-.035.117-.023.034-.055.062-.093.078l.138.197h-.157zm-.134-.5h-.112v.212h.116c.087 0 .132-.04.132-.106s-.049-.106-.136-.106zM43.53 39.85l.048-.105c.062.043.136.065.212.063.085 0 .119-.027.119-.065 0-.117-.358-.036-.358-.265 0-.106.084-.193.26-.193.075-.002.148.017.212.055l-.042.108c-.052-.03-.111-.047-.172-.049-.085 0-.116.032-.116.072 0 .113.358.034.358.261 0 .102-.085.19-.26.19-.093.005-.184-.02-.262-.071zM44.954 39.295v.617h-.142v-.252h-.28v.252h-.142v-.617h.142v.244h.28v-.244h.142zM45.065 39.605c-.004-.067.012-.134.047-.192.035-.058.086-.104.147-.133.061-.028.13-.038.196-.027.067.01.128.041.177.088.05.046.084.106.098.172.015.066.01.134-.015.197s-.069.117-.124.154c-.056.039-.122.059-.19.059-.043.003-.086-.004-.127-.019-.04-.014-.078-.037-.11-.067-.031-.03-.056-.066-.074-.106-.017-.04-.026-.083-.026-.126zm.527 0c0-.038-.012-.075-.034-.106-.022-.032-.053-.056-.088-.07-.035-.013-.074-.017-.111-.008-.038.008-.072.027-.098.054-.027.027-.044.062-.051.1-.007.037-.003.075.012.11s.04.065.072.086c.032.02.07.032.108.031.025 0 .051-.004.075-.014s.045-.024.063-.043c.018-.018.032-.04.041-.064.009-.025.013-.05.011-.076zM45.847 39.295h.142v.511h.31v.117h-.452v-.628zM46.379 39.295h.28c.042-.003.085.002.126.016.04.014.078.036.109.065.032.03.057.064.074.104.017.039.026.081.026.124s-.009.085-.026.124c-.017.04-.043.075-.074.104-.032.029-.069.05-.11.065-.04.014-.083.019-.125.015h-.28v-.617zm.271.5c.05 0 .1-.02.135-.055.036-.036.056-.084.056-.135 0-.05-.02-.1-.056-.135-.036-.036-.084-.056-.135-.056h-.129v.392l.13-.01zM47.583 39.806v.115h-.477v-.617h.467v.114h-.325v.134h.282v.112h-.286v.142h.34zM48.09 39.912l-.119-.171h-.131v.171h-.142v-.617h.267c.163 0 .267.087.267.225 0 .041-.012.082-.034.117-.023.034-.055.062-.093.078l.138.197h-.153zm-.134-.5h-.116v.212h.114c.087 0 .132-.04.132-.106s-.043-.106-.132-.106h.002zM41.522 42.011l.152-.182c.023.037.053.068.09.09.037.023.079.037.122.04.11 0 .168-.066.168-.196v-.566h-.424v-.212h.689v.77c.009.058.004.118-.014.174-.018.056-.049.108-.09.15-.04.043-.091.075-.147.095-.055.02-.115.027-.173.02-.072 0-.143-.017-.208-.049-.064-.031-.121-.077-.165-.134zM42.512 42.011c-.001-.021.003-.043.01-.063.009-.02.02-.038.036-.053.015-.016.034-.028.054-.036.02-.008.041-.012.063-.01.022-.002.043.002.064.01.02.008.039.02.054.035.016.015.028.034.036.054.008.02.012.042.011.063 0 .022-.003.044-.011.064-.008.02-.02.04-.036.055-.015.015-.034.027-.054.035-.02.008-.042.012-.064.012s-.044-.004-.064-.012c-.02-.008-.038-.02-.054-.035-.015-.016-.027-.035-.035-.055-.008-.02-.011-.042-.01-.064zM44.774 40.977l-.388 1.187h-.297l-.26-.804-.27.804h-.292l-.39-1.187h.284l.269.835.28-.835h.252l.271.848.278-.848h.263zM44.884 40.977c.005-.04.024-.078.054-.105.03-.027.07-.042.11-.042.041 0 .08.015.11.042.03.027.05.064.055.105-.005.04-.024.077-.055.104-.03.027-.069.042-.11.042-.04 0-.08-.015-.11-.042-.03-.027-.05-.064-.054-.104zm.032.275h.265v.912h-.265v-.912zM45.427 40.907h.263v1.257h-.263v-1.257zM45.936 40.907h.265v1.257h-.265v-1.257zM46.413 40.977c0-.021.005-.041.014-.06.008-.019.021-.036.037-.05.015-.013.033-.024.053-.03.02-.006.04-.009.061-.007.02-.002.04 0 .06.007.02.006.037.016.053.03.015.012.027.029.036.047.009.018.014.038.015.058-.005.04-.024.078-.055.105-.03.027-.07.042-.11.042-.04 0-.08-.015-.11-.042-.03-.027-.05-.064-.054-.105v.005zm.032.275h.265v.912h-.265v-.912zM47.761 41.645v.519h-.246v-.114c-.03.044-.072.08-.12.102-.05.022-.104.03-.157.025-.212 0-.342-.119-.342-.276 0-.157.113-.273.39-.273h.212c0-.113-.067-.178-.212-.178-.094-.002-.185.028-.26.084l-.096-.186c.117-.075.254-.113.392-.11.278 0 .44.129.44.407zm-.263.23v-.093h-.18c-.123 0-.163.047-.163.109 0 .061.057.11.15.11.042.001.082-.01.117-.032.034-.023.061-.055.076-.093zM49.54 41.642v.522h-.263v-.481c0-.149-.068-.212-.174-.212-.105 0-.2.076-.2.24v.457h-.266v-.481c0-.148-.061-.212-.172-.212-.11 0-.201.076-.201.24v.457H48v-.911h.252v.104c.037-.04.081-.07.13-.09.05-.021.103-.03.156-.029.06-.003.117.01.17.036.052.026.097.066.13.115.04-.048.09-.087.148-.113.057-.026.12-.039.182-.038.052-.003.104.006.152.025.048.02.091.049.126.087.036.037.062.083.078.132.017.049.022.101.015.152zM49.688 42.08l.09-.19c.095.057.204.087.315.087.123 0 .168-.031.168-.082 0-.149-.551 0-.551-.36 0-.174.157-.297.424-.297.121-.002.241.025.35.08l-.09.189c-.079-.046-.169-.069-.26-.068-.119 0-.17.036-.17.085 0 .154.55 0 .55.364 0 .17-.158.289-.425.289-.14.003-.278-.03-.4-.098zM60.328 41.606c0-.392.212-.612.509-.612.297 0 .509.212.509.612 0 .401-.212.615-.51.615-.296 0-.508-.222-.508-.615zm.74 0c0-.269-.093-.381-.231-.381s-.231.112-.231.381c0 .27.095.382.23.382.136 0 .232-.112.232-.382zM62.457 41.825c-.002.056-.014.111-.038.162-.023.051-.057.097-.1.134-.041.037-.09.065-.144.082-.053.018-.11.024-.166.018-.328 0-.532-.212-.532-.59-.008-.082.001-.166.029-.245.026-.079.07-.151.128-.212.058-.06.128-.107.205-.138.078-.03.161-.045.244-.04.116-.004.23.024.331.08l-.102.212c-.066-.041-.144-.062-.222-.059-.046-.003-.092.004-.134.02-.043.017-.082.042-.114.075-.032.033-.056.073-.07.116-.016.043-.022.09-.017.135.04-.037.086-.065.136-.083.051-.019.105-.026.159-.023.05-.005.1.001.149.017.047.016.092.04.13.074.038.033.069.074.09.12.023.045.035.094.038.145zm-.265.015c0-.026-.006-.05-.017-.074-.01-.023-.025-.044-.044-.06-.02-.017-.042-.03-.066-.038-.024-.007-.05-.01-.075-.007-.026-.003-.052-.001-.077.006s-.048.02-.068.036c-.02.017-.037.038-.048.061-.011.024-.018.05-.019.076 0 .101.076.176.212.176.025.003.05 0 .075-.006.024-.008.047-.02.066-.037.019-.017.034-.037.044-.06.011-.023.017-.048.017-.073zM63.008 40.773h.237l-.56 1.597h-.235l.558-1.597zM64.123 41.975v.225h-.903v-.178l.458-.424c.106-.1.125-.161.125-.212 0-.093-.066-.149-.19-.149-.048-.001-.096.009-.138.03-.043.02-.08.05-.109.09l-.199-.128c.055-.072.127-.128.209-.165.082-.037.172-.053.262-.047.265 0 .44.136.44.35 0 .073-.02.146-.053.21-.035.066-.084.122-.144.165l-.273.257.515-.024zM65.306 41.95h-.193v.25h-.267v-.25h-.636v-.185l.56-.752h.288l-.52.714h.32v-.224h.26v.222h.192l-.004.225z"/>
    <path fill="#fff" d="M60.334 31.682c-.116-.418-.375-.783-.732-1.03-.356-.247-.788-.361-1.22-.323-.273.015-.54.078-.791.186-.617.276-1.048 1.008-.848 1.652.167.526.678.861 1.185 1.081.507.221 1.151.384 1.675.138.247-.13.451-.33.588-.574.137-.244.2-.523.183-.802-.002-.11-.016-.22-.04-.328z" opacity=".2"/>
    <path fill="#fff" d="M67.672 26.396H39.685c-.13 0-.26.026-.38.076s-.23.123-.322.215c-.092.093-.165.202-.215.323-.05.12-.075.25-.075.38v5.017c1.766 1.234 4.194 1.45 6.348 1 2.544-.532 4.836-1.83 7.209-2.894 2.372-1.064 4.963-1.908 7.518-1.484 2.413.414 4.47 1.908 6.65 3.028.716.37 1.465.673 2.238.903v-5.57c0-.262-.103-.513-.287-.7-.184-.185-.435-.291-.697-.294z" opacity=".2"/>
    <path fill="#FFBE9D" d="M6.754 9.608v.064c.05.303.424 1.588.602 1.598.178.01.604-.212.587-.39-.017-.178-.52-1.605-.52-1.605s-.095-.212-.493-.167c-.248.036-.176.5-.176.5z"/>
    <path fill="#FFBE9D" d="M7.399 8.927c-.006.021-.006.043 0 .064.053.305.424 1.588.602 1.6.178.013.606-.211.59-.39-.018-.178-.525-1.6-.525-1.6s-.095-.212-.494-.168c-.246.032-.173.494-.173.494z"/>
    <path fill="#FFBE9D" d="M8.094 8.486v.064c.05.303.424 1.588.602 1.599.178.01.606-.212.59-.39-.018-.179-.526-1.601-.526-1.601s-.094-.212-.495-.168c-.245.032-.171.496-.171.496z"/>
    <path fill="#FFBE9D" d="M8.783 8.058c-.006.02-.006.043 0 .064.05.305.424 1.588.602 1.6.178.013.606-.212.59-.39-.017-.178-.524-1.6-.524-1.6s-.096-.212-.496-.17c-.244.034-.172.496-.172.496z"/>
    <path fill="#EB996E" d="M7.85 10.503c-.104-.193-.183-.398-.235-.611-.078-.198-.13-.406-.157-.617.104.193.183.398.235.61.078.2.13.406.157.618zM8.611 10.295c-.133-.28-.24-.572-.322-.872-.108-.291-.188-.592-.24-.898.132.28.24.573.32.873.107.291.188.592.242.897z"/>
    <path fill="#EB996E" d="M9.366 10.015c-.135-.28-.243-.571-.322-.871-.108-.292-.188-.593-.24-.9.132.282.24.574.32.874.107.292.188.592.242.897z" opacity=".78"/>
    <path fill="#FFBE9D" d="M7.443 12.072l-.698-2.678h3.287c.123.212.345 2.294.345 2.294l-.163.683s-2.269 1.007-2.332 1.01c-.064.005-.44-1.31-.44-1.31z"/>
    <path fill="#FFBE9D" d="M9.68 11.787l.396-1.028c.174-.452.166-.953-.02-1.4l-.143-.34-2.502.848s.473.848 1.124.479l-.56.86 1.705.582z"/>
    <path fill="#EB996E" d="M8.173 11.306c.012 0 0-.125.067-.326.086-.281.273-.52.524-.672l.24-.143-.274.047-.636.11h.013c-.134.002-.266-.034-.381-.104-.115-.07-.208-.17-.268-.29-.007-.019-.014-.038-.019-.057l-.042.07c.716-.212 1.36-.405 1.819-.575.227-.085.411-.157.534-.212.068-.022.131-.055.189-.097-.255.062-.506.138-.753.229-.46.146-1.107.33-1.825.536l-.056.017.013.055c.007.029.016.056.028.083.064.153.178.28.324.358.132.066.277.102.424.106h.013l.636-.123-.034-.095c-.266.17-.455.44-.526.748-.034.109-.038.225-.01.335z"/>
    <path fill="#EB996E" d="M7.706 10.189c-.023 0 0 .131-.051.3-.014.047-.042.087-.08.117-.038.03-.084.046-.132.047-.058-.01-.112-.035-.157-.072-.045-.037-.08-.085-.102-.14-.12-.267-.243-.515-.316-.691-.072-.176-.103-.297-.123-.293-.014.109 0 .22.04.32.081.247.177.488.29.721.033.075.086.139.154.185.068.046.147.072.229.076.069-.003.135-.03.187-.075.053-.044.089-.105.103-.173.02-.08.02-.165 0-.246-.02-.049-.034-.078-.042-.076z"/>
    <path fill="#263238" d="M27.515 31.453c-.02 0-.159-.403-.479-1.018-.181-.36-.43-.681-.731-.948-.18-.151-.385-.269-.607-.347-.241-.082-.49-.137-.744-.164-.521-.066-1.043-.1-1.484-.29-.318-.141-.594-.363-.799-.644-.205-.281-.334-.611-.371-.957-.008-.075-.008-.15 0-.225 0-.053 0-.078.01-.078s0 .108.036.299c.044.268.14.524.284.755.21.342.521.61.89.767.425.176.925.212 1.453.274.262.028.52.085.768.171.232.085.448.21.636.371.308.279.558.615.736.99.122.248.229.503.32.764.036.09.064.184.082.28z"/>
    <path fill="#263238" d="M18.451 18.685c.723-.34 1.533-.441 2.317-.293.784.15 1.5.542 2.049 1.122.536.593.888 1.365 1.543 1.825.806.562 1.868.518 2.85.547.982.03 2.09.231 2.625 1.06.248.386.33.848.464 1.291.134.444.35.891.755 1.107.316.13.653.202.994.212.337.045.702.153.882.441-.458 1.327-1.156 2.559-2.06 3.632l-.69-.354.053.819c-.626.348-1.186.804-1.656 1.346l-1.272-1.554c-.373-.452-.765-.92-1.297-1.166-.494-.23-1.06-.242-1.597-.303-.536-.062-1.113-.198-1.484-.596-.299-.325-.424-.776-.685-1.133-.181-.24-.422-.43-.698-.551-.277-.121-.58-.17-.88-.14"/>
    <path fill="#E8505B" d="M21.04 25.681c-.097.424.212.848.596 1.018.399.15.826.21 1.25.174.426-.037.854.028 1.25.189.636.313.933 1.06 1.484 1.494.258.204.566.336.891.383.326.047.658.008.964-.114.305-.121.574-.32.778-.578.204-.258.338-.565.386-.89-.326.25-.725.386-1.136.388-.411.002-.812-.13-1.141-.376-.515-.403-.808-1.073-1.395-1.357-.587-.284-1.272-.1-1.908-.044-.637.055-1.436-.128-1.627-.745l-.137.024-.255.434z"/>
    <path fill="#000" d="M21.193 26.332c-.032.05.445.424.443.367 0 0 .322-.18.373-.36.031-.095.04-.196.023-.295-.016-.098-.056-.192-.116-.271-.116-.056-.219-.137-.3-.237-.08-.1-.139-.217-.169-.342h-.144l-.11 1.138z" opacity=".3"/>
    <path fill="#FAFAFA" d="M22.484 25.95c.013.156-.003.313-.049.463-.03.153-.074.303-.133.447.016-.154.046-.306.089-.456.061-.248.084-.453.093-.453zM24.475 25.874c-.135.155-.258.318-.37.49-.094.181-.17.372-.228.568-.003-.06.005-.122.025-.18.035-.143.091-.281.166-.41.074-.127.164-.245.267-.351.04-.045.088-.084.14-.117zM26.224 27.322c-.03.059-.07.111-.117.157-.104.118-.22.225-.347.318-.126.095-.262.175-.405.24-.057.032-.119.054-.183.066.194-.103.381-.217.562-.342.172-.136.336-.282.49-.439zM27.585 28.76c-.013 0 .013-.231.015-.513-.01-.171-.01-.342 0-.513.031.169.044.341.036.513.01.172-.007.346-.05.513z"/>
    <path fill="#FFBE9D" d="M34.38 65.325l7.78-2.925-1.084-3.442-8.417 1.949 1.722 4.418z"/>
    <path fill="#E8505B" d="M41.144 62.813l.229-.068s2.742 3.418 3.492 3.236l-2.379-7.716-2.544.897c.45.486.791 1.064.999 1.694.207.63.276 1.298.203 1.957z"/>
    <path fill="#fff" d="M41.013 59.69c0-.081.03-.16.084-.22.054-.06.128-.099.208-.109.081-.003.16.025.222.079.061.054.1.129.107.21 0 .086-.032.169-.09.233-.057.064-.136.104-.222.112-.161 0-.34-.178-.307-.337M42.486 58.265l-.608.212 2.502 7.315s.256.297.485.184l-2.379-7.711z" opacity=".6"/>
    <path fill="#263238" d="M41.403 62.764c.038-.013 0-.212.061-.424.062-.212.191-.37.166-.4-.026-.03-.225.093-.3.364-.074.271.052.48.073.46zM41.988 63.47c.038 0 .053-.184.172-.362s.278-.265.265-.303c-.013-.039-.233 0-.38.228-.146.23-.093.448-.057.437zM43.097 63.631c0-.036-.212-.032-.382.13-.17.16-.212.362-.17.369.043.006.115-.138.261-.267.147-.13.3-.194.29-.232z"/>
    <path fill="#FFBE9D" d="M16.427 80.542l2.268 7.998 3.518-.793-1.243-8.551-4.543 1.346z"/>
    <path fill="#E8505B" d="M18.367 87.492l.048.236s-3.634 2.447-3.513 3.21l7.885-1.73-.682-2.602c-.523.408-1.128.698-1.773.85-.645.153-1.315.166-1.965.036z"/>
    <path fill="#fff" d="M21.49 87.622c.08.006.156.043.212.102.056.059.088.137.09.218-.004.08-.038.157-.097.213-.058.056-.135.089-.216.09-.086-.007-.166-.045-.225-.108s-.092-.145-.093-.231c.011-.085.056-.161.123-.214.068-.052.153-.076.237-.066M22.787 89.208l-.165-.626-7.498 1.898s-.318.23-.212.468l7.875-1.74z" opacity=".6"/>
    <path fill="#263238" d="M18.394 87.755c0 .038.212.015.424.096.212.08.352.212.386.199.034-.013-.074-.233-.34-.326-.264-.094-.487 0-.47.031zM17.635 88.279c0 .04.18.068.348.212.167.144.241.297.28.286.038-.01.014-.233-.198-.394-.212-.161-.43-.14-.43-.104zM17.39 89.373c.035 0 .046-.212-.098-.394-.145-.183-.344-.234-.352-.198-.009.036.125.123.243.28.12.157.166.316.206.312zM12.334 46.506s-.29 15.266 1.207 25.583l3.443 11.182 4.664-.941s-1.79-11.579-2.04-16.305c-.25-4.726-.073-22.05-.073-22.05l-7.2 2.531z"/>
    <path fill="#263238" d="M15.43 45.135l4.524 17.455c.22.847.608 1.642 1.141 2.336s1.2 1.273 1.963 1.704c.762.43 1.603.703 2.472.801.87.098 1.75.02 2.59-.23L38.45 64.13l-1.484-4.453-9.666 1.62-1.295-10.073s-1.798-7.523-4.194-7.52c-.518 0-6.382 1.43-6.382 1.43z"/>
    <path fill="#FFBE9D" d="M10.172 12.212l-.02.947s-.383 7.328-.362 8.424c.021 1.096 3.698 7.385 3.698 7.385l-2.243 3.674-5.068-9.117c-.208-.372-.292-.802-.24-1.225l1.211-9.74.032-.257"/>
    <path fill="#E8505B" d="M9.828 21.806l3.946 5.222c.744.984 2.025 1.541 3.164 2.012 2.83.138 6.265-.235 7.675 2.065.117.19.193.403.222.624.028.222.01.447-.055.66-.61 2.004-2.629 8.675-2.705 9.527 0 0 .88.908.683 1.467-.198.56-.946.32-.946.32l-9.308 2.757s-.424-.212-.38-.522c.175-.686.398-1.358.668-2.012.539-1.412.607-2.96.196-4.414-.176-.579-.317-1.167-.425-1.762l-.229-3.325c-1.293-2.152-4.187-5.3-5.671-9.687l3.165-2.932z"/>
    <path fill="#FFBE9D" d="M21.771 22.363c.054-.431.021-.87-.098-1.288-.118-.418-.32-.808-.592-1.148-.272-.339-.61-.62-.993-.826-.383-.206-.803-.333-1.236-.374-1.73-.165-3.27 1.124-3.53 2.843-.227 1.508-.424 3.03-.424 3.581.02 1.667.996 2.316 1.393 2.51.141.052.287.09.436.11.002.003.002.005.002.007 0 .003 0 .005-.002.007l-.37 1.908c-.168 1.253.532 2.372 1.783 2.555 1.25.182 2.238-.78 2.43-2.036l1.201-7.849z"/>
    <path fill="#263238" d="M15.61 22.546c.028.038.248-.081.53-.039.282.043.469.212.503.183.034-.03 0-.079-.087-.157-.11-.103-.248-.17-.397-.189-.145-.022-.294.003-.424.072-.1.053-.14.11-.125.13zM18.12 23.088c.028.038.248-.078.53-.036.283.043.467.212.503.183.036-.03 0-.08-.087-.16-.11-.102-.248-.168-.396-.188-.146-.02-.294.005-.425.072-.1.055-.14.112-.125.13zM17.143 24.422c-.142-.068-.291-.118-.445-.148-.072-.02-.138-.043-.142-.094.004-.077.031-.15.078-.212l.293-.517c.266-.436.497-.892.689-1.366-.3.415-.566.853-.797 1.309-.098.182-.193.354-.284.521-.058.08-.086.18-.079.278.008.027.02.051.039.072.017.021.04.038.065.049.038.016.078.028.119.036.15.044.307.069.464.072z"/>
    <path fill="#EB996E" d="M16.749 27.774s1.075.248 2.557-.373c0 0-.636 1.378-2.657.888l.1-.515z"/>
    <path fill="#E8505B" d="M17.164 25.12c.064-.06.141-.103.226-.124.085-.022.173-.022.258 0 .06.015.118.04.168.077.05.036.094.082.126.136.03.052.045.113.04.174-.004.061-.027.12-.065.167-.053.043-.118.07-.186.077-.069.007-.137-.007-.198-.039-.127-.066-.24-.157-.33-.267-.028-.028-.051-.06-.069-.096-.007-.017-.01-.036-.006-.055.003-.019.01-.036.023-.05"/>
    <path fill="#263238" d="M17.947 24.738c-.047 0-.091.297-.386.477-.295.18-.615.098-.624.14-.008.042.064.07.212.093.18.03.363-.005.518-.1.15-.088.258-.232.303-.4.02-.127-.002-.208-.023-.21zM18.313 22.17c.017.08.306.085.637.174.33.09.578.212.636.155.023-.03-.013-.108-.109-.2-.13-.113-.286-.193-.453-.235-.166-.045-.34-.05-.51-.015-.137.032-.207.083-.2.121zM15.894 21.674c.04.072.246.034.48.066.233.032.423.106.48.044.024-.03 0-.097-.076-.171-.104-.091-.233-.147-.37-.162-.139-.018-.28.008-.401.075-.094.046-.13.114-.113.148z"/>
    <path fill="#E8505B" d="M15.833 40.315c-.308 0-.613-.06-.897-.18-.284-.117-.542-.291-.76-.51-.216-.218-.387-.477-.503-.763-.117-.285-.175-.59-.172-.898.039-.981.185-1.955.436-2.905l3.605.8.954-1.578s2.01-3.905 3.914-4.162c1.717-.233 2.671.999 2.309 2.708-.363 1.709-2.905 5.029-5.089 6.377-1.142.707-2.454 1.09-3.797 1.111z"/>
    <path fill="#263238" d="M22.683 36.272c-.02.046-.046.09-.076.13-.055.084-.138.203-.248.355-.31.433-.65.844-1.016 1.23-.54.58-1.156 1.082-1.832 1.495-.831.51-1.768.824-2.739.92-.504.043-1.01.012-1.505-.093-.467-.09-.904-.293-1.272-.594-.324-.288-.558-.662-.675-1.079-.101-.358-.14-.731-.114-1.103.046-.532.16-1.055.341-1.558.062-.178.112-.314.146-.407.016-.048.036-.095.06-.14-.008.05-.02.099-.038.146-.032.106-.075.244-.125.424-.165.502-.268 1.022-.308 1.548-.018.362.025.725.127 1.073.114.398.34.755.651 1.028.358.286.78.48 1.23.567.484.1.98.128 1.471.086.955-.094 1.877-.4 2.697-.896.672-.406 1.287-.898 1.83-1.463.368-.381.714-.782 1.037-1.2l.263-.344c.028-.044.06-.086.095-.125z"/>
    <path fill="#263238" d="M23.058 36.38c-.084.214-.237.395-.434.513-.18.15-.403.236-.636.246 0-.032.273-.127.564-.337.29-.21.479-.441.506-.422zM17.238 37.332c-.04-.24-.029-.484.032-.719.022-.24.095-.475.212-.687-.015.239-.054.475-.114.706-.02.237-.064.472-.13.7z"/>
    <path fill="#263238" d="M17.892 37.58c-.36-.496-.52-1.109-.452-1.717.032 0 .046.4.172.873.125.473.31.83.28.844z"/>
    <path fill="#263238" d="M19.83 32.173c-.09.198-.196.388-.316.569-.212.343-.499.814-.825 1.33-.327.514-.636.98-.848 1.314-.114.185-.241.362-.382.528.088-.198.193-.389.314-.569.212-.345.498-.816.827-1.331.328-.515.636-.982.848-1.315.112-.185.24-.361.381-.526zM12.937 38.534c-.044-.066-.079-.137-.104-.212-.082-.208-.153-.42-.212-.636-.395-1.419-.39-2.92.015-4.336.058-.216.129-.428.212-.636.027-.074.062-.145.103-.212.02 0-.106.331-.243.87-.36 1.408-.365 2.884-.017 4.295.14.545.265.867.246.867zM20.217 41.358c-.045.076-.097.147-.157.212-.151.19-.314.37-.487.541-.255.256-.527.494-.814.712-.355.266-.727.505-1.116.717-.392.205-.799.38-1.217.528-.341.117-.69.21-1.045.28-.238.05-.479.084-.72.104-.09.01-.18.01-.268 0 0-.021.377-.053.971-.189.348-.08.692-.18 1.028-.299.825-.294 1.602-.709 2.305-1.23.287-.213.56-.442.82-.687.45-.407.683-.701.7-.689zM21.56 40.6c.152.211.275.443.364.688.122.232.21.48.263.736-.153-.212-.276-.445-.364-.691-.121-.231-.21-.478-.263-.734z"/>
    <path fill="#455A64" d="M19.709 61.645c-.03 0-.734-2.865-1.574-6.412-.84-3.547-1.497-6.428-1.467-6.435.03-.006.734 2.862 1.573 6.41.84 3.547 1.497 6.437 1.468 6.437zM23.858 45.139c-.036.05-.079.097-.128.135-.126.115-.262.217-.407.308-.48.3-1.03.47-1.595.496-.566.025-1.129-.096-1.634-.352-.149-.077-.29-.167-.424-.27-.095-.071-.142-.118-.138-.124.005-.007.212.148.605.324.499.23 1.046.337 1.594.312.55-.025 1.084-.18 1.56-.454.359-.208.552-.392.567-.375zM17.308 51.917c-.077-.044-.145-.102-.2-.172-.162-.18-.294-.386-.391-.608-.14-.327-.257-.663-.354-1.005l-.384-1.24c-.271-.885-.509-1.684-.676-2.265l-.193-.689c-.028-.084-.047-.17-.055-.259.04.079.072.161.095.246.062.18.138.41.227.679.186.574.437 1.372.708 2.254l.375 1.244c.092.34.203.675.331 1.003.123.3.298.575.517.812zM15.985 45.993c-.012 0 .043-.104.195-.095.043.003.085.016.121.038.037.023.068.053.091.089.028.05.04.106.033.163-.007.056-.03.109-.069.15-.035.046-.083.078-.138.094-.055.016-.113.015-.167-.004-.04-.018-.077-.045-.105-.08-.028-.035-.047-.076-.056-.12-.032-.15.06-.212.064-.212.004 0-.032.081 0 .187.01.028.028.053.049.075.02.021.046.038.074.05.033.009.069.008.101-.004.033-.011.062-.032.083-.06.024-.025.04-.056.046-.09.006-.035.002-.07-.012-.102-.015-.027-.036-.05-.061-.067-.025-.018-.053-.03-.083-.035-.091-.015-.155.036-.166.023zM16.575 46.95s.015-.028.068-.039c.037-.005.074 0 .109.011.035.013.066.033.092.06.04.042.064.097.068.155.004.058-.011.116-.044.164-.04.06-.097.104-.165.126-.067.022-.14.021-.206-.003-.065-.023-.122-.063-.165-.115-.044-.053-.073-.116-.084-.184-.01-.052-.01-.107 0-.16.01-.053.031-.103.062-.147.02-.032.048-.058.08-.075.034-.018.071-.026.109-.025.057 0 .07.043.065.045-.004.002-.027 0-.065 0-.027.007-.052.02-.074.038-.021.017-.039.039-.051.064-.021.04-.033.084-.037.129-.003.045.003.09.018.133.015.042.038.081.069.115.03.033.067.06.109.078.044.018.092.02.137.006.046-.013.085-.041.113-.08.024-.03.038-.067.038-.106 0-.038-.014-.076-.038-.106-.034-.044-.085-.073-.14-.08-.047-.005-.068.004-.068-.005zM13.3 46.623c.07.135.112.283.124.434.05.365.019.735-.09 1.086-.11.351-.294.675-.54.948-.095.118-.214.216-.35.286-.012-.015.12-.125.291-.337.22-.277.386-.592.492-.929.105-.338.145-.692.119-1.045-.02-.263-.066-.437-.047-.443zM27.572 61.155c-.242.319-.512.615-.807.886-.27.297-.568.568-.889.81.243-.319.514-.616.81-.886.27-.297.567-.568.886-.81z"/>
    <path fill="#455A64" d="M26.86 63.11c.07-.581.213-1.15.424-1.696-.015.292-.067.582-.155.862-.054.288-.144.568-.269.834z"/>
    <path fill="#000" d="M14.03 39.675c.082.3.226.58.422.822.197.242.442.44.72.581.562.28 1.194.39 1.818.32.785-.083 1.532-.378 2.162-.854.63-.476 1.117-1.114 1.41-1.847-.945.658-1.99 1.273-3.122 1.546-.579.148-1.181.18-1.772.093-.591-.086-1.16-.288-1.671-.595" opacity=".3"/>
    <path fill="#FFBE9D" d="M20.362 30.108l.704-.636c.025-.031.057-.056.094-.073.037-.017.077-.025.117-.024.107.015.149.144.153.25.004.142-.024.284-.082.413-.058.13-.144.246-.253.338"/>
    <path fill="#EB996E" d="M21.087 30.37c-.013-.014.09-.1.182-.285.053-.107.086-.222.098-.341.01-.067.01-.135 0-.202-.015-.065-.053-.118-.102-.12-.049-.003-.108.042-.163.093l-.166.146-.284.244c-.163.136-.27.212-.28.212-.01 0 .079-.11.227-.26l.27-.262.16-.152c.03-.036.068-.066.11-.087.042-.021.087-.034.134-.036.028.002.055.01.08.024.024.013.046.032.062.054.028.038.047.082.058.127.015.079.015.16 0 .238-.017.13-.06.255-.128.367-.125.182-.252.25-.258.24z"/>
    <path fill="#FFBE9D" d="M17.192 30.776l-3.142 4.33 3.481.752 1.425-3.97 2.457.313 1.563-.492-1.34-1.206-1.964-.575c-.45-.132-.93-.122-1.375.03-.444.152-.83.438-1.105.818z"/>
    <path fill="#EB996E" d="M21.636 30.503c-.035-.002-.07-.01-.102-.021l-.284-.081c-.246-.072-.602-.178-1.045-.299-.24-.067-.482-.121-.728-.163-.28-.043-.567-.043-.848 0-.306.046-.597.164-.848.345-.263.208-.488.46-.668.742-.63 1.018-1.323 1.997-2.073 2.93-.29.357-.534.637-.708.83-.085.095-.153.167-.212.212-.022.026-.047.05-.075.07.075-.11.156-.215.244-.314.161-.2.397-.488.679-.848.73-.946 1.413-1.928 2.044-2.943.185-.294.42-.554.695-.768.267-.19.575-.312.899-.358.29-.045.584-.045.874 0 .247.045.492.105.733.18.441.13.795.248 1.037.333l.278.1c.037.014.074.032.108.053z"/>
    <path fill="#EB996E" d="M19.036 31.593c-.03.196-.084.388-.159.572-.041.194-.104.382-.188.562-.006-.405.115-.802.347-1.134zM21.562 32.173c-.447.058-.9.052-1.345-.017-.37-.04-.697-.125-.926-.076-.123.027-.24.075-.348.142-.015 0 .08-.154.333-.212.252-.057.594 0 .954.043.732.072 1.33.08 1.332.12z"/>
    <path fill="#FFBE9D" d="M21.998 29.366c-.06.088-.094.192-.094.3 0 .106.033.21.095.298.212.3.379.318.379.318l-.08.34.498.18.24-.719-1.038-.717z"/>
    <path fill="#EB996E" d="M21.998 29.366c.104.046.202.103.293.17.187.119.458.292.774.507l.032.02-.013.037-.235.719-.017.055-.053-.02-.497-.18-.046-.016.013-.045c.027-.119.055-.231.082-.34l.043.062c-.088-.025-.168-.074-.231-.14-.056-.052-.106-.11-.15-.171-.083-.101-.125-.229-.12-.359 0-.055.012-.11.034-.161.021-.051.053-.097.093-.136-.036.096-.058.197-.065.3.003.113.047.22.123.305.044.055.093.107.146.155.052.05.114.086.182.108l.053.012-.01.05c-.026.107-.051.222-.076.338l-.034-.061.498.176-.07.034.242-.717.02.057c-.294-.212-.54-.392-.72-.528-.102-.07-.199-.148-.29-.23z"/>
    <path fill="#263238" d="M23.767 32.477s.598.199.663.299c.066.1-.333 12.23-.333 12.23l-1.03-1.197.7-11.332z"/>
    <path fill="#455A64" d="M22.338 31.879L18.8 42.81l4.266.998.7-11.332-.632.1-.797-.698z"/>
    <path fill="#FAFAFA" d="M23.932 43.487c-.088-.085-.167-.178-.238-.278-.142-.18-.34-.443-.578-.759l.027.02-1.344-.249c-.73-.137-1.387-.269-1.864-.369-.237-.05-.424-.093-.562-.125-.073-.01-.144-.03-.212-.061.072-.002.143.004.212.019.134.019.329.049.569.089.479.083 1.14.201 1.87.34l1.342.262h.019l.01.015c.23.322.425.591.55.782.078.097.144.202.199.314zM23.932 40.813c-.07-.063-.133-.134-.186-.212-.11-.146-.265-.358-.45-.614l.03.019-1.181-.212c-.61-.117-1.162-.227-1.56-.314-.217-.035-.43-.09-.637-.161.22.01.438.038.653.084.403.066.957.166 1.567.28l1.177.234h.019l.01.014c.177.263.32.482.425.637.054.076.1.158.133.245zM23.894 37.843c-.17-.169-.325-.353-.46-.551l.03.019c-.282-.047-.636-.11-1.008-.18-.47-.092-.896-.178-1.204-.246-.168-.027-.333-.072-.492-.134.17.001.34.02.507.057.312.05.74.123 1.21.212.376.07.724.14 1.001.2h.02v.014c.15.19.283.394.396.609zM23.926 35.22c-.128-.116-.242-.247-.34-.39l.028.017c-.225-.034-.511-.085-.823-.144-.446-.065-.887-.167-1.316-.305.45.03.896.096 1.335.197.314.06.598.119.82.167h.018v.013c.111.136.204.286.278.445z"/>
    <path fill="#263238" d="M23.067 43.81c-.722-.113-1.438-.262-2.146-.446-.715-.149-1.423-.333-2.12-.553.723.112 1.44.26 2.148.445.715.148 1.422.333 2.118.553z"/>
    <path fill="#455A64" d="M20.088 44.297l-1.287-1.486 4.266.998 1.03 1.196-4.009-.708z"/>
    <path fill="#E8505B" d="M28.285 44.407l-4.353.598V32.536l.498.24 3.855 11.631z"/>
    <path fill="#000" d="M28.285 44.407l-4.353.598V32.536l.498.24 3.855 11.631z" opacity=".4"/>
    <path fill="#FAFAFA" d="M26.856 40.737c-.088.031-.177.058-.267.079-.24.07-.471.173-.685.305-.317.191-.57.473-.725.81-.096.2-.145.421-.142.644.003.223.056.442.157.64.053.097.134.176.233.225.042.021.09.027.136.018.046-.01.088-.035.118-.07.054-.085.076-.187.06-.287-.016-.101-.05-.199-.1-.288-.087-.159-.216-.291-.371-.383-.156-.092-.334-.14-.515-.14-.121.005-.24.036-.35.089-.108.053-.206.127-.286.218-.121.129-.166.212-.174.212-.009 0 0-.024.025-.068.033-.063.072-.122.117-.176.081-.104.183-.19.3-.25.116-.062.245-.098.376-.106.198-.006.393.043.566.14.172.098.314.24.412.413.07.1.11.218.117.34.006.121-.022.242-.081.349-.045.056-.107.096-.177.112-.07.016-.143.008-.207-.023-.12-.059-.22-.154-.284-.271-.11-.214-.168-.45-.17-.69-.002-.24.052-.477.157-.693.169-.35.44-.641.778-.833.223-.13.465-.225.717-.28.086-.025.175-.037.265-.036zM26.035 38.882c-.074.089-.17.157-.277.2-.253.117-.53.17-.808.154-.278-.016-.547-.1-.785-.246-.178-.117-.26-.212-.252-.229.1.047.197.1.29.161.235.12.49.193.753.212.262.014.524-.026.77-.116.1-.053.203-.098.31-.136zM24.899 35.858c-.108.132-.202.274-.28.425-.077.163-.114.343-.11.523 0 .047.012.094.033.136.022.042.052.08.09.108.042.024.091.036.14.033.049-.003.096-.02.135-.05.042-.028.075-.067.095-.113.02-.046.027-.096.02-.146-.01-.098-.055-.19-.13-.256-.069-.053-.148-.09-.234-.108-.085-.019-.173-.018-.258.002-.12.027-.235.073-.34.138-.077.044-.12.07-.126.063-.006-.006.03-.042.102-.1.102-.081.22-.142.345-.177.098-.029.201-.034.301-.016.1.019.195.06.276.122.096.081.158.196.172.322.01.069 0 .139-.029.202-.028.064-.073.119-.13.158-.058.042-.126.066-.197.069-.07.003-.141-.015-.202-.052-.05-.038-.092-.088-.12-.146-.028-.057-.042-.12-.04-.184-.004-.197.044-.392.14-.565.059-.116.138-.221.232-.311.06-.057.11-.083.115-.077z"/>
    <path fill="#E8505B" d="M32.173 41.948l-3.888 2.192-4.353-10.966 1.296-.697 6.945 9.47z"/>
    <path fill="#E8505B" d="M32.936 40.917l-.763 1.03-6.946-9.47.882-.598 6.827 9.038z"/>
    <path fill="#FAFAFA" d="M26.449 34.281c.015-.021.034-.04.057-.053.064-.04.137-.067.212-.076.272-.03.545.034.774.184.342.217.598.546.723.931.083.225.11.468.078.706-.018.132-.068.257-.145.365-.078.108-.18.195-.3.254-.238.116-.513.135-.765.053-.228-.08-.43-.218-.588-.4-.269-.304-.424-.691-.439-1.097-.004-.273.089-.539.261-.75.047-.056.1-.106.16-.149.042-.027.065-.04.067-.036-.068.067-.133.138-.193.212-.149.211-.223.465-.212.723.025.383.179.746.437 1.03.146.168.334.294.545.365.225.073.469.056.68-.048.105-.051.195-.127.263-.22.068-.095.112-.204.128-.319.029-.22.006-.445-.068-.655-.117-.366-.353-.682-.67-.897-.212-.148-.467-.223-.725-.212-.099.01-.194.04-.28.089zM32.66 40.538s-.016.06-.09.138c-.108.104-.242.178-.388.212-.22.056-.454.036-.662-.055-.25-.115-.464-.298-.615-.528-.156-.224-.258-.482-.297-.753-.03-.223 0-.45.087-.657.059-.139.148-.262.261-.36.08-.07.134-.094.138-.088-.14.135-.252.297-.327.477-.072.196-.092.407-.059.613.04.257.137.5.284.715.14.214.336.385.566.496.188.088.4.114.602.072.191-.044.365-.142.5-.282zM27.206 39.128s.015-.023.055-.053c.064-.042.136-.069.212-.079.272-.028.545.038.774.187.341.216.597.545.723.929.083.225.11.468.078.706-.018.132-.068.257-.146.365-.077.109-.18.196-.299.256-.239.115-.513.134-.765.05-.228-.078-.43-.217-.588-.4-.27-.302-.424-.69-.439-1.094-.003-.274.089-.54.261-.753.047-.055.1-.104.16-.146.042-.03.065-.04.067-.038-.068.067-.132.138-.193.212-.15.21-.224.465-.212.723.025.382.18.745.437 1.028.146.169.334.295.545.367.224.072.468.055.68-.049.104-.05.194-.127.262-.22.068-.094.112-.203.128-.318.03-.22.006-.445-.067-.655-.116-.367-.352-.683-.67-.897-.213-.147-.467-.221-.726-.212-.097.011-.192.042-.277.09z"/>
    <path fill="#000" d="M32.936 40.917l-.763 1.03-6.946-9.47.882-.598 6.827 9.038z" opacity=".2"/>
    <path fill="#455A64" d="M21.96 30.477c.055-.049.12-.082.192-.096.072-.015.146-.01.215.014.137.048.264.12.376.212l2.501 1.865-.612.35c-.299-.573-.79-1.024-1.387-1.272"/>
    <path fill="#263238" d="M23.084 32.62c-.071-.526-.337-1.008-.747-1.348-.253-.163-.485-.358-.69-.578-.034-.036-.057-.08-.068-.127-.01-.047-.009-.096.006-.143.021-.035.053-.064.09-.081.039-.018.08-.024.122-.018.084.016.165.05.235.1.438.232.84.527 1.194.875.176.175.313.385.402.617.089.231.127.48.113.727M17.01 18.873c-.93.242-2.104 1.198-1.667 2.574 1.14-.28 2.171-1.104 3.098-1.827.197 1.06.33 1.583.865 2.563.212.375 1.942 1.895 2.188 2.014.246.119.375-1.037.146-1.484 0 .006-1.088-4.758-4.63-3.84z"/>
    <path fill="#E8505B" d="M17.01 18.873c1.19.174 2.28.764 3.076 1.665.773 1.002 1.27 2.19 1.442 3.443 1.02-1.287.636-3.628-.424-4.665-1.06-1.036-2.807-1.15-4.099-.445"/>
    <path fill="#263238" d="M28.393 21.061c.023.035.04.073.05.113.032.115.032.236 0 .352-.05.183-.156.347-.302.468-.197.153-.425.261-.668.316-.289.071-.582.122-.878.15-.342.039-.689.022-1.026-.048-.378-.08-.727-.26-1.01-.524-.28-.299-.483-.663-.589-1.06-.103-.386-.229-.765-.377-1.136-.148-.336-.384-.626-.683-.838-.522-.349-1.138-.533-1.766-.528-.426 0-.851.031-1.272.094l-.346.046c-.04.005-.08.005-.12 0 .037-.015.076-.026.116-.032l.343-.065c.42-.081.845-.125 1.273-.13.647-.015 1.284.167 1.825.522.316.221.566.525.72.878.154.373.283.757.387 1.147.1.382.292.733.56 1.024.267.25.598.423.956.5.619.109 1.254.082 1.861-.078.235-.047.456-.145.65-.286.14-.112.244-.263.298-.435.046-.146.045-.303-.002-.45zM20.167 22.633c-.03.73.173 1.451.58 2.058.425.583 1.192.959 1.898.791l-.558-.61c.214.111.453.163.694.148.24-.015.472-.095.67-.231-.654-.168-1.266-.467-1.8-.88-.533-.414-.976-.932-1.302-1.522"/>
    <path fill="#263238" d="M20.722 20.334c.113.138.206.29.278.454.193.384.34.788.439 1.206.1.417.152.844.154 1.272.01.178-.003.357-.042.53-.023-.598-.094-1.194-.212-1.78-.162-.576-.368-1.138-.617-1.682z"/>
    <path fill="#263238" d="M21.591 20.745c.055.143.087.292.098.444.052.362.077.728.074 1.094 0 .365-.027.73-.08 1.092-.013.151-.047.3-.1.443-.034 0 .07-.69.07-1.537 0-.848-.095-1.531-.061-1.535z"/>
    <path fill="#FAFAFA" d="M21.426 19.728c-.078.025-.158.043-.24.055-.148.03-.352.076-.572.142-.22.066-.424.136-.558.19-.075.035-.152.063-.23.086.065-.047.136-.085.211-.115.181-.082.368-.153.558-.212.19-.056.383-.1.579-.131.083-.013.168-.018.252-.015zM20.29 18.757c-.088.02-.178.037-.267.048-.216.04-.429.096-.637.168-.206.071-.406.157-.6.257-.078.046-.158.088-.241.125 0 0 .019-.02.057-.045.038-.025.098-.066.17-.108.19-.109.392-.2.6-.271.206-.072.42-.124.636-.155.066-.01.132-.018.199-.021.057-.002.083-.002.083.002zM18.377 18.45c0 .012-.246.095-.549.211-.13.051-.256.108-.38.172-.049.03-.1.057-.154.079.151-.13.327-.23.517-.291.153-.061.295-.108.396-.14.055-.018.112-.029.17-.032zM21.14 21.405c-.07.038-.146.06-.225.061-.078.014-.157.01-.233-.01.074-.021.151-.032.229-.034.075-.017.152-.023.229-.017zM21.646 21.763c-.047.021-.099.03-.15.026-.085 0-.153 0-.153-.017s.068-.024.15-.026c.084-.002.151.005.154.017zM22.062 21.333c-.063.013-.128.013-.19 0-.064 0-.127-.014-.185-.04.062-.016.127-.016.188 0 .065-.001.129.012.187.04z"/>
    <path fill="#000" d="M21.547 23.905c.037-.865-.092-1.729-.38-2.545-.026-.048-.041-.102-.044-.157-.002-.055.008-.11.03-.16.024-.027.054-.047.088-.06.033-.014.07-.02.105-.018.037.003.072.013.103.03.032.017.06.041.08.07.082.127.12.275.111.425 0-.048.014-.094.037-.135.024-.042.058-.076.099-.1.179.41.253.859.216 1.306-.037.446-.184.877-.428 1.253" opacity=".3"/>
    <path fill="#263238" d="M11.148 7.39L6.325 9.953c-.231.123-.32.411-.196.643l1.022 1.922c.123.232.41.32.642.197l4.823-2.563c.232-.123.32-.411.196-.643l-1.021-1.922c-.124-.232-.411-.32-.643-.197z"/>
    <path fill="#FAFAFA" d="M12.644 9.595l-.197-.373c-.014-.024-.037-.042-.064-.05-.027-.007-.056-.004-.08.01l-.068.036c-.024.013-.053.016-.08.008-.026-.007-.048-.025-.062-.048l-.395-.728c-.012-.025-.014-.054-.006-.08.01-.027.028-.05.053-.062l.068-.036c.024-.013.043-.034.051-.06.01-.026.007-.055-.005-.08l-.061-.13-.174-.326c-.042-.077-.112-.135-.196-.16-.085-.026-.175-.018-.253.023L6.468 10.04c-.039.02-.073.049-.101.082-.028.034-.05.073-.062.114-.013.042-.017.086-.013.13.004.043.017.085.038.124l1.02 1.92c.02.04.048.074.081.102.034.028.073.049.115.061.042.013.085.018.129.013.043-.004.086-.017.124-.037l4.707-2.504c.039-.02.073-.048.101-.082.028-.034.049-.073.062-.114.013-.042.017-.086.013-.13-.005-.043-.017-.085-.038-.124z"/>
    <path fill="#263238" d="M12.173 9.96c-.003.002-.007.004-.01.004-.004 0-.008-.002-.011-.004-.002-.003-.003-.007-.003-.01 0-.004 0-.008.003-.011l.005-.004h.011l.005.004c.002.001.003.003.003.005l.002.005c0 .002 0 .004-.002.006 0 .002-.002.004-.003.005zM12.122 9.985l-.005.004h-.011l-.005-.004c-.002-.003-.004-.006-.004-.01s.002-.008.004-.01c.003-.003.007-.005.01-.005.005 0 .008.002.011.004l.004.005v.011l-.004.005zM12.076 10.013c-.003.002-.007.004-.01.004-.005 0-.009-.002-.011-.004l-.004-.005-.001-.006.001-.005.004-.005c0-.002.002-.003.004-.004h.012l.005.004c.002.003.003.006.003.01s0 .008-.003.01zM11.53 9.7v-.02h.054l-.032.042v-.01l-.021-.013zm0 0l.013-.016h-.014l.002.015z"/>
    <path fill="#263238" d="M11.573 9.7v.018c.004.005.007.012.007.018 0 .007-.003.013-.007.018-.003.002-.006.002-.01.003-.003 0-.006 0-.01-.002l-.008-.005c-.002-.003-.005-.005-.006-.008l-.01-.02.044-.023zm-.023.037c.001.002.002.003.004.003l.005.002c.002 0 .004 0 .006-.002l.004-.003.003-.005.001-.005V9.72l-.004-.005-.028.015.009.006zM11.6 9.756v.02c.003.002.005.004.006.007l.002.01c0 .003 0 .006-.002.009l-.005.007-.01.004c-.003 0-.006 0-.01-.002l-.008-.006-.004-.008v-.02l.032-.02zm-.025.036l.005.004h.012l.004-.004c.002 0 .004-.002.005-.004l.001-.005-.001-.006-.005-.004-.025.015.004.004zM11.614 9.884l.025-.015h-.028l.015-.024-.025.013.04-.023-.017.03h.034l-.04.023-.004-.004zM11.643 9.888c.003-.002.006-.003.01-.003l.01.001.009.006c.002.002.004.005.005.009l.005.007c.002.003.002.006.002.01 0 .003 0 .006-.002.009 0 .003-.003.005-.005.007-.005.005-.01.007-.017.007-.006 0-.012-.002-.017-.007-.004-.002-.008-.005-.01-.009-.004-.004-.005-.009-.005-.014 0-.005.001-.01.004-.014l.011-.01zm.021.036c.002-.003.003-.006.003-.01 0-.003 0-.006-.003-.01l-.003-.004-.006-.003h-.006l-.006.001-.005.004-.002.006v.012l.006.006c.002.001.005.003.008.003h.008l.006-.005zM11.666 9.979v-.013h-.012l.042-.023v.019l.005.006.001.007c0 .002 0 .005-.002.007 0 .002-.002.004-.004.005-.003.002-.006.003-.01.003-.003 0-.006 0-.009-.003v.017l-.01-.025zm.03-.028h-.015s.017.007.017 0h-.002z"/>
    <path fill="#263238" d="M11.698 10.026l-.017-.032.043-.024.017.032V9.98v.02-.02l-.043.047zM11.728 10.055v-.01h-.01.01v.01zM10.997 7.912c.01-.006.022-.008.034-.006.012.001.024.006.033.014.009.008.015.019.018.03.002.012.002.025-.003.036h-.021c.003-.005.004-.01.004-.016 0-.005-.001-.011-.004-.016-.002-.004-.005-.008-.008-.01-.004-.004-.008-.006-.012-.007h-.014c-.004 0-.009.002-.013.004s-.007.005-.01.009c-.003.003-.006.007-.007.012-.001.004-.002.009-.001.013 0 .005.001.01.004.013.006.009.015.015.025.017v.021c-.008-.001-.016-.005-.023-.01-.006-.005-.012-.012-.015-.02-.005-.006-.01-.013-.011-.02-.003-.009-.003-.017-.002-.025s.004-.015.009-.022c.004-.007.01-.013.017-.017z"/>
    <path fill="#263238" d="M11.084 8.083l-.043.024-.01-.02c-.006 0-.01-.002-.014-.005-.005-.003-.008-.007-.01-.011l-.006-.009c-.002-.003-.002-.007-.002-.01 0-.004 0-.008.002-.01.001-.004.003-.007.006-.01.013 0 .028 0 .038.02V8.043c-.004-.006-.01-.012-.017-.017l.034-.023c.011.006.02.014.026.025.02.026.017.045-.004.055zm-.032 0V8.07h-.015c-.002 0-.003.002-.003.003l-.001.005v.005l.004.004.008.004.01-.001c.002-.002.005-.004.006-.007s.002-.006.001-.01l-.01.011zM11.149 8.132h-.02c-.003-.004-.01-.006-.015-.006-.006 0-.012.002-.016.006l-.034.02V8.13l.072-.038.013.02c.002.002.003.006.003.01 0 .003-.001.007-.003.01zM11.223 8.215l-.101.055V8.25c-.005-.001-.01-.003-.013-.006-.004-.003-.007-.007-.009-.011-.003-.005-.005-.01-.005-.016l.001-.016c.002-.006.004-.01.008-.015.004-.004.008-.008.013-.01.01-.006.022-.007.033-.005.011.003.02.01.027.02.003.008.003.018 0 .027l.036-.019.01.017zm-.076 0c.013 0 .017-.02 0-.03-.004-.004-.01-.006-.015-.006-.005 0-.01.002-.015.006-.004.004-.006.01-.006.015 0 .006.002.011.006.015s.01.006.015.006c.006 0 .011-.002.015-.006zM11.136 8.268h.02c-.004.01-.004.02 0 .03 0 .01 0 .012.012.01.013-.002-.023-.044 0-.06.024-.014.03 0 .043.022.002.01.002.021 0 .032h-.02c.003-.008.003-.016 0-.023 0-.011-.01-.013-.014-.011-.005.002.025.044 0 .061-.026.017-.03 0-.043-.023-.003-.013-.002-.026.002-.038zM8.353 10.428l-.013-.025h.019l.038.072h-.019l-.013-.025-.06.034-.012-.024.06-.032zM8.359 10.49c.006-.003.012-.005.019-.006.006 0 .013 0 .019.003.006.002.012.005.017.01.004.005.008.01.01.016.004.006.006.012.007.018v.02c-.002.006-.005.012-.009.017-.004.005-.009.01-.014.013-.012.006-.026.007-.04.002-.012-.004-.022-.013-.028-.025-.004-.006-.006-.012-.007-.019 0-.006 0-.013.002-.02l.009-.017c.004-.005.01-.009.015-.012zm.036.068c.004-.005.007-.012.007-.018 0-.007-.003-.013-.007-.018-.002-.003-.005-.004-.008-.006l-.01-.002-.008.002c-.003.002-.006.003-.008.006-.003.001-.006.003-.008.006l-.005.008c-.002.003-.002.007-.002.01s0 .007.002.01l.01.01.013.004c.005 0 .01-.001.013-.003.005-.002.008-.005.01-.01zM8.444 10.596l-.013-.026h.017l.04.073H8.47l-.013-.026-.063.034v-.023l.05-.032zM8.454 10.727l-.019-.034h-.019l-.012-.023h.1l.012.024-.062.065-.012-.023.012-.009zm.013-.014l.021-.026h-.031l.01.026zM8.54 10.73l.012.023-.064.032.021.04H8.49l-.031-.062.08-.034zM7.882 10.443l-.026.013.024-.013c-.007-.02-.007-.043 0-.063h.002c-.006.018-.006.037 0 .055l.057-.03c0-.027-.013-.055.015-.072.006-.003.013-.005.02-.005.007 0 .014 0 .02.004.007.002.012.006.017.011.005.005.009.011.01.018l.026-.015-.025.015c.009.015.012.033.01.05H8.03c.004-.015.004-.03 0-.046l-.057.032c0 .027.013.057-.015.072-.027.015-.057.008-.076-.026zm.08-.057l.056-.03c-.015-.02-.032-.025-.045-.017-.013.009-.017.026-.013.047h.002zm-.02.07c.016 0 .014-.028 0-.049l-.054.028c.021.023.038.027.051.021h.002zM8.126 10.532l-.153.08v-.014l.14-.074-.021-.036h.015l.019.044zM8.094 10.744c-.028.015-.055 0-.076-.036-.022-.036-.015-.068.012-.082.008-.006.017-.01.027-.01.01 0 .019.004.026.01-.001-.009 0-.017.004-.025s.01-.014.017-.018c.026-.013.051 0 .07.032.02.032.013.062-.012.074-.007.005-.015.008-.024.008-.008 0-.016-.003-.023-.008.004.01.005.022 0 .032-.003.01-.011.019-.021.023zm0-.017c.019 0 .021-.031 0-.059-.021-.027-.036-.036-.055-.025-.02.01-.021.031 0 .059.02.027.032.036.055.025zm.019-.065c.013.023.032.031.049.023s.019-.03 0-.053c-.02-.023-.03-.032-.047-.023-.017.008-.021.03-.006.053h.004zM8.145 10.76c.046-.028.09-.018.108.018.017.036 0 .077-.045.102-.044.025-.09.017-.11-.019-.019-.036-.004-.087.047-.102zm.055.105c.042-.023.053-.053.04-.08-.013-.028-.046-.032-.087 0-.04.031-.055.053-.04.078.015.026.047.013.087-.008v.01zM8.168 10.948h-.051.036v-.015l.009-.003c.003 0 .006.001.008.003s.003.005.002.008c0 .003-.002.005-.004.007zM8.24 11.075h-.015l-.057-.104h.01l.098.03c.008.003.016.005.024.005.009 0 .017-.002.025-.005.017 0 .021-.028 0-.051-.004-.008-.01-.016-.016-.021-.007-.006-.016-.01-.024-.013v-.015c.01.003.021.008.03.016.009.007.016.016.02.027.017.03.013.059-.014.072-.01.005-.02.007-.03.007-.01 0-.02-.002-.03-.007l-.08-.024.06.083zM8.306 11.06c.049-.025.091-.014.11.02.02.033 0 .076-.044.103-.045.028-.091.015-.11-.019-.02-.034.002-.076.044-.104zm.057.106c.04-.02.053-.053.038-.078-.014-.026-.046-.034-.087 0-.04.034-.053.05-.04.078.013.028.053.017.096 0h-.007z"/>
    <path fill="#E8505B" d="M8.279 11.744l-.796-1.481c-.07-.13-.232-.179-.362-.109l-.041.022c-.13.07-.179.232-.109.362l.796 1.48c.07.13.232.18.362.11l.041-.022c.13-.07.179-.232.109-.362z"/>
    <path fill="#000" d="M8.279 11.744l-.796-1.481c-.07-.13-.232-.179-.362-.109l-.041.022c-.13.07-.179.232-.109.362l.796 1.48c.07.13.232.18.362.11l.041-.022c.13-.07.179-.232.109-.362z" opacity=".3"/>
    <path fill="#E8505B" d="M8.24 11.668l-.796-1.481c-.07-.13-.231-.179-.361-.109l-.042.022c-.13.07-.178.232-.108.362l.796 1.481c.07.13.232.179.362.109l.04-.022c.13-.07.18-.232.11-.362z"/>
    <path fill="#fff" d="M7.58 10.992c-.006.003-.013.005-.02.005-.007 0-.014 0-.02-.004-.007-.002-.013-.007-.018-.012-.005-.005-.009-.011-.011-.018l-.015-.03-.036.021v-.019l.12-.063.026.046c.007.032.002.053-.025.074zm0-.019c.018 0 .022-.025 0-.046l-.014-.03-.055.03.015.027c.012.017.03.03.046.017l.009.002zM7.585 11.113l-.036-.063h-.036v-.017h.15v.017l-.093.12v-.019l.015-.038zm0-.012l.045-.058h-.075l.03.058zM7.644 11.196l-.042.023v-.017l.04-.023.053-.091.01.019-.041.074h.084v.017l-.104-.002z"/>
    <path fill="#E8505B" d="M8.815 10.744l.019.026c.02.021.049.034.078.036.02.006.042.006.062 0l.068-.038.165-.09.2-.108.052-.03c.02-.009.036-.023.05-.04.01-.018.017-.04.017-.06 0-.023-.006-.044-.018-.062-.087-.164-.184-.34-.284-.526-.013-.023-.032-.04-.055-.051-.023-.01-.05-.014-.074-.009-.012.004-.024.009-.034.015l-.034.017-.066.036-.254.138-.12.064c-.018.009-.035.022-.048.038-.012.016-.02.035-.023.055-.004.019-.004.038 0 .057 0 .017.017.034.025.051l.053.095c.064.123.117.212.155.291l.042.078v.022-.02l-.044-.078-.157-.288-.053-.096c-.01-.017-.018-.034-.025-.053-.007-.02-.007-.041 0-.061.002-.021.01-.04.023-.057.014-.018.032-.032.053-.04l.117-.066.254-.136.066-.036.034-.02c.01-.006.023-.011.036-.014.027-.006.055-.002.08.01.025.01.046.03.06.054l.284.525c.012.02.018.043.018.066 0 .023-.006.046-.018.066-.014.018-.031.032-.051.042l-.055.03-.2.108-.165.087c-.022.013-.045.025-.068.036-.02.011-.041.015-.063.013-.03-.003-.059-.016-.079-.038-.01-.011-.018-.024-.023-.039z"/>
    <path fill="#E8505B" d="M8.984 10.473v-.015l-.042-.057-.098-.176.028-.02.2-.146-.026-.048v-.013.013l.025.046-.197.147-.025.02c.038.07.072.132.095.179l.03.053v.015l.01.002z"/>
    <path fill="#E8505B" d="M8.898 10.187v.013l.03.053.099.184.11-.036c.019-.008.038-.015.058-.02l-.117-.211-.036-.064v-.019l.01.017.037.066.118.212-.057.019-.108.038-.1-.178-.03-.053v-.015l-.014-.006zM8.815 10.322v-.016l.003-.012-.003-.012c-.005-.002-.01-.004-.015-.004-.005 0-.01.002-.015.004-.005.003-.009.007-.012.012-.002.005-.003.01-.003.016l.005.012c.003.004.006.007.01.009h.025c-.006.002-.012.002-.019 0-.005-.002-.01-.005-.012-.009-.003-.004-.005-.01-.005-.014 0-.006 0-.012.003-.018.003-.005.007-.01.012-.012.005-.004.011-.005.017-.005.006 0 .012.002.017.005.002.004.003.008.003.013l-.003.012c.002.006.002.012 0 .017l-.008.002zM8.902 10.484v-.017l.002-.012c0-.004 0-.008-.002-.012-.005-.003-.01-.005-.015-.005-.005 0-.01.002-.015.005-.005.003-.009.007-.01.012-.003.005-.004.01-.003.016 0 .004.002.009.005.012l.01.01h.017l-.01.002-.009-.003c-.005-.002-.009-.006-.012-.01-.003-.006-.004-.01-.004-.016s.001-.011.004-.016c.003-.005.007-.008.012-.01.005-.005.01-.007.017-.007.006 0 .012.002.017.006.003.004.004.009.004.014 0 .005-.001.01-.004.014.002.005.002.011 0 .017h-.004z"/>
    <path fill="#E8505B" d="M9.26 10.433c-.014.007-.03.01-.046.01-.015-.002-.03-.008-.043-.018-.012-.01-.021-.024-.026-.039-.005-.015-.005-.031 0-.046.004-.016.012-.03.025-.04.012-.01.027-.016.042-.018.016-.002.032 0 .046.008.014.007.026.019.034.033.01.018.012.04.006.061-.006.02-.02.038-.038.049z"/>
    <path fill="#fff" d="M9.254 10.356l-.056.028v-.013l.045-.023.01.008z"/>
    <path fill="#E8505B" d="M11.41 9.942l-.777-1.444c-.088-.165-.294-.227-.459-.138l-.698.375c-.165.089-.227.295-.139.46l.777 1.443c.088.165.294.227.459.138l.698-.375c.165-.089.227-.294.138-.46z"/>
    <path fill="#fff" d="M10.356 8.694c-.017 0-.034 0-.046-.025l-.028-.05.095-.05.026.047c.013.023 0 .04 0 .048-.004.003-.01.004-.014.004-.005 0-.01 0-.014-.004.001.007 0 .013-.004.019-.003.005-.009.01-.015.011zm.017-.095l-.023.012.013.022s.012.014.02 0c.01-.015 0 0 0-.022l-.01-.012zm-.027.072v-.026l-.013-.025-.024.013.013.025c.009.013.015.017.024.013zM10.392 8.777l-.023-.045h-.025V8.71h.118v.021l-.072.096-.013-.024.015-.025zm.015-.017l.028-.034h-.045l.017.034zM10.539 8.866l-.096.05v-.018l.032-.079-.057.032-.013-.021.098-.053v.019l-.032.078.057-.031.01.023zM10.51 8.955h-.02l-.024.013-.012-.022.097-.053v.024l-.044.023.068.02.012.022-.063-.014-.03.07-.015-.026.032-.057zM9.947 8.89v-.018l-.023.013h.023l-.028-.051.083.015v.01l-.08-.014.019.038.02-.01h-.018v.016h.004zM9.985 8.953c-.015 0-.032 0-.044-.017-.003-.006-.004-.013-.004-.02 0-.006.001-.012.004-.018-.004.01-.004.023 0 .034.002.005.006.01.012.012.005.002.012.002.017 0 0 0 .015-.017 0-.034h.045l-.013-.046.03.057h-.045c.015.01.015.025-.002.032zM10.023 9.023c-.015 0-.032 0-.044-.017-.003-.006-.004-.013-.004-.02 0-.006.001-.012.004-.018-.004.01-.004.021 0 .031.008.016.019.02.032.013 0 0 .012-.017 0-.038v-.02l.046-.018.026.049-.022-.04h-.03v.012c.013.042.007.06-.008.066zM10.066 9.101c-.004.002-.008.004-.012.004-.005 0-.009 0-.013-.002-.004 0-.008-.003-.01-.006-.004-.003-.006-.007-.008-.01-.012-.024 0-.045.024-.06.005-.004.01-.007.017-.009h.02c.007.002.013.004.018.009.005.004.01.009.012.015.002.008.002.015 0 .023.002-.003.003-.006.003-.01l-.003-.009c-.002-.005-.005-.009-.01-.012-.003-.003-.008-.005-.013-.006-.005-.002-.01-.002-.015 0-.006 0-.01.002-.014.005.006 0 .012.003.017.006.005.003.01.008.012.013.003.005.005.01.005.016s0 .011-.004.016c-.002.005-.006.01-.01.012-.005.003-.01.005-.016.005zm0 0l.005-.007.002-.009c0-.003 0-.006-.002-.008l-.005-.008c0-.014-.022-.019-.032-.012-.01.006-.015.017 0 .034.003.003.008.005.012.005.005 0 .01 0 .013-.003l.007.008zM10.142 9.305l.015-.036h-.038.048l.02-.04-.015.033.042.013h-.045l-.02.045-.007-.015zM10.178 9.373l.015-.036h-.038v-.011h.049l.019-.042-.015.033h.038-.045l-.02.045-.003.01zM10.214 9.44l.015-.036h-.038.049l.019-.042-.015.034h.038v.01h-.044l-.022.045-.002-.01zM10.25 9.506l.015-.036h-.038.049l.019-.04-.017.034h.038-.045l-.02.044v-.002zM10.373 9.74l.017-.037h-.038.049l.019-.042-.015.032h.036-.046l-.02.044-.002.002zM10.41 9.805l.016-.036h-.038.049l.019-.042-.015.034h.036-.046l-.02.044h-.002zM10.445 9.873l.017-.036h-.038v-.01h.049l.019-.043-.015.034h.036-.046l-.02.044-.002.01zM10.481 9.939l.017-.034h-.038.049l.02-.043-.016.032h.036v.01h-.046l-.02.045-.002-.01zM10.683 10.1l-.09.049v-.011l.081-.042-.012-.022.02.026zM10.662 10.214l-.013.003c-.004 0-.009-.001-.013-.003s-.007-.004-.01-.008l-.007-.01c-.004-.013-.004-.027 0-.039h.01c-.002.005-.003.01-.003.016 0 .005.001.01.004.016 0 .003.002.005.004.008l.008.005.009.002.008-.002s.013-.017 0-.032h.043l-.017-.047.03.057h-.045c.002.006.003.013.001.019-.001.006-.005.011-.01.015zM10.706 10.301v-.017l-.023.013.023-.013-.027-.05.082.014-.08-.015.019.039h.02-.018v.017l.004.012zM10.727 10.378l-.034-.062.056.017c.008.003.018.003.027 0 .004-.004.006-.01.006-.015 0-.005-.002-.01-.006-.015-.002-.004-.005-.009-.01-.012-.003-.003-.008-.005-.013-.007.006.002.012.004.018.008.005.004.009.01.011.016.004.002.006.005.008.01.002.003.002.007.002.01 0 .005 0 .009-.002.013l-.008.009c-.005.003-.01.004-.017.004-.006 0-.011-.001-.017-.004l-.046-.015.025.043zM9.678 8.879c.006-.003.013-.004.019-.002s.012.006.015.012v.021l.002-.006-.002-.006-.005-.004h-.012l-.004.004c-.002 0-.003.002-.004.004v.01l.004.005h.01c-.003-.001-.007-.003-.01-.006-.003-.002-.005-.006-.007-.01-.003-.002-.005-.006-.006-.01v-.012zM9.703 8.96v-.02H9.69h.051l-.031.042-.007-.023zm0 0l.013-.016h-.02l.007.015zM9.72 9.008v-.013h-.012l.042-.023v.019l.004.006.002.007c0 .002 0 .004-.002.007 0 .002-.002.004-.004.005-.003.002-.006.003-.01.003-.003 0-.006 0-.01-.003v.017l-.01-.025zm.028-.028h-.013.01c.011 0 .007.007.003 0z"/>
    <path fill="#fff" d="M9.73 9.02V9.003c0-.009.018 0 .024.01V9.05c0 .009-.017 0-.023 0-.002-.01-.002-.02 0-.03zM9.822 9.097l-.042.023h.019l-.009-.038h-.017l.043-.023H9.8v.019h.017l.004.019zM9.805 9.116c.005-.004.01-.006.017-.006.006 0 .012.002.017.006.004.005.007.011.007.018 0 .007-.003.013-.007.018-.003.002-.006.002-.01.002l-.01-.001-.008-.005-.006-.009c-.002-.003-.003-.007-.003-.011l.003-.012zm.02.036l.002-.005.002-.006c0-.001 0-.003-.002-.005 0-.002-.002-.004-.003-.005-.003-.003-.007-.004-.01-.004-.004 0-.008.001-.011.004l-.003.004-.001.005v.006l.004.004.004.004.006.002.006-.001c.002 0 .004-.002.005-.003zM9.854 9.158l-.036.02.012.02-.017-.031.04-.009zM9.873 9.194v.02l.005.007.002.01c0 .003 0 .006-.002.009l-.005.007c-.006.004-.013.004-.02.002-.006-.002-.011-.006-.014-.012v-.02l.034-.023zm-.024.037l.003.006.005.004.007.002c.002 0 .005 0 .007-.002.002 0 .004-.002.005-.004l.003-.006v-.007l-.004-.006-.026.015V9.23zM9.883 9.294l-.025-.019.042-.023.017.032v-.022h-.01l.01.02v-.02h-.01l-.024.032zM9.894 9.334V9.32l.042-.024v.02c.002 0 .004.003.005.005l.001.007-.001.007-.005.006c-.002.002-.005.003-.008.003l-.009-.003v.015l-.025-.022zm.03-.027h-.015.015zM9.51 8.963h.02c-.002.004-.003.007-.003.011 0 .004 0 .007.002.01l.005.004h.01l.004-.003.04-.022-.01-.02h.015l.025.046-.05.027c-.004.003-.008.005-.013.006H9.54c-.005-.001-.009-.004-.012-.007-.004-.003-.006-.007-.008-.011-.006-.005-.01-.011-.012-.019-.002-.007-.002-.015.001-.022zM9.546 9.03c.002-.003.005-.004.009-.004.003 0 .006.001.008.003l.003.004.001.005v.004l-.004.004-.004.003-.004.001H9.55l-.004-.004c-.002-.002-.003-.005-.003-.008l.003-.009zM9.699 9.146l-.093.017-.013-.02.046-.048-.065.013v-.022l.068-.07v.02l-.047.048h.068v.017l-.047.049h.068l.015-.004zM9.729 9.188l.01.02-.087.044v-.017l.077-.047zM9.748 9.222v.02l-.085.046v-.02l.085-.046zM9.76 9.258c.003-.002.005-.003.008-.003s.005.001.007.003c.003.002.004.005.004.009 0 .003-.001.006-.004.008-.002.002-.005.003-.008.003l-.009-.003-.002-.004v-.005-.005c.002 0 .003-.002.005-.003zm-.016.013v.017l-.062.034v-.017l.062-.034zM9.765 9.375l-.036.019v-.017s-.013 0-.02-.015c-.006-.015 0-.028 0-.032s.024 0 .035.015V9.339c-.005-.006-.01-.011-.017-.015V9.31c.01.005.017.013.02.023.043.015.043.03.018.04zm-.026 0v-.013h-.015c-.004 0 0 0 0 .013 0 .012.007-.009.015-.01v.01zM9.828 9.487l-.034.02v-.018l.034-.019c.003-.003.004-.006.004-.01 0-.003-.001-.006-.004-.009 0 0-.012-.01-.025 0l-.03.017v-.02l.034-.016c.002-.001.003-.003.003-.005l.002-.006c0-.002 0-.004-.002-.005 0-.002-.001-.004-.003-.005h-.023l-.03.017V9.41l.062-.034v.017c.004 0 .008.002.01.005.004.003.007.006.009.01l.003.012c0 .005-.001.01-.003.013l.012.006c.004.003.007.007.009.011-.004.02-.009.036-.028.036zM9.805 9.521h.017c-.003.008-.003.017 0 .025h.013c.012 0-.022-.038 0-.05.02-.013.025 0 .036.017.002.009.002.018 0 .027h-.015c.002-.006.002-.013 0-.019 0 0 .019.036 0 .05-.02.016-.026 0-.034-.018-.009-.009-.014-.02-.017-.032zM10.227 10.23c.005-.004.01-.007.015-.008h.017c.006.001.011.004.016.007.005.004.008.008.011.013.013.019 0 .042-.02.057-.022.015-.052 0-.062-.013-.011-.012-.005-.042.023-.057zm.027.05c.017 0 .022-.021.017-.03-.004-.008-.017-.012-.034 0-.017.013-.023.022-.019.03.005.009.017.01.037 0zM10.29 10.382l-.012.004c-.004 0-.009 0-.013-.002-.004-.001-.008-.003-.011-.006-.004-.003-.006-.007-.008-.011-.003-.005-.005-.01-.005-.017 0-.005 0-.011.002-.016.002-.006.006-.01.01-.015l.014-.01c.005-.003.011-.006.018-.008h.02c.006.002.012.005.017.01.005.004.008.01.01.016.003.008.003.017 0 .025h-.016v-.017l-.008-.005c-.003-.002-.007-.002-.01-.002s-.007 0-.01.002c-.003 0-.006.003-.008.005 0 0 .013 0 .019.017.002.005.002.011 0 .016-.001.006-.004.01-.008.014zm0-.017c.003-.003.004-.006.004-.01 0-.003-.001-.007-.004-.01 0 0-.012-.012-.019 0-.006.013 0 0 0 .022.003 0 .006 0 .009-.002h.01zM10.382 10.382v.017l-.13.019v-.015l.13-.021zM10.341 10.503h-.017l-.031-.06h.012l.047.015h.019c.004 0 0 0 0-.019l-.007-.008-.01-.005v-.017c.007.001.014.003.02.008.005.004.01.01.012.016v.042c0 .007-.015 0-.032 0h-.028l.015.028zM10.386 10.581v-.013h-.017v-.017h.017l-.023-.042H10.447v.02h-.067v.022h.014v.017h-.014v.013h.006z"/>
    <path fill="#fff" d="M10.903 9.867c.024-.024.04-.055.044-.088.004-.033-.004-.067-.022-.095-.01-.019-.025-.035-.043-.046-.02-.018-.045-.028-.07-.028-.027 0-.053.01-.072.028-.013.017-.023.036-.028.057-.006.02-.007.042-.004.063 0 .023.005.045.014.065.01.02.023.04.04.054.017.012.038.019.06.019.021 0 .042-.007.06-.019l.021-.01z" opacity=".2"/>
    <path fill="#fff" d="M11.533 10.172l-1.026-1.908c-.005-.01-.011-.017-.02-.024-.007-.006-.016-.01-.026-.014-.01-.003-.02-.004-.03-.003-.01.001-.02.004-.028.009l-.341.195c-.006.085.006.17.035.251.028.08.072.155.13.218.139.143.293.27.46.38.168.11.298.269.375.455.042.185.055.375.038.564.002.062.01.124.022.184l.38-.212c.015-.01.026-.024.032-.042.006-.017.006-.036-.001-.053z" opacity=".2"/>
    <path fill="#FFBE9D" d="M9.48 13.155l.861-.7c.377-.303.622-.74.683-1.22l.038-.363-2.576-.524s-.242.782.732.977c-.863.373-1.186 1.156-1.42 2.002l1.683-.172z"/>
    <path fill="#EB996E" d="M8.416 11.985c.013 0 .068-.106.225-.25.215-.2.496-.313.789-.319h.277l-.26-.095-.603-.212h.013c-.12-.065-.218-.162-.285-.28-.066-.12-.098-.254-.09-.39.002-.02.007-.041.013-.061l-.075.04c.726.18 1.383.33 1.864.424.24.04.424.07.57.085.07.012.142.012.212 0-.25-.073-.506-.133-.763-.178-.475-.104-1.126-.268-1.85-.448l-.056-.015-.017.056c-.009.026-.015.054-.019.082-.018.166.021.333.112.473.082.127.193.234.323.312l.606.212.017-.098c-.316.013-.614.148-.831.378-.08.078-.14.176-.172.284z"/>
    <path fill="#E8505B" d="M81.685 73.397c.258-1.372.15-2.788-.315-4.104-.465-1.317-1.269-2.487-2.331-3.393 0 0-.615-.225-.562.462.032.412-.362.993-.691.74-.57-.439-.39-1.334-.636-2.01-.286-.793-1.13-1.215-1.908-1.552-1.425-.625-2.873-1.23-4.404-1.507-1.53-.278-3.163-.212-4.56.481l1.015 2.046c.03.09.076.172.138.244.062.071.137.13.221.172.085.042.176.067.27.074.095.006.189-.006.278-.036l1.853-.136c.27-.019.62.013.696.27.089.292-.26.51-.547.612l-1.944.698c.646.934 1.535 1.675 2.572 2.143 1.032.463 2.104.831 3.203 1.1.339.128.706.156 1.06.081.566-.182.959-.89 1.548-.803-.034.325-.132.64-.288.927-.157.288-.368.54-.624.745 2.292.9 3.89 2 5.937 2.757"/>
    <path fill="#263238" d="M83.65 83.574s0-.019-.017-.06l-.038-.175-.142-.676-.5-2.492c-.104-.526-.212-1.102-.342-1.72-.059-.309-.123-.635-.188-.96l-.098-.5-.074-.522c-.212-1.395-.467-2.951-1.147-4.435-.68-1.484-1.79-2.63-2.839-3.566-.947-.823-1.957-1.57-3.021-2.235-.904-.577-1.654-1.01-2.171-1.315l-.594-.352-.155-.093c-.034-.021-.05-.034-.049-.036l.055.026.16.084.604.333c.523.295 1.282.719 2.192 1.287 1.073.66 2.092 1.403 3.047 2.224.561.489 1.086 1.018 1.569 1.584.52.61.96 1.287 1.304 2.012.687 1.503.937 3.07 1.145 4.468l.072.519c.023.172.066.337.095.502l.185.959c.116.619.227 1.196.326 1.724.195 1.047.354 1.908.467 2.497.05.288.09.515.12.679l.03.178c.004.02.005.04.004.061z"/>
    <path fill="#E8505B" d="M87.246 57.888c-.5.733-1.897.377-1.984-.507-.087-.884 1.215-1.505 1.849-.88.221-2.595-.044-5.209-.78-7.707-.146.512-.392.99-.724 1.408-.358.392-.935.636-1.433.447-.672-.252-.871-1.174-.591-1.836.28-.662.886-1.12 1.465-1.546-.464-.87-1.1-1.636-1.872-2.25-.77-.615-1.659-1.066-2.61-1.324-.747 1.208-1.504 2.44-1.839 3.816-.335 1.376-.184 2.952.736 4.029.392.458.91.816 1.213 1.337.303.522.282 1.321-.252 1.601-.637.33-1.338-.292-1.697-.905-.358-.613-.72-1.37-1.422-1.484-.424 4.893 2.11 9.929 6.295 12.509l-.072-.068c1.661-1.949 2.925-4.205 3.718-6.64zm-3.222-5.42c.373-.343.818-.598 1.304-.746.097-.037.203-.042.304-.016.101.027.19.084.257.164.064.083.11.177.134.278.024.1.027.205.008.308-.039.204-.124.396-.248.564-.185.285-.445.515-.752.663-.154.072-.322.11-.492.11-.17 0-.338-.038-.492-.11-.108-.049-.202-.126-.271-.222-.07-.097-.112-.21-.123-.33.01-.13.05-.256.114-.37.064-.115.151-.215.257-.293z"/>
    <path fill="#263238" d="M84.575 83.574c-.003-.025-.003-.05 0-.076 0-.057 0-.132-.01-.227 0-.212-.02-.498-.034-.87-.03-.763-.073-1.852-.128-3.199-.119-2.7-.307-6.43-.613-10.544-.305-4.113-.655-7.832-.95-10.518-.141-1.344-.275-2.43-.366-3.18l-.1-.865-.023-.225c-.002-.026-.002-.052 0-.079.009.025.014.05.017.077 0 .055.019.129.034.224.027.212.068.492.118.861.104.75.249 1.834.401 3.18.316 2.685.685 6.404.984 10.52.299 4.114.481 7.844.581 10.547.049 1.353.078 2.445.093 3.202 0 .373 0 .665.01.871v.225c0 .026-.006.051-.014.076z"/>
    <path fill="#455A64" d="M76.658 79.026l1.974 8.373h10.344l2.188-8.373H76.658z"/>
    <path fill="#455A64" d="M79.91 85.64c0 .158.802 4.959.802 4.959h6.293l.693-4.96H79.91z"/>
    <path fill="#263238" d="M88.69 87.36c0 .03-2.258.056-5.042.056-2.783 0-5.042-.025-5.042-.055s2.256-.055 5.042-.055 5.042.023 5.042.055zM89.767 83.986c0 .03-2.663.055-5.936.055-3.274 0-5.948-.026-5.948-.055 0-.03 2.663-.056 5.948-.056 3.284 0 5.936.024 5.936.055zM89.299 85.152c0 .03-2.507.055-5.598.055-3.091 0-5.597-.026-5.597-.055 0-.03 2.506-.055 5.597-.055 3.092 0 5.598.023 5.598.055zM89.267 86.318c0 .03-2.417.055-5.396.055s-5.398-.026-5.398-.055c0-.03 2.417-.055 5.398-.055s5.396.023 5.396.055zM90.066 82.847c0 .03-2.782.055-6.212.055-3.43 0-6.216-.019-6.216-.055 0-.036 2.781-.057 6.214-.057 3.432 0 6.214.031 6.214.057zM90.265 81.92c0 .03-2.832.056-6.329.056-3.496 0-6.328-.026-6.328-.056 0-.03 2.832-.055 6.328-.055 3.497 0 6.33.024 6.33.055z"/>
</svg>
