<svg width="28" height="28" viewBox="0 0 28 28" fill="none" xmlns="http://www.w3.org/2000/svg">
<g clip-path="url(#clip0_4904:4472)">
<path d="M15.9012 1.90125C9.23179 1.90125 3.80821 7.33054 3.80821 14V14.04L1.41361 10.4338C1.17929 10.0795 0.699225 9.98232 0.344892 10.2166C-0.00944029 10.451 -0.106596 10.931 0.127721 11.2853L3.60247 16.5146C3.7282 16.7032 3.92823 16.8232 4.15111 16.8518C4.1854 16.8575 4.21398 16.8575 4.24827 16.8575C4.43686 16.8575 4.61975 16.7889 4.76262 16.6575L9.59183 12.3083C9.90616 12.0226 9.93474 11.5368 9.64898 11.2168C9.36323 10.9024 8.87745 10.8739 8.55741 11.1596L5.35127 14.0571V14C5.35127 8.17636 10.0833 3.44431 15.9012 3.44431C21.7192 3.44431 26.4569 8.17636 26.4569 14C26.4569 19.8236 21.7249 24.5557 15.907 24.5557C13.0894 24.5557 10.4377 23.4584 8.44883 21.4638C8.14593 21.1609 7.66015 21.1609 7.35725 21.4638C7.05435 21.7667 7.05435 22.2525 7.35725 22.5554C9.64327 24.8414 12.678 26.0987 15.907 26.0987C22.5707 26.0987 28 20.6752 28 14C28 7.32482 22.5707 1.90125 15.9012 1.90125Z" fill="#7C7B7B"/>
</g>
<defs>
<clipPath id="clip0_4904:4472">
<rect width="28" height="28" fill="white"/>
</clipPath>
</defs>
</svg>
