<svg xmlns="http://www.w3.org/2000/svg" width="166" height="120" fill="none" viewBox="0 0 166 120">
    <path fill="#E0E0E0" d="M10.549 56.371c0-1.852.956-3.002 2.317-3.002 1.361 0 2.32 1.142 2.32 3.002 0 1.861-.956 3.005-2.32 3.005-1.364 0-2.317-1.15-2.317-3.005zm4.204 0c0-1.65-.768-2.605-1.887-2.605s-1.886.956-1.886 2.605c0 1.65.77 2.606 1.886 2.606 1.116 0 1.886-.956 1.886-2.606zM27.306 53.418v5.924h-.43V53.8h-1.448v-.382h1.878z"/>
    <path fill="#EBEBEB" d="M38.508 56.371c0-1.852.956-3.002 2.317-3.002 1.361 0 2.32 1.142 2.32 3.002 0 1.861-.959 3.005-2.32 3.005-1.361 0-2.317-1.15-2.317-3.005zm4.203 0c0-1.65-.767-2.605-1.886-2.605-1.119 0-1.886.956-1.886 2.605 0 1.65.77 2.606 1.886 2.606 1.116 0 1.886-.956 1.886-2.606z"/>
    <path fill="#E0E0E0" d="M52.485 56.371c0-1.852.956-3.002 2.32-3.002 1.365 0 2.318 1.142 2.318 3.002 0 1.861-.956 3.005-2.317 3.005-1.362 0-2.32-1.15-2.32-3.005zm4.207 0c0-1.65-.77-2.605-1.886-2.605-1.116 0-1.887.956-1.887 2.605 0 1.65.768 2.606 1.887 2.606 1.118 0 1.886-.956 1.886-2.606zM68.952 53.418v5.924h-.43V53.8h-1.448v-.382h1.878z"/>
    <path fill="#EBEBEB" d="M80.445 56.371c0-1.852.956-3.002 2.32-3.002 1.364 0 2.317 1.142 2.317 3.002 0 1.861-.956 3.005-2.317 3.005-1.361 0-2.32-1.15-2.32-3.005zm4.206 0c0-1.65-.77-2.605-1.886-2.605-1.116 0-1.886.956-1.886 2.605 0 1.65.767 2.606 1.886 2.606 1.119 0 1.886-.956 1.886-2.606z"/>
    <path fill="#E0E0E0" d="M94.425 56.371c0-1.852.956-3.002 2.318-3.002 1.36 0 2.32 1.142 2.32 3.002 0 1.861-.956 3.005-2.32 3.005-1.364 0-2.318-1.15-2.318-3.005zm4.204 0c0-1.65-.768-2.605-1.886-2.605-1.12 0-1.887.956-1.887 2.605 0 1.65.77 2.606 1.887 2.606 1.115 0 1.886-.956 1.886-2.606zM10.549 29.072c0-1.852.956-3.002 2.317-3.002 1.361 0 2.32 1.141 2.32 3.002 0 1.86-.956 3.005-2.32 3.005-1.364 0-2.317-1.15-2.317-3.005zm4.204 0c0-1.65-.768-2.606-1.887-2.606s-1.886.956-1.886 2.606.77 2.608 1.886 2.608c1.116 0 1.886-.956 1.886-2.608zM27.306 26.112v5.922h-.43V26.5h-1.448v-.388h1.878z"/>
    <path fill="#EBEBEB" d="M38.508 29.072c0-1.852.956-3.002 2.317-3.002 1.361 0 2.32 1.141 2.32 3.002 0 1.86-.956 3.005-2.32 3.005-1.364 0-2.317-1.15-2.317-3.005zm4.203 0c0-1.65-.767-2.606-1.886-2.606-1.119 0-1.886.956-1.886 2.606s.77 2.608 1.886 2.608c1.116 0 1.886-.956 1.886-2.608z"/>
    <path fill="#E0E0E0" d="M52.485 29.072c0-1.852.956-3.002 2.32-3.002 1.365 0 2.318 1.141 2.318 3.002 0 1.86-.956 3.005-2.317 3.005-1.362 0-2.32-1.15-2.32-3.005zm4.207 0c0-1.65-.77-2.606-1.886-2.606-1.116 0-1.887.956-1.887 2.606s.768 2.608 1.887 2.608c1.118 0 1.886-.956 1.886-2.608zM68.955 26.112v5.922h-.434V26.5h-1.447v-.388h1.88z"/>
    <path fill="#EBEBEB" d="M80.445 29.072c0-1.852.956-3.002 2.32-3.002 1.364 0 2.317 1.141 2.317 3.002 0 1.86-.956 3.005-2.317 3.005-1.361 0-2.32-1.15-2.32-3.005zm4.206 0c0-1.65-.77-2.606-1.886-2.606-1.116 0-1.886.956-1.886 2.606s.767 2.608 1.886 2.608c1.119 0 1.886-.956 1.886-2.608z"/>
    <path fill="#E0E0E0" d="M94.425 29.072c0-1.852.956-3.002 2.318-3.002 1.36 0 2.32 1.141 2.32 3.002 0 1.86-.956 3.005-2.32 3.005-1.364 0-2.318-1.15-2.318-3.005zm4.204 0c0-1.65-.768-2.606-1.886-2.606-1.12 0-1.887.956-1.887 2.606s.77 2.608 1.887 2.608c1.115 0 1.886-.956 1.886-2.608zM10.549 42.36c0-1.856.956-3.006 2.317-3.006 1.361 0 2.32 1.142 2.32 3.005 0 1.864-.956 3.002-2.32 3.002-1.364 0-2.317-1.15-2.317-3.002zm4.204 0c0-1.65-.768-2.606-1.887-2.606s-1.886.956-1.886 2.605c0 1.65.77 2.606 1.886 2.606 1.116 0 1.886-.965 1.886-2.606z"/>
    <path fill="#EBEBEB" d="M24.527 42.36c0-1.856.956-3.006 2.32-3.006 1.364 0 2.317 1.142 2.317 3.005 0 1.864-.956 3.002-2.317 3.002-1.361 0-2.32-1.15-2.32-3.002zm4.206 0c0-1.65-.77-2.606-1.886-2.606-1.116 0-1.886.956-1.886 2.605 0 1.65.767 2.606 1.886 2.606 1.119 0 1.886-.965 1.886-2.606z"/>
    <path fill="#E0E0E0" d="M38.508 42.36c0-1.856.956-3.006 2.317-3.006 1.361 0 2.32 1.142 2.32 3.005 0 1.864-.956 3.002-2.32 3.002-1.364 0-2.317-1.15-2.317-3.002zm4.203 0c0-1.65-.767-2.606-1.886-2.606-1.119 0-1.886.956-1.886 2.605 0 1.65.77 2.606 1.886 2.606 1.116 0 1.886-.965 1.886-2.606zM55.265 39.397v5.922h-.43v-5.534h-1.448v-.388h1.878z"/>
    <path fill="#EBEBEB" d="M66.176 42.722c0-1.852.956-3.003 2.317-3.003 1.361 0 2.317 1.142 2.317 3.003 0 1.86-.956 3.005-2.317 3.005-1.361 0-2.317-1.156-2.317-3.005zm4.203 0c0-1.65-.77-2.606-1.886-2.606-1.116 0-1.886.956-1.886 2.606s.77 2.605 1.886 2.605c1.116 0 1.886-.956 1.886-2.605z"/>
    <path fill="#E0E0E0" d="M80.445 42.36c0-1.856.956-3.006 2.32-3.006 1.364 0 2.317 1.142 2.317 3.005 0 1.864-.956 3.002-2.317 3.002-1.361 0-2.32-1.15-2.32-3.002zm4.206 0c0-1.65-.77-2.606-1.886-2.606-1.116 0-1.886.956-1.886 2.605 0 1.65.767 2.606 1.886 2.606 1.119 0 1.886-.965 1.886-2.606zM97.205 39.397v5.922h-.431v-5.534h-1.45v-.388h1.88zM10.55 3.005c0-1.852.955-3.005 2.317-3.005 1.36 0 2.32 1.142 2.32 3.005 0 1.864-.956 3.002-2.32 3.002-1.365 0-2.318-1.15-2.318-3.002zm4.203 0c0-1.65-.768-2.605-1.886-2.605-1.12 0-1.887.956-1.887 2.605 0 1.65.77 2.606 1.887 2.606 1.115 0 1.886-.956 1.886-2.606zM27.306.051v5.916h-.43V.434h-1.448V.05h1.878z"/>
    <path fill="#EBEBEB" d="M38.508 3.005c0-1.852.956-3.005 2.317-3.005 1.361 0 2.32 1.142 2.32 3.005 0 1.864-.956 3.002-2.32 3.002-1.364 0-2.317-1.15-2.317-3.002zm4.203 0c0-1.65-.767-2.605-1.886-2.605-1.119 0-1.886.956-1.886 2.605 0 1.65.77 2.606 1.886 2.606 1.116 0 1.886-.956 1.886-2.606z"/>
    <path fill="#E0E0E0" d="M52.485 3.005c0-1.852.956-3.005 2.32-3.005 1.365 0 2.318 1.142 2.318 3.005 0 1.864-.956 3.002-2.317 3.002-1.362 0-2.32-1.15-2.32-3.002zm4.207 0c0-1.65-.77-2.605-1.886-2.605-1.116 0-1.887.956-1.887 2.605 0 1.65.768 2.606 1.887 2.606 1.118 0 1.886-.956 1.886-2.606zM68.955.051v5.916h-.434V.434h-1.447V.05h1.88z"/>
    <path fill="#EBEBEB" d="M80.445 3.005c0-1.852.956-3.005 2.32-3.005 1.364 0 2.317 1.142 2.317 3.005 0 1.864-.964 3.002-2.317 3.002-1.353 0-2.32-1.15-2.32-3.002zm4.206 0c0-1.65-.77-2.605-1.886-2.605-1.116 0-1.886.956-1.886 2.605 0 1.65.767 2.606 1.886 2.606 1.119 0 1.886-.956 1.886-2.606z"/>
    <path fill="#E0E0E0" d="M94.425 3.005c0-1.852.956-3.005 2.318-3.005 1.36 0 2.32 1.142 2.32 3.005 0 1.864-.962 3.002-2.32 3.002-1.359 0-2.318-1.15-2.318-3.002zm4.204 0c0-1.65-.768-2.605-1.886-2.605-1.12 0-1.887.956-1.887 2.605 0 1.65.77 2.606 1.887 2.606 1.115 0 1.886-.956 1.886-2.606zM10.549 16.29c0-1.853.956-3.003 2.317-3.003 1.361 0 2.32 1.142 2.32 3.003 0 1.86-.956 3.005-2.32 3.005-1.364 0-2.317-1.153-2.317-3.005zm4.204 0c0-1.65-.768-2.606-1.887-2.606s-1.886.956-1.886 2.606.77 2.605 1.886 2.605c1.116 0 1.886-.956 1.886-2.605z"/>
    <path fill="#EBEBEB" d="M24.527 16.29c0-1.853.956-3.003 2.32-3.003 1.364 0 2.317 1.142 2.317 3.003 0 1.86-.956 3.005-2.317 3.005-1.361 0-2.32-1.153-2.32-3.005zm4.206 0c0-1.65-.77-2.606-1.886-2.606-1.116 0-1.886.956-1.886 2.606s.767 2.605 1.886 2.605c1.119 0 1.886-.956 1.886-2.605z"/>
    <path fill="#E0E0E0" d="M38.508 16.29c0-1.853.956-3.003 2.317-3.003 1.361 0 2.32 1.142 2.32 3.003 0 1.86-.956 3.005-2.32 3.005-1.364 0-2.317-1.153-2.317-3.005zm4.203 0c0-1.65-.767-2.606-1.886-2.606-1.119 0-1.886.956-1.886 2.606s.77 2.605 1.886 2.605c1.116 0 1.886-.956 1.886-2.605zM55.265 13.327v5.925h-.43v-5.534h-1.448v-.39h1.878z"/>
    <path fill="#EBEBEB" d="M66.176 16.655c0-1.855.956-3.005 2.317-3.005 1.361 0 2.317 1.141 2.317 3.005 0 1.863-.961 3.002-2.317 3.002-1.355 0-2.317-1.15-2.317-3.002zm4.203 0c0-1.653-.77-2.606-1.886-2.606-1.116 0-1.886.954-1.886 2.606s.77 2.605 1.886 2.605c1.116 0 1.886-.944 1.886-2.605z"/>
    <path fill="#E0E0E0" d="M80.445 16.29c0-1.853.956-3.003 2.32-3.003 1.364 0 2.317 1.142 2.317 3.003 0 1.86-.956 3.005-2.317 3.005-1.361 0-2.32-1.153-2.32-3.005zm4.206 0c0-1.65-.77-2.606-1.886-2.606-1.116 0-1.886.956-1.886 2.606s.767 2.605 1.886 2.605c1.119 0 1.886-.956 1.886-2.605zM97.205 13.327v5.925h-.431v-5.534h-1.45v-.39h1.88z"/>
    <path fill="#EBEBEB" d="M108.512 56.371c0-1.852.956-3.002 2.317-3.002 1.361 0 2.32 1.142 2.32 3.002 0 1.861-.956 3.005-2.32 3.005-1.364 0-2.317-1.15-2.317-3.005zm4.203 0c0-1.65-.767-2.605-1.886-2.605-1.119 0-1.886.956-1.886 2.605 0 1.65.77 2.606 1.886 2.606 1.116 0 1.886-.956 1.886-2.606z"/>
    <path fill="#E0E0E0" d="M122.493 56.371c0-1.852.953-3.002 2.317-3.002 1.364 0 2.317 1.142 2.317 3.002 0 1.861-.956 3.005-2.317 3.005-1.361 0-2.317-1.15-2.317-3.005zm4.203 0c0-1.65-.77-2.605-1.886-2.605-1.116 0-1.886.956-1.886 2.605 0 1.65.77 2.606 1.886 2.606 1.116 0 1.886-.956 1.886-2.606zM138.959 53.418v5.924h-.434V53.8h-1.447v-.382h1.881z"/>
    <path fill="#EBEBEB" d="M150.452 56.371c0-1.852.953-3.002 2.317-3.002 1.365 0 2.318 1.142 2.318 3.002 0 1.861-.956 3.005-2.318 3.005-1.361 0-2.317-1.15-2.317-3.005zm4.204 0c0-1.65-.771-2.605-1.887-2.605-1.115 0-1.886.956-1.886 2.605 0 1.65.771 2.606 1.886 2.606 1.116 0 1.887-.956 1.887-2.606zM108.512 29.072c0-1.852.956-3.002 2.317-3.002 1.361 0 2.32 1.141 2.32 3.002 0 1.86-.956 3.005-2.32 3.005-1.364 0-2.317-1.15-2.317-3.005zm4.203 0c0-1.65-.767-2.606-1.886-2.606-1.119 0-1.886.956-1.886 2.606s.77 2.608 1.886 2.608c1.116 0 1.886-.956 1.886-2.608z"/>
    <path fill="#E0E0E0" d="M122.493 29.072c0-1.852.953-3.002 2.317-3.002 1.364 0 2.317 1.141 2.317 3.002 0 1.86-.956 3.005-2.317 3.005-1.361 0-2.317-1.15-2.317-3.005zm4.203 0c0-1.65-.77-2.606-1.886-2.606-1.116 0-1.886.956-1.886 2.606s.77 2.608 1.886 2.608c1.116 0 1.886-.956 1.886-2.608zM138.959 26.112v5.922h-.434V26.5h-1.447v-.388h1.881z"/>
    <path fill="#EBEBEB" d="M150.452 29.072c0-1.852.956-3.002 2.317-3.002 1.362 0 2.318 1.141 2.318 3.002 0 1.86-.956 3.005-2.318 3.005-1.361 0-2.317-1.15-2.317-3.005zm4.204 0c0-1.65-.771-2.606-1.887-2.606-1.115 0-1.886.956-1.886 2.606s.771 2.608 1.886 2.608c1.116 0 1.887-.956 1.887-2.608z"/>
    <path fill="#E0E0E0" d="M108.512 42.36c0-1.856.956-3.006 2.317-3.006 1.361 0 2.32 1.142 2.32 3.005 0 1.864-.956 3.002-2.32 3.002-1.364 0-2.317-1.15-2.317-3.002zm4.206 0c0-1.65-.77-2.606-1.889-2.606s-1.886.956-1.886 2.605c0 1.65.77 2.606 1.886 2.606 1.116 0 1.889-.965 1.889-2.606zM125.269 39.397v5.922h-.431v-5.534h-1.447v-.388h1.878z"/>
    <path fill="#EBEBEB" d="M136.18 42.722c0-1.852.956-3.003 2.317-3.003 1.361 0 2.32 1.142 2.32 3.003 0 1.86-.959 3.005-2.32 3.005-1.361 0-2.317-1.156-2.317-3.005zm4.203 0c0-1.65-.767-2.606-1.886-2.606-1.119 0-1.886.956-1.886 2.606s.77 2.605 1.886 2.605c1.116 0 1.886-.956 1.886-2.605z"/>
    <path fill="#E0E0E0" d="M150.452 42.36c0-1.856.956-3.006 2.317-3.006 1.362 0 2.318 1.142 2.318 3.005 0 1.864-.956 3.002-2.318 3.002-1.361 0-2.317-1.15-2.317-3.002zm4.204 0c0-1.65-.771-2.606-1.887-2.606-1.115 0-1.886.956-1.886 2.605 0 1.65.771 2.606 1.886 2.606 1.116 0 1.887-.965 1.887-2.606z"/>
    <path fill="#EBEBEB" d="M108.512 3.005c0-1.852.956-3.005 2.317-3.005 1.361 0 2.32 1.142 2.32 3.005 0 1.864-.956 3.002-2.32 3.002-1.364 0-2.317-1.15-2.317-3.002zm4.203 0c0-1.65-.767-2.605-1.886-2.605-1.119 0-1.884.956-1.884 2.605 0 1.65.771 2.606 1.887 2.606s1.883-.956 1.883-2.606z"/>
    <path fill="#E0E0E0" d="M122.493 3.005c0-1.852.953-3.005 2.317-3.005 1.364 0 2.317 1.142 2.317 3.005 0 1.864-.956 3.002-2.317 3.002-1.361 0-2.317-1.15-2.317-3.002zm4.203 0c0-1.65-.77-2.605-1.886-2.605-1.116 0-1.881.956-1.881 2.605 0 1.65.771 2.606 1.887 2.606s1.88-.956 1.88-2.606zM138.959.051v5.916h-.434V.434h-1.447V.05h1.881z"/>
    <path fill="#EBEBEB" d="M150.452 3.005c0-1.852.956-3.005 2.317-3.005 1.362 0 2.318 1.142 2.318 3.005 0 1.864-.956 3.002-2.318 3.002-1.361 0-2.317-1.15-2.317-3.002zm4.204 0c0-1.65-.771-2.605-1.887-2.605-1.115 0-1.872.956-1.872 2.605 0 1.65.771 2.606 1.887 2.606s1.872-.956 1.872-2.606z"/>
    <path fill="#E0E0E0" d="M108.512 16.29c0-1.853.956-3.003 2.317-3.003 1.361 0 2.32 1.142 2.32 3.003 0 1.86-.956 3.005-2.32 3.005-1.364 0-2.317-1.153-2.317-3.005zm4.206 0c0-1.65-.77-2.606-1.889-2.606s-1.884.956-1.884 2.606.771 2.605 1.887 2.605 1.886-.956 1.886-2.605zM125.269 13.327v5.925h-.431v-5.534h-1.447v-.39h1.878z"/>
    <path fill="#EBEBEB" d="M136.18 16.655c0-1.855.956-3.005 2.317-3.005 1.361 0 2.32 1.141 2.32 3.005 0 1.863-.959 3.002-2.32 3.002-1.361 0-2.317-1.15-2.317-3.002zm4.203 0c0-1.653-.767-2.606-1.886-2.606-1.119 0-1.886.954-1.886 2.606s.77 2.605 1.886 2.605c1.116 0 1.886-.944 1.886-2.605z"/>
    <path fill="#E0E0E0" d="M150.452 16.29c0-1.853.956-3.003 2.317-3.003 1.362 0 2.318 1.142 2.318 3.003 0 1.86-.956 3.005-2.318 3.005-1.361 0-2.317-1.153-2.317-3.005zm4.204 0c0-1.65-.771-2.606-1.887-2.606-1.115 0-1.872.956-1.872 2.606s.771 2.605 1.887 2.605 1.872-.956 1.872-2.605z"/>
    <path fill="#263238" d="M135.627 22.945H29.207c-2.296 0-4.157 1.861-4.157 4.158v67.555c0 2.297 1.861 4.158 4.158 4.158h106.419c2.296 0 4.158-1.861 4.158-4.158V27.103c0-2.297-1.862-4.158-4.158-4.158z"/>
    <path fill="#263238" d="M20.253 93.206h124.306v1.56c0 1.348-.535 2.64-1.488 3.593-.952.952-2.244 1.487-3.592 1.487H25.329c-1.346 0-2.639-.535-3.591-1.487-.953-.953-1.488-2.245-1.488-3.592v-1.561h.003z"/>
    <path fill="#E0E0E0" d="M136.386 25.961H28.132v64.074h108.254V25.961z"/>
    <path fill="#455A64" d="M71.108 93.206l1.541 2.454h21.707l1.432-2.454h-24.68zM133.443 28.13H31.294c-.515 0-.933.418-.933.933v59.833c0 .516.418.933.933.933h102.149c.516 0 .934-.417.934-.933V29.063c0-.515-.418-.933-.934-.933z"/>
    <path fill="#FAFAFA" d="M134.377 32.65H30.361v57.18h104.016V32.65z"/>
    <path fill="#E8505B" d="M38.891 30.513c0 .164-.05.324-.141.46-.092.137-.221.243-.373.305-.152.063-.319.079-.48.046-.16-.032-.308-.111-.424-.228-.116-.116-.195-.264-.227-.425-.032-.16-.015-.328.048-.48.063-.15.17-.28.306-.372.136-.09.297-.14.46-.14.11 0 .218.022.32.064.1.042.192.104.27.18.076.078.137.17.179.271.042.101.063.21.062.319zM33.857 30.513c0 .164-.05.324-.141.46-.092.137-.222.243-.373.305-.152.063-.32.079-.48.046-.16-.032-.309-.111-.425-.228-.115-.116-.194-.264-.226-.425-.032-.16-.015-.328.048-.48.063-.15.17-.28.306-.372.136-.09.297-.14.46-.14.11 0 .218.022.32.064.1.042.192.104.269.18.077.078.138.17.18.271.041.101.063.21.062.319zM36.274 30.513c0 .164-.05.324-.141.46-.092.137-.222.243-.373.305-.152.063-.32.079-.48.046-.16-.032-.309-.111-.425-.228-.115-.116-.194-.264-.226-.425-.032-.16-.015-.328.048-.48.063-.15.17-.28.306-.372.136-.09.297-.14.46-.14.11 0 .218.022.32.064.1.042.192.104.269.18.077.078.138.17.18.271.041.101.063.21.062.319z"/>
    <path fill="#263238" d="M108.161 56.466l.323-.026c.105 0 .237-.034.394-.06.177-.042.351-.095.522-.16.479-.184.911-.472 1.267-.842.225-.236.417-.5.571-.787.171-.33.289-.684.351-1.05.08-.472.062-.954-.053-1.418-.114-.464-.324-.9-.614-1.278-.291-.38-.657-.695-1.075-.926-.418-.232-.879-.374-1.355-.42-.285-.02-.57-.017-.856-.017h-6.783l-44.274.02c-.796.004-1.566.282-2.18.787-.615.506-1.036 1.207-1.194 1.987-.1.51-.085 1.035.043 1.538.196.744.635 1.4 1.248 1.866.612.466 1.362.713 2.131.703H69.917l19.906.014 13.413.026H107.833h-.95l-3.647.014-13.413.023-19.906.017h-13.29c-.528.009-1.052-.101-1.532-.322-.49-.22-.923-.548-1.269-.958-.345-.41-.595-.892-.729-1.411-.138-.526-.153-1.077-.045-1.61.109-.532.338-1.033.67-1.464.336-.437.768-.792 1.263-1.036.495-.244 1.04-.37 1.59-.37l44.275.022H107.639c.285 0 .571 0 .856.02.579.059 1.135.259 1.619.583.484.324.881.762 1.156 1.275.274.513.419 1.086.42 1.668.002.583-.14 1.156-.412 1.671-.16.29-.357.557-.585.796-.365.37-.805.656-1.29.84-.174.062-.351.114-.531.153-.157.023-.285.046-.394.054-.205.078-.317.078-.317.078z"/>
    <path fill="#E8505B" d="M108.161 56.466h-6.749V49.44h6.749c.932 0 1.826.37 2.484 1.029.659.658 1.029 1.552 1.029 2.484 0 .931-.37 1.825-1.029 2.484-.658.659-1.552 1.029-2.484 1.029z"/>
    <path fill="#fff" d="M106.983 52.29c-.014 0-.014-.117-.071-.32-.082-.28-.255-.526-.491-.698-.146-.11-.314-.186-.492-.225-.178-.039-.363-.039-.541 0-.179.039-.346.116-.492.225-.146.11-.267.249-.355.409-.087.16-.139.337-.152.52-.013.181.013.364.077.535.064.17.164.326.293.455.129.129.284.229.455.292.2.074.415.096.626.066.211-.03.412-.111.584-.237.235-.174.407-.42.488-.702.057-.2.057-.32.071-.32.006.03.006.06 0 .089.005.082-.003.165-.023.245-.065.306-.236.578-.482.77-.184.145-.402.24-.633.279-.231.038-.467.017-.688-.061-.273-.097-.508-.276-.675-.513-.166-.236-.256-.518-.256-.807 0-.29.09-.571.256-.808.167-.236.402-.415.675-.512.22-.079.457-.1.688-.063.231.037.449.133.633.277.245.193.416.466.482.77.02.082.028.165.023.249.006.028.006.057 0 .086z"/>
    <path fill="#fff" d="M108.779 54.525c-.385-.172-.748-.386-1.085-.64-.362-.21-.698-.464-1.002-.753.75.381 1.45.852 2.087 1.402v-.009z"/>
    <path fill="#455A64" d="M57.427 54.927c-.074-.663-.1-1.33-.075-1.997-.024-.667 0-1.335.075-1.998.074.663.099 1.33.074 1.998.024.666 0 1.334-.074 1.997z"/>
    <path fill="#E0E0E0" d="M65.746 68.583H48.882v16.315h16.864V68.583z"/>
    <path fill="#E8505B" d="M50.192 83.503l4.663-8.396 3.816 5.365 2.32-2.848 3.447 5.879H50.192zM60.298 73.474c0 .241-.07.476-.204.677-.133.2-.323.356-.546.449-.222.092-.466.117-.703.07-.236-.047-.453-.163-.623-.333-.17-.17-.286-.387-.333-.623-.046-.236-.022-.481.07-.703.093-.223.249-.412.45-.546.2-.133.435-.204.676-.204.322 0 .63.128.857.356.228.227.356.536.356.857z"/>
    <path fill="#455A64" d="M64.427 83.548v-.068-.189-.736c0-.645 0-1.58-.02-2.768 0-2.383-.02-5.779-.034-9.851l.068.068H50.195c-.02.017.151-.151.08-.077v13.61l-.069-.072 10.3.038 2.908.017h1.039-1.01l-2.891.02-10.346.034h-.07v-.069V73.6 69.942c-.072.068.099-.103.082-.083h14.318v.068c-.018 4.092-.029 7.5-.038 9.894 0 1.182-.014 2.112-.017 2.754v.905c-.013.026-.032.049-.054.068z"/>
    <path fill="#E8505B" d="M92.589 68.583H75.726v16.315h16.863V68.583z"/>
    <path fill="#E0E0E0" d="M77.033 83.503l4.666-8.396 3.815 5.365 2.318-2.848 3.45 5.879h-14.25zM87.138 73.474c0 .24-.071.475-.204.674-.133.2-.323.355-.545.447-.221.092-.465.116-.7.069-.236-.047-.452-.163-.621-.332-.17-.17-.285-.386-.332-.621-.047-.235-.023-.48.069-.7.091-.222.247-.412.446-.545.2-.133.434-.205.674-.205.322 0 .63.128.858.356.227.227.355.536.355.857z"/>
    <path fill="#455A64" d="M91.282 83.548v-.068-.189-.736c0-.645 0-1.58-.017-2.768 0-2.383-.02-5.779-.035-9.851l.069.068H77.053l.077-.077v13.607l-.072-.071 10.303.037 2.905.017h1.041-1.013l-2.888.02-10.348.034h-.068v-.068-6.433-7.129c-.072.069.097-.103.083-.082h14.314v.068c0 4.092-.025 7.5-.034 9.894 0 1.182-.014 2.112-.02 2.754v.905c-.015.024-.032.047-.051.068z"/>
    <path fill="#E0E0E0" d="M119.432 68.583h-16.864v16.315h16.864V68.583z"/>
    <path fill="#E8505B" d="M103.875 83.503l4.663-8.396 3.816 5.365 2.32-2.848 3.447 5.879h-14.246zM113.98 73.474c.001.241-.07.476-.203.677-.134.2-.324.356-.546.449-.222.092-.467.117-.703.07-.236-.047-.453-.163-.623-.333-.17-.17-.286-.387-.333-.623-.047-.236-.022-.481.07-.703.092-.223.249-.412.449-.546.2-.133.436-.204.676-.204.322 0 .631.128.858.356.227.227.355.536.355.857z"/>
    <path fill="#455A64" d="M118.124 83.548c-.002-.023-.002-.046 0-.068v-.189-.736c0-.645 0-1.58-.017-2.768 0-2.383-.023-5.779-.037-9.851l.072.068h-14.25c-.017.017.152-.151.08-.077v13.607l-.068-.071 10.302.037 2.905.017h1.042-1.013l-2.891.02-10.345.034h-.094v-.068-6.433-7.129c-.072.069.097-.103.08-.082h14.317v.068c0 4.092-.028 7.5-.037 9.894 0 1.182 0 2.112-.017 2.754v.905c0 .045-.029.068-.029.068zM93.048 41.18H71.69v1.79h21.358v-1.79zM138.8 93.206c0 .042-25.467.074-56.874.074-31.406 0-56.876-.032-56.876-.074 0-.043 25.461-.075 56.876-.075s56.874.035 56.874.075z"/>
    <path fill="#E8505B" d="M8.809 61.962c-1.616.262-2.338 2.249-2.198 3.878.14 1.63.813 3.228.634 4.852-.229 2.066-1.79 3.813-1.972 5.884-.214 2.443 1.512 4.61 2.029 7.006.25 1.168.214 2.4.648 3.51.368.948 1.055 1.738 1.941 2.236.887.498 1.919.672 2.92.493 1-.178 1.908-.699 2.568-1.472.66-.774 1.03-1.752 1.05-2.769.034-1.875-1.122-3.641-.982-5.513.102-1.382.913-2.694.742-4.07-.209-1.635-1.713-2.797-2.26-4.358-.549-1.56-.02-3.282-.206-4.923-.331-2.942-1.964-4.99-4.914-4.757"/>
    <path fill="#E8505B" d="M.556 76.208c-.286 2.726.93 5.933 2.331 8.276 1.42 2.37 3.556 4.225 6.102 5.297.285.12.642.22.881.026.085-.094.15-.205.188-.326.038-.12.05-.248.035-.374.02-2.893-.9-5.716-2.619-8.043-1.72-2.328-4.147-4.035-6.918-4.867"/>
    <path fill="#000" d="M.556 76.208c-.286 2.726.93 5.933 2.331 8.276 1.42 2.37 3.556 4.225 6.102 5.297.285.12.642.22.881.026.085-.094.15-.205.188-.326.038-.12.05-.248.035-.374.02-2.893-.9-5.716-2.619-8.043-1.72-2.328-4.147-4.035-6.918-4.867" opacity=".2"/>
    <path fill="#263238" d="M12.43 95.491c-.031-.046-.057-.097-.076-.15l-.197-.449c-.163-.388-.408-.947-.72-1.635-.811-1.792-1.714-3.54-2.705-5.24-.996-1.693-2.077-3.335-3.239-4.92-.445-.61-.813-1.098-1.073-1.427l-.285-.388c-.038-.043-.07-.091-.094-.142.044.035.085.077.12.122l.316.371c.271.323.654.802 1.113 1.404 1.187 1.572 2.28 3.212 3.273 4.912.995 1.703 1.888 3.464 2.675 5.274.285.696.53 1.261.676 1.66l.168.457c.023.048.039.1.049.151zM10.675 69.505c.016.086.026.174.029.262 0 .186.031.434.054.75.043.666.103 1.607.18 2.763.145 2.332.354 5.554.602 9.11.248 3.555.497 6.777.68 9.109.088 1.141.159 2.092.21 2.76.02.314.037.57.052.75.007.088.007.175 0 .263-.02-.086-.032-.173-.037-.26l-.08-.748-.26-2.757c-.211-2.328-.474-5.547-.725-9.106s-.44-6.78-.57-9.115c-.055-1.156-.098-2.098-.129-2.766l-.026-.753c0-.088.007-.176.02-.262z"/>
    <path fill="#455A64" d="M8.166 91.605h6.827v5.01c0 .431-.085.857-.25 1.255-.164.397-.405.758-.71 1.062-.304.305-.665.546-1.063.71-.397.165-.823.25-1.253.25-.838 0-1.644-.321-2.253-.897-.609-.576-.974-1.363-1.02-2.2l-.278-5.19z"/>
    <path fill="#E8505B" d="M159.567 91.525c1.034-.485 2.196-.626 3.316-.403.603.1 1.23.286 1.638.73.409.446.489 1.248.018 1.636-.304.205-.669.298-1.033.263-.877 0-1.85-.166-2.549.362-.399.285-.665.802-1.141.95-.239.053-.489.028-.713-.072-.223-.1-.409-.268-.529-.481-.229-.44-.279-.951-.14-1.427.057-.33.188-.641.385-.912.196-.27.452-.491.748-.646zM157.259 87.064c.616.882 1.815.59 2.369.052.553-.54.79-1.316 1.004-2.061.491-1.695.982-3.476.62-5.205-.086-.528-.316-1.022-.665-1.427-.175-.198-.399-.347-.65-.43-.25-.084-.519-.1-.777-.047-.605.16-.979.75-1.253 1.313-.799 1.663-1.217 3.483-1.224 5.328 0 .856.097 1.758.57 2.466M155.563 88.328c.316-.413.527-.898.614-1.412.087-.514.048-1.04-.115-1.536-.337-.99-.941-1.867-1.746-2.534-.917-.814-1.983-1.441-3.14-1.846-.446-.181-.926-.263-1.406-.24-.241.014-.474.087-.68.212-.206.125-.378.298-.502.504-.328.628 0 1.387.328 1.998.601 1.099 1.288 2.149 2.055 3.14.616.795 1.321 1.577 2.26 1.937.939.36 1.912.317 2.412-.334"/>
    <path fill="#263238" d="M157.215 100.351c.034-.131.053-.266.058-.402.028-.285.062-.656.105-1.09.054-.538.136-1.074.246-1.604.139-.644.33-1.275.57-1.89.24-.612.565-1.189.965-1.711.327-.425.744-.77 1.221-1.013.324-.162.67-.27 1.028-.323.135-.005.268-.024.399-.057-.135-.014-.27-.014-.405 0-.372.03-.735.126-1.073.285-.502.238-.943.588-1.287 1.025-.418.528-.756 1.116-1.002 1.743-.246.623-.437 1.266-.571 1.921-.104.537-.175 1.079-.214 1.624-.034.462-.048.839-.054 1.099-.009.131-.004.263.014.393z"/>
    <path fill="#263238" d="M157.29 99.51c.009-.062.009-.124 0-.186v-.53c0-.463 0-1.128.023-1.953.04-1.646.182-3.92.456-6.418.274-2.497.643-4.749.976-6.364.077-.402.157-.768.232-1.084.074-.317.131-.597.191-.82.06-.222.091-.379.122-.516.02-.06.031-.12.035-.183-.03.055-.052.114-.066.174l-.154.508c-.068.223-.137.497-.217.814-.08.317-.171.679-.257 1.084-.457 2.102-.8 4.228-1.027 6.367-.285 2.506-.397 4.786-.408 6.435 0 .828 0 1.496.028 1.958 0 .214.026.391.035.528.003.063.014.125.031.186z"/>
    <path fill="#263238" d="M157.301 95.112c.016-.184.016-.37 0-.554-.031-.504-.088-1.006-.171-1.504-.274-1.644-.746-3.249-1.404-4.78-.634-1.547-1.545-2.966-2.688-4.186-.199-.21-.41-.406-.634-.588-.097-.083-.183-.166-.268-.231-.086-.066-.171-.115-.246-.169-.148-.111-.304-.211-.468-.3.538.424 1.049.88 1.53 1.368 1.106 1.23 1.993 2.641 2.623 4.172.364.834.671 1.693.921 2.568.24.805.4 1.547.52 2.17.12.621.18 1.14.22 1.486.008.184.03.367.065.548z"/>
    <path fill="#E8505B" d="M165.044 38.726l-16.122.334.434 21.021 16.13.072-.442-21.427z"/>
    <path fill="#FAFAFA" d="M163.999 39.497l-14.106.29.393 19.067 14.115.183-.402-19.54z"/>
    <path fill="#263238" d="M161.599 43.013l-9.366-.163.274 13.325 9.36-.195-.268-12.967z"/>
    <path fill="#455A64" d="M152.507 56.175l9.221-7.04-9.495-6.285.274 13.325zM159.556 21.304l-11.07.228.299 14.435 11.073.048-.302-14.711z"/>
    <path fill="#FAFAFA" d="M158.84 21.832l-9.689.2.271 13.09 9.692.128-.274-13.418z"/>
    <path fill="#E8505B" d="M157.19 24.246l-6.433-.114.189 9.152 6.429-.134-.185-8.904z"/>
    <path fill="#263238" d="M155.073 28.59s.04-.103.074-.286c.051-.263.013-.535-.108-.773-.095-.193-.242-.356-.424-.47-.183-.114-.393-.176-.608-.177-.215-.002-.426.056-.61.167-.184.11-.334.27-.432.462-.099.191-.142.406-.126.62.016.214.092.42.218.594s.298.31.497.392c.199.082.416.107.629.073.272-.041.522-.173.71-.374.131-.14.18-.237.191-.231-.025.1-.076.193-.148.268-.18.224-.434.377-.716.43-.211.043-.43.03-.635-.035-.205-.065-.39-.181-.538-.338-.184-.194-.303-.44-.341-.704-.038-.264.007-.533.128-.77.122-.238.314-.432.55-.556.237-.124.506-.172.77-.136.213.028.416.11.589.238.174.127.311.297.401.492.121.261.146.556.072.834-.025.103-.074.199-.143.28z"/>
    <path fill="#263238" d="M155.612 31.158c-.251-.295-.462-.621-.628-.97-.209-.325-.375-.675-.494-1.042.248.296.458.622.625.97.208.326.374.676.497 1.042zM165.343 99.844c0 .042-36.107.074-80.637.074-44.531 0-80.646-.032-80.646-.075 0-.042 36.1-.074 80.645-.074 44.546 0 80.638.034 80.638.075z"/>
    <path fill="#FFBE9D" d="M118.463 64.325s.254-2.708.511-2.686c.257.023.3.503.268.737-.031.234 0 1.141 0 1.141l-.779.808z"/>
    <path fill="#263238" d="M141.702 62.108l-1.299 9.132 5.993 26.18-16.552 1.325 7.135-42.162s4.709-.534 4.723 5.525z"/>
    <path fill="#FFBE9D" d="M121.352 108.194l-.956 10.804h4.084l1.801-10.804h-4.929zM120.396 118.998s-2.757.357-3.248.711l7.223-.086.108-.625h-4.083z"/>
    <path fill="#E8505B" d="M117.148 119.712V120l7.437-.08v-.311l-7.437.103z"/>
    <path fill="#E8505B" d="M119.791 119.877c-.04.017-.157-.205-.397-.379-.24-.174-.482-.229-.476-.269.005-.039.285-.051.57.155.286.205.329.485.303.493zM124.573 118.784c0 .04-.496.14-1.061.408-.565.269-.965.571-.993.551.249-.301.57-.536.933-.682.344-.187.73-.282 1.121-.277zM124.405 118.607c-1.341.03-2.682-.038-4.012-.202.665-.037 1.333-.027 1.997.031.675.008 1.349.065 2.015.171zM124.885 117.186c-.726.207-1.465.367-2.212.477-.738.158-1.485.271-2.237.336.726-.204 1.465-.364 2.211-.476.738-.158 1.486-.271 2.238-.337z"/>
    <path fill="#E8505B" d="M124.813 117.237c-.186.003-.371-.037-.539-.117-.189-.074-.369-.17-.537-.285-.1-.066-.196-.139-.285-.22-.056-.048-.099-.108-.126-.177-.014-.04-.02-.082-.016-.125.004-.042.017-.083.039-.12.025-.037.06-.066.101-.084.041-.018.086-.025.13-.019.069.01.136.029.2.057.112.047.219.106.317.177.167.118.311.267.422.44.115.149.182.331.191.519-.022 0-.077-.2-.285-.462-.115-.152-.255-.284-.414-.388-.089-.063-.184-.114-.285-.154-.106-.049-.226-.069-.257 0-.017.043-.018.091-.003.135.014.044.044.082.083.107.082.077.169.15.26.217.158.109.325.204.499.285.305.143.508.192.505.214z"/>
    <path fill="#E8505B" d="M124.777 117.343c-.089-.163-.125-.349-.103-.533.009-.197.051-.39.125-.571.045-.11.103-.215.172-.311.036-.053.076-.104.12-.152.025-.032.058-.058.095-.076.037-.018.077-.028.119-.029.043.002.085.017.122.041.036.025.065.059.083.099.031.065.045.138.04.211-.005.12-.024.238-.057.354-.059.194-.156.374-.285.531-.105.153-.254.27-.429.333 0-.02.163-.131.346-.393.105-.154.183-.325.228-.506.028-.105.044-.213.046-.322 0-.108-.043-.205-.109-.205-.065 0-.151.108-.217.194-.064.089-.119.185-.165.285-.076.171-.126.353-.146.539-.02.297.037.511.015.511z"/>
    <path fill="#E8505B" d="M125.324 119.021c-.188-.243-.323-.523-.397-.822-.118-.291-.171-.605-.157-.919.122.282.218.574.286.874.114.281.204.571.268.867z"/>
    <path fill="#E8505B" d="M125.812 118.639c-.559-.337-.975-.869-1.167-1.493.04-.02.237.357.571.765.334.408.622.693.596.728z"/>
    <path fill="#FFBE9D" d="M136.594 109.078l8.367 6.633 1.989-2.911-7.48-8.142-2.876 4.42z"/>
    <path fill="#FFBE9D" d="M144.371 115.873s-1.287 2.463-1.276 3.071l4.064-5.97-.448-.448-2.34 3.347z"/>
    <path fill="#E8505B" d="M143.095 118.944l.237.166 4.192-6.142-.254-.18-4.175 6.156z"/>
    <path fill="#E8505B" d="M144.736 116.884c0 .04-.257 0-.537.108-.279.108-.462.263-.493.237-.032-.026.125-.265.448-.374.322-.108.599-.006.582.029zM146.586 112.326c.04.017-.169.488-.271 1.104-.103.617-.075 1.125-.117 1.142-.165-.767-.026-1.568.388-2.235v-.011zM146.357 112.169c-.314.521-.668 1.016-1.059 1.481-.356.496-.749.963-1.176 1.399.314-.522.669-1.019 1.062-1.484.353-.496.745-.963 1.173-1.396zM145.458 111.156c-.213.633-.47 1.249-.768 1.846-.255.616-.555 1.212-.896 1.784.213-.631.47-1.247.768-1.844.254-.616.553-1.213.896-1.786z"/>
    <path fill="#E8505B" d="M145.455 111.244c.015 0-.12.18-.405.377-.166.116-.345.212-.534.286-.111.045-.225.081-.342.108-.072.016-.146.016-.217 0-.041-.011-.08-.031-.112-.058-.033-.028-.059-.063-.076-.102-.016-.042-.019-.087-.011-.131.009-.043.029-.084.059-.117.047-.051.101-.096.16-.131.278-.176.602-.265.93-.254.189-.01.375.04.534.142 0 .023-.205-.051-.534-.04-.304.008-.601.101-.856.269-.1.06-.185.148-.154.208.026.039.065.067.11.081.044.013.092.011.136-.007.11-.024.218-.054.325-.091.182-.065.359-.145.528-.24.288-.177.445-.317.459-.3z"/>
    <path fill="#E8505B" d="M145.515 111.33c-.184-.021-.358-.099-.496-.222-.161-.12-.298-.268-.405-.437-.065-.1-.118-.207-.157-.32-.023-.059-.042-.12-.055-.182-.011-.04-.014-.082-.008-.123.005-.04.02-.08.043-.114.028-.034.064-.06.105-.076.041-.015.085-.02.129-.013.071.013.137.044.194.089.095.073.181.157.257.251.129.155.226.335.285.528.065.173.075.363.029.542-.034-.171-.076-.341-.126-.508-.066-.175-.163-.337-.285-.479-.072-.081-.151-.155-.237-.22-.083-.069-.194-.083-.234-.029-.04.055 0 .186.037.286.036.099.082.195.137.285.096.161.218.305.359.428.24.226.437.291.428.314z"/>
    <path fill="#E8505B" d="M147.213 111.847c-.314.019-.629-.03-.922-.143-.311-.069-.603-.205-.856-.397.593.166 1.182.346 1.766.54h.012z"/>
    <path fill="#E8505B" d="M147.187 111.227c-.287.154-.609.231-.936.226-.324.042-.653-.001-.956-.126 0-.04.431 0 .948-.017.516-.017.922-.125.944-.083zM128.529 76.482s-3.196 21.23-2.731 22.26c.465 1.03 10.813 11.624 10.813 11.624l3.884-6.653s-6.849-7.588-6.749-7.99c.1-.403 4.937-20.95 4.937-20.95l-10.154 1.71z"/>
    <path fill="#E8505B" d="M129.265 102.754l2.728-5.993 3.14-6.729c-1.91 2.762-3.536 5.71-4.852 8.799-.511 1.257-.853 2.576-1.016 3.923z"/>
    <path fill="#000" d="M129.265 102.754l2.728-5.993 3.14-6.729c-1.91 2.762-3.536 5.71-4.852 8.799-.511 1.257-.853 2.576-1.016 3.923z" opacity=".4"/>
    <path fill="#E8505B" d="M127.393 84.319c.031-.226 2.608-6.022 2.608-6.022l-1.252-1.763-.22-.049-1.136 7.834z"/>
    <path fill="#000" d="M127.393 84.319c.031-.226 2.608-6.022 2.608-6.022l-1.252-1.763-.22-.049-1.136 7.834z" opacity=".4"/>
    <path fill="#E8505B" d="M140.497 74.484l.192.788c.572 2.323.223 4.777-.974 6.85l-8.664 15.019c-.615 1.067-1.062 2.222-1.327 3.424l-2.157 9.703s-6.812.232-7.106 0c-.294-.231.879-6.655 1.661-11.52.59-3.67 5.499-15.06 7.879-20.44l-1.472-1.814 2.568-.426 9.4-1.584z"/>
    <path fill="#263238" d="M127.567 110.257c-.092.027-.188.042-.285.046-.183.02-.442.043-.768.063-.647.042-1.546.074-2.537.071-.99-.003-1.889-.031-2.537-.066-.325-.014-.588-.031-.767-.045-.097.002-.193-.011-.286-.037.094-.017.19-.023.286-.018h.767l2.534.023c.991 0 1.884-.014 2.532-.028l.77-.02c.097-.011.196-.007.291.011zM127.941 108.434c0 .039-1.638.065-3.655.057-2.018-.009-3.659-.046-3.659-.083 0-.037 1.638-.066 3.659-.06 2.02.006 3.655.046 3.655.086zM139.305 102.338c-.037.095-.086.185-.146.268l-.442.702-1.467 2.309-1.461 2.311-.448.7c-.05.089-.112.171-.183.245.033-.1.078-.196.134-.285.095-.172.234-.42.408-.722.354-.605.857-1.427 1.427-2.338.571-.91 1.11-1.712 1.507-2.283.2-.285.363-.519.48-.679.054-.084.118-.16.191-.228z"/>
    <path fill="#263238" d="M136.203 109.792c-.154-.28-.265-.581-.331-.893-.112-.299-.177-.613-.194-.931.153.279.265.579.331.891.111.299.176.614.194.933zM136.808 109.772c-.154-.487-.262-.988-.322-1.495-.107-.5-.167-1.008-.177-1.519.259.987.426 1.996.499 3.014zM137.598 108.645c-.152-.425-.271-.861-.357-1.305-.132-.431-.228-.873-.285-1.321.194.41.336.842.422 1.287.132.435.206.885.22 1.339zM138.272 107.084c-.154-.406-.263-.828-.322-1.259-.109-.422-.17-.854-.183-1.29.151.408.259.831.323 1.262.107.421.168.852.182 1.287zM139.142 105.791c-.129-.408-.231-.823-.305-1.244-.124-.411-.219-.83-.286-1.253.199.384.339.796.414 1.221.124.414.184.844.177 1.276zM139.918 104.695c-.154-.321-.264-.662-.325-1.013-.109-.34-.172-.693-.188-1.05.261.662.434 1.356.513 2.063zM124.02 108.362c-.548.339-1.112.649-1.692.928-.556.323-1.127.617-1.713.881.141-.128.297-.239.465-.328.286-.185.717-.428 1.19-.679.474-.251.911-.459 1.23-.602.164-.089.339-.156.52-.2zM126.12 108.394c-.165.136-.345.254-.536.351-.343.196-.819.456-1.359.724-.539.269-1.038.488-1.404.64-.191.095-.393.167-.602.214.178-.123.37-.226.571-.306l1.378-.676 1.376-.685c.182-.108.375-.196.576-.262zM127.719 108.394c-.407.411-.855.78-1.336 1.101-.454.358-.943.671-1.458.933.434-.379.892-.73 1.372-1.05.454-.357.928-.685 1.422-.984zM127.893 109.398c.026.032-.24.286-.594.548-.199.184-.43.331-.682.434.166-.216.368-.401.597-.548.199-.183.429-.33.679-.434zM122.156 108.328c-.265.24-.56.445-.879.608-.295.203-.617.367-.956.485.561-.444 1.178-.812 1.835-1.093zM129.813 78.246c-.099.325-.22.642-.362.95-.234.57-.571 1.384-.908 2.283-.336.9-.647 1.713-.856 2.283-.104.322-.23.637-.376.942.009-.09.029-.18.059-.265.049-.169.123-.411.22-.711.194-.596.483-1.427.828-2.309.345-.882.69-1.692.95-2.263.131-.285.24-.514.32-.67.031-.085.074-.166.125-.24zM129.102 103.434c-.006-.056-.006-.113 0-.169.015-.125.038-.285.06-.479.023-.194.063-.462.129-.756.065-.294.117-.628.22-.991l.151-.57c.051-.2.125-.4.191-.611.126-.423.3-.856.471-1.33.401-1.001.857-1.98 1.364-2.93.939-1.718 1.974-3.38 3.102-4.978.425-.616.779-1.11 1.027-1.45l.286-.388c.032-.047.068-.09.108-.131-.021.053-.049.102-.083.148-.071.103-.156.237-.265.403l-.99 1.475c-.814 1.247-1.955 2.98-3.048 4.977-.505.947-.961 1.918-1.367 2.911-.174.462-.354.899-.482 1.319-.069.211-.14.41-.197.605-.057.194-.109.385-.157.57-.109.36-.174.694-.243.982-.068.288-.117.542-.151.748-.034.205-.063.351-.086.473-.007.059-.02.116-.04.172z"/>
    <path fill="#fff" d="M137.599 56.605l-6.704.571s-1.998.046-4.189 5.137l-1.576 5.051 2.834.605v.286l.571 8.227 12.089-1.946c.025-1.045-.571-2.569-1.008-3.996.454-1.127 2.363-6.047 2.36-8.415 0-5.066-4.38-5.502-4.38-5.502"/>
    <path fill="#263238" d="M140.495 103.708c-.028.1-.07.196-.123.285-.088.174-.219.422-.388.728-.337.61-.822 1.444-1.37 2.354l-1.415 2.32-.428.708c-.046.09-.104.173-.171.248.028-.1.069-.196.122-.285.089-.174.22-.422.388-.728.337-.61.822-1.444 1.37-2.354l1.404-2.329.428-.705c.051-.088.113-.169.183-.242z"/>
    <path fill="#fff" d="M138.911 68.703c-.295.143-.616.227-.944.248-.321.064-.652.064-.973 0 .313-.081.633-.132.956-.151.316-.063.638-.096.961-.097z"/>
    <path fill="#455A64" d="M128.558 68.3l-.137 8.93 3.624-20.336c-1.204-.214-3.45.733-4.295 1.934-.605.72-.936 2.375-2.62 7.358l-1.033 3.381-4.189-4.586-2.823 2.552s4.869 7.953 6.904 8.393c2.768.599 4.566-7.626 4.566-7.626"/>
    <path fill="#263238" d="M129.137 60.038c.002.118-.01.235-.037.349-.037.25-.086.57-.146.939-.122.793-.285 1.889-.436 3.104-.151 1.216-.257 2.32-.331 3.12-.035.376-.063.693-.089.944-.001.118-.018.235-.048.349-.012-.117-.012-.235 0-.352 0-.225.02-.547.043-.95.045-.802.139-1.909.285-3.139.145-1.23.331-2.315.479-3.105.077-.394.143-.713.192-.933.019-.111.049-.22.088-.325z"/>
    <path fill="#fff" d="M128.198 59.648c-.014-.04.548-.286 1.187-.674.639-.388 1.105-.788 1.142-.756-.624.685-1.428 1.18-2.32 1.427l-.009.002zM127.039 65.535c-.145-.33-.262-.672-.351-1.022-.134-.334-.241-.679-.32-1.03.382.622.612 1.325.671 2.052zM129.979 62.322c.04.397.011.799-.085 1.187-.05.398-.169.784-.352 1.141.047-.39.118-.779.212-1.161.05-.394.126-.783.225-1.167zM125.9 70.107c.002.35-.027.701-.085 1.047-.015.352-.059.703-.132 1.047-.088-.705-.014-1.422.217-2.094zM120.544 70.035c-.311-.338-.567-.723-.759-1.141-.233-.397-.405-.827-.508-1.276.234.392.445.796.634 1.21.232.391.444.794.633 1.207zM123.61 70.255c-.225.214-.491.38-.782.488-.273.151-.575.244-.885.271.26-.16.537-.295.825-.4.267-.147.549-.268.842-.359z"/>
    <path fill="#455A64" d="M138.124 73.075l2.097 24.933 6.318-.596-5.998-26.18.733-7.03-3.15 8.873z"/>
    <path fill="#263238" d="M140.222 98.008c-.037 0-.503-5.527-1.036-12.354-.534-6.826-.931-12.36-.894-12.362.038-.003.506 5.525 1.036 12.35.531 6.827.934 12.364.894 12.366z"/>
    <path fill="#fff" d="M139.613 73.651c.043-.286.133-.564.266-.822.092-.274.226-.532.399-.764-.13.562-.355 1.099-.665 1.586zM141.357 77.361c-.034.026-.348-.34-.79-.73-.283-.22-.554-.455-.814-.702.343.131.653.334.911.596.287.227.523.512.693.836zM140.972 82.364c.115-.294.247-.58.397-.856.106-.3.231-.592.374-.876-.008.326-.092.645-.246.933-.109.304-.289.578-.525.799zM142.336 86.38c-.611-.401-1.166-.88-1.649-1.428.312.182.6.404.856.66.296.22.563.478.793.767zM143.477 89.136c-.089-.8-.084-1.61.017-2.409.066.398.087.802.063 1.205.02.403-.006.807-.08 1.204zM141.452 91.008c-.081-.313-.132-.633-.152-.956-.064-.317-.1-.639-.105-.962.147.294.235.614.26.942.064.322.063.654-.003.976zM143.543 93.394c-.606.005-1.209-.084-1.787-.266.303-.027.609-.005.905.063.303.022.6.09.882.203zM143.192 96.567c.301-.62.685-1.196 1.141-1.712-.126.322-.297.624-.508.9-.174.297-.387.57-.633.812z"/>
    <path fill="#263238" d="M128.814 76.1l-10.613-14.458c.629-.484 1.218-1.019 1.761-1.598 2.263-2.422 3.635-5.542 3.892-8.847.257-3.305-.617-6.6-2.478-9.343-1.862-2.743-4.6-4.772-7.766-5.754-3.167-.982-6.573-.859-9.66.35-3.087 1.207-5.672 3.429-7.33 6.3-1.659 2.87-2.293 6.218-1.798 9.496.495 3.278 2.09 6.29 4.521 8.543 2.432 2.253 5.558 3.613 8.864 3.856.521.038 1.044.047 1.567.028 2.124-.065 4.209-.595 6.107-1.552l10.722 14.605c.216.292.54.486.9.54.359.053.725-.038 1.017-.254.292-.216.486-.537.541-.896.056-.358-.033-.723-.247-1.016zm-19.12-14.167c-.425.014-.849.007-1.273-.022-3.035-.22-5.87-1.594-7.92-3.842-2.051-2.247-3.161-5.196-3.101-8.238.06-3.042 1.284-5.945 3.421-8.11 2.138-2.166 5.024-3.429 8.065-3.528.429-.015.859-.006 1.287.025 3.03.227 5.858 1.606 7.902 3.853 2.045 2.248 3.15 5.194 3.088 8.232-.061 3.038-1.284 5.936-3.418 8.1-2.133 2.163-5.015 3.427-8.051 3.53z"/>
    <path fill="#455A64" d="M124.599 68.237l-1.259 4.301s6.587 2.395 10.154 2.349c3.342-.04 4.298-.42 5.474-3.117 1.176-2.696 2.511-5.796 2.797-7.59 0 0 1.886-8.217-5.311-7.483l-.2 6.424s-.796 2.634-.856 2.788c-.537 1.427-1.233 3.501-1.907 3.752-.673.252-8.892-1.424-8.892-1.424z"/>
    <path fill="#263238" d="M134.936 71.682c-.53-.623-.945-1.335-1.227-2.103.244.325.458.67.642 1.033.224.34.42.698.585 1.07zM135.609 71.006c-.344-.178-.665-.396-.956-.651-.316-.218-.604-.475-.856-.765.343.179.664.397.956.65.316.219.604.476.856.766zM137.846 59.288c-.209.686-.462 1.358-.759 2.012-.252.671-.548 1.325-.887 1.958.206-.687.459-1.36.756-2.012.252-.672.55-1.326.89-1.958zM141.48 65.404c-.019.112-.05.222-.094.328-.08.234-.18.528-.286.873-.262.736-.63 1.752-1.064 2.854-.434 1.102-.856 2.103-1.205 2.808-.168.354-.311.636-.416.828-.047.101-.105.197-.174.285.03-.11.072-.216.125-.317.1-.225.223-.51.371-.856.314-.716.728-1.712 1.165-2.82.436-1.107.81-2.088 1.101-2.853.143-.363.263-.657.346-.856.035-.096.079-.187.131-.274zM130.895 69.473c0 .04-1.427-.188-3.202-.508s-3.185-.61-3.176-.648c.008-.037 1.427.189 3.202.508 1.775.32 3.184.611 3.176.648z"/>
    <path fill="#fff" d="M138.363 65.552c-.086-.772-.076-1.551.031-2.32.065.383.083.773.055 1.161.019.389-.01.778-.086 1.16zM135.797 73.451c.106-.298.233-.59.38-.87.105-.3.231-.591.377-.873-.011.324-.095.642-.246.93-.108.305-.283.583-.511.813zM132.313 73.229c-.391-.659-.762-1.33-1.11-2.012.273.276.498.597.665.947.208.328.358.687.445 1.065zM127.496 71.006c-.289.191-.603.342-.933.448-.312.148-.644.254-.984.314.289-.192.603-.342.933-.448.312-.149.644-.254.984-.314zM141.009 60.923c-.031.026-.348-.285-.805-.61-.456-.326-.873-.494-.856-.534.342.06.663.203.936.416.299.179.548.429.725.728zM138.954 68.018c-.73.263-1.51.36-2.283.285.376-.081.758-.134 1.142-.157.377-.07.758-.113 1.141-.128z"/>
    <path fill="#E8505B" d="M138.278 46.018c.192-.35.498-.625.868-.777.369-.153.78-.175 1.164-.062.379.124.723.339 1.003.624.28.286.486.634.603 1.017.226.77.24 1.585.043 2.363-.126.57-.285 1.23.086 1.67.371.439 1.004.399 1.412.752.101.089.182.197.24.318.057.122.088.253.093.387.004.134-.02.268-.069.392-.05.125-.124.238-.219.332-.095.095-.208.169-.333.218-.125.049-.258.072-.392.067-.134-.005-.266-.037-.387-.095-.121-.057-.229-.14-.317-.24 0 .397.217.759.34 1.141.123.383.14.856-.163 1.11-.12.087-.261.14-.409.154-.147.014-.296-.011-.43-.074-.268-.127-.511-.302-.716-.516.14.41.14.854 0 1.264-.076.202-.202.381-.367.52-.165.14-.363.233-.575.273-.269.02-.537-.04-.771-.174-.234-.134-.423-.334-.542-.576-.229-.488-.315-1.032-.248-1.567.06-.833.285-1.65.377-2.477.146-.83.039-1.684-.309-2.451"/>
    <path fill="#E8505B" d="M143.115 50.883s-.035.02-.109 0c-.053-.008-.104-.03-.147-.061-.044-.032-.079-.073-.104-.121-.04-.08-.051-.17-.029-.257.021-.087.073-.163.146-.214.094-.072.21-.107.328-.1.118.006.229.055.314.137.1.097.171.22.205.355.033.135.029.277-.014.41-.037.15-.117.288-.231.394-.125.112-.286.178-.454.185-.172.011-.344-.026-.496-.108-.157-.089-.288-.216-.38-.371-.18-.323-.245-.697-.182-1.062.105-.733.459-1.347.45-1.963.009-.544-.14-1.08-.428-1.541-.193-.314-.445-.587-.742-.805-.211-.154-.345-.211-.336-.226.008-.014.034 0 .1.038.093.04.182.087.268.142.318.207.589.479.796.796.312.475.476 1.03.474 1.599 0 .653-.346 1.287-.443 1.98-.057.332.001.673.163.968.073.132.182.242.314.317.132.074.282.11.434.105.134-.008.262-.059.364-.145.103-.087.176-.204.207-.334.039-.113.046-.234.02-.35-.026-.117-.083-.224-.166-.31-.068-.069-.158-.111-.254-.12-.096-.009-.192.016-.271.072-.061.04-.106.1-.127.17-.022.07-.018.145.01.212.02.043.049.081.085.112.036.031.078.054.123.068.072.029.109.02.112.029z"/>
    <path fill="#FFBE9D" d="M136.511 56.856l.382-8.71-3.458-2.62-3.14 1.54s-.105 3.946 0 5.658c.106 1.713 1.833 1.895 1.833 1.895s-.04 1.002-.08 2.058c-.011.302.039.604.147.886.109.282.274.54.485.757.211.217.464.389.743.505.279.116.579.175.882.172.572-.008 1.119-.234 1.529-.632.41-.398.652-.938.677-1.509z"/>
    <path fill="#263238" d="M130.635 49.942c0 .043.013.086.037.122.024.036.059.064.099.08.04.017.084.022.127.013.042-.008.082-.03.112-.06.031-.03.052-.07.061-.112.008-.043.004-.087-.013-.127-.017-.04-.045-.075-.081-.099-.036-.024-.079-.037-.122-.037-.058 0-.114.024-.155.065-.041.041-.064.097-.065.155zM130.421 49.708c.029.028.188-.109.425-.12.237-.012.414.1.437.068.023-.031-.017-.065-.094-.12-.104-.068-.227-.101-.351-.094-.125.008-.243.056-.337.137-.071.054-.094.112-.08.129zM133.172 49.942c0 .043.013.086.037.122.025.036.059.064.099.08.04.017.084.022.127.013.043-.008.082-.03.112-.06.031-.03.052-.07.061-.112.008-.043.004-.087-.013-.127-.017-.04-.045-.075-.081-.099-.036-.024-.078-.037-.122-.037-.058 0-.114.023-.155.064-.041.041-.065.097-.065.156zM133.035 49.708c.029.028.192-.109.426-.12.234-.012.413.1.439.068.026-.031-.017-.065-.097-.12-.104-.068-.227-.101-.351-.094-.124.008-.242.056-.337.137-.071.054-.094.112-.08.129z"/>
    <path fill="#fff" d="M132.964 51.92c-.36.183-.745.315-1.142.39.087.12.211.206.353.246.142.04.293.032.429-.023.065-.014.127-.042.181-.081.054-.04.099-.09.133-.147.034-.058.055-.122.063-.188s.002-.134-.017-.198z"/>
    <path fill="#EB996E" d="M132.119 54.62c.814-.036 1.601-.302 2.269-.768 0 0-.514 1.258-2.232 1.187l-.037-.42z"/>
    <path fill="#E8505B" d="M141.873 53.07c-.216.008-.431-.042-.622-.143-.282-.15-.516-.377-.676-.654-.197-.347-.366-.71-.505-1.084-.32-.796-.571-1.535-.725-2.075l-.072-.237c0-.091-.028-.174-.042-.234-.936-3.57-4.073-4.235-4.695-4.235-.622 0-1.829-.365-3.527 1.398-.255.266-.471.566-.642.89-.377.47-.637 1.021-.757 1.61-.078.28-.091.572-.04.857.032 0 .038-.323.169-.82.079-.291.19-.574.331-.841-.149.66-.088 1.348.174 1.972l.608-.169 2.18-.742c-.2-.673.094-1.512.257-1.903l.017-.014c.122.711.467 1.365.985 1.868.518.503 1.183.828 1.897.928l.403 5.608c2.899-.62 2.831-4.498 2.814-5.285.131.442.302.953.516 1.487.141.384.319.754.531 1.104.179.295.44.53.751.68.211.098.446.132.676.1.085-.009.165-.04.234-.09-.08.003-.16.01-.24.023z"/>
    <path fill="#263238" d="M132.184 51.705c-.126-.029-.255-.045-.385-.048-.06 0-.12 0-.131-.054-.009-.066.002-.132.031-.192l.163-.488c.111-.348.208-.665.285-.896.046-.122.075-.25.086-.38-.07.11-.127.225-.171.346-.08.226-.186.54-.286.888l-.154.49c-.035.077-.043.164-.023.246.009.02.023.04.04.054.018.015.038.026.06.032.034.004.069.004.103 0 .127.017.255.018.382.002z"/>
    <path fill="#FFBE9D" d="M137.076 51.623c-.028-.289.003-.58.092-.856.045-.136.125-.257.233-.35.108-.094.24-.156.38-.181.166-.008.329.046.458.152.128.105.213.254.239.418.018.164-.012.33-.087.476-.075.146-.192.267-.336.346-.146.077-.308.119-.473.124-.165.005-.329-.028-.48-.095"/>
    <path fill="#EB996E" d="M137.573 51.374c0-.02.094.023.214-.014.075-.026.141-.075.187-.14.046-.065.071-.143.07-.222.007-.04.005-.082-.005-.121-.011-.04-.029-.076-.055-.108-.053-.042-.121-.063-.188-.057-.129 0-.217.046-.226.026-.008-.02.057-.08.211-.126.049-.012.1-.013.149-.003.05.01.096.03.137.06.044.043.078.096.098.155.021.058.027.12.019.182-.007.118-.052.23-.129.32-.064.074-.154.122-.251.134-.165.017-.242-.074-.231-.086z"/>
    <path fill="#263238" d="M138.087 51.608s.128.089.128.317c-.006.133-.063.26-.16.351-.061.056-.134.098-.214.122-.079.025-.163.032-.245.02-.083-.015-.161-.048-.229-.098s-.124-.113-.165-.187c-.032-.059-.052-.124-.058-.191-.007-.067.001-.135.021-.2.071-.22.217-.285.222-.262.006.023-.091.1-.125.285-.017.088-.006.18.031.261.037.082.098.15.176.194.078.045.167.065.256.056.09-.008.174-.044.242-.103.082-.067.135-.163.148-.268.004-.1-.006-.2-.028-.297z"/>
    <path fill="#E8505B" d="M137.082 50.43c-.063.059-.138.104-.22.134-.218.095-.455.144-.693.142-.356-.001-.707-.09-1.022-.256-.379-.207-.705-.5-.95-.856-.421-.658-.681-1.406-.759-2.184-.04-.285-.06-.53-.072-.693-.014-.086-.014-.174 0-.26.074.31.131.623.172.94.105.751.37 1.472.776 2.114.23.338.533.62.887.825.296.16.624.252.959.268.316.003.629-.056.922-.174z"/>
    <path fill="#263238" d="M139.003 47.975c-.043 0-.172-.493-.505-1.03-.334-.536-.728-.876-.7-.91.346.197.63.486.819.836.231.324.364.707.386 1.104z"/>
    <path fill="#FFBE9D" d="M123.47 72.099h-1.007c-.917-.089-1.427-.103-1.684-.346-.343-.328.128-.647.128-.647s-.662-.229-.599-.631c.04-.285.354-.305.354-.305s-.571-.229-.699-.474c-.157-.331.254-.508.254-.508-.797-.491-.722-.979-.54-1.028.183-.048.805.24.805.24.525.149 1.958.585 1.427-.205-.531-.79-.639-1.596-.519-1.835.026-.063.073-.115.134-.146.061-.03.131-.038.197-.022s.124.055.164.11c.04.056.058.124.052.192.082.311.208.609.374.885.126.222.287.422.477.593.225.2.425.36.596.494l.896.856-.81 2.777zM117.199 62.045c.075-.217.254-.371.449-.269.038.046.064.1.075.16.011.058.007.118-.013.174l-.622 2.024.588-1.427c.074-.217.271-.348.405-.231.034.047.056.1.064.158.008.057.003.115-.015.17l-.537 1.68.437-1.05c.091-.24.197-.305.32-.25.122.054.125.228.097.325l-.369 1.238c.08.24.354.99.089 1.413 0 .02.028.091.026.114l.125.143-.81.745s-.762-1.927-.908-2.506c-.089-.333-.073-.686.046-1.01l.553-1.601z"/>
</svg>
