<svg width="106" height="110" viewBox="0 0 106 110" fill="none" xmlns="http://www.w3.org/2000/svg">
<g id="Layer_1">
<path id="Vector" d="M52.9995 91.7579C73.6474 91.7579 90.3857 74.7655 90.3857 53.8043C90.3857 32.8431 73.6474 15.8507 52.9995 15.8507C32.3517 15.8507 15.6133 32.8431 15.6133 53.8043C15.6133 74.7655 32.3517 91.7579 52.9995 91.7579Z" fill="white"/>
<path id="Vector_2" d="M52.9998 3.28262C25.4805 3.28262 3.21094 25.9229 3.21094 53.8044C3.21094 81.6858 25.4805 104.326 52.9998 104.326C80.5191 104.326 102.789 81.6858 102.789 53.8044C102.789 25.9229 80.5191 3.28262 52.9998 3.28262ZM52.9998 84.4428C36.3658 84.4428 22.8418 70.7463 22.8418 53.8044C22.8418 36.8624 36.3658 23.1659 52.9998 23.1659C69.6339 23.1659 83.1579 36.8624 83.1579 53.8044C83.1579 70.7463 69.6339 84.4428 52.9998 84.4428Z" fill="#D10C2B" stroke="white" stroke-width="3"/>
<g id="Group">
<g id="Group_2">
<path id="Vector_3" d="M18.6864 38.1826C18.7462 38.6481 18.744 39.1091 18.6797 39.5655C18.6155 40.0243 18.5025 40.4718 18.3453 40.9125C18.1747 41.3825 17.9466 41.7873 17.6586 42.1291C17.3706 42.4709 17.0406 42.7362 16.664 42.9229C16.2897 43.1118 15.8799 43.2129 15.4391 43.2309C14.9961 43.2489 14.5375 43.1702 14.0657 42.9926C13.5917 42.8172 13.193 42.5766 12.8651 42.2707C12.5395 41.9672 12.2937 41.6186 12.1275 41.2296C11.9614 40.8406 11.8772 40.4201 11.875 39.9703C11.875 39.5206 11.957 39.0618 12.1275 38.5919C12.3025 38.1106 12.5174 37.6901 12.7788 37.3281C13.0401 36.966 13.3635 36.685 13.7534 36.4826L14.4179 37.7891C14.1676 37.9015 13.955 38.0522 13.78 38.2433C13.605 38.4344 13.4544 38.6998 13.3325 39.0393C13.2306 39.3227 13.1841 39.5948 13.1974 39.8601C13.2085 40.1255 13.2705 40.3706 13.3813 40.5977C13.492 40.8248 13.6493 41.0272 13.8509 41.2026C14.0524 41.378 14.2917 41.5152 14.5641 41.6164C14.8432 41.7198 15.1135 41.7715 15.3771 41.7693C15.6406 41.7693 15.8865 41.7176 16.1147 41.6164C16.345 41.5152 16.5466 41.369 16.726 41.1734C16.9032 40.98 17.0428 40.7416 17.1469 40.4583C17.251 40.1704 17.3086 39.9096 17.3197 39.6757C17.3308 39.4419 17.3263 39.2507 17.3042 39.1023L16.3428 38.7448L15.953 39.8219L14.7502 39.3744L15.5986 37.0245L18.6908 38.1758L18.6864 38.1826Z" fill="white"/>
<path id="Vector_4" d="M15.627 31.5489L16.2272 30.555L23.032 31.5242L22.2146 32.8802L20.7925 32.6418L19.5144 34.7601L20.3783 35.9226L19.5787 37.2494L15.6292 31.5489H15.627ZM17.4699 32.0594L18.7392 33.7616L19.5432 32.4282L17.4699 32.0594Z" fill="white"/>
<path id="Vector_5" d="M19.1797 26.278L20.8122 24.4385C21.0271 24.1957 21.253 23.9888 21.4922 23.8134C21.7315 23.6403 21.9773 23.5188 22.2299 23.4559C22.4824 23.3906 22.7438 23.3951 23.0118 23.4649C23.2798 23.5368 23.5501 23.6965 23.8247 23.9461C24.1548 24.2474 24.3586 24.5937 24.4361 24.9782C24.5136 25.365 24.4339 25.754 24.1969 26.1453L27.247 26.7457L26.1328 28.0005L23.3795 27.2832L22.921 27.8004L24.7927 29.5116L23.8624 30.5595L19.1797 26.278ZM22.0482 27.0021L22.5954 26.3837C22.6795 26.2892 22.7637 26.188 22.8501 26.0756C22.9365 25.9632 23.0007 25.8507 23.0428 25.736C23.0849 25.6214 23.096 25.5022 23.076 25.383C23.0561 25.2616 22.9808 25.1446 22.8523 25.0277C22.7327 24.9198 22.6175 24.8568 22.5023 24.8411C22.3893 24.8253 22.2786 24.8411 22.1745 24.8815C22.0682 24.9243 21.9663 24.9872 21.8666 25.0727C21.7669 25.1604 21.6739 25.2503 21.5897 25.3425L20.9828 26.0284L22.0482 27.0021Z" fill="white"/>
<path id="Vector_6" d="M26.0625 19.4689L26.9751 18.7606L32.9824 22.1516L31.7376 23.1185L30.4949 22.3765L28.55 23.8854L28.9443 25.2863L27.7282 26.2308L26.0625 19.4689ZM27.5998 20.618L28.1823 22.6688L29.4051 21.7199L27.5998 20.618Z" fill="white"/>
<path id="Vector_7" d="M31.3066 15.7675L33.0078 14.9378L37.3206 17.7644L37.3361 17.7576L35.4378 13.7504L36.6893 13.1388L39.4227 18.9045L37.7858 19.705L33.3622 16.8109L33.3467 16.8177L35.2916 20.9216L34.0401 21.5332L31.3066 15.7675Z" fill="white"/>
<path id="Vector_8" d="M41.0871 13.0264L39.3527 13.5053L39.0293 12.3023L43.8383 10.9733L44.1617 12.1764L42.4272 12.6553L43.7607 17.625L42.4206 17.996L41.0871 13.0264Z" fill="white"/>
<path id="Vector_9" d="M46.4295 8.78306L48.226 8.51996L46.8836 10.0311L45.7207 10.1997L46.4273 8.78306H46.4295ZM45.9821 10.6382L47.3554 10.4381L48.2525 16.7705L46.8792 16.9706L45.9821 10.6382Z" fill="white"/>
<path id="Vector_10" d="M52.2725 10.0896H53.4199L56.1511 16.4939H54.585L54.0446 15.1357L51.5969 15.1312L51.0697 16.4871H49.5391L52.2725 10.0918V10.0896ZM52.8041 11.9515L52.0355 13.9394H53.575L52.8041 11.9515Z" fill="white"/>
<path id="Vector_11" d="M62.5304 11.1352L64.5262 11.7423C65.0091 11.8885 65.4521 12.0841 65.8553 12.3248C66.2584 12.5676 66.584 12.8599 66.8366 13.204C67.0869 13.5481 67.2508 13.9461 67.3261 14.3958C67.4014 14.8456 67.3549 15.3515 67.191 15.9114C67.0448 16.4084 66.8233 16.8177 66.5264 17.1392C66.2296 17.4608 65.8885 17.7037 65.4986 17.8633C65.111 18.0252 64.6924 18.1107 64.2427 18.1174C63.7952 18.1264 63.3456 18.0612 62.8959 17.924L60.7207 17.2629L62.5304 11.1352ZM62.4197 16.4219L63.1108 16.6333C63.4187 16.7277 63.7133 16.7817 63.9946 16.7997C64.2781 16.8154 64.5373 16.7817 64.7743 16.6917C65.0113 16.604 65.2195 16.4556 65.4012 16.251C65.5828 16.0464 65.7246 15.7698 65.8265 15.4235C65.9151 15.1244 65.9372 14.8456 65.8907 14.5892C65.8464 14.3328 65.7512 14.1035 65.6072 13.9033C65.461 13.7032 65.2727 13.5278 65.0423 13.3772C64.8097 13.2287 64.555 13.1118 64.2759 13.0264L63.4918 12.788L62.4175 16.4241L62.4197 16.4219Z" fill="white"/>
<path id="Vector_12" d="M72.4869 14.9243L73.5014 15.4707L72.9743 22.4282L71.5898 21.6839L71.736 20.2289L69.5741 19.0664L68.4843 20.0153L67.1309 19.289L72.4869 14.9288V14.9243ZM72.1015 16.8222L70.5089 18.2164L71.8711 18.9472L72.1037 16.8222H72.1015Z" fill="white"/>
<path id="Vector_13" d="M77.8755 18.2141L78.9742 19.0754L75.9063 23.1095L77.9419 24.7061L77.1578 25.736L74.0234 23.2782L77.8755 18.2141Z" fill="white"/>
<path id="Vector_14" d="M82.078 23.4266L80.8088 22.1336L81.6793 21.2544L85.1947 24.841L84.3241 25.7203L83.0549 24.4273L79.4576 28.0612L78.4785 27.0628L82.0736 23.4289L82.078 23.4266Z" fill="white"/>
<path id="Vector_15" d="M84.0343 28.2793C84.4507 27.9915 84.8782 27.8026 85.3102 27.7126C85.7443 27.6204 86.1652 27.6204 86.5728 27.7126C86.9803 27.8026 87.3658 27.978 87.7268 28.2388C88.0879 28.4997 88.4069 28.837 88.6837 29.2508C88.9606 29.6645 89.1511 30.0895 89.2574 30.528C89.3638 30.9643 89.3815 31.3915 89.3128 31.8098C89.2442 32.228 89.0891 32.6238 88.8432 32.9993C88.5996 33.3749 88.2673 33.7054 87.8509 33.9933C87.4344 34.2811 87.0069 34.47 86.5728 34.5622C86.1386 34.6544 85.7177 34.6544 85.3102 34.5622C84.9026 34.4722 84.5172 34.2968 84.1561 34.036C83.795 33.7751 83.4761 33.4378 83.1992 33.0241C82.9223 32.6103 82.7318 32.1853 82.6255 31.7491C82.5191 31.3128 82.5014 30.8833 82.5701 30.4673C82.6388 30.049 82.796 29.651 83.0397 29.2777C83.2834 28.9022 83.6134 28.5716 84.0321 28.2838L84.0343 28.2793ZM84.8428 29.4914C84.5969 29.66 84.3975 29.8534 84.2469 30.0715C84.0941 30.2897 83.9922 30.5213 83.939 30.7686C83.8859 31.016 83.8836 31.2701 83.9368 31.5287C83.9878 31.7873 84.0963 32.0414 84.2624 32.291C84.4286 32.5406 84.6213 32.7362 84.8406 32.8824C85.0599 33.0263 85.2924 33.1208 85.5383 33.1612C85.7842 33.2017 86.0345 33.1927 86.2914 33.1298C86.5462 33.0668 86.7965 32.9499 87.0424 32.7812C87.2838 32.6148 87.4809 32.4237 87.636 32.2033C87.7911 31.9829 87.8952 31.7513 87.9483 31.5017C88.0015 31.2543 88.0015 31.0002 87.9505 30.7416C87.8996 30.483 87.7911 30.2267 87.6227 29.9793C87.4566 29.7297 87.2639 29.5341 87.0446 29.3879C86.8253 29.244 86.5927 29.1518 86.3468 29.1091C86.1009 29.0686 85.8484 29.0799 85.5915 29.1451C85.3323 29.2103 85.0842 29.325 84.8428 29.4914Z" fill="white"/>
<path id="Vector_16" d="M91.768 34.7983L92.4702 36.577L89.4023 40.7551L89.4089 40.7709L93.4736 39.1181L93.9897 40.4268L88.1397 42.8059L87.4641 41.0947L90.6051 36.8087L90.5984 36.7929L86.4341 38.4862L85.918 37.1774L91.768 34.7983Z" fill="white"/>
</g>
<g id="Group_3">
<path id="Vector_17" d="M17.2579 71.1216L17.4484 71.5061C17.5038 71.6163 17.5636 71.7175 17.6322 71.8142C17.6987 71.9109 17.7762 71.9896 17.8626 72.0548C17.949 72.12 18.0442 72.156 18.1506 72.1673C18.2569 72.1785 18.3743 72.1515 18.5028 72.0841C18.6667 71.9986 18.7708 71.8637 18.8129 71.6748C18.855 71.4859 18.8262 71.2948 18.7309 71.1036C18.6401 70.9215 18.5161 70.7956 18.3588 70.7258C18.2015 70.6561 18.042 70.6404 17.8803 70.6764L17.4993 69.2507C17.7674 69.1922 18.0155 69.1832 18.2436 69.2215C18.4718 69.2619 18.6822 69.3406 18.8705 69.4598C19.0588 69.579 19.2315 69.7319 19.3844 69.9186C19.5372 70.1052 19.6745 70.3143 19.7897 70.5504C19.9116 70.7956 20.0002 71.0474 20.0533 71.3038C20.1065 71.5601 20.1131 71.8075 20.0733 72.0436C20.0334 72.2797 19.9426 72.4978 19.8052 72.698C19.6657 72.8981 19.4641 73.0645 19.2027 73.1994C18.8993 73.3546 18.6002 73.4085 18.3034 73.3568C18.0066 73.3051 17.7519 73.1432 17.537 72.8666L17.5148 72.8779C17.5769 73.0555 17.6012 73.2264 17.5879 73.3951C17.5746 73.5615 17.5326 73.7189 17.4639 73.8673C17.3952 74.0134 17.3 74.1484 17.1804 74.2675C17.0607 74.389 16.919 74.4902 16.7617 74.5711C16.4893 74.7105 16.2234 74.7803 15.9643 74.778C15.7051 74.778 15.4637 74.7218 15.2377 74.6116C15.0118 74.5014 14.8058 74.3418 14.6175 74.1349C14.4292 73.9257 14.2675 73.6874 14.1324 73.4153C13.8865 72.9206 13.7868 72.4349 13.8334 71.9626C13.8821 71.4882 14.1213 71.0699 14.5511 70.7034L15.4526 71.794C15.2776 71.9356 15.1668 72.0998 15.1159 72.2864C15.0672 72.4731 15.1048 72.6912 15.2289 72.9408C15.3551 73.1949 15.5168 73.3523 15.7073 73.4063C15.9 73.4603 16.0972 73.4355 16.3032 73.3298C16.4582 73.2511 16.5601 73.1567 16.6133 73.0487C16.6665 72.9408 16.6864 72.8239 16.6753 72.698C16.6642 72.572 16.631 72.4416 16.5734 72.3089C16.5158 72.174 16.456 72.0413 16.3896 71.9109L16.2522 71.6366L17.2535 71.1216H17.2579Z" fill="white"/>
<path id="Vector_18" d="M23.7766 77.0694L24.4832 77.9419L21.4508 83.9707L20.485 82.7789L21.1517 81.5309L19.6432 79.6689L18.3186 80.1052L17.375 78.9404L23.7766 77.0694ZM22.7311 78.6233L20.7929 79.2664L21.7432 80.438L22.7333 78.6233H22.7311Z" fill="white"/>
<path id="Vector_19" d="M26.5063 80.3301L27.8996 81.5354L27.1199 86.5297L27.1332 86.541L29.8909 83.2579L30.9165 84.1461L26.9493 88.8684L25.6092 87.7081L26.4022 82.5878L26.3889 82.5765L23.5646 85.9383L22.5391 85.0501L26.5063 80.3278V80.3301ZM27.7512 80.7393C27.8619 80.6426 27.986 80.5572 28.1233 80.4852C28.2606 80.411 28.4002 80.3615 28.5397 80.3346C28.6815 80.3053 28.821 80.3076 28.9628 80.3368C29.1046 80.366 29.2353 80.4335 29.3593 80.5414C29.4679 80.6359 29.5565 80.7348 29.6207 80.8383C29.6849 80.9417 29.7492 81.0541 29.8134 81.1778C29.8555 81.252 29.8976 81.3285 29.9375 81.4004C29.9773 81.4724 30.0305 81.5399 30.0969 81.5961C30.1723 81.6613 30.2498 81.6883 30.334 81.6793C30.4181 81.6703 30.5023 81.6455 30.5887 81.6051L31.1004 82.0481C30.9697 82.1583 30.839 82.2527 30.7061 82.3292C30.5732 82.4056 30.4381 82.4573 30.3007 82.4798C30.1634 82.5023 30.0261 82.4978 29.8865 82.4596C29.747 82.4236 29.6096 82.3471 29.4745 82.228C29.3792 82.1448 29.2995 82.0503 29.2375 81.9491C29.1755 81.8457 29.1223 81.7445 29.078 81.6455C29.0337 81.5444 28.9894 81.4522 28.9451 81.3645C28.9008 81.2768 28.8476 81.2048 28.7812 81.1486C28.7059 81.0834 28.6217 81.0631 28.5242 81.0879C28.429 81.1126 28.3426 81.1463 28.2695 81.1891L27.7512 80.7393Z" fill="white"/>
<path id="Vector_20" d="M29.9822 87.3055C30.2259 86.876 30.5183 86.5252 30.8572 86.2599C31.1983 85.9923 31.5638 85.8101 31.9581 85.7135C32.3524 85.6168 32.7599 85.6033 33.1852 85.6752C33.6105 85.7472 34.0292 85.9046 34.4434 86.1452C34.8576 86.3881 35.2032 86.6759 35.4778 87.011C35.7525 87.346 35.9474 87.7126 36.0648 88.1061C36.18 88.4996 36.211 88.9134 36.1535 89.3474C36.0981 89.7791 35.9474 90.2109 35.706 90.6426C35.4623 91.0744 35.17 91.4229 34.8288 91.6883C34.4877 91.9559 34.1222 92.138 33.7279 92.2347C33.3336 92.3314 32.9261 92.3449 32.5008 92.2729C32.0755 92.201 31.6568 92.0436 31.2426 91.8029C30.8284 91.5623 30.4828 91.2722 30.2082 90.9372C29.9335 90.6021 29.7386 90.2378 29.6234 89.8421C29.5082 89.4486 29.4772 89.0348 29.5326 88.6008C29.5879 88.169 29.7386 87.7373 29.9822 87.3055ZM31.1961 88.0139C31.0521 88.268 30.9613 88.5221 30.9192 88.7762C30.8771 89.0303 30.886 89.2776 30.9414 89.5183C30.9989 89.7566 31.1053 89.9792 31.2581 90.1816C31.4109 90.3863 31.6125 90.5617 31.8628 90.7056C32.1131 90.8517 32.3634 90.9394 32.6137 90.9709C32.864 91.0024 33.1055 90.9844 33.3381 90.9125C33.5707 90.8427 33.7833 90.7236 33.9805 90.5594C34.1776 90.3953 34.3459 90.1839 34.4899 89.932C34.6295 89.6847 34.7225 89.4306 34.7646 89.172C34.8067 88.9134 34.8 88.666 34.7424 88.4276C34.6848 88.1893 34.5785 87.9667 34.4257 87.762C34.2728 87.5574 34.0713 87.382 33.821 87.2381C33.5707 87.0942 33.3204 87.0042 33.0701 86.9727C32.8197 86.9412 32.5783 86.9592 32.3457 87.0289C32.1131 87.0987 31.8983 87.2178 31.7011 87.3865C31.504 87.5551 31.3334 87.762 31.1939 88.0116L31.1961 88.0139Z" fill="white"/>
<path id="Vector_21" d="M40.2637 90.6808C40.2105 90.5099 40.1086 90.3615 39.9558 90.2311C39.8029 90.1007 39.6501 90.0062 39.4928 89.9455C39.3998 89.9095 39.3023 89.8848 39.1982 89.8691C39.0941 89.8533 38.9878 89.8533 38.8859 89.8668C38.7818 89.8803 38.6888 89.914 38.6068 89.9702C38.5248 90.0265 38.4628 90.1097 38.4229 90.2176C38.3587 90.393 38.372 90.5504 38.4672 90.6943C38.5625 90.836 38.6954 90.9777 38.8682 91.1193C39.0409 91.261 39.227 91.4072 39.4286 91.5601C39.6302 91.713 39.8074 91.8861 39.958 92.0818C40.1108 92.2774 40.2127 92.5023 40.2659 92.7541C40.3191 93.006 40.2836 93.3006 40.1574 93.6401C40.0377 93.9639 39.8738 94.2203 39.6656 94.4159C39.4574 94.6116 39.2226 94.7487 38.9612 94.8297C38.6998 94.9107 38.4229 94.9376 38.1261 94.9129C37.8315 94.8882 37.5347 94.8185 37.2401 94.7038C36.868 94.5621 36.5445 94.371 36.2699 94.1349C35.9952 93.8987 35.7671 93.5997 35.5898 93.2376L36.8591 92.581C36.9233 92.8059 37.0363 93.0038 37.1958 93.1747C37.3575 93.3456 37.5413 93.4715 37.7518 93.5524C37.8537 93.5907 37.9622 93.6199 38.0774 93.6356C38.1904 93.6514 38.2989 93.6514 38.4008 93.6356C38.5027 93.6177 38.5935 93.5817 38.6732 93.5232C38.753 93.467 38.8128 93.386 38.8505 93.2826C38.9147 93.1072 38.9014 92.943 38.8062 92.7924C38.7109 92.6395 38.578 92.4911 38.4052 92.3426C38.2324 92.1942 38.0442 92.0413 37.8382 91.8816C37.6322 91.722 37.4527 91.5443 37.2977 91.3465C37.1426 91.1486 37.0363 90.9282 36.9787 90.6808C36.9189 90.4335 36.9499 90.1479 37.0717 89.8263C37.1869 89.5138 37.3508 89.2642 37.5591 89.0753C37.7673 88.8864 38.0021 88.7515 38.2635 88.6705C38.5248 88.5895 38.8017 88.5603 39.0941 88.5828C39.3865 88.6053 39.6745 88.6705 39.9536 88.7762C40.277 88.8999 40.5716 89.0663 40.8396 89.2754C41.1054 89.4845 41.3203 89.7454 41.482 90.0557L40.2592 90.6831L40.2637 90.6808Z" fill="white"/>
<path id="Vector_22" d="M44.1438 93.5547C44.2081 93.0622 44.3498 92.6282 44.5647 92.2504C44.7796 91.8726 45.052 91.5646 45.3798 91.3217C45.7077 91.0811 46.082 90.9124 46.5007 90.8157C46.9215 90.7191 47.3668 90.7033 47.8408 90.7685C48.3148 90.8337 48.7401 90.9687 49.1211 91.1733C49.4999 91.3779 49.8167 91.641 50.0714 91.9626C50.3239 92.2819 50.5078 92.6552 50.6163 93.0757C50.7249 93.4985 50.747 93.9549 50.6828 94.4474C50.6185 94.9399 50.4768 95.3739 50.2619 95.7517C50.047 96.1294 49.7746 96.4375 49.4467 96.6804C49.1189 96.921 48.7446 97.0896 48.3259 97.1863C47.9073 97.283 47.4598 97.2988 46.9858 97.2335C46.5118 97.1683 46.0865 97.0334 45.7055 96.8288C45.3267 96.6241 45.0099 96.3611 44.7552 96.0395C44.5005 95.7202 44.3188 95.3469 44.2103 94.9264C44.0995 94.5059 44.0796 94.0471 44.1438 93.5547ZM45.5305 93.7436C45.4928 94.0336 45.5017 94.3035 45.5571 94.5576C45.6124 94.8094 45.7121 95.0366 45.8539 95.2344C45.9956 95.4346 46.1751 95.5987 46.3944 95.7292C46.6114 95.8596 46.864 95.9428 47.1497 95.9833C47.4354 96.0215 47.699 96.008 47.9449 95.9405C48.1886 95.8731 48.4057 95.7629 48.5939 95.6077C48.7822 95.4526 48.9373 95.2614 49.0569 95.0343C49.1765 94.8049 49.2562 94.5463 49.2939 94.2585C49.3316 93.9752 49.3227 93.7053 49.2651 93.449C49.2097 93.1926 49.1101 92.9655 48.9683 92.7676C48.8265 92.5675 48.6449 92.4033 48.4278 92.2729C48.2107 92.1425 47.9582 92.0593 47.6725 92.0188C47.3867 91.9806 47.1231 91.9941 46.8795 92.0615C46.6358 92.129 46.4187 92.2392 46.2304 92.3921C46.0422 92.5473 45.8871 92.7384 45.7653 92.97C45.6434 93.2016 45.5659 93.458 45.5283 93.7436H45.5305Z" fill="white"/>
<path id="Vector_23" d="M56.4042 93.3096C56.4707 93.2848 56.5394 93.2646 56.608 93.2466C56.6745 93.2286 56.7476 93.2151 56.8207 93.2084C57.1086 93.1814 57.3722 93.2084 57.6181 93.2893C57.864 93.3725 58.0766 93.4962 58.2605 93.6581C58.4443 93.8223 58.5928 94.0247 58.7079 94.263C58.8231 94.5014 58.894 94.76 58.9184 95.0388C58.9472 95.3581 58.9184 95.655 58.8231 95.9248C58.7301 96.1946 58.5905 96.433 58.4045 96.6399C58.2184 96.8468 57.9903 97.0132 57.7222 97.1414C57.4542 97.2695 57.1618 97.3482 56.8473 97.3797C56.5261 97.4112 56.2226 97.3887 55.9391 97.3123C55.6555 97.2358 55.4008 97.1166 55.1815 96.948C54.96 96.7816 54.7784 96.5747 54.6388 96.3273C54.4971 96.08 54.4107 95.7966 54.3819 95.4751C54.3619 95.2547 54.3619 95.0501 54.3841 94.8634C54.4062 94.6768 54.4439 94.4969 54.4948 94.3282C54.5458 94.1596 54.6078 93.9954 54.6831 93.838C54.7584 93.6806 54.8382 93.5187 54.9201 93.3523L56.0565 91.1126L57.6292 90.9619L56.4065 93.3073L56.4042 93.3096ZM57.6225 95.113C57.596 94.8342 57.4852 94.6116 57.2881 94.4452C57.0909 94.2788 56.845 94.2113 56.5527 94.2383C56.2603 94.2675 56.0321 94.3799 55.8682 94.5823C55.7043 94.7825 55.6356 95.0231 55.6622 95.3019C55.6888 95.5808 55.7995 95.8034 55.9967 95.9698C56.1938 96.1362 56.4397 96.2059 56.7321 96.1767C57.0245 96.1497 57.2526 96.035 57.4165 95.8326C57.5805 95.6302 57.6491 95.3919 57.6225 95.113Z" fill="white"/>
<path id="Vector_24" d="M59.6775 93.8245C59.5956 93.467 59.5446 93.0937 59.5247 92.7092C59.5048 92.3246 59.5424 91.9603 59.6399 91.6208C59.7351 91.279 59.9057 90.9799 60.1494 90.7235C60.3908 90.4649 60.7341 90.2851 61.1772 90.1794C61.6202 90.0737 62.0056 90.0849 62.3356 90.2086C62.6657 90.3323 62.947 90.5257 63.1818 90.7865C63.4166 91.0496 63.6071 91.3577 63.7577 91.713C63.9061 92.0683 64.0213 92.4258 64.1033 92.7834C64.1852 93.1432 64.2362 93.5142 64.2561 93.8987C64.2761 94.2832 64.2384 94.6475 64.1409 94.9871C64.0457 95.3266 63.8751 95.628 63.6315 95.8843C63.39 96.1429 63.0467 96.3251 62.6037 96.4285C62.1607 96.5342 61.7752 96.523 61.4452 96.4015C61.1151 96.2778 60.8338 96.0845 60.599 95.8214C60.3642 95.5583 60.1737 95.2502 60.0231 94.8949C59.8747 94.5396 59.7573 94.1821 59.6775 93.8245ZM60.9401 93.5277C60.9756 93.6873 61.0265 93.8762 61.093 94.0944C61.1572 94.3125 61.2436 94.5171 61.3521 94.7083C61.4607 94.8994 61.5936 95.0501 61.7531 95.1625C61.9126 95.2749 62.1053 95.3042 62.3356 95.2502C62.5594 95.1985 62.7211 95.0838 62.8163 94.9129C62.9116 94.7397 62.9692 94.5441 62.9824 94.3237C62.998 94.1034 62.9869 93.8807 62.9492 93.6559C62.9116 93.431 62.8761 93.2376 62.8385 93.0779C62.803 92.9183 62.7521 92.7294 62.6856 92.5113C62.6214 92.2931 62.535 92.0885 62.4265 91.8974C62.3179 91.7062 62.1828 91.5556 62.0211 91.4431C61.8594 91.3307 61.6667 91.3015 61.443 91.3554C61.2126 91.4094 61.0509 91.5218 60.9579 91.695C60.8648 91.8681 60.8094 92.0638 60.7962 92.2819C60.7807 92.5023 60.7917 92.7226 60.8294 92.9498C60.867 93.1746 60.9025 93.368 60.9401 93.5277Z" fill="white"/>
<path id="Vector_25" d="M65.8398 93.9325L67.0161 93.5255L67.0648 96.1205L66.0193 96.4825L65.8398 93.9325Z" fill="white"/>
<path id="Vector_26" d="M67.4533 91.623C67.3027 91.288 67.1786 90.9349 67.0834 90.5594C66.9881 90.1861 66.9549 89.8218 66.9815 89.4688C67.0081 89.1157 67.1166 88.7874 67.3027 88.4861C67.4888 88.1848 67.79 87.9374 68.2042 87.744C68.6184 87.5529 68.9994 87.4832 69.345 87.5372C69.6928 87.5911 70.0073 87.7238 70.2886 87.9329C70.5699 88.1421 70.818 88.4074 71.0351 88.7245C71.2522 89.0415 71.4338 89.3676 71.5844 89.7027C71.7351 90.0377 71.8591 90.393 71.9544 90.7663C72.0496 91.1396 72.0828 91.5039 72.0563 91.8569C72.0275 92.21 71.9211 92.5383 71.7351 92.8396C71.549 93.1409 71.2477 93.3883 70.8357 93.5817C70.4215 93.7728 70.0405 93.8425 69.695 93.7885C69.3494 93.7346 69.0327 93.6019 68.7513 93.3928C68.47 93.1836 68.2219 92.9183 68.0049 92.6012C67.7878 92.2842 67.6062 91.9581 67.4555 91.623H67.4533ZM68.6317 91.0766C68.6982 91.225 68.7868 91.4004 68.8931 91.6028C68.9994 91.8052 69.1257 91.9873 69.2675 92.1515C69.4114 92.3156 69.5731 92.4371 69.7504 92.5158C69.9276 92.5945 70.1247 92.5832 70.3396 92.4843C70.55 92.3876 70.6851 92.2437 70.7449 92.0548C70.8047 91.8659 70.8202 91.6635 70.7914 91.4454C70.7626 91.2273 70.7095 91.0114 70.6275 90.7978C70.5478 90.5841 70.4747 90.4043 70.406 90.2536C70.3396 90.1052 70.2532 89.9298 70.1469 89.7296C70.0405 89.5295 69.9143 89.3451 69.7725 89.181C69.6285 89.0168 69.4668 88.8954 69.2874 88.8189C69.108 88.7425 68.9131 88.7515 68.7026 88.8481C68.4878 88.9493 68.3526 89.091 68.295 89.2799C68.2374 89.4688 68.2219 89.6712 68.2507 89.8893C68.2795 90.1074 68.3327 90.3233 68.4147 90.5369C68.4944 90.7506 68.5675 90.9304 68.6362 91.0789L68.6317 91.0766Z" fill="white"/>
<path id="Vector_27" d="M72.327 89.2979C72.1343 88.9853 71.9637 88.6525 71.8197 88.295C71.6758 87.9374 71.5938 87.5821 71.5739 87.2291C71.5539 86.876 71.6182 86.5365 71.7621 86.2104C71.9083 85.8866 72.1719 85.601 72.5574 85.3536C72.9406 85.1063 73.3105 84.9871 73.6605 84.9939C74.0127 85.0006 74.3405 85.0883 74.6462 85.257C74.9541 85.4256 75.2332 85.655 75.4901 85.9383C75.7471 86.2239 75.9708 86.5207 76.1635 86.8333C76.3584 87.1459 76.5268 87.4787 76.6708 87.8362C76.8148 88.1938 76.8967 88.5491 76.9166 88.9021C76.9366 89.2552 76.8746 89.5947 76.7284 89.9208C76.5822 90.2446 76.3186 90.5302 75.9331 90.7775C75.5477 91.0249 75.18 91.1441 74.83 91.1373C74.4778 91.1306 74.15 91.0429 73.8443 90.8742C73.5364 90.7056 73.2573 90.4762 73.0004 90.1929C72.7434 89.9073 72.5197 89.6104 72.327 89.2979ZM73.4212 88.594C73.5076 88.7335 73.6162 88.8954 73.7491 89.0798C73.882 89.2641 74.0282 89.4283 74.1943 89.5722C74.3582 89.7161 74.5332 89.8151 74.7193 89.8668C74.9053 89.9208 75.0981 89.8825 75.2974 89.7544C75.4923 89.6284 75.6075 89.4688 75.643 89.2731C75.6784 89.0775 75.6673 88.8751 75.6097 88.6615C75.5522 88.4501 75.4702 88.2432 75.3617 88.0431C75.2531 87.843 75.1579 87.6743 75.0715 87.5349C74.9851 87.3977 74.8766 87.2358 74.7436 87.0514C74.6107 86.867 74.4623 86.7029 74.2984 86.559C74.1345 86.415 73.9573 86.3183 73.769 86.2666C73.5807 86.2149 73.388 86.2509 73.1931 86.3768C72.9937 86.505 72.8785 86.6646 72.8453 86.8603C72.8121 87.0537 72.8254 87.2583 72.883 87.4697C72.9406 87.6811 73.0225 87.8879 73.1311 88.0881C73.2396 88.2882 73.3349 88.4569 73.4212 88.5963V88.594Z" fill="white"/>
<path id="Vector_28" d="M76.8575 86.3228C76.6249 86.0418 76.4123 85.7337 76.2218 85.3986C76.0313 85.0636 75.9028 84.724 75.8364 84.3755C75.7699 84.0269 75.7876 83.6829 75.8873 83.3411C75.9892 82.9993 76.2129 82.6799 76.5607 82.3831C76.9085 82.0863 77.2584 81.9176 77.6062 81.8749C77.9562 81.8344 78.2929 81.8749 78.6185 82.0008C78.9441 82.1268 79.2542 82.3157 79.5444 82.5608C79.8368 82.8081 80.0982 83.0735 80.3308 83.3546C80.5656 83.6356 80.776 83.9437 80.9665 84.2788C81.157 84.6138 81.2855 84.9534 81.3519 85.3019C81.4184 85.6505 81.4007 85.9945 81.301 86.3363C81.2013 86.6781 80.9754 86.9975 80.6276 87.2943C80.2798 87.5911 79.9298 87.762 79.5821 87.8025C79.2343 87.8452 78.8954 87.8025 78.5698 87.6766C78.2442 87.5506 77.934 87.364 77.6439 87.1166C77.3515 86.8693 77.0901 86.6039 76.8575 86.3228ZM77.8499 85.4773C77.954 85.6033 78.0825 85.7472 78.2397 85.9136C78.3948 86.0777 78.5631 86.2217 78.747 86.3408C78.9286 86.46 79.1147 86.5342 79.3074 86.5612C79.5001 86.5882 79.6862 86.5252 79.8656 86.3701C80.0406 86.2194 80.1336 86.0463 80.1425 85.8461C80.1513 85.6482 80.1137 85.4481 80.0295 85.2457C79.9453 85.0433 79.8346 84.8499 79.7017 84.6656C79.5688 84.4812 79.4492 84.3282 79.3451 84.2023C79.2409 84.0764 79.1125 83.9325 78.9574 83.7661C78.8024 83.6019 78.634 83.458 78.4502 83.3388C78.2685 83.2196 78.0802 83.1477 77.8875 83.1207C77.6948 83.096 77.5087 83.1589 77.3315 83.3096C77.1521 83.4647 77.0569 83.6379 77.0502 83.8358C77.0436 84.0314 77.0835 84.2316 77.1676 84.4339C77.2518 84.6363 77.3626 84.8297 77.4955 85.0141C77.6284 85.1985 77.748 85.3537 77.8521 85.4773H77.8499Z" fill="white"/>
<path id="Vector_29" d="M80.6705 78.5603L81.4922 77.4764L83.5035 79.0505L82.9431 75.5673L84.0174 74.1506L84.6067 78.0993L89.0014 77.753L87.8518 79.2664L84.0352 79.4688L86.3322 81.2655L85.5104 82.3494L80.666 78.5603H80.6705Z" fill="white"/>
<path id="Vector_30" d="M84.3359 73.7166L85.2574 71.8704L89.4528 72.4259L89.4617 72.4101L86.5422 69.2979L87.4592 67.4607L92.915 70.2649L92.3058 71.4859L88.1215 69.3361L88.1149 69.3519L91.5726 72.9566L91.1097 73.8875L86.2276 73.1364L86.2188 73.1522L90.4031 75.302L89.7939 76.523L84.3382 73.7189L84.3359 73.7166Z" fill="white"/>
</g>
</g>
<g id="Group_4">
<path id="Vector_31" d="M66.3677 59.3092H52.7958C51.7082 59.3092 50.7735 60.0468 50.5741 61.0609C50.5608 61.1329 50.5497 61.2026 50.5431 61.2723C50.4323 62.3832 51.2453 63.3726 52.3262 63.5795L60.0436 66.0238C57.9946 67.2876 55.5824 68.0139 52.9996 68.0139C52.4879 68.0139 51.9851 67.9847 51.4889 67.9307C47.3068 67.463 44.1858 63.7864 44.1858 59.5138V55.4774L44.7063 56.0553L44.9234 56.2577L49.203 60.6022C49.5995 59.0236 51.0193 57.8475 52.6895 57.8475H54.3885L46.7464 50.0895C45.8958 49.226 44.7794 48.7943 43.663 48.7943C42.5466 48.7943 41.428 49.226 40.5774 50.0895C40.573 50.094 39.543 51.2161 39.543 53.3141V60.6404C39.543 68.1331 45.393 74.4002 52.7715 74.5262C60.3094 74.6543 66.4607 68.4884 66.4607 60.8653V59.3092H66.3699H66.3677Z" fill="#D10C2B"/>
<path id="Vector_32" d="M56.712 33.0826C55.4317 33.0826 54.3906 34.1395 54.3906 35.4392V55.781L56.4551 57.8655H59.0334V35.4392C59.0334 34.1395 57.9924 33.0826 56.712 33.0826Z" fill="#D10C2B"/>
<path id="Vector_33" d="M64.1339 33.0826C62.8536 33.0826 61.8125 34.1395 61.8125 35.4392V57.8655H66.4575V35.4392C66.4575 34.1395 65.4164 33.0826 64.1361 33.0826H64.1339Z" fill="#D10C2B"/>
<path id="Vector_34" d="M49.2863 33.0826C48.0059 33.0826 46.9648 34.1395 46.9648 35.4392V48.2793L51.6099 52.9701V35.437C51.6099 34.1372 50.5688 33.0803 49.2885 33.0803L49.2863 33.0826Z" fill="#D10C2B"/>
</g>
<g id="Group_5">
<path id="Vector_35" d="M9.95508 58.729C10.1345 58.1983 10.3095 57.6811 10.4845 57.1661C10.8943 55.9563 11.3019 54.7443 11.7183 53.5345C11.7582 53.4198 11.7404 53.3501 11.654 53.2691C11.4879 53.1162 11.3306 52.9521 11.1534 52.7767C11.468 52.6665 11.767 52.6305 12.0683 52.6125C14.0951 52.4843 15.9713 53.9123 16.4121 55.9226C16.6136 56.8401 16.5317 57.7351 16.1595 58.5986C16.1285 58.6728 16.1042 58.7335 15.9978 58.7335C15.4175 58.7267 14.8371 58.7312 14.2479 58.7312C15.258 57.4382 15.4153 56.089 14.4938 54.7016C13.9001 53.8088 12.7749 53.2939 11.7781 53.4445C11.8202 53.4693 11.8689 53.4873 11.9021 53.521C12.4205 54.0427 12.9388 54.5689 13.4571 55.0928C13.7451 55.3829 13.8071 55.6955 13.6476 56.0733C13.61 56.161 13.5612 56.2464 13.5103 56.3274C13.0185 57.0897 12.5246 57.852 12.0306 58.6143C11.9952 58.6683 11.973 58.7357 11.8844 58.7357C11.2487 58.7335 10.613 58.7357 9.95951 58.7357L9.95508 58.729Z" fill="white"/>
<path id="Vector_36" d="M89.4863 58.729C89.6658 58.1983 89.8407 57.6811 90.0157 57.1661C90.4255 55.9563 90.8331 54.7443 91.2495 53.5345C91.2894 53.4198 91.2717 53.3501 91.1853 53.2691C91.0192 53.1162 90.8619 52.9521 90.6847 52.7767C90.9992 52.6665 91.2983 52.6305 91.5995 52.6125C93.6263 52.4843 95.5025 53.9123 95.9433 55.9226C96.1449 56.8401 96.0629 57.7351 95.6908 58.5986C95.6598 58.6728 95.6354 58.7335 95.5291 58.7335C94.9487 58.7267 94.3684 58.7312 93.7792 58.7312C94.7892 57.4382 94.9465 56.089 94.025 54.7016C93.4314 53.8088 92.3061 53.2939 91.3093 53.4445C91.3514 53.4693 91.4002 53.4873 91.4334 53.521C91.9517 54.0427 92.47 54.5689 92.9884 55.0928C93.2763 55.3829 93.3384 55.6955 93.1789 56.0733C93.1412 56.161 93.0925 56.2464 93.0415 56.3274C92.5498 57.0897 92.0558 57.852 91.5619 58.6143C91.5264 58.6683 91.5043 58.7357 91.4157 58.7357C90.7799 58.7335 90.1442 58.7357 89.4908 58.7357L89.4863 58.729Z" fill="white"/>
</g>
</g>
</svg>
