<svg width="274" height="28" viewBox="0 0 274 28" fill="none" xmlns="http://www.w3.org/2000/svg">
<path d="M119.774 14.0335C119.442 13.6306 119.043 13.362 118.511 13.1606C117.979 12.9592 117.447 12.892 116.981 12.892C116.715 12.892 116.383 12.9592 116.117 12.9592C115.851 13.0263 115.518 13.1606 115.252 13.2949C114.986 13.4292 114.787 13.6306 114.587 13.8321C114.454 14.0335 114.321 14.3692 114.321 14.705C114.321 15.2421 114.521 15.645 114.92 15.9136C115.319 16.1822 115.784 16.4508 116.449 16.6522C117.048 16.8537 117.713 17.0551 118.378 17.2565C119.043 17.458 119.708 17.7266 120.307 18.1294C120.905 18.4652 121.437 19.0023 121.836 19.6066C122.235 20.211 122.435 21.0839 122.435 22.0911C122.435 23.0983 122.235 23.904 121.903 24.6426C121.57 25.3812 121.038 25.9855 120.44 26.4556C119.841 26.9256 119.109 27.3285 118.311 27.5299C117.513 27.7313 116.649 27.8656 115.718 27.8656C114.587 27.8656 113.523 27.6642 112.526 27.3285C111.528 26.9927 110.663 26.3884 109.799 25.6498L112.526 22.5611C112.925 23.0983 113.39 23.5011 114.055 23.7697C114.654 24.0383 115.252 24.2397 115.917 24.2397C116.25 24.2397 116.582 24.1726 116.848 24.1054C117.181 24.0383 117.447 23.904 117.713 23.7697C117.979 23.6354 118.178 23.434 118.311 23.1654C118.444 22.964 118.577 22.6282 118.577 22.3596C118.577 21.8225 118.378 21.4196 117.979 21.0839C117.58 20.7481 117.048 20.4795 116.449 20.2781C115.851 20.0767 115.186 19.8752 114.454 19.6066C113.723 19.4052 113.058 19.0695 112.459 18.7337C111.86 18.398 111.328 17.8608 110.929 17.2565C110.53 16.6522 110.331 15.8465 110.331 14.9064C110.331 13.9664 110.53 13.0935 110.863 12.422C111.262 11.6834 111.727 11.0791 112.326 10.609C112.925 10.139 113.656 9.73614 114.454 9.53471C115.252 9.26612 116.117 9.19897 116.981 9.19897C117.979 9.19897 118.91 9.33327 119.841 9.60185C120.772 9.87044 121.57 10.3405 122.368 11.0119L119.774 14.0335Z" fill="white"/>
<path d="M135.27 25.4483C134.671 26.1869 133.94 26.7912 133.009 27.1941C132.078 27.597 131.147 27.7984 130.149 27.7984C129.218 27.7984 128.353 27.6642 127.555 27.3284C126.757 27.0598 126.026 26.5898 125.427 26.0526C124.829 25.5155 124.363 24.844 124.031 24.0382C123.698 23.2325 123.499 22.3596 123.499 21.4195C123.499 20.4795 123.698 19.6066 124.031 18.8008C124.363 17.9951 124.829 17.3236 125.427 16.7865C126.026 16.2493 126.757 15.7793 127.555 15.5107C128.353 15.2421 129.218 15.0406 130.149 15.0406C131.014 15.0406 131.812 15.1749 132.477 15.5107C133.208 15.7793 133.807 16.2493 134.272 16.7865C134.738 17.3236 135.137 17.9951 135.403 18.8008C135.669 19.6066 135.802 20.4795 135.802 21.4195V22.6282H127.156C127.289 23.3668 127.622 23.904 128.154 24.374C128.619 24.7769 129.284 25.0454 130.016 25.0454C130.615 25.0454 131.147 24.9112 131.546 24.6426C131.945 24.374 132.344 24.0382 132.676 23.5682L135.27 25.4483ZM132.078 20.1438C132.078 19.5395 131.878 18.9351 131.479 18.5323C131.08 18.0622 130.482 17.8608 129.816 17.8608C129.417 17.8608 129.018 17.9279 128.752 18.0622C128.42 18.1965 128.154 18.398 127.954 18.5994C127.755 18.8008 127.555 19.0694 127.422 19.338C127.289 19.6066 127.223 19.8752 127.223 20.2109H132.078V20.1438Z" fill="white"/>
<path d="M137.066 15.7122H140.657V17.3908H140.724C140.857 17.1894 140.99 16.9208 141.189 16.7194C141.389 16.5179 141.655 16.2494 141.987 16.1151C142.253 15.9136 142.652 15.7793 142.985 15.645C143.384 15.5107 143.783 15.4436 144.248 15.4436C145.113 15.4436 145.845 15.645 146.51 15.9808C147.175 16.3165 147.64 16.8537 147.973 17.6594C148.372 16.8537 148.904 16.3165 149.502 15.9808C150.101 15.645 150.899 15.5108 151.763 15.5108C152.561 15.5108 153.226 15.645 153.825 15.9136C154.357 16.1822 154.823 16.5851 155.155 17.0551C155.488 17.5251 155.687 18.0623 155.82 18.7338C155.953 19.4052 156.02 20.0767 156.02 20.8153V28H152.295V20.8153C152.295 20.2781 152.162 19.741 151.963 19.3381C151.697 18.9352 151.298 18.7338 150.699 18.7338C150.3 18.7338 149.901 18.8009 149.635 18.9352C149.369 19.0695 149.103 19.2709 148.97 19.5395C148.771 19.8081 148.704 20.0767 148.571 20.4124C148.505 20.7482 148.438 21.0839 148.438 21.4868V27.9328H144.714V21.4868C144.714 21.2853 144.714 21.0167 144.714 20.681C144.714 20.3453 144.647 20.0767 144.514 19.8081C144.448 19.5395 144.248 19.2709 144.049 19.0695C143.849 18.8681 143.517 18.8009 143.051 18.8009C142.586 18.8009 142.187 18.8681 141.854 19.0695C141.522 19.2709 141.322 19.4724 141.189 19.741C141.056 20.0096 140.923 20.3453 140.857 20.7482C140.79 21.0839 140.79 21.4868 140.79 21.8896V27.9328H137.066V15.7122Z" fill="white"/>
<path d="M157.017 11.4148C157.017 10.8105 157.217 10.2733 157.682 9.87044C158.081 9.46756 158.613 9.19897 159.212 9.19897C159.81 9.19897 160.342 9.40041 160.741 9.87044C161.14 10.2733 161.406 10.8105 161.406 11.4148C161.406 12.0191 161.207 12.5563 160.741 12.9592C160.342 13.362 159.81 13.6306 159.212 13.6306C158.613 13.6306 158.081 13.4292 157.682 12.9592C157.217 12.5563 157.017 12.0191 157.017 11.4148ZM157.283 15.7122H161.007V27.8656H157.283V15.7122Z" fill="white"/>
<path d="M162.47 15.7122H166.062V17.3908H166.128C166.261 17.1894 166.394 16.9208 166.594 16.7194C166.793 16.5179 167.059 16.2494 167.392 16.1151C167.658 15.9136 168.057 15.7793 168.389 15.645C168.788 15.5107 169.187 15.4436 169.653 15.4436C170.584 15.4436 171.382 15.5779 171.914 15.9136C172.512 16.1822 172.912 16.5851 173.244 17.1223C173.577 17.6594 173.776 18.2637 173.909 18.9352C174.042 19.6067 174.109 20.4124 174.109 21.2182V27.9328H170.384V21.9568C170.384 21.6211 170.384 21.2182 170.318 20.8825C170.318 20.4796 170.251 20.1438 170.118 19.8753C169.985 19.5395 169.786 19.2709 169.52 19.0695C169.254 18.8681 168.921 18.8009 168.389 18.8009C167.857 18.8009 167.525 18.8681 167.192 19.0695C166.86 19.2709 166.66 19.4724 166.527 19.741C166.394 20.0096 166.261 20.3453 166.195 20.7482C166.128 21.0839 166.128 21.4868 166.128 21.8896V27.9328H162.404V15.7122H162.47Z" fill="white"/>
<path d="M187.143 27.8657H183.552V25.9184H183.486C183.353 26.1199 183.153 26.3884 182.953 26.5899C182.754 26.7913 182.488 27.0599 182.222 27.1942C181.956 27.3956 181.557 27.5299 181.224 27.6642C180.825 27.7985 180.426 27.8657 179.961 27.8657C179.03 27.8657 178.232 27.7314 177.633 27.3956C177.035 27.1271 176.569 26.7242 176.237 26.187C175.904 25.6498 175.705 25.0455 175.571 24.3741C175.438 23.7026 175.438 22.8968 175.438 22.0911V15.4436H179.163V21.4196C179.163 21.7554 179.163 22.1582 179.229 22.494C179.229 22.8968 179.296 23.2326 179.429 23.5012C179.562 23.8369 179.761 24.1055 180.027 24.3069C180.293 24.5084 180.626 24.5755 181.158 24.5755C181.623 24.5755 182.022 24.5084 182.355 24.3069C182.687 24.1055 182.887 23.904 183.02 23.6355C183.153 23.3669 183.286 23.0311 183.353 22.6283C183.419 22.2254 183.419 21.8896 183.419 21.4868V15.4436H187.143V27.8657Z" fill="white"/>
<path d="M200.112 25.4483C199.514 26.1869 198.782 26.7912 197.851 27.1941C196.92 27.597 195.989 27.7984 194.991 27.7984C194.06 27.7984 193.196 27.6642 192.398 27.3284C191.6 27.0598 190.868 26.5898 190.269 26.0526C189.671 25.5155 189.205 24.844 188.873 24.0382C188.54 23.2325 188.341 22.3596 188.341 21.4195C188.341 20.4795 188.54 19.6066 188.873 18.8008C189.205 17.9951 189.671 17.3236 190.269 16.7865C190.868 16.2493 191.6 15.7793 192.398 15.5107C193.196 15.2421 194.06 15.0406 194.991 15.0406C195.856 15.0406 196.654 15.1749 197.319 15.5107C198.05 15.7793 198.649 16.2493 199.115 16.7865C199.58 17.3236 199.979 17.9951 200.245 18.8008C200.511 19.6066 200.644 20.4795 200.644 21.4195V22.6282H191.999C192.132 23.3668 192.464 23.904 192.996 24.374C193.462 24.7769 194.127 25.0454 194.858 25.0454C195.457 25.0454 195.989 24.9112 196.388 24.6426C196.787 24.374 197.186 24.0382 197.518 23.5682L200.112 25.4483ZM196.986 20.1438C196.986 19.5395 196.787 18.9351 196.388 18.5323C195.989 18.0622 195.39 17.8608 194.725 17.8608C194.326 17.8608 193.927 17.9279 193.661 18.0622C193.329 18.1965 193.063 18.398 192.863 18.5994C192.664 18.8008 192.464 19.0694 192.331 19.338C192.198 19.6066 192.132 19.8752 192.132 20.2109H196.986V20.1438Z" fill="white"/>
<path d="M200.312 15.7122H204.302L207.361 23.9712H207.427L210.287 15.7122H214.011L209.223 27.8656H205.299L200.312 15.7122Z" fill="white"/>
<path d="M213.546 21.4868C213.546 20.5468 213.745 19.6739 214.078 18.8681C214.41 18.0623 214.876 17.3909 215.475 16.8537C216.073 16.3165 216.805 15.8465 217.603 15.5779C218.401 15.3093 219.265 15.1079 220.196 15.1079C221.127 15.1079 221.992 15.2422 222.79 15.5779C223.588 15.8465 224.32 16.3165 224.918 16.8537C225.517 17.3909 225.982 18.0623 226.315 18.8681C226.647 19.6739 226.847 20.5468 226.847 21.4868C226.847 22.4269 226.647 23.2998 226.315 24.1055C225.982 24.9113 225.517 25.5827 224.918 26.1199C224.32 26.6571 223.588 27.1271 222.79 27.3957C221.992 27.6643 221.127 27.8657 220.196 27.8657C219.265 27.8657 218.401 27.7314 217.603 27.3957C216.805 27.1271 216.073 26.6571 215.475 26.1199C214.876 25.5827 214.41 24.9113 214.078 24.1055C213.745 23.3669 213.546 22.494 213.546 21.4868ZM217.27 21.4868C217.27 22.4269 217.536 23.1655 218.068 23.7026C218.6 24.2398 219.332 24.5755 220.263 24.5755C221.194 24.5755 221.925 24.3069 222.457 23.7026C222.99 23.1655 223.256 22.3597 223.256 21.4868C223.256 20.5468 222.99 19.8081 222.457 19.271C221.925 18.7338 221.194 18.3981 220.263 18.3981C219.332 18.3981 218.6 18.6667 218.068 19.271C217.536 19.8081 217.27 20.5468 217.27 21.4868Z" fill="white"/>
<path d="M235.093 19.0023C234.561 18.3308 233.829 17.9951 232.965 17.9951C232.632 17.9951 232.366 18.0622 232.034 18.1965C231.768 18.3308 231.568 18.5994 231.568 19.0023C231.568 19.2708 231.701 19.5394 232.034 19.6737C232.366 19.808 232.699 19.9423 233.231 20.0766C233.696 20.2109 234.228 20.278 234.761 20.4123C235.293 20.5466 235.825 20.7481 236.29 21.0167C236.756 21.2852 237.155 21.621 237.487 22.091C237.82 22.561 237.953 23.1653 237.953 23.9039C237.953 24.7097 237.753 25.314 237.421 25.8512C237.088 26.3884 236.623 26.7912 236.091 27.0598C235.559 27.3955 234.96 27.597 234.295 27.7313C233.63 27.8656 232.965 27.9327 232.366 27.9327C231.502 27.9327 230.704 27.7984 229.839 27.597C228.975 27.3284 228.243 26.9255 227.645 26.3212L229.906 23.7697C230.238 24.1725 230.637 24.5083 231.036 24.7768C231.435 24.9783 231.967 25.1126 232.499 25.1126C232.898 25.1126 233.297 25.0454 233.696 24.9111C234.029 24.7768 234.229 24.5754 234.229 24.2397C234.229 23.9039 234.095 23.7025 233.763 23.5011C233.43 23.3668 233.098 23.2325 232.566 23.0982C232.1 22.9639 231.568 22.8967 231.036 22.7625C230.504 22.6282 229.972 22.4267 229.507 22.2253C229.041 21.9567 228.642 21.621 228.31 21.1509C227.977 20.6809 227.844 20.0766 227.844 19.338C227.844 18.5994 227.977 17.9951 228.31 17.4579C228.576 16.9207 228.975 16.5179 229.44 16.1821C229.906 15.8464 230.438 15.5778 231.036 15.4435C231.635 15.3092 232.3 15.1749 232.898 15.1749C233.696 15.1749 234.495 15.3092 235.293 15.5107C236.091 15.7121 236.822 16.1821 237.354 16.7864L235.093 19.0023Z" fill="white"/>
<path d="M10.7072 0C8.9116 0 7.11598 0.268585 5.51987 0.738609L8.31306 3.55875L0 27.8657H9.11111L16.2936 16.7866C17.6237 14.8393 17.4907 12.8921 16.4931 11.7506L8.31306 3.55875C8.57907 3.55875 8.9116 3.55875 9.17762 3.55875C17.0251 3.55875 23.4096 10.0048 23.4096 17.9281C23.4096 21.8225 21.88 25.3141 19.4193 27.8657H27.9984C29.262 25.3141 29.927 22.494 29.927 19.4724C29.927 8.72902 21.3479 0 10.7072 0Z" fill="#EA0029"/>
<path d="M32.2546 26.5227C32.2546 26.9256 32.1216 27.2614 31.8556 27.5299C31.5896 27.7985 31.257 27.9328 30.858 27.9328C30.459 27.9328 30.1265 27.7985 29.8605 27.5299C29.5944 27.2614 29.4614 26.9256 29.4614 26.5227C29.4614 26.1199 29.5944 25.7841 29.8605 25.5155C30.1265 25.247 30.459 25.1127 30.858 25.1127C31.257 25.1127 31.5896 25.247 31.8556 25.5155C32.1881 25.7841 32.2546 26.1199 32.2546 26.5227ZM29.8605 26.5227C29.8605 26.8585 29.927 27.1271 30.1265 27.3285C30.326 27.5299 30.592 27.6642 30.858 27.6642C31.1905 27.6642 31.3901 27.5299 31.5896 27.3285C31.7891 27.1271 31.9221 26.8585 31.9221 26.5227C31.9221 26.187 31.8556 25.9184 31.6561 25.717C31.4566 25.5155 31.1905 25.3813 30.9245 25.3813C30.592 25.3813 30.3925 25.5155 30.193 25.717C29.927 25.9184 29.8605 26.187 29.8605 26.5227ZM30.991 25.717C31.124 25.717 31.257 25.7841 31.3901 25.8513C31.4566 25.9184 31.5231 26.0527 31.5231 26.187C31.5231 26.3884 31.4566 26.5227 31.257 26.5899L31.5896 27.1271H31.1905L30.9245 26.657H30.725V27.1271H30.3925V25.6498H30.991V25.717ZM30.991 26.0527H30.725V26.3884H30.991C31.0575 26.3884 31.0575 26.3884 31.124 26.3213C31.1905 26.3213 31.1905 26.2542 31.1905 26.187C31.1905 26.1199 31.1905 26.1199 31.124 26.0527C31.0575 26.0527 30.991 26.0527 30.991 26.0527Z" fill="#EA0029"/>
<path d="M35.4469 9.26624H41.5653C43.0284 9.26624 44.425 9.40053 45.7551 9.73626C47.0852 10.072 48.2157 10.6092 49.2133 11.3478C50.2109 12.0864 51.0089 13.0264 51.541 14.2351C52.1395 15.4437 52.4055 16.8538 52.4055 18.5996C52.4055 20.0768 52.1395 21.4197 51.541 22.5612C51.0089 23.7027 50.2109 24.6427 49.2798 25.4485C48.3487 26.2542 47.2182 26.7914 45.9546 27.1943C44.691 27.5972 43.4274 27.7986 42.0308 27.7986H35.3804V9.26624H35.4469ZM39.5036 24.1056H41.6318C42.5629 24.1056 43.4274 24.0384 44.2255 23.837C45.0235 23.6355 45.7551 23.2998 46.2871 22.8969C46.8856 22.4269 47.3512 21.8897 47.6837 21.1511C48.0162 20.4125 48.2157 19.5396 48.2157 18.4653C48.2157 17.5252 48.0162 16.7866 47.6837 16.1152C47.3512 15.4437 46.8856 14.9065 46.2871 14.4365C45.6886 13.9665 45.0235 13.6979 44.292 13.4293C43.4939 13.2279 42.6959 13.0936 41.8313 13.0936H39.4371V24.1056H39.5036Z" fill="white"/>
<path d="M61.3838 25.9857C60.9182 26.6571 60.3197 27.1272 59.5881 27.4629C58.8566 27.7315 58.125 27.9329 57.327 27.9329C56.7284 27.9329 56.1964 27.8658 55.5979 27.6643C55.0658 27.53 54.6003 27.2614 54.1348 26.9257C53.7358 26.59 53.4032 26.1871 53.1372 25.7171C52.8712 25.2471 52.8047 24.6427 52.8047 24.0384C52.8047 23.2998 52.9377 22.6955 53.2037 22.1583C53.4697 21.6212 53.8688 21.2183 54.2678 20.8826C54.7333 20.5468 55.2654 20.2782 55.8639 20.0768C56.4624 19.8754 57.061 19.7411 57.726 19.6739C58.3911 19.6068 58.9896 19.5396 59.6546 19.5396C60.3197 19.5396 60.8517 19.5396 61.3838 19.5396C61.3838 18.8682 61.1177 18.2638 60.6522 17.861C60.1867 17.4581 59.5881 17.2567 58.9231 17.2567C58.2581 17.2567 57.726 17.3909 57.194 17.6595C56.6619 17.9281 56.1964 18.331 55.7974 18.801L53.7358 16.6523C54.4673 15.9809 55.3319 15.4437 56.2629 15.108C57.2605 14.7722 58.2581 14.5708 59.2556 14.5708C60.3862 14.5708 61.3173 14.7051 62.0488 14.9737C62.7804 15.2423 63.3789 15.7123 63.8444 16.2495C64.31 16.7866 64.576 17.5252 64.7755 18.331C64.975 19.1367 65.0415 20.0768 65.0415 21.1511V27.9329H61.4503V25.9857H61.3838ZM60.4527 21.9569C60.1867 21.9569 59.7877 21.9569 59.3221 22.024C58.8566 22.024 58.4576 22.1583 58.0585 22.2255C57.6595 22.3598 57.327 22.5612 56.9945 22.7626C56.7284 23.0312 56.5954 23.367 56.5954 23.7698C56.5954 24.2399 56.795 24.5756 57.194 24.8442C57.593 25.0456 57.992 25.1799 58.4576 25.1799C58.8566 25.1799 59.1891 25.1128 59.5881 25.0456C59.9207 24.9113 60.2532 24.777 60.5192 24.5756C60.7852 24.3742 60.9847 24.1056 61.1842 23.837C61.3173 23.5684 61.4503 23.1655 61.4503 22.7626V21.8897H60.4527V21.9569Z" fill="white"/>
<path d="M66.3052 9.26624H70.2289V27.8658H66.3052V9.26624Z" fill="white"/>
<path d="M80.8696 21.2183C80.8696 20.2111 81.0691 19.271 81.4017 18.4653C81.7342 17.6595 82.2662 16.9209 82.8648 16.3837C83.5298 15.7794 84.2614 15.3766 85.1259 15.0408C85.9905 14.7051 86.9215 14.5708 87.8526 14.5708C88.8502 14.5708 89.7147 14.7051 90.5793 15.0408C91.4438 15.3766 92.1754 15.7794 92.8404 16.3837C93.5055 16.9881 93.971 17.6595 94.3035 18.4653C94.636 19.271 94.8356 20.2111 94.8356 21.2183C94.8356 22.2255 94.636 23.1655 94.3035 23.9713C93.971 24.777 93.439 25.5156 92.8404 26.0528C92.1754 26.6571 91.4438 27.06 90.5793 27.3957C89.7147 27.7315 88.7837 27.8658 87.8526 27.8658C86.855 27.8658 85.9905 27.7315 85.1259 27.3957C84.2614 27.06 83.5298 26.6571 82.8648 26.0528C82.1997 25.4485 81.7342 24.777 81.4017 23.9713C81.0691 23.0984 80.8696 22.2255 80.8696 21.2183ZM84.7934 21.2183C84.7934 22.1583 85.0594 22.9641 85.5914 23.5684C86.1235 24.1727 86.9215 24.4413 87.9191 24.4413C88.9167 24.4413 89.6482 24.1727 90.2468 23.5684C90.7788 22.9641 91.0448 22.2255 91.0448 21.2183C91.0448 20.2782 90.7788 19.4725 90.2468 18.8682C89.7147 18.2638 88.9167 17.9953 87.9191 17.9953C86.9215 17.9953 86.19 18.2638 85.5914 18.8682C85.0594 19.4725 84.7934 20.2111 84.7934 21.2183Z" fill="white"/>
<path d="M96.232 15.1079H99.9563V16.8538H100.023C100.156 16.5852 100.289 16.3837 100.555 16.1151C100.754 15.8466 101.02 15.6451 101.353 15.4437C101.685 15.2422 102.018 15.1079 102.417 14.9737C102.816 14.8394 103.282 14.7722 103.747 14.7722C104.745 14.7722 105.543 14.9065 106.141 15.2422C106.74 15.578 107.205 15.9809 107.538 16.518C107.87 17.0552 108.136 17.7267 108.203 18.4653C108.336 19.2039 108.402 20.0096 108.402 20.8825V27.9329H104.479V21.6883C104.479 21.3526 104.479 20.9497 104.412 20.5468C104.412 20.1439 104.279 19.8082 104.146 19.4725C104.013 19.1367 103.814 18.8681 103.548 18.6667C103.282 18.4653 102.882 18.331 102.417 18.331C101.885 18.331 101.486 18.3981 101.22 18.5996C100.887 18.801 100.688 19.0024 100.488 19.3382C100.355 19.6739 100.222 20.0096 100.156 20.3454C100.089 20.7482 100.089 21.1511 100.089 21.554V27.9329H96.1655V15.1079H96.232Z" fill="white"/>
<path d="M76.6796 17.9282V17.5924H80.1379V14.4366H76.6796V13.0936V10.9449H73.6869L72.7559 13.6308L72.4899 14.3694L71.4258 17.5253H72.7559V17.861V19.1368V23.9042C72.7559 24.5756 72.8889 25.18 73.0884 25.7171C73.3544 26.1872 73.6204 26.59 74.086 26.9258C74.485 27.2615 75.017 27.4629 75.5491 27.5972C76.0811 27.7315 76.6796 27.7987 77.3447 27.7987C77.8102 27.7987 78.2757 27.7987 78.7413 27.7315C79.2068 27.6644 79.6723 27.5972 80.0714 27.3958V24.1056C79.8719 24.2399 79.6723 24.3742 79.2733 24.3742C78.9408 24.4413 78.6748 24.4413 78.4753 24.4413C78.0762 24.4413 77.7437 24.3742 77.4777 24.2399C77.2117 24.1056 77.0122 23.9713 76.9457 23.7699C76.8126 23.5684 76.7461 23.2999 76.6796 23.0313C76.6131 22.7627 76.6131 22.427 76.6131 22.0912V19.0025V17.9282H76.6796Z" fill="white"/>
<path d="M269.21 27.6643H238.817L243.14 15.1079H273.533L269.21 27.6643Z" fill="#EA0029"/>
<path d="M243.606 23.2324C243.672 23.0981 243.739 22.9638 243.805 22.8295C243.872 22.6952 244.005 22.561 244.138 22.4938C244.271 22.4267 244.404 22.2924 244.537 22.2924C244.67 22.2252 244.803 22.2252 245.002 22.2252C245.135 22.2252 245.268 22.2252 245.401 22.2924C245.534 22.3595 245.601 22.4267 245.667 22.4938C245.734 22.561 245.734 22.6952 245.8 22.8295C245.8 22.9638 245.8 23.0981 245.734 23.2324C245.667 23.3667 245.601 23.501 245.534 23.6353C245.468 23.7696 245.335 23.9039 245.202 23.971C245.069 24.0382 244.936 24.1725 244.803 24.1725C244.67 24.2396 244.537 24.2396 244.337 24.2396C244.204 24.2396 244.071 24.2396 243.938 24.1725C243.805 24.1053 243.739 24.0382 243.672 23.971C243.606 23.9039 243.606 23.7696 243.539 23.6353C243.539 23.501 243.606 23.3667 243.606 23.2324Z" fill="white"/>
<path d="M251.121 20.4123C251.054 20.278 250.987 20.2109 250.854 20.0766C250.721 20.0095 250.588 19.9423 250.389 19.9423C249.923 19.9423 249.591 20.0766 249.258 20.3452C248.926 20.6138 248.66 20.9495 248.527 21.3524C248.394 21.7553 248.394 22.1581 248.527 22.3596C248.66 22.6282 248.992 22.7625 249.391 22.7625C249.591 22.7625 249.79 22.6953 249.923 22.6282C250.123 22.561 250.256 22.4267 250.389 22.2924L251.121 23.5011C250.721 23.7697 250.389 23.9711 249.99 24.1054C249.591 24.2397 249.192 24.3068 248.859 24.3068C248.394 24.3068 248.061 24.2397 247.729 24.1054C247.396 23.9711 247.13 23.7697 246.931 23.5011C246.731 23.2325 246.598 22.8968 246.598 22.561C246.532 22.2253 246.598 21.7553 246.798 21.3524C246.931 20.8824 247.197 20.4795 247.463 20.1438C247.729 19.808 248.061 19.4723 248.46 19.2037C248.859 18.9351 249.258 18.7337 249.657 18.5994C250.056 18.4651 250.522 18.3979 250.921 18.3979C251.253 18.3979 251.586 18.4651 251.919 18.5994C252.251 18.7337 252.517 18.9351 252.65 19.2037L251.121 20.4123Z" fill="white"/>
<path d="M251.785 21.4196C251.918 20.9496 252.184 20.5467 252.451 20.211C252.717 19.8753 253.049 19.5396 253.448 19.271C253.847 19.0024 254.246 18.8009 254.645 18.6666C255.044 18.5324 255.51 18.4652 255.909 18.4652C256.308 18.4652 256.707 18.5324 257.039 18.6666C257.372 18.8009 257.638 19.0024 257.837 19.271C258.037 19.5396 258.17 19.8753 258.17 20.211C258.236 20.5467 258.17 21.0168 257.97 21.4196C257.837 21.8897 257.571 22.2926 257.305 22.6283C257.039 22.964 256.707 23.2997 256.308 23.5683C255.909 23.8369 255.51 24.0384 255.111 24.1726C254.712 24.3069 254.246 24.3741 253.847 24.3741C253.382 24.3741 253.049 24.3069 252.717 24.1726C252.384 24.0384 252.118 23.8369 251.918 23.5683C251.719 23.2997 251.586 22.964 251.586 22.6283C251.586 22.2254 251.586 21.8225 251.785 21.4196ZM253.515 21.4196C253.382 21.8225 253.382 22.2254 253.515 22.4268C253.648 22.6954 253.98 22.8297 254.379 22.8297C254.845 22.8297 255.177 22.6954 255.51 22.4268C255.842 22.1583 256.108 21.8225 256.241 21.4196C256.374 21.0168 256.374 20.6139 256.241 20.4125C256.108 20.1439 255.776 20.0096 255.377 20.0096C254.911 20.0096 254.579 20.1439 254.246 20.4125C253.914 20.6139 253.648 20.9496 253.515 21.4196Z" fill="white"/>
<path d="M259.5 18.5322H261.163L260.897 19.2709C260.963 19.1366 261.096 19.0694 261.229 18.9351C261.362 18.8008 261.495 18.7337 261.695 18.6665C261.894 18.5994 262.027 18.5322 262.227 18.4651C262.426 18.3979 262.626 18.3979 262.826 18.3979C263.225 18.3979 263.557 18.4651 263.757 18.6665C264.023 18.8008 264.156 19.0694 264.156 19.4051C264.488 19.0694 264.821 18.8008 265.153 18.5994C265.486 18.4651 265.885 18.3979 266.284 18.3979C266.683 18.3979 266.949 18.4651 267.148 18.5994C267.348 18.7337 267.481 18.9351 267.614 19.1366C267.68 19.338 267.68 19.6066 267.68 19.9423C267.614 20.2109 267.547 20.5466 267.481 20.8824L266.35 24.2397H264.688L265.818 20.9495C265.885 20.6809 265.951 20.4795 265.885 20.278C265.818 20.0766 265.685 20.0095 265.419 20.0095C265.22 20.0095 265.02 20.0095 264.887 20.0766C264.754 20.1438 264.621 20.2109 264.488 20.3452C264.355 20.4795 264.289 20.6138 264.156 20.7481C264.089 20.8824 264.023 21.0838 263.956 21.2181L262.959 24.2397H261.229L262.227 21.2181C262.293 21.0838 262.293 21.0167 262.36 20.8152C262.427 20.6809 262.427 20.5466 262.427 20.4123C262.427 20.278 262.36 20.1438 262.293 20.0766C262.227 20.0095 262.094 19.9423 261.894 19.9423C261.695 19.9423 261.495 20.0095 261.296 20.0766C261.096 20.1438 260.963 20.278 260.897 20.4123C260.764 20.5466 260.697 20.6809 260.564 20.8824C260.498 21.0838 260.431 21.2181 260.365 21.4195L259.367 24.2397H257.638L259.5 18.5322Z" fill="white"/>
</svg>
