<svg width="367" height="37" viewBox="0 0 367 37" fill="none" xmlns="http://www.w3.org/2000/svg">
<path d="M158.12 18.5444C157.681 18.012 157.154 17.6571 156.452 17.3909C155.749 17.1247 155.047 17.036 154.432 17.036C154.081 17.036 153.642 17.1247 153.291 17.1247C152.94 17.2134 152.501 17.3909 152.15 17.5684C151.798 17.7458 151.535 18.012 151.272 18.2782C151.096 18.5444 150.92 18.988 150.92 19.4317C150.92 20.1415 151.184 20.6739 151.711 21.0288C152.237 21.3837 152.852 21.7386 153.73 22.0048C154.52 22.271 155.398 22.5372 156.276 22.8034C157.154 23.0696 158.032 23.4245 158.822 23.9568C159.612 24.4005 160.315 25.1103 160.841 25.9089C161.368 26.7074 161.631 27.8609 161.631 29.1919C161.631 30.5228 161.368 31.5875 160.929 32.5636C160.49 33.5396 159.788 34.3381 158.998 34.9592C158.207 35.5803 157.242 36.1127 156.188 36.3789C155.135 36.6451 153.993 36.8225 152.764 36.8225C151.272 36.8225 149.867 36.5564 148.55 36.1127C147.233 35.6691 146.092 34.8705 144.95 33.8945L148.55 29.813C149.077 30.5228 149.691 31.0552 150.569 31.4101C151.359 31.765 152.15 32.0312 153.027 32.0312C153.466 32.0312 153.905 31.9425 154.257 31.8537C154.696 31.765 155.047 31.5875 155.398 31.4101C155.749 31.2326 156.013 30.9664 156.188 30.6115C156.364 30.3453 156.539 29.9017 156.539 29.5468C156.539 28.8369 156.276 28.3046 155.749 27.8609C155.222 27.4173 154.52 27.0624 153.73 26.7962C152.94 26.53 152.062 26.2638 151.096 25.9089C150.13 25.6427 149.252 25.199 148.462 24.7554C147.672 24.3118 146.97 23.6019 146.443 22.8034C145.916 22.0048 145.653 20.9401 145.653 19.6979C145.653 18.4556 145.916 17.3022 146.355 16.4149C146.882 15.4389 147.496 14.6403 148.287 14.0192C149.077 13.3981 150.042 12.8657 151.096 12.5995C152.15 12.2446 153.291 12.1559 154.432 12.1559C155.749 12.1559 156.978 12.3333 158.207 12.6883C159.437 13.0432 160.49 13.6643 161.544 14.5516L158.12 18.5444Z" fill="#232221"/>
<path d="M178.576 33.6282C177.786 34.6043 176.82 35.4028 175.591 35.9352C174.362 36.4676 173.133 36.7338 171.816 36.7338C170.587 36.7338 169.445 36.5563 168.392 36.1127C167.338 35.7577 166.372 35.1366 165.582 34.4268C164.792 33.717 164.178 32.8297 163.739 31.7649C163.3 30.7002 163.036 29.5467 163.036 28.3045C163.036 27.0623 163.3 25.9088 163.739 24.8441C164.178 23.7793 164.792 22.892 165.582 22.1822C166.372 21.4724 167.338 20.8513 168.392 20.4963C169.445 20.1414 170.587 19.8752 171.816 19.8752C172.957 19.8752 174.011 20.0527 174.889 20.4963C175.854 20.8513 176.644 21.4724 177.259 22.1822C177.874 22.892 178.4 23.7793 178.752 24.8441C179.103 25.9088 179.278 27.0623 179.278 28.3045V29.9016H167.865C168.041 30.8776 168.48 31.5875 169.182 32.2086C169.796 32.7409 170.674 33.0959 171.64 33.0959C172.43 33.0959 173.133 32.9184 173.659 32.5635C174.186 32.2086 174.713 31.7649 175.152 31.1438L178.576 33.6282ZM174.362 26.6186C174.362 25.8201 174.098 25.0215 173.572 24.4892C173.045 23.8681 172.255 23.6019 171.377 23.6019C170.85 23.6019 170.323 23.6906 169.972 23.868C169.533 24.0455 169.182 24.3117 168.918 24.5779C168.655 24.8441 168.392 25.199 168.216 25.5539C168.041 25.9088 167.953 26.2637 167.953 26.7074H174.362V26.6186Z" fill="#232221"/>
<path d="M180.946 20.7626H185.687V22.9809H185.775C185.951 22.7147 186.126 22.3598 186.39 22.0936C186.653 21.8274 187.004 21.4725 187.443 21.295C187.795 21.0288 188.321 20.8514 188.76 20.6739C189.287 20.4964 189.814 20.4077 190.428 20.4077C191.57 20.4077 192.535 20.6739 193.413 21.1175C194.291 21.5612 194.906 22.271 195.345 23.3358C195.872 22.271 196.574 21.5612 197.364 21.1175C198.154 20.6739 199.208 20.4964 200.349 20.4964C201.403 20.4964 202.281 20.6739 203.071 21.0288C203.773 21.3837 204.388 21.9161 204.827 22.5372C205.266 23.1583 205.529 23.8681 205.705 24.7554C205.88 25.6427 205.968 26.53 205.968 27.506V37H201.052V27.506C201.052 26.7962 200.876 26.0864 200.613 25.554C200.261 25.0216 199.735 24.7554 198.945 24.7554C198.418 24.7554 197.891 24.8442 197.54 25.0216C197.189 25.1991 196.837 25.4653 196.662 25.8202C196.398 26.1751 196.311 26.53 196.135 26.9737C196.047 27.4173 195.959 27.861 195.959 28.3933V36.9113H191.043V28.3933C191.043 28.1271 191.043 27.7722 191.043 27.3286C191.043 26.8849 190.955 26.53 190.78 26.1751C190.692 25.8202 190.428 25.4653 190.165 25.1991C189.902 24.9329 189.463 24.8442 188.848 24.8442C188.233 24.8442 187.707 24.9329 187.268 25.1991C186.829 25.4653 186.565 25.7315 186.39 26.0864C186.214 26.4413 186.039 26.8849 185.951 27.4173C185.863 27.861 185.863 28.3933 185.863 28.9257V36.9113H180.946V20.7626Z" fill="#232221"/>
<path d="M207.285 15.0839C207.285 14.2854 207.548 13.5755 208.163 13.0432C208.69 12.5108 209.392 12.1559 210.182 12.1559C210.972 12.1559 211.675 12.4221 212.202 13.0432C212.728 13.5755 213.08 14.2854 213.08 15.0839C213.08 15.8825 212.816 16.5923 212.202 17.1247C211.675 17.6571 210.972 18.012 210.182 18.012C209.392 18.012 208.69 17.7458 208.163 17.1247C207.548 16.5923 207.285 15.8825 207.285 15.0839ZM207.636 20.7626H212.553V36.8225H207.636V20.7626Z" fill="#232221"/>
<path d="M214.484 20.7626H219.225V22.9809H219.313C219.489 22.7147 219.664 22.3598 219.928 22.0936C220.191 21.8274 220.542 21.4725 220.981 21.295C221.332 21.0288 221.859 20.8514 222.298 20.6739C222.825 20.4964 223.352 20.4077 223.966 20.4077C225.195 20.4077 226.249 20.5852 226.951 21.0288C227.741 21.3837 228.268 21.9161 228.707 22.6259C229.146 23.3358 229.41 24.1343 229.585 25.0216C229.761 25.9089 229.849 26.9737 229.849 28.0384V36.9113H224.932V29.0144C224.932 28.5708 224.932 28.0384 224.844 27.5948C224.844 27.0624 224.756 26.6187 224.581 26.2638C224.405 25.8202 224.142 25.4653 223.791 25.1991C223.439 24.9329 223.001 24.8442 222.298 24.8442C221.596 24.8442 221.157 24.9329 220.718 25.1991C220.279 25.4653 220.015 25.7315 219.84 26.0864C219.664 26.4413 219.489 26.8849 219.401 27.4173C219.313 27.861 219.313 28.3933 219.313 28.9257V36.9113H214.397V20.7626H214.484Z" fill="#232221"/>
<path d="M247.056 36.8226H242.315V34.2494H242.228C242.052 34.5156 241.789 34.8705 241.525 35.1367C241.262 35.4029 240.911 35.7578 240.56 35.9353C240.208 36.2015 239.682 36.3789 239.243 36.5564C238.716 36.7339 238.189 36.8226 237.575 36.8226C236.345 36.8226 235.292 36.6451 234.502 36.2015C233.712 35.8466 233.097 35.3142 232.658 34.6044C232.219 33.8945 231.956 33.096 231.78 32.2087C231.604 31.3214 231.604 30.2566 231.604 29.1919V20.4077H236.521V28.3046C236.521 28.7482 236.521 29.2806 236.609 29.7243C236.609 30.2566 236.697 30.7003 236.872 31.0552C237.048 31.4988 237.311 31.8538 237.662 32.1199C238.014 32.3861 238.452 32.4749 239.155 32.4749C239.769 32.4749 240.296 32.3861 240.735 32.1199C241.174 31.8538 241.438 31.5876 241.613 31.2327C241.789 30.8777 241.964 30.4341 242.052 29.9017C242.14 29.3693 242.14 28.9257 242.14 28.3933V20.4077H247.056V36.8226Z" fill="#232221"/>
<path d="M264.176 33.6282C263.386 34.6043 262.421 35.4028 261.191 35.9352C259.962 36.4676 258.733 36.7338 257.416 36.7338C256.187 36.7338 255.046 36.5563 253.992 36.1127C252.939 35.7577 251.973 35.1366 251.183 34.4268C250.393 33.717 249.778 32.8297 249.339 31.7649C248.9 30.7002 248.637 29.5467 248.637 28.3045C248.637 27.0623 248.9 25.9088 249.339 24.8441C249.778 23.7793 250.393 22.892 251.183 22.1822C251.973 21.4724 252.939 20.8513 253.992 20.4963C255.046 20.1414 256.187 19.8752 257.416 19.8752C258.558 19.8752 259.611 20.0527 260.489 20.4963C261.455 20.8513 262.245 21.4724 262.86 22.1822C263.474 22.892 264.001 23.7793 264.352 24.8441C264.703 25.9088 264.879 27.0623 264.879 28.3045V29.9016H253.465C253.641 30.8776 254.08 31.5875 254.782 32.2086C255.397 32.7409 256.275 33.0959 257.241 33.0959C258.031 33.0959 258.733 32.9184 259.26 32.5635C259.787 32.2086 260.313 31.7649 260.752 31.1438L264.176 33.6282ZM260.05 26.6186C260.05 25.8201 259.787 25.0215 259.26 24.4892C258.733 23.8681 257.943 23.6019 257.065 23.6019C256.538 23.6019 256.012 23.6906 255.66 23.868C255.221 24.0455 254.87 24.3117 254.607 24.5779C254.343 24.8441 254.08 25.199 253.904 25.5539C253.729 25.9088 253.641 26.2637 253.641 26.7074H260.05V26.6186Z" fill="#232221"/>
<path d="M264.44 20.7626H269.708L273.746 31.6762H273.834L277.609 20.7626H282.526L276.205 36.8225H271.025L264.44 20.7626Z" fill="#232221"/>
<path d="M281.911 28.3934C281.911 27.1512 282.175 25.9977 282.614 24.9329C283.053 23.8682 283.667 22.9809 284.457 22.2711C285.247 21.5612 286.213 20.9401 287.267 20.5852C288.32 20.2303 289.462 19.9641 290.691 19.9641C291.92 19.9641 293.061 20.1416 294.115 20.5852C295.168 20.9401 296.134 21.5612 296.924 22.2711C297.714 22.9809 298.329 23.8682 298.768 24.9329C299.207 25.9977 299.47 27.1512 299.47 28.3934C299.47 29.6356 299.207 30.789 298.768 31.8538C298.329 32.9185 297.714 33.8058 296.924 34.5157C296.134 35.2255 295.168 35.8466 294.115 36.2015C293.061 36.5564 291.92 36.8226 290.691 36.8226C289.462 36.8226 288.32 36.6452 287.267 36.2015C286.213 35.8466 285.247 35.2255 284.457 34.5157C283.667 33.8058 283.053 32.9185 282.614 31.8538C282.175 30.8778 281.911 29.7243 281.911 28.3934ZM286.828 28.3934C286.828 29.6356 287.179 30.6116 287.881 31.3214C288.584 32.0313 289.549 32.4749 290.779 32.4749C292.008 32.4749 292.973 32.12 293.676 31.3214C294.378 30.6116 294.729 29.5468 294.729 28.3934C294.729 27.1512 294.378 26.1751 293.676 25.4653C292.973 24.7555 292.008 24.3118 290.779 24.3118C289.549 24.3118 288.584 24.6667 287.881 25.4653C287.179 26.1751 286.828 27.1512 286.828 28.3934Z" fill="#232221"/>
<path d="M310.357 25.1103C309.655 24.223 308.689 23.7794 307.547 23.7794C307.108 23.7794 306.757 23.8681 306.318 24.0455C305.967 24.223 305.704 24.5779 305.704 25.1103C305.704 25.4652 305.879 25.8201 306.318 25.9976C306.757 26.175 307.196 26.3525 307.899 26.53C308.513 26.7074 309.216 26.7961 309.918 26.9736C310.62 27.1511 311.323 27.4172 311.937 27.7722C312.552 28.1271 313.079 28.5707 313.518 29.1918C313.957 29.8129 314.132 30.6115 314.132 31.5875C314.132 32.6523 313.869 33.4508 313.43 34.1606C312.991 34.8705 312.376 35.4029 311.674 35.7578C310.971 36.2014 310.181 36.4676 309.303 36.6451C308.425 36.8225 307.547 36.9112 306.757 36.9112C305.616 36.9112 304.562 36.7338 303.421 36.4676C302.28 36.1127 301.314 35.5803 300.524 34.7818L303.509 31.4101C303.948 31.9424 304.475 32.3861 305.001 32.741C305.528 33.0072 306.231 33.1846 306.933 33.1846C307.46 33.1846 307.986 33.0959 308.513 32.9184C308.952 32.741 309.216 32.4748 309.216 32.0312C309.216 31.5875 309.04 31.3213 308.601 31.0551C308.162 30.8777 307.723 30.7002 307.021 30.5228C306.406 30.3453 305.704 30.2566 305.001 30.0791C304.299 29.9017 303.597 29.6355 302.982 29.3693C302.368 29.0144 301.841 28.5707 301.402 27.9496C300.963 27.3285 300.787 26.53 300.787 25.5539C300.787 24.5779 300.963 23.7794 301.402 23.0695C301.753 22.3597 302.28 21.8273 302.894 21.3837C303.509 20.94 304.211 20.5851 305.001 20.4077C305.792 20.2302 306.67 20.0527 307.46 20.0527C308.513 20.0527 309.567 20.2302 310.62 20.4964C311.674 20.7626 312.64 21.3837 313.342 22.1822L310.357 25.1103Z" fill="#232221"/>
<path d="M14.1351 0C11.7646 0 9.39411 0.354916 7.28702 0.976019L10.9744 4.70264L0 36.8225H12.028L21.5099 22.1823C23.2658 19.6091 23.0902 17.036 21.7733 15.5276L10.9744 4.70264C11.3256 4.70264 11.7646 4.70264 12.1158 4.70264C22.4756 4.70264 30.904 13.2206 30.904 23.6906C30.904 28.8369 28.8847 33.4508 25.6363 36.8225H36.9619C38.63 33.4508 39.5079 29.7242 39.5079 25.7314C39.5079 11.5348 28.1823 0 14.1351 0Z" fill="#EA0029"/>
<path d="M42.5808 35.0479C42.5808 35.5803 42.4053 36.0239 42.0541 36.3788C41.7029 36.7337 41.2639 36.9112 40.7371 36.9112C40.2104 36.9112 39.7714 36.7337 39.4202 36.3788C39.069 36.0239 38.8934 35.5803 38.8934 35.0479C38.8934 34.5155 39.069 34.0719 39.4202 33.7169C39.7714 33.362 40.2104 33.1846 40.7371 33.1846C41.2639 33.1846 41.7029 33.362 42.0541 33.7169C42.493 34.0719 42.5808 34.5155 42.5808 35.0479ZM39.4202 35.0479C39.4202 35.4915 39.508 35.8464 39.7714 36.1126C40.0348 36.3788 40.386 36.5563 40.7371 36.5563C41.1761 36.5563 41.4395 36.3788 41.7029 36.1126C41.9663 35.8464 42.1419 35.4915 42.1419 35.0479C42.1419 34.6042 42.0541 34.2493 41.7907 33.9831C41.5273 33.7169 41.1761 33.5395 40.8249 33.5395C40.386 33.5395 40.1226 33.7169 39.8592 33.9831C39.508 34.2493 39.4202 34.6042 39.4202 35.0479ZM40.9127 33.9831C41.0883 33.9831 41.2639 34.0719 41.4395 34.1606C41.5273 34.2493 41.6151 34.4268 41.6151 34.6042C41.6151 34.8704 41.5273 35.0479 41.2639 35.1366L41.7029 35.8464H41.1761L40.8249 35.2253H40.5615V35.8464H40.1226V33.8944H40.9127V33.9831ZM40.9127 34.4268H40.5615V34.8704H40.9127C41.0005 34.8704 41.0005 34.8704 41.0883 34.7817C41.1761 34.7817 41.1761 34.693 41.1761 34.6042C41.1761 34.5155 41.1761 34.5155 41.0883 34.4268C41.0005 34.4268 40.9127 34.4268 40.9127 34.4268Z" fill="#EA0029"/>
<path d="M46.7949 12.2446H54.8721C56.8036 12.2446 58.6473 12.4221 60.4032 12.8657C62.1592 13.3094 63.6517 14.0192 64.9686 14.9952C66.2855 15.9712 67.3391 17.2135 68.0414 18.8106C68.8316 20.4077 69.1828 22.271 69.1828 24.578C69.1828 26.53 68.8316 28.3046 68.0414 29.813C67.3391 31.3214 66.2855 32.5636 65.0564 33.6283C63.8273 34.6931 62.3347 35.4029 60.6666 35.9353C58.9985 36.4676 57.3304 36.7338 55.4867 36.7338H46.7072V12.2446H46.7949ZM52.1505 31.8537H54.9599C56.1891 31.8537 57.3304 31.765 58.3839 31.4988C59.4375 31.2326 60.4032 30.789 61.1056 30.2566C61.8958 29.6355 62.5103 28.9257 62.9493 27.9497C63.3883 26.9736 63.6517 25.8202 63.6517 24.4005C63.6517 23.1583 63.3883 22.1823 62.9493 21.295C62.5103 20.4077 61.8958 19.6979 61.1056 19.0768C60.3154 18.4557 59.4375 18.1007 58.4717 17.7458C57.4182 17.4796 56.3647 17.3022 55.2233 17.3022H52.0627V31.8537H52.1505Z" fill="#232221"/>
<path d="M81.0352 34.3381C80.4206 35.2254 79.6305 35.8465 78.6647 36.2901C77.699 36.645 76.7332 36.9112 75.6797 36.9112C74.8895 36.9112 74.1872 36.8225 73.397 36.5563C72.6946 36.3788 72.0801 36.0239 71.4655 35.5803C70.9387 35.1366 70.4998 34.6043 70.1486 33.9832C69.7974 33.3621 69.7096 32.5635 69.7096 31.7649C69.7096 30.7889 69.8852 29.9904 70.2364 29.2805C70.5875 28.5707 71.1143 28.0383 71.6411 27.5947C72.2557 27.151 72.958 26.7961 73.7482 26.5299C74.5383 26.2637 75.3285 26.0863 76.2065 25.9976C77.0844 25.9088 77.8746 25.8201 78.7525 25.8201C79.6305 25.8201 80.3329 25.8201 81.0352 25.8201C81.0352 24.9328 80.684 24.1342 80.0695 23.6019C79.4549 23.0695 78.6647 22.8033 77.7868 22.8033C76.9088 22.8033 76.2065 22.9808 75.5041 23.3357C74.8017 23.6906 74.1872 24.223 73.6604 24.8441L70.9387 22.0047C71.9045 21.1175 73.0458 20.4076 74.275 19.964C75.5919 19.5203 76.9088 19.2542 78.2258 19.2542C79.7183 19.2542 80.9474 19.4316 81.9132 19.7865C82.8789 20.1414 83.6691 20.7625 84.2836 21.4724C84.8982 22.1822 85.2494 23.1582 85.5128 24.223C85.7762 25.2877 85.864 26.5299 85.864 27.9496V36.9112H81.123V34.3381H81.0352ZM79.8061 29.0143C79.4549 29.0143 78.9281 29.0143 78.3135 29.1031C77.699 29.1031 77.1722 29.2805 76.6454 29.3693C76.1187 29.5467 75.6797 29.8129 75.2407 30.0791C74.8895 30.434 74.7139 30.8777 74.7139 31.41C74.7139 32.0311 74.9773 32.4748 75.5041 32.8297C76.0309 33.0959 76.5576 33.2733 77.1722 33.2733C77.699 33.2733 78.138 33.1846 78.6647 33.0959C79.1037 32.9184 79.5427 32.741 79.8939 32.4748C80.2451 32.2086 80.5084 31.8537 80.7718 31.4988C80.9474 31.1438 81.123 30.6115 81.123 30.0791V28.9256H79.8061V29.0143Z" fill="#232221"/>
<path d="M87.5321 12.2446H92.712V36.8226H87.5321V12.2446Z" fill="#232221"/>
<path d="M106.759 28.0383C106.759 26.7074 107.023 25.4652 107.462 24.4004C107.901 23.3357 108.603 22.3597 109.393 21.6498C110.271 20.8513 111.237 20.3189 112.378 19.8753C113.52 19.4316 114.749 19.2542 115.978 19.2542C117.295 19.2542 118.436 19.4316 119.577 19.8753C120.719 20.3189 121.685 20.8513 122.562 21.6498C123.44 22.4484 124.055 23.3357 124.494 24.4004C124.933 25.4652 125.196 26.7074 125.196 28.0383C125.196 29.3693 124.933 30.6115 124.494 31.6762C124.055 32.741 123.353 33.717 122.562 34.4268C121.685 35.2254 120.719 35.7577 119.577 36.2014C118.436 36.645 117.207 36.8225 115.978 36.8225C114.661 36.8225 113.52 36.645 112.378 36.2014C111.237 35.7577 110.271 35.2254 109.393 34.4268C108.515 33.6282 107.901 32.741 107.462 31.6762C107.023 30.5227 106.759 29.3693 106.759 28.0383ZM111.939 28.0383C111.939 29.2805 112.29 30.3453 112.993 31.1438C113.695 31.9424 114.749 32.2973 116.066 32.2973C117.383 32.2973 118.348 31.9424 119.138 31.1438C119.841 30.3453 120.192 29.3693 120.192 28.0383C120.192 26.7961 119.841 25.7314 119.138 24.9328C118.436 24.1342 117.383 23.7793 116.066 23.7793C114.749 23.7793 113.783 24.1342 112.993 24.9328C112.29 25.7314 111.939 26.7074 111.939 28.0383Z" fill="#232221"/>
<path d="M127.04 19.964H131.957V22.271H132.044C132.22 21.9161 132.396 21.6499 132.747 21.295C133.01 20.9401 133.361 20.6739 133.8 20.4077C134.239 20.1415 134.678 19.964 135.205 19.7866C135.732 19.6091 136.346 19.5204 136.961 19.5204C138.278 19.5204 139.331 19.6978 140.122 20.1415C140.912 20.5851 141.526 21.1175 141.965 21.8273C142.404 22.5372 142.755 23.4245 142.843 24.4005C143.019 25.3765 143.107 26.4413 143.107 27.5947V36.9113H137.927V28.6595C137.927 28.2158 137.927 27.6835 137.839 27.1511C137.839 26.6187 137.663 26.1751 137.488 25.7314C137.312 25.2878 137.049 24.9329 136.698 24.6667C136.346 24.4005 135.82 24.223 135.205 24.223C134.503 24.223 133.976 24.3118 133.625 24.5779C133.186 24.8441 132.922 25.1103 132.659 25.554C132.483 25.9976 132.308 26.4412 132.22 26.8849C132.132 27.4173 132.132 27.9496 132.132 28.482V36.9113H126.952V19.964H127.04Z" fill="#232221"/>
<path d="M101.228 23.6907V23.2471H105.793V19.0768H101.228V17.3022V14.4629H97.2773L96.0481 18.0121L95.697 18.9881L94.2922 23.1583H96.0481V23.602V25.2878V31.5876C96.0481 32.4749 96.2237 33.2734 96.4871 33.9833C96.8383 34.6044 97.1895 35.1368 97.8041 35.5804C98.3308 36.024 99.0332 36.2902 99.7356 36.4677C100.438 36.6451 101.228 36.7339 102.106 36.7339C102.721 36.7339 103.335 36.7339 103.95 36.6451C104.564 36.5564 105.179 36.4677 105.706 36.2015V31.8538C105.442 32.0312 105.179 32.2087 104.652 32.2087C104.213 32.2974 103.862 32.2974 103.599 32.2974C103.072 32.2974 102.633 32.2087 102.282 32.0312C101.93 31.8538 101.667 31.6763 101.579 31.4101C101.404 31.1439 101.316 30.789 101.228 30.4341C101.14 30.0792 101.14 29.6356 101.14 29.1919V25.1104V23.6907H101.228Z" fill="#232221"/>
<path d="M355.396 36.5563H315.273L320.98 19.964H361.103L355.396 36.5563Z" fill="#EA0029"/>
<path d="M321.595 30.7001C321.682 30.5226 321.77 30.3452 321.858 30.1677C321.946 29.9902 322.121 29.8128 322.297 29.7241C322.473 29.6353 322.648 29.4579 322.824 29.4579C322.999 29.3691 323.175 29.3691 323.438 29.3691C323.614 29.3691 323.79 29.3691 323.965 29.4579C324.141 29.5466 324.229 29.6353 324.316 29.7241C324.404 29.8128 324.404 29.9902 324.492 30.1677C324.492 30.3452 324.492 30.5226 324.404 30.7001C324.316 30.8775 324.229 31.055 324.141 31.2325C324.053 31.4099 323.877 31.5874 323.702 31.6761C323.526 31.7648 323.351 31.9423 323.175 31.9423C322.999 32.031 322.824 32.031 322.56 32.031C322.385 32.031 322.209 32.031 322.034 31.9423C321.858 31.8536 321.77 31.7648 321.682 31.6761C321.595 31.5874 321.595 31.4099 321.507 31.2325C321.507 31.055 321.595 30.8775 321.595 30.7001Z" fill="white"/>
<path d="M331.516 26.9735C331.428 26.7961 331.34 26.7073 331.164 26.5299C330.989 26.4411 330.813 26.3524 330.55 26.3524C329.935 26.3524 329.496 26.5299 329.057 26.8848C328.618 27.2397 328.267 27.6833 328.092 28.2157C327.916 28.7481 327.916 29.2805 328.092 29.5467C328.267 29.9016 328.706 30.079 329.233 30.079C329.496 30.079 329.76 29.9903 329.935 29.9016C330.199 29.8128 330.374 29.6354 330.55 29.4579L331.516 31.0551C330.989 31.41 330.55 31.6762 330.023 31.8536C329.496 32.0311 328.97 32.1198 328.531 32.1198C327.916 32.1198 327.477 32.0311 327.038 31.8536C326.599 31.6762 326.248 31.41 325.984 31.0551C325.721 30.7001 325.545 30.2565 325.545 29.8128C325.458 29.3692 325.546 28.7481 325.809 28.2157C325.984 27.5946 326.336 27.0622 326.687 26.6186C327.038 26.175 327.477 25.7313 328.004 25.3764C328.531 25.0215 329.057 24.7553 329.584 24.5778C330.111 24.4004 330.725 24.3116 331.252 24.3116C331.691 24.3116 332.13 24.4004 332.569 24.5778C333.008 24.7553 333.359 25.0215 333.535 25.3764L331.516 26.9735Z" fill="white"/>
<path d="M332.394 28.3046C332.569 27.6835 332.92 27.1511 333.271 26.7075C333.623 26.2638 334.062 25.8202 334.588 25.4653C335.115 25.1103 335.642 24.8442 336.169 24.6667C336.696 24.4892 337.31 24.4005 337.837 24.4005C338.364 24.4005 338.89 24.4892 339.329 24.6667C339.768 24.8442 340.12 25.1103 340.383 25.4653C340.646 25.8202 340.822 26.2638 340.822 26.7075C340.91 27.1511 340.822 27.7722 340.559 28.3046C340.383 28.9257 340.032 29.4581 339.681 29.9017C339.329 30.3454 338.89 30.789 338.364 31.1439C337.837 31.4988 337.31 31.765 336.783 31.9425C336.257 32.1199 335.642 32.2087 335.115 32.2087C334.501 32.2087 334.062 32.1199 333.623 31.9425C333.184 31.765 332.832 31.4988 332.569 31.1439C332.306 30.789 332.13 30.3454 332.13 29.9017C332.13 29.3693 332.13 28.837 332.394 28.3046ZM334.676 28.3046C334.501 28.837 334.501 29.3693 334.676 29.6355C334.852 29.9904 335.291 30.1679 335.818 30.1679C336.432 30.1679 336.871 29.9904 337.31 29.6355C337.749 29.2806 338.1 28.837 338.276 28.3046C338.451 27.7722 338.451 27.2398 338.276 26.9737C338.1 26.6187 337.661 26.4413 337.135 26.4413C336.52 26.4413 336.081 26.6187 335.642 26.9737C335.203 27.2398 334.852 27.6835 334.676 28.3046Z" fill="white"/>
<path d="M342.578 24.4891H344.773L344.421 25.4651C344.509 25.2877 344.685 25.1989 344.86 25.0215C345.036 24.844 345.212 24.7553 345.475 24.6666C345.738 24.5778 345.914 24.4891 346.177 24.4004C346.441 24.3116 346.704 24.3116 346.968 24.3116C347.494 24.3116 347.933 24.4004 348.197 24.6666C348.548 24.844 348.723 25.1989 348.723 25.6426C349.162 25.1989 349.601 24.844 350.04 24.5778C350.479 24.4004 351.006 24.3116 351.533 24.3116C352.06 24.3116 352.411 24.4004 352.674 24.5778C352.938 24.7553 353.113 25.0215 353.289 25.2877C353.377 25.5539 353.377 25.9088 353.377 26.3524C353.289 26.7073 353.201 27.151 353.113 27.5946L351.621 32.0311H349.426L350.918 27.6833C351.006 27.3284 351.094 27.0622 351.006 26.7961C350.918 26.5299 350.743 26.4411 350.392 26.4411C350.128 26.4411 349.865 26.4411 349.689 26.5299C349.514 26.6186 349.338 26.7073 349.162 26.8848C348.987 27.0622 348.899 27.2397 348.723 27.4172C348.636 27.5946 348.548 27.8608 348.46 28.0383L347.143 32.0311H344.86L346.177 28.0383C346.265 27.8608 346.265 27.7721 346.353 27.5059C346.441 27.3284 346.441 27.151 346.441 26.9735C346.441 26.7961 346.353 26.6186 346.265 26.5299C346.177 26.4411 346.002 26.3524 345.738 26.3524C345.475 26.3524 345.212 26.4411 344.948 26.5299C344.685 26.6186 344.509 26.7961 344.421 26.9735C344.246 27.151 344.158 27.3284 343.982 27.5946C343.895 27.8608 343.807 28.0383 343.719 28.3045L342.402 32.0311H340.12L342.578 24.4891Z" fill="white"/>
</svg>
