<svg width="367" height="37" viewBox="0 0 367 37" fill="none" xmlns="http://www.w3.org/2000/svg">
<path d="M158.12 18.5443C157.681 18.0119 157.154 17.657 156.451 17.3908C155.749 17.1246 155.047 17.0359 154.432 17.0359C154.081 17.0359 153.642 17.1246 153.291 17.1246C152.94 17.2133 152.501 17.3908 152.149 17.5682C151.798 17.7457 151.535 18.0119 151.271 18.2781C151.096 18.5443 150.92 18.9879 150.92 19.4315C150.92 20.1414 151.184 20.6737 151.71 21.0287C152.237 21.3836 152.852 21.7385 153.73 22.0047C154.52 22.2709 155.398 22.5371 156.276 22.8032C157.154 23.0694 158.032 23.4243 158.822 23.9567C159.612 24.4004 160.314 25.1102 160.841 25.9088C161.368 26.7073 161.631 27.8608 161.631 29.1917C161.631 30.5227 161.368 31.5874 160.929 32.5634C160.49 33.5395 159.788 34.338 158.997 34.9591C158.207 35.5802 157.242 36.1126 156.188 36.3788C155.134 36.645 153.993 36.8224 152.764 36.8224C151.271 36.8224 149.867 36.5562 148.55 36.1126C147.233 35.6689 146.092 34.8704 144.95 33.8944L148.55 29.8128C149.077 30.5227 149.691 31.055 150.569 31.41C151.359 31.7649 152.149 32.0311 153.027 32.0311C153.466 32.0311 153.905 31.9423 154.257 31.8536C154.695 31.7649 155.047 31.5874 155.398 31.41C155.749 31.2325 156.012 30.9663 156.188 30.6114C156.364 30.3452 156.539 29.9016 156.539 29.5466C156.539 28.8368 156.276 28.3044 155.749 27.8608C155.222 27.4172 154.52 27.0622 153.73 26.796C152.94 26.5299 152.062 26.2637 151.096 25.9088C150.13 25.6426 149.252 25.1989 148.462 24.7553C147.672 24.3116 146.969 23.6018 146.443 22.8032C145.916 22.0047 145.653 20.9399 145.653 19.6977C145.653 18.4555 145.916 17.302 146.355 16.4148C146.882 15.4387 147.496 14.6402 148.286 14.0191C149.077 13.398 150.042 12.8656 151.096 12.5994C152.149 12.2445 153.291 12.1558 154.432 12.1558C155.749 12.1558 156.978 12.3332 158.207 12.6881C159.436 13.0431 160.49 13.6642 161.544 14.5514L158.12 18.5443Z" fill="white"/>
<path d="M178.576 33.6282C177.786 34.6043 176.82 35.4028 175.591 35.9352C174.362 36.4676 173.133 36.7338 171.816 36.7338C170.587 36.7338 169.445 36.5563 168.392 36.1127C167.338 35.7577 166.372 35.1366 165.582 34.4268C164.792 33.717 164.177 32.8297 163.738 31.7649C163.3 30.7002 163.036 29.5467 163.036 28.3045C163.036 27.0623 163.3 25.9088 163.738 24.8441C164.177 23.7793 164.792 22.892 165.582 22.1822C166.372 21.4724 167.338 20.8513 168.392 20.4963C169.445 20.1414 170.587 19.8752 171.816 19.8752C172.957 19.8752 174.011 20.0527 174.889 20.4963C175.854 20.8513 176.644 21.4724 177.259 22.1822C177.874 22.892 178.4 23.7793 178.752 24.8441C179.103 25.9088 179.278 27.0623 179.278 28.3045V29.9016H167.865C168.04 30.8776 168.479 31.5875 169.182 32.2086C169.796 32.7409 170.674 33.0959 171.64 33.0959C172.43 33.0959 173.133 32.9184 173.659 32.5635C174.186 32.2086 174.713 31.7649 175.152 31.1438L178.576 33.6282ZM174.362 26.6186C174.362 25.8201 174.098 25.0215 173.572 24.4892C173.045 23.8681 172.255 23.6019 171.377 23.6019C170.85 23.6019 170.323 23.6906 169.972 23.868C169.533 24.0455 169.182 24.3117 168.918 24.5779C168.655 24.8441 168.392 25.199 168.216 25.5539C168.04 25.9088 167.953 26.2637 167.953 26.7074H174.362V26.6186Z" fill="white"/>
<path d="M180.946 20.7626H185.687V22.9809H185.775C185.951 22.7147 186.126 22.3598 186.39 22.0936C186.653 21.8274 187.004 21.4725 187.443 21.295C187.794 21.0288 188.321 20.8514 188.76 20.6739C189.287 20.4964 189.814 20.4077 190.428 20.4077C191.57 20.4077 192.535 20.6739 193.413 21.1175C194.291 21.5612 194.906 22.271 195.345 23.3358C195.872 22.271 196.574 21.5612 197.364 21.1175C198.154 20.6739 199.208 20.4964 200.349 20.4964C201.403 20.4964 202.281 20.6739 203.071 21.0288C203.773 21.3837 204.388 21.9161 204.827 22.5372C205.266 23.1583 205.529 23.8681 205.705 24.7554C205.88 25.6427 205.968 26.53 205.968 27.506V37H201.051V27.506C201.051 26.7962 200.876 26.0864 200.612 25.554C200.261 25.0216 199.735 24.7554 198.944 24.7554C198.418 24.7554 197.891 24.8442 197.54 25.0216C197.188 25.1991 196.837 25.4653 196.662 25.8202C196.398 26.1751 196.31 26.53 196.135 26.9737C196.047 27.4173 195.959 27.861 195.959 28.3933V36.9113H191.043V28.3933C191.043 28.1271 191.043 27.7722 191.043 27.3286C191.043 26.8849 190.955 26.53 190.779 26.1751C190.692 25.8202 190.428 25.4653 190.165 25.1991C189.901 24.9329 189.462 24.8442 188.848 24.8442C188.233 24.8442 187.707 24.9329 187.268 25.1991C186.829 25.4653 186.565 25.7315 186.39 26.0864C186.214 26.4413 186.038 26.8849 185.951 27.4173C185.863 27.861 185.863 28.3933 185.863 28.9257V36.9113H180.946V20.7626Z" fill="white"/>
<path d="M207.285 15.0838C207.285 14.2853 207.549 13.5754 208.163 13.0431C208.69 12.5107 209.392 12.1558 210.182 12.1558C210.973 12.1558 211.675 12.4219 212.202 13.0431C212.728 13.5754 213.08 14.2853 213.08 15.0838C213.08 15.8824 212.816 16.5922 212.202 17.1246C211.675 17.657 210.973 18.0119 210.182 18.0119C209.392 18.0119 208.69 17.7457 208.163 17.1246C207.549 16.5922 207.285 15.8824 207.285 15.0838ZM207.636 20.7625H212.553V36.8224H207.636V20.7625Z" fill="white"/>
<path d="M214.484 20.7626H219.225V22.9809H219.313C219.489 22.7147 219.664 22.3598 219.928 22.0936C220.191 21.8274 220.542 21.4725 220.981 21.295C221.332 21.0288 221.859 20.8514 222.298 20.6739C222.825 20.4964 223.352 20.4077 223.966 20.4077C225.195 20.4077 226.249 20.5852 226.951 21.0288C227.741 21.3837 228.268 21.9161 228.707 22.6259C229.146 23.3358 229.41 24.1343 229.585 25.0216C229.761 25.9089 229.848 26.9737 229.848 28.0384V36.9113H224.932V29.0144C224.932 28.5708 224.932 28.0384 224.844 27.5948C224.844 27.0624 224.756 26.6187 224.581 26.2638C224.405 25.8202 224.142 25.4653 223.791 25.1991C223.439 24.9329 223 24.8442 222.298 24.8442C221.596 24.8442 221.157 24.9329 220.718 25.1991C220.279 25.4653 220.015 25.7315 219.84 26.0864C219.664 26.4413 219.489 26.8849 219.401 27.4173C219.313 27.861 219.313 28.3933 219.313 28.9257V36.9113H214.396V20.7626H214.484Z" fill="white"/>
<path d="M247.056 36.8226H242.316V34.2494H242.228C242.052 34.5156 241.789 34.8705 241.525 35.1367C241.262 35.4029 240.911 35.7578 240.56 35.9353C240.208 36.2015 239.682 36.3789 239.243 36.5564C238.716 36.7339 238.189 36.8226 237.575 36.8226C236.345 36.8226 235.292 36.6451 234.502 36.2015C233.712 35.8466 233.097 35.3142 232.658 34.6044C232.219 33.8945 231.956 33.096 231.78 32.2087C231.605 31.3214 231.604 30.2566 231.604 29.1919V20.4077H236.521V28.3046C236.521 28.7482 236.521 29.2806 236.609 29.7243C236.609 30.2566 236.697 30.7003 236.872 31.0552C237.048 31.4988 237.311 31.8538 237.662 32.1199C238.014 32.3861 238.453 32.4749 239.155 32.4749C239.769 32.4749 240.296 32.3861 240.735 32.1199C241.174 31.8538 241.438 31.5876 241.613 31.2327C241.789 30.8777 241.964 30.4341 242.052 29.9017C242.14 29.3693 242.14 28.9257 242.14 28.3933V20.4077H247.056V36.8226Z" fill="white"/>
<path d="M264.176 33.6282C263.386 34.6043 262.421 35.4028 261.191 35.9352C259.962 36.4676 258.733 36.7338 257.416 36.7338C256.187 36.7338 255.046 36.5563 253.992 36.1127C252.939 35.7577 251.973 35.1366 251.183 34.4268C250.393 33.717 249.778 32.8297 249.339 31.7649C248.9 30.7002 248.637 29.5467 248.637 28.3045C248.637 27.0623 248.9 25.9088 249.339 24.8441C249.778 23.7793 250.393 22.892 251.183 22.1822C251.973 21.4724 252.939 20.8513 253.992 20.4963C255.046 20.1414 256.187 19.8752 257.416 19.8752C258.558 19.8752 259.611 20.0527 260.489 20.4963C261.455 20.8513 262.245 21.4724 262.86 22.1822C263.474 22.892 264.001 23.7793 264.352 24.8441C264.703 25.9088 264.879 27.0623 264.879 28.3045V29.9016H253.465C253.641 30.8776 254.08 31.5875 254.782 32.2086C255.397 32.7409 256.275 33.0959 257.241 33.0959C258.031 33.0959 258.733 32.9184 259.26 32.5635C259.787 32.2086 260.313 31.7649 260.752 31.1438L264.176 33.6282ZM260.05 26.6186C260.05 25.8201 259.787 25.0215 259.26 24.4892C258.733 23.8681 257.943 23.6019 257.065 23.6019C256.538 23.6019 256.012 23.6906 255.66 23.868C255.221 24.0455 254.87 24.3117 254.607 24.5779C254.343 24.8441 254.08 25.199 253.904 25.5539C253.729 25.9088 253.641 26.2637 253.641 26.7074H260.05V26.6186Z" fill="white"/>
<path d="M264.44 20.7625H269.708L273.746 31.6761H273.834L277.609 20.7625H282.526L276.205 36.8224H271.025L264.44 20.7625Z" fill="white"/>
<path d="M281.911 28.3931C281.911 27.1509 282.175 25.9974 282.613 24.9327C283.052 23.8679 283.667 22.9807 284.457 22.2708C285.247 21.561 286.213 20.9399 287.267 20.585C288.32 20.2301 289.462 19.9639 290.691 19.9639C291.92 19.9639 293.061 20.1413 294.115 20.585C295.168 20.9399 296.134 21.561 296.924 22.2708C297.714 22.9807 298.329 23.8679 298.768 24.9327C299.207 25.9974 299.47 27.1509 299.47 28.3931C299.47 29.6353 299.207 30.7888 298.768 31.8536C298.329 32.9183 297.714 33.8056 296.924 34.5154C296.134 35.2253 295.168 35.8464 294.115 36.2013C293.061 36.5562 291.92 36.8224 290.691 36.8224C289.462 36.8224 288.32 36.6449 287.267 36.2013C286.213 35.8464 285.247 35.2253 284.457 34.5154C283.667 33.8056 283.052 32.9183 282.613 31.8536C282.175 30.8775 281.911 29.7241 281.911 28.3931ZM286.828 28.3931C286.828 29.6353 287.179 30.6113 287.881 31.3212C288.584 32.031 289.549 32.4747 290.778 32.4747C292.008 32.4747 292.973 32.1197 293.676 31.3212C294.378 30.6113 294.729 29.5466 294.729 28.3931C294.729 27.1509 294.378 26.1749 293.676 25.4651C292.973 24.7552 292.008 24.3116 290.778 24.3116C289.549 24.3116 288.584 24.6665 287.881 25.4651C287.179 26.1749 286.828 27.1509 286.828 28.3931Z" fill="white"/>
<path d="M310.357 25.11C309.655 24.2228 308.689 23.7791 307.548 23.7791C307.109 23.7791 306.757 23.8678 306.318 24.0453C305.967 24.2228 305.704 24.5777 305.704 25.11C305.704 25.465 305.879 25.8199 306.318 25.9973C306.757 26.1748 307.196 26.3523 307.899 26.5297C308.513 26.7072 309.216 26.7959 309.918 26.9734C310.62 27.1508 311.323 27.417 311.937 27.7719C312.552 28.1268 313.079 28.5705 313.518 29.1916C313.957 29.8127 314.132 30.6112 314.132 31.5873C314.132 32.652 313.869 33.4506 313.43 34.1604C312.991 34.8702 312.376 35.4026 311.674 35.7575C310.972 36.2012 310.181 36.4674 309.303 36.6448C308.426 36.8223 307.548 36.911 306.757 36.911C305.616 36.911 304.563 36.7335 303.421 36.4674C302.28 36.1124 301.314 35.5801 300.524 34.7815L303.509 31.4098C303.948 31.9422 304.475 32.3858 305.002 32.7407C305.528 33.0069 306.231 33.1844 306.933 33.1844C307.46 33.1844 307.987 33.0957 308.513 32.9182C308.952 32.7407 309.216 32.4746 309.216 32.0309C309.216 31.5873 309.04 31.3211 308.601 31.0549C308.162 30.8774 307.723 30.7 307.021 30.5225C306.406 30.3451 305.704 30.2563 305.002 30.0789C304.299 29.9014 303.597 29.6352 302.982 29.369C302.368 29.0141 301.841 28.5705 301.402 27.9494C300.963 27.3283 300.787 26.5297 300.787 25.5537C300.787 24.5777 300.963 23.7791 301.402 23.0693C301.753 22.3594 302.28 21.8271 302.894 21.3834C303.509 20.9398 304.211 20.5849 305.002 20.4074C305.792 20.2299 306.67 20.0525 307.46 20.0525C308.513 20.0525 309.567 20.2299 310.62 20.4961C311.674 20.7623 312.64 21.3834 313.342 22.182L310.357 25.11Z" fill="white"/>
<path d="M14.1351 0C11.7646 0 9.39411 0.354916 7.28702 0.976019L10.9744 4.70264L0 36.8225H12.028L21.5099 22.1823C23.2658 19.6091 23.0902 17.036 21.7733 15.5276L10.9744 4.70264C11.3256 4.70264 11.7646 4.70264 12.1158 4.70264C22.4756 4.70264 30.904 13.2206 30.904 23.6906C30.904 28.8369 28.8847 33.4508 25.6363 36.8225H36.9619C38.63 33.4508 39.5079 29.7242 39.5079 25.7314C39.5079 11.5348 28.1823 0 14.1351 0Z" fill="#EA0029"/>
<path d="M42.581 35.0479C42.581 35.5803 42.4054 36.0239 42.0542 36.3788C41.703 36.7337 41.264 36.9112 40.7373 36.9112C40.2105 36.9112 39.7715 36.7337 39.4203 36.3788C39.0691 36.0239 38.8936 35.5803 38.8936 35.0479C38.8936 34.5155 39.0691 34.0719 39.4203 33.7169C39.7715 33.362 40.2105 33.1846 40.7373 33.1846C41.264 33.1846 41.703 33.362 42.0542 33.7169C42.4932 34.0719 42.581 34.5155 42.581 35.0479ZM39.4203 35.0479C39.4203 35.4915 39.5081 35.8464 39.7715 36.1126C40.0349 36.3788 40.3861 36.5563 40.7373 36.5563C41.1762 36.5563 41.4396 36.3788 41.703 36.1126C41.9664 35.8464 42.142 35.4915 42.142 35.0479C42.142 34.6042 42.0542 34.2493 41.7908 33.9831C41.5274 33.7169 41.1762 33.5395 40.8251 33.5395C40.3861 33.5395 40.1227 33.7169 39.8593 33.9831C39.5081 34.2493 39.4203 34.6042 39.4203 35.0479ZM40.9128 33.9831C41.0884 33.9831 41.264 34.0719 41.4396 34.1606C41.5274 34.2493 41.6152 34.4268 41.6152 34.6042C41.6152 34.8704 41.5274 35.0479 41.264 35.1366L41.703 35.8464H41.1762L40.8251 35.2253H40.5617V35.8464H40.1227V33.8944H40.9128V33.9831ZM40.9128 34.4268H40.5617V34.8704H40.9128C41.0006 34.8704 41.0006 34.8704 41.0884 34.7817C41.1762 34.7817 41.1762 34.693 41.1762 34.6042C41.1762 34.5155 41.1762 34.5155 41.0884 34.4268C41.0006 34.4268 40.9128 34.4268 40.9128 34.4268Z" fill="#EA0029"/>
<path d="M46.7948 12.2446H54.872C56.8035 12.2446 58.6472 12.4221 60.4031 12.8657C62.159 13.3094 63.6516 14.0192 64.9685 14.9952C66.2854 15.9712 67.339 17.2135 68.0413 18.8106C68.8315 20.4077 69.1827 22.271 69.1827 24.578C69.1827 26.53 68.8315 28.3046 68.0413 29.813C67.339 31.3214 66.2854 32.5636 65.0563 33.6283C63.8271 34.6931 62.3346 35.4029 60.6665 35.9353C58.9984 36.4676 57.3303 36.7338 55.4866 36.7338H46.707V12.2446H46.7948ZM52.1504 31.8537H54.9598C56.1889 31.8537 57.3303 31.765 58.3838 31.4988C59.4374 31.2326 60.4031 30.789 61.1055 30.2566C61.8956 29.6355 62.5102 28.9257 62.9492 27.9497C63.3882 26.9736 63.6516 25.8202 63.6516 24.4005C63.6516 23.1583 63.3882 22.1823 62.9492 21.295C62.5102 20.4077 61.8956 19.6979 61.1055 19.0768C60.3153 18.4557 59.4374 18.1007 58.4716 17.7458C57.4181 17.4796 56.3645 17.3022 55.2232 17.3022H52.0626V31.8537H52.1504Z" fill="white"/>
<path d="M81.0351 34.3381C80.4205 35.2254 79.6304 35.8465 78.6646 36.2901C77.6989 36.645 76.7331 36.9112 75.6796 36.9112C74.8894 36.9112 74.187 36.8225 73.3969 36.5563C72.6945 36.3788 72.08 36.0239 71.4654 35.5803C70.9386 35.1366 70.4996 34.6043 70.1485 33.9832C69.7973 33.3621 69.7095 32.5635 69.7095 31.7649C69.7095 30.7889 69.8851 29.9904 70.2362 29.2805C70.5874 28.5707 71.1142 28.0383 71.641 27.5947C72.2555 27.151 72.9579 26.7961 73.7481 26.5299C74.5382 26.2637 75.3284 26.0863 76.2063 25.9976C77.0843 25.9088 77.8745 25.8201 78.7524 25.8201C79.6304 25.8201 80.3327 25.8201 81.0351 25.8201C81.0351 24.9328 80.6839 24.1342 80.0693 23.6019C79.4548 23.0695 78.6646 22.8033 77.7867 22.8033C76.9087 22.8033 76.2063 22.9808 75.504 23.3357C74.8016 23.6906 74.187 24.223 73.6603 24.8441L70.9386 22.0047C71.9044 21.1175 73.0457 20.4076 74.2748 19.964C75.5918 19.5203 76.9087 19.2542 78.2256 19.2542C79.7182 19.2542 80.9473 19.4316 81.913 19.7865C82.8788 20.1414 83.669 20.7625 84.2835 21.4724C84.8981 22.1822 85.2493 23.1582 85.5127 24.223C85.776 25.2877 85.8638 26.5299 85.8638 27.9496V36.9112H81.1229V34.3381H81.0351ZM79.806 29.0143C79.4548 29.0143 78.928 29.0143 78.3134 29.1031C77.6989 29.1031 77.1721 29.2805 76.6453 29.3693C76.1185 29.5467 75.6796 29.8129 75.2406 30.0791C74.8894 30.434 74.7138 30.8777 74.7138 31.41C74.7138 32.0311 74.9772 32.4748 75.504 32.8297C76.0307 33.0959 76.5575 33.2733 77.1721 33.2733C77.6989 33.2733 78.1378 33.1846 78.6646 33.0959C79.1036 32.9184 79.5426 32.741 79.8937 32.4748C80.2449 32.2086 80.5083 31.8537 80.7717 31.4988C80.9473 31.1438 81.1229 30.6115 81.1229 30.0791V28.9256H79.806V29.0143Z" fill="white"/>
<path d="M87.5317 12.2446H92.7117V36.8226H87.5317V12.2446Z" fill="white"/>
<path d="M106.759 28.0383C106.759 26.7074 107.023 25.4652 107.462 24.4004C107.901 23.3357 108.603 22.3597 109.393 21.6498C110.271 20.8513 111.237 20.3189 112.378 19.8753C113.52 19.4316 114.749 19.2542 115.978 19.2542C117.295 19.2542 118.436 19.4316 119.577 19.8753C120.719 20.3189 121.685 20.8513 122.562 21.6498C123.44 22.4484 124.055 23.3357 124.494 24.4004C124.933 25.4652 125.196 26.7074 125.196 28.0383C125.196 29.3693 124.933 30.6115 124.494 31.6762C124.055 32.741 123.353 33.717 122.562 34.4268C121.685 35.2254 120.719 35.7577 119.577 36.2014C118.436 36.645 117.207 36.8225 115.978 36.8225C114.661 36.8225 113.52 36.645 112.378 36.2014C111.237 35.7577 110.271 35.2254 109.393 34.4268C108.515 33.6282 107.901 32.741 107.462 31.6762C107.023 30.5227 106.759 29.3693 106.759 28.0383ZM111.939 28.0383C111.939 29.2805 112.29 30.3453 112.993 31.1438C113.695 31.9424 114.749 32.2973 116.066 32.2973C117.383 32.2973 118.348 31.9424 119.138 31.1438C119.841 30.3453 120.192 29.3693 120.192 28.0383C120.192 26.7961 119.841 25.7314 119.138 24.9328C118.436 24.1342 117.383 23.7793 116.066 23.7793C114.749 23.7793 113.783 24.1342 112.993 24.9328C112.29 25.7314 111.939 26.7074 111.939 28.0383Z" fill="white"/>
<path d="M127.04 19.9642H131.956V22.2711H132.044C132.22 21.9162 132.395 21.65 132.747 21.2951C133.01 20.9402 133.361 20.674 133.8 20.4078C134.239 20.1416 134.678 19.9642 135.205 19.7867C135.732 19.6092 136.346 19.5205 136.961 19.5205C138.278 19.5205 139.331 19.698 140.121 20.1416C140.912 20.5853 141.526 21.1176 141.965 21.8275C142.404 22.5373 142.755 23.4246 142.843 24.4006C143.019 25.3766 143.107 26.4414 143.107 27.5948V36.9114H137.927V28.6596C137.927 28.216 137.927 27.6836 137.839 27.1512C137.839 26.6188 137.663 26.1752 137.488 25.7315C137.312 25.2879 137.049 24.933 136.697 24.6668C136.346 24.4006 135.819 24.2231 135.205 24.2231C134.503 24.2231 133.976 24.3119 133.625 24.5781C133.186 24.8443 132.922 25.1104 132.659 25.5541C132.483 25.9977 132.308 26.4414 132.22 26.885C132.132 27.4174 132.132 27.9498 132.132 28.4821V36.9114H126.952V19.9642H127.04Z" fill="white"/>
<path d="M101.228 23.6907V23.2471H105.793V19.0768H101.228V17.3022V14.4629H97.277L96.0479 18.0121L95.6967 18.9881L94.292 23.1583H96.0479V23.602V25.2878V31.5876C96.0479 32.4749 96.2235 33.2734 96.4869 33.9833C96.8381 34.6044 97.1892 35.1368 97.8038 35.5804C98.3306 36.024 99.0329 36.2902 99.7353 36.4677C100.438 36.6451 101.228 36.7339 102.106 36.7339C102.72 36.7339 103.335 36.7339 103.949 36.6451C104.564 36.5564 105.179 36.4677 105.705 36.2015V31.8538C105.442 32.0312 105.179 32.2087 104.652 32.2087C104.213 32.2974 103.862 32.2974 103.598 32.2974C103.072 32.2974 102.633 32.2087 102.281 32.0312C101.93 31.8538 101.667 31.6763 101.579 31.4101C101.403 31.1439 101.316 30.789 101.228 30.4341C101.14 30.0792 101.14 29.6356 101.14 29.1919V25.1104V23.6907H101.228Z" fill="white"/>
<path d="M355.396 36.5564H315.273L320.98 19.9641H361.103L355.396 36.5564Z" fill="#EA0029"/>
<path d="M321.595 30.7003C321.682 30.5229 321.77 30.3454 321.858 30.1679C321.946 29.9905 322.121 29.813 322.297 29.7243C322.473 29.6356 322.648 29.4581 322.824 29.4581C322.999 29.3694 323.175 29.3694 323.438 29.3694C323.614 29.3694 323.79 29.3694 323.965 29.4581C324.141 29.5468 324.228 29.6356 324.316 29.7243C324.404 29.813 324.404 29.9905 324.492 30.1679C324.492 30.3454 324.492 30.5229 324.404 30.7003C324.316 30.8778 324.229 31.0552 324.141 31.2327C324.053 31.4102 323.877 31.5876 323.702 31.6763C323.526 31.7651 323.351 31.9425 323.175 31.9425C322.999 32.0313 322.824 32.0313 322.56 32.0313C322.385 32.0313 322.209 32.0313 322.034 31.9425C321.858 31.8538 321.77 31.7651 321.682 31.6763C321.595 31.5876 321.595 31.4102 321.507 31.2327C321.507 31.0552 321.595 30.8778 321.595 30.7003Z" fill="white"/>
<path d="M331.516 26.9736C331.428 26.7962 331.34 26.7075 331.165 26.53C330.989 26.4413 330.813 26.3525 330.55 26.3525C329.935 26.3525 329.496 26.53 329.057 26.8849C328.618 27.2398 328.267 27.6835 328.092 28.2158C327.916 28.7482 327.916 29.2806 328.092 29.5468C328.267 29.9017 328.706 30.0792 329.233 30.0792C329.496 30.0792 329.76 29.9904 329.935 29.9017C330.199 29.813 330.374 29.6355 330.55 29.4581L331.516 31.0552C330.989 31.4101 330.55 31.6763 330.023 31.8537C329.496 32.0312 328.97 32.1199 328.531 32.1199C327.916 32.1199 327.477 32.0312 327.038 31.8537C326.599 31.6763 326.248 31.4101 325.985 31.0552C325.721 30.7003 325.546 30.2566 325.546 29.813C325.458 29.3693 325.546 28.7482 325.809 28.2158C325.985 27.5947 326.336 27.0624 326.687 26.6187C327.038 26.1751 327.477 25.7314 328.004 25.3765C328.531 25.0216 329.057 24.7554 329.584 24.578C330.111 24.4005 330.726 24.3118 331.252 24.3118C331.691 24.3118 332.13 24.4005 332.569 24.578C333.008 24.7554 333.359 25.0216 333.535 25.3765L331.516 26.9736Z" fill="white"/>
<path d="M332.393 28.3047C332.569 27.6836 332.92 27.1512 333.271 26.7076C333.622 26.2639 334.061 25.8203 334.588 25.4654C335.115 25.1105 335.642 24.8443 336.168 24.6668C336.695 24.4894 337.31 24.4006 337.837 24.4006C338.363 24.4006 338.89 24.4894 339.329 24.6668C339.768 24.8443 340.119 25.1105 340.383 25.4654C340.646 25.8203 340.822 26.2639 340.822 26.7076C340.909 27.1512 340.822 27.7723 340.558 28.3047C340.383 28.9258 340.032 29.4582 339.68 29.9018C339.329 30.3455 338.89 30.7891 338.363 31.144C337.837 31.499 337.31 31.7651 336.783 31.9426C336.256 32.1201 335.642 32.2088 335.115 32.2088C334.5 32.2088 334.061 32.1201 333.622 31.9426C333.183 31.7651 332.832 31.499 332.569 31.144C332.305 30.7891 332.13 30.3455 332.13 29.9018C332.13 29.3695 332.13 28.8371 332.393 28.3047ZM334.676 28.3047C334.5 28.8371 334.5 29.3695 334.676 29.6356C334.852 29.9906 335.291 30.168 335.817 30.168C336.432 30.168 336.871 29.9906 337.31 29.6356C337.749 29.2807 338.1 28.8371 338.276 28.3047C338.451 27.7723 338.451 27.24 338.276 26.9738C338.1 26.6189 337.661 26.4414 337.134 26.4414C336.52 26.4414 336.081 26.6189 335.642 26.9738C335.203 27.24 334.852 27.6836 334.676 28.3047Z" fill="white"/>
<path d="M342.578 24.4892H344.773L344.422 25.4652C344.509 25.2878 344.685 25.1991 344.861 25.0216C345.036 24.8441 345.212 24.7554 345.475 24.6667C345.739 24.578 345.914 24.4892 346.178 24.4005C346.441 24.3118 346.704 24.3118 346.968 24.3118C347.494 24.3118 347.933 24.4005 348.197 24.6667C348.548 24.8441 348.724 25.1991 348.724 25.6427C349.163 25.1991 349.602 24.8441 350.041 24.578C350.48 24.4005 351.006 24.3118 351.533 24.3118C352.06 24.3118 352.411 24.4005 352.674 24.578C352.938 24.7554 353.113 25.0216 353.289 25.2878C353.377 25.554 353.377 25.9089 353.377 26.3525C353.289 26.7075 353.201 27.1511 353.113 27.5947L351.621 32.0312H349.426L350.918 27.6835C351.006 27.3286 351.094 27.0624 351.006 26.7962C350.918 26.53 350.743 26.4413 350.392 26.4413C350.128 26.4413 349.865 26.4413 349.689 26.53C349.514 26.6187 349.338 26.7075 349.163 26.8849C348.987 27.0624 348.899 27.2398 348.724 27.4173C348.636 27.5947 348.548 27.8609 348.46 28.0384L347.143 32.0312H344.861L346.178 28.0384C346.265 27.8609 346.265 27.7722 346.353 27.506C346.441 27.3286 346.441 27.1511 346.441 26.9736C346.441 26.7962 346.353 26.6187 346.265 26.53C346.178 26.4413 346.002 26.3525 345.739 26.3525C345.475 26.3525 345.212 26.4413 344.948 26.53C344.685 26.6187 344.509 26.7962 344.422 26.9736C344.246 27.1511 344.158 27.3286 343.983 27.5947C343.895 27.8609 343.807 28.0384 343.719 28.3046L342.402 32.0312H340.12L342.578 24.4892Z" fill="white"/>
</svg>
