<svg width="1017" height="110" viewBox="0 0 1017 110" fill="none" xmlns="http://www.w3.org/2000/svg">
<rect y="17" width="1017" height="77" rx="9" fill="url(#paint0_linear_69_5185)"/>
<path d="M917 91.7581C937.647 91.7581 954.386 74.7657 954.386 53.8045C954.386 32.8432 937.647 15.8508 917 15.8508C896.352 15.8508 879.613 32.8432 879.613 53.8045C879.613 74.7657 896.352 91.7581 917 91.7581Z" fill="white"/>
<path d="M917 3.28271C889.481 3.28271 867.211 25.923 867.211 53.8045C867.211 81.6859 889.481 104.326 917 104.326C944.519 104.326 966.789 81.6859 966.789 53.8045C966.789 25.923 944.519 3.28271 917 3.28271ZM917 84.4429C900.366 84.4429 886.842 70.7464 886.842 53.8045C886.842 36.8625 900.366 23.166 917 23.166C933.634 23.166 947.158 36.8625 947.158 53.8045C947.158 70.7464 933.634 84.4429 917 84.4429Z" fill="#D10C2B" stroke="white" stroke-width="3"/>
<path d="M882.686 38.1827C882.746 38.6482 882.744 39.1091 882.68 39.5656C882.616 40.0244 882.503 40.4719 882.345 40.9126C882.175 41.3826 881.947 41.7874 881.659 42.1292C881.371 42.471 881.041 42.7363 880.664 42.923C880.29 43.1118 879.88 43.213 879.439 43.231C878.996 43.249 878.538 43.1703 878.066 42.9927C877.592 42.8173 877.193 42.5767 876.865 42.2708C876.54 41.9673 876.294 41.6187 876.128 41.2297C875.961 40.8407 875.877 40.4201 875.875 39.9704C875.875 39.5207 875.957 39.0619 876.128 38.592C876.303 38.1107 876.517 37.6902 876.779 37.3282C877.04 36.9661 877.364 36.685 877.753 36.4827L878.418 37.7892C878.168 37.9016 877.955 38.0523 877.78 38.2434C877.605 38.4345 877.454 38.6999 877.333 39.0394C877.231 39.3228 877.184 39.5949 877.197 39.8602C877.208 40.1256 877.271 40.3707 877.381 40.5978C877.492 40.8249 877.649 41.0273 877.851 41.2027C878.052 41.3781 878.292 41.5153 878.564 41.6165C878.843 41.7199 879.113 41.7716 879.377 41.7694C879.641 41.7694 879.887 41.7176 880.115 41.6165C880.345 41.5153 880.547 41.3691 880.726 41.1735C880.903 40.9801 881.043 40.7417 881.147 40.4584C881.251 40.1705 881.309 39.9097 881.32 39.6758C881.331 39.442 881.326 39.2508 881.304 39.1024L880.343 38.7449L879.953 39.822L878.75 39.3745L879.599 37.0246L882.691 38.1759L882.686 38.1827Z" fill="white"/>
<path d="M879.627 31.5491L880.227 30.5552L887.032 31.5244L886.215 32.8803L884.793 32.642L883.514 34.7603L884.378 35.9228L883.579 37.2496L879.629 31.5491H879.627ZM881.47 32.0596L882.739 33.7618L883.543 32.4283L881.47 32.0596Z" fill="white"/>
<path d="M883.18 26.278L884.812 24.4386C885.027 24.1957 885.253 23.9888 885.492 23.8134C885.731 23.6403 885.977 23.5189 886.23 23.4559C886.482 23.3907 886.744 23.3952 887.012 23.4649C887.28 23.5368 887.55 23.6965 887.825 23.9461C888.155 24.2474 888.359 24.5937 888.436 24.9783C888.514 25.365 888.434 25.7541 888.197 26.1453L891.247 26.7457L890.133 28.0005L887.379 27.2832L886.921 27.8004L888.793 29.5117L887.862 30.5595L883.18 26.278ZM886.048 27.0021L886.595 26.3837C886.68 26.2893 886.764 26.1881 886.85 26.0756C886.936 25.9632 887.001 25.8508 887.043 25.7361C887.085 25.6214 887.096 25.5022 887.076 25.383C887.056 25.2616 886.981 25.1447 886.852 25.0277C886.733 24.9198 886.618 24.8568 886.502 24.8411C886.389 24.8254 886.279 24.8411 886.174 24.8816C886.068 24.9243 885.966 24.9873 885.867 25.0727C885.767 25.1604 885.674 25.2504 885.59 25.3426L884.983 26.0284L886.048 27.0021Z" fill="white"/>
<path d="M890.062 19.4688L890.975 18.7605L896.982 22.1515L895.738 23.1185L894.495 22.3764L892.55 23.8853L892.944 25.2862L891.728 26.2307L890.062 19.4688ZM891.6 20.6179L892.182 22.6687L893.405 21.7198L891.6 20.6179Z" fill="white"/>
<path d="M895.307 15.7677L897.008 14.9379L901.321 17.7645L901.336 17.7578L899.438 13.7506L900.689 13.1389L903.423 18.9046L901.786 19.7051L897.362 16.811L897.347 16.8178L899.292 20.9217L898.04 21.5333L895.307 15.7677Z" fill="white"/>
<path d="M905.087 13.0265L903.353 13.5054L903.029 12.3024L907.838 10.9734L908.162 12.1764L906.427 12.6554L907.761 17.6251L906.421 17.9961L905.087 13.0265Z" fill="white"/>
<path d="M910.43 8.78312L912.226 8.52002L910.884 10.0311L909.721 10.1998L910.427 8.78312H910.43ZM909.982 10.6383L911.355 10.4382L912.253 16.7705L910.879 16.9706L909.982 10.6383Z" fill="white"/>
<path d="M916.272 10.0896H917.42L920.151 16.4939H918.585L918.045 15.1357L915.597 15.1312L915.07 16.4872H913.539L916.272 10.0918V10.0896ZM916.804 11.9515L916.035 13.9394H917.575L916.804 11.9515Z" fill="white"/>
<path d="M926.53 11.1353L928.526 11.7424C929.009 11.8886 929.452 12.0842 929.855 12.3248C930.258 12.5677 930.584 12.86 930.837 13.2041C931.087 13.5481 931.251 13.9461 931.326 14.3959C931.401 14.8456 931.355 15.3516 931.191 15.9115C931.045 16.4085 930.823 16.8177 930.526 17.1393C930.23 17.4609 929.889 17.7037 929.499 17.8634C929.111 18.0253 928.692 18.1107 928.243 18.1175C927.795 18.1265 927.346 18.0613 926.896 17.9241L924.721 17.263L926.53 11.1353ZM926.42 16.422L927.111 16.6333C927.419 16.7278 927.713 16.7817 927.995 16.7997C928.278 16.8155 928.537 16.7817 928.774 16.6918C929.011 16.6041 929.22 16.4557 929.401 16.2511C929.583 16.0464 929.725 15.7698 929.826 15.4235C929.915 15.1245 929.937 14.8456 929.891 14.5893C929.846 14.3329 929.751 14.1035 929.607 13.9034C929.461 13.7033 929.273 13.5279 929.042 13.3772C928.81 13.2288 928.555 13.1119 928.276 13.0264L927.492 12.7881L926.417 16.4242L926.42 16.422Z" fill="white"/>
<path d="M936.487 14.9243L937.501 15.4708L936.974 22.4282L935.59 21.6839L935.736 20.229L933.574 19.0664L932.484 20.0154L931.131 19.2891L936.487 14.9288V14.9243ZM936.102 16.8222L934.509 18.2164L935.871 18.9472L936.104 16.8222H936.102Z" fill="white"/>
<path d="M941.875 18.2141L942.974 19.0754L939.906 23.1095L941.942 24.7061L941.158 25.736L938.023 23.2782L941.875 18.2141Z" fill="white"/>
<path d="M946.078 23.4266L944.809 22.1336L945.679 21.2544L949.195 24.8411L948.324 25.7203L947.055 24.4273L943.458 28.0612L942.479 27.0628L946.074 23.4289L946.078 23.4266Z" fill="white"/>
<path d="M948.034 28.2794C948.451 27.9915 948.878 27.8027 949.31 27.7127C949.744 27.6205 950.165 27.6205 950.573 27.7127C950.98 27.8027 951.366 27.978 951.727 28.2389C952.088 28.4997 952.407 28.8371 952.684 29.2508C952.961 29.6646 953.151 30.0896 953.257 30.5281C953.364 30.9643 953.381 31.3916 953.313 31.8098C953.244 32.2281 953.089 32.6239 952.843 32.9994C952.6 33.3749 952.267 33.7055 951.851 33.9933C951.434 34.2812 951.007 34.4701 950.573 34.5623C950.139 34.6544 949.718 34.6544 949.31 34.5623C948.903 34.4723 948.517 34.2969 948.156 34.0361C947.795 33.7752 947.476 33.4379 947.199 33.0241C946.922 32.6104 946.732 32.1854 946.625 31.7491C946.519 31.3129 946.501 30.8834 946.57 30.4674C946.639 30.0491 946.796 29.6511 947.04 29.2778C947.283 28.9023 947.613 28.5717 948.032 28.2839L948.034 28.2794ZM948.843 29.4914C948.597 29.6601 948.398 29.8535 948.247 30.0716C948.094 30.2897 947.992 30.5213 947.939 30.7687C947.886 31.016 947.884 31.2702 947.937 31.5288C947.988 31.7874 948.096 32.0415 948.262 32.2911C948.429 32.5407 948.621 32.7363 948.841 32.8825C949.06 33.0264 949.292 33.1208 949.538 33.1613C949.784 33.2018 950.034 33.1928 950.291 33.1298C950.546 33.0669 950.796 32.9499 951.042 32.7813C951.284 32.6149 951.481 32.4237 951.636 32.2034C951.791 31.983 951.895 31.7514 951.948 31.5018C952.001 31.2544 952.001 31.0003 951.951 30.7417C951.9 30.4831 951.791 30.2268 951.623 29.9794C951.457 29.7298 951.264 29.5342 951.045 29.388C950.825 29.2441 950.593 29.1519 950.347 29.1091C950.101 29.0687 949.848 29.0799 949.591 29.1451C949.332 29.2103 949.084 29.325 948.843 29.4914Z" fill="white"/>
<path d="M955.768 34.7983L956.47 36.5771L953.402 40.7552L953.409 40.7709L957.474 39.1181L957.99 40.4268L952.14 42.806L951.464 41.0947L954.605 36.8087L954.598 36.7929L950.434 38.4862L949.918 37.1775L955.768 34.7983Z" fill="white"/>
<path d="M881.258 71.1215L881.448 71.506C881.504 71.6162 881.564 71.7174 881.632 71.8141C881.699 71.9108 881.776 71.9895 881.863 72.0547C881.949 72.1199 882.044 72.1559 882.151 72.1671C882.257 72.1784 882.374 72.1514 882.503 72.0839C882.667 71.9985 882.771 71.8635 882.813 71.6746C882.855 71.4858 882.826 71.2946 882.731 71.1035C882.64 70.9213 882.516 70.7954 882.359 70.7257C882.202 70.656 882.042 70.6402 881.88 70.6762L881.499 69.2505C881.767 69.1921 882.015 69.1831 882.244 69.2213C882.472 69.2618 882.682 69.3405 882.87 69.4597C883.059 69.5788 883.232 69.7318 883.384 69.9184C883.537 70.105 883.675 70.3142 883.79 70.5503C883.912 70.7954 884 71.0473 884.053 71.3036C884.106 71.56 884.113 71.8073 884.073 72.0434C884.033 72.2795 883.943 72.4977 883.805 72.6978C883.666 72.8979 883.464 73.0643 883.203 73.1993C882.899 73.3544 882.6 73.4084 882.303 73.3567C882.007 73.305 881.752 73.143 881.537 72.8665L881.515 72.8777C881.577 73.0553 881.601 73.2262 881.588 73.3949C881.575 73.5613 881.533 73.7187 881.464 73.8671C881.395 74.0133 881.3 74.1482 881.18 74.2674C881.061 74.3888 880.919 74.49 880.762 74.571C880.489 74.7104 880.223 74.7801 879.964 74.7778C879.705 74.7778 879.464 74.7216 879.238 74.6114C879.012 74.5013 878.806 74.3416 878.618 74.1347C878.429 73.9256 878.268 73.6872 878.132 73.4151C877.887 72.9204 877.787 72.4347 877.833 71.9625C877.882 71.488 878.121 71.0697 878.551 70.7032L879.453 71.7938C879.278 71.9355 879.167 72.0996 879.116 72.2863C879.067 72.4729 879.105 72.6911 879.229 72.9407C879.355 73.1948 879.517 73.3522 879.707 73.4061C879.9 73.4601 880.097 73.4354 880.303 73.3297C880.458 73.251 880.56 73.1565 880.613 73.0486C880.666 72.9407 880.686 72.8237 880.675 72.6978C880.664 72.5719 880.631 72.4415 880.573 72.3088C880.516 72.1739 880.456 72.0412 880.39 71.9108L880.252 71.6364L881.253 71.1215H881.258Z" fill="white"/>
<path d="M887.777 77.0693L888.483 77.9418L885.451 83.9706L884.485 82.7788L885.152 81.5308L883.643 79.6688L882.319 80.1051L881.375 78.9403L887.777 77.0693ZM886.731 78.6232L884.793 79.2663L885.743 80.4379L886.733 78.6232H886.731Z" fill="white"/>
<path d="M890.506 80.3301L891.9 81.5354L891.12 86.5297L891.133 86.541L893.891 83.2579L894.917 84.1461L890.949 88.8684L889.609 87.7081L890.402 82.5878L890.389 82.5765L887.565 85.9383L886.539 85.0501L890.506 80.3278V80.3301ZM891.751 80.7393C891.862 80.6426 891.986 80.5572 892.123 80.4852C892.261 80.411 892.4 80.3615 892.54 80.3346C892.681 80.3053 892.821 80.3076 892.963 80.3368C893.105 80.366 893.235 80.4335 893.359 80.5414C893.468 80.6359 893.556 80.7348 893.621 80.8383C893.685 80.9417 893.749 81.0541 893.813 81.1778C893.855 81.252 893.898 81.3285 893.937 81.4004C893.977 81.4724 894.03 81.5399 894.097 81.5961C894.172 81.6613 894.25 81.6883 894.334 81.6793C894.418 81.6703 894.502 81.6455 894.589 81.6051L895.1 82.0481C894.97 82.1583 894.839 82.2527 894.706 82.3292C894.573 82.4056 894.438 82.4573 894.301 82.4798C894.163 82.5023 894.026 82.4978 893.887 82.4596C893.747 82.4236 893.61 82.3471 893.474 82.228C893.379 82.1448 893.3 82.0503 893.237 81.9491C893.175 81.8457 893.122 81.7445 893.078 81.6455C893.034 81.5444 892.989 81.4522 892.945 81.3645C892.901 81.2768 892.848 81.2048 892.781 81.1486C892.706 81.0834 892.622 81.0631 892.524 81.0879C892.429 81.1126 892.343 81.1463 892.269 81.1891L891.751 80.7393Z" fill="white"/>
<path d="M893.982 87.3056C894.226 86.8761 894.518 86.5253 894.857 86.2599C895.198 85.9923 895.564 85.8102 895.958 85.7135C896.352 85.6168 896.76 85.6033 897.185 85.6753C897.611 85.7472 898.029 85.9046 898.443 86.1452C898.858 86.3881 899.203 86.6759 899.478 87.011C899.753 87.346 899.947 87.7126 900.065 88.1061C900.18 88.4996 900.211 88.9134 900.153 89.3474C900.098 89.7791 899.947 90.2109 899.706 90.6426C899.462 91.0744 899.17 91.4229 898.829 91.6883C898.488 91.9559 898.122 92.138 897.728 92.2347C897.334 92.3314 896.926 92.3449 896.501 92.273C896.075 92.201 895.657 92.0436 895.243 91.803C894.828 91.5624 894.483 91.2723 894.208 90.9372C893.933 90.6022 893.739 90.2379 893.623 89.8421C893.508 89.4486 893.477 89.0348 893.533 88.6008C893.588 88.1691 893.739 87.7373 893.982 87.3056ZM895.196 88.0139C895.052 88.268 894.961 88.5221 894.919 88.7762C894.877 89.0303 894.886 89.2777 894.941 89.5183C894.999 89.7567 895.105 89.9793 895.258 90.1817C895.411 90.3863 895.613 90.5617 895.863 90.7056C896.113 90.8518 896.363 90.9395 896.614 90.971C896.864 91.0024 897.105 90.9844 897.338 90.9125C897.571 90.8428 897.783 90.7236 897.98 90.5594C898.178 90.3953 898.346 90.1839 898.49 89.9321C898.629 89.6847 898.723 89.4306 898.765 89.172C898.807 88.9134 898.8 88.666 898.742 88.4277C898.685 88.1893 898.579 87.9667 898.426 87.7621C898.273 87.5574 898.071 87.382 897.821 87.2381C897.571 87.0942 897.32 87.0042 897.07 86.9728C896.82 86.9413 896.578 86.9593 896.346 87.029C896.113 87.0987 895.898 87.2179 895.701 87.3865C895.504 87.5552 895.333 87.7621 895.194 88.0117L895.196 88.0139Z" fill="white"/>
<path d="M904.264 90.6808C904.211 90.5099 904.109 90.3615 903.956 90.2311C903.803 90.1006 903.65 90.0062 903.493 89.9455C903.4 89.9095 903.302 89.8848 903.198 89.869C903.094 89.8533 902.988 89.8533 902.886 89.8668C902.782 89.8803 902.689 89.914 902.607 89.9702C902.525 90.0264 902.463 90.1096 902.423 90.2176C902.359 90.393 902.372 90.5504 902.467 90.6943C902.562 90.836 902.695 90.9776 902.868 91.1193C903.041 91.261 903.227 91.4071 903.429 91.5601C903.63 91.713 903.807 91.8861 903.958 92.0818C904.111 92.2774 904.213 92.5023 904.266 92.7541C904.319 93.006 904.284 93.3006 904.157 93.6401C904.038 93.9639 903.874 94.2203 903.666 94.4159C903.457 94.6115 903.223 94.7487 902.961 94.8297C902.7 94.9106 902.423 94.9376 902.126 94.9129C901.832 94.8881 901.535 94.8184 901.24 94.7037C900.868 94.5621 900.545 94.3709 900.27 94.1348C899.995 93.8987 899.767 93.5996 899.59 93.2376L900.859 92.581C900.923 92.8058 901.036 93.0037 901.196 93.1746C901.357 93.3455 901.541 93.4715 901.752 93.5524C901.854 93.5906 901.962 93.6199 902.077 93.6356C902.19 93.6514 902.299 93.6514 902.401 93.6356C902.503 93.6176 902.594 93.5816 902.673 93.5232C902.753 93.467 902.813 93.386 902.85 93.2826C902.915 93.1072 902.901 92.943 902.806 92.7923C902.711 92.6394 902.578 92.491 902.405 92.3426C902.232 92.1942 902.044 92.0413 901.838 91.8816C901.632 91.722 901.453 91.5443 901.298 91.3464C901.143 91.1485 901.036 90.9282 900.979 90.6808C900.919 90.4335 900.95 90.1479 901.072 89.8263C901.187 89.5137 901.351 89.2641 901.559 89.0752C901.767 88.8863 902.002 88.7514 902.263 88.6705C902.525 88.5895 902.802 88.5603 903.094 88.5828C903.387 88.6053 903.674 88.6705 903.954 88.7762C904.277 88.8998 904.572 89.0662 904.84 89.2754C905.105 89.4845 905.32 89.7453 905.482 90.0557L904.259 90.6831L904.264 90.6808Z" fill="white"/>
<path d="M908.144 93.5545C908.208 93.0621 908.35 92.6281 908.565 92.2503C908.78 91.8725 909.052 91.5644 909.38 91.3216C909.708 91.081 910.082 90.9123 910.501 90.8156C910.922 90.7189 911.367 90.7032 911.841 90.7684C912.315 90.8336 912.74 90.9685 913.121 91.1732C913.5 91.3778 913.817 91.6409 914.071 91.9625C914.324 92.2818 914.508 92.6551 914.616 93.0756C914.725 93.4983 914.747 93.9548 914.683 94.4473C914.619 94.9397 914.477 95.3737 914.262 95.7515C914.047 96.1293 913.775 96.4374 913.447 96.6802C913.119 96.9209 912.745 97.0895 912.326 97.1862C911.907 97.2829 911.46 97.2986 910.986 97.2334C910.512 97.1682 910.086 97.0333 909.705 96.8287C909.327 96.624 909.01 96.3609 908.755 96.0394C908.5 95.72 908.319 95.3468 908.21 94.9263C908.1 94.5057 908.08 94.047 908.144 93.5545ZM909.53 93.7434C909.493 94.0335 909.502 94.3034 909.557 94.5575C909.612 94.8093 909.712 95.0364 909.854 95.2343C909.996 95.4345 910.175 95.5986 910.394 95.729C910.611 95.8595 910.864 95.9427 911.15 95.9831C911.435 96.0214 911.699 96.0079 911.945 95.9404C912.189 95.873 912.406 95.7628 912.594 95.6076C912.782 95.4525 912.937 95.2613 913.057 95.0342C913.177 94.8048 913.256 94.5462 913.294 94.2584C913.332 93.9751 913.323 93.7052 913.265 93.4489C913.21 93.1925 913.11 92.9654 912.968 92.7675C912.827 92.5674 912.645 92.4032 912.428 92.2728C912.211 92.1424 911.958 92.0592 911.672 92.0187C911.387 91.9805 911.123 91.9939 910.879 92.0614C910.636 92.1289 910.419 92.2391 910.23 92.392C910.042 92.5471 909.887 92.7383 909.765 92.9699C909.643 93.2015 909.566 93.4578 909.528 93.7434H909.53Z" fill="white"/>
<path d="M920.404 93.3096C920.471 93.2848 920.539 93.2646 920.608 93.2466C920.674 93.2286 920.748 93.2151 920.821 93.2084C921.109 93.1814 921.372 93.2084 921.618 93.2893C921.864 93.3725 922.077 93.4962 922.26 93.6581C922.444 93.8223 922.593 94.0247 922.708 94.263C922.823 94.5014 922.894 94.76 922.918 95.0388C922.947 95.3581 922.918 95.655 922.823 95.9248C922.73 96.1946 922.591 96.433 922.404 96.6399C922.218 96.8468 921.99 97.0132 921.722 97.1414C921.454 97.2695 921.162 97.3482 920.847 97.3797C920.526 97.4112 920.223 97.3887 919.939 97.3123C919.656 97.2358 919.401 97.1166 919.182 96.948C918.96 96.7816 918.778 96.5747 918.639 96.3273C918.497 96.08 918.411 95.7966 918.382 95.4751C918.362 95.2547 918.362 95.0501 918.384 94.8634C918.406 94.6768 918.444 94.4969 918.495 94.3282C918.546 94.1596 918.608 93.9954 918.683 93.838C918.758 93.6806 918.838 93.5187 918.92 93.3523L920.056 91.1126L921.629 90.9619L920.406 93.3073L920.404 93.3096ZM921.623 95.113C921.596 94.8342 921.485 94.6116 921.288 94.4452C921.091 94.2788 920.845 94.2113 920.553 94.2383C920.26 94.2675 920.032 94.3799 919.868 94.5823C919.704 94.7825 919.636 95.0231 919.662 95.3019C919.689 95.5808 919.8 95.8034 919.997 95.9698C920.194 96.1362 920.44 96.2059 920.732 96.1767C921.024 96.1497 921.253 96.035 921.417 95.8326C921.58 95.6302 921.649 95.3919 921.623 95.113Z" fill="white"/>
<path d="M923.678 93.8244C923.596 93.4668 923.545 93.0936 923.525 92.709C923.505 92.3245 923.542 91.9602 923.64 91.6207C923.735 91.2789 923.906 90.9798 924.149 90.7234C924.391 90.4648 924.734 90.2849 925.177 90.1792C925.62 90.0736 926.006 90.0848 926.336 90.2085C926.666 90.3322 926.947 90.5255 927.182 90.7864C927.417 91.0495 927.607 91.3576 927.758 91.7129C927.906 92.0681 928.021 92.4257 928.103 92.7832C928.185 93.143 928.236 93.5141 928.256 93.8986C928.276 94.2831 928.238 94.6474 928.141 94.987C928.046 95.3265 927.875 95.6279 927.631 95.8842C927.39 96.1428 927.047 96.3249 926.604 96.4284C926.161 96.5341 925.775 96.5228 925.445 96.4014C925.115 96.2777 924.834 96.0843 924.599 95.8212C924.364 95.5581 924.174 95.2501 924.023 94.8948C923.875 94.5395 923.757 94.1819 923.678 93.8244ZM924.94 93.5276C924.976 93.6872 925.027 93.8761 925.093 94.0942C925.157 94.3124 925.244 94.517 925.352 94.7081C925.461 94.8993 925.594 95.0499 925.753 95.1624C925.913 95.2748 926.105 95.304 926.336 95.2501C926.559 95.1983 926.721 95.0837 926.816 94.9128C926.912 94.7396 926.969 94.544 926.982 94.3236C926.998 94.1032 926.987 93.8806 926.949 93.6557C926.912 93.4309 926.876 93.2375 926.838 93.0778C926.803 92.9182 926.752 92.7293 926.686 92.5111C926.621 92.293 926.535 92.0884 926.426 91.8972C926.318 91.7061 926.183 91.5554 926.021 91.443C925.859 91.3306 925.667 91.3013 925.443 91.3553C925.213 91.4093 925.051 91.5217 924.958 91.6949C924.865 91.868 924.809 92.0637 924.796 92.2818C924.781 92.5021 924.792 92.7225 924.829 92.9496C924.867 93.1745 924.902 93.3679 924.94 93.5276Z" fill="white"/>
<path d="M929.84 93.9324L931.016 93.5254L931.065 96.1204L930.019 96.4824L929.84 93.9324Z" fill="white"/>
<path d="M931.453 91.6231C931.303 91.2881 931.179 90.935 931.083 90.5595C930.988 90.1862 930.955 89.8219 930.981 89.4689C931.008 89.1158 931.117 88.7875 931.303 88.4862C931.489 88.1848 931.79 87.9375 932.204 87.7441C932.618 87.553 932.999 87.4832 933.345 87.5372C933.693 87.5912 934.007 87.7239 934.289 87.933C934.57 88.1421 934.818 88.4075 935.035 88.7245C935.252 89.0416 935.434 89.3677 935.584 89.7027C935.735 90.0378 935.859 90.3931 935.954 90.7664C936.05 91.1396 936.083 91.5039 936.056 91.857C936.027 92.21 935.921 92.5383 935.735 92.8397C935.549 93.141 935.248 93.3883 934.836 93.5817C934.422 93.7729 934.041 93.8426 933.695 93.7886C933.349 93.7346 933.033 93.602 932.751 93.3928C932.47 93.1837 932.222 92.9184 932.005 92.6013C931.788 92.2842 931.606 91.9582 931.456 91.6231H931.453ZM932.632 91.0767C932.698 91.2251 932.787 91.4005 932.893 91.6029C932.999 91.8053 933.126 91.9874 933.267 92.1516C933.411 92.3157 933.573 92.4371 933.75 92.5158C933.928 92.5945 934.125 92.5833 934.34 92.4844C934.55 92.3877 934.685 92.2438 934.745 92.0549C934.805 91.866 934.82 91.6636 934.791 91.4455C934.763 91.2273 934.709 91.0115 934.628 90.7978C934.548 90.5842 934.475 90.4043 934.406 90.2536C934.34 90.1052 934.253 89.9298 934.147 89.7297C934.041 89.5296 933.914 89.3452 933.773 89.181C933.629 89.0169 933.467 88.8954 933.287 88.819C933.108 88.7425 932.913 88.7515 932.703 88.8482C932.488 88.9494 932.353 89.0911 932.295 89.28C932.237 89.4689 932.222 89.6712 932.251 89.8894C932.28 90.1075 932.333 90.3234 932.415 90.537C932.494 90.7506 932.567 90.9305 932.636 91.0789L932.632 91.0767Z" fill="white"/>
<path d="M936.327 89.2979C936.134 88.9854 935.964 88.6526 935.82 88.295C935.676 87.9375 935.594 87.5822 935.574 87.2291C935.554 86.8761 935.618 86.5365 935.762 86.2105C935.908 85.8867 936.172 85.6011 936.557 85.3537C936.941 85.1064 937.31 84.9872 937.66 84.9939C938.013 85.0007 938.341 85.0884 938.646 85.257C938.954 85.4257 939.233 85.655 939.49 85.9384C939.747 86.224 939.971 86.5208 940.164 86.8334C940.358 87.1459 940.527 87.4787 940.671 87.8363C940.815 88.1938 940.897 88.5491 940.917 88.9022C940.937 89.2552 940.875 89.5948 940.728 89.9208C940.582 90.2446 940.319 90.5302 939.933 90.7776C939.548 91.0249 939.18 91.1441 938.83 91.1374C938.478 91.1306 938.15 91.0429 937.844 90.8743C937.536 90.7056 937.257 90.4763 937 90.1929C936.743 89.9073 936.52 89.6105 936.327 89.2979ZM937.421 88.5941C937.508 88.7335 937.616 88.8954 937.749 89.0798C937.882 89.2642 938.028 89.4284 938.194 89.5723C938.358 89.7162 938.533 89.8151 938.719 89.8669C938.905 89.9208 939.098 89.8826 939.297 89.7544C939.492 89.6285 939.608 89.4688 939.643 89.2732C939.678 89.0776 939.667 88.8752 939.61 88.6616C939.552 88.4502 939.47 88.2433 939.362 88.0432C939.253 87.843 939.158 87.6744 939.071 87.535C938.985 87.3978 938.877 87.2359 938.744 87.0515C938.611 86.8671 938.462 86.7029 938.298 86.559C938.134 86.4151 937.957 86.3184 937.769 86.2667C937.581 86.215 937.388 86.2509 937.193 86.3769C936.994 86.5051 936.879 86.6647 936.845 86.8603C936.812 87.0537 936.825 87.2584 936.883 87.4697C936.941 87.6811 937.023 87.888 937.131 88.0881C937.24 88.2883 937.335 88.4569 937.421 88.5963V88.5941Z" fill="white"/>
<path d="M940.858 86.3229C940.625 86.0418 940.412 85.7338 940.222 85.3987C940.031 85.0636 939.903 84.7241 939.836 84.3755C939.77 84.027 939.788 83.6829 939.887 83.3411C939.989 82.9993 940.213 82.68 940.561 82.3832C940.908 82.0864 941.258 81.9177 941.606 81.875C941.956 81.8345 942.293 81.875 942.619 82.0009C942.944 82.1268 943.254 82.3157 943.544 82.5608C943.837 82.8082 944.098 83.0735 944.331 83.3546C944.566 83.6357 944.776 83.9438 944.967 84.2788C945.157 84.6139 945.285 84.9535 945.352 85.302C945.418 85.6505 945.401 85.9946 945.301 86.3364C945.201 86.6782 944.975 86.9975 944.628 87.2943C944.28 87.5912 943.93 87.7621 943.582 87.8026C943.234 87.8453 942.895 87.8026 942.57 87.6766C942.244 87.5507 941.934 87.3641 941.644 87.1167C941.351 86.8693 941.09 86.604 940.858 86.3229ZM941.85 85.4774C941.954 85.6033 942.082 85.7472 942.24 85.9136C942.395 86.0778 942.563 86.2217 942.747 86.3409C942.929 86.4601 943.115 86.5343 943.307 86.5613C943.5 86.5883 943.686 86.5253 943.866 86.3701C944.041 86.2195 944.134 86.0463 944.142 85.8462C944.151 85.6483 944.114 85.4482 944.03 85.2458C943.945 85.0434 943.835 84.85 943.702 84.6656C943.569 84.4812 943.449 84.3283 943.345 84.2024C943.241 84.0765 943.112 83.9325 942.957 83.7661C942.802 83.602 942.634 83.4581 942.45 83.3389C942.269 83.2197 942.08 83.1477 941.888 83.1208C941.695 83.096 941.509 83.159 941.332 83.3096C941.152 83.4648 941.057 83.638 941.05 83.8358C941.044 84.0315 941.083 84.2316 941.168 84.434C941.252 84.6364 941.363 84.8298 941.495 85.0142C941.628 85.1986 941.748 85.3537 941.852 85.4774H941.85Z" fill="white"/>
<path d="M944.67 78.5603L945.492 77.4765L947.504 79.0506L946.943 75.5673L948.017 74.1506L948.607 78.0994L953.001 77.7531L951.852 79.2664L948.035 79.4688L950.332 81.2655L949.51 82.3494L944.666 78.5603H944.67Z" fill="white"/>
<path d="M948.336 73.7166L949.257 71.8704L953.453 72.4258L953.462 72.4101L950.542 69.2979L951.459 67.4607L956.915 70.2648L956.306 71.4859L952.122 69.3361L952.115 69.3519L955.573 72.9565L955.11 73.8875L950.228 73.1364L950.219 73.1522L954.403 75.3019L953.794 76.523L948.338 73.7188L948.336 73.7166Z" fill="white"/>
<path d="M930.368 59.3091H916.796C915.708 59.3091 914.773 60.0467 914.574 61.0609C914.561 61.1328 914.55 61.2025 914.543 61.2722C914.432 62.3831 915.245 63.3725 916.326 63.5794L924.044 66.0238C921.995 67.2875 919.582 68.0139 917 68.0139C916.488 68.0139 915.985 67.9846 915.489 67.9307C911.307 67.4629 908.186 63.7863 908.186 59.5138V55.4773L908.706 56.0553L908.923 56.2576L913.203 60.6021C913.599 59.0235 915.019 57.8475 916.69 57.8475H918.388L910.746 50.0894C909.896 49.2259 908.779 48.7942 907.663 48.7942C906.547 48.7942 905.428 49.2259 904.577 50.0894C904.573 50.0939 903.543 51.216 903.543 53.3141V60.6404C903.543 68.133 909.393 74.4002 916.771 74.5261C924.309 74.6543 930.461 68.4883 930.461 60.8652V59.3091H930.37H930.368Z" fill="#D10C2B"/>
<path d="M920.712 33.0825C919.432 33.0825 918.391 34.1394 918.391 35.4392V55.7809L920.455 57.8655H923.033V35.4392C923.033 34.1394 921.992 33.0825 920.712 33.0825Z" fill="#D10C2B"/>
<path d="M928.134 33.0825C926.854 33.0825 925.812 34.1394 925.812 35.4392V57.8655H930.458V35.4392C930.458 34.1394 929.416 33.0825 928.136 33.0825H928.134Z" fill="#D10C2B"/>
<path d="M913.286 33.0826C912.006 33.0826 910.965 34.1395 910.965 35.4392V48.2793L915.61 52.9701V35.437C915.61 34.1372 914.569 33.0803 913.288 33.0803L913.286 33.0826Z" fill="#D10C2B"/>
<path d="M873.955 58.729C874.135 58.1983 874.309 57.6811 874.484 57.1661C874.894 55.9563 875.302 54.7443 875.718 53.5344C875.758 53.4198 875.74 53.3501 875.654 53.2691C875.488 53.1162 875.331 52.952 875.153 52.7766C875.468 52.6664 875.767 52.6305 876.068 52.6125C878.095 52.4843 879.971 53.9122 880.412 55.9226C880.614 56.84 880.532 57.735 880.16 58.5985C880.129 58.6727 880.104 58.7335 879.998 58.7335C879.417 58.7267 878.837 58.7312 878.248 58.7312C879.258 57.4382 879.415 56.089 878.494 54.7015C877.9 53.8088 876.775 53.2938 875.778 53.4445C875.82 53.4692 875.869 53.4872 875.902 53.521C876.42 54.0427 876.939 54.5689 877.457 55.0928C877.745 55.3829 877.807 55.6955 877.648 56.0732C877.61 56.1609 877.561 56.2464 877.51 56.3273C877.019 57.0897 876.525 57.852 876.031 58.6143C875.995 58.6682 875.973 58.7357 875.884 58.7357C875.249 58.7335 874.613 58.7357 873.96 58.7357L873.955 58.729Z" fill="white"/>
<path d="M953.486 58.729C953.666 58.1983 953.841 57.6811 954.016 57.1661C954.426 55.9563 954.833 54.7443 955.25 53.5344C955.289 53.4198 955.272 53.3501 955.185 53.2691C955.019 53.1162 954.862 52.952 954.685 52.7766C954.999 52.6664 955.298 52.6305 955.6 52.6125C957.626 52.4843 959.503 53.9122 959.943 55.9226C960.145 56.84 960.063 57.735 959.691 58.5985C959.66 58.6727 959.635 58.7335 959.529 58.7335C958.949 58.7267 958.368 58.7312 957.779 58.7312C958.789 57.4382 958.947 56.089 958.025 54.7015C957.431 53.8088 956.306 53.2938 955.309 53.4445C955.351 53.4692 955.4 53.4872 955.433 53.521C955.952 54.0427 956.47 54.5689 956.988 55.0928C957.276 55.3829 957.338 55.6955 957.179 56.0732C957.141 56.1609 957.092 56.2464 957.042 56.3273C956.55 57.0897 956.056 57.852 955.562 58.6143C955.526 58.6682 955.504 58.7357 955.416 58.7357C954.78 58.7335 954.144 58.7357 953.491 58.7357L953.486 58.729Z" fill="white"/>
<g filter="url(#filter0_d_69_5185)">
<path d="M29.6597 47.0703V62H27.1064V47.0703H29.6597ZM34.3457 47.0703V49.1211H22.4614V47.0703H34.3457ZM33.7411 56.5757V56.3398C33.7411 55.54 33.8573 54.7983 34.0898 54.1147C34.3222 53.4243 34.6571 52.8262 35.0946 52.3203C35.539 51.8076 36.079 51.4111 36.7148 51.1309C37.3573 50.8438 38.082 50.7002 38.8886 50.7002C39.7021 50.7002 40.4267 50.8438 41.0624 51.1309C41.705 51.4111 42.2485 51.8076 42.6928 52.3203C43.1371 52.8262 43.4755 53.4243 43.7079 54.1147C43.9404 54.7983 44.0566 55.54 44.0566 56.3398V56.5757C44.0566 57.3755 43.9404 58.1172 43.7079 58.8008C43.4755 59.4844 43.1371 60.0825 42.6928 60.5952C42.2485 61.1011 41.7084 61.4976 41.0727 61.7847C40.4369 62.0649 39.7157 62.2051 38.9091 62.2051C38.0956 62.2051 37.3676 62.0649 36.725 61.7847C36.0893 61.4976 35.5492 61.1011 35.1049 60.5952C34.6606 60.0825 34.3222 59.4844 34.0898 58.8008C33.8573 58.1172 33.7411 57.3755 33.7411 56.5757ZM36.2123 56.3398V56.5757C36.2123 57.0747 36.2636 57.5464 36.3661 57.9907C36.4687 58.4351 36.6293 58.8247 36.8481 59.1597C37.0668 59.4946 37.3471 59.7578 37.6889 59.9492C38.0307 60.1406 38.4374 60.2363 38.9091 60.2363C39.3671 60.2363 39.7636 60.1406 40.0986 59.9492C40.4404 59.7578 40.7206 59.4946 40.9394 59.1597C41.1581 58.8247 41.3188 58.4351 41.4213 57.9907C41.5307 57.5464 41.5854 57.0747 41.5854 56.5757V56.3398C41.5854 55.8477 41.5307 55.3828 41.4213 54.9453C41.3188 54.501 41.1547 54.1079 40.9291 53.7661C40.7104 53.4243 40.4301 53.1577 40.0883 52.9663C39.7533 52.7681 39.3534 52.6689 38.8886 52.6689C38.4237 52.6689 38.0204 52.7681 37.6786 52.9663C37.3437 53.1577 37.0668 53.4243 36.8481 53.7661C36.6293 54.1079 36.4687 54.501 36.3661 54.9453C36.2636 55.3828 36.2123 55.8477 36.2123 56.3398ZM52.4754 59.7031V46.25H54.9569V62H52.7113L52.4754 59.7031ZM45.2567 56.5757V56.3604C45.2567 55.5195 45.3558 54.7539 45.554 54.0635C45.7523 53.3662 46.0394 52.7681 46.4154 52.269C46.7913 51.7632 47.2494 51.377 47.7894 51.1104C48.3294 50.8369 48.9378 50.7002 49.6146 50.7002C50.2845 50.7002 50.8724 50.8301 51.3783 51.0898C51.8841 51.3496 52.3148 51.7222 52.6703 52.2075C53.0257 52.686 53.3094 53.2603 53.5213 53.9302C53.7332 54.5933 53.8836 55.3315 53.9725 56.145V56.832C53.8836 57.625 53.7332 58.3496 53.5213 59.0059C53.3094 59.6621 53.0257 60.2295 52.6703 60.708C52.3148 61.1865 51.8807 61.5557 51.368 61.8154C50.8621 62.0752 50.2708 62.2051 49.5941 62.2051C48.9242 62.2051 48.3192 62.0649 47.7791 61.7847C47.2459 61.5044 46.7913 61.1113 46.4154 60.6055C46.0394 60.0996 45.7523 59.5049 45.554 58.8213C45.3558 58.1309 45.2567 57.3823 45.2567 56.5757ZM47.7279 56.3604V56.5757C47.7279 57.0815 47.7723 57.5532 47.8612 57.9907C47.9569 58.4282 48.1038 58.8145 48.3021 59.1494C48.5003 59.4775 48.7567 59.7373 49.0711 59.9287C49.3924 60.1133 49.7752 60.2056 50.2196 60.2056C50.7801 60.2056 51.2415 60.0825 51.6038 59.8364C51.9662 59.5903 52.2498 59.2588 52.4549 58.8418C52.6668 58.418 52.8104 57.9463 52.8856 57.4268V55.5708C52.8446 55.1675 52.7591 54.7915 52.6292 54.4429C52.5062 54.0942 52.3387 53.79 52.1268 53.5303C51.9149 53.2637 51.6517 53.0586 51.3372 52.915C51.0296 52.7646 50.6639 52.6895 50.2401 52.6895C49.7889 52.6895 49.4061 52.7852 49.0916 52.9766C48.7772 53.168 48.5174 53.4312 48.3123 53.7661C48.1141 54.1011 47.9671 54.4907 47.8714 54.9351C47.7757 55.3794 47.7279 55.8545 47.7279 56.3604ZM56.6492 56.5757V56.3398C56.6492 55.54 56.7654 54.7983 56.9978 54.1147C57.2302 53.4243 57.5652 52.8262 58.0027 52.3203C58.447 51.8076 58.9871 51.4111 59.6228 51.1309C60.2654 50.8438 60.99 50.7002 61.7966 50.7002C62.6101 50.7002 63.3347 50.8438 63.9705 51.1309C64.613 51.4111 65.1565 51.8076 65.6008 52.3203C66.0452 52.8262 66.3836 53.4243 66.616 54.1147C66.8484 54.7983 66.9646 55.54 66.9646 56.3398V56.5757C66.9646 57.3755 66.8484 58.1172 66.616 58.8008C66.3836 59.4844 66.0452 60.0825 65.6008 60.5952C65.1565 61.1011 64.6165 61.4976 63.9807 61.7847C63.345 62.0649 62.6238 62.2051 61.8172 62.2051C61.0037 62.2051 60.2756 62.0649 59.6331 61.7847C58.9973 61.4976 58.4573 61.1011 58.013 60.5952C57.5686 60.0825 57.2302 59.4844 56.9978 58.8008C56.7654 58.1172 56.6492 57.3755 56.6492 56.5757ZM59.1204 56.3398V56.5757C59.1204 57.0747 59.1716 57.5464 59.2742 57.9907C59.3767 58.4351 59.5374 58.8247 59.7561 59.1597C59.9749 59.4946 60.2551 59.7578 60.5969 59.9492C60.9387 60.1406 61.3455 60.2363 61.8172 60.2363C62.2752 60.2363 62.6716 60.1406 63.0066 59.9492C63.3484 59.7578 63.6287 59.4946 63.8474 59.1597C64.0662 58.8247 64.2268 58.4351 64.3294 57.9907C64.4387 57.5464 64.4934 57.0747 64.4934 56.5757V56.3398C64.4934 55.8477 64.4387 55.3828 64.3294 54.9453C64.2268 54.501 64.0628 54.1079 63.8372 53.7661C63.6184 53.4243 63.3381 53.1577 62.9963 52.9663C62.6614 52.7681 62.2615 52.6689 61.7966 52.6689C61.3318 52.6689 60.9285 52.7681 60.5867 52.9663C60.2517 53.1577 59.9749 53.4243 59.7561 53.7661C59.5374 54.1079 59.3767 54.501 59.2742 54.9453C59.1716 55.3828 59.1204 55.8477 59.1204 56.3398ZM74.84 58.9956C74.84 58.7495 74.7785 58.5273 74.6554 58.3291C74.5324 58.124 74.2966 57.9395 73.9479 57.7754C73.6061 57.6113 73.1003 57.4609 72.4304 57.3242C71.8425 57.1943 71.3024 57.0405 70.8102 56.8628C70.3249 56.6782 69.9079 56.4561 69.5593 56.1963C69.2106 55.9365 68.9406 55.6289 68.7492 55.2734C68.5578 54.918 68.4621 54.5078 68.4621 54.043C68.4621 53.5918 68.5612 53.1646 68.7595 52.7612C68.9577 52.3579 69.2414 52.0024 69.6105 51.6948C69.9797 51.3872 70.4274 51.1445 70.9538 50.9668C71.487 50.7891 72.0817 50.7002 72.738 50.7002C73.6677 50.7002 74.464 50.8574 75.1271 51.1719C75.7971 51.4795 76.3097 51.8999 76.6652 52.4331C77.0207 52.9595 77.1984 53.5542 77.1984 54.2173H74.7272C74.7272 53.9233 74.652 53.6499 74.5016 53.397C74.3581 53.1372 74.1393 52.9287 73.8454 52.7715C73.5514 52.6074 73.1823 52.5254 72.738 52.5254C72.3141 52.5254 71.9621 52.5938 71.6818 52.7305C71.4084 52.8604 71.2033 53.0312 71.0666 53.2432C70.9367 53.4551 70.8718 53.6875 70.8718 53.9404C70.8718 54.125 70.9059 54.2925 70.9743 54.4429C71.0495 54.5864 71.1725 54.7197 71.3434 54.8428C71.5143 54.959 71.7468 55.0684 72.0407 55.1709C72.3415 55.2734 72.7175 55.3726 73.1686 55.4683C74.0163 55.646 74.7443 55.875 75.3527 56.1553C75.9679 56.4287 76.4396 56.7842 76.7678 57.2217C77.0959 57.6523 77.2599 58.1992 77.2599 58.8623C77.2599 59.3545 77.154 59.8057 76.9421 60.2158C76.737 60.6191 76.4362 60.9712 76.0397 61.272C75.6432 61.5659 75.1681 61.7949 74.6144 61.959C74.0676 62.123 73.4523 62.2051 72.7687 62.2051C71.7638 62.2051 70.9128 62.0273 70.2155 61.6719C69.5182 61.3096 68.9885 60.8481 68.6262 60.2876C68.2707 59.7202 68.0929 59.1323 68.0929 58.5239H70.4821C70.5095 58.9819 70.6359 59.3477 70.8615 59.6211C71.0939 59.8877 71.381 60.0825 71.7228 60.2056C72.0715 60.3218 72.4304 60.3799 72.7995 60.3799C73.2438 60.3799 73.6164 60.3218 73.9172 60.2056C74.2179 60.0825 74.447 59.9185 74.6042 59.7134C74.7614 59.5015 74.84 59.2622 74.84 58.9956ZM86.2637 53.2739V62H83.7925V50.9053H86.1201L86.2637 53.2739ZM85.8228 56.0425L85.023 56.0322C85.0298 55.2461 85.1392 54.5249 85.3511 53.8687C85.5698 53.2124 85.8706 52.6484 86.2534 52.1768C86.6431 51.7051 87.1079 51.3428 87.648 51.0898C88.188 50.8301 88.7896 50.7002 89.4527 50.7002C89.9859 50.7002 90.4678 50.7754 90.8985 50.9258C91.336 51.0693 91.7085 51.3052 92.0161 51.6333C92.3306 51.9614 92.5698 52.3887 92.7339 52.915C92.898 53.4346 92.98 54.0737 92.98 54.8325V62H90.4986V54.8223C90.4986 54.2891 90.4199 53.8687 90.2627 53.561C90.1123 53.2466 89.8902 53.0244 89.5962 52.8945C89.3091 52.7578 88.9502 52.6895 88.5196 52.6895C88.0957 52.6895 87.7163 52.7783 87.3814 52.9561C87.0464 53.1338 86.7627 53.3765 86.5303 53.6841C86.3047 53.9917 86.1304 54.3472 86.0073 54.7505C85.8843 55.1538 85.8228 55.5845 85.8228 56.0425ZM101.758 59.3853V50.9053H104.239V62H101.901L101.758 59.3853ZM102.106 57.0781L102.937 57.0576C102.937 57.8027 102.855 58.4897 102.691 59.1187C102.527 59.7407 102.274 60.2842 101.932 60.749C101.59 61.207 101.153 61.5659 100.62 61.8257C100.086 62.0786 99.4472 62.2051 98.7021 62.2051C98.162 62.2051 97.6664 62.1265 97.2153 61.9692C96.7641 61.812 96.3745 61.5693 96.0463 61.2412C95.725 60.9131 95.4755 60.4858 95.2978 59.9595C95.1201 59.4331 95.0312 58.8042 95.0312 58.0728V50.9053H97.5024V58.0933C97.5024 58.4966 97.5502 58.835 97.6459 59.1084C97.7416 59.375 97.8715 59.5903 98.0356 59.7544C98.1996 59.9185 98.3911 60.0347 98.6098 60.103C98.8286 60.1714 99.061 60.2056 99.3071 60.2056C100.011 60.2056 100.565 60.0688 100.968 59.7954C101.378 59.5151 101.669 59.1392 101.84 58.6675C102.018 58.1958 102.106 57.666 102.106 57.0781ZM111.243 62.2051C110.423 62.2051 109.681 62.0718 109.018 61.8052C108.362 61.5317 107.801 61.1523 107.336 60.667C106.878 60.1816 106.526 59.6108 106.28 58.9546C106.034 58.2983 105.911 57.5908 105.911 56.832V56.4219C105.911 55.5537 106.037 54.7676 106.29 54.0635C106.543 53.3594 106.895 52.7578 107.347 52.2588C107.798 51.7529 108.331 51.3667 108.946 51.1001C109.561 50.8335 110.228 50.7002 110.946 50.7002C111.739 50.7002 112.432 50.8335 113.027 51.1001C113.622 51.3667 114.114 51.7427 114.504 52.228C114.9 52.7065 115.194 53.2773 115.386 53.9404C115.584 54.6035 115.683 55.335 115.683 56.1348V57.1909H107.111V55.417H113.243V55.2222C113.229 54.7778 113.14 54.3608 112.976 53.9712C112.819 53.5815 112.576 53.2671 112.248 53.0278C111.92 52.7886 111.482 52.6689 110.935 52.6689C110.525 52.6689 110.16 52.7578 109.838 52.9355C109.524 53.1064 109.261 53.356 109.049 53.6841C108.837 54.0122 108.673 54.4087 108.557 54.8735C108.447 55.3315 108.392 55.8477 108.392 56.4219V56.832C108.392 57.3174 108.457 57.7686 108.587 58.1855C108.724 58.5957 108.922 58.9546 109.182 59.2622C109.442 59.5698 109.756 59.8125 110.125 59.9902C110.494 60.1611 110.915 60.2466 111.387 60.2466C111.981 60.2466 112.511 60.127 112.976 59.8877C113.441 59.6484 113.844 59.3101 114.186 58.8726L115.488 60.1338C115.249 60.4824 114.938 60.8174 114.555 61.1387C114.172 61.4531 113.704 61.7095 113.15 61.9077C112.603 62.106 111.968 62.2051 111.243 62.2051ZM123.415 58.9956C123.415 58.7495 123.353 58.5273 123.23 58.3291C123.107 58.124 122.871 57.9395 122.523 57.7754C122.181 57.6113 121.675 57.4609 121.005 57.3242C120.417 57.1943 119.877 57.0405 119.385 56.8628C118.9 56.6782 118.483 56.4561 118.134 56.1963C117.785 55.9365 117.515 55.6289 117.324 55.2734C117.133 54.918 117.037 54.5078 117.037 54.043C117.037 53.5918 117.136 53.1646 117.334 52.7612C117.533 52.3579 117.816 52.0024 118.185 51.6948C118.554 51.3872 119.002 51.1445 119.529 50.9668C120.062 50.7891 120.657 50.7002 121.313 50.7002C122.242 50.7002 123.039 50.8574 123.702 51.1719C124.372 51.4795 124.885 51.8999 125.24 52.4331C125.595 52.9595 125.773 53.5542 125.773 54.2173H123.302C123.302 53.9233 123.227 53.6499 123.076 53.397C122.933 53.1372 122.714 52.9287 122.42 52.7715C122.126 52.6074 121.757 52.5254 121.313 52.5254C120.889 52.5254 120.537 52.5938 120.257 52.7305C119.983 52.8604 119.778 53.0312 119.641 53.2432C119.512 53.4551 119.447 53.6875 119.447 53.9404C119.447 54.125 119.481 54.2925 119.549 54.4429C119.624 54.5864 119.747 54.7197 119.918 54.8428C120.089 54.959 120.322 55.0684 120.616 55.1709C120.916 55.2734 121.292 55.3726 121.743 55.4683C122.591 55.646 123.319 55.875 123.928 56.1553C124.543 56.4287 125.014 56.7842 125.343 57.2217C125.671 57.6523 125.835 58.1992 125.835 58.8623C125.835 59.3545 125.729 59.8057 125.517 60.2158C125.312 60.6191 125.011 60.9712 124.615 61.272C124.218 61.5659 123.743 61.7949 123.189 61.959C122.642 62.123 122.027 62.2051 121.344 62.2051C120.339 62.2051 119.488 62.0273 118.79 61.6719C118.093 61.3096 117.563 60.8481 117.201 60.2876C116.845 59.7202 116.668 59.1323 116.668 58.5239H119.057C119.084 58.9819 119.211 59.3477 119.436 59.6211C119.669 59.8877 119.956 60.0825 120.298 60.2056C120.646 60.3218 121.005 60.3799 121.374 60.3799C121.819 60.3799 122.191 60.3218 122.492 60.2056C122.793 60.0825 123.022 59.9185 123.179 59.7134C123.336 59.5015 123.415 59.2622 123.415 58.9956ZM132.664 50.9053V52.71H126.409V50.9053H132.664ZM128.214 48.188H130.685V58.9341C130.685 59.2759 130.733 59.5391 130.829 59.7236C130.931 59.9014 131.071 60.021 131.249 60.0825C131.427 60.144 131.635 60.1748 131.875 60.1748C132.046 60.1748 132.21 60.1646 132.367 60.144C132.524 60.1235 132.651 60.103 132.746 60.0825L132.757 61.9692C132.551 62.0308 132.312 62.0854 132.039 62.1333C131.772 62.1812 131.465 62.2051 131.116 62.2051C130.549 62.2051 130.046 62.106 129.609 61.9077C129.171 61.7026 128.829 61.3711 128.583 60.9131C128.337 60.4551 128.214 59.8467 128.214 59.0879V48.188ZM136.633 53.0176V62H134.162V50.9053H136.52L136.633 53.0176ZM140.027 50.8335L140.006 53.1304C139.856 53.103 139.692 53.0825 139.514 53.0688C139.343 53.0552 139.172 53.0483 139.002 53.0483C138.578 53.0483 138.205 53.1099 137.884 53.2329C137.563 53.3491 137.293 53.52 137.074 53.7456C136.862 53.9644 136.698 54.231 136.582 54.5454C136.465 54.8599 136.397 55.2119 136.377 55.6016L135.813 55.6426C135.813 54.9453 135.881 54.2993 136.018 53.7046C136.154 53.1099 136.359 52.5869 136.633 52.1357C136.913 51.6846 137.262 51.3325 137.679 51.0796C138.103 50.8267 138.591 50.7002 139.145 50.7002C139.296 50.7002 139.456 50.7139 139.627 50.7412C139.805 50.7686 139.938 50.7993 140.027 50.8335ZM140.417 56.5757V56.3398C140.417 55.54 140.533 54.7983 140.766 54.1147C140.998 53.4243 141.333 52.8262 141.771 52.3203C142.215 51.8076 142.755 51.4111 143.391 51.1309C144.033 50.8438 144.758 50.7002 145.564 50.7002C146.378 50.7002 147.103 50.8438 147.738 51.1309C148.381 51.4111 148.924 51.8076 149.369 52.3203C149.813 52.8262 150.151 53.4243 150.384 54.1147C150.616 54.7983 150.732 55.54 150.732 56.3398V56.5757C150.732 57.3755 150.616 58.1172 150.384 58.8008C150.151 59.4844 149.813 60.0825 149.369 60.5952C148.924 61.1011 148.384 61.4976 147.749 61.7847C147.113 62.0649 146.392 62.2051 145.585 62.2051C144.772 62.2051 144.043 62.0649 143.401 61.7847C142.765 61.4976 142.225 61.1011 141.781 60.5952C141.336 60.0825 140.998 59.4844 140.766 58.8008C140.533 58.1172 140.417 57.3755 140.417 56.5757ZM142.888 56.3398V56.5757C142.888 57.0747 142.939 57.5464 143.042 57.9907C143.145 58.4351 143.305 58.8247 143.524 59.1597C143.743 59.4946 144.023 59.7578 144.365 59.9492C144.707 60.1406 145.113 60.2363 145.585 60.2363C146.043 60.2363 146.439 60.1406 146.774 59.9492C147.116 59.7578 147.397 59.4946 147.615 59.1597C147.834 58.8247 147.995 58.4351 148.097 57.9907C148.207 57.5464 148.261 57.0747 148.261 56.5757V56.3398C148.261 55.8477 148.207 55.3828 148.097 54.9453C147.995 54.501 147.831 54.1079 147.605 53.7661C147.386 53.4243 147.106 53.1577 146.764 52.9663C146.429 52.7681 146.029 52.6689 145.564 52.6689C145.1 52.6689 144.696 52.7681 144.355 52.9663C144.02 53.1577 143.743 53.4243 143.524 53.7661C143.305 54.1079 143.145 54.501 143.042 54.9453C142.939 55.3828 142.888 55.8477 142.888 56.3398ZM158.608 58.9956C158.608 58.7495 158.546 58.5273 158.423 58.3291C158.3 58.124 158.064 57.9395 157.716 57.7754C157.374 57.6113 156.868 57.4609 156.198 57.3242C155.61 57.1943 155.07 57.0405 154.578 56.8628C154.093 56.6782 153.676 56.4561 153.327 56.1963C152.978 55.9365 152.708 55.6289 152.517 55.2734C152.326 54.918 152.23 54.5078 152.23 54.043C152.23 53.5918 152.329 53.1646 152.527 52.7612C152.726 52.3579 153.009 52.0024 153.378 51.6948C153.748 51.3872 154.195 51.1445 154.722 50.9668C155.255 50.7891 155.85 50.7002 156.506 50.7002C157.436 50.7002 158.232 50.8574 158.895 51.1719C159.565 51.4795 160.078 51.8999 160.433 52.4331C160.789 52.9595 160.966 53.5542 160.966 54.2173H158.495C158.495 53.9233 158.42 53.6499 158.269 53.397C158.126 53.1372 157.907 52.9287 157.613 52.7715C157.319 52.6074 156.95 52.5254 156.506 52.5254C156.082 52.5254 155.73 52.5938 155.45 52.7305C155.176 52.8604 154.971 53.0312 154.834 53.2432C154.705 53.4551 154.64 53.6875 154.64 53.9404C154.64 54.125 154.674 54.2925 154.742 54.4429C154.817 54.5864 154.94 54.7197 155.111 54.8428C155.282 54.959 155.515 55.0684 155.809 55.1709C156.109 55.2734 156.485 55.3726 156.936 55.4683C157.784 55.646 158.512 55.875 159.121 56.1553C159.736 56.4287 160.207 56.7842 160.536 57.2217C160.864 57.6523 161.028 58.1992 161.028 58.8623C161.028 59.3545 160.922 59.8057 160.71 60.2158C160.505 60.6191 160.204 60.9712 159.808 61.272C159.411 61.5659 158.936 61.7949 158.382 61.959C157.835 62.123 157.22 62.2051 156.537 62.2051C155.532 62.2051 154.681 62.0273 153.983 61.6719C153.286 61.3096 152.756 60.8481 152.394 60.2876C152.039 59.7202 151.861 59.1323 151.861 58.5239H154.25C154.277 58.9819 154.404 59.3477 154.629 59.6211C154.862 59.8877 155.149 60.0825 155.491 60.2056C155.839 60.3218 156.198 60.3799 156.567 60.3799C157.012 60.3799 157.384 60.3218 157.685 60.2056C157.986 60.0825 158.215 59.9185 158.372 59.7134C158.529 59.5015 158.608 59.2622 158.608 58.9956ZM173.836 59.7749V54.4839C173.836 54.0874 173.764 53.7456 173.62 53.4585C173.477 53.1714 173.258 52.9492 172.964 52.792C172.677 52.6348 172.315 52.5562 171.877 52.5562C171.474 52.5562 171.125 52.6245 170.831 52.7612C170.537 52.8979 170.308 53.0825 170.144 53.3149C169.98 53.5474 169.898 53.8105 169.898 54.1045H167.437C167.437 53.667 167.543 53.2432 167.755 52.833C167.967 52.4229 168.275 52.0571 168.678 51.7358C169.081 51.4146 169.563 51.1616 170.124 50.9771C170.684 50.7925 171.313 50.7002 172.011 50.7002C172.845 50.7002 173.583 50.8403 174.225 51.1206C174.875 51.4009 175.384 51.8247 175.753 52.3921C176.129 52.9526 176.317 53.6567 176.317 54.5044V59.4365C176.317 59.9424 176.351 60.397 176.42 60.8003C176.495 61.1968 176.601 61.542 176.738 61.8359V62H174.205C174.089 61.7334 173.996 61.395 173.928 60.9849C173.867 60.5679 173.836 60.1646 173.836 59.7749ZM174.195 55.2529L174.215 56.7808H172.441C171.983 56.7808 171.58 56.8252 171.231 56.9141C170.883 56.9961 170.592 57.1191 170.36 57.2832C170.127 57.4473 169.953 57.6455 169.837 57.8779C169.721 58.1104 169.662 58.3735 169.662 58.6675C169.662 58.9614 169.731 59.2314 169.867 59.4775C170.004 59.7168 170.202 59.9048 170.462 60.0415C170.729 60.1782 171.05 60.2466 171.426 60.2466C171.932 60.2466 172.373 60.144 172.749 59.939C173.132 59.7271 173.432 59.4707 173.651 59.1699C173.87 58.8623 173.986 58.5718 174 58.2983L174.8 59.3955C174.718 59.6758 174.577 59.9766 174.379 60.2979C174.181 60.6191 173.921 60.9268 173.6 61.2207C173.285 61.5078 172.906 61.7437 172.462 61.9282C172.024 62.1128 171.518 62.2051 170.944 62.2051C170.22 62.2051 169.574 62.0615 169.006 61.7744C168.439 61.4805 167.994 61.0874 167.673 60.5952C167.352 60.0962 167.191 59.5322 167.191 58.9033C167.191 58.3154 167.301 57.7959 167.519 57.3447C167.745 56.8867 168.073 56.5039 168.504 56.1963C168.941 55.8887 169.474 55.6562 170.103 55.499C170.732 55.335 171.45 55.2529 172.257 55.2529H174.195ZM185.156 59.3853V50.9053H187.638V62H185.3L185.156 59.3853ZM185.505 57.0781L186.336 57.0576C186.336 57.8027 186.254 58.4897 186.09 59.1187C185.926 59.7407 185.673 60.2842 185.331 60.749C184.989 61.207 184.551 61.5659 184.018 61.8257C183.485 62.0786 182.846 62.2051 182.101 62.2051C181.561 62.2051 181.065 62.1265 180.614 61.9692C180.163 61.812 179.773 61.5693 179.445 61.2412C179.124 60.9131 178.874 60.4858 178.697 59.9595C178.519 59.4331 178.43 58.8042 178.43 58.0728V50.9053H180.901V58.0933C180.901 58.4966 180.949 58.835 181.045 59.1084C181.14 59.375 181.27 59.5903 181.434 59.7544C181.598 59.9185 181.79 60.0347 182.009 60.103C182.227 60.1714 182.46 60.2056 182.706 60.2056C183.41 60.2056 183.964 60.0688 184.367 59.7954C184.777 59.5151 185.068 59.1392 185.238 58.6675C185.416 58.1958 185.505 57.666 185.505 57.0781ZM194.837 50.9053V52.71H188.582V50.9053H194.837ZM190.386 48.188H192.858V58.9341C192.858 59.2759 192.905 59.5391 193.001 59.7236C193.104 59.9014 193.244 60.021 193.422 60.0825C193.599 60.144 193.808 60.1748 194.047 60.1748C194.218 60.1748 194.382 60.1646 194.539 60.144C194.696 60.1235 194.823 60.103 194.919 60.0825L194.929 61.9692C194.724 62.0308 194.485 62.0854 194.211 62.1333C193.944 62.1812 193.637 62.2051 193.288 62.2051C192.721 62.2051 192.218 62.106 191.781 61.9077C191.343 61.7026 191.002 61.3711 190.756 60.9131C190.509 60.4551 190.386 59.8467 190.386 59.0879V48.188ZM195.606 56.5757V56.3398C195.606 55.54 195.722 54.7983 195.955 54.1147C196.187 53.4243 196.522 52.8262 196.96 52.3203C197.404 51.8076 197.944 51.4111 198.58 51.1309C199.222 50.8438 199.947 50.7002 200.753 50.7002C201.567 50.7002 202.292 50.8438 202.927 51.1309C203.57 51.4111 204.113 51.8076 204.558 52.3203C205.002 52.8262 205.34 53.4243 205.573 54.1147C205.805 54.7983 205.921 55.54 205.921 56.3398V56.5757C205.921 57.3755 205.805 58.1172 205.573 58.8008C205.34 59.4844 205.002 60.0825 204.558 60.5952C204.113 61.1011 203.573 61.4976 202.938 61.7847C202.302 62.0649 201.581 62.2051 200.774 62.2051C199.961 62.2051 199.232 62.0649 198.59 61.7847C197.954 61.4976 197.414 61.1011 196.97 60.5952C196.525 60.0825 196.187 59.4844 195.955 58.8008C195.722 58.1172 195.606 57.3755 195.606 56.5757ZM198.077 56.3398V56.5757C198.077 57.0747 198.128 57.5464 198.231 57.9907C198.334 58.4351 198.494 58.8247 198.713 59.1597C198.932 59.4946 199.212 59.7578 199.554 59.9492C199.896 60.1406 200.302 60.2363 200.774 60.2363C201.232 60.2363 201.628 60.1406 201.963 59.9492C202.305 59.7578 202.586 59.4946 202.804 59.1597C203.023 58.8247 203.184 58.4351 203.286 57.9907C203.396 57.5464 203.45 57.0747 203.45 56.5757V56.3398C203.45 55.8477 203.396 55.3828 203.286 54.9453C203.184 54.501 203.02 54.1079 202.794 53.7661C202.575 53.4243 202.295 53.1577 201.953 52.9663C201.618 52.7681 201.218 52.6689 200.753 52.6689C200.289 52.6689 199.885 52.7681 199.544 52.9663C199.209 53.1577 198.932 53.4243 198.713 53.7661C198.494 54.1079 198.334 54.501 198.231 54.9453C198.128 55.3828 198.077 55.8477 198.077 56.3398ZM213.797 58.9956C213.797 58.7495 213.735 58.5273 213.612 58.3291C213.489 58.124 213.253 57.9395 212.905 57.7754C212.563 57.6113 212.057 57.4609 211.387 57.3242C210.799 57.1943 210.259 57.0405 209.767 56.8628C209.282 56.6782 208.865 56.4561 208.516 56.1963C208.167 55.9365 207.897 55.6289 207.706 55.2734C207.515 54.918 207.419 54.5078 207.419 54.043C207.419 53.5918 207.518 53.1646 207.716 52.7612C207.915 52.3579 208.198 52.0024 208.567 51.6948C208.937 51.3872 209.384 51.1445 209.911 50.9668C210.444 50.7891 211.039 50.7002 211.695 50.7002C212.624 50.7002 213.421 50.8574 214.084 51.1719C214.754 51.4795 215.267 51.8999 215.622 52.4331C215.978 52.9595 216.155 53.5542 216.155 54.2173H213.684C213.684 53.9233 213.609 53.6499 213.458 53.397C213.315 53.1372 213.096 52.9287 212.802 52.7715C212.508 52.6074 212.139 52.5254 211.695 52.5254C211.271 52.5254 210.919 52.5938 210.639 52.7305C210.365 52.8604 210.16 53.0312 210.023 53.2432C209.894 53.4551 209.829 53.6875 209.829 53.9404C209.829 54.125 209.863 54.2925 209.931 54.4429C210.006 54.5864 210.129 54.7197 210.3 54.8428C210.471 54.959 210.704 55.0684 210.998 55.1709C211.298 55.2734 211.674 55.3726 212.125 55.4683C212.973 55.646 213.701 55.875 214.31 56.1553C214.925 56.4287 215.396 56.7842 215.725 57.2217C216.053 57.6523 216.217 58.1992 216.217 58.8623C216.217 59.3545 216.111 59.8057 215.899 60.2158C215.694 60.6191 215.393 60.9712 214.997 61.272C214.6 61.5659 214.125 61.7949 213.571 61.959C213.024 62.123 212.409 62.2051 211.726 62.2051C210.721 62.2051 209.87 62.0273 209.172 61.6719C208.475 61.3096 207.945 60.8481 207.583 60.2876C207.228 59.7202 207.05 59.1323 207.05 58.5239H209.439C209.466 58.9819 209.593 59.3477 209.818 59.6211C210.051 59.8877 210.338 60.0825 210.68 60.2056C211.028 60.3218 211.387 60.3799 211.756 60.3799C212.201 60.3799 212.573 60.3218 212.874 60.2056C213.175 60.0825 213.404 59.9185 213.561 59.7134C213.718 59.5015 213.797 59.2622 213.797 58.9956ZM227.302 60.2363C227.705 60.2363 228.068 60.1577 228.389 60.0005C228.717 59.8364 228.98 59.6108 229.179 59.3237C229.384 59.0366 229.496 58.7051 229.517 58.3291H231.845C231.831 59.0469 231.619 59.6997 231.209 60.2876C230.799 60.8755 230.255 61.3438 229.578 61.6924C228.902 62.0342 228.153 62.2051 227.333 62.2051C226.485 62.2051 225.747 62.0615 225.118 61.7744C224.489 61.4805 223.966 61.0771 223.549 60.5645C223.132 60.0518 222.818 59.4604 222.606 58.7905C222.401 58.1206 222.298 57.4028 222.298 56.6372V56.2783C222.298 55.5127 222.401 54.7949 222.606 54.125C222.818 53.4482 223.132 52.8535 223.549 52.3408C223.966 51.8281 224.489 51.4282 225.118 51.1411C225.747 50.8472 226.482 50.7002 227.323 50.7002C228.211 50.7002 228.991 50.8779 229.66 51.2334C230.33 51.582 230.857 52.0708 231.24 52.6997C231.629 53.3218 231.831 54.0464 231.845 54.8735H229.517C229.496 54.4634 229.394 54.0942 229.209 53.7661C229.032 53.4312 228.779 53.1646 228.451 52.9663C228.129 52.7681 227.743 52.6689 227.292 52.6689C226.793 52.6689 226.379 52.7715 226.051 52.9766C225.723 53.1748 225.467 53.4482 225.282 53.7969C225.097 54.1387 224.964 54.5249 224.882 54.9556C224.807 55.3794 224.769 55.8203 224.769 56.2783V56.6372C224.769 57.0952 224.807 57.5396 224.882 57.9702C224.957 58.4009 225.087 58.7871 225.272 59.1289C225.463 59.4639 225.723 59.7339 226.051 59.939C226.379 60.1372 226.796 60.2363 227.302 60.2363ZM239.997 59.3853V50.9053H242.478V62H240.14L239.997 59.3853ZM240.345 57.0781L241.176 57.0576C241.176 57.8027 241.094 58.4897 240.93 59.1187C240.766 59.7407 240.513 60.2842 240.171 60.749C239.829 61.207 239.392 61.5659 238.859 61.8257C238.325 62.0786 237.686 62.2051 236.941 62.2051C236.401 62.2051 235.906 62.1265 235.454 61.9692C235.003 61.812 234.614 61.5693 234.285 61.2412C233.964 60.9131 233.715 60.4858 233.537 59.9595C233.359 59.4331 233.27 58.8042 233.27 58.0728V50.9053H235.741V58.0933C235.741 58.4966 235.789 58.835 235.885 59.1084C235.981 59.375 236.111 59.5903 236.275 59.7544C236.439 59.9185 236.63 60.0347 236.849 60.103C237.068 60.1714 237.3 60.2056 237.546 60.2056C238.25 60.2056 238.804 60.0688 239.207 59.7954C239.617 59.5151 239.908 59.1392 240.079 58.6675C240.257 58.1958 240.345 57.666 240.345 57.0781ZM249.482 62.2051C248.662 62.2051 247.92 62.0718 247.257 61.8052C246.601 61.5317 246.04 61.1523 245.575 60.667C245.117 60.1816 244.765 59.6108 244.519 58.9546C244.273 58.2983 244.15 57.5908 244.15 56.832V56.4219C244.15 55.5537 244.277 54.7676 244.529 54.0635C244.782 53.3594 245.134 52.7578 245.586 52.2588C246.037 51.7529 246.57 51.3667 247.185 51.1001C247.8 50.8335 248.467 50.7002 249.185 50.7002C249.978 50.7002 250.672 50.8335 251.266 51.1001C251.861 51.3667 252.353 51.7427 252.743 52.228C253.139 52.7065 253.433 53.2773 253.625 53.9404C253.823 54.6035 253.922 55.335 253.922 56.1348V57.1909H245.35V55.417H251.482V55.2222C251.468 54.7778 251.379 54.3608 251.215 53.9712C251.058 53.5815 250.815 53.2671 250.487 53.0278C250.159 52.7886 249.721 52.6689 249.174 52.6689C248.764 52.6689 248.399 52.7578 248.077 52.9355C247.763 53.1064 247.5 53.356 247.288 53.6841C247.076 54.0122 246.912 54.4087 246.796 54.8735C246.686 55.3315 246.632 55.8477 246.632 56.4219V56.832C246.632 57.3174 246.696 57.7686 246.826 58.1855C246.963 58.5957 247.161 58.9546 247.421 59.2622C247.681 59.5698 247.995 59.8125 248.364 59.9902C248.734 60.1611 249.154 60.2466 249.626 60.2466C250.22 60.2466 250.75 60.127 251.215 59.8877C251.68 59.6484 252.083 59.3101 252.425 58.8726L253.727 60.1338C253.488 60.4824 253.177 60.8174 252.794 61.1387C252.411 61.4531 251.943 61.7095 251.389 61.9077C250.842 62.106 250.207 62.2051 249.482 62.2051ZM257.88 53.2739V62H255.409V50.9053H257.737L257.88 53.2739ZM257.44 56.0425L256.64 56.0322C256.647 55.2461 256.756 54.5249 256.968 53.8687C257.187 53.2124 257.487 52.6484 257.87 52.1768C258.26 51.7051 258.725 51.3428 259.265 51.0898C259.805 50.8301 260.406 50.7002 261.069 50.7002C261.603 50.7002 262.085 50.7754 262.515 50.9258C262.953 51.0693 263.325 51.3052 263.633 51.6333C263.947 51.9614 264.187 52.3887 264.351 52.915C264.515 53.4346 264.597 54.0737 264.597 54.8325V62H262.115V54.8223C262.115 54.2891 262.037 53.8687 261.879 53.561C261.729 53.2466 261.507 53.0244 261.213 52.8945C260.926 52.7578 260.567 52.6895 260.136 52.6895C259.712 52.6895 259.333 52.7783 258.998 52.9561C258.663 53.1338 258.379 53.3765 258.147 53.6841C257.921 53.9917 257.747 54.3472 257.624 54.7505C257.501 55.1538 257.44 55.5845 257.44 56.0425ZM271.785 50.9053V52.71H265.53V50.9053H271.785ZM267.335 48.188H269.806V58.9341C269.806 59.2759 269.854 59.5391 269.95 59.7236C270.052 59.9014 270.192 60.021 270.37 60.0825C270.548 60.144 270.756 60.1748 270.996 60.1748C271.167 60.1748 271.331 60.1646 271.488 60.144C271.645 60.1235 271.771 60.103 271.867 60.0825L271.877 61.9692C271.672 62.0308 271.433 62.0854 271.16 62.1333C270.893 62.1812 270.585 62.2051 270.237 62.2051C269.669 62.2051 269.167 62.106 268.729 61.9077C268.292 61.7026 267.95 61.3711 267.704 60.9131C267.458 60.4551 267.335 59.8467 267.335 59.0879V48.188ZM279.527 59.7749V54.4839C279.527 54.0874 279.455 53.7456 279.312 53.4585C279.168 53.1714 278.95 52.9492 278.656 52.792C278.369 52.6348 278.006 52.5562 277.569 52.5562C277.165 52.5562 276.817 52.6245 276.523 52.7612C276.229 52.8979 276 53.0825 275.836 53.3149C275.672 53.5474 275.59 53.8105 275.59 54.1045H273.129C273.129 53.667 273.235 53.2432 273.447 52.833C273.659 52.4229 273.966 52.0571 274.37 51.7358C274.773 51.4146 275.255 51.1616 275.815 50.9771C276.376 50.7925 277.005 50.7002 277.702 50.7002C278.536 50.7002 279.274 50.8403 279.917 51.1206C280.566 51.4009 281.076 51.8247 281.445 52.3921C281.821 52.9526 282.009 53.6567 282.009 54.5044V59.4365C282.009 59.9424 282.043 60.397 282.111 60.8003C282.186 61.1968 282.292 61.542 282.429 61.8359V62H279.896C279.78 61.7334 279.688 61.395 279.62 60.9849C279.558 60.5679 279.527 60.1646 279.527 59.7749ZM279.886 55.2529L279.907 56.7808H278.133C277.675 56.7808 277.271 56.8252 276.923 56.9141C276.574 56.9961 276.284 57.1191 276.051 57.2832C275.819 57.4473 275.644 57.6455 275.528 57.8779C275.412 58.1104 275.354 58.3735 275.354 58.6675C275.354 58.9614 275.422 59.2314 275.559 59.4775C275.696 59.7168 275.894 59.9048 276.154 60.0415C276.42 60.1782 276.742 60.2466 277.118 60.2466C277.623 60.2466 278.064 60.144 278.44 59.939C278.823 59.7271 279.124 59.4707 279.343 59.1699C279.561 58.8623 279.678 58.5718 279.691 58.2983L280.491 59.3955C280.409 59.6758 280.269 59.9766 280.071 60.2979C279.872 60.6191 279.613 60.9268 279.291 61.2207C278.977 61.5078 278.598 61.7437 278.153 61.9282C277.716 62.1128 277.21 62.2051 276.636 62.2051C275.911 62.2051 275.265 62.0615 274.698 61.7744C274.13 61.4805 273.686 61.0874 273.365 60.5952C273.043 60.0962 272.883 59.5322 272.883 58.9033C272.883 58.3154 272.992 57.7959 273.211 57.3447C273.436 56.8867 273.765 56.5039 274.195 56.1963C274.633 55.8887 275.166 55.6562 275.795 55.499C276.424 55.335 277.142 55.2529 277.948 55.2529H279.886ZM286.623 53.2739V62H284.152V50.9053H286.48L286.623 53.2739ZM286.182 56.0425L285.383 56.0322C285.389 55.2461 285.499 54.5249 285.711 53.8687C285.93 53.2124 286.23 52.6484 286.613 52.1768C287.003 51.7051 287.468 51.3428 288.008 51.0898C288.548 50.8301 289.149 50.7002 289.812 50.7002C290.346 50.7002 290.827 50.7754 291.258 50.9258C291.696 51.0693 292.068 51.3052 292.376 51.6333C292.69 51.9614 292.93 52.3887 293.094 52.915C293.258 53.4346 293.34 54.0737 293.34 54.8325V62H290.858V54.8223C290.858 54.2891 290.78 53.8687 290.622 53.561C290.472 53.2466 290.25 53.0244 289.956 52.8945C289.669 52.7578 289.31 52.6895 288.879 52.6895C288.455 52.6895 288.076 52.7783 287.741 52.9561C287.406 53.1338 287.122 53.3765 286.89 53.6841C286.664 53.9917 286.49 54.3472 286.367 54.7505C286.244 55.1538 286.182 55.5845 286.182 56.0425ZM304.784 60.2363C305.187 60.2363 305.549 60.1577 305.871 60.0005C306.199 59.8364 306.462 59.6108 306.66 59.3237C306.865 59.0366 306.978 58.7051 306.999 58.3291H309.326C309.313 59.0469 309.101 59.6997 308.691 60.2876C308.28 60.8755 307.737 61.3438 307.06 61.6924C306.383 62.0342 305.635 62.2051 304.815 62.2051C303.967 62.2051 303.229 62.0615 302.6 61.7744C301.971 61.4805 301.448 61.0771 301.031 60.5645C300.614 60.0518 300.299 59.4604 300.088 58.7905C299.883 58.1206 299.78 57.4028 299.78 56.6372V56.2783C299.78 55.5127 299.883 54.7949 300.088 54.125C300.299 53.4482 300.614 52.8535 301.031 52.3408C301.448 51.8281 301.971 51.4282 302.6 51.1411C303.229 50.8472 303.964 50.7002 304.804 50.7002C305.693 50.7002 306.472 50.8779 307.142 51.2334C307.812 51.582 308.339 52.0708 308.721 52.6997C309.111 53.3218 309.313 54.0464 309.326 54.8735H306.999C306.978 54.4634 306.876 54.0942 306.691 53.7661C306.513 53.4312 306.26 53.1646 305.932 52.9663C305.611 52.7681 305.225 52.6689 304.774 52.6689C304.275 52.6689 303.861 52.7715 303.533 52.9766C303.205 53.1748 302.948 53.4482 302.764 53.7969C302.579 54.1387 302.446 54.5249 302.364 54.9556C302.289 55.3794 302.251 55.8203 302.251 56.2783V56.6372C302.251 57.0952 302.289 57.5396 302.364 57.9702C302.439 58.4009 302.569 58.7871 302.754 59.1289C302.945 59.4639 303.205 59.7339 303.533 59.939C303.861 60.1372 304.278 60.2363 304.784 60.2363ZM310.332 56.5757V56.3398C310.332 55.54 310.448 54.7983 310.68 54.1147C310.913 53.4243 311.248 52.8262 311.685 52.3203C312.129 51.8076 312.67 51.4111 313.305 51.1309C313.948 50.8438 314.672 50.7002 315.479 50.7002C316.293 50.7002 317.017 50.8438 317.653 51.1309C318.296 51.4111 318.839 51.8076 319.283 52.3203C319.728 52.8262 320.066 53.4243 320.298 54.1147C320.531 54.7983 320.647 55.54 320.647 56.3398V56.5757C320.647 57.3755 320.531 58.1172 320.298 58.8008C320.066 59.4844 319.728 60.0825 319.283 60.5952C318.839 61.1011 318.299 61.4976 317.663 61.7847C317.027 62.0649 316.306 62.2051 315.5 62.2051C314.686 62.2051 313.958 62.0649 313.316 61.7847C312.68 61.4976 312.14 61.1011 311.695 60.5952C311.251 60.0825 310.913 59.4844 310.68 58.8008C310.448 58.1172 310.332 57.3755 310.332 56.5757ZM312.803 56.3398V56.5757C312.803 57.0747 312.854 57.5464 312.957 57.9907C313.059 58.4351 313.22 58.8247 313.439 59.1597C313.657 59.4946 313.938 59.7578 314.279 59.9492C314.621 60.1406 315.028 60.2363 315.5 60.2363C315.958 60.2363 316.354 60.1406 316.689 59.9492C317.031 59.7578 317.311 59.4946 317.53 59.1597C317.749 58.8247 317.909 58.4351 318.012 57.9907C318.121 57.5464 318.176 57.0747 318.176 56.5757V56.3398C318.176 55.8477 318.121 55.3828 318.012 54.9453C317.909 54.501 317.745 54.1079 317.52 53.7661C317.301 53.4243 317.021 53.1577 316.679 52.9663C316.344 52.7681 315.944 52.6689 315.479 52.6689C315.014 52.6689 314.611 52.7681 314.269 52.9663C313.934 53.1577 313.657 53.4243 313.439 53.7661C313.22 54.1079 313.059 54.501 312.957 54.9453C312.854 55.3828 312.803 55.8477 312.803 56.3398ZM324.749 53.2739V62H322.278V50.9053H324.605L324.749 53.2739ZM324.308 56.0425L323.508 56.0322C323.515 55.2461 323.625 54.5249 323.836 53.8687C324.055 53.2124 324.356 52.6484 324.739 52.1768C325.128 51.7051 325.593 51.3428 326.133 51.0898C326.673 50.8301 327.275 50.7002 327.938 50.7002C328.471 50.7002 328.953 50.7754 329.384 50.9258C329.821 51.0693 330.194 51.3052 330.501 51.6333C330.816 51.9614 331.055 52.3887 331.219 52.915C331.383 53.4346 331.465 54.0737 331.465 54.8325V62H328.984V54.8223C328.984 54.2891 328.905 53.8687 328.748 53.561C328.598 53.2466 328.376 53.0244 328.082 52.8945C327.794 52.7578 327.436 52.6895 327.005 52.6895C326.581 52.6895 326.202 52.7783 325.867 52.9561C325.532 53.1338 325.248 53.3765 325.016 53.6841C324.79 53.9917 324.616 54.3472 324.493 54.7505C324.37 55.1538 324.308 55.5845 324.308 56.0425ZM341.136 53.4175H342.612C343.186 53.4175 343.661 53.3184 344.037 53.1201C344.42 52.9219 344.704 52.6484 344.889 52.2998C345.073 51.9512 345.165 51.5513 345.165 51.1001C345.165 50.6284 345.08 50.2251 344.909 49.8901C344.745 49.5483 344.492 49.2852 344.15 49.1006C343.815 48.916 343.388 48.8237 342.869 48.8237C342.431 48.8237 342.035 48.9126 341.679 49.0903C341.33 49.2612 341.054 49.5073 340.849 49.8286C340.643 50.1431 340.541 50.519 340.541 50.9565H338.059C338.059 50.1636 338.268 49.4595 338.685 48.8442C339.102 48.229 339.669 47.7471 340.387 47.3984C341.112 47.043 341.925 46.8652 342.828 46.8652C343.791 46.8652 344.632 47.0259 345.35 47.3472C346.075 47.6616 346.639 48.1333 347.042 48.7622C347.445 49.3911 347.647 50.1704 347.647 51.1001C347.647 51.5239 347.548 51.9546 347.349 52.3921C347.151 52.8296 346.857 53.2295 346.468 53.5918C346.078 53.9473 345.593 54.2378 345.012 54.4634C344.431 54.6821 343.757 54.7915 342.992 54.7915H341.136V53.4175ZM341.136 55.3452V53.9917H342.992C343.867 53.9917 344.612 54.0942 345.227 54.2993C345.849 54.5044 346.355 54.7881 346.745 55.1504C347.134 55.5059 347.418 55.9126 347.596 56.3706C347.78 56.8286 347.872 57.314 347.872 57.8267C347.872 58.5239 347.746 59.146 347.493 59.6929C347.247 60.2329 346.895 60.6909 346.437 61.0669C345.979 61.4429 345.442 61.7266 344.827 61.918C344.219 62.1094 343.556 62.2051 342.838 62.2051C342.195 62.2051 341.58 62.1162 340.992 61.9385C340.404 61.7607 339.878 61.4976 339.413 61.1489C338.948 60.7935 338.579 60.3525 338.306 59.8262C338.039 59.293 337.906 58.6777 337.906 57.9805H340.377C340.377 58.4248 340.479 58.8179 340.684 59.1597C340.896 59.4946 341.19 59.7578 341.566 59.9492C341.949 60.1406 342.387 60.2363 342.879 60.2363C343.398 60.2363 343.846 60.144 344.222 59.9595C344.598 59.7749 344.885 59.5015 345.083 59.1392C345.288 58.7769 345.391 58.3394 345.391 57.8267C345.391 57.2456 345.278 56.7739 345.053 56.4116C344.827 56.0493 344.506 55.7827 344.089 55.6118C343.672 55.4341 343.18 55.3452 342.612 55.3452H341.136ZM360.957 59.7749V54.4839C360.957 54.0874 360.885 53.7456 360.742 53.4585C360.598 53.1714 360.38 52.9492 360.086 52.792C359.799 52.6348 359.436 52.5562 358.999 52.5562C358.595 52.5562 358.247 52.6245 357.953 52.7612C357.659 52.8979 357.43 53.0825 357.266 53.3149C357.102 53.5474 357.02 53.8105 357.02 54.1045H354.559C354.559 53.667 354.665 53.2432 354.877 52.833C355.089 52.4229 355.396 52.0571 355.799 51.7358C356.203 51.4146 356.685 51.1616 357.245 50.9771C357.806 50.7925 358.435 50.7002 359.132 50.7002C359.966 50.7002 360.704 50.8403 361.347 51.1206C361.996 51.4009 362.506 51.8247 362.875 52.3921C363.251 52.9526 363.439 53.6567 363.439 54.5044V59.4365C363.439 59.9424 363.473 60.397 363.541 60.8003C363.616 61.1968 363.722 61.542 363.859 61.8359V62H361.326C361.21 61.7334 361.118 61.395 361.049 60.9849C360.988 60.5679 360.957 60.1646 360.957 59.7749ZM361.316 55.2529L361.337 56.7808H359.563C359.105 56.7808 358.701 56.8252 358.353 56.9141C358.004 56.9961 357.714 57.1191 357.481 57.2832C357.249 57.4473 357.074 57.6455 356.958 57.8779C356.842 58.1104 356.784 58.3735 356.784 58.6675C356.784 58.9614 356.852 59.2314 356.989 59.4775C357.126 59.7168 357.324 59.9048 357.584 60.0415C357.85 60.1782 358.172 60.2466 358.548 60.2466C359.053 60.2466 359.494 60.144 359.87 59.939C360.253 59.7271 360.554 59.4707 360.773 59.1699C360.991 58.8623 361.108 58.5718 361.121 58.2983L361.921 59.3955C361.839 59.6758 361.699 59.9766 361.501 60.2979C361.302 60.6191 361.043 60.9268 360.721 61.2207C360.407 61.5078 360.028 61.7437 359.583 61.9282C359.146 62.1128 358.64 62.2051 358.066 62.2051C357.341 62.2051 356.695 62.0615 356.128 61.7744C355.56 61.4805 355.116 61.0874 354.795 60.5952C354.473 60.0962 354.313 59.5322 354.313 58.9033C354.313 58.3154 354.422 57.7959 354.641 57.3447C354.866 56.8867 355.195 56.5039 355.625 56.1963C356.063 55.8887 356.596 55.6562 357.225 55.499C357.854 55.335 358.571 55.2529 359.378 55.2529H361.316ZM368.053 53.2739V62H365.582V50.9053H367.91L368.053 53.2739ZM367.612 56.0425L366.813 56.0322C366.819 55.2461 366.929 54.5249 367.141 53.8687C367.359 53.2124 367.66 52.6484 368.043 52.1768C368.433 51.7051 368.898 51.3428 369.438 51.0898C369.978 50.8301 370.579 50.7002 371.242 50.7002C371.776 50.7002 372.257 50.7754 372.688 50.9258C373.126 51.0693 373.498 51.3052 373.806 51.6333C374.12 51.9614 374.359 52.3887 374.524 52.915C374.688 53.4346 374.77 54.0737 374.77 54.8325V62H372.288V54.8223C372.288 54.2891 372.21 53.8687 372.052 53.561C371.902 53.2466 371.68 53.0244 371.386 52.8945C371.099 52.7578 370.74 52.6895 370.309 52.6895C369.885 52.6895 369.506 52.7783 369.171 52.9561C368.836 53.1338 368.552 53.3765 368.32 53.6841C368.094 53.9917 367.92 54.3472 367.797 54.7505C367.674 55.1538 367.612 55.5845 367.612 56.0425ZM372.473 46.373L373.98 46.4858C373.98 46.9849 373.881 47.4326 373.683 47.8291C373.484 48.2188 373.214 48.5264 372.873 48.752C372.531 48.9775 372.145 49.0903 371.714 49.0903C371.379 49.0903 371.095 49.0425 370.863 48.9468C370.63 48.8511 370.419 48.7417 370.227 48.6187C370.036 48.4956 369.838 48.3896 369.632 48.3008C369.434 48.2051 369.198 48.1572 368.925 48.1572C368.665 48.1572 368.443 48.2529 368.258 48.4443C368.081 48.6357 367.992 48.8921 367.992 49.2134L366.474 49.1313C366.474 48.6392 366.573 48.1948 366.772 47.7983C366.97 47.4019 367.24 47.0874 367.582 46.855C367.923 46.6226 368.31 46.5063 368.74 46.5063C369.021 46.5063 369.274 46.5542 369.499 46.6499C369.732 46.7388 369.95 46.8447 370.155 46.9678C370.367 47.0908 370.583 47.2002 370.801 47.2959C371.02 47.3916 371.263 47.4395 371.529 47.4395C371.789 47.4395 372.011 47.3403 372.196 47.1421C372.38 46.9438 372.473 46.6875 372.473 46.373ZM376.4 56.5757V56.3398C376.4 55.54 376.517 54.7983 376.749 54.1147C376.981 53.4243 377.316 52.8262 377.754 52.3203C378.198 51.8076 378.738 51.4111 379.374 51.1309C380.017 50.8438 380.741 50.7002 381.548 50.7002C382.361 50.7002 383.086 50.8438 383.722 51.1309C384.364 51.4111 384.908 51.8076 385.352 52.3203C385.796 52.8262 386.135 53.4243 386.367 54.1147C386.6 54.7983 386.716 55.54 386.716 56.3398V56.5757C386.716 57.3755 386.6 58.1172 386.367 58.8008C386.135 59.4844 385.796 60.0825 385.352 60.5952C384.908 61.1011 384.368 61.4976 383.732 61.7847C383.096 62.0649 382.375 62.2051 381.568 62.2051C380.755 62.2051 380.027 62.0649 379.384 61.7847C378.749 61.4976 378.209 61.1011 377.764 60.5952C377.32 60.0825 376.981 59.4844 376.749 58.8008C376.517 58.1172 376.4 57.3755 376.4 56.5757ZM378.872 56.3398V56.5757C378.872 57.0747 378.923 57.5464 379.025 57.9907C379.128 58.4351 379.289 58.8247 379.507 59.1597C379.726 59.4946 380.006 59.7578 380.348 59.9492C380.69 60.1406 381.097 60.2363 381.568 60.2363C382.026 60.2363 382.423 60.1406 382.758 59.9492C383.1 59.7578 383.38 59.4946 383.599 59.1597C383.817 58.8247 383.978 58.4351 384.081 57.9907C384.19 57.5464 384.245 57.0747 384.245 56.5757V56.3398C384.245 55.8477 384.19 55.3828 384.081 54.9453C383.978 54.501 383.814 54.1079 383.588 53.7661C383.37 53.4243 383.089 53.1577 382.748 52.9663C382.413 52.7681 382.013 52.6689 381.548 52.6689C381.083 52.6689 380.68 52.7681 380.338 52.9663C380.003 53.1577 379.726 53.4243 379.507 53.7661C379.289 54.1079 379.128 54.501 379.025 54.9453C378.923 55.3828 378.872 55.8477 378.872 56.3398ZM394.591 58.9956C394.591 58.7495 394.53 58.5273 394.407 58.3291C394.284 58.124 394.048 57.9395 393.699 57.7754C393.357 57.6113 392.852 57.4609 392.182 57.3242C391.594 57.1943 391.054 57.0405 390.561 56.8628C390.076 56.6782 389.659 56.4561 389.311 56.1963C388.962 55.9365 388.692 55.6289 388.5 55.2734C388.309 54.918 388.213 54.5078 388.213 54.043C388.213 53.5918 388.312 53.1646 388.511 52.7612C388.709 52.3579 388.993 52.0024 389.362 51.6948C389.731 51.3872 390.179 51.1445 390.705 50.9668C391.238 50.7891 391.833 50.7002 392.489 50.7002C393.419 50.7002 394.215 50.8574 394.878 51.1719C395.548 51.4795 396.061 51.8999 396.416 52.4331C396.772 52.9595 396.95 53.5542 396.95 54.2173H394.478C394.478 53.9233 394.403 53.6499 394.253 53.397C394.109 53.1372 393.891 52.9287 393.597 52.7715C393.303 52.6074 392.934 52.5254 392.489 52.5254C392.065 52.5254 391.713 52.5938 391.433 52.7305C391.16 52.8604 390.955 53.0312 390.818 53.2432C390.688 53.4551 390.623 53.6875 390.623 53.9404C390.623 54.125 390.657 54.2925 390.726 54.4429C390.801 54.5864 390.924 54.7197 391.095 54.8428C391.266 54.959 391.498 55.0684 391.792 55.1709C392.093 55.2734 392.469 55.3726 392.92 55.4683C393.768 55.646 394.496 55.875 395.104 56.1553C395.719 56.4287 396.191 56.7842 396.519 57.2217C396.847 57.6523 397.011 58.1992 397.011 58.8623C397.011 59.3545 396.905 59.8057 396.693 60.2158C396.488 60.6191 396.187 60.9712 395.791 61.272C395.395 61.5659 394.919 61.7949 394.366 61.959C393.819 62.123 393.204 62.2051 392.52 62.2051C391.515 62.2051 390.664 62.0273 389.967 61.6719C389.27 61.3096 388.74 60.8481 388.377 60.2876C388.022 59.7202 387.844 59.1323 387.844 58.5239H390.233C390.261 58.9819 390.387 59.3477 390.613 59.6211C390.845 59.8877 391.132 60.0825 391.474 60.2056C391.823 60.3218 392.182 60.3799 392.551 60.3799C392.995 60.3799 393.368 60.3218 393.668 60.2056C393.969 60.0825 394.198 59.9185 394.355 59.7134C394.513 59.5015 394.591 59.2622 394.591 58.9956ZM410.332 59.7031V46.25H412.813V62H410.568L410.332 59.7031ZM403.113 56.5757V56.3604C403.113 55.5195 403.212 54.7539 403.41 54.0635C403.609 53.3662 403.896 52.7681 404.272 52.269C404.648 51.7632 405.106 51.377 405.646 51.1104C406.186 50.8369 406.794 50.7002 407.471 50.7002C408.141 50.7002 408.729 50.8301 409.235 51.0898C409.741 51.3496 410.171 51.7222 410.527 52.2075C410.882 52.686 411.166 53.2603 411.378 53.9302C411.59 54.5933 411.74 55.3315 411.829 56.145V56.832C411.74 57.625 411.59 58.3496 411.378 59.0059C411.166 59.6621 410.882 60.2295 410.527 60.708C410.171 61.1865 409.737 61.5557 409.224 61.8154C408.719 62.0752 408.127 62.2051 407.451 62.2051C406.781 62.2051 406.176 62.0649 405.636 61.7847C405.102 61.5044 404.648 61.1113 404.272 60.6055C403.896 60.0996 403.609 59.5049 403.41 58.8213C403.212 58.1309 403.113 57.3823 403.113 56.5757ZM405.584 56.3604V56.5757C405.584 57.0815 405.629 57.5532 405.718 57.9907C405.813 58.4282 405.96 58.8145 406.159 59.1494C406.357 59.4775 406.613 59.7373 406.928 59.9287C407.249 60.1133 407.632 60.2056 408.076 60.2056C408.637 60.2056 409.098 60.0825 409.46 59.8364C409.823 59.5903 410.106 59.2588 410.311 58.8418C410.523 58.418 410.667 57.9463 410.742 57.4268V55.5708C410.701 55.1675 410.616 54.7915 410.486 54.4429C410.363 54.0942 410.195 53.79 409.983 53.5303C409.771 53.2637 409.508 53.0586 409.194 52.915C408.886 52.7646 408.52 52.6895 408.096 52.6895C407.645 52.6895 407.263 52.7852 406.948 52.9766C406.634 53.168 406.374 53.4312 406.169 53.7661C405.971 54.1011 405.824 54.4907 405.728 54.9351C405.632 55.3794 405.584 55.8545 405.584 56.3604ZM419.868 62.2051C419.048 62.2051 418.306 62.0718 417.643 61.8052C416.987 61.5317 416.426 61.1523 415.962 60.667C415.504 60.1816 415.152 59.6108 414.905 58.9546C414.659 58.2983 414.536 57.5908 414.536 56.832V56.4219C414.536 55.5537 414.663 54.7676 414.916 54.0635C415.169 53.3594 415.521 52.7578 415.972 52.2588C416.423 51.7529 416.956 51.3667 417.572 51.1001C418.187 50.8335 418.853 50.7002 419.571 50.7002C420.364 50.7002 421.058 50.8335 421.653 51.1001C422.247 51.3667 422.739 51.7427 423.129 52.228C423.526 52.7065 423.82 53.2773 424.011 53.9404C424.209 54.6035 424.308 55.335 424.308 56.1348V57.1909H415.736V55.417H421.868V55.2222C421.854 54.7778 421.765 54.3608 421.601 53.9712C421.444 53.5815 421.201 53.2671 420.873 53.0278C420.545 52.7886 420.108 52.6689 419.561 52.6689C419.151 52.6689 418.785 52.7578 418.464 52.9355C418.149 53.1064 417.886 53.356 417.674 53.6841C417.462 54.0122 417.298 54.4087 417.182 54.8735C417.072 55.3315 417.018 55.8477 417.018 56.4219V56.832C417.018 57.3174 417.083 57.7686 417.213 58.1855C417.349 58.5957 417.548 58.9546 417.807 59.2622C418.067 59.5698 418.382 59.8125 418.751 59.9902C419.12 60.1611 419.54 60.2466 420.012 60.2466C420.607 60.2466 421.136 60.127 421.601 59.8877C422.066 59.6484 422.469 59.3101 422.811 58.8726L424.113 60.1338C423.874 60.4824 423.563 60.8174 423.18 61.1387C422.798 61.4531 422.329 61.7095 421.776 61.9077C421.229 62.106 420.593 62.2051 419.868 62.2051ZM437.732 50.9053H439.977V61.6924C439.977 62.6904 439.765 63.5381 439.341 64.2354C438.918 64.9326 438.326 65.4624 437.567 65.8247C436.809 66.1938 435.93 66.3784 434.932 66.3784C434.508 66.3784 434.037 66.3169 433.517 66.1938C433.004 66.0708 432.505 65.8726 432.02 65.5991C431.542 65.3325 431.142 64.9805 430.82 64.543L431.979 63.0869C432.376 63.5586 432.813 63.9038 433.292 64.1226C433.77 64.3413 434.273 64.4507 434.799 64.4507C435.366 64.4507 435.848 64.3447 436.245 64.1328C436.648 63.9277 436.959 63.6235 437.178 63.2202C437.397 62.8169 437.506 62.3247 437.506 61.7437V53.4175L437.732 50.9053ZM430.195 56.5757V56.3604C430.195 55.5195 430.297 54.7539 430.503 54.0635C430.708 53.3662 431.002 52.7681 431.384 52.269C431.767 51.7632 432.232 51.377 432.779 51.1104C433.326 50.8369 433.944 50.7002 434.635 50.7002C435.353 50.7002 435.964 50.8301 436.47 51.0898C436.983 51.3496 437.41 51.7222 437.752 52.2075C438.094 52.686 438.36 53.2603 438.552 53.9302C438.75 54.5933 438.897 55.3315 438.993 56.145V56.832C438.904 57.625 438.753 58.3496 438.542 59.0059C438.33 59.6621 438.049 60.2295 437.701 60.708C437.352 61.1865 436.921 61.5557 436.409 61.8154C435.903 62.0752 435.305 62.2051 434.614 62.2051C433.938 62.2051 433.326 62.0649 432.779 61.7847C432.239 61.5044 431.774 61.1113 431.384 60.6055C431.002 60.0996 430.708 59.5049 430.503 58.8213C430.297 58.1309 430.195 57.3823 430.195 56.5757ZM432.666 56.3604V56.5757C432.666 57.0815 432.714 57.5532 432.81 57.9907C432.912 58.4282 433.066 58.8145 433.271 59.1494C433.483 59.4775 433.75 59.7373 434.071 59.9287C434.399 60.1133 434.785 60.2056 435.23 60.2056C435.811 60.2056 436.286 60.0825 436.655 59.8364C437.031 59.5903 437.318 59.2588 437.516 58.8418C437.721 58.418 437.865 57.9463 437.947 57.4268V55.5708C437.906 55.1675 437.82 54.7915 437.69 54.4429C437.567 54.0942 437.4 53.79 437.188 53.5303C436.976 53.2637 436.71 53.0586 436.388 52.915C436.067 52.7646 435.688 52.6895 435.25 52.6895C434.806 52.6895 434.419 52.7852 434.091 52.9766C433.763 53.168 433.493 53.4312 433.281 53.7661C433.076 54.1011 432.922 54.4907 432.82 54.9351C432.717 55.3794 432.666 55.8545 432.666 56.3604ZM448.375 59.7749V54.4839C448.375 54.0874 448.304 53.7456 448.16 53.4585C448.017 53.1714 447.798 52.9492 447.504 52.792C447.217 52.6348 446.854 52.5562 446.417 52.5562C446.014 52.5562 445.665 52.6245 445.371 52.7612C445.077 52.8979 444.848 53.0825 444.684 53.3149C444.52 53.5474 444.438 53.8105 444.438 54.1045H441.977C441.977 53.667 442.083 53.2432 442.295 52.833C442.507 52.4229 442.814 52.0571 443.218 51.7358C443.621 51.4146 444.103 51.1616 444.664 50.9771C445.224 50.7925 445.853 50.7002 446.55 50.7002C447.384 50.7002 448.123 50.8403 448.765 51.1206C449.415 51.4009 449.924 51.8247 450.293 52.3921C450.669 52.9526 450.857 53.6567 450.857 54.5044V59.4365C450.857 59.9424 450.891 60.397 450.959 60.8003C451.035 61.1968 451.141 61.542 451.277 61.8359V62H448.745C448.628 61.7334 448.536 61.395 448.468 60.9849C448.406 60.5679 448.375 60.1646 448.375 59.7749ZM448.734 55.2529L448.755 56.7808H446.981C446.523 56.7808 446.12 56.8252 445.771 56.9141C445.422 56.9961 445.132 57.1191 444.899 57.2832C444.667 57.4473 444.493 57.6455 444.376 57.8779C444.26 58.1104 444.202 58.3735 444.202 58.6675C444.202 58.9614 444.27 59.2314 444.407 59.4775C444.544 59.7168 444.742 59.9048 445.002 60.0415C445.269 60.1782 445.59 60.2466 445.966 60.2466C446.472 60.2466 446.913 60.144 447.289 59.939C447.671 59.7271 447.972 59.4707 448.191 59.1699C448.41 58.8623 448.526 58.5718 448.54 58.2983L449.339 59.3955C449.257 59.6758 449.117 59.9766 448.919 60.2979C448.721 60.6191 448.461 60.9268 448.14 61.2207C447.825 61.5078 447.446 61.7437 447.001 61.9282C446.564 62.1128 446.058 62.2051 445.484 62.2051C444.759 62.2051 444.113 62.0615 443.546 61.7744C442.978 61.4805 442.534 61.0874 442.213 60.5952C441.892 60.0962 441.731 59.5322 441.731 58.9033C441.731 58.3154 441.84 57.7959 442.059 57.3447C442.285 56.8867 442.613 56.5039 443.043 56.1963C443.481 55.8887 444.014 55.6562 444.643 55.499C445.272 55.335 445.99 55.2529 446.796 55.2529H448.734ZM455.502 53.0176V62H453.031V50.9053H455.39L455.502 53.0176ZM458.896 50.8335L458.876 53.1304C458.725 53.103 458.561 53.0825 458.384 53.0688C458.213 53.0552 458.042 53.0483 457.871 53.0483C457.447 53.0483 457.075 53.1099 456.753 53.2329C456.432 53.3491 456.162 53.52 455.943 53.7456C455.731 53.9644 455.567 54.231 455.451 54.5454C455.335 54.8599 455.267 55.2119 455.246 55.6016L454.682 55.6426C454.682 54.9453 454.75 54.2993 454.887 53.7046C455.024 53.1099 455.229 52.5869 455.502 52.1357C455.783 51.6846 456.131 51.3325 456.548 51.0796C456.972 50.8267 457.461 50.7002 458.015 50.7002C458.165 50.7002 458.326 50.7139 458.496 50.7412C458.674 50.7686 458.808 50.7993 458.896 50.8335ZM465.91 59.7749V54.4839C465.91 54.0874 465.839 53.7456 465.695 53.4585C465.552 53.1714 465.333 52.9492 465.039 52.792C464.752 52.6348 464.389 52.5562 463.952 52.5562C463.549 52.5562 463.2 52.6245 462.906 52.7612C462.612 52.8979 462.383 53.0825 462.219 53.3149C462.055 53.5474 461.973 53.8105 461.973 54.1045H459.512C459.512 53.667 459.618 53.2432 459.83 52.833C460.042 52.4229 460.349 52.0571 460.753 51.7358C461.156 51.4146 461.638 51.1616 462.199 50.9771C462.759 50.7925 463.388 50.7002 464.085 50.7002C464.919 50.7002 465.658 50.8403 466.3 51.1206C466.95 51.4009 467.459 51.8247 467.828 52.3921C468.204 52.9526 468.392 53.6567 468.392 54.5044V59.4365C468.392 59.9424 468.426 60.397 468.494 60.8003C468.57 61.1968 468.676 61.542 468.812 61.8359V62H466.28C466.163 61.7334 466.071 61.395 466.003 60.9849C465.941 60.5679 465.91 60.1646 465.91 59.7749ZM466.269 55.2529L466.29 56.7808H464.516C464.058 56.7808 463.655 56.8252 463.306 56.9141C462.957 56.9961 462.667 57.1191 462.434 57.2832C462.202 57.4473 462.028 57.6455 461.911 57.8779C461.795 58.1104 461.737 58.3735 461.737 58.6675C461.737 58.9614 461.805 59.2314 461.942 59.4775C462.079 59.7168 462.277 59.9048 462.537 60.0415C462.804 60.1782 463.125 60.2466 463.501 60.2466C464.007 60.2466 464.448 60.144 464.824 59.939C465.206 59.7271 465.507 59.4707 465.726 59.1699C465.945 58.8623 466.061 58.5718 466.075 58.2983L466.874 59.3955C466.792 59.6758 466.652 59.9766 466.454 60.2979C466.256 60.6191 465.996 60.9268 465.675 61.2207C465.36 61.5078 464.981 61.7437 464.536 61.9282C464.099 62.1128 463.593 62.2051 463.019 62.2051C462.294 62.2051 461.648 62.0615 461.081 61.7744C460.513 61.4805 460.069 61.0874 459.748 60.5952C459.427 60.0962 459.266 59.5322 459.266 58.9033C459.266 58.3154 459.375 57.7959 459.594 57.3447C459.82 56.8867 460.148 56.5039 460.578 56.1963C461.016 55.8887 461.549 55.6562 462.178 55.499C462.807 55.335 463.525 55.2529 464.331 55.2529H466.269ZM473.007 53.2739V62H470.535V50.9053H472.863L473.007 53.2739ZM472.566 56.0425L471.766 56.0322C471.773 55.2461 471.882 54.5249 472.094 53.8687C472.313 53.2124 472.614 52.6484 472.996 52.1768C473.386 51.7051 473.851 51.3428 474.391 51.0898C474.931 50.8301 475.532 50.7002 476.196 50.7002C476.729 50.7002 477.211 50.7754 477.641 50.9258C478.079 51.0693 478.451 51.3052 478.759 51.6333C479.073 51.9614 479.313 52.3887 479.477 52.915C479.641 53.4346 479.723 54.0737 479.723 54.8325V62H477.241V54.8223C477.241 54.2891 477.163 53.8687 477.006 53.561C476.855 53.2466 476.633 53.0244 476.339 52.8945C476.052 52.7578 475.693 52.6895 475.262 52.6895C474.839 52.6895 474.459 52.7783 474.124 52.9561C473.789 53.1338 473.506 53.3765 473.273 53.6841C473.048 53.9917 472.873 54.3472 472.75 54.7505C472.627 55.1538 472.566 55.5845 472.566 56.0425ZM486.911 50.9053V52.71H480.656V50.9053H486.911ZM482.461 48.188H484.932V58.9341C484.932 59.2759 484.98 59.5391 485.076 59.7236C485.178 59.9014 485.319 60.021 485.496 60.0825C485.674 60.144 485.882 60.1748 486.122 60.1748C486.293 60.1748 486.457 60.1646 486.614 60.144C486.771 60.1235 486.898 60.103 486.993 60.0825L487.004 61.9692C486.798 62.0308 486.559 62.0854 486.286 62.1333C486.019 62.1812 485.712 62.2051 485.363 62.2051C484.796 62.2051 484.293 62.106 483.856 61.9077C483.418 61.7026 483.076 61.3711 482.83 60.9131C482.584 60.4551 482.461 59.8467 482.461 59.0879V48.188ZM491.075 50.9053V62H488.604V50.9053H491.075ZM488.624 49.4287L490.624 46.3423H493.413L490.624 49.4287H488.624ZM499.729 59.7749V54.4839C499.729 54.0874 499.658 53.7456 499.514 53.4585C499.371 53.1714 499.152 52.9492 498.858 52.792C498.571 52.6348 498.208 52.5562 497.771 52.5562C497.368 52.5562 497.019 52.6245 496.725 52.7612C496.431 52.8979 496.202 53.0825 496.038 53.3149C495.874 53.5474 495.792 53.8105 495.792 54.1045H493.331C493.331 53.667 493.437 53.2432 493.649 52.833C493.861 52.4229 494.168 52.0571 494.572 51.7358C494.975 51.4146 495.457 51.1616 496.018 50.9771C496.578 50.7925 497.207 50.7002 497.904 50.7002C498.738 50.7002 499.477 50.8403 500.119 51.1206C500.769 51.4009 501.278 51.8247 501.647 52.3921C502.023 52.9526 502.211 53.6567 502.211 54.5044V59.4365C502.211 59.9424 502.245 60.397 502.313 60.8003C502.389 61.1968 502.495 61.542 502.631 61.8359V62H500.099C499.982 61.7334 499.89 61.395 499.822 60.9849C499.76 60.5679 499.729 60.1646 499.729 59.7749ZM500.088 55.2529L500.109 56.7808H498.335C497.877 56.7808 497.474 56.8252 497.125 56.9141C496.776 56.9961 496.486 57.1191 496.253 57.2832C496.021 57.4473 495.847 57.6455 495.73 57.8779C495.614 58.1104 495.556 58.3735 495.556 58.6675C495.556 58.9614 495.625 59.2314 495.761 59.4775C495.898 59.7168 496.096 59.9048 496.356 60.0415C496.623 60.1782 496.944 60.2466 497.32 60.2466C497.826 60.2466 498.267 60.144 498.643 59.939C499.025 59.7271 499.326 59.4707 499.545 59.1699C499.764 58.8623 499.88 58.5718 499.894 58.2983L500.693 59.3955C500.611 59.6758 500.471 59.9766 500.273 60.2979C500.075 60.6191 499.815 60.9268 499.494 61.2207C499.179 61.5078 498.8 61.7437 498.355 61.9282C497.918 62.1128 497.412 62.2051 496.838 62.2051C496.113 62.2051 495.467 62.0615 494.9 61.7744C494.333 61.4805 493.888 61.0874 493.567 60.5952C493.246 60.0962 493.085 59.5322 493.085 58.9033C493.085 58.3154 493.194 57.7959 493.413 57.3447C493.639 56.8867 493.967 56.5039 494.397 56.1963C494.835 55.8887 495.368 55.6562 495.997 55.499C496.626 55.335 497.344 55.2529 498.15 55.2529H500.088ZM508.713 56.5757V56.3398C508.713 55.54 508.829 54.7983 509.061 54.1147C509.294 53.4243 509.629 52.8262 510.066 52.3203C510.511 51.8076 511.051 51.4111 511.686 51.1309C512.329 50.8438 513.054 50.7002 513.86 50.7002C514.674 50.7002 515.398 50.8438 516.034 51.1309C516.677 51.4111 517.22 51.8076 517.664 52.3203C518.109 52.8262 518.447 53.4243 518.68 54.1147C518.912 54.7983 519.028 55.54 519.028 56.3398V56.5757C519.028 57.3755 518.912 58.1172 518.68 58.8008C518.447 59.4844 518.109 60.0825 517.664 60.5952C517.22 61.1011 516.68 61.4976 516.044 61.7847C515.409 62.0649 514.687 62.2051 513.881 62.2051C513.067 62.2051 512.339 62.0649 511.697 61.7847C511.061 61.4976 510.521 61.1011 510.077 60.5952C509.632 60.0825 509.294 59.4844 509.061 58.8008C508.829 58.1172 508.713 57.3755 508.713 56.5757ZM511.184 56.3398V56.5757C511.184 57.0747 511.235 57.5464 511.338 57.9907C511.44 58.4351 511.601 58.8247 511.82 59.1597C512.038 59.4946 512.319 59.7578 512.66 59.9492C513.002 60.1406 513.409 60.2363 513.881 60.2363C514.339 60.2363 514.735 60.1406 515.07 59.9492C515.412 59.7578 515.692 59.4946 515.911 59.1597C516.13 58.8247 516.29 58.4351 516.393 57.9907C516.502 57.5464 516.557 57.0747 516.557 56.5757V56.3398C516.557 55.8477 516.502 55.3828 516.393 54.9453C516.29 54.501 516.126 54.1079 515.901 53.7661C515.682 53.4243 515.402 53.1577 515.06 52.9663C514.725 52.7681 514.325 52.6689 513.86 52.6689C513.395 52.6689 512.992 52.7681 512.65 52.9663C512.315 53.1577 512.038 53.4243 511.82 53.7661C511.601 54.1079 511.44 54.501 511.338 54.9453C511.235 55.3828 511.184 55.8477 511.184 56.3398ZM532.81 46.978H533.118V48.998H532.944C532.062 48.998 531.299 49.1348 530.657 49.4082C530.021 49.6816 529.498 50.0576 529.088 50.5361C528.678 51.0146 528.37 51.5752 528.165 52.2178C527.967 52.8535 527.868 53.5303 527.868 54.248V56.5962C527.868 57.1909 527.933 57.7173 528.063 58.1753C528.193 58.6265 528.374 59.0059 528.606 59.3135C528.845 59.6143 529.119 59.8433 529.426 60.0005C529.734 60.1577 530.066 60.2363 530.421 60.2363C530.79 60.2363 531.125 60.1611 531.426 60.0107C531.727 59.8535 531.983 59.6382 532.195 59.3647C532.407 59.0913 532.568 58.7666 532.677 58.3906C532.786 58.0146 532.841 57.6045 532.841 57.1602C532.841 56.7363 532.786 56.3398 532.677 55.9707C532.574 55.5947 532.421 55.2666 532.216 54.9863C532.01 54.6992 531.754 54.4771 531.446 54.3198C531.146 54.1558 530.797 54.0737 530.401 54.0737C529.908 54.0737 529.461 54.1899 529.057 54.4224C528.661 54.6548 528.34 54.959 528.093 55.335C527.854 55.7041 527.724 56.0972 527.704 56.5142L526.76 56.2065C526.815 55.5708 526.955 55 527.181 54.4941C527.413 53.9883 527.717 53.5576 528.093 53.2021C528.469 52.8467 528.904 52.5767 529.396 52.3921C529.895 52.2007 530.442 52.105 531.036 52.105C531.761 52.105 532.39 52.2417 532.923 52.5151C533.456 52.7886 533.897 53.1611 534.246 53.6328C534.601 54.0977 534.864 54.6309 535.035 55.2324C535.213 55.8271 535.302 56.4492 535.302 57.0986C535.302 57.8164 535.193 58.4863 534.974 59.1084C534.755 59.7236 534.434 60.2637 534.01 60.7285C533.593 61.1934 533.084 61.5557 532.482 61.8154C531.887 62.0752 531.211 62.2051 530.452 62.2051C529.652 62.2051 528.938 62.0513 528.309 61.7437C527.687 61.436 527.157 61.0122 526.719 60.4722C526.289 59.9321 525.961 59.3101 525.735 58.606C525.509 57.9019 525.397 57.1567 525.397 56.3706V55.3452C525.397 54.2104 525.54 53.1406 525.827 52.1357C526.114 51.124 526.555 50.2319 527.15 49.4595C527.752 48.687 528.521 48.082 529.457 47.6445C530.394 47.2002 531.511 46.978 532.81 46.978ZM546.592 53.2842V55.7246C546.592 56.8936 546.476 57.8916 546.243 58.7188C546.018 59.5391 545.69 60.2056 545.259 60.7183C544.828 61.231 544.312 61.6069 543.711 61.8462C543.116 62.0854 542.449 62.2051 541.711 62.2051C541.123 62.2051 540.576 62.1299 540.07 61.9795C539.571 61.8291 539.12 61.5933 538.717 61.272C538.314 60.9507 537.968 60.5371 537.681 60.0312C537.401 59.5186 537.182 58.9067 537.025 58.1958C536.875 57.4849 536.799 56.6611 536.799 55.7246V53.2842C536.799 52.1084 536.916 51.1172 537.148 50.3105C537.38 49.4971 537.712 48.8374 538.143 48.3315C538.573 47.8188 539.086 47.4463 539.681 47.2139C540.282 46.9814 540.952 46.8652 541.691 46.8652C542.285 46.8652 542.832 46.9404 543.331 47.0908C543.837 47.2344 544.288 47.4634 544.685 47.7778C545.088 48.0923 545.43 48.5024 545.71 49.0083C545.997 49.5073 546.216 50.1123 546.366 50.8232C546.517 51.5273 546.592 52.3477 546.592 53.2842ZM544.121 56.0732V52.915C544.121 52.3203 544.087 51.7974 544.018 51.3462C543.95 50.8882 543.847 50.502 543.711 50.1875C543.581 49.8662 543.417 49.6064 543.218 49.4082C543.02 49.2031 542.795 49.0562 542.542 48.9673C542.289 48.8716 542.005 48.8237 541.691 48.8237C541.308 48.8237 540.966 48.8989 540.665 49.0493C540.364 49.1929 540.111 49.4253 539.906 49.7466C539.701 50.0679 539.544 50.4917 539.435 51.0181C539.332 51.5376 539.281 52.1699 539.281 52.915V56.0732C539.281 56.6748 539.315 57.2046 539.383 57.6626C539.452 58.1206 539.554 58.5137 539.691 58.8418C539.828 59.1631 539.992 59.4297 540.183 59.6416C540.381 59.8467 540.607 59.9971 540.86 60.0928C541.12 60.1885 541.403 60.2363 541.711 60.2363C542.101 60.2363 542.446 60.1611 542.747 60.0107C543.047 59.8604 543.3 59.6211 543.505 59.293C543.711 58.958 543.864 58.5239 543.967 57.9907C544.069 57.4575 544.121 56.8184 544.121 56.0732ZM550.837 59.6211L550.827 61.3848C550.827 62.082 550.653 62.7998 550.304 63.5381C549.956 64.2764 549.494 64.8848 548.92 65.3633L547.597 64.5942C547.789 64.2866 547.963 63.9756 548.12 63.6611C548.277 63.3467 548.404 63.0117 548.5 62.6562C548.595 62.3008 548.643 61.9077 548.643 61.4771V59.6211H550.837ZM562.384 53.2842V55.7246C562.384 56.8936 562.268 57.8916 562.035 58.7188C561.81 59.5391 561.481 60.2056 561.051 60.7183C560.62 61.231 560.104 61.6069 559.502 61.8462C558.908 62.0854 558.241 62.2051 557.503 62.2051C556.915 62.2051 556.368 62.1299 555.862 61.9795C555.363 61.8291 554.912 61.5933 554.509 61.272C554.105 60.9507 553.76 60.5371 553.473 60.0312C553.193 59.5186 552.974 58.9067 552.817 58.1958C552.666 57.4849 552.591 56.6611 552.591 55.7246V53.2842C552.591 52.1084 552.707 51.1172 552.94 50.3105C553.172 49.4971 553.504 48.8374 553.935 48.3315C554.365 47.8188 554.878 47.4463 555.473 47.2139C556.074 46.9814 556.744 46.8652 557.482 46.8652C558.077 46.8652 558.624 46.9404 559.123 47.0908C559.629 47.2344 560.08 47.4634 560.477 47.7778C560.88 48.0923 561.222 48.5024 561.502 49.0083C561.789 49.5073 562.008 50.1123 562.158 50.8232C562.309 51.5273 562.384 52.3477 562.384 53.2842ZM559.913 56.0732V52.915C559.913 52.3203 559.878 51.7974 559.81 51.3462C559.742 50.8882 559.639 50.502 559.502 50.1875C559.372 49.8662 559.208 49.6064 559.01 49.4082C558.812 49.2031 558.586 49.0562 558.333 48.9673C558.081 48.8716 557.797 48.8237 557.482 48.8237C557.1 48.8237 556.758 48.8989 556.457 49.0493C556.156 49.1929 555.903 49.4253 555.698 49.7466C555.493 50.0679 555.336 50.4917 555.227 51.0181C555.124 51.5376 555.073 52.1699 555.073 52.915V56.0732C555.073 56.6748 555.107 57.2046 555.175 57.6626C555.244 58.1206 555.346 58.5137 555.483 58.8418C555.62 59.1631 555.784 59.4297 555.975 59.6416C556.173 59.8467 556.399 59.9971 556.652 60.0928C556.912 60.1885 557.195 60.2363 557.503 60.2363C557.893 60.2363 558.238 60.1611 558.539 60.0107C558.839 59.8604 559.092 59.6211 559.297 59.293C559.502 58.958 559.656 58.5239 559.759 57.9907C559.861 57.4575 559.913 56.8184 559.913 56.0732ZM573.899 53.2842V55.7246C573.899 56.8936 573.783 57.8916 573.551 58.7188C573.325 59.5391 572.997 60.2056 572.566 60.7183C572.136 61.231 571.62 61.6069 571.018 61.8462C570.423 62.0854 569.757 62.2051 569.018 62.2051C568.431 62.2051 567.884 62.1299 567.378 61.9795C566.879 61.8291 566.428 61.5933 566.024 61.272C565.621 60.9507 565.276 60.5371 564.989 60.0312C564.708 59.5186 564.49 58.9067 564.332 58.1958C564.182 57.4849 564.107 56.6611 564.107 55.7246V53.2842C564.107 52.1084 564.223 51.1172 564.455 50.3105C564.688 49.4971 565.019 48.8374 565.45 48.3315C565.881 47.8188 566.393 47.4463 566.988 47.2139C567.59 46.9814 568.26 46.8652 568.998 46.8652C569.593 46.8652 570.14 46.9404 570.639 47.0908C571.144 47.2344 571.596 47.4634 571.992 47.7778C572.395 48.0923 572.737 48.5024 573.017 49.0083C573.305 49.5073 573.523 50.1123 573.674 50.8232C573.824 51.5273 573.899 52.3477 573.899 53.2842ZM571.428 56.0732V52.915C571.428 52.3203 571.394 51.7974 571.326 51.3462C571.257 50.8882 571.155 50.502 571.018 50.1875C570.888 49.8662 570.724 49.6064 570.526 49.4082C570.328 49.2031 570.102 49.0562 569.849 48.9673C569.596 48.8716 569.312 48.8237 568.998 48.8237C568.615 48.8237 568.273 48.8989 567.973 49.0493C567.672 49.1929 567.419 49.4253 567.214 49.7466C567.009 50.0679 566.851 50.4917 566.742 51.0181C566.64 51.5376 566.588 52.1699 566.588 52.915V56.0732C566.588 56.6748 566.622 57.2046 566.691 57.6626C566.759 58.1206 566.862 58.5137 566.998 58.8418C567.135 59.1631 567.299 59.4297 567.491 59.6416C567.689 59.8467 567.914 59.9971 568.167 60.0928C568.427 60.1885 568.711 60.2363 569.018 60.2363C569.408 60.2363 569.753 60.1611 570.054 60.0107C570.355 59.8604 570.608 59.6211 570.813 59.293C571.018 58.958 571.172 58.5239 571.274 57.9907C571.377 57.4575 571.428 56.8184 571.428 56.0732ZM585.415 53.2842V55.7246C585.415 56.8936 585.299 57.8916 585.066 58.7188C584.841 59.5391 584.512 60.2056 584.082 60.7183C583.651 61.231 583.135 61.6069 582.533 61.8462C581.939 62.0854 581.272 62.2051 580.534 62.2051C579.946 62.2051 579.399 62.1299 578.893 61.9795C578.394 61.8291 577.943 61.5933 577.54 61.272C577.136 60.9507 576.791 60.5371 576.504 60.0312C576.224 59.5186 576.005 58.9067 575.848 58.1958C575.698 57.4849 575.622 56.6611 575.622 55.7246V53.2842C575.622 52.1084 575.739 51.1172 575.971 50.3105C576.203 49.4971 576.535 48.8374 576.966 48.3315C577.396 47.8188 577.909 47.4463 578.504 47.2139C579.105 46.9814 579.775 46.8652 580.513 46.8652C581.108 46.8652 581.655 46.9404 582.154 47.0908C582.66 47.2344 583.111 47.4634 583.508 47.7778C583.911 48.0923 584.253 48.5024 584.533 49.0083C584.82 49.5073 585.039 50.1123 585.189 50.8232C585.34 51.5273 585.415 52.3477 585.415 53.2842ZM582.944 56.0732V52.915C582.944 52.3203 582.909 51.7974 582.841 51.3462C582.773 50.8882 582.67 50.502 582.533 50.1875C582.404 49.8662 582.24 49.6064 582.041 49.4082C581.843 49.2031 581.617 49.0562 581.365 48.9673C581.112 48.8716 580.828 48.8237 580.513 48.8237C580.131 48.8237 579.789 48.8989 579.488 49.0493C579.187 49.1929 578.934 49.4253 578.729 49.7466C578.524 50.0679 578.367 50.4917 578.258 51.0181C578.155 51.5376 578.104 52.1699 578.104 52.915V56.0732C578.104 56.6748 578.138 57.2046 578.206 57.6626C578.275 58.1206 578.377 58.5137 578.514 58.8418C578.651 59.1631 578.815 59.4297 579.006 59.6416C579.204 59.8467 579.43 59.9971 579.683 60.0928C579.943 60.1885 580.226 60.2363 580.534 60.2363C580.924 60.2363 581.269 60.1611 581.57 60.0107C581.87 59.8604 582.123 59.6211 582.328 59.293C582.533 58.958 582.687 58.5239 582.79 57.9907C582.892 57.4575 582.944 56.8184 582.944 56.0732ZM594.644 46.25V62H592.163V46.25H594.644ZM601.535 50.9053L596.705 56.2578L594.06 58.9648L593.414 56.873L595.413 54.4019L598.551 50.9053H601.535ZM599.084 62L595.485 56.791L597.044 55.0581L601.945 62H599.084ZM605.155 53.1611V62H602.684V50.9053H605.011L605.155 53.1611ZM604.755 56.0425L603.914 56.0322C603.914 55.2666 604.01 54.5591 604.201 53.9097C604.393 53.2603 604.673 52.6963 605.042 52.2178C605.411 51.7324 605.869 51.3599 606.416 51.1001C606.97 50.8335 607.609 50.7002 608.334 50.7002C608.839 50.7002 609.301 50.7754 609.718 50.9258C610.142 51.0693 610.507 51.2983 610.815 51.6128C611.129 51.9272 611.369 52.3306 611.533 52.8228C611.704 53.3149 611.789 53.9097 611.789 54.6069V62H609.318V54.8223C609.318 54.2822 609.236 53.8584 609.072 53.5508C608.915 53.2432 608.686 53.0244 608.385 52.8945C608.091 52.7578 607.739 52.6895 607.329 52.6895C606.864 52.6895 606.467 52.7783 606.139 52.9561C605.818 53.1338 605.555 53.3765 605.35 53.6841C605.145 53.9917 604.994 54.3472 604.898 54.7505C604.803 55.1538 604.755 55.5845 604.755 56.0425ZM611.635 55.3862L610.477 55.6426C610.477 54.9727 610.569 54.3403 610.753 53.7456C610.945 53.144 611.222 52.6177 611.584 52.1665C611.953 51.7085 612.408 51.3496 612.948 51.0898C613.488 50.8301 614.107 50.7002 614.804 50.7002C615.371 50.7002 615.877 50.7788 616.321 50.936C616.773 51.0864 617.155 51.3257 617.47 51.6538C617.784 51.9819 618.023 52.4092 618.188 52.9355C618.352 53.4551 618.434 54.084 618.434 54.8223V62H615.952V54.812C615.952 54.2515 615.87 53.8174 615.706 53.5098C615.549 53.2021 615.323 52.9902 615.029 52.874C614.735 52.751 614.383 52.6895 613.973 52.6895C613.59 52.6895 613.252 52.7612 612.958 52.9048C612.671 53.0415 612.428 53.2363 612.23 53.4893C612.032 53.7354 611.881 54.019 611.779 54.3403C611.683 54.6616 611.635 55.0103 611.635 55.3862Z" fill="white"/>
</g>
<defs>
<filter id="filter0_d_69_5185" x="18.4609" y="46.25" width="603.973" height="28.1284" filterUnits="userSpaceOnUse" color-interpolation-filters="sRGB">
<feFlood flood-opacity="0" result="BackgroundImageFix"/>
<feColorMatrix in="SourceAlpha" type="matrix" values="0 0 0 0 0 0 0 0 0 0 0 0 0 0 0 0 0 0 127 0" result="hardAlpha"/>
<feOffset dy="4"/>
<feGaussianBlur stdDeviation="2"/>
<feComposite in2="hardAlpha" operator="out"/>
<feColorMatrix type="matrix" values="0 0 0 0 0 0 0 0 0 0 0 0 0 0 0 0 0 0 0.25 0"/>
<feBlend mode="normal" in2="BackgroundImageFix" result="effect1_dropShadow_69_5185"/>
<feBlend mode="normal" in="SourceGraphic" in2="effect1_dropShadow_69_5185" result="shape"/>
</filter>
<linearGradient id="paint0_linear_69_5185" x1="148" y1="49.5" x2="1030" y2="63.5" gradientUnits="userSpaceOnUse">
<stop stop-color="#333A3D"/>
<stop offset="1" stop-color="#575959"/>
</linearGradient>
</defs>
</svg>
