<svg width="64" height="64" viewBox="0 0 64 64" fill="none" xmlns="http://www.w3.org/2000/svg">
<rect width="64" height="64" fill="#E5E5E5"/>
<path d="M-16857 -933C-16857 -934.104 -16856.1 -935 -16855 -935H2376C2377.11 -935 2378 -934.105 2378 -933V3390C2378 3391.1 2377.11 3392 2376 3392H-16855C-16856.1 3392 -16857 3391.1 -16857 3390V-933Z" fill="#CAD7F1"/>
<path d="M-16855 -934H2376V-936H-16855V-934ZM2377 -933V3390H2379V-933H2377ZM2376 3391H-16855V3393H2376V3391ZM-16856 3390V-933H-16858V3390H-16856ZM-16855 3391C-16855.6 3391 -16856 3390.55 -16856 3390H-16858C-16858 3391.66 -16856.7 3393 -16855 3393V3391ZM2377 3390C2377 3390.55 2376.55 3391 2376 3391V3393C2377.66 3393 2379 3391.66 2379 3390H2377ZM2376 -934C2376.55 -934 2377 -933.553 2377 -933H2379C2379 -934.657 2377.66 -936 2376 -936V-934ZM-16855 -936C-16856.7 -936 -16858 -934.657 -16858 -933H-16856C-16856 -933.552 -16855.6 -934 -16855 -934V-936Z" fill="black" fill-opacity="0.1"/>
<g clip-path="url(#clip0_259_1415)">
<rect width="1440" height="1337" transform="translate(-153 -255)" fill="#F7F7F9"/>
<rect x="-58" y="-40" width="1245" height="402" rx="6" fill="white"/>
<circle cx="32" cy="32" r="32" fill="#011F43"/>
<g clip-path="url(#clip1_259_1415)">
<path d="M16.7413 19.3651C15.7842 19.618 14.8477 20.37 14.417 21.2244C13.9864 22.0789 14 21.7508 14 30.1317C14 35.2791 14.0206 37.8905 14.0752 38.1639C14.1163 38.3827 14.2598 38.7996 14.3897 39.0799C14.6973 39.7157 15.3536 40.3924 15.9756 40.7069C16.8096 41.1239 17.0147 41.1375 20.8018 41.117L24.2198 41.0965L24.6778 40.9188C24.9307 40.8231 25.2862 40.6385 25.4776 40.5223C26.4415 39.9002 27.125 38.6629 27.125 37.535C27.125 37.3709 27.1524 37.2342 27.1866 37.2342C27.2891 37.2342 28.6563 38.0819 29.1075 38.4305C29.3536 38.6151 29.8184 39.0321 30.1534 39.3465C30.625 39.8045 30.837 40.078 31.1856 40.6795C32.1563 42.3543 32.7989 43.8856 33.3184 45.7791C33.4893 46.4012 33.7012 47.0301 33.7901 47.1873C34.4053 48.2401 35.8135 48.6229 37.1807 48.1102C38.5958 47.5702 39.4981 46.2713 39.4981 44.7879C39.4913 43.6327 38.9102 40.5496 38.4385 39.2166L38.3428 38.9432H42.294C44.6524 38.9432 46.3956 38.9159 46.6143 38.8748C48.1387 38.5877 49.212 37.0702 48.9522 35.5526C48.8565 35.0194 48.6172 34.4998 48.2754 34.1034L48.0293 33.8162L48.2754 33.5428C48.9659 32.7772 49.1778 31.5809 48.795 30.6034C48.7129 30.3983 48.5147 30.0496 48.3438 29.8309L48.0362 29.4344L48.2754 29.1678C48.9659 28.4022 49.1778 27.2059 48.795 26.2284C48.7129 26.0233 48.5147 25.6746 48.3438 25.4559L48.0362 25.0594L48.2891 24.7791C48.6104 24.4237 48.8565 23.8768 48.9522 23.3162C49.1641 22.0926 48.4737 20.8143 47.3116 20.2606L46.8467 20.0418L40.8448 20.0213L34.836 20.0077L31.0352 20.9647C28.9434 21.4979 27.1797 21.9422 27.1114 21.9627C27.0293 21.9901 26.9747 21.9149 26.8858 21.6551C26.5372 20.5955 25.4981 19.659 24.3428 19.3582C23.7754 19.2078 17.295 19.2147 16.7413 19.3651ZM24.4043 20.9168C24.8965 21.1561 25.3682 21.6688 25.5323 22.1473C25.6485 22.4823 25.6553 22.9334 25.6553 30.2274V37.952L25.4776 38.328C25.2247 38.8748 24.9239 39.1825 24.4043 39.4354L23.9463 39.661H20.5625H17.1788L16.7208 39.4354C16.2012 39.1825 15.9004 38.8748 15.6475 38.328L15.4698 37.952V30.2274C15.4698 22.9608 15.4766 22.4823 15.5928 22.1473C15.7295 21.7508 16.1397 21.2518 16.5088 21.0262C17.0215 20.7118 17.1788 20.6981 20.6993 20.7118L24.0147 20.7254L24.4043 20.9168ZM46.4708 21.5184C46.6622 21.5594 46.9083 21.6688 47.0176 21.7577C47.3116 22.0037 47.5167 22.4823 47.5098 22.9129C47.503 23.6922 46.9903 24.2323 46.1358 24.3485C45.6368 24.4168 45.377 24.6629 45.377 25.0594C45.377 25.4969 45.6368 25.7362 46.1973 25.825C47.0176 25.9549 47.5167 26.4881 47.5235 27.2469C47.5235 28.0536 47.004 28.6073 46.1358 28.7235C45.6368 28.7918 45.377 29.0379 45.377 29.4344C45.377 29.8719 45.6368 30.1112 46.1973 30.2C47.0176 30.3299 47.5167 30.8631 47.5235 31.6219C47.5235 32.4217 47.004 32.9823 46.1358 33.0985C45.6368 33.1668 45.377 33.4129 45.377 33.8094C45.377 34.2332 45.6368 34.4862 46.1631 34.5682C46.9971 34.7049 47.5167 35.2586 47.5167 36.0243C47.5167 36.619 47.1954 37.0975 46.6417 37.3504C46.3887 37.4666 45.9991 37.4735 41.6651 37.5077L36.9551 37.5418L36.7911 37.7332C36.5723 37.993 36.5791 38.2118 36.8663 39.1825C37.2491 40.4608 37.7618 42.5936 37.8916 43.4139C38.0489 44.3914 38.0079 45.3621 37.8096 45.745C37.6045 46.1278 37.1329 46.5653 36.7364 46.743C36.1143 47.0164 35.3487 46.9002 35.0821 46.4969C35.0206 46.4012 34.8633 45.9637 34.7403 45.5194C34.0157 43.0243 33.1202 40.8641 32.2657 39.5858C31.377 38.2664 29.3536 36.6258 27.5489 35.7713L27.125 35.5662V29.5164V23.4598L31.1104 22.4549L35.0889 21.4569L40.6055 21.45C44.3516 21.4432 46.2315 21.4637 46.4708 21.5184Z" fill="white"/>
<path d="M21.4512 33.9053C21.0205 34.0283 20.6855 34.2471 20.3642 34.6094C19.6328 35.4434 19.6875 36.79 20.4873 37.5625C20.9521 38.0137 21.3144 38.1572 22.0322 38.1572C22.7295 38.1572 23.0576 38.0342 23.5224 37.583C24.3428 36.8105 24.4043 35.4434 23.6728 34.582C23.1738 34.0078 22.1758 33.7002 21.4512 33.9053ZM22.4971 35.4844C22.8525 35.8125 22.8115 36.332 22.4082 36.6055C21.7109 37.0771 20.9179 36.1133 21.5127 35.5186C21.7793 35.252 22.2304 35.2383 22.4971 35.4844Z" fill="white"/>
</g>
</g>
<defs>
<clipPath id="clip0_259_1415">
<rect width="1440" height="1337" fill="white" transform="translate(-153 -255)"/>
</clipPath>
<clipPath id="clip1_259_1415">
<rect width="35" height="35" fill="white" transform="translate(14 17)"/>
</clipPath>
</defs>
</svg>
