<svg width="30" height="30" viewBox="0 0 30 30" fill="none" xmlns="http://www.w3.org/2000/svg">
<g id="ep:back">
<path id="Vector" d="M6.70652 14.0786H25.1339C25.3782 14.0786 25.6126 14.1757 25.7854 14.3485C25.9581 14.5213 26.0552 14.7556 26.0552 15C26.0552 15.2443 25.9581 15.4787 25.7854 15.6515C25.6126 15.8243 25.3782 15.9213 25.1339 15.9213H6.70652C6.46216 15.9213 6.22781 15.8243 6.05502 15.6515C5.88223 15.4787 5.78516 15.2443 5.78516 15C5.78516 14.7556 5.88223 14.5213 6.05502 14.3485C6.22781 14.1757 6.46216 14.0786 6.70652 14.0786Z" fill="black"/>
<path id="Vector_2" d="M7.09301 15L14.7348 22.64C14.9078 22.813 15.005 23.0476 15.005 23.2923C15.005 23.537 14.9078 23.7716 14.7348 23.9446C14.5618 24.1176 14.3272 24.2148 14.0825 24.2148C13.8378 24.2148 13.6032 24.1176 13.4302 23.9446L5.13787 15.6523C5.05207 15.5667 4.98399 15.465 4.93755 15.3531C4.8911 15.2412 4.86719 15.1212 4.86719 15C4.86719 14.8788 4.8911 14.7588 4.93755 14.6469C4.98399 14.5349 5.05207 14.4332 5.13787 14.3477L13.4302 6.05536C13.6032 5.88235 13.8378 5.78516 14.0825 5.78516C14.3272 5.78516 14.5618 5.88235 14.7348 6.05536C14.9078 6.22837 15.005 6.46302 15.005 6.70769C15.005 6.95236 14.9078 7.18701 14.7348 7.36001L7.09301 15Z" fill="black"/>
</g>
</svg>
