<svg width="64" height="64" viewBox="0 0 64 64" fill="none" xmlns="http://www.w3.org/2000/svg">
<g id="Group 1261153493">
<circle id="Ellipse 78" cx="32" cy="32" r="32" fill="#011F43"/>
<path id="money-bill-wave" d="M32 27.0469C29.8906 27.0469 28.25 29.0625 28.25 31.5469C28.25 34.0781 29.8906 36.0938 32 36.0938C34.0625 36.0938 35.75 34.0781 35.75 31.5469C35.75 29.0625 34.0625 27.0469 32 27.0469ZM46.1094 22.0781C44.2812 21.3281 42.4531 21 40.625 21C34.8594 21 29.0938 23.9531 23.3281 23.9531C21.875 23.9531 20.4219 23.7656 18.9688 23.2969C18.8281 23.25 18.6406 23.2031 18.5 23.2031C17.7031 23.2031 17 23.8594 17 24.7031V39.6094C17 40.1719 17.3281 40.7344 17.8438 40.9688C19.6719 41.7188 21.5 42 23.3281 42C29.0938 42 34.8594 39.0938 40.625 39.0938C42.0781 39.0938 43.5312 39.2812 44.9844 39.75C45.125 39.7969 45.3125 39.7969 45.4531 39.7969C46.25 39.7969 47 39.1875 47 38.3438V23.4375C47 22.875 46.625 22.3125 46.1094 22.0781ZM44.75 34.6406C43.4844 34.7812 42.4531 35.7188 42.1719 36.9375C41.6562 36.8906 41.1875 36.8438 40.625 36.8438C37.4844 36.8438 34.3906 37.6406 31.4375 38.3906C28.5781 39.0938 25.9062 39.75 23.3281 39.75C22.9531 39.75 22.5781 39.75 22.2031 39.75C22.1562 38.1094 20.8438 36.8438 19.25 36.8438V28.5469C20.7031 28.5469 21.875 27.5156 22.1562 26.1094C22.5312 26.1562 22.9062 26.2031 23.3281 26.2031C26.4688 26.2031 29.5625 25.4062 32.5156 24.6562C35.375 23.9531 38.0469 23.25 40.625 23.25C41.1406 23.25 41.6094 23.2969 42.125 23.3438C42.1719 24.8438 43.2969 26.0625 44.75 26.25V34.6406Z" fill="#CDE9FF"/>
</g>
</svg>
