<svg width="18" height="18" viewBox="0 0 18 18" fill="none" xmlns="http://www.w3.org/2000/svg">
<rect width="18" height="18" fill="#E5E5E5"/>
<g id="Propuesta sin imagen">
<path d="M-14872 -1303C-14872 -1304.1 -14871.1 -1305 -14870 -1305H4361C4362.11 -1305 4363 -1304.1 4363 -1303V3020C4363 3021.1 4362.11 3022 4361 3022H-14870C-14871.1 3022 -14872 3021.1 -14872 3020V-1303Z" fill="#CAD7F1"/>
<path d="M-14870 -1304H4361V-1306H-14870V-1304ZM4362 -1303V3020H4364V-1303H4362ZM4361 3021H-14870V3023H4361V3021ZM-14871 3020V-1303H-14873V3020H-14871ZM-14870 3021C-14870.6 3021 -14871 3020.55 -14871 3020H-14873C-14873 3021.66 -14871.7 3023 -14870 3023V3021ZM4362 3020C4362 3020.55 4361.55 3021 4361 3021V3023C4362.66 3023 4364 3021.66 4364 3020H4362ZM4361 -1304C4361.55 -1304 4362 -1303.55 4362 -1303H4364C4364 -1304.66 4362.66 -1306 4361 -1306V-1304ZM-14870 -1306C-14871.7 -1306 -14873 -1304.66 -14873 -1303H-14871C-14871 -1303.55 -14870.6 -1304 -14870 -1304V-1306Z" fill="black" fill-opacity="0.1"/>
<g id="Opci&#195;&#179;n 1 - Oferta - Desktop" clip-path="url(#clip0_259_1415)">
<rect width="1440" height="1437" transform="translate(-862 -629)" fill="#F7F7F9"/>
<g id="Frame 77">
<rect x="-767" y="-414" width="1245" height="503" rx="6" fill="white"/>
<g id="Group 1261153514">
<g id="Group 1261153512">
<g id="Frame 2608912">
<rect x="-80" y="-12" width="279" height="41.1191" rx="6" fill="#2BD366"/>
<path id="Whatsapp" d="M15.1315 2.52201C13.5201 0.917095 11.3191 0 8.96092 0C4.16592 0 0.235592 3.82123 0.235592 8.48313C0.235592 10.0116 0.667928 11.4637 1.41469 12.7247L0.196289 17.1191L4.79477 15.9727C6.09178 16.6224 7.5067 17.0045 8.96092 17.0045C13.7952 17.0045 17.8042 13.1832 17.8042 8.52134C17.8042 6.22861 16.7823 4.12693 15.1315 2.52201ZM8.96092 15.5524C7.66391 15.5524 6.40621 15.2085 5.26641 14.5589L5.03059 14.406L2.27936 15.1321L3.02612 12.5336L2.82961 12.2662C2.12215 11.1198 1.72912 9.82056 1.72912 8.48313C1.72912 4.62369 4.99129 1.45207 9.00022 1.45207C10.9261 1.45207 12.734 2.1781 14.1096 3.51553C15.4853 4.85296 16.3106 6.61073 16.3106 8.52134C16.3106 12.3808 12.9699 15.5524 8.96092 15.5524ZM12.9699 10.2791C12.734 10.1645 11.6728 9.66771 11.4763 9.59129C11.2798 9.51486 11.1226 9.47665 10.9654 9.70593C10.8475 9.89699 10.4151 10.3937 10.2972 10.5466C10.14 10.6612 10.0221 10.6994 9.82559 10.5848C8.52858 9.97341 7.70321 9.47665 6.83854 8.0628C6.60272 7.68067 7.07436 7.71889 7.46739 6.91643C7.546 6.76358 7.5067 6.64894 7.46739 6.5343C7.42809 6.41967 6.95645 5.38794 6.79924 4.9676C6.60272 4.54726 6.44551 4.58548 6.2883 4.58548C6.17039 4.58548 6.01317 4.58548 5.89526 4.58548C5.73805 4.58548 5.50223 4.62369 5.30571 4.85296C5.1092 5.08224 4.55895 5.579 4.55895 6.61073C4.55895 7.68067 5.30571 8.67419 5.42362 8.82704C5.54153 8.94168 6.95645 11.0816 9.15743 11.9987C10.533 12.6101 11.0833 12.6483 11.7908 12.5336C12.1838 12.4954 13.0485 12.0369 13.245 11.5401C13.4415 11.0434 13.4415 10.623 13.3629 10.5466C13.3236 10.432 13.1664 10.3937 12.9699 10.2791Z" fill="white"/>
</g>
</g>
</g>
</g>
</g>
</g>
<defs>
<clipPath id="clip0_259_1415">
<rect width="1440" height="1437" fill="white" transform="translate(-862 -629)"/>
</clipPath>
</defs>
</svg>
