<svg width="26" height="27" viewBox="0 0 26 27" fill="none" xmlns="http://www.w3.org/2000/svg">
<path fill-rule="evenodd" clip-rule="evenodd" d="M21.521 4.5091C19.1529 2.13821 16.0035 0.831957 12.6484 0.830566C5.73471 0.830566 0.107992 6.45713 0.105211 13.3726C0.104284 15.5833 0.681787 17.7413 1.77948 19.6434L0 26.1431L6.64932 24.3988C8.48148 25.3982 10.5441 25.9249 12.6433 25.9255H12.6485C19.5614 25.9255 25.1887 20.2985 25.1914 13.3827C25.1928 10.0311 23.8893 6.87983 21.521 4.5091ZM12.6484 23.8072H12.644C10.7734 23.8065 8.93879 23.3037 7.33791 22.3541L6.95738 22.128L3.01158 23.1632L4.06477 19.3161L3.8168 18.9216C2.77319 17.2617 2.22211 15.3432 2.22303 13.3734C2.22519 7.62542 6.90207 2.949 12.6525 2.949C15.4372 2.94993 18.0548 4.03572 20.023 6.00631C21.9913 7.9769 23.0746 10.5962 23.0737 13.3819C23.0712 19.1304 18.3947 23.8072 12.6484 23.8072ZM18.3669 15.9992C18.0535 15.8422 16.5126 15.0843 16.2252 14.9795C15.9382 14.875 15.729 14.8229 15.5203 15.1365C15.3113 15.4501 14.7107 16.1562 14.5278 16.3652C14.3449 16.5744 14.1623 16.6007 13.8488 16.4437C13.5353 16.2869 12.5255 15.9558 11.3284 14.8881C10.3968 14.0571 9.76781 13.0307 9.58488 12.7171C9.40227 12.4032 9.58334 12.2499 9.72239 12.0775C10.0617 11.6562 10.4014 11.2145 10.5058 11.0055C10.6104 10.7963 10.5581 10.6132 10.4796 10.4564C10.4014 10.2996 9.7746 8.75694 9.51351 8.12923C9.2589 7.51835 9.00074 7.60086 8.80824 7.59128C8.62562 7.58216 8.41659 7.58031 8.20756 7.58031C7.99868 7.58031 7.6591 7.65864 7.37174 7.97257C7.08453 8.28635 6.27498 9.04446 6.27498 10.5871C6.27498 12.1297 7.398 13.62 7.55466 13.8292C7.71132 14.0384 9.76472 17.204 12.9085 18.5614C13.6563 18.8846 14.24 19.0772 14.6953 19.2217C15.4461 19.4602 16.1291 19.4265 16.6693 19.3459C17.2715 19.2558 18.5234 18.5876 18.7848 17.8556C19.0459 17.1235 19.0459 16.4961 18.9674 16.3652C18.8892 16.2345 18.6802 16.1562 18.3669 15.9992Z" fill="white"/>
</svg>
