<svg width="23" height="23" viewBox="0 0 23 23" fill="none" xmlns="http://www.w3.org/2000/svg">
<g id="loupe 4" clip-path="url(#clip0_399_319)">
<g id="Group">
<g id="Group_2">
<path id="Vector" d="M22.5885 21.3648L16.1361 14.8243C17.386 13.2593 18.1385 11.2708 18.1385 9.10501C18.1385 4.08531 14.1092 0.000915527 9.15712 0.000915527C4.20508 0.000915527 0.175781 4.08526 0.175781 9.10496C0.175781 14.1247 4.20512 18.2091 9.15717 18.2091C11.2938 18.2091 13.2555 17.4462 14.7993 16.1793L21.2517 22.7199C21.4361 22.9068 21.6781 23.0007 21.9202 23.0007C22.1622 23.0007 22.4042 22.9068 22.5886 22.7199C22.9582 22.3452 22.9582 21.7395 22.5885 21.3648ZM9.15717 16.2924C5.24695 16.2924 2.06661 13.0686 2.06661 9.10496C2.06661 5.14132 5.24695 1.91753 9.15717 1.91753C13.0674 1.91753 16.2477 5.14132 16.2477 9.10496C16.2477 13.0686 13.0673 16.2924 9.15717 16.2924Z" fill="#6B6B6B"/>
</g>
</g>
</g>
<defs>
<clipPath id="clip0_399_319">
<rect width="22.69" height="23" fill="white" transform="translate(0.175781)"/>
</clipPath>
</defs>
</svg>
