<svg width="14" height="14" viewBox="0 0 14 14" fill="none" xmlns="http://www.w3.org/2000/svg">
<g id="loupe 4" clip-path="url(#clip0_399_338)">
<g id="Group">
<g id="Group_2">
<path id="Vector" d="M13.6425 13.0046L9.715 9.0234C10.4758 8.07083 10.9338 6.86042 10.9338 5.54211C10.9338 2.48664 8.48119 0.000488281 5.4669 0.000488281C2.45262 0.000488281 0 2.48661 0 5.54208C0 8.59755 2.45264 11.0837 5.46693 11.0837C6.76747 11.0837 7.96157 10.6194 8.9013 9.84821L12.8288 13.8294C12.9411 13.9432 13.0884 14.0003 13.2357 14.0003C13.383 14.0003 13.5304 13.9432 13.6426 13.8294C13.8676 13.6014 13.8676 13.2327 13.6425 13.0046ZM5.46693 9.91704C3.0868 9.91704 1.15094 7.95473 1.15094 5.54208C1.15094 3.12943 3.0868 1.16712 5.46693 1.16712C7.84706 1.16712 9.78292 3.12943 9.78292 5.54208C9.78292 7.95473 7.84704 9.91704 5.46693 9.91704Z" fill="#0B62BD"/>
</g>
</g>
</g>
<defs>
<clipPath id="clip0_399_338">
<rect width="13.8113" height="14" fill="white"/>
</clipPath>
</defs>
</svg>
