<svg width="54" height="60" viewBox="0 0 54 60" fill="none" xmlns="http://www.w3.org/2000/svg">
<path d="M40.875 9.60276C47.3895 14.0427 51.6667 21.5219 51.6667 30C51.6667 43.6231 40.6231 54.6667 27 54.6667C25.7352 54.6667 24.4926 54.5714 23.279 54.3879M23.279 54.3879L26.248 51.5833M23.279 54.3879L25.4583 57.75M30.5764 5.59073C29.4087 5.42112 28.2145 5.33333 27 5.33333C13.377 5.33333 2.33334 16.377 2.33334 30C2.33334 38.3497 6.48206 45.7305 12.8306 50.1934M30.5764 5.59073L28.5417 2.25M30.5764 5.59073L28.5417 8.41667M17.75 30L23.9167 36.1667L36.25 23.8333" stroke="#FF2946" stroke-width="4.5" stroke-linecap="round" stroke-linejoin="round"/>
</svg>
