<svg width="12" height="16" viewBox="0 0 12 16" fill="none" xmlns="http://www.w3.org/2000/svg">
<path fill-rule="evenodd" clip-rule="evenodd" d="M4.19526 0.861764C4.32029 0.736744 4.48985 0.666504 4.66667 0.666504H10C11.1046 0.666504 12 1.56194 12 2.6665V13.3332C12 14.4378 11.1046 15.3332 10 15.3332H2C0.895433 15.3332 0 14.4378 0 13.3332V5.33317C0 5.15636 0.0702401 4.98679 0.19526 4.86176L4.19526 0.861764ZM10 1.99984H5.33333V5.33317C5.33333 5.70136 5.03487 5.99984 4.66667 5.99984H1.33333V13.3332C1.33333 13.7014 1.63181 13.9998 2 13.9998H10C10.3682 13.9998 10.6667 13.7014 10.6667 13.3332V2.6665C10.6667 2.29832 10.3682 1.99984 10 1.99984ZM2.27614 4.6665H4V2.94264L2.27614 4.6665ZM2.66667 8.6665C2.66667 8.2983 2.96515 7.99984 3.33333 7.99984H8.66667C9.03487 7.99984 9.33333 8.2983 9.33333 8.6665C9.33333 9.0347 9.03487 9.33317 8.66667 9.33317H3.33333C2.96515 9.33317 2.66667 9.0347 2.66667 8.6665ZM2.66667 11.3332C2.66667 10.965 2.96515 10.6665 3.33333 10.6665H8.66667C9.03487 10.6665 9.33333 10.965 9.33333 11.3332C9.33333 11.7014 9.03487 11.9998 8.66667 11.9998H3.33333C2.96515 11.9998 2.66667 11.7014 2.66667 11.3332Z" fill="black"/>
</svg>
