<svg width="15" height="13" viewBox="0 0 15 13" fill="none" xmlns="http://www.w3.org/2000/svg">
<path d="M1.12504 10.0419C1.125 9.99614 1.125 9.94897 1.125 9.9003V3.1003C1.125 2.30689 1.125 1.90989 1.27941 1.60685C1.41523 1.34029 1.63179 1.12372 1.89836 0.987906C2.2014 0.833496 2.5984 0.833496 3.39181 0.833496H11.6085C12.4019 0.833496 12.7984 0.833496 13.1014 0.987906C13.368 1.12372 13.5849 1.34029 13.7207 1.60685C13.875 1.9096 13.875 2.30611 13.875 3.09797V9.90236C13.875 10.2459 13.875 10.5149 13.8624 10.7342M1.12504 10.0419C1.12558 10.7419 1.13447 11.1084 1.27941 11.3929C1.41523 11.6595 1.63179 11.8768 1.89836 12.0126C2.2011 12.1668 2.59762 12.1668 3.38948 12.1668H11.6109C12.4027 12.1668 12.7987 12.1668 13.1014 12.0126C13.368 11.8768 13.5849 11.6595 13.7207 11.3929C13.8081 11.2215 13.846 11.0202 13.8624 10.7342M1.12504 10.0419L4.50232 6.10173L4.50332 6.10066C4.80286 5.75117 4.95288 5.57614 5.13082 5.51303C5.28712 5.45764 5.45778 5.45891 5.6133 5.5165C5.79054 5.58216 5.93817 5.75917 6.23343 6.11348L8.12553 8.38398C8.39887 8.712 8.53629 8.8769 8.70317 8.94313C8.85044 9.0015 9.01279 9.00809 9.16465 8.96325C9.33756 8.91225 9.48978 8.76003 9.79415 8.45566L10.1462 8.10362C10.4561 7.79372 10.6111 7.63888 10.7865 7.58823C10.9404 7.54382 11.1051 7.55338 11.2533 7.61451C11.422 7.68421 11.5589 7.85478 11.8327 8.19698L13.8624 10.7342M13.8624 10.7342L13.875 10.7499M9.625 5.0835C9.23379 5.0835 8.91667 4.76636 8.91667 4.37516C8.91667 3.98396 9.23379 3.66683 9.625 3.66683C10.0162 3.66683 10.3333 3.98396 10.3333 4.37516C10.3333 4.76636 10.0162 5.0835 9.625 5.0835Z" stroke="black" stroke-width="1.41667" stroke-linecap="round" stroke-linejoin="round"/>
</svg>
