<svg width="92" height="92" viewBox="0 0 92 92" fill="none" xmlns="http://www.w3.org/2000/svg">
<rect width="92" height="92" fill="#E5E5E5"/>
<g clip-path="url(#clip0_10125_4975)">
<rect x="-676" y="-149" width="1440" height="1636" fill="white"/>
<rect x="-676" y="-149" width="1440" height="1232" fill="#F1F3F5"/>
<rect width="92" height="92" rx="6" fill="#FF2946"/>
<path d="M45.5731 11.8462C26.6462 12.1308 11.7039 27.6424 11.8462 46.427C12.1308 65.3539 27.6423 80.2962 46.4269 80.1539C65.3539 79.8693 80.2962 64.3578 80.1539 45.5731C79.8692 26.6462 64.3577 11.7039 45.5731 11.8462ZM45.5731 16.4001C50.6962 16.2578 55.5346 17.5385 59.6615 19.6731L55.1077 27.3578C52.4039 25.9347 49.2731 25.2231 46 25.2231C42.7269 25.2231 39.5962 25.9347 36.8923 27.3578L32.3385 19.6731C36.3231 17.6808 40.7346 16.4001 45.5731 16.4001ZM27.3577 55.1078L19.6731 59.6616C17.6808 55.677 16.4 51.1231 16.4 46.2847C16.2577 41.1616 17.5385 36.3231 19.6731 32.1962L27.3577 36.7501C25.9346 39.4539 25.2231 42.5847 25.2231 45.8578C25.2231 49.1308 25.9346 52.4039 27.3577 55.1078ZM46.4269 75.6001C41.3039 75.7424 36.4654 74.4616 32.3385 72.327L36.8923 64.6424C39.5962 66.0654 42.7269 66.777 46 66.777C49.2731 66.777 52.4039 66.0654 55.1077 64.6424L59.6615 72.327C55.6769 74.3193 51.2654 75.6001 46.4269 75.6001ZM46 62.3655C36.8923 62.3655 29.6346 54.9655 29.6346 46.0001C29.6346 36.8924 37.0346 29.6347 46 29.6347C55.1077 29.6347 62.3654 37.0347 62.3654 46.0001C62.3654 55.1078 55.1077 62.3655 46 62.3655ZM64.6423 55.1078C66.0654 52.4039 66.7769 49.2731 66.7769 46.0001C66.7769 42.727 66.0654 39.5962 64.6423 36.8924L72.3269 32.3385C74.3192 36.3231 75.6 40.877 75.6 45.7155C75.7423 50.8385 74.4615 55.677 72.3269 59.8039L64.6423 55.1078Z" fill="white"/>
</g>
<rect x="-675.5" y="-148.5" width="1439" height="1635" stroke="#E4E4E4"/>
<defs>
<clipPath id="clip0_10125_4975">
<rect x="-676" y="-149" width="1440" height="1636" fill="white"/>
</clipPath>
</defs>
</svg>
