<svg width="78" height="86" viewBox="0 0 78 86" fill="none" xmlns="http://www.w3.org/2000/svg">
<path d="M59.25 13.2311C68.7576 19.711 75 30.6265 75 43C75 62.8824 58.8824 79 39 79C37.1541 79 35.3406 78.861 33.5694 78.5932M33.5694 78.5932L37.9025 74.5M33.5694 78.5932L36.75 83.5M44.2195 7.37566C42.5154 7.12811 40.7725 7 39 7C19.1177 7 3 23.1177 3 43C3 55.186 9.05489 65.9581 18.3203 72.4714M44.2195 7.37566L41.25 2.5M44.2195 7.37566L41.25 11.5M25.5 43L34.5 52L52.5 34" stroke="#FF2946" stroke-width="4.5" stroke-linecap="round" stroke-linejoin="round"/>
</svg>
