<svg width="64" height="64" viewBox="0 0 64 64" fill="none" xmlns="http://www.w3.org/2000/svg">
<rect width="63.66" height="63.66" rx="31.83" fill="#E3FBEA"/>
<path d="M29.2858 0.0963783C25.8983 0.358879 21.9483 1.35888 18.8733 2.75888C4.69833 9.15888 -2.78917 24.5589 0.960827 39.5964C2.84833 47.1464 7.47333 53.7464 14.0233 58.1964C22.2483 63.7964 32.8733 65.1839 42.3233 61.8964C52.3233 58.4089 60.0608 50.0089 62.6608 39.7839C65.4358 28.8964 62.3608 17.4964 54.5108 9.52138C49.8483 4.78388 44.0858 1.73388 37.5858 0.533878C34.7733 0.0213776 32.1483 -0.116123 29.2858 0.0963783ZM35.8358 2.90888C38.9858 3.37138 41.9233 4.27138 44.6983 5.65888C50.6108 8.58388 55.1483 13.1214 58.0233 18.9964C60.0733 23.1964 60.9983 27.1714 60.9983 31.8339C60.9983 36.4964 60.0733 40.4714 58.0233 44.6714C55.1483 50.5464 50.5358 55.1464 44.6733 58.0214C39.1983 60.6964 33.5108 61.5964 27.5608 60.7089C24.4608 60.2464 21.9358 59.4464 18.9983 58.0214C10.2733 53.7714 4.42333 45.6839 2.88583 35.7714C2.59833 33.8839 2.59833 29.7839 2.88583 27.8964C3.73583 22.4339 5.77333 17.7089 9.06083 13.5839C14.0233 7.37138 21.5608 3.37138 29.5858 2.70888C31.1608 2.57138 34.1983 2.67138 35.8358 2.90888Z" fill="#42C94F"/>
<path d="M45.7109 20.546C45.6109 20.5835 41.1484 24.9835 35.8109 30.321L26.0859 40.021L22.2484 36.196C20.1234 34.0835 18.2734 32.296 18.1234 32.221C17.136 31.721 15.9485 32.746 16.336 33.7835C16.536 34.321 25.1734 42.921 25.6734 43.096C25.8984 43.171 26.2109 43.1835 26.3609 43.146C26.811 43.0085 47.3109 22.471 47.3984 22.071C47.5984 21.1585 46.5859 20.2335 45.7109 20.546Z" fill="#42C94F"/>
</svg>
