<svg width="52" height="52" viewBox="0 0 52 52" fill="none" xmlns="http://www.w3.org/2000/svg">
<g clip-path="url(#clip0_10438_5217)">
<path d="M26 0C11.64 0 0 11.64 0 26C0 40.36 11.64 52 26 52C40.36 52 52 40.36 52 26C52 11.64 40.36 0 26 0ZM26 47.9375C13.8839 47.9375 4.0625 38.1161 4.0625 26C4.0625 13.8839 13.8839 4.0625 26 4.0625C38.1161 4.0625 47.9375 13.8839 47.9375 26C47.9375 38.1161 38.1161 47.9375 26 47.9375Z" fill="#FF2946"/>
<path d="M33.2236 38.9969C33.8028 38.9985 39 35.1549 39 34.6646C39 34.1743 33.1839 30.5101 32.6809 30.5101C32.1778 30.5101 30.4894 32.535 30.034 32.7603C29.5769 32.9857 26.7332 32.9047 23.5641 29.7357C20.3934 26.5681 19.3112 22.9199 19.3112 22.347C19.3112 21.7741 21.955 20.0048 22.028 19.589C22.101 19.1732 18.5431 13 17.9655 13C17.3879 13 13 18.332 13 18.7764C13 19.2207 13.4015 24.9367 20.6394 32.1731C27.8774 39.4094 32.6444 38.9937 33.2236 38.9969Z" fill="#FF2946"/>
</g>
<defs>
<clipPath id="clip0_10438_5217">
<rect width="52" height="52" fill="white"/>
</clipPath>
</defs>
</svg>
