<svg width="54" height="54" viewBox="0 0 54 54" fill="none" xmlns="http://www.w3.org/2000/svg">
<path d="M45.6667 8.06651C43.223 5.60458 40.3144 3.65308 37.11 2.32545C33.9054 0.997813 30.4687 0.320613 27 0.33318C22.363 0.337713 17.8083 1.56051 13.7924 3.87911C9.77651 6.19771 6.44031 9.53074 4.11784 13.5444C1.79537 17.558 0.568241 22.1115 0.559241 26.7485C0.550274 31.3859 1.75981 35.9439 4.06671 39.9665L0.333374 53.6665L14.3334 49.9999C18.1992 52.1505 22.543 53.2969 26.9667 53.3332C33.999 53.3335 40.7467 50.5559 45.7407 45.6052C50.735 40.6549 53.5717 33.9319 53.6334 26.8999C53.61 23.3909 52.894 19.921 51.527 16.6892C50.16 13.4574 48.1684 10.5272 45.6667 8.06651ZM27 48.7665C23.059 48.7692 19.1901 47.7099 15.8 45.6999L15 45.1999L6.70004 47.3999L8.90004 39.2999L8.36671 38.4665C5.53087 33.8889 4.47251 28.4299 5.39211 23.1239C6.31171 17.818 9.14541 13.0337 13.3564 9.67728C17.5674 6.32081 22.863 4.62538 28.2404 4.91215C33.6177 5.19888 38.7034 7.44791 42.5334 11.2332C46.72 15.3271 49.1167 20.9115 49.2 26.7665C49.1474 32.6195 46.785 38.2149 42.6274 42.3352C38.47 46.4552 32.8534 48.7669 27 48.7665ZM39.0334 32.2999C38.3667 31.9665 35.1334 30.3665 34.5334 30.1665C33.9334 29.9665 33.4667 29.8332 33.0334 30.4999C32.3814 31.3935 31.68 32.2502 30.9334 33.0665C30.5667 33.5332 30.1667 33.5665 29.5 33.0665C25.699 31.5645 22.5324 28.7979 20.5334 25.2332C19.8334 24.0665 21.2 24.1332 22.4667 21.6332C22.5604 21.4529 22.609 21.2529 22.609 21.0499C22.609 20.8469 22.5604 20.6469 22.4667 20.4665C22.4667 20.1332 20.9667 16.8665 20.4334 15.5665C19.9 14.2665 19.3667 14.4665 18.9334 14.4332H17.6334C17.2965 14.4383 16.9647 14.5154 16.66 14.6591C16.3554 14.8028 16.0849 15.0099 15.8667 15.2665C15.1188 15.9938 14.5354 16.8729 14.1559 17.8446C13.7764 18.8164 13.6096 19.8582 13.6667 20.8999C13.8757 23.3935 14.8148 25.7702 16.3667 27.7332C19.2074 31.9859 23.1004 35.4309 27.6667 37.7332C30.0617 39.1312 32.845 39.7159 35.6 39.3999C36.5174 39.2179 37.3864 38.8449 38.15 38.3049C38.914 37.7652 39.5557 37.0705 40.0334 36.2665C40.476 35.2852 40.6154 34.1942 40.4334 33.1332C40.1334 32.7999 39.7 32.6332 39.0334 32.2999Z" fill="#2DD26E"/>
</svg>
