<svg width="23" height="26" viewBox="0 0 23 26" fill="none" xmlns="http://www.w3.org/2000/svg">
<path d="M17.4999 4.17957C20.317 6.09955 22.1666 9.33377 22.1666 13C22.1666 18.8911 17.391 23.6667 11.4999 23.6667C10.953 23.6667 10.4157 23.6255 9.89085 23.5461M9.89085 23.5461L11.1747 22.3333M9.89085 23.5461L10.8333 25M13.0465 2.44464C12.5415 2.37129 12.0251 2.33333 11.4999 2.33333C5.60888 2.33333 0.833252 7.10896 0.833252 13C0.833252 16.6107 2.62729 19.8024 5.3726 21.7323M13.0465 2.44464L12.1666 1M13.0465 2.44464L12.1666 3.66667M7.49992 13L10.1666 15.6667L15.4999 10.3333" stroke="white" stroke-width="1.33333" stroke-linecap="round" stroke-linejoin="round"/>
</svg>
